/* XPM */
static char *_[] = {
/* columns rows colors chars-per-pixel */
"64 64 254 2 ",
"   c #010000",
".  c #0A0706",
"X  c #140202",
"o  c #1A1B03",
"O  c #061513",
"+  c #1A1A1A",
"@  c #280000",
"#  c #390000",
"$  c #2C3008",
"%  c #363600",
"&  c #09322B",
"*  c #282E2E",
"=  c #393939",
"-  c #480101",
";  c #5B0101",
":  c #6A0606",
">  c #7C0000",
",  c #483F00",
"<  c #4C3535",
"1  c #35723C",
"2  c #424906",
"3  c #595901",
"4  c #7D5F12",
"5  c #6E6F0A",
"6  c #064A4A",
"7  c #025D5D",
"8  c #145959",
"9  c #284D4D",
"0  c #027170",
"q  c #317F7F",
"w  c #4B4B4A",
"e  c #514C4C",
"r  c #575756",
"t  c #704D4D",
"y  c #747050",
"u  c #586767",
"i  c #4D7272",
"p  c #437D7D",
"a  c #5C7272",
"s  c #686868",
"d  c #6C7272",
"f  c #787776",
"g  c #7E7E7E",
"h  c #890303",
"j  c #960101",
"k  c #A70000",
"l  c #BF0000",
"z  c #B70806",
"x  c #BE1901",
"c  c #AD1414",
"v  c #A21D1D",
"b  c #B31818",
"n  c #BC2506",
"m  c #BF2A00",
"M  c #BF3701",
"N  c #B03117",
"B  c #962929",
"V  c #883837",
"C  c #953C3C",
"Z  c #A92929",
"A  c #A93131",
"S  c #C10704",
"D  c #C10A00",
"F  c #C51802",
"G  c #C71C12",
"H  c #C51A1A",
"J  c #FE0200",
"K  c #FC0B00",
"L  c #FC1600",
"P  c #C02A00",
"I  c #C92800",
"U  c #C93501",
"Y  c #F43902",
"T  c #C82626",
"R  c #CE3838",
"E  c #BD4401",
"W  c #B86E0B",
"Q  c #A54F2F",
"!  c #956237",
"~  c #C74800",
"^  c #D14700",
"/  c #C85703",
"(  c #D45900",
")  c #FC4A00",
"_  c #E75101",
"`  c #FC5701",
"'  c #C76600",
"]  c #D56502",
"[  c #D96700",
"{  c #C67600",
"}  c #C07E00",
"|  c #D87700",
" . c #E66903",
".. c #FD6800",
"X. c #FB7A00",
"o. c #D7592F",
"O. c #994646",
"+. c #925653",
"@. c #A64444",
"#. c #B75050",
"$. c #966845",
"%. c #8E6464",
"&. c #8E7471",
"*. c #D14F4F",
"=. c #ED6C55",
"-. c #DA6C69",
";. c #DD7777",
":. c #738A17",
">. c #348A56",
",. c #6BA056",
"<. c #6EAF51",
"1. c #498A7A",
"2. c #57B772",
"3. c #7CC146",
"4. c #6BC358",
"5. c #58C870",
"6. c #69D26D",
"7. c #8A8A00",
"8. c #9A9900",
"9. c #B69406",
"0. c #BCB908",
"q. c #B1B514",
"w. c #9B952A",
"e. c #AFAF2E",
"r. c #C48800",
"t. c #C69700",
"y. c #D49207",
"u. c #E28600",
"i. c #FD8900",
"p. c #E49700",
"a. c #C7A801",
"s. c #C4B600",
"d. c #D5B503",
"f. c #E6A700",
"g. c #FBA203",
"h. c #EAB702",
"j. c #FDB700",
"k. c #D8B72D",
"l. c #B3C413",
"z. c #95CA35",
"x. c #AACF2A",
"c. c #B7E52E",
"v. c #C5C400",
"b. c #CBCB01",
"n. c #C3C90B",
"m. c #D9C702",
"M. c #D3D301",
"N. c #D7D707",
"B. c #DCDC00",
"V. c #CBC919",
"C. c #CFD813",
"Z. c #E9C600",
"A. c #FCC701",
"S. c #EBD207",
"D. c #F5D600",
"F. c #FED400",
"G. c #F9DB00",
"H. c #DCE60A",
"J. c #E3E300",
"K. c #E7E507",
"L. c #ECEC00",
"P. c #FBE400",
"I. c #FBEB00",
"U. c #F4F400",
"Y. c #FCF400",
"T. c #FEFE00",
"R. c #F9FB09",
"E. c #E7EA14",
"W. c #FBFB15",
"Q. c #D4D433",
"!. c #CBEF28",
"~. c #EBEB2F",
"^. c #F9F925",
"/. c #FFFF2A",
"(. c #FEFE35",
"). c #969249",
"_. c #8CA646",
"`. c #A9A94E",
"'. c #898772",
"]. c #B7B76E",
"[. c #D3BF4E",
"{. c #E6B952",
"}. c #82D856",
"|. c #9FD458",
" X c #97E44D",
".X c #A5E943",
"XX c #D9D951",
"oX c #FFC750",
"OX c #E8E848",
"+X c #FEFD47",
"@X c #F2F257",
"#X c #DBDB66",
"$X c #D3D271",
"%X c #FFFF67",
"&X c #E9E772",
"*X c #FCFB78",
"=X c #089392",
"-X c #249A9A",
";X c #379190",
":X c #30AC96",
">X c #02A7A7",
",X c #19A7A5",
"<X c #19BAA8",
"1X c #08B5B4",
"2X c #05BABA",
"3X c #20B2A9",
"4X c #568E8E",
"5X c #55A0A0",
"6X c #2AC196",
"7X c #37C892",
"8X c #17C1AA",
"9X c #07C0B9",
"0X c #22C7A5",
"qX c #43D08D",
"wX c #00C0C0",
"eX c #0FC3C3",
"rX c #18C5C5",
"tX c #2FC8C8",
"yX c #5BD2D2",
"uX c #808080",
"iX c #8C8B8B",
"pX c #999898",
"aX c #A49090",
"sX c #AAAA93",
"dX c #A8A8A8",
"fX c #A8BABA",
"gX c #B9B8B6",
"hX c #DF9D95",
"jX c #E9A7A7",
"kX c #EAB2B2",
"lX c #D3D393",
"zX c #E5E589",
"xX c #FDFD85",
"cX c #E5E597",
"vX c #FEFE97",
"bX c #C7C7AF",
"nX c #F1D3A0",
"mX c #F7F7A7",
"MX c #FFFFB6",
"NX c #8ED9D9",
"BX c #85E0E0",
"VX c #C9CCCB",
"CX c #D5D5D5",
"ZX c #DADADA",
"AX c #F8D9CD",
"SX c #EDE8C6",
"DX c #F7F7C6",
"FX c #FBFAD7",
"GX c #E9EAE7",
"HX c #F8E3E3",
"JX c #FBFBE5",
"KX c #EAF0F0",
"LX c #FBFBF5",
"PX c #FEFEFD",
/* pixels */
"l l l l l l l l l l l l l l l l l l l l l l l l l l l l l l l l l l l l l l l l l l l l S S S S l S l l l l l l l l l l l l l l ",
"l l l l l l l l l l l l l l l l l l l l l l l l S H T T T b v v v v v v v v v v v v v v v c l S S S l l l l l l l l l l l l l l ",
"l l l l l l l l l l l l l l l l l l l l l l l l T -.hXhXhXaXd i i i i i i i i i i i i i i t c l S S l l l l l l l l l l l l l l ",
"l l l l l l l l l l l l l l l l l l l l l l S S *.jXKXKXKXNXtX2X2X2X2X2X2X2X2X2X2X2X2X2X1Xi B z l S l l l l l l l l l l l l l l ",
"l l l l l l l l l l l l l l S S l l l l l l T -.hXfXBXBXBXyXrXwXwXwXwXwXwXwXwXwXwXwXwXwX2X-Xu t v l l l l l l l l l l l l l l l ",
"l l l l l l l l l l l l l l S S l l l l l l *.kXCXyXrXrXrXeXwXwXwXwXwXwX9XwXwXwXwXwXwXwX2X2X1Xp V l l l l l l l l l l l l l l l ",
"l l l l l l l l l l l l l l S S l l l l l l #.fXBXtXwXwXwXwXwX2XwXwXwXwXwXwXwXwXwXwXwXwXwXwXwX;XV l l l l l l l l l l l l l l l ",
"l l l l l l l l l l l l l l S S l l l l l l O.5XtXeXwXwXwXwX2X2XwXwXwXwXwXwXwXwXwXwXwXwXwXwXwX;XV l l l l l l l l l l l l l l l ",
"l l l l l l l l l l l l l c B B B B B B B B r -XwXwXwXwX9X8X6X:X:X;X;X;X;X;X:X:X6X6X6X:X6X8X9X;XV l l l l l l l l l l l l l l l ",
"l l l l l l l l l l l l z V u p p p p p p p -X1XwXwXwXwX9X7X4._.$.@.@.@.@.@.$._.3.3.3.<.3.5.8X;XV l l l l l l l l l l l l l l l ",
"l l l l l l l l l l l z v r ,X2X2X2X2X2X2X<X8X8X8X8X8X8X8X5.l.y._ L L L K J _ y.v.v.v.v.l.3.6X4XV z z l l l l l l l l l l l l l ",
"l l l l l l l l l l z V u ;X1XwXwX9XwX9X6X5.4.6.}.4.4.4.4.z.C.Z.g.i. . .Y K ) h.J.J.J.J.H.x.3.,.$.A b l l l l l l l l l l l l l ",
"l l l l l l l l l l c r -X1X1X2X2X2X2X8X5.x.C.H.H.C.l.l.l.C.U.Y.Y.P.m.a. .L ` A.R.R.R.T.U.H.n.e.).%.A l l S l l l l l l l l l l ",
"l l l l l l l l l l z V u i i i i 1.2.6.|.$XXXE.E.XX#X#X#X~.W.T.T.T.L.m. .L ` oX%X%X%X/.T.L.B.V.e.).N z l S l l l l l l l l l l ",
"l l l l l l l l l l l c v v v v v N t.!.&XDXzXQ.Q.zXFXFXDX*X^.T.T.T.Y.P.i.L =.nXFXFXDX%XR.T.U.J.n.9.E l l l l l l l l l l l l l ",
"l l l l l l l l l l l l l l l F U ] k.+X*XmXzX#X#XSXPXPXPXMX%X(.W.Y.F.j.X.) =.AXPXPXJXvX+X/.R.L.M.a.W M x l l l l l l l l l l l ",
"l l l l l l l l l l l S l l l U u.S.&XmXzXXX#XcXDXJXPXPXPXJXDXxX(.P.i.`  .u.{.SXPXPXLXFXMX%XW.L.M.s.a.r.~ D l l l l l l l l l l ",
"l l l l l l l l l l l l l z x ( h./.vXJXzXV.XXDXLXGXCXCXCXGXLXMX+XG.X.Y  .k.$XbXCXCXZXKXLXvX/.U.B.b.v.0.W n z z l l l l l l l l ",
"l l l l l l l l l l l l l m W y.D./.vXJXzXV.XXDXZXpXs s d dXGXMX+XI.A.g.{.zXsX'.s s f gXJXvX/.U.L.B.b.0.w.O.A b l l l l l l l l ",
"l l l l l l l l l l l l l ~ t.M.E.(.vXFX&XV.XXDXVXr . . + d ZXMX+XT.Y.W.*XFXdX= . . + iXGXvX/.T.T.U.B.0.e.'.+.b l l l l l l l l ",
"l l l l l l l l l l l l D / d.E.@X*XxX*XOXK.@XDXVXr     . s CXMX+XT.T.W.*XJXdX=     + iXGXvX/.T.T.U.B.0.q.w.! n l l l l l l l l ",
"l l l l l l l l l l l l D ] D.(.mXDX%X^.R.R.@XDXVXr     . s CXMX+XT.T.W.*XJXdX=     + iXGXvX/.T.T.U.B.v.0.0.W m l l l l l l l l ",
"l l l l l l l l l l l l D [ D./.*XxX+XT.T.T.(.xXzX).3 3 3 ).zXxX@XOXOXOX*XvX$X5 3 3 5 `.vX%XW.T.T.U.B.v.v.s.} m l l l l l l l l ",
"l l l l l l l l l l l l D [ D.R././.W.T.T.T.W./.^.C.v.v.b.C.^.@X$XlXlXlX&X+X~.N.b.v.b.E.(.^.R.T.T.U.B.v.v.s.} m l l l l l l l l ",
"l l l l l l l l l l l l D [ D.I.F.A.A.A.P.Y.T.T.T.T.T.T.T.W.^.@XlXVXVXbX$X~.W.R.T.T.T.T.T.T.T.I.F.j.f.t.a.s.} m l l l l l l l l ",
"l l l l l l l l l l l l D [ D.F.i.` ` ..g.I.T.T.T.T.T.T.T.~.#XcXSXGXCXbXbXlXOXW.T.T.T.T.T.T.T.F.i.` ) _ | s.} m l l l l l l l l ",
"l l l l l l l l l l l l D [ D.j.) J J L X.P.T.T.T.T.T.T.T.OXbXVXGXKXCXgXgXgX$X^.T.T.T.T.T.T.T.j.) J J K _ a.} m l l l l l l l l ",
"l l l l l l l l l l l l D [ D.j.) J J L X.P.T.T.T.T.T.T.T.OXbXVXCXCXgXsX].].Q.E.T.T.T.T.T.T.T.j.) J J K _ a.W m l l l l l l l l ",
"l l l l l l l l l l l l D [ D.j.) K K L X.G.Y.T.T.T.T.T.T.OXlXbXbXgXpX'.`.q.N.U.T.T.T.T.T.Y.Y.j.) K K L [ a.} m l l l l l l l l ",
"l l l l l l l l l l l l D [ D.F.i.......X.p.h.I.T.T.T.T.T.~.#X$X$X].`.`.e.N.J.U.T.T.T.T.Y.D.f.u. ._ ` ..p.s.} m l l l l l l l l ",
"l l l l l l l l l l l l D [ D.Y.P.F.F.A.u.U | D.T.T.T.T.T.R.W.E.V.q.q.0.N.L.T.T.T.T.T.T.Y.f.^ ~ } a.Z.D.Z.v.} m l l l l l l l l ",
"l l l l l l l l l l l l D ] Z.U.T.T.T.Y.f.~ ] p.Z.P.T.T.T.T.T.U.B.M.M.M.J.T.T.T.T.T.Y.G.h.u.~ ' a.M.J.J.C.q.W n l l l l l l l l ",
"l l l l l l l l l l l l l / d.B.U.T.T.Y.Z.t.{ / | Z.T.T.T.T.T.T.U.L.L.L.U.T.T.T.T.T.I.p.( ' } a.B.L.B.b.e.).! b S l l l l l l l ",
"l l l l l l l l l l l l l E r.d.L.T.T.T.J.b.r.~ ~ p.D.D.D.D.D.D.D.D.D.D.D.D.D.D.D.D.Z.| U ' a.M.L.L.M.0.w.%.O.b S S S l l l l l ",
"l l l l l l l l l l l l l x E | S.T.T.T.U.J.d.r.{ ] [ [ [ [ [ [ [ [ [ [ [ [ [ [ [ [ [ ' { a.B.J.B.M.b.0.W Q Z z S S S S l l l l ",
"l l l l l l l l l l l l l l l ~ h.R.R.T.T.T.J.b.t.~ F F G G G G G G G G G G G G G F P { s.B.U.L.M.l.l.q.W b z z l S S S l l l l ",
"l l l l l l l l l l l l l l l E _. X!.T.T.T.U.J.m.r./ o.;.;.;.;.;.;.;.;.;.;.;.;.-.o.' t.B.L.T.L.M.l.z.<.,.s V c l l l l l l l l ",
"l l l l l l l l l l l l l l l V 1.7X.XR.T.T.Y.T.L.m.s.$XAXHXHXHXHXHXHXHXHXHXHXHXnX[.s.B.U.T.T.L.M.q.5.8X<X,Xi B l l l l l l l l ",
"l l l l l l l l l l l l l v V u -X8X6..X!.R.T.T.U.J.C.{.jXjXjXjXjXjXjXjXjXjXjXjXhXk.v.J.T.U.L.b.8.:.<.5.5.5.<.W M x l l l l l l ",
"l l l l l l l l l l l l z V p ,X1X9X0XqX XR.T.T.T.U.K.y.R R R R R R R R R R R R o.t.v.J.Y.L.M.8.3 2 w.!.!.!.V.a.W M l l l l l l ",
"l l l l l l l l l l S F U $.2.7X7X7X:X;X_.m.G.Y.T.T.I.p.^ U P P P P P P P P P P ~ t.M.H.L.b.8.5 $ o 5 v.J.T.L.b.t.E l l l l l l ",
"l l l l l l l l l l D ( p.V.c..X.Xz.).V Q / p.G.T.T.Y.D.f.y.r.} } } } } } } } } t.m.J.B.M.8.3 $ o . % 3 8.L.L.b.t.E l l l l l l ",
"l l l l l l l l l l F u.I.T.T.U.I.Z.( D l S ( h.I.Y.T.T.T.J.b.v.v.v.v.v.v.v.v.v.M.J.U.N.q.5 o       . o 5 N.J.b.9.E k z l l l l ",
"l l l l l l l l l l F u.I.U.J.m.p.[ U S l l I ( u.d.J.L.T.U.J.J.J.J.J.J.J.J.J.J.J.H.N.z.4.1 O     . * w y `.e.s.9.4 ; j l l l l ",
"l l l l l l l l l l F u.I.J.b.t.~ D S l l l l x M 9.n.H.R.R.U.T.T.T.T.T.U.U.U.U.L.M.l.4.<X0 &     + w f g '.).q.7., @ ; k l l l ",
"l l l l l l l l l l F u.I.J.b.9.M l l l l l v V y ,.3.}. Xc.H.J.J.J.J.J.J.J.J.J.C.z.4.:X1X=X7 6 * = s g uXg y 5 3 $ X # : j z l ",
"l l l l l l l l l l F u.I.J.b.r.M l l l l l V p ,X3X8X0X6X4.l.b.b.b.b.b.b.b.b.b.x.5.8X9X2X1X>X-Xp d f uXuXg r $ o .   X @ ; k S ",
"l l l l l l l l l l D ] f.f.t.W m l l l v V u ,XwXwX2X>X=X>.:.7.7.7.7.7.7.7.7.7.:.>.=X>X2X9X9X3X4XuXuXuXuXuXr +           - k S ",
"l l l l l l l l l l S I ^ ~ U m z l l z t p -X1XwXwX1X0 & & $ % % % % % % % % % $ & 6 =X2XwXwX3X4X4XuXuXuXg r +           - k S ",
"l l l l l l l l l l l l l l l l l l z v r =X>X>X>X1X,X7 O                           O 7 1X1X>X-X4XuXuXuX&.g r +           - k l ",
"l l l l l l l l l l l l l l l l l z Z O.e 6 6 6 8 q 4X9 .                           O 7 >X=X7 8 a uXuXuXuXg r +           - k l ",
"l l l l l l l l l l l l l l l l z b +.&.e + O O * r d < X X X                       O 7 >X0 & * r uXuX&.g f e +     X X X ; k l ",
"l l l l l l l l l l l l l l l b Z @.&.pX&.s e w < t C : ; ; ; - X                   . & 7 8 9 e d 4X4Xg s w * O X # ; ; ; h k l ",
"l l l l l l l l l l l l l l l Z +.&.pXgXgXdXpX&.%.A z z k k k > #                     . O = s f g 4X4Xf w + .   @ > k k k z l l ",
"l l l l l l l l l l S l l l l Z %.iXpXdXdXdXaX%.O.b l l l l l j ; - - # @               . = d uX4XuXuXf t - - - ; j l l l l l l ",
"l l l l l l l l l S S S l l l Z %.uXiXiXiXiX%.A b z l l l l l z k j j h - X             . = d uX&.&.uX&.O.j j j j z l l l l l l ",
"l l l l l l l l l l l l l l l b O.%.%.%.%.%.O.b l l l l l l l l l l l z > # @ @ @ @ @ @ @ < t %.%.%.%.+.A z l l l l l l l l l l ",
"l l l l l l l l l l l l l l l z b Z Z Z Z Z b z l l l l l l l l l l l l k h > > > > > > > h Z Z Z Z Z Z b z l l l l l l l l l l ",
"l l l l l l l l l l l l l l l l l l l l l l l l l l l l l l l l l l l l l l l l l l l l l l l l l l S S l l l l l l l l l l l l ",
"l l l l l l l l l l l l l l l l l l S l l l l l l l l l l l l l l l l l l l l l l l l l l l l l l S S S l l l l l l l l l l l l ",
"l l l l l l l l l l l l l l l l l l l l l l l l l l l l l l l l l l l l l l l l l l l l l l l l S S l l l l l l l l l l l l l l ",
"l l l l l l l l l l l l l l l l l l l l l l l l l l l l l l l l l l l l l l l l l l l l l l l l S S l l l l l l l l l l l l l l ",
"l l l l l l l l l l l l l l l l l l l l l l l l l l l l l l l l l l l l l l l l l l l l l l l l S S l l l l l l l l l l l l l l ",
"l l l l l l l l l l l l l l l l l l l l l l l l l l l l l l l l l l l l l l l l l l l l l l l l S S l l l l l l l l l l l l l l "
};
