/* XPM */
static char *_[] = {
/* columns rows colors chars-per-pixel */
"64 64 250 2 ",
"   c #000000",
".  c #0C0000",
"X  c #0A0B03",
"o  c #000909",
"O  c #150303",
"+  c #1B0000",
"@  c #05140E",
"#  c #161600",
"$  c #021413",
"%  c #181818",
"&  c #250000",
"*  c #2A0000",
"=  c #390606",
"-  c #292900",
";  c #0F3122",
":  c #2C2B2B",
">  c #333030",
",  c #430100",
"<  c #490000",
"1  c #510606",
"2  c #5A0000",
"3  c #620505",
"4  c #6E0000",
"5  c #720000",
"6  c #7D0000",
"7  c #59281C",
"8  c #1D5538",
"9  c #474C07",
"0  c #575700",
"q  c #72740C",
"w  c #4C7125",
"e  c #09574E",
"r  c #015757",
"t  c #22704D",
"y  c #006666",
"u  c #504A49",
"i  c #774848",
"p  c #675757",
"a  c #596866",
"s  c #477777",
"d  c #4D7372",
"f  c #437D7D",
"g  c #547373",
"h  c #646463",
"j  c #6C6A6A",
"k  c #757070",
"l  c #890101",
"z  c #940000",
"x  c #9C0000",
"c  c #951000",
"v  c #A60303",
"b  c #AB0000",
"n  c #B60202",
"m  c #BF0000",
"M  c #BE0D01",
"N  c #B40D0D",
"B  c #BC0B0B",
"V  c #BE1903",
"C  c #AB1515",
"Z  c #A21D1D",
"A  c #B71716",
"S  c #BE2801",
"D  c #BD3702",
"F  c #AC251A",
"G  c #8C2F2F",
"H  c #952A2A",
"J  c #AD2424",
"K  c #A92C2C",
"L  c #B23127",
"P  c #A53937",
"I  c #C10B09",
"U  c #C81B0A",
"Y  c #C71C12",
"T  c #C41919",
"R  c #FF0100",
"E  c #FC0B00",
"W  c #FC1600",
"Q  c #EF1411",
"!  c #C72401",
"~  c #C02A00",
"^  c #C53306",
"/  c #F42404",
"(  c #E63015",
")  c #C62626",
"_  c #CE3939",
"`  c #FA3A3A",
"'  c #BA4B0A",
"]  c #BE5303",
"[  c #BF5C01",
"{  c #BE6803",
"}  c #B5740F",
"|  c #AB4D2B",
" . c #8B6320",
".. c #AA6C31",
"X. c #C54800",
"o. c #C95907",
"O. c #FC4C01",
"+. c #E55800",
"@. c #D16604",
"#. c #D96700",
"$. c #C67400",
"%. c #C07E00",
"&. c #CA710C",
"*. c #D97604",
"=. c #F97100",
"-. c #CA502A",
";. c #935451",
":. c #BB4646",
">. c #BB5959",
",. c #91664E",
"<. c #8E6464",
"1. c #8F6F66",
"2. c #93726A",
"3. c #B07474",
"4. c #FF4646",
"5. c #D66251",
"6. c #CC6D6D",
"7. c #DD7776",
"8. c #DB7878",
"9. c #3CB174",
"0. c #71B950",
"q. c #5A9B64",
"w. c #7EC042",
"e. c #76C04E",
"r. c #72C956",
"t. c #59C066",
"y. c #46C37C",
"u. c #8C8B00",
"i. c #BD9203",
"p. c #BABB06",
"a. c #B0AB10",
"s. c #B5B716",
"d. c #888831",
"f. c #A8962B",
"g. c #90AC30",
"h. c #AEAD2D",
"j. c #C48800",
"k. c #CF8D0B",
"l. c #C49500",
"z. c #FF8A00",
"x. c #E49500",
"c. c #C0A200",
"v. c #C1AD00",
"b. c #D2AF00",
"n. c #C3B902",
"m. c #D8BB00",
"M. c #C6BC14",
"N. c #FCB400",
"B. c #E28B21",
"V. c #CBA82F",
"C. c #B4C20E",
"Z. c #95C731",
"A. c #AED425",
"S. c #B2EA38",
"D. c #C3C300",
"F. c #CCC707",
"G. c #CCCC00",
"H. c #D1CE0F",
"J. c #D4D400",
"K. c #DCDC01",
"L. c #D7D70C",
"P. c #FBCA00",
"I. c #E5D806",
"U. c #F5D700",
"Y. c #FBD801",
"T. c #D3E815",
"R. c #E3E300",
"E. c #E9E505",
"W. c #EBEB01",
"Q. c #FEE800",
"!. c #EFF50D",
"~. c #F3F301",
"^. c #F9F605",
"/. c #FEFE00",
"(. c #E6E617",
"). c #DADA25",
"_. c #CACA3A",
"`. c #DEDE35",
"'. c #C0E424",
"]. c #F3F326",
"[. c #F2F038",
"{. c #99914D",
"}. c #AFA84E",
"|. c #A5A55A",
" X c #878473",
".X c #B2B269",
"XX c #D7B751",
"oX c #EC8C62",
"OX c #E9A967",
"+X c #9ED951",
"@X c #D3D050",
"#X c #EAEA4A",
"$X c #D8D370",
"%X c #DADA79",
"&X c #E7E775",
"*X c #139F9F",
"=X c #2F9090",
"-X c #2AB795",
";X c #01A7A7",
":X c #19AAAA",
">X c #13B7AC",
",X c #08B4B3",
"<X c #05BABA",
"1X c #40BDBD",
"2X c #34C08C",
"3X c #2AC096",
"4X c #27C09B",
"5X c #17C0A8",
"6X c #08C0B8",
"7X c #28CAA2",
"8X c #4DCF8D",
"9X c #79D4AC",
"0X c #00C0C0",
"qX c #09C2C1",
"wX c #1AC6C6",
"eX c #33CBCB",
"rX c #68D6D2",
"tX c #878685",
"yX c #979797",
"uX c #AE8E8E",
"iX c #B8B894",
"pX c #A5A5A4",
"aX c #BCA8A8",
"sX c #BABABA",
"dX c #D59794",
"fX c #E99696",
"gX c #E9A7A7",
"hX c #F2B4B4",
"jX c #D1D192",
"kX c #ECEA91",
"lX c #C3C3BA",
"zX c #D3D3B4",
"xX c #EED9B0",
"cX c #EAE9A9",
"vX c #EFEFBF",
"bX c #9DD4D4",
"nX c #87E1E1",
"mX c #C9C8C7",
"MX c #D6C7C7",
"NX c #D5D5D5",
"BX c #EED7D4",
"VX c #CDE9CF",
"CX c #F1EFD2",
"ZX c #E7E7E6",
"AX c #F7E3E3",
"SX c #F8E3E3",
"DX c #F7F7E7",
"FX c #EAF0F0",
"GX c #F5F5F2",
"HX c #FEFEFD",
/* pixels */
"m m m m m m m m m m m m m m m m m m m m m m I m m m I m m I I I m m m m m m m m m I I I m m m m m m m m m m m m m m m m m m m m ",
"m m m m m m m m m m m m m m m m m m I ) ) ) ) J Z Z Z Z Z Z Z Z Z Z Z Z Z Z C N m m I I m m m m m m m m m m m m m m m m m m m m ",
"m m m m m m m m m m m m m m m m m I _ 8.fXfXdXtXg d d d d d d d d d d d d d a G n m I I m m m m m m m m m m m m m m m m m m m m ",
"m m m m m m m m m m m m m m m m I T 6.MXFXFXVXrX<X<X<X<X<X<X<X<X<X<X<X<X<X<X*Xp C B m m m m m m m m m m m m m m m m m m m m m m ",
"m m m m m m m m m m m m m m m I _ 8.aXbXnXnXrXeXqX0X0X0X<X<X<X<X0X0X0X0X0X0X,X=Xp G N m m m m m m m m m m m m m m m m m m m m m ",
"m m m m m m m m m m m m m m m T 7.BXbXeXwXwXwXqX0X0X0X0X<X<X0X0X0X0X0X0X0X0X<X,X*Xp C m I m m m m m m m m m m m m m m m m m m m ",
"m m m m m m m m m m m m m m m A 3.bXrXwX0X0X0X0X0X0X0X0X0X0X0X0X0X0X0X0X0X0X0X0X,Xa C m m m m m m m m m m m m m m m m m m m m m ",
"m m m m m m m m m m m m m I m C k 1XwXqX0X0X0X0X0X0X0X0X0X0X0X0X<X0X0X0X0X0X0X0X,Xa C m m m m m m m m m m m m m m m m m m m m m ",
"m m m m m m n C H H H H H H H G s ,X0X0X6X0X6X5X3X3X3X3X3X3X3X3X3X3X3X3X3X3X4X5X,Xa C m m m m m m m m m m m m m m m m m m m m m ",
"m m m m m m C i s f f f f f f =X*X<X0X0X6X0X5Xy.e.w.w.w.w.w.w.w.w.w.w.w.w.w.r.2X>Xa C m m m m m m m m m m m m m m m m m m m m m ",
"m m m m n N H s ,X<X<X<X<X<X>X>X>X:X:X:X:X:X-X0.p.D.D.D.D.D.D.D.D.D.D.D.D.D.C.t.-Xa Z B m m m m m m m m m m m m m m m m m m m m ",
"m m m m Z i d =X<X0X0X0X6X5Xy.0.q.<.<.<.<.<.,.f.p.G.K.R.R.R.R.R.R.R.R.R.K.G.C.Z.0.q.;.K N m m m m m m m m m m m m m m m m m m m ",
"m m m m H s :X,X<X<X<X6XqX4Xe.a.@.Q Q Q Q Q ( *.n.K.~.^.^.^.^.^.^.^.^.^.W.J.D.C.s.f. X;.A m m m m m m m m m m m m m m m m m m m ",
"m m m m Z p d d d q.y.8XrX9X+Xv.+.E R R Q 4.7.OX$X`.E.W.^./././././././.~.R.J.G.p.h.{...F m m m m m m m m m m m m m m m m m m m ",
"m m m m B C Z Z Z ..h.+XVXVX@Xv.+.E R R ` fXSXCXCX&XH.K.~././././././././.^.W.J.D.p.s.} S m m m m m m m m m m m m m m m m m m m ",
"m m m m m m m m M -.XXkXCXCXkX@XB.( W E 4.hXHXHXGXcX@X`.(.~.^./././././././.^.R.J.G.D.l.] S M m m m m m m m m m m m m m m m m m ",
"m m m m m m m m I 5.xXCXGXGXCXcXXXk.+.W 4.hXHXHXHXDXvX&X).K.W././././././././.~.W.K.D.v.l.{ D m m m m m m m m m m m m m m m m m ",
"m m m m m m m B ) 6.MXNXZXFXGXDX%XM.*./ ` fXNXZXFXGXHXcX_.G.W./././././././././.^.R.D.D.D.i.' A B m m m m m m m m m m m m m m m ",
"m m I m m m B :.3.2.j  XpXmXZXDX%XM.*./ Y ;.k yXsXNXGXcX_.G.W./././././././././.^.R.D.D.n.a...;.J m m m m m m m m m m m m m m m ",
"m m I m m m A 6.aXj % > j yXNXDX%XF.*.( B 1 % u tXsXGXcX_.G.W./././././././././.^.R.G.D.D.s.{.1.P B m m m m m m m m m m m m m m ",
"m m m m m m T dXmXk % : h yXNXDX%XF.V.oX>.7 % u tXsXGXcX_.G.W././././././././././.W.R.J.D.p.h.f.| M m m m m m m m m m m m m m m ",
"m m m m m m ) fXBXtX% : h yXNXDX%XH.@XxXaXu % u tXsXGXcX_.G.W./././././././././././.^.R.G.p.p.a.[ M m m m m m m m m m m m m m m ",
"m m m m m m Y oXkX.Xq q {..XzXCXjX@X$XkX$Xd.q d.}.$XkX&X).K.~././././././././././././.W.G.D.D.v.[ M m m m m m m m m m m m m m m ",
"m m m m m m ! B.[.(.G.H.L.#XjXmXlXjX$X#X].L.G.L.(.].[.].!.~.^././././././././././././.W.G.D.D.v.[ M m m m m m m m m m m m m m m ",
"m m m m m m ! x.^././.^.].#XjXmXmXlX%X`.(.^././././././././././.Q.P.P.P.Y.Q./././././.W.G.D.D.v.[ M m m m m m m m m m m m m m m ",
"m m m m m m ! x.^././.].$XjXBXZXNXlXiX.X_.(./././././././././.Q.N.=.O.O.z.P./././././.W.G.D.D.v.[ M m m m m m m m m m m m m m m ",
"m m m m m m ! x.^././.[.jXmXZXGXNXsXpXtX|.)./././././././././.Q.=.W R R O.N./././././.W.G.C.D.v.[ M m m m m m m m m m m m m m m ",
"m m m m m m ! x.^././.#XjXmXNXNXsXpXyXtX|.)./././././././././.Q.=.W R R O.N./././././.W.G.D.D.v.[ M m m m m m m m m m m m m m m ",
"m m m m m m ! x.^././.[.jXlXlXsXpXtXtX X|.)./././././././././.Y.=.W E E O.N./././././.W.G.D.D.v.[ M m m m m m m m m m m m m m m ",
"m m m m m m ! k.I.~./.].#X%XiXpXyXtX X{.h.(./././././././.Q.N.x.*.+.+.=.z.Y./././././.W.G.D.D.v.[ M m m m m m m m m m m m m m m ",
"m m m m m m ! $.F.R.^.^.!.`..XtXtX X{.h.F.E./././././././.U.*.^ @.l.m.P.Q.^./././././.W.G.D.D.v.[ M m m m m m m m m m m m m m m ",
"m m m m m m V } h.H.^././.(._.|.|.|.h.F.K.~./././././.Q.P.x.@.X.j.G.R.~./././././.~.W.K.G.p.s.f.' M m m m m m m m m m m m m m m ",
"m m m m m m A | {._.!././.^.(.).).).(.E.~.^./././././.P.*.o.$.l.m.W.~././././././.W.J.G.D.s.h.{.| B m m m m m m m m m m m m m m ",
"m m m m m m N P 1.}.).E.U.U.U.U.U.U.U.U.U.U.U.U.U.U.U.x.X.X.j.G.R.^././././././.^.R.D.D.D.a.{.<.P B m m m m m m m m m m m m m m ",
"m m m m m m n A P ..}.V.&.#.#.#.#.#.#.#.#.#.#.#.#.#.#.@.$.j.m.R.~./././././././.^.R.D.D.D.a...K A m m m m m m m m m m m m m m m ",
"m m m m m m m m B P 1.;.L Y Y Y Y Y Y Y Y Y Y Y Y U U X.l.G.W.^././././././././.^.R.D.n.n.i.' m m m m m m m m m m m m m m m m m ",
"m m m m m m m m m J P >.6.7.7.7.7.7.7.7.7.7.7.7.7.5.o.j.m.R.~./././././././././.^.R.D.c.{ ] S m m m m m m m m m m m m m m m m m ",
"m m m m m m m m m n N 5.hXAXSXSXSXSXSXSXSXSXSXSXBX$XM.G.W.^././././././././././.^.R.D.j.D M I I m m m m m m m m m m m m m m m m ",
"m m m m m m m m m m m :.dXMXhXgXgXgXgXgXgXgXgXgXgXXXM.J.~./././././././././.^.~.R.m.j.] V m m m m m m m m m m m m m m m m m m m ",
"m m m m m m m m m m m L 3.uX>._ _ _ _ _ _ _ _ _ -.&.v.J.~./././././././././.^.R.G.j.^ V M I I m m m m m m m m m m m m m m m m m ",
"m m m m m m m m m m m J ;.;.L S ~ ~ S ~ ~ ~ ~ ~ ^ $.n.K.~./././././.^.~.!.T.'.s.u. .c z z x n m m m I m m m m m m m m m m m m m ",
"m m m m m m m m m m m N J L { } %.%.} %.%.%.%.%.j.b.I.~././././././.W.K.A.r.t.w 9 - , , , 2 z m m m m m m m m m m m m m m m m m ",
"m m m m m m m m m m m m m S { v.n.n.D.D.D.D.D.D.G.R.^././././././.^.K.C.0.-X;Xr o         & 4 b b b n n m m m m m m m m m m m m ",
"m m m m m m m m m m m m m M D { j.n.G.K.R.R.R.R.R.W.^./././././.W.K.A.r.y.>X;Xr o         O = 2 2 2 l b m m m m m m m m m m m m ",
"m m m m m m m m m m m m m m M V { v.J.W.~.~.^.^.^.^././.^.^.^.!.K.C.0.3X6X6X;Xr o           . . . O < x n n n n m m m m m m m m ",
"m m m m m m m m m m m m m m m M D $.k.V.).L.R.R.R.R.R.T.S.+X+X+Xg.q q.>X0X0X;Xr o                   * 2 5 5 6 x n m m m m m m m ",
"m m m m m m m m m m m m m m m m M S | {.|.s.G.G.G.G.G.Z.y.7X7X-Xt ; e ;X0X0X;Xr o                   . + + + = 6 n m m m m m m m ",
"m m m m m m m m m m m m m m m m m m J ;.,.} j.j.i.a.g.t.5X0X0X;Xr $ 8 9.8X8X9.8 o                           + 4 n m m m m m m m ",
"m m m m m m m m m m m m m m m m m m N A F D D D D ,.9.4X<X6X0X;Xr @ 9 Z.S.S.Z.w X                           + 4 n m m m m m m m ",
"m m m m m m m m m m m m m m m m m m m m m m m m N p :X0X<X<X0X;Xr @ 0 p.R.~.R.u.- #                         + 4 n m m m m m m m ",
"m m m m m m m m m m m m m m m m m m m m m m m m N p :X0X6X0X0X;Xr @ - 0 u.J.~.D.u.0 #                       + 4 n m m m m m m m ",
"m m m m m m m m m m m m m m m m m m m B B B B B C p :X,X,X,X,X;Xr o   X 9 a.W.R.J.q #               . . . . & 5 n m m m m m m m ",
"m m m m m m m m m m m m m m m m m m J :.>.>.:.H 3 > r y y y y r ; o     - 0 u.u.q 9 X               & < 2 2 4 z n m m m m m m m ",
"m m m m m m m m m m m m m m m m m m :.uXaXaXuXu O X $ $ $ $ $ $ o         # # # # X               . , z b b b n m m m m m m m m ",
"m m m m m m m m m m m m m m m m m m :.uXpXpXyXh > : : : : : : : = = & .                   . * , , , 5 b m m m m m m m m m m m m ",
"m m m m m m m m m m m m m m m m I m P 2.yXyXtXk h h h h h h h p i l 2 +                   + 3 z z z v n m m m m m m m m m m m m ",
"m m m m m m m m m m m m m m m m I m J ;.<.<.<.<.<.<.<.<.<.<.<.;.K B l , * * * * * * * * * < l m m m m m m m m m m m m m m m m m ",
"m m m m m m m m m m m m m m m m I m N J K K K K K K K K K K K J A n v l 6 6 6 6 6 6 6 6 6 l v m m m m m m m m m m m m m m m m m ",
"m m m m m m m m m m m m m m m m m m m m m m m m m m m m m m m m m m m m m m m m m m m m m m m m m m m m m m m m m m m m m m m m ",
"m m m m m m m m m m m m m m m m m m m m m m m m m m m m m m m m m m m m m m m m m m m m m m m m m m m m m m m m m m m m m m m m ",
"m m m m m m m m m m m m m m m m m m m m m m m m m m m m m m m m m m m m m m m m m m m m m m m m m m m m m m m m m m m m m m m m ",
"m m m m m m m m m m m m m m m m m m m m m m m m m m m m m m m m m m m m m m m m m m m m m m m m m m m m m m m m m m m m m m m m ",
"m m m m m m m m m m m m m m m m m m m m m m m m m m m m m m m m m m m m m m m m m m m m m m m m m m m m m m m m m m m m m m m m ",
"m m m m m m m m m m m m m m m m m m m m m m m m m m m m m m m m m m m m m m m m m m m m m m m m m m m m m m m m m m m m m m m m "
};
