/* XPM */
static char *_[] = {
/* columns rows colors chars-per-pixel */
"64 64 247 2 ",
"   c #010000",
".  c #0C0000",
"X  c #090B0A",
"o  c #180000",
"O  c #131303",
"+  c #011313",
"@  c #1A1818",
"#  c #260000",
"$  c #2A0000",
"%  c #360101",
"&  c #381111",
"*  c #28280A",
"=  c #343402",
"-  c #003636",
";  c #2B2A2A",
":  c #393939",
">  c #490000",
",  c #520000",
"<  c #5B0000",
"1  c #6F0000",
"2  c #720202",
"3  c #7D0000",
"4  c #592A2A",
"5  c #36440E",
"6  c #4B480E",
"7  c #6F6F04",
"8  c #4D4B37",
"9  c #75752B",
"0  c #0A5C5C",
"q  c #367F49",
"w  c #006666",
"e  c #484848",
"r  c #555555",
"t  c #7D4343",
"y  c #724D4D",
"u  c #675858",
"i  c #7A5652",
"p  c #656A5A",
"a  c #586767",
"s  c #4D7272",
"d  c #427E7E",
"f  c #676666",
"g  c #6B7571",
"h  c #777777",
"j  c #830101",
"k  c #980000",
"l  c #8B1313",
"z  c #A20000",
"x  c #AC0000",
"c  c #B50303",
"v  c #BF0000",
"b  c #B80B09",
"n  c #BC1A05",
"m  c #AD1312",
"M  c #A21E1E",
"N  c #B61414",
"B  c #BF2A00",
"V  c #B9240B",
"C  c #AC3218",
"Z  c #972828",
"A  c #853535",
"S  c #AB2525",
"D  c #A92C2C",
"F  c #B72D2B",
"G  c #A43836",
"H  c #C10A00",
"J  c #C00805",
"K  c #C41701",
"L  c #C71C12",
"P  c #C41818",
"I  c #FE0200",
"U  c #FC0A01",
"Y  c #FC1201",
"T  c #C82700",
"R  c #C02A00",
"E  c #CA3800",
"W  c #F23401",
"Q  c #C82626",
"!  c #CE3838",
"~  c #BE4606",
"^  c #B8710E",
"/  c #9C5D22",
"(  c #A1513D",
")  c #C74A00",
"_  c #D14B01",
"`  c #C95900",
"'  c #D55C03",
"]  c #E45202",
"[  c #FD5A00",
"{  c #C96604",
"}  c #D66603",
"|  c #D96700",
" . c #C67200",
".. c #C07E00",
"X. c #D87900",
"o. c #FD6600",
"O. c #F26F00",
"+. c #D3512C",
"@. c #954F4A",
"#. c #A54343",
"$. c #B35453",
"%. c #8D6540",
"&. c #8E6464",
"*. c #8D6D66",
"=. c #8C706B",
"-. c #AA7474",
";. c #CF5151",
":. c #FD5846",
">. c #D26F6D",
",. c #DD7777",
"<. c #78B54B",
"1. c #5C8C66",
"2. c #5AB674",
"3. c #6BAF67",
"4. c #7CC044",
"5. c #68C259",
"6. c #59C36B",
"7. c #74DA66",
"8. c #8A8B01",
"9. c #91910F",
"0. c #B1A60D",
"q. c #BBBB02",
"w. c #B7B618",
"e. c #8B9F32",
"r. c #AA8932",
"t. c #B3B52D",
"y. c #C68800",
"u. c #CF8C0D",
"i. c #C79700",
"p. c #E28800",
"a. c #E49700",
"s. c #FF9800",
"d. c #CEAF02",
"f. c #C5B903",
"g. c #EAAD07",
"h. c #EBB700",
"j. c #E9A727",
"k. c #ACCE25",
"l. c #B2EA37",
"z. c #C5C400",
"x. c #CBCB01",
"c. c #CAC908",
"v. c #D7C902",
"b. c #D2D200",
"n. c #DCDC00",
"m. c #D7D909",
"M. c #DADA18",
"N. c #EAC900",
"B. c #EBCF0B",
"V. c #FAC800",
"C. c #F5D600",
"Z. c #FDD800",
"A. c #D2EA1A",
"S. c #E3E301",
"D. c #EBE706",
"F. c #EDEC01",
"G. c #FAE500",
"H. c #ECF80C",
"J. c #F4F400",
"K. c #FDF401",
"L. c #FFFE00",
"P. c #F8FB0A",
"I. c #E7E718",
"U. c #E9F910",
"Y. c #FDFC13",
"T. c #FFFF1B",
"R. c #C9C929",
"E. c #DBDB26",
"W. c #D2D23A",
"Q. c #D0ED20",
"!. c #EBEB2E",
"~. c #FBFB28",
"^. c #98974A",
"/. c #B2B24C",
"(. c #A9A957",
"). c #878970",
"_. c #B3B375",
"`. c #DAAF4F",
"'. c #93CF41",
"]. c #97E54E",
"[. c #88E159",
"{. c #A3E541",
"}. c #D6D54D",
"|. c #E6E64C",
" X c #FCFB45",
".X c #E7E758",
"XX c #DBDB66",
"oX c #D3CE71",
"OX c #F6DA61",
"+X c #EBE569",
"@X c #FFFF66",
"#X c #FEFE77",
"$X c #1E9696",
"%X c #368989",
"&X c #289898",
"*X c #379896",
"=X c #34B18E",
"-X c #1EA2A2",
";X c #17AEAC",
":X c #0CB4AB",
">X c #07B4B3",
",X c #06B9B9",
"<X c #21B3A4",
"1X c #539990",
"2X c #3AC58B",
"3X c #29C097",
"4X c #18C4AC",
"5X c #07C0B9",
"6X c #24C7A2",
"7X c #46CF89",
"8X c #00C0C0",
"9X c #0FC3C3",
"0X c #18C5C5",
"qX c #2FC8C8",
"wX c #5BD2D2",
"eX c #858584",
"rX c #8C8C8C",
"tX c #999999",
"yX c #A68D8D",
"uX c #B6B68C",
"iX c #A8A8A7",
"pX c #B3B3B3",
"aX c #ED9191",
"sX c #D8A19D",
"dX c #E9A7A7",
"fX c #F1B9AD",
"gX c #D3D393",
"hX c #FFFF87",
"jX c #E5E598",
"kX c #F3F396",
"lX c #D2D2AB",
"zX c #C2C2BA",
"xX c #F9F9AF",
"cX c #8ED9D9",
"vX c #85E0E0",
"bX c #C8C8C7",
"nX c #D3CFCF",
"mX c #D9D9D9",
"MX c #F7D2CD",
"NX c #EDEDCA",
"BX c #FCFCD8",
"VX c #E8EAEA",
"CX c #F8E3E3",
"ZX c #FBE9E9",
"AX c #FBFBE8",
"SX c #EAF0F0",
"DX c #FAFAF7",
/* pixels */
"v v v v v v v v v v v v v v v v v v v v v v v J v v v v v v v v v v v v v v v v v v v v v v v v v v v v v v v v v v v v v v v v ",
"v v v v v v v v v v v v v v v v v v v v v v J v J P Q Q Q F M M M M M M M M M M M M M M M M M m b v v v v v v v v v v v v v v v ",
"v v v v v v v v v v v v v v v v v v v v v v v v Q >.aXaXsXyXg s s s s s s s s s s s s s s s s y Z v v v v v v v v v v v v v v v ",
"v v v v v v v v v v v v v v v v v v v v v v J J ;.sXSXSXVXcXqX,X,X,X,X,X,X,X,X,X,X,X,X,X,X,X,X%XA b c v v v v v v v v v v v v v ",
"v v v v v v v v v v v v v v J J v v v v v v Q ;.sXpXvXvXvXwX0X8X8X8X8X8X8X8X8X8X8X8X8X8X8X8X8X-Xs y Z c v v v v v v v v v v v v ",
"v v v v v v v v v v v v v J v J v v v v v v ;.fXmXwX0X0X0X9X8X8X8X8X8X8X8X8X8X8X8X8X8X8X8X8X8X,X:X&Xt c v v v v v v v v v v v v ",
"v v v v v v v v v v v v v v v J v v v v v v $.pXvXqX8X8X8X8X8X,X8X8X8X8X8X8X5X8X8X8X8X8X8X8X8X8X8X-Xy c v v v v v v v v v v v v ",
"v v v v v v v v v v v v v v v v v v v v v v @.1XqX9X8X8X8X8X,X,X8X8X8X8X8X8X8X8X8X8X8X8X8X8X8X8X8X-Xy c v v v v v v v v v v v v ",
"v v v v v v v v v v v v v m Z Z Z Z Z Z Z Z u -X8X8X8X8X5X4X3X3X3X3X3X3X3X=X=X*X*X*X*X*X*X-X,X8X8X-Xy c v v v v v v v v v v v v ",
"v v v v v v v v v v v v c A a d d d d d d d &X:X8X8X8X8X5X2X5.4.4.4.4.4.4.<.^.%.#.#.#.#.#.g ;X8X8X-Xy c v v v v v v v v v v v v ",
"v v v v v v v v v v v b M u -X,X,X,X,X,X5X4X4X4X4X4X4X4X4X6.k.z.z.z.z.z.z.q.y.W Y U I I U @.*X:X,X&Xy b v v v v v v v v v v v v ",
"v v v v v v v v v v b A a %X:X8X8X8X8X5X2X7.[.[.[.[.[.[.[.l.m.S.S.S.S.S.b.z.i.X.] W I I U +.<.2.1X1X@.c v v v v v v v v v v v v ",
"v v v v v v v v v v m u &X:X>X,X,X,X,X4X7.Q.H.H.H.H.H.H.H.H.J.J.J.J.J.J.S.c.f.f.u.W I I Y ] 0.t.).=.G b v v v v v v v v v v v v ",
"v v v v v v v v v v b A a s s s s 1.2.7.l.H.L.L.L.L.L.L.L.L.L.L.L.J.J.D.E.XXXXXX`.+.U W o.p.d.t.uXiX-.G N v v v v v v v v v v v ",
"v v v v v v v v v v v m M M M M M / u.A.U.L.L.L.L.L.L.L.L.L.L.L.L.J.n.c.XXNXBXBXfX:.Y o.V.N.z.}.jXmXiX&.G b J v v v v v v v v v ",
"v v v v v v v v v v v v v v v K E } j. X~.L.L.L.L.L.L.L.L.L.L.J.J.D.E.}.jXAXDXDXMXaX:.j.K.I.W.oXNXSXbXiX$.b v v v v v v v v v v ",
"v v v v v v v v v v v v v v v E p.B.+XxX@XY.L.L.L.L.L.L.L.L.L.J.n.M.+XxXBXDXDXDXZXMXfXOXY. XkXNXAXDXVXnX>.P v v v v v v v v v v ",
"v v v v v v v v v v v v v b n ' j. XxXAXhXT.L.L.L.L.L.L.L.L.L.F.b.R.jXDXDXSXVXmXmXSXAX#XT.@XBXDXSXVXmXnX>.F b v v v v v v v v v ",
"v v v v v v v v v v v v v B ^ j.OXxXBXAXhXT.L.L.L.L.L.L.L.L.L.F.b.R.jXAXmXpXtXh eXbXAX#XT.@XBXVXbXiXeXf &.@.D N v v v v v v v v ",
"v v v v v v v v v v v v v ) i.}.xXDXDXBX#XT.L.L.L.L.L.L.L.L.L.F.b.R.jXAXbXrXr ; e iXAX#XT.@XBXmXiXg : @ : h @.N v v v v v v v v ",
"v v v v v v v v v v v v H ` d.|.xXAXxXhX XY.L.L.L.L.L.L.L.L.L.F.b.R.jXAXbXrXr @ : iXAX#XT.@XBXmXiXg : O 6 ^./ V v v v v v v v v ",
"v v v v v v v v v v v v H | C. XxXBX#X~.Y.L.L.L.L.L.L.L.L.L.L.F.b.R.jXAXbXrXr @ : iXAX#XT.@XBXmXiXg : O 6 0.^ B v v v v v v v v ",
"v v v v v v v v v v v v H | C.~.#XhX XL.L.L.L.L.L.L.L.L.L.L.L.J.S.M.+XkXgX(.e.7 9 oXkX#X|.jXNXlX_.^.9 7 8.q...B v v v v v v v v ",
"v v v v v v v v v v v v H | C.Y.~.~.Y.L.L.L.L.L.L.L.L.L.L.L.L.J.J.J.~.~.!.I.M.c.m.!. X+XgXlXbXgX}.M.m.z.z.f...B v v v v v v v v ",
"v v v v v v v v v v v v H | C.L.L.L.L.L.L.L.L.L.K.Z.V.V.V.Z.K.L.L.L.L.L.L.L.L.L.P.I.E.oXzXbXbXlX.X~.Y.J.S.z.^ B v v v v v v v v ",
"v v v v v v v v v v v v H | C.L.L.L.L.L.L.L.L.L.Z.s.[ [ [ s.G.L.L.L.L.L.L.L.L.L.I.W.(.uXzXnXVXNXgXXX!.P.S.z...B v v v v v v v v ",
"v v v v v v v v v v v v H | C.L.L.L.L.L.L.L.L.L.V.[ I I U o.Z.L.L.L.L.L.L.L.L.L.I.(.eXtXpXnXSXVXnXlX|.P.S.z...B v v v v v v v v ",
"v v v v v v v v v v v v H | C.L.L.L.L.L.L.L.L.L.V.[ I I U o.Z.L.L.L.L.L.L.L.L.L.I.(.eXrXtXpXnXmXbXlX|.P.S.z...B v v v v v v v v ",
"v v v v v v v v v v v v H | C.L.L.L.L.L.L.L.L.L.V.[ U U Y o.Z.K.L.L.L.L.L.L.L.L.I./.).eXeXtXpXzXzXgX|.P.S.z...B v v v v v v v v ",
"v v v v v v v v v v v v H | C.L.L.L.L.L.L.L.L.L.Z.s.o.[ ] O.p.h.G.L.L.L.L.L.L.L.I.t.^.).).rXiXuXgXXXE.S.b.z...B v v v v v v v v ",
"v v v v v v v v v v v v H | C.L.L.L.L.L.L.L.L.L.K.G.C.h.i. .E | N.L.L.L.L.L.L.L.F.c.w.^.).eXeX_.W.I.m.x.z.f...B v v v v v v v v ",
"v v v v v v v v v v v v H } N.J.J.L.L.L.L.L.L.L.L.L.J.S.b.i.) ` a.N.G.L.L.L.L.L.J.S.c.t.(.(.(./.I.J.n.z.w.w.^ V v v v v v v v v ",
"v v v v v v v v v v v v v ` d.n.J.L.L.L.L.L.L.L.L.L.L.J.F.v.i. .` | h.K.L.L.L.L.J.J.F.I.E.E.E.I.P.J.n.f.t.^.( V v v J v v v v v ",
"v v v v v v v v v v v v v ~ y.f.D.L.L.L.L.L.L.L.L.L.L.L.L.F.b.i.) E p.C.C.C.C.C.C.C.C.C.C.C.C.C.C.N.c.w.r.*.#.N v v v v v v v v ",
"v v v v v v v v v v v v v n ~ X.N.L.L.L.L.L.L.L.L.L.L.L.L.J.F.v.i. .{ | | | | | | | | | | | | | | } r.^.%.G S b v v v v v v v v ",
"v v v v v v v v v v v v v v v _ g.K.K.L.L.L.L.L.L.L.L.L.L.L.L.F.b.i.` K K L L L L L L L L L L L L F @.*.( N v v v v v v v v v v ",
"v v v v v v v v v v v v v v v T | a.V.K.L.L.L.L.L.L.L.L.L.L.L.J.S.v.y.{ +.>.,.,.,.,.,.,.,.,.,.,.,.>.$.#.S c v v v v v v v v v v ",
"v v v v v v v v v v v v v v v H H E a.K.L.L.L.L.L.L.L.L.L.L.L.L.J.F.v.f.oXMXCXCXCXCXCXCXCXCXCXCXCXMX>.N c v v v v v v v v v v v ",
"v v v v v v v v v v v v v v v v v K | g.C.K.L.L.L.L.L.L.L.L.L.L.L.J.n.c.`.sXdXdXdXdXdXdXdXdXdXfXnXzX;.J v v v v v v v v v v v v ",
"v v v v v v v v v v v v v v v v v H T _ a.G.L.L.L.L.L.L.L.L.L.L.L.J.n.f.u.! ! ! ! ! ! ! ! ! ! $.-.yXG v v v v v v v v v v v v v ",
"v v v v v v v v v v v v v v v v v v v H ' h.B.Q.Q.U.J.J.L.L.L.L.L.J.S.x.y.E R R R R R R R R R C i u A k x c v v v v v v v v v v ",
"v v v v v v v v v v v v v v v v v v v H T _ r.3.7.k.n.F.L.L.L.L.L.J.J.S.d.y.................../ 6 ; & > 3 c v v v v v v v v v J ",
"v v v v v v v v v v v v v v v v v v v v v v t &X3X5.w.m.J.L.L.L.L.L.L.J.S.x.z.z.z.z.z.z.q.q.0.7 =     . , k x x x c v v v v J J ",
"v v v v v v v v v v v v v v v v v v v v v v t &X4X2X5.k.m.F.J.L.L.L.L.L.J.S.S.S.S.S.n.x.q.9.7 6 O       $ , < < 1 k v v v v J v ",
"v v v v v v v v v v v v v v v v v v v v v v t &X5X5X<X<.q.m.F.P.P.P.L.L.J.J.J.J.J.J.F.b.q.7 * X           . . . % 3 c c c c v v ",
"v v v v v v v v v v v v v v v v v v v v v v t &X8X8X:X1.^ 0.'.].].{.Q.S.S.S.S.S.m.E.R.9.7 6 O                   o > 1 1 2 k c v ",
"v v v v v v v v v v v v v v v v v v v v v v t &X8X5X;Xp C %.=X6X6X7X'.c.x.x.x.x.w./.).8 * O                       o o o # < z J ",
"v v v v v v v v v v v v v v v v v v v v v v ( 3.7X7X2.%.m y -X8X8X4X6.'.e.8.8.8.8.9 r ; X                                 > z J ",
"v v v v v v v v v v v v v v v v v v v v v v ~ t.l.l.k.^ n y -X8X8X,X6X=Xq 5 = = = * @ X                                   > z J ",
"v v v v v v v v v v v v v v v v v v v v H T X.C.K.G.N.| n y -X8X8X8X8X>Xw +                                               > z v ",
"v v v v v v v v v v v v v v v v v v v H _ p.h.G.C.a.' T b y -X8X8X,X,X>Xw +                                               > z v ",
"v v v v v v v v v v v v v v v v v v v H | V.G.G.h.' H J b y $X>X>X>X>X:Xw +   X X X X X                           . . . o , z v ",
"v v v v v v v v v v v v v v v v v v v H _ X.p.p.| T v v c 4 0 w w w w w - X @ e r r r ; X                       o % < < < j x v ",
"v v v v v v v v v v v v v v v v v v v v H K K K K H v v c 2 @ + + + + + X   : eXiXiXtXr X                       # 1 x x x c v v ",
"v v v v v v v v v v v v v v v v v v v v v v v v J J v v c l 4 ; ; ; ; ; ; ; r rXiXiXtXr X               o % > > < k v v v v v v ",
"v v v v v v v v v v v v v v v v v v v v v v v v J J J v c Z i f f f f f f f g eXrXrXh e X             . > j k k k c v v v v v v ",
"v v v v v v v v v v v v v v v v v v v v v v v v v v v v v S @.&.&.&.&.&.&.&.&.&.&.&.&.4 % $ $ $ $ $ $ % 1 x v v v v v v v v v v ",
"v v v v v v v v v v v v v v v v v v v v v v v v v v v v v N S D D D D D D D D D D D S l j 3 3 3 3 3 3 j k c v v v v v v v v v v ",
"v v v v v v v v v v v v v v v v v v v v v v v v v v v v v v v v v v v v v v v v v v v v v v v v v v v v v v v v v v J v v v v v ",
"v v v v v v v v v v v v v v v v v v v v v v v v v v v v v v v v v v v v v v v v v v v v v v v v v v v v v v v v v v v v v v v v ",
"v v v v v v v v v v v v v v v v v v v v v v v v v v v v v v v v v v v v v v v v v v v v v v v v v v v v v v v v v v v v v v v v ",
"v v v v v v v v v v v v v v v v v v v v v v v v v v v v v v v v v v v v v v v v v v v v v v v v v v v v v v v v v v v v v v v v ",
"v v v v v v v v v v v v v v v v v v v v v v v v v v v v v v v v v v v v v v v v v v v v v v v v v v v v v v v v v v v v v v v v ",
"v v v v v v v v v v v v v v v v v v v v v v v v v v v v v v v v v v v v v v v v v v v v v v v v v v v v v v v v v v v v v v v v "
};
