/* XPM */
static char *_[] = {
/* columns rows colors chars-per-pixel */
"64 64 253 2 ",
"   c #010100",
".  c #0C0000",
"X  c #070C08",
"o  c #130202",
"O  c #1B0000",
"+  c #191A01",
"@  c #011414",
"#  c #081F17",
"$  c #181818",
"%  c #290000",
"&  c #370000",
"*  c #162913",
"=  c #272700",
"-  c #373801",
";  c #012828",
":  c #0F3737",
">  c #232323",
",  c #2C2C2C",
"<  c #352F2F",
"1  c #450000",
"2  c #550707",
"3  c #5B0101",
"4  c #481A1A",
"5  c #630000",
"6  c #6E0000",
"7  c #790000",
"8  c #761818",
"9  c #502E2E",
"0  c #713C3C",
"q  c #2F6738",
"w  c #4E5708",
"e  c #6B6C0D",
"r  c #757601",
"t  c #45742F",
"y  c #014948",
"u  c #045B5B",
"i  c #307141",
"p  c #006666",
"a  c #006C6C",
"s  c #0E7770",
"d  c #4D4E4D",
"f  c #754949",
"g  c #675757",
"h  c #7F5555",
"j  c #6B6454",
"k  c #596766",
"l  c #477777",
"z  c #4D7372",
"x  c #437C7C",
"c  c #5C7979",
"v  c #646464",
"b  c #6D6A6A",
"n  c #6D7474",
"m  c #870202",
"M  c #970101",
"N  c #951717",
"B  c #A70606",
"V  c #AB0000",
"C  c #B60202",
"Z  c #BF0000",
"A  c #BE0D01",
"S  c #B40C0C",
"D  c #BC0B0B",
"F  c #AF120F",
"G  c #BE1801",
"H  c #AB1414",
"J  c #A21D1D",
"K  c #AF1F1F",
"L  c #B81515",
"P  c #BF2901",
"I  c #B42F0D",
"U  c #9D2121",
"Y  c #952A2A",
"T  c #8B3131",
"R  c #A72424",
"E  c #A92C2C",
"W  c #B2362B",
"Q  c #A33B38",
"!  c #C61709",
"~  c #C71C12",
"^  c #C31F1F",
"/  c #FF0100",
"(  c #FC0B00",
")  c #F4150A",
"_  c #C42700",
"`  c #C63008",
"'  c #F42404",
"]  c #E63015",
"[  c #C42626",
"{  c #CE3838",
"}  c #FA3A3A",
"|  c #BA4B0A",
" . c #BE5204",
".. c #BF5C01",
"X. c #BD6804",
"o. c #B6760B",
"O. c #A55227",
"+. c #AD6F2A",
"@. c #C64D02",
"#. c #FC4C01",
"$. c #E55800",
"%. c #D16604",
"&. c #D96700",
"*. c #C77600",
"=. c #C07E00",
"-. c #CA710C",
";. c #D97604",
":. c #F97100",
">. c #CA502A",
",. c #925552",
"<. c #B04949",
"1. c #BC5858",
"2. c #8A6554",
"3. c #8E6464",
"4. c #8F6F65",
"5. c #8F7571",
"6. c #B46B6B",
"7. c #FF4646",
"8. c #D66251",
"9. c #C96E6E",
"0. c #DD7776",
"q. c #7E9719",
"w. c #259E78",
"e. c #4F9E5C",
"r. c #798754",
"t. c #72B74E",
"y. c #7EC042",
"u. c #74C04E",
"i. c #74CB57",
"p. c #4DC375",
"a. c #65D16D",
"s. c #898900",
"d. c #949400",
"f. c #BE9104",
"g. c #ABAB00",
"h. c #BABA05",
"j. c #B4B013",
"k. c #8E9D29",
"l. c #A8962B",
"z. c #AEAF2E",
"x. c #C58800",
"c. c #D88C07",
"v. c #C49700",
"b. c #FF8A00",
"n. c #E49500",
"m. c #C1AD00",
"M. c #C3B902",
"N. c #D7B900",
"B. c #C6BC14",
"V. c #FCB400",
"C. c #D79529",
"Z. c #B2C210",
"A. c #90C534",
"S. c #B3D622",
"D. c #ABE63C",
"F. c #C3C300",
"G. c #CCCC00",
"H. c #CACA0F",
"J. c #D2C702",
"K. c #D4D400",
"L. c #DBDC01",
"P. c #D1D80B",
"I. c #D1D015",
"U. c #FBCA00",
"Y. c #F5D700",
"T. c #FBD801",
"R. c #D2EF1D",
"E. c #E3E300",
"W. c #EAE504",
"Q. c #EBEB00",
"!. c #FEE800",
"~. c #F3F300",
"^. c #F9F605",
"/. c #FEFE00",
"(. c #E6E616",
"). c #ECF610",
"_. c #DBDB25",
"`. c #CBCB3B",
"'. c #DEDE35",
"]. c #CCF226",
"[. c #F3F326",
"{. c #F2F038",
"}. c #99934B",
"|. c #A5A55A",
" X c #B4AD50",
".X c #878473",
"XX c #B2B269",
"oX c #D7B751",
"OX c #EB9664",
"+X c #9DCE55",
"@X c #93E450",
"#X c #D3D050",
"$X c #EAEA4A",
"%X c #D8D370",
"&X c #DADA79",
"*X c #E7E775",
"=X c #008686",
"-X c #009494",
";X c #328D8D",
":X c #18AF97",
">X c #31AD98",
",X c #02A9A9",
"<X c #1BA7A7",
"1X c #14B7AD",
"2X c #04B6B4",
"3X c #0CB4B3",
"4X c #04BBBB",
"5X c #4D9090",
"6X c #36C08A",
"7X c #2AC096",
"8X c #28C09B",
"9X c #14C0AB",
"0X c #09C1B9",
"qX c #26C8A2",
"wX c #4FCD88",
"eX c #79D4AC",
"rX c #00C0C0",
"tX c #03C8C8",
"yX c #06D7D7",
"uX c #18D1D1",
"iX c #24CBCB",
"pX c #04E8E8",
"aX c #61D3C1",
"sX c #838382",
"dX c #8C8C8B",
"fX c #968888",
"gX c #969696",
"hX c #B09292",
"jX c #B8B894",
"kX c #A6A5A5",
"lX c #BDAAA9",
"zX c #BABABA",
"xX c #D79995",
"cX c #EB9595",
"vX c #E9A7A7",
"bX c #F2B4B4",
"nX c #D1D192",
"mX c #ECEA91",
"MX c #C3C3BA",
"NX c #D3D3B4",
"BX c #EED9B0",
"VX c #EAE9A9",
"CX c #EFEFBF",
"ZX c #C9C8C7",
"AX c #D6C7C7",
"SX c #D5D5D5",
"DX c #F2DDD7",
"FX c #CFEAC3",
"GX c #F1EFD2",
"HX c #E7E7E6",
"JX c #F8E3E3",
"KX c #F7F7E7",
"LX c #FAFAF8",
/* pixels */
"Z Z Z Z Z Z Z Z Z Z Z Z Z Z Z Z Z Z Z Z Z Z Z Z Z Z Z Z Z Z Z Z Z Z Z Z Z Z Z Z Z ! ! ! Z Z Z Z Z Z Z Z Z Z Z Z Z Z Z Z Z Z Z Z ",
"Z Z Z Z Z Z Z Z Z Z Z Z Z Z Z Z Z Z S R R R R R J J J J J J J J J J J J J J J S Z ! ! ! Z Z Z Z Z Z Z Z Z Z Z Z Z Z Z Z Z Z Z Z ",
"Z Z Z Z Z Z Z Z Z Z Z Z Z Z Z Z Z C T c 5X5X5X5Xz z z z z z z z z z z z z z k T C Z ! Z Z Z Z Z Z Z Z Z Z Z Z Z Z Z Z Z Z Z Z Z ",
"Z Z Z Z Z Z Z Z Z Z Z Z Z Z Z Z D H b iXpXpXpXtX4X4X4X4X4X4X4X4X4X4X4X4X4X4X<Xg H D Z Z Z Z Z Z Z Z Z Z Z Z Z Z Z Z Z Z Z Z Z Z ",
"Z Z Z Z Z Z Z Z Z Z Z Z Z Z Z S T n >XuXpXpXyXtXrXrXrXrXrXrXrXrXrXrXrXrXrXrX3X;Xg T S Z Z Z Z Z Z Z Z Z Z Z Z Z Z Z Z Z Z Z Z Z ",
"Z Z Z Z Z Z Z Z Z Z Z Z Z Z Z H n uXyXtXtXtXtXrXrXrXrXrXrXrXrXrXrXrXrXrXrXrX4X3X<Xg H Z Z Z Z Z Z Z Z Z Z Z Z Z Z Z Z Z Z Z Z Z ",
"Z Z Z Z Z Z Z Z Z Z Z Z Z Z Z H c yXyXtXrXrXrXrXrXrXrXrXrXrXrXrXrXrXrXrXrXrXrXrX3Xk H Z Z Z Z Z Z Z Z Z Z Z Z Z Z Z Z Z Z Z Z Z ",
"Z Z Z Z Z Z Z Z Z Z Z Z Z Z Z H k 4XtXrXrXrXrXrXrXrXrXrXrXrXrX4X4XrXrXrXrXrXrXrX3Xk H Z Z Z Z Z Z Z Z Z Z Z Z Z Z Z Z Z Z Z Z Z ",
"Z Z Z Z Z Z C H Y Y Y Y Y Y Y T l 3XrXrXrXrX0X9X7X7X7X7X7X7X7X7X7X7X7X7X7X7X8X9X3Xk H Z Z Z Z Z Z Z Z Z Z Z Z Z Z Z Z Z Z Z Z Z ",
"Z Z Z Z Z Z H f l x x x x x x ;X<X4XrXrXrXrX9Xp.y.y.y.y.y.y.y.y.y.y.y.y.y.y.u.6X1Xk H Z Z Z Z Z Z Z Z Z Z Z Z Z Z Z Z Z Z Z Z Z ",
"Z Z Z Z C S Y l 3X4X4X4X4X4X1X1X1X<X<X<X<X<X>Xt.h.F.F.F.F.F.F.F.F.F.F.F.F.F.Z.a.8Xk J D Z Z Z Z Z Z Z Z Z Z Z Z Z Z Z Z Z Z Z Z ",
"Z Z Z Z J f z <X4XrXrXrXrX9Xp.t.r.2.2.2.2.2.2.l.h.G.L.E.E.E.E.E.E.E.E.E.L.G.Z.A.t.r.,.E S Z Z Z Z Z Z Z Z Z Z Z Z Z Z Z Z Z Z Z ",
"Z Z Z Z Y l 1X3X4X4X4X0XrX8Xu.j.%.) ) ) ) ) ] ;.M.L.~.^.^.^.^.^.^.^.^.^.Q.K.F.Z.j.}..X,.K Z Z Z Z Z Z Z Z Z Z Z Z Z Z Z Z Z Z Z ",
"Z Z Z Z J f z z z e.p.wXaXeX+Xm.$.( / / ) 7.0.OX%X'.W.Q.^./././././././.~.E.K.G.h.z.}.+.I Z Z Z Z Z Z Z Z Z Z Z Z Z Z Z Z Z Z Z ",
"Z Z Z Z D H J J U +.z.+XFXFX#Xm.$.( / / } cXDXGXGX*XI.L.~././././././././.^.Q.K.F.h.j.o.P Z Z Z Z Z Z Z Z Z Z Z Z Z Z Z Z Z Z Z ",
"Z Z Z Z Z Z Z Z ! >.oXmXGXGXmX#XC.#.' ( 7.bXLXLXLXVX#X'.(.~.^./././././././.^.E.K.G.F.v.@.P G Z Z Z Z Z Z Z Z Z Z Z Z Z Z Z Z Z ",
"Z Z Z Z Z Z Z Z ! 8.BXGXLXLXGXVXoXc.$.) 7.bXLXLXLXKXCX*X_.L.Q././././././././.~.Q.L.F.m.v.X.P Z Z Z Z Z Z Z Z Z Z Z Z Z Z Z Z Z ",
"Z Z Z Z Z Z Z D [ 9.AXSXHXKXLXKX&XB.;.' } cXSXHXHXLXLXVX`.G.Q./././././././././.^.E.F.F.Z.f.| L D Z Z Z Z Z Z Z Z Z Z Z Z Z Z Z ",
"Z Z ! ! Z Z D <.6.5.b .XkXZXHXKX&XB.;.' ~ ,.n gXzXSXLXVX`.G.Q./././././././././.^.E.F.F.h.j.+.<.R D Z Z Z Z Z Z Z Z Z Z Z Z Z Z ",
"Z Z ! ! Z Z L 9.lXb $ < v gXSXKX&XB.;.] D 2 $ d dXzXKXVX`.G.Q./././././././././.^.E.G.F.F.j.}.4.Q D Z Z Z Z Z Z Z Z Z Z Z Z Z Z ",
"Z Z Z Z Z ! ^ 0.ZXn $ , v gXSXKX&XH.C.OX1.4 $ d sXzXKXVX`.G.Q././././././././././.Q.E.K.F.h.z.l.O.A Z Z Z Z Z Z Z Z Z Z Z Z Z Z ",
"Z Z Z Z ! ! [ cXDXdX$ , v gXSXKX&XH.#XBXlXd $ d sXzXKXVX`.G.Q./././././././././././.^.E.G.h.h.j...A Z Z Z Z Z Z Z Z Z Z Z Z Z Z ",
"Z Z Z Z ! ! ^ OXmX Xe e }.XXNXDXnX#X%XmX%Xk.e k. X%XmX*X_.L.~././././././././././././.Q.G.F.F.m...A Z Z Z Z Z Z Z Z Z Z Z Z Z Z ",
"Z Z Z Z Z Z _ C.{.(.G.P.(.$XnXZXMXnX%X$X[.P.G.P.(.[.{.[.).~.^././././././././././././.Q.G.F.F.m...! Z Z Z Z Z Z Z Z Z Z Z Z Z Z ",
"Z Z Z Z Z Z _ n.^././.^.[.$XnXZXZXMX&X'.(.^././././././././././.!.U.U.U.T.!./././././.Q.G.F.F.m...A Z Z Z Z Z Z Z Z Z Z Z Z Z Z ",
"Z Z Z Z Z Z _ n.^././.[.%XnXFXHXSXMXjXXX`.(./././././././././.!.V.:.#.#.b.U./././././.Q.G.F.F.m...A Z Z Z Z Z Z Z Z Z Z Z Z Z Z ",
"Z Z Z Z Z Z _ n.^././.{.nXZXHXKXSXzXkXdX|._./././././././././.!.:.( / / #.V./././././.Q.G.Z.F.m...A Z Z Z Z Z Z Z Z Z Z Z Z Z Z ",
"Z Z Z Z Z Z _ n.^././.$XnXZXSXSXzXkXgXsX|._./././././././././.!.:.( / / #.V./././././.Q.G.F.F.m...A Z Z Z Z Z Z Z Z Z Z Z Z Z Z ",
"Z Z ! ! Z ! _ n.^././.{.nXMXMXzXkXdXsX.X|._./././././././././.T.:.) ( ( #.V./././././.Q.G.F.F.m...A Z Z Z Z Z Z Z Z Z Z Z Z Z Z ",
"Z Z ! ! Z Z _ n.^././.[.$X&XjXkXgXsX.X}.z.(./././././././.!.V.n.;.$.$.:.b.T./././././.Q.G.F.F.m...A Z Z Z Z Z Z Z Z Z Z Z Z Z Z ",
"Z Z Z Z Z Z _ n.^././.^.).'.XXdXsX.X}.z.H.W./././././././.Y.;.` %.v.N.U.!.^./././././.Q.G.F.F.m...A Z Z Z Z Z Z Z Z Z Z Z Z Z Z ",
"Z Z Z Z Z Z _ c.W.~./././.(.`.|.|.|.z.H.L.~./././././.!.U.n.%.@.x.J.E.~./././././.~.Q.L.G.h.j.l.| A Z Z Z Z Z Z Z Z Z Z Z Z Z Z ",
"Z Z Z Z Z Z _ *.J.E.^././.^.(._._._.(.W.~.^./././././.U.;.@.*.v.N.W.~././././././.Q.K.G.F.j.z.}.O.D Z Z Z Z Z Z Z Z Z Z Z Z Z Z ",
"Z Z Z Z Z Z G ..v.J.(.W.Y.Y.Y.Y.Y.Y.Y.Y.Y.Y.Y.Y.Y.Y.Y.n.@.@.x.G.E.^././././././.^.E.F.F.F.j.}.3.Q D Z Z Z Z Z Z Z Z Z Z Z Z Z Z ",
"Z Z Z Z Z Z A P  .+. Xl.-.&.&.&.&.&.&.&.&.&.&.&.&.&.&.%.*.x.N.E.~./././././././.^.E.F.F.M.j.+.E L D Z Z Z Z Z Z Z Z Z Z Z Z Z Z ",
"Z Z Z Z Z Z Z Z D Q 4.,.W ~ ~ ~ ~ ~ ~ ~ ~ ~ ~ ~ ~ ! ! @.v.J.W.^././././././././.^.E.F.M.M.f.| D Z Z Z Z Z Z Z Z Z Z Z Z Z Z Z Z ",
"Z Z Z Z Z Z Z Z D K Q 1.9.0.0.0.0.0.0.0.0.0.0.0.0.8.%.x.N.E.~./././././././././.^.E.F.f.o. .P Z Z Z Z Z Z Z Z Z Z Z Z Z Z Z Z Z ",
"Z Z Z Z Z Z Z Z Z D D 8.bXJXJXJXJXJXJXJXJXJXJXJXDX%XB.J.Q.^.^./././././././././.^.E.F.x.P A ! ! Z Z Z Z Z Z Z Z Z Z Z Z Z Z Z Z ",
"Z Z Z Z Z Z Z Z ! ! Z <.xXAXbXvXvXvXvXvXvXvXvXvXvXoXB.K.~./././././././././.^.].D.z.f. .G Z Z Z Z Z Z Z Z Z Z Z Z Z Z Z Z Z Z Z ",
"Z Z Z Z Z Z Z Z ! ! Z W 5.fX1.{ { { { { { { { { { -.m.K.~./././././././././.).@XwXr.I G A Z ! Z Z Z Z Z Z Z Z Z Z Z Z Z Z Z Z Z ",
"Z Z Z Z Z Z Z Z Z Z Z R ,.,.W P _ _ _ _ _ _ _ _ ` *.M.L.~./././././.^.~.).R.D.wX1Xl T N M M V C Z Z Z Z Z Z Z Z Z Z Z Z Z Z Z Z ",
"Z Z Z Z Z Z Z Z Z Z Z S R W X.o.f.=.=.=.o.o.=.=.x.N.E.~.^./././././.~.L.S.i.wXqX4X<X;Xd 4 3 M C Z Z ! Z Z Z Z Z Z Z Z Z Z Z Z Z ",
"Z Z Z Z Z Z Z Z Z Z Z Z Z P X.m.M.M.F.F.F.F.F.F.G.E.^././././././.~.L.h.k.w.,X2X0X4X4Xs ; % 6 V V V C C Z Z Z Z Z Z Z Z Z Z Z Z ",
"Z Z Z Z Z Z Z Z Z Z Z Z ! ! ` X.x.M.G.L.E.E.E.E.E.Q.^./././././.Q.L.g.r w q p -X4X0X4Xw.; o & 3 3 3 m V Z Z Z Z Z Z Z Z Z Z Z Z ",
"Z Z Z Z Z Z Z Z Z Z Z Z ! Z A G X.h.K.Q.^.^.^.^.^.^././.^.^.^.~.L.Z.r = X X ; s 2X0X0Xw.;   . . . O 3 M C C C C Z Z Z Z Z Z Z Z ",
"Z Z Z Z Z Z Z Z Z Z Z Z Z Z Z S O.t.A.P.E.E.E.E.E.E.E.R.D.@X@X@X@Xt.t *     # i a.a.a.e.*           % 3 6 6 7 M C Z Z Z Z Z Z Z ",
"Z Z Z Z Z Z Z Z Z Z Z Z Z Z Z F j >Xa.Z.G.G.G.G.G.G.G.A.p.qXqXqXqX:Xs #     + q.R.R.R.k.-           . O O O & 7 C Z Z Z Z Z Z Z ",
"Z Z Z Z Z Z Z Z Z Z Z Z Z S U f x 3X6Xu.A.A.A.k.s.s.s.e.:XrXrXrXrX4X=Xy ; @ = d.~././.g.-                   O 6 C Z Z Z Z Z Z Z ",
"Z Z Z Z Z Z Z Z Z Z Z Z Z J g ;X<X4X9X7X6X6Xw.q - - - i -XrXrXrXrX4X,X-Xp ; = d.~././.g.-                   O 6 C Z Z Z Z Z Z Z ",
"Z Z Z Z Z Z Z Z Z Z Z Z Z Y x 4XrXrXrXrX2X,X=Xy X . O : s <X<X<X3X4XrXrX-Xy * q.K.Q.^.h.w + X               O 6 C Z Z Z Z Z Z Z ",
"Z Z Z Z Z Z Z Z ! ! ! ! Z Y x 4XrXrXrXrX,Xa y ; . & 5 8 0 f f g ;X3XrXrX,X=Xs t e g.Q.L.g.r -               O 6 C Z Z Z Z Z Z Z ",
"Z Z Z Z Z Z Z D D ! ! D C Y l 2X2X2X2X2X=X:   . O 2 B L L L S N k ,X2X2X2X,X-Xy + r K.Q.E.h.w         . . . % 7 C Z Z Z Z Z Z Z ",
"Z Z ! ! Z Z D W 1.1.1.Q 8 4 : p p p p p y # . & 2 T <.1.1.<.N 2 < u p p p p u ; X - r s.s.e -       % 1 3 3 5 M C Z Z Z Z Z Z Z ",
"Z Z Z ! Z Z L 6.lXlXlX5.< o X @ @ @ @ @ @   O 5 B <.hXlXlXfX9 o X @ @ @ @ @ @     . + + + + .       1 M V V V C Z Z Z Z Z Z Z Z ",
"Z Z ! ! ! ! L 6.kXkXkXsXd , , , , , , , > X O 6 S <.hXkXkXgXg , , , , , , , > $           . % 1 1 1 6 V Z Z Z Z Z Z Z Z Z Z Z Z ",
"Z Z ! ! ! ! L ,.fXdXdXsXb v v v v v v v d $ O 6 S <.5.dXdXsXn v v v v v v v d ,           O 5 M M M V C Z Z Z Z Z Z Z Z Z Z Z Z ",
"Z Z Z Z Z Z D Q 3.3.3.3.3.3.3.3.3.3.3.3.f 4 & m D E ,.3.3.3.3.3.3.3.3.3.3.3.h 9 % % % % % 1 m Z Z Z Z Z Z Z Z Z Z Z Z Z Z Z Z Z ",
"Z Z Z Z Z Z C L E E E E E E E E E E E E U m m V C L E E E E E E E E E E E E R N 7 7 7 7 7 m V Z Z Z Z Z Z Z Z Z Z Z Z Z Z Z Z Z ",
"Z Z Z Z Z Z Z Z Z Z Z Z Z Z Z Z Z Z Z Z Z Z Z Z Z Z Z Z Z Z Z Z Z Z Z Z Z Z Z Z Z Z Z Z Z Z Z Z Z Z Z Z Z Z Z Z Z Z Z Z Z Z Z Z ",
"Z Z Z Z Z Z Z Z Z Z Z Z Z Z Z Z Z Z Z Z Z Z Z Z Z Z Z Z Z Z Z Z Z Z Z Z Z Z Z Z ! Z Z Z Z Z Z Z Z Z Z Z Z Z Z Z Z Z Z Z Z Z Z Z ",
"Z Z Z Z Z Z Z Z Z Z Z Z Z Z Z Z Z Z Z Z Z Z Z Z Z Z Z Z Z Z Z Z Z Z Z Z Z Z Z Z ! ! Z Z Z Z Z Z Z Z Z Z Z Z Z Z Z Z Z Z Z Z Z Z ",
"Z Z Z Z Z Z Z Z Z Z Z Z Z Z Z Z Z Z Z Z Z Z Z Z Z Z Z Z Z Z Z Z Z Z Z Z Z Z Z Z Z Z Z Z Z Z Z Z Z Z Z Z Z Z Z Z Z Z Z Z Z Z Z Z ",
"Z Z Z Z Z Z Z Z Z Z Z Z Z Z Z Z Z Z Z Z Z Z Z Z Z Z Z Z Z Z Z Z Z Z Z Z Z Z Z Z Z Z Z Z Z Z Z Z Z Z Z Z Z Z Z Z Z Z Z Z Z Z Z Z ",
"Z Z Z Z Z Z Z Z Z Z Z Z Z Z Z Z Z Z Z Z Z Z Z Z Z Z Z Z Z Z Z Z Z Z Z Z Z Z Z Z Z Z Z Z Z Z Z Z Z Z Z Z Z Z Z Z Z Z Z Z Z Z Z Z "
};
