/* XPM */
static char *_[] = {
/* columns rows colors chars-per-pixel */
"64 64 235 2 ",
"   c #010000",
".  c #0C0000",
"X  c #0C0C0C",
"o  c #130000",
"O  c #1E0000",
"+  c #1A1A01",
"@  c #181817",
"#  c #250000",
"$  c #2A0000",
"%  c #370101",
"&  c #2A2900",
"*  c #363600",
"=  c #113535",
"-  c #2E2626",
";  c #373737",
":  c #490000",
">  c #550000",
",  c #5B0000",
"<  c #58190C",
"1  c #690000",
"2  c #730101",
"3  c #7D0000",
"4  c #572D2D",
"5  c #365822",
"6  c #4A4A00",
"7  c #777701",
"8  c #62621E",
"9  c #287676",
"0  c #434343",
"q  c #4F554C",
"w  c #5B5B5B",
"e  c #705451",
"r  c #71754E",
"t  c #556A6A",
"y  c #4D7272",
"u  c #427E7E",
"i  c #4C7A7A",
"p  c #577E7E",
"a  c #666666",
"s  c #657777",
"d  c #787979",
"f  c #860000",
"g  c #940000",
"h  c #9E0000",
"j  c #9E0900",
"k  c #A20000",
"l  c #AC0000",
"z  c #B20000",
"x  c #BF0000",
"c  c #BF0C00",
"v  c #B70B0B",
"b  c #BA1902",
"n  c #AD1212",
"m  c #A21D1D",
"M  c #B51313",
"N  c #B51E13",
"B  c #B21B1A",
"V  c #BC2406",
"C  c #BF2A00",
"Z  c #BF3800",
"A  c #B62313",
"S  c #9D2323",
"D  c #952A2A",
"F  c #8A3535",
"G  c #853A3A",
"H  c #933636",
"J  c #AB2828",
"K  c #AA3232",
"L  c #B73736",
"P  c #C20201",
"I  c #C90404",
"U  c #C10A00",
"Y  c #DA0100",
"T  c #C51700",
"R  c #C51A1A",
"E  c #E90000",
"W  c #F80100",
"Q  c #CA2C00",
"!  c #CB3900",
"~  c #C82626",
"^  c #BB4905",
"/  c #BF5A00",
"(  c #BD6804",
")  c #BE7703",
"_  c #B47016",
"`  c #975721",
"'  c #A55035",
"]  c #C94202",
"[  c #D44E09",
"{  c #C75900",
"}  c #D15A10",
"|  c #D96600",
" . c #D56A00",
".. c #C07E00",
"X. c #CA7904",
"o. c #DD7900",
"O. c #9A4747",
"+. c #9A4B4A",
"@. c #96574D",
"#. c #965454",
"$. c #B75050",
"%. c #8C6D4F",
"&. c #8C6666",
"*. c #8F7360",
"=. c #857675",
"-. c #827B7B",
";. c #D14F4F",
":. c #D86363",
">. c #36955F",
",. c #78B94A",
"<. c #6EB057",
"1. c #6A8F79",
"2. c #59AF74",
"3. c #64B269",
"4. c #79C34A",
"5. c #6CC054",
"6. c #5AC368",
"7. c #44C07B",
"8. c #54CA7C",
"9. c #64CA66",
"0. c #77DD66",
"q. c #7CDE62",
"w. c #8A8A00",
"e. c #8A970D",
"r. c #B6900F",
"t. c #BFAA00",
"y. c #BCBC03",
"u. c #BAB806",
"i. c #B0B418",
"p. c #93892D",
"a. c #AA912B",
"s. c #8DB234",
"d. c #A8A92A",
"f. c #A3A139",
"g. c #C98C06",
"h. c #C89700",
"j. c #E38E00",
"k. c #C2A500",
"l. c #D1AB00",
"z. c #C5B400",
"x. c #C0BE00",
"c. c #D1B500",
"v. c #EAB504",
"b. c #E5A317",
"n. c #D18821",
"m. c #BDC003",
"M. c #B8C40B",
"N. c #A8C018",
"B. c #BCCF12",
"V. c #9AC227",
"C. c #8AC035",
"Z. c #83C03D",
"A. c #AED327",
"S. c #BCE92D",
"D. c #B6EB35",
"F. c #C1C100",
"G. c #CBCB00",
"H. c #C1CB0A",
"J. c #D3D300",
"K. c #DCDC00",
"L. c #EAC800",
"P. c #EADE00",
"I. c #F4D600",
"U. c #F6DD00",
"Y. c #DEE405",
"T. c #D9EE15",
"R. c #E3E300",
"E. c #ECEC00",
"W. c #E5E50F",
"Q. c #F8E900",
"!. c #F3F300",
"~. c #FFFF00",
"^. c #F7FB09",
"/. c #E3F613",
"(. c #E5F813",
"). c #FEFE17",
"_. c #CEC431",
"`. c #FEFE28",
"'. c #EFEC31",
"]. c #979451",
"[. c #898869",
"{. c #88886E",
"}. c #81CC4B",
"|. c #89E157",
" X c #E9CB58",
".X c #F6F649",
"XX c #FFFF6B",
"oX c #FBFB7A",
"OX c #0F8E8E",
"+X c #368A8A",
"@X c #36928A",
"#X c #279898",
"$X c #39BA89",
"%X c #37AA96",
"&X c #29BD9A",
"*X c #19A9A7",
"=X c #1EB9A2",
"-X c #0BB6B5",
";X c #04BBBB",
":X c #2CAAA4",
">X c #23B6A6",
",X c #488989",
"<X c #5C928B",
"1X c #479B9B",
"2X c #589493",
"3X c #6A8B8A",
"4X c #778383",
"5X c #47A98E",
"6X c #55A0A0",
"7X c #35C08B",
"8X c #2BC296",
"9X c #17C1AA",
"0X c #06C1BA",
"qX c #12C4B2",
"wX c #25C9A3",
"eX c #4AD288",
"rX c #00C0C0",
"tX c #0FC3C3",
"yX c #18C5C5",
"uX c #2FC8C8",
"iX c #5BD2D2",
"pX c #808080",
"aX c #A78888",
"sX c #A8BABA",
"dX c #D59292",
"fX c #E59797",
"gX c #E4ABAB",
"hX c #E5E286",
"jX c #FEFD89",
"kX c #EDE7A3",
"lX c #8ED9D9",
"zX c #85E0E0",
"xX c #C6DEDE",
"cX c #FEFEC7",
"vX c #E7EFEF",
/* pixels */
"x x x x x x x x x x x x x x x x x x x x x P x x x x x x x x x x x x x x x x x x x x x x P P P P x x x x x x x x x x x x x x x x ",
"x x x x x x x x x x x x x x x x x x x x x x x x U R ~ ~ ~ B m m m m m m m m m m m m m m m n z P x x x x x x x x x x x x x x x x ",
"x x x x x x x x x x x x x x x x x x x x x x x x ~ :.fXfXfXaXs y y y y y y y y y y y y y t e n x x P x x x x x x x x x x x x x x ",
"x x x x x x x x x x x x x x x x x x x x x x P U ;.gXvXvXvXlXuX-X-X-X-X-X-X-X-X-X-X-X-X-X-Xy D v x x x x x x x x x x x x x x x x ",
"x x x x x x x x x x x x x x P P x x x x x x ~ :.dXsXzXzXzXiXyXrXrXrXrXrXrXrXrXrXrXrXrXrX;X#Xt e m x x x x x x x x x x x x x x x ",
"x x x x x x x x x x x x x x P P x x x x x x ;.gXxXiXyXyXyXtXrXrXrXrXrXrXrXrXrXrXrXrXrXrX;X-X-Xu F x x x x x x x x x x x x x x x ",
"x x x x x x x x x x x x x x P P x x x x x x $.sXzXuXrXrXrXrXrXrXrXrXrXrXrXrXrXrXrXrXrXrXrXrXrX+XF x x x x x x x x x x x x x x x ",
"x x x x x x x x x x x x x x P x x x x x x x O.6XuXtXrXrXrXrXrXrXrXrXrXrXrXrXrXrXrXrXrXrXrXrXrX+XF x x x x x x x x x x x x x x x ",
"x x x x x x x x x x x x x n S D D D D D D D w #XrXrXrXrXrXrXrXrXrXrXrXrXrXrXrXrXrXrXrXrXrXrXrX+XH I I I P P x x x x x P x x x x ",
"x x x x x x x x x x x x v F t u u u u u u u #X-XrXrXrXrXrXrXrXrXrXrXrXrXrXrXrXrXrXrXrXrXrXrXrX,XK E E E Y P x x x x x x x x x x ",
"x x x x x x x x x x x v m w *X;X;X;X;X;X;X;X;X;XrXrXrXrXrXrXrXrXrXrXrXrXrXrXrXrXrXrXrXrXrXrXrX,XL W W W Y P x x x x x x x x x x ",
"x x x x x x x x x x v F t +X-XrXrXrXrXrXrXrXrXrXrXrXrXrXrXrXrXrXrXrXrXrXrXrXrXrXrXrXrXrXrXrXrX,XL W E Y I P x x x x x x x x x x ",
"x x x x x x x x x x n w #X-X;XrXrXrXrXrXrXrXrXrXrXrXrXrXrXrXrXrXrXrXrXrXrXrXrXrXrXrXrXrX;X;X-X,XL W Y P P x x x x x x x x x x x ",
"x x x x x x x x x x v G t @X-XrXrXrXrXrXrXrXrXrXrXrXrXrXrXrXrXrXrXrXrXrXrXrXrXrXrXrXrXrX;X:Xp %.} [ T P x x P P x x x x x x x x ",
"x x x x x x x x x x x n S w *XrXrXrXrXrXrXrXrXrXrXrXrXrXrXrXrXrXrXrXrXrXrXrXrXrXrXrXrXrX-Xp L [ X.g.] c x x x x x x x x x x x x ",
"x x x x x x x x x x x x v G y +X+X@X%X$X7X7X7X7X8X9X0XrXrXrXrXrXrXrXrXrXrXrXrXrXrXrXrXrX-X1.} | h.k.( Z b c x x x x x x x x x x ",
"x x x x x x x x x x x x x n D F F G p.s.C.C.C.C.5.8X;XrXrXrXrXrXrXrXrXrXrXrXrXrXrXrXrXrX;X2.a.h.z.z.k.g.^ c x x x x x x x x x x ",
"x x x x x x x x x x x x x x x U T ] n._.H.G.G.G.A.6.wXqX;XrXrXrXrXrXrXrXrXrXrXrXrXrX0XqX8X9.N.F.F.F.F.u.( A v x x x x x x x x x ",
"x x x x x x x x x x x x x x x Q  .b. XhX.XW.R.R.T.D.|.eX0XrXrXrXrXrXrXrXrXrXrXrXrXrXqXeX|.A.M.F.x.F.F.u.a.@.K M x x x x x x x x ",
"x x x x x x x x x x x x x c c [ v.`.jXcXoX).~.~.~.^./.q.wXqXqXqXqXqXqXqXqXqXqXqXqXqXwX|./.R.G.F.F.F.F.u.f.[.@.B x x x x x x x x ",
"x x x x x x x x x x x x x V ^ n. XoXjXoX.X).~.~.~.~.^.D.|.0.0.0.0.0.0.0.0.0.0.0.0.0.|.S.^.!.R.J.G.x.x.y.i.f.' A x x x x x x x x ",
"x x x x x x x x x x x x c ^ h._.kXcXXX`.).~.~.~.~.~.~.^.(.(.(.(.(.(.(.(.(.(.(.(.(.(.(.^.~.~.~.E.J.x.F.y.y.u.) C x x x x x x x x ",
"x x x x x x x x x x x x c { c.'.oXjX.X~.~.~.~.~.~.~.~.~.~.~.~.~.~.~.~.~.~.~.~.~.~.~.~.~.~.~.~.E.J.F.F.F.F.x...C x x x x x x x x ",
"x x x x x x x x x x x x U | L.^.`.`.).~.~.~.~.~.~.~.~.~.~.~.~.~.~.~.~.~.~.~.~.~.~.~.~.~.~.~.~.E.J.F.F.F.F.x...C x x x x x x x x ",
"x x x x x x x x x x x x U | I.~.~.~.~.~.~.~.~.~.~.~.~.~.~.~.~.~.~.~.~.~.~.~.~.~.~.~.~.~.~.~.~.E.J.F.F.F.F.x...C x x x x x x x x ",
"x x x x x x x x x x x x U | I.~.~.~.~.~.~.~.~.~.~.~.~.~.~.~.~.~.~.~.~.~.~.~.~.~.~.~.~.~.~.~.~.E.J.F.F.F.F.x...C x x x x x x x x ",
"x x x x x x x x x x x x U | I.~.~.~.~.~.~.~.~.~.~.~.~.~.~.~.~.~.~.~.~.~.~.~.~.~.~.~.~.~.~.~.~.E.J.F.F.F.F.x...C x x x x x x x x ",
"x x x x x x x x x x x x U | I.~.~.~.~.~.~.~.~.~.~.~.~.~.~.~.~.~.~.~.~.~.~.~.~.~.~.~.~.~.~.~.~.E.J.F.F.F.F.x...C x x x x x x x x ",
"x x x x x x x x x x x x U | I.~.~.~.~.~.~.~.~.~.~.~.~.~.~.~.~.~.~.~.~.~.~.~.~.~.~.~.~.~.~.~.~.E.J.F.F.F.F.x...C x x x x x x x x ",
"x x x x x x x x x x x x U { L.E.!.~.~.~.~.~.~.~.~.~.~.~.~.~.~.~.~.~.~.~.~.~.~.~.~.~.~.~.~.!.E.K.G.F.F.F.F.x...C x x x x x x x x ",
"x x x x x x x x x x x x c { k.K.!.~.~.~.~.~.~.~.~.~.~.~.~.~.~.~.~.~.~.~.~.~.~.~.~.~.~.~.~.E.J.F.F.F.F.F.F.x...C x x x x x x x x ",
"x x x x x x x x x x x x c Z ) l.P.~.~.~.~.~.~.~.~.~.~.~.~.~.~.~.~.~.~.~.~.~.~.~.~.~.~.~.~.R.G.F.F.F.F.y.i.d._ V x x x x x x x x ",
"x x x x x x x x x x x x x b C  .L.~.~.~.~.~.~.~.~.~.~.~.~.~.~.~.~.~.~.~.~.~.~.~.~.~.~.~.~.R.G.F.F.F.F.y.d.].' N x x x x x x x x ",
"x x x x x x x x x x x x x x x ] v.!.~.~.~.~.~.~.~.~.~.~.~.~.~.~.~.~.~.~.~.~.~.~.~.~.~.~.!.K.G.F.m.m.F.u.a.*.O.B x x x P x x x x ",
"x x x x x x x x x x x x x x x ! h.K.E.~.~.~.~.~.~.~.~.~.~.~.~.~.~.~.~.~.~.~.~.~.~.~.~.E.K.G.F.F.m.m.y.u._ ' J v x x x x x x x x ",
"x x x x x x x x x x x x x U U ^ r.H.Y.!.~.~.~.~.~.~.~.~.~.~.~.~.~.~.~.~.~.~.~.~.~.~.!.K.F.F.F.m.M.u.u.t.( b x x x x x x x x x x ",
"x x x x x x x x x x P P U Q | r.s.4.A.Y.E.~.~.~.~.~.~.~.~.~.~.~.~.~.~.~.~.~.~.~.~.E.K.G.F.F.F.N.Z.,.p.( Z c x x x x x x x x x x ",
"x x x x x x x x x x P P U | L.A.8.8X4.H.Y.!.~.~.~.~.~.~.~.~.~.~.~.~.~.~.~.~.~.~.!.K.F.F.F.m.m.C.2.%Xe b c x x P x x x x x x x x ",
"x x x x x x x x x x U Q [ j.Q.D.eX9X7.}.A.Y.E.~.~.~.~.~.~.~.~.~.~.~.~.~.~.~.!.E.R.G.F.F.m.N.C.6.8X*Xr ^ V c P x x x x x x x x x ",
"x x x x x x x x x x T | v.U.~.D.eX0X9X7X4.B.K.!.~.~.~.~.~.~.~.~.~.~.~.~.~.~.E.K.G.F.F.F.m.Z.7.9XqX=X<.r.^ c P P x x x x x x x x ",
"x x x x x x x x x x T j.Q.~.!.S.9.&X>X:X<.r.c.P.!.~.~.~.~.~.~.~.~.~.!.!.!.!.R.G.F.F.F.F.y.,.%X>X&X2.s.u.) Z b j h z x x x x x x ",
"x x x x x x x x x x T j.Q.E.K.B.V.,.3.<X%.^ X.c.K.!.~.~.~.~.~.~.~.~.R.J.J.J.G.F.F.F.F.F.y.s.1.2.<.C.N.y.t.r.` < , g x x x x x P ",
"x x x x x x x x x x T o.I.L.z.t.t.i.].=.+.B ^ r.B.Y.~.~.~.~.~.!.~.!.J.F.F.F.F.F.F.F.y.M.i.f.{.[.d.u.y.y.m.y.7 & # 2 l z x x P x ",
"x x x x x x x x x x U !  . .{ / / _ %.-.&.+.%.<.4.A.K.K.K.K.K.K.K.K.G.F.F.F.F.F.F.F.M.C.3.3.1.{.].f.i.y.m.y.7 & o % 1 g z x x x ",
"x x x x x x x x x x x U U U c c c N +.=.-.-.<X:X$X}.M.F.F.F.F.F.F.F.F.F.F.F.m.F.m.m.i.3.>X%X3X{.d [.d.u.u.u.7 &   . O 1 l z x x ",
"x x x x x x x x x x x x x x x x x v K +.&.-.3X1X5X3.,.V.y.F.x.x.F.F.F.F.F.F.m.F.N.s.<.2.%X2X4Xd w q 8 7 7 7 6 +     . % 2 g z x ",
"x x x x x x x x x x x x x x x x x x v B O.=.4X4X2X%X&X4.M.F.m.y.F.F.y.F.m.F.m.m.V.6.&X1X3X4X4Xa ; @ + + + + +         o # , k P ",
"x x x x x x x x x x x x x x x x x x x x J #.&.-.3X1X:X3.s.s.e.w.w.w.w.w.w.w.e.s.,.5X:X2X4Xd a 0 @                         : k P ",
"x x x x x x x x x x x x x x x x x x x x M J O.&.4X3X2X5X$X>.5 * * * * * * * 5 >.$X5X<X3Xd w ; @ X                         : k P ",
"x x x x x x x x x x x x x x x x x x x x x x J #.=.-.4X1X*X9 = X             = OX:X2Xd d a 0 X                             : k P ",
"x x x x x x x x x x x x x x x x x x x x x x M J O.&.4X3X2Xi q ; @           = u 2X3Xd w ; @ X                             : k x ",
"x x x x x x x x x x x x x x x x x x x x x x x x B +.=.d 4Xd d w - . . . . . - w d d a ; X                         . . . o > k x ",
"x x x x x x x x x x x x x x x x x x x x x x x x M K +.&.-.pXpXe 4 , , , , , < ; 0 0 ; @                         o % , , , f l x ",
"x x x x x x x x x x x x x x x x x x x x x x x x x v B +.=.-.-.#.S l l l l l 2 % X X X                           # 2 l l l z x x ",
"x x x x x x x x x x x x x x x x x x x x x x x x x x v K +.#.#.H B x x x x x g , % o                     O % : : , g x x x x x x ",
"x x x x x x x x x x x x x x x x x x x x x x x x x x x M B B B M v x x x x x z h 2 %                   . : f g g h z x x x x x x ",
"x x x x x x x x x x x x x x x x x x x x x x x x x x x x x x x x x x x x x x x x h , $ $ $ $ $ $ $ $ $ % 2 l x x x x x x x x x x ",
"x x x x x x x x x x x x x x x x x x x x x x x x x x x x x x x x x x x x x x x x z g 3 3 3 3 3 3 3 3 3 f h z x x x x x x x x x x ",
"x x x x x x x x x x x x x x x x x x x x x x x x x x x x x x x x x x P P x x x x x x x x x x x x x x x x x x x x x x x x x x x x ",
"x x x x x x x x x x x x x x x x x x x x x x x x x x x x x x x x x x x P x x x x x x x x x x x x x x x x x x x x x x x x x x x x ",
"x x x x x x x x x x x x x x x x x x x x x x x x x x x x x x x x x x x x x x x x x x x x x x x x x x x x x x x x x x x x x x x x ",
"x x x x x x x x x x x x x x x x x x x x x x x x x x x x x x x x x x x x x x x x x x x x x x x x x x x x x x x x x x x x x x x x ",
"x x x x x x x x x x x x x x x x x x x x x x x x x x x x x x x x x x x x x x x x x x x x x x x x x x x x x x x x x x x x x x x x ",
"x x x x x x x x x x x x x x x x x x x x x x x x x x x x x x x x x x x x x x x x x x x x x x x x x x x x x x x x x x x x x x x x "
};
