/* XPM */
static char *result[] = {
/* columns rows colors chars-per-pixel */
"40 40 205 2 ",
"   c #010100",
".  c #050B08",
"X  c #151500",
"o  c #1D1D1D",
"O  c #111313",
"+  c #021110",
"@  c #252500",
"#  c #3B3B00",
"$  c #022828",
"%  c #272727",
"&  c #3E3E3E",
"*  c #182911",
"=  c #28461E",
"-  c #494900",
";  c #515116",
":  c #4F6D1D",
">  c #6D6D00",
",  c #797900",
"<  c #67710A",
"1  c #0D5346",
"2  c #374C4C",
"3  c #097575",
"4  c #0A6B65",
"5  c #444443",
"6  c #445A5A",
"7  c #585858",
"8  c #7B7B41",
"9  c #466767",
"0  c #636363",
"q  c #7E7E7E",
"w  c #717171",
"e  c #FF0300",
"r  c #FD1B00",
"t  c #F51E00",
"y  c #CB2D01",
"u  c #C7291F",
"i  c #C82A1F",
"p  c #CA361D",
"a  c #F93603",
"s  c #FF3B2B",
"d  c #C54000",
"f  c #C75400",
"g  c #EC4700",
"h  c #FD5800",
"j  c #E65600",
"k  c #C96200",
"l  c #D86800",
"z  c #C07A00",
"x  c #DD7400",
"c  c #FB6800",
"v  c #E87907",
"b  c #CC722F",
"n  c #EA7A3B",
"m  c #A14746",
"M  c #986246",
"N  c #7A8E14",
"B  c #03817E",
"V  c #28A179",
"C  c #7AB645",
"Z  c #7AC147",
"A  c #6BC357",
"S  c #53C673",
"D  c #6EC666",
"F  c #898900",
"G  c #909000",
"H  c #BEBE00",
"J  c #B4B417",
"K  c #B1B123",
"L  c #A3A53B",
"P  c #BEBE30",
"I  c #C98A03",
"U  c #C79D00",
"Y  c #CC9300",
"T  c #D58D00",
"R  c #FB8700",
"E  c #E49800",
"W  c #FF9500",
"Q  c #E18F00",
"!  c #DBBD00",
"~  c #CCAB00",
"^  c #FFBA00",
"/  c #FBB300",
"(  c #EFA903",
")  c #B5C40E",
"_  c #ACC216",
"`  c #BCC926",
"'  c #ACD024",
"]  c #A9E53C",
"[  c #B1EB3B",
"{  c #C1C100",
"}  c #CACA00",
"|  c #CDC000",
" . c #C8D30B",
".. c #D4D400",
"X. c #DCDB00",
"o. c #D3D30C",
"O. c #C2C21E",
"+. c #C6D917",
"@. c #D2C908",
"#. c #E4DD00",
"$. c #F4D600",
"%. c #F5D900",
"&. c #FFDD03",
"*. c #FBDC17",
"=. c #D8EB15",
"-. c #D4F21D",
";. c #E2E201",
":. c #EDED00",
">. c #E9E808",
",. c #FBEB00",
"<. c #F9E500",
"1. c #F3F300",
"2. c #FEFE00",
"3. c #FDFC0C",
"4. c #F9F308",
"5. c #E4F611",
"6. c #FDFD1A",
"7. c #F9F617",
"8. c #EFF505",
"9. c #CFCF3D",
"0. c #D1D627",
"q. c #F8F829",
"w. c #ECEC3A",
"e. c #FDFD37",
"r. c #878747",
"t. c #A3A359",
"y. c #81817D",
"u. c #8A8A72",
"i. c #DF857D",
"p. c #85CC46",
"a. c #8AE257",
"s. c #A1E846",
"d. c #D5C645",
"f. c #CDC950",
"g. c #FFFF44",
"h. c #E1E15B",
"j. c #FFFF54",
"k. c #DCDC7A",
"l. c #CFCF62",
"z. c #D6EE7B",
"x. c #E5E563",
"c. c #FFFF68",
"v. c #FDFD7B",
"b. c #EEE473",
"n. c #009F9F",
"m. c #3C9292",
"M. c #19B89E",
"N. c #22AF8C",
"B. c #04A8A8",
"V. c #09B8B7",
"C. c #16A3A3",
"Z. c #3CA2A2",
"A. c #429E9E",
"S. c #7F8080",
"D. c #4AB283",
"F. c #3CC386",
"G. c #21C09F",
"H. c #34C893",
"J. c #19C3AA",
"K. c #0CC1B5",
"L. c #03C0BD",
"P. c #10C3B2",
"I. c #46C780",
"U. c #4BD286",
"Y. c #00C0C0",
"T. c #0BC2C2",
"R. c #1DC7C7",
"E. c #20C8C8",
"W. c #46D1D1",
"Q. c #71DCDC",
"!. c #808080",
"~. c #888888",
"^. c #979797",
"/. c #959580",
"(. c #B5B5B5",
"). c #B2B2A8",
"_. c #B6B694",
"`. c #DF8580",
"'. c #E18787",
"]. c #CECE93",
"[. c #E4E48C",
"{. c #FCFC84",
"}. c #F8F887",
"|. c #FFFF92",
" X c #C7C7AA",
".X c #DEDEA8",
"XX c #EDC4B8",
"oX c #F7F7A1",
"OX c #F7EFB0",
"+X c #9BE6E6",
"@X c #B9EDED",
"#X c #C5C5C5",
"$X c #DBDBDB",
"%X c #D2D2D2",
"&X c #D6D5C2",
"*X c #F0C4C4",
"=X c #FBFBCC",
"-X c #EDEDD3",
";X c #E1E1DF",
":X c #FAFAD8",
">X c #E5E5E3",
",X c #FFFFFF",
"<X c #FAFAF0",
"1X c #EFF1EC",
"2X c None",
/* pixels */
"2X2X2X2X2X2X2X2X2X2X2X2X2X2X2X2X2X2X2X2X2X2X2X2X2X2X2X2X2X2X2X2X2X2X2X2X2X2X2X2X",
"2X2X2X2X2X2X2X2X2X2X2X2X2X2X2X,X,X1XW.Y.Y.Y.Y.Y.Y.Y.Y.Y.2X2X2X2X2X2X2X2X2X2X2X2X",
"2X2X2X2X2X2X2X2X2X2X2X2X2X2X2X+XQ.Q.E.Y.Y.Y.Y.Y.Y.Y.Y.Y.Y.2X2X2X2X2X2X2X2X2X2X2X",
"2X2X2X2X2X2X2X2X2X2X2X2X2X2X@XW.Y.Y.Y.Y.Y.Y.Y.V.Y.Y.Y.Y.Y.Y.2X2X2X2X2X2X2X2X2X2X",
"2X2X2X2X2X2X2X2X2X2X2X2X2X2XR.T.Y.Y.K.V.V.V.V.V.V.K.K.K.Y.Y.2X2X2X2X2X2X2X2X2X2X",
"2X2X2X2X2X2X2X2X2XY.Y.Y.Y.Y.Y.Y.Y.K.S r.m m m M C Z Z A G.Y.2X2X2X2X2X2X2X2X2X2X",
"2X2X2X2X2X2X2X2XY.Y.Y.V.G.I.U.S I.S ' E h g r a ! .... .A D.2X2X2X2X2X2X2X2X2X2X",
"2X2X2X2X2X2X2XY.Y.Y.L.K.D 0.>.+.` ` >.4.<.| j a *.7.6.8. .L u.2X2X2X2X2X2X2X2X2X",
"2X2X2X2X2X2X2X2X2X2X2X[ [.[.-.z.OXOXe.2.4.,.c s OXOXv.3.1.o.K 2X2X2X2X2X2X2X2X2X",
"2X2X2X2X2X2X2X2X2X2X6.c.b.[.k.-X,X<X|.e.,./ v n :X,X=Xv.6.;.{ { 2X2X2X2X2X2X2X2X",
"2X2X2X2X2X2X2X2X2X2.q.=Xk.9.:X>X$X$X1X|.<.h v f.&X$X>X:Xg.;.} { J 2X2X2X2X2X2X2X",
"2X2X2X2X2X2X2X2XH ;.q.=Xk.d.-Xw % 2 #X|.4.&.b. X5 % w -Xg.2.:.} L y.2X2X2X2X2X2X",
"2X2X2X2X2X2X2X2X;.w.{.v.w.w.-X0   o (.|.4.2.{.#Xo   7 -Xg.2.1.} J L 2X2X2X2X2X2X",
"2X2X2X2X2X2X2X2X2.j.|.q.2.e.oXr.# ; ].}.q.w.v.].; # 8 oXe.2.2.} ) ) 2X2X2X2X2X2X",
"2X2X2X2X2X2X2X2X2.3.7.4.2.2.6.>.X.;.7.h. X Xx.q.;.;.>.6.3.2.<.| H ~ 2X2X2X2X2X2X",
"2X2X2X2X2X2X2X2X2.^ h h / 2.2.2.2.3.h..X;X#X].h.3.2.2.2.2./ c g T { 2X2X2X2X2X2X",
"2X2X2X2X2X2X2X2X2.W e e R 2.2.2.2.7.].%X>X(._.l.3.2.2.2.2.W e e l H 2X2X2X2X2X2X",
"2X2X2X2X2X2X2X2X2.W r r R ,.2.2.2.3.k. X)./.t...2.2.2.2.,.R r r x H 2X2X2X2X2X2X",
"2X2X2X2X2X2X2X2X2.<.^ ^ v x ,.2.2.2.q.9.P K o.1.2.2.2.,.x k T / @.! 2X2X2X2X2X2X",
"2X2X2X2X2X2X2X2X;.1.2.2.E f Q %.2.2.2.:.X.X.:.2.2.2.%.Q k I X.;.O.L 2X2X2X2X2X2X",
"2X2X2X2X2X2X2X2X{ #.2.2.X.U d E %.%.%.%.$.$.%.%.%.%.E d U X.:.} L y.2X2X2X2X2X2X",
"2X2X2X2X2X2X2X2X2X1.2.2.2.#.U f y y y y y y y y y y f U #.;.} { J 2X2X2X2X2X2X2X",
"2X2X2X2X2X2X2X2X2XU.a.5.2.2.;.Y b i.'.'.'.'.'.'.`.b Y #.2.;.) C 2X2X2X2X2X2X2X2X",
"2X2X2X2X2X2X2X2XU.H.I.-.2.2.2.;.d.XX*X*X*X*X*X*XXXd...1.1.+.Z P.Y.2X2X2X2X2X2X2X",
"2X2X2X2X2X2X2X2.5.+._ 2X2.2.2.1.( p u u i i i i i I ..1.} C M.K.V.K.2X2X2X2X2X2X",
"2X2X2X2X2X2X2X2.;...2X2X2X2.2.2.,.E I z z z z z z @.;.} > = 1 p.s.] ) 2X2X2X2X2X",
"2X2X2X2X2X2X2X4.O.L 2X2X2X2X[ -.1.2.#.............;.} , @   @ G ..1.{ , 2X2X2X2X",
"2X2X2X2X2X2X2X8.t.y.!.2X2X2XJ.Z ` 5.1.1.1.1.1.1.1. .N * .     X G 1.H -   2X2X2X",
"2X2X2X2X2X2X2X2Xu.!.!.S.Z.Y.L.G.F.S ' ..........+.C N.B $       F 1.H -     2X2X",
"2X2X2X2X2X2X2X2XS.S.!.S.Z.Y.Y.Y.B.4 : < > > > > < V Y.V.4 $     - F > @     2X2X",
"2X2X2X2X2X2X2X2XS.S.S.S.m.B.V.V.3 + . .     .   . 3 V.n.n.4 O .             2X2X",
"2X2X2X2X2X2X2X2XS.S.S.q 2 1 B.A.9 .             + 2 9 $ + 2 7 O             2X2X",
"2X2X2X2X2X2X2X2X2X!.!.!.0 2 C.2X2X2X2X            % & 5 0 S.^.7 o       2X2X2X2X",
"2X2X2X2X2X2X2X2X2X2X!.!.S.S.2X2X2X2X2X2X            % 0 ^.(.).!.&     2X2X2X2X2X",
"2X2X2X2X2X2X2X2X2X2X!.!.!.!.2X2X2X2X2X2X2X2X          o 0 ~.~.!.w 2X2X2X2X2X2X2X",
"2X2X2X2X2X2X2X2X2X2X2X2X2X2X2X2X2X2X2X2X2X2X2X2X2X2X2X2X2X2X2X2X2X2X2X2X2X2X2X2X",
"2X2X2X2X2X2X2X2X2X2X2X2X2X2X2X2X2X2X2X2X2X2X2X2X2X2X2X2X2X2X2X2X2X2X2X2X2X2X2X2X",
"2X2X2X2X2X2X2X2X2X2X2X2X2X2X2X2X2X2X2X2X2X2X2X2X2X2X2X2X2X2X2X2X2X2X2X2X2X2X2X2X",
"2X2X2X2X2X2X2X2X2X2X2X2X2X2X2X2X2X2X2X2X2X2X2X2X2X2X2X2X2X2X2X2X2X2X2X2X2X2X2X2X",
"2X2X2X2X2X2X2X2X2X2X2X2X2X2X2X2X2X2X2X2X2X2X2X2X2X2X2X2X2X2X2X2X2X2X2X2X2X2X2X2X"
};
