/* XPM */
static char *_[] = {
/* columns rows colors chars-per-pixel */
"64 64 255 2 ",
"   c #010101",
".  c #0B0101",
"X  c #090B0A",
"o  c #170202",
"O  c #131707",
"+  c #051514",
"@  c #191818",
"#  c #290000",
"$  c #380505",
"%  c #2E1616",
"&  c #2F3304",
"*  c #082928",
"=  c #033939",
"-  c #282828",
";  c #2F3A3A",
":  c #393939",
">  c #480202",
",  c #540404",
"<  c #5B0000",
"1  c #451C1C",
"2  c #6C0909",
"3  c #770000",
"4  c #513434",
"5  c #673131",
"6  c #36652F",
"7  c #4E4911",
"8  c #6E6E05",
"9  c #5F6A2C",
"0  c #024B4B",
"q  c #0F5353",
"w  c #2F4747",
"e  c #026464",
"r  c #057773",
"t  c gray27",
"y  c #4D4D4D",
"u  c #574949",
"i  c #565656",
"p  c #734B4B",
"a  c #675858",
"s  c #7B5854",
"d  c #576868",
"f  c #4D7272",
"g  c #427E7E",
"h  c #686868",
"j  c #6B7571",
"k  c #747474",
"l  c #7D7575",
"z  c #7C7C7C",
"x  c #860505",
"c  c #940101",
"v  c #9C0303",
"b  c #9A1818",
"n  c #A20000",
"m  c #AC0000",
"M  c #B50303",
"N  c #BF0000",
"B  c #B40B0B",
"V  c #BA0B09",
"C  c #BF1C00",
"Z  c #AD1212",
"A  c #A21E1E",
"S  c #B51313",
"D  c #B61717",
"F  c #BF2A00",
"G  c #B9240B",
"H  c #AC331A",
"J  c #8A2D2D",
"K  c #972828",
"L  c #873938",
"P  c #AC2424",
"I  c #A92C2C",
"U  c #B72D2B",
"Y  c #A53938",
"T  c #C10A00",
"R  c #C00805",
"E  c #C41801",
"W  c #C71C12",
"Q  c #C41818",
"!  c #FE0200",
"~  c #FC0A01",
"^  c #FC1201",
"/  c #C02A00",
"(  c #C92A00",
")  c #CA3800",
"_  c #F23401",
"`  c #C82626",
"'  c #CE3838",
"]  c #B84607",
"[  c #BA6C0F",
"{  c #A1513D",
"}  c #9B6425",
"|  c #C64D02",
" . c #D14700",
".. c #C95900",
"X. c #D35B06",
"o. c #E45202",
"O. c #FD5A00",
"+. c #D66703",
"@. c #D96700",
"#. c #C67200",
"$. c #C07E00",
"%. c #D37301",
"&. c #FD6600",
"*. c #F26F00",
"=. c #D3512C",
"-. c #994949",
";. c #91564C",
":. c #A64343",
">. c #B05352",
",. c #8E6464",
"<. c #8C6C68",
"1. c #91716B",
"2. c #847777",
"3. c #A67062",
"4. c #CF5151",
"5. c #FD5846",
"6. c #D26F6D",
"7. c #DD7777",
"8. c #528A38",
"9. c #269670",
"0. c #729257",
"q. c #7BB446",
"w. c #508371",
"e. c #5CB06C",
"r. c #7EC244",
"t. c #6BC257",
"y. c #51C376",
"u. c #75DB67",
"i. c #8B8F04",
"p. c #BBBB02",
"a. c #B3AD10",
"s. c #9C9830",
"d. c #B1B32E",
"f. c #C68800",
"g. c #CF8C0D",
"h. c #C79700",
"j. c #E28900",
"k. c #F19800",
"l. c #CEAF02",
"z. c #C6B804",
"x. c #E9A700",
"c. c #EAB501",
"v. c #E9A727",
"b. c #B4C813",
"n. c #91C534",
"m. c #A8D129",
"M. c #B0E538",
"N. c #C5C400",
"B. c #CBCB01",
"V. c #CAC908",
"C. c #D7C902",
"Z. c #D3D504",
"A. c #DCDC00",
"S. c #C7C71C",
"D. c #D9D718",
"F. c #EBCC05",
"G. c #FAC700",
"H. c #F5D700",
"J. c #FDD800",
"K. c #D3E816",
"L. c #E3E300",
"P. c #ECEC00",
"I. c #E9E907",
"U. c #FBE700",
"Y. c #EDF90C",
"T. c #F4F400",
"R. c #FDF401",
"E. c #FEFE00",
"W. c #F8FB0A",
"Q. c #E7E718",
"!. c #E9F910",
"~. c #FDFC13",
"^. c #FFFF1B",
"/. c #CDCD2F",
"(. c #DCDC26",
"). c #C6E923",
"_. c #EBEB2E",
"`. c #FBFB28",
"'. c #96934B",
"]. c #B7B74A",
"[. c #A9A957",
"{. c #ABA85B",
"}. c #878973",
"|. c #DAAF4F",
" X c #89D34A",
".X c #97E54E",
"XX c #88E159",
"oX c #A3E541",
"OX c #D6D54D",
"+X c #E7E74E",
"@X c #FCFB45",
"#X c #DBDB66",
"$X c #D3CE71",
"%X c #F6DA61",
"&X c #EBE569",
"*X c #FFFF66",
"=X c #FEFE77",
"-X c #018888",
";X c #029595",
":X c #1E9696",
">X c #378E89",
",X c #279A99",
"<X c #379896",
"1X c #2CB696",
"2X c #00A6A6",
"3X c #1BA5A5",
"4X c #09B6B3",
"5X c #05BABA",
"6X c #11BEB0",
"7X c #21A7A7",
"8X c #4FA18F",
"9X c #35C08A",
"0X c #29C097",
"qX c #3FCF90",
"wX c #18C4AB",
"eX c #07C1BA",
"rX c #25C8A3",
"tX c #41CB8A",
"yX c #00C0C0",
"uX c #0FC3C3",
"iX c #18C5C5",
"pX c #2FC8C8",
"aX c #5BD2D2",
"sX c #828282",
"dX c #8C8C8B",
"fX c #928A8A",
"gX c #969696",
"hX c #A88E8E",
"jX c #B6B68C",
"kX c #A4A4A4",
"lX c #ACACAC",
"zX c #B3A5A5",
"xX c #B3B9B9",
"cX c #ED9191",
"vX c #D8A19D",
"bX c #E9A7A7",
"nX c #F1B9AD",
"mX c #D3D393",
"MX c #FFFF87",
"NX c #EBEB97",
"BX c #CBCBB2",
"VX c #F9F9AF",
"CX c #8ED9D9",
"ZX c #85E0E0",
"AX c #C8C8C7",
"SX c #D3CFCF",
"DX c #D9D9D9",
"FX c #F7D2CD",
"GX c #EDEDCA",
"HX c #FCFCD8",
"JX c #E8EAEA",
"KX c #F9E4E4",
"LX c #FBFBE8",
"PX c #EAF0F0",
"IX c #FAFAF7",
/* pixels */
"N N N N N N N N N N N N N N N N N N N N N N N R N N N N N N N N N N N N N N N N N N N N N N N R R R N N N N N N N N N N N N N N ",
"N N N N N N N N N N N N N N N N N N N N N N R N R Q ` ` ` P A A A A A A A A A A A A A A A A A Z V N N N N N N N N N N N N N N N ",
"N N N N N N N N N N N N N N N N N N N N N N N N ` 6.cXcXvXhXj f f f f f f f f f f f f f f f f a K N N N N N N N N N N N N N N N ",
"N N N N N N N N N N N N N N N N N N N N N N R R 4.vXPXPXJXCXpX5X5X5X5X5X5X5X5X5X5X5X5X5X5X5X5X>XL B M N N N N N N N N N N N N N ",
"N N N N N N N N N N N N N N R R N N N N N N ` 4.vXxXZXZXZXaXiXyXyXyXyXyXyXyXeXeXyXyXyXyXyXyXyX3Xf p K N N N N N N N N N N N N N ",
"N N N N N N N N N N N N N N N R N N N N N N 4.nXDXaXiXiXiXuXyXyXyXyXyXyXyXyXeXeXyXyXyXyXyXyXyX5X4X<Xp M N N N N N N N N N N N N ",
"N N N N N N N N N N N N N N R R N N N N N N >.xXZXpXyXyXyXyXyX5XyXyXyXyXeXyXeXeXyXyXyXyXyXyXyXyXyX3Xp M N N N N N N N N N N N N ",
"N N N N N N N N N N N N N N N N N N N N N N -.8XpXuXyXyXyXyX5X5XyXyXyXyXyXyXeXeXyXyXyXyXyXyXyXyXyX3Xp M N N N N N N N N N N N N ",
"N N N N N N N N N N N N N Z K K K K K K K K a 3XyXyXyXyXeXwX0X0X1X0X0X0X0X1X1X<X<X<X<X<X<X7X5XyXyX3Xp M N N N N N N N N N N N N ",
"N N N N N N N N N N N N M J d g g g g g g g ,X4XyXyXyXyXeX9Xt.r.r.q.r.r.r.q.'.;.:.:.:.:.:.j 3XyXyX3Xp M N N N N N N N N N N N N ",
"N N N N N N N N N N N B A a 3X5X5X5X5X5XeXwXwXwXwXwXwXwXwXy.b.N.N.N.N.N.N.b.f._ ^ ~ ! ! ~ -.<X6X6X,Xp M N N N N N N N N N N N N ",
"N N N N N N N N N N B L d >X4XyXyXyXyXeXqXu.XXXXXXXXXXXXXXM.K.L.L.L.L.A.Z.N.h.%.o._ ! ! ~ =.q.e.8X8X-.M N N N N N N N N N N N N ",
"N N N N N N N N N N Z a ,X4X4X5X5X5X5XwXu.K.Y.Y.Y.Y.Y.Y.Y.Y.T.E.E.E.E.T.L.V.z.z.g._ ! ! ^ o.a.d.}.2.Y V N N N N N N N N N N N N ",
"N N N N N N N N N N B L d f f f f w.e.u.M.Y.E.E.E.E.E.E.E.E.E.E.E.E.P.I.(.#X#X#X|.=.~ _ &.j.l.d.jXzX3.Y D V N N N N N N N N N N ",
"N N N N N N N N N N N Z A A A A A ] g.K.!.E.E.E.E.E.E.E.E.E.E.E.E.T.A.V.#XGXHXHXnX5.^ &.G.F.N.OXNXDXzX,.Y V N N N N N N N N N N ",
"N N N N N N N N N N N N N N N E ) +.v.@X`.E.E.E.E.E.E.E.E.E.E.E.T.I.(.OXNXLXIXIXFXcX5.v.R.Q./.$XGXPXAXkX>.V R R N N N N N N N N ",
"N N N N N N N N N N N N N N N ) j.F.&XVX*X~.E.E.E.E.E.E.E.E.E.T.A.D.#XVXHXIXIXIXIXFXnX%X~.@XNXGXLXIXJXSX6.Q N N N N N N N N N N ",
"N N N N N N N N N N N N N V C X.F.@XVXLXMX^.E.E.E.E.E.E.E.E.E.P.Z./.NXIXIXJXJXDXDXPXLX=X^.*XHXIXPXJXDXSX6.U B N N N N N N N N N ",
"N N N N N N N N N N N N N F [ v.%XVXHXLXMX^.E.E.E.E.E.E.E.E.E.P.Z./.NXLXDXxXgXl dXAXLX=X^.*XHXJXAXkXsXh ,.;.I S N N N N N N N N ",
"N N N N N N N N N N N N N | h.OXVXIXIXHX=X^.E.E.E.E.E.E.E.E.E.P.Z./.NXLXAXdXi - 4 lXLX=X^.*XHXDXkXk : @ t k ;.D N N N N N N N N ",
"N N N N N N N N N N N N T ..l.+XVXLXVXMX@X~.E.E.E.E.E.E.E.E.E.P.Z./.NXLXAXdXi @ : lXLX=X^.*XHXDXkXj : O 7 '.} G N N N N N N N N ",
"N N N N N N N N N N N N T @.H.@XVXHX=X`.~.E.E.E.E.E.E.E.E.E.E.P.Z./.NXLXAXdXi @ : lXLX=X^.*XHXDXkXh : O 7 a.[ F N N N N N N N N ",
"N N N N N N N N N N N N T @.H.`.=XMX@XE.E.E.E.E.E.E.E.E.E.E.E.T.L.D.&XNXmX[.s.8 8 $XMX=X+XNXGXBX$X'.9 8 i.p.$.F N N N N N N N N ",
"N N N N N N N N N N N N T @.H.~.`.`.^.E.E.E.E.E.E.E.E.E.E.E.E.E.T.W.`.`._.Q.D.V.Z._.@X&XmXBXAXmXOXD.Z.N.N.z.$.F N N N N N N N N ",
"N N N N N N N N N N N N T @.H.E.E.E.E.E.E.E.E.E.R.J.G.G.G.J.R.E.E.E.E.E.E.E.E.E.W.Q.(.$XBXAXAXmX+X`.~.E.L.N.[ F N N N N N N N N ",
"N N N N N N N N N N N N T @.H.E.E.E.E.E.E.E.E.E.J.k.O.O.O.k.U.E.E.E.E.E.E.E.E.E.Q./.[.jXBXSXJXGXmX#X_.W.L.N.[ F N N N N N N N N ",
"N N N N N N N N N N N N T @.H.E.E.E.E.E.E.E.E.E.G.O.! ! ~ &.J.E.E.E.E.E.E.E.E.E.Q.[.sXgXxXSXPXJXSXmX+XW.L.N.$.F N N N N N N N N ",
"N N N N N N N N N N N N T @.H.E.E.E.E.E.E.E.E.E.G.O.! ! ~ &.J.E.E.E.E.E.E.E.E.E.Q.[.sXdXgXxXSXDXAXBX+XW.L.N.$.F N N N N N N N N ",
"N N N N N N N N N N N N T @.H.E.E.E.E.E.E.E.E.E.G.O.~ ~ ^ &.J.R.E.E.E.E.E.E.E.E.Q.[.}.sXsXgXxXAXBXmX+XW.L.N.$.F N N N N N N N N ",
"N N N N N N N N N N N N T @.H.E.E.E.E.E.E.E.E.E.J.k.&.O.o.*.j.c.U.E.E.E.E.E.E.E.Q.d.'.}.}.dXkXjXmX#X(.L.Z.N.$.F N N N N N N N N ",
"N N N N N N N N N N N N T @.H.E.E.E.E.E.E.E.E.E.R.U.H.c.h.#.) @.G.E.E.E.E.E.E.E.T.V.a.'.}.sXdX{./.Q.A.B.N.z.$.F N N N N N N N N ",
"N N N N N N N N N N N N N +.F.T.E.E.E.E.E.E.E.E.E.E.E.L.C.h.| ..j.G.U.E.E.E.E.E.T.L.V.d.[.[.[.].Q.T.A.N.a.d.[ G N N N N N N N N ",
"N N N N N N N N N N N N N ..l.A.T.E.E.E.E.E.E.E.E.E.E.T.P.C.h.#...@.c.R.E.E.E.E.E.T.P.Q.(.(.(.Q.W.T.A.z.d.'.{ D N N N N N N N N ",
"N N N N N N N N N N N N N ] f.z.P.E.E.E.E.E.E.E.E.E.E.E.E.P.Z.h.| ) j.H.H.H.H.H.H.H.H.H.H.H.H.H.H.F.V.a.s.<.-.D R R N N N N N N ",
"N N N N N N N N N N N N N C ] %.F.E.E.E.E.E.E.E.E.E.E.E.E.T.P.C.h.#.+.@.@.@.@.@.@.@.@.@.@.@.@.@.@.+.s.'.{ Y P V N N N N N N N N ",
"N N N N N N N N N N N N N N N  .x.R.R.E.E.E.E.E.E.E.E.E.E.E.E.P.C.h...E E W W W W W W W W W W W W U -.<.{ S N N N N N N N N N N ",
"N N N N N N N N N N N N N N R ( @.k.H.R.E.E.E.E.E.E.E.E.E.E.E.T.L.C.f...=.6.7.7.7.7.7.7.7.7.7.7.7.6.>.:.P M N N N N N N N N N N ",
"N N N N N N N N N N N N R R N T E  .x.R.E.E.E.E.E.E.E.E.E.E.E.E.E.P.C.z.$XFXKXKXKXKXKXKXKXKXKXKXKXFX6.S M N N N N N N N N N N N ",
"N N N N N N N N N N N N N N N Z J ;.'.M.).I.T.E.E.E.E.E.E.E.E.E.E.T.A.V.|.vXbXbXbXbXbXbXbXbXbXnXSXBX4.R N N N N N N N N N N N N ",
"N N N N N N N N N N N N N N N K d ,X1XtXr.b.A.T.E.E.E.E.E.E.E.E.E.T.A.z.g.' ' ' ' ' ' ' ' ' ' >.3.hXY V N N N N N N N N N N N N ",
"N N N N N N N N N N T E ) ) ) } >XyXyX6Xe.a.l.D.Q.I.T.E.E.E.E.E.E.T.L.B.f.) / / / / / / / / / H s a J c m N N N N N N N N N N N ",
"N N N N N N N N N N T X.k.x.x.d.9XyXyX4Xw.] [ s.].S.A.P.E.E.E.E.E.E.T.L.l.f.$.$.$.$.$.$.$.$.$.} 7 - % > 3 M R N N N N N N N N N ",
"N N N N N N N N N N E j.U.E.E.M.y.3X3X3Xa Z P ;.}.s.b.Z.T.E.E.E.E.E.E.E.L.B.N.N.N.N.N.N.p.p.a.8 &     . , c m m m N N N N N N N ",
"N N N N N N N N N N E j.U.E.E.D.'.a a a J B S I ;.0.t.m.Z.P.E.E.E.E.E.E.T.L.L.L.L.L.A.B.p.i.8 7 O     . # , < < 3 v N N N N N N ",
"N N N N N N R N N T ( j.U.R.R.c.| B B B V N M B L w.rXt.b.Z.Y.W.W.W.E.R.E.T.T.T.T.E.T.Z.p.8 & .         . o o o $ 3 M M M N N N ",
"N N N N N N R R E  .%.c.R.H.x.@.( N N N N N A L d ,X6X9Xt. X.X.X.XoX).L.L.L.L.L.L.L.A.m.q.6 O           - t y y 4 2 3 3 3 c M N ",
"N N N N R R N N ( j.H.U.R.x. .E T N N N N N L g 3X4X5XwXwXrXrXrXrXtX XV.B.B.B.B.B.B.b.t.1Xe +         X y gXkXkX2.4 o o # < n N ",
"N N N N N R N N ( %.c.c.c.@.E N N V S P b x u :XeXeXeXeX5X2X;X-X-X9.8.i.i.i.i.n.n.n.r.y.4X-X0 * + X - : j kXlXlXdX:     . > n N ",
"N N N N N N N N T (  . . .( T N N B Y ;.5 $ w ;XyXyXyXyX5X-X0 = = = & & & & 6 9.9X1X9XwX5X2X;Xe * @ y sXdXgXgXgXk ;     . > n N ",
"N N N N N N N N N N N N N N N N N S -.l y @ 0 -X2X2X2X2X;Xe @ o .           = r 2X5X5XyX5X4X2Xr = - k lXgXsXz k i -     . > n N ",
"N N N N N N N N N N N N N N N N N S -.l h y w q 0 0 0 0 0 - , , o           + = e ;X5XyX5X;Xe q w i z gXdXsXh t - X     . > n N ",
"N N N N N N N N N N N N N N N N N S -.2.2.z i - X X X X X , b x $ X . . .       * r 4X4X2Xr * - i z z sXz l y @   . . . o , n N ",
"N N N N N N N N N N N N N N N N N V P -.,.2.h y : : : 4 4 p >.>.s u 5 , # .     + 0 e e e q w y j sX8Xz h y - X o $ < < < x m N ",
"N N N N N N N N N N N N N N N N N N M S -.2.z k k k k k k fXzXzXlXhX:.v < o       X + + + ; h k z z z k y @ X . # 3 m m m M N N ",
"N N N N N N N N N N N N N N N N N N N V P -.,.2.sXsX8X8XsXgXkXlXlXhX:.M x > > > # o   @ - y k k h i i y 4 > > > < c N N N N N N ",
"N N N N N N N N N N N N N N N N N N N N B D Y <.8XsXsXsXsXsXdXdXdX1.Y M m c c c 3 # X : i j z h : @ @ @ , x c c v M N N N N N N ",
"N N N N N N N N N N N N N N N N N N N N N N P -.,.,.,.,.,.,.,.,.,.;.P V N N N N v < $ 5 ,.,.,.p 1 # # $ 3 m N N N N N N N N N N ",
"N N N N N N N N N N N N N N N N N N N N N N B P I I I I I I I I I P S N N N N N M c x b I I I A x 3 3 x v N N N N N N N N N N N ",
"N N N N N N N N N N N N N N N N N N N N N N N N N N N N N N N N N N N R N N N N N N N N N N N N N N N N N N N N N N N N N N N N ",
"N N N N N N N N N N N N N N N N N N N N N N N N N N N N N N N N N R R R N N N N N N N N N N N N R N N N N N N N N N N N N N N N ",
"N N N N N N N N N N N N N N N N N N N N N N N N N N N N N N N N N N N N N N N N N N N N N N N N R R N N N N N N N N N N N N N N ",
"N N N N N N N N N N N N N N N N N N N N N N N N N N N N N N N N N N N N N N N N N N N N N N N N N R N N N N N N N N N N N N N N ",
"N N N N N N N N N N N N N N N N N N N N N N N N N N N N N N N N N N N N N N N N N N N N N N N N N N N N N N N N N N N N N N N N ",
"N N N N N N N N N N N N N N N N N N N N N N N N N N N N N N N N N N N N N N N N N N N N N N N N N N N N N N N N N N N N N N N N "
};
