/* XPM */
static char *digit5[] = {
/* columns rows colors chars-per-pixel */
"40 60 97 2 ",
"   c #00001F",
".  c #000025",
"X  c #00002D",
"o  c #000036",
"O  c #00003B",
"+  c #000043",
"@  c #00004C",
"#  c #000054",
"$  c #000C52",
"%  c #00005C",
"&  c #000E5B",
"*  c #001059",
"=  c #000064",
"-  c #00006B",
";  c #000073",
":  c #00007B",
">  c #000083",
",  c #00008B",
"<  c #001C8D",
"1  c #000094",
"2  c #00009B",
"3  c #00089B",
"4  c #001691",
"5  c #001E96",
"6  c #00179A",
"7  c #002987",
"8  c #002389",
"9  c #002C8E",
"0  c #002492",
"q  c #0000A3",
"w  c #000BA2",
"e  c #0000AD",
"r  c #0000B4",
"t  c #0000BC",
"y  c #0044BD",
"u  c #0055B4",
"i  c #005CBA",
"p  c #0000C0",
"a  c #000DC3",
"s  c #0014C5",
"d  c #001CC6",
"f  c #0020C7",
"g  c #0024C9",
"h  c #002CCB",
"j  c #0035C2",
"k  c #003DC7",
"l  c #0033CC",
"z  c #003BCE",
"x  c #0041C5",
"c  c #004BC3",
"v  c #0052C0",
"b  c #0044D0",
"n  c #004CD3",
"m  c #0053D4",
"M  c #005ED7",
"N  c #0060D7",
"B  c #0064D8",
"V  c #006CDA",
"C  c #0074DC",
"Z  c #007ADE",
"A  c #0082DE",
"S  c #008CDC",
"D  c #0092DC",
"F  c #009BDE",
"G  c #0085E1",
"H  c #008AE2",
"J  c #0093E4",
"K  c #009BE6",
"L  c #009EE7",
"P  c #00A3E8",
"I  c #00A7E9",
"U  c #00AAEA",
"Y  c #00AFEB",
"T  c #00B1EC",
"R  c #00B5EC",
"E  c #00B8ED",
"W  c #00BEEF",
"Q  c #00C0EF",
"!  c #00C5F0",
"~  c #00C8F1",
"^  c #00CEF3",
"/  c #00D2F3",
"(  c #00D5F3",
")  c #00D3F4",
"_  c #00D6F5",
"`  c #00D9F6",
"'  c #00DFF7",
"]  c #00E0F7",
"[  c #00E2F8",
"{  c #00E5F8",
"}  c #00E8F9",
"|  c #00EFFB",
" . c #00F1FB",
".. c #00F2FC",
"X. c #00F7FD",
"o. c #00FAFD",
"O. c cyan",
/* pixels */
"p p p p p p p p p p p p p p p p p p p p p p p p p p p p p p p p p p p p p p p p ",
"p p p p p p p a a a a a a a a a a a a a a a a a a a a a a a a a a p p p p p p p ",
"p p p p p p d z M M M M M M M M M M M M M M M M M M M M M M M M l s p p p p p p ",
"p p p p p p l C Y E E E E E E E E E E E E E E E E E E E E E E U V h p p p p p p ",
"p p p p a s m K ' | X.O.O.O.O.O.O.O.O.O.O.O.O.O.O.O.O.O.O.X.| _ A j r r t p p p ",
"p p p d z B C G J R ' O.O.O.O.O.O.O.O.O.O.O.O.O.O.O.O.O.o._ T S u 8 : 1 r p p p ",
"p p p h C R L V b Z Q o.O.O.O.O.O.O.O.O.O.O.O.O.O.O.O.O.X.R C j 8 $ O ; q p p p ",
"p p p z J } Q C l N P ' } X.O.O.O.O.O.O.O.O.O.O.O.O.X.} ( S y 2 - o X = q p p p ",
"p p p z J } ` U A Z G H R ' O.O.O.O.O.O.O.O.O.O.O.O.` Y A u 7 = = % = , e p p p ",
"p p p z J } ..[ ^ K N z Z ~ O.O.O.O.O.O.O.O.O.O.O.o.W C j < $ X # > q e t p p p ",
"p p p z J } O.O.X.E V z V I / / / / / / / / / / / ^ D y 3 ; + X # > q e t p p p ",
"p p p z J } O.O.o._ U H A Z Z Z Z Z Z Z Z Z Z Z Z C u 7 = % = = = % = , e p p p ",
"p p p z J } O.O.O.X.} ) J m f f f f f f f f f f f d 4 $ . @ : 2 - o X = q p p p ",
"p p p z J } O.O.O.O.O.| K b p p p p p p p p p p p t 1 % o # ; , - + O ; q p p p ",
"p p p z J } O.O.O.O.O.| K b p p p p p p p p p p p t q , ; = % # % = : 1 r p p p ",
"p p p z J } O.O.O.O.O.| K b p p p p p p p p p p p t t r e ; O   # , r r t p p p ",
"p p p z J } O.O.O.O.O.| K b p p p p p p p p p p p t e 2 , - @ O % ; 1 q r p p p ",
"p p p z J } O.O.O.O.O.| K b p p p p p p p p p p p t 2 ; @ % - ; = # # > e p p p ",
"p p p z J } O.O.O.O.O.| K b p p p p p p p p p p p t , @   @ > q - o . = q p p p ",
"p p p z J } O.O.O.O.O.| K b p p p p p p p p p p p t 2 - + # - : = @ @ : e p p p ",
"p p p z J } O.O.O.O.O.| K b p p p p p p p p p p p t e 1 > - # + % ; , 2 r p p p ",
"p p p z J } O.O.O.o.X.] J z p p p p p p p p p p p t t t r : +   # , r r t p p p ",
"p p p z J } O.O.o.' W J N h p p p p p p p p p p p p p p t 1 - @ % - > 2 r p p p ",
"p p p z J } O.O.o.Q A b h s p p p p p p p p p p p p p p t e 2 > = @ + ; q p p p ",
"p p p z J } o. .[ P M d s s s s s s s s s s s s s s s s s a p r ; o . = q p p p ",
"p p p z J } ] E J G Z V V V V V V V V V V V V V V V V V B b d r 1 - % > e p p p ",
"p p p z J } ! G n V K Q ! ! ! ! ! ! ! ! ! ! ! ! ! ! ! ! E Z z t e 2 2 e t p p p ",
"p p p l A ~ U B l V E o.O.O.O.O.O.O.O.O.O.O.O.O.O.O.O.O.X.Y M f s p p p p p p p ",
"p p p d n Z G Z Z I _ o.O.O.O.O.O.O.O.O.O.O.O.O.O.O.O.O.o.^ L C b d p p p p p p ",
"p p p a d h M J ~ ]  .O.O.O.O.O.O.O.O.O.O.O.O.O.O.O.O.O.O.| ' ! Z l p p p p p p ",
"p p p p p p z G ~ ]  .O.O.O.O.O.O.O.O.O.O.O.O.O.O.O.O.O.O.| ' ! H m g s a p p p ",
"p p p p p p g n Z I _ o.O.O.O.O.O.O.O.O.O.O.O.O.O.O.O.O.o.^ L Z Z G C b s p p p ",
"p p p p p p a s g V E o.O.O.O.O.O.O.O.O.O.O.O.O.O.O.O.O.X.Y M l V T ! C g p p p ",
"p p p r q 2 q r t b G Q ! ! ! ! ! ! ! ! ! ! ! ! ! ! ! ! W J N n H / ] G h p p p ",
"p p p q > % ; 1 t g n V V V V V V V V V V V V V V V V V V Z H K W { ] G h p p p ",
"p p p 1 % . + : r p a s s s s s s s s s s s s s s s s s g N Y } ..o.] G h p p p ",
"p p p q - + @ - , 2 e t p p p p p p p p p p p p p p s h n H ~ O.O.O.] G h p p p ",
"p p p e 1 : - % @ ; 2 t p p p p p p p p p p p p p p l V L ! [ O.O.O.] G h p p p ",
"p p p t r e > @   @ > r t t p p p p p p p p p p p p n L } X.o.O.O.O.] G h p p p ",
"p p p r 2 > - # + # - > 2 e p p p p p p p p p p p p n U X.O.O.O.O.O.] G h p p p ",
"p p p q ; @ # - : - # @ ; 2 p p p p p p p p p p p p n U X.O.O.O.O.O.] G h p p p ",
"p p p 2 %   O ; q : +   # 1 p p p p p p p p p p p p n U X.O.O.O.O.O.] G h p p p ",
"p p p q : # # = ; - # # ; q p p p p p p p p p p p p n U X.O.O.O.O.O.] G h p p p ",
"p p p r q , ; # O # ; , 2 r p p p p p p p p p p p p n U X.O.O.O.O.O.] G h p p p ",
"p p p t r e > @   + : e r t p p p p p p p p p p p p n U X.O.O.O.O.O.] G h p p p ",
"p p p e 1 ; = % # % = ; , e p p p p p p p p p p p p n U X.O.O.O.O.O.] G h p p p ",
"p p p 2 - o @ - , ; @ o = 2 p p p p p p p p p p p p n U X.O.O.O.O.O.] G h p p p ",
"p p p 2 % . + ; 2 ; + . & 6 f f f f f f f f f f f g M L ` } X.O.O.O.] G h p p p ",
"p p p e > = % = = = % = 9 i Z Z Z Z Z Z Z Z Z Z Z Z Z G H T ' O.O.O.] G h p p p ",
"p p p t e q : @ X @ ; w v F / / / / / / / / / / / ^ L B z Z ! O.O.O.] G h p p p ",
"p p p t e q : @ X & 5 z Z ~ O.O.O.O.O.O.O.O.O.O.O.o.W C z V P ) { X.] G h p p p ",
"p p p e > = % = - 9 i H R ' O.O.O.O.O.O.O.O.O.O.O.O.` Y H G Z G T ] ] G h p p p ",
"p p p 2 % . + ; w c F ` } X.O.O.O.O.O.O.O.O.O.O.O.O.X.} _ K m l Z ~ ] G h p p p ",
"p p p 2 - o * 0 k Z Q o.O.O.O.O.O.O.O.O.O.O.O.O.O.O.O.O.X.R C b C I Y V g p p p ",
"p p p e 1 ; 9 i S R ' O.O.O.O.O.O.O.O.O.O.O.O.O.O.O.O.O.o._ T J G C M z s p p p ",
"p p p t r r x D ' | X.O.O.O.O.O.O.O.O.O.O.O.O.O.O.O.O.O.O.X.| ` J b s a p p p p ",
"p p p p p p l C Y E E E E E E E E E E E E E E E E E E E E E E U V h p p p p p p ",
"p p p p p p d z M M M M M M M M M M M M M M M M M M M M M M M M l s p p p p p p ",
"p p p p p p p a a a a a a a a a a a a a a a a a a a a a a a a a a p p p p p p p ",
"p p p p p p p p p p p p p p p p p p p p p p p p p p p p p p p p p p p p p p p p "
};
