/* XPM */
static char *digit7[] = {
/* columns rows colors chars-per-pixel */
"40 60 92 1 ",
"  c #00001F",
". c #000024",
"X c #00002D",
"o c #000034",
"O c #00003B",
"+ c #000043",
"@ c #00004B",
"# c #000053",
"$ c #000E55",
"% c #00005C",
"& c #000B5B",
"* c #001059",
"= c #000063",
"- c #00006B",
"; c #000074",
": c #00007C",
"> c #000084",
", c #00008C",
"< c #000093",
"1 c #00009B",
"2 c #000D9C",
"3 c #001695",
"4 c #001E94",
"5 c #00179A",
"6 c #002C8D",
"7 c #002492",
"8 c #0000A3",
"9 c #000BA2",
"0 c #0000AC",
"q c #0000B4",
"w c #0000BB",
"e c #004CBD",
"r c #0058B6",
"t c #0054BA",
"y c #005CBA",
"u c #0000C0",
"i c #000DC3",
"p c #0014C5",
"a c #001BC7",
"s c #0020C7",
"d c #0025C8",
"f c #002DCB",
"g c #0035C7",
"h c #003DC7",
"j c #0034CC",
"k c #003BCE",
"l c #0043C3",
"z c #004BC3",
"x c #0052C0",
"c c #0046D1",
"v c #004DD3",
"b c #0056D5",
"n c #005ED7",
"m c #0066D9",
"M c #0069DA",
"N c #0074DD",
"B c #007ADD",
"V c #0084DE",
"C c #008EDF",
"Z c #0095DC",
"A c #009BDE",
"S c #0086E1",
"D c #008AE2",
"F c #0090E3",
"G c #009DE7",
"H c #00A5E9",
"J c #00A7E9",
"K c #00AAEA",
"L c #00AFEB",
"P c #00B1EB",
"I c #00B1EC",
"U c #00B5EC",
"Y c #00B9ED",
"T c #00BEEF",
"R c #00C1EF",
"E c #00C3F0",
"W c #00C8F1",
"Q c #00CEF2",
"! c #00D2F3",
"~ c #00D3F4",
"^ c #00D7F5",
"/ c #00DBF5",
"( c #00DFF7",
") c #00E0F7",
"_ c #00E3F8",
"` c #00E5F8",
"' c #00EBFA",
"] c #00EFFB",
"[ c #00F2FC",
"{ c #00F6FD",
"} c #00FAFD",
"| c cyan",
/* pixels */
"uuuuuuuuuuuuuuuuuuuuuuuuuuuuuuuuuuuuuuuu",
"uuuuuuuiiiiiiiiiiiiiiiiiiiiiiiiiiuuuuuuu",
"uuuuuuakbnnnnnnnnnnnnnnnnnnnnnnbjpuuuuuu",
"uuuuuujNLYYYYYYYYYYYYYYYYYYYYYYKMfuuuuuu",
"uuuwqqlZ(]{||||||||||||||||||{]/Fcpiuuuu",
"uuu0<;6yCU(|||||||||||||||||}^IFSNnkpuuu",
"uuu1-O*7hBR}||||||||||||||||{UNcNHLMduuu",
"uuu1%.+;9zA/'{||||||||||||{'^GbjBW)Sfuuu",
"uuu0>=%=-6yDU(||||||||||||/LDSBSP))Sfuuu",
"uuuw08:@X&4kBW|||||||||||}TNkMH~`{)Sfuuu",
"uuuw08:@X@;9xA!!!!!!!!!!!QGmkBE|||)Sfuuu",
"uuu0>=%===%=6yBBBBBBBBBBBBBSDI(|||)Sfuuu",
"uuu1%.+;1;+.&5sssssssssssdbG/'{|||)Sfuuu",
"uuu1-o@-,;@o=1uuuuuuuuuuuuvK{|||||)Sfuuu",
"uuu0<;=%#%=;,0uuuuuuuuuuuuvK{|||||)Sfuuu",
"wuuwq0>@ +:0qwuuuuuuuuuuuuvK{|||||)Sfuuu",
"uuuq8,;#O#;,1quuuuuuuuuuuuvK{|||||)Sfuuu",
"uuu8:##=;-##;8uuuuuuuuuuuuvK{|||||)Sfuuu",
"uuu1% O;8:+ #<uuuuuuuuuuuuvK{|||||)Sfuuu",
"uuu8;@#-:-#@;1uuuuuuuuuuuuvK{|||||)Sfuuu",
"uuuq1>-#+#->10uuuuuuuuuuuuvK{|||||)Sfuuu",
"uuuwq0>@ +:0qwuuuuuuuuuuuuvG'{}|||)Sfuuu",
"uuu0<:-%@%-:<0uuuuuuuuuuuujMGE_|||)Sfuuu",
"uuu8-+@->-@O-1uuuuuuuuuuuupfvDW|||)Sfuuu",
"uuu<%.O;8:+ @>qwwwwqqwwwqqqwibH'[})Sfuuu",
"uuu8>%%=-=%#%=;<0q<::1w0,;>8wjMGT`)Sfuuu",
"uuuq8<;#o@;,-+O-80;+@:q1=O%,wpfvD!)Sfuuu",
"uuuwq0:@.@:1-O.%,<=Xo=1>#.+;8qwpnKENduuu",
"uuu0,-=%%%===%%%===%%===%%%=->8ijmNcpuuu",
"uuu1=X+;<;@X#:<=Oo=,>%X+-<;@X%<wpddpiuuu",
"uuu1=X+;<;@X#:<=Oo=,>%X+-<;@X%<wpddpiuuu",
"uuu0,-=%%%===%%%===%%===%%%=->8ijmNcpuuu",
"uuuwq0:@.@:1-O.%,<=Xo=1>#.+;8qwpnKENduuu",
"uuuq8<;#o@;,-+O-80;+@:q1=O%,wpfvD!)Sfuuu",
"uuu8>%%=-=%#%=;<0q<::1w0,;>8wjMGT`)Sfuuu",
"uuu<%.O;8:+ @>qqwwwqqwwwqqqwibH'[})Sfuuu",
"uuu8-+@->-@O-1uuuuuuuuuuuupfvDW|||)Sfuuu",
"uuu0<:-%@%-:<0uuuuuuuuuuuujMGE_|||)Sfuuu",
"uuuwq0>@ +:0qwuuuuuuuuuuuuvG'{}|||)Sfuuu",
"uuuq1>-#+#->1quuuuuuuuuuuuvK{|||||)Sfuuu",
"uuu8;@#-:-#@;1uuuuuuuuuuuuvK{|||||)Sfuuu",
"uuu1% O;8:+ #<uuuuuuuuuuuuvK{|||||)Sfuuu",
"uuu8:##=;-##;8uwuuuuuuuuuuvK{|||||)Sfuuu",
"uuuq8,;#O#;,1quuuuuuuuuuuuvK{|||||)Sfuuu",
"uuuwq0>@ +:0qwuuuuuuuuuuuuvK{|||||)Sfuuu",
"uuu0<;=%#%=;,0uuuuuuuuuuuuvK{|||||)Sfuuu",
"uuu1-o@-,;@o=1uuuuuuuuuuuuvK{|||||)Sfuuu",
"uuu1%.+;1;+.#>0qwwq00qwwq0lZ/'{|||)Sfuuu",
"uuu0>=%===%%%=-,0q<;;<q0,-6rVI(|||)Sfuuu",
"uuuw08:@X@;<-+o-10;O+:q<=o$4gBE|||)Sfuuu",
"uuuw08:@X@;<-+X%>,=oO=<:#X@;2eZ!`{)Sfuuu",
"uuu0>=%===%%%===%%===%%%===%=6rVP))Sfuuu",
"uuu1%.+;1;+.#>1-oX%<,%.O-1:@.&3jBW)Sfuuu",
"uuu1-o@-,;@o#:,=+O=>:%o+-,;@o#;2tZLMduuu",
"uuu0<;=%#%=-=%#%--=##=-=%#%=-=%&6tnkpuuu",
"uuuwqq>@ +:8;O #<1=.o-8>@ +:8;O.&2piuuuu",
"uuuuuw1-+=<q,%+;80:@#>q1-+%<q,%+-1uuuuuu",
"uuuuuw0<:<0w8,:<qq1>>8w0<:,8w8,:<0uuuuuu",
"uuuuuuwwqwwwwwqwwwwqqwwwwqwwwwwqwwuuuuuu",
"uuuuuuuuuwuuuuuuuwwwuuuuuuuuuuuuuuuuuuuu"
};
