/* XPM */
static char *digit2[] = {
/* columns rows colors chars-per-pixel */
"40 60 96 2 ",
"   c #00001F",
".  c #000025",
"X  c #00002D",
"o  c #000036",
"O  c #00003B",
"+  c #000043",
"@  c #00004C",
"#  c #000054",
"$  c #000C52",
"%  c #00005C",
"&  c #000E5B",
"*  c #001059",
"=  c #000064",
"-  c #00006B",
";  c #000073",
":  c #00007B",
">  c #000083",
",  c #00008B",
"<  c #001C8D",
"1  c #000094",
"2  c #00009B",
"3  c #00089B",
"4  c #001691",
"5  c #001E96",
"6  c #00179A",
"7  c #002987",
"8  c #002389",
"9  c #002C8E",
"0  c #002492",
"q  c #0000A3",
"w  c #000BA2",
"e  c #0000AD",
"r  c #0000B4",
"t  c #0000BC",
"y  c #0044BD",
"u  c #0055B4",
"i  c #005CBA",
"p  c #0000C0",
"a  c #000DC3",
"s  c #0014C5",
"d  c #001CC6",
"f  c #0020C7",
"g  c #0024C9",
"h  c #002CCB",
"j  c #0035C2",
"k  c #003DC7",
"l  c #0033CC",
"z  c #003BCE",
"x  c #0041C5",
"c  c #004BC3",
"v  c #0052C0",
"b  c #0044D0",
"n  c #004CD3",
"m  c #0053D4",
"M  c #005ED7",
"N  c #0060D7",
"B  c #0064D8",
"V  c #006CDA",
"C  c #0074DC",
"Z  c #007ADE",
"A  c #0082DE",
"S  c #008CDC",
"D  c #0092DC",
"F  c #009BDE",
"G  c #0085E1",
"H  c #008AE2",
"J  c #0093E4",
"K  c #009CE6",
"L  c #00A5E9",
"P  c #00AAEA",
"I  c #00AFEB",
"U  c #00B1EB",
"Y  c #00B1EC",
"T  c #00B5EC",
"R  c #00B9ED",
"E  c #00BEEF",
"W  c #00C1EF",
"Q  c #00C3F0",
"!  c #00C5F0",
"~  c #00C8F1",
"^  c #00CEF2",
"/  c #00D2F3",
"(  c #00D3F3",
")  c #00D3F4",
"_  c #00D7F5",
"`  c #00DBF5",
"'  c #00DFF7",
"]  c #00E0F7",
"[  c #00E3F8",
"{  c #00E6F8",
"}  c #00EBFA",
"|  c #00EFFB",
" . c #00F2FC",
".. c #00F6FD",
"X. c #00FAFD",
"o. c cyan",
/* pixels */
"p p p p p p p p p p p p p p p p p p p p p p p p p p p p p p p p p p p p p p p p ",
"p p p p p p p a a a a a a a a a a a a a a a a a a a a a a a a a a p p p p p p p ",
"p p p p p p d z M M M M M M M M M M M M M M M M M M M M M M M M l s p p p p p p ",
"p p p p p p l C I R R R R R R R R R R R R R R R R R R R R R R P V h p p p p p p ",
"p p p t r r x D ' | ..o.o.o.o.o.o.o.o.o.o.o.o.o.o.o.o.o.o...| ` J b s a p p p p ",
"p p p e 1 ; 9 i S T ' o.o.o.o.o.o.o.o.o.o.o.o.o.o.o.o.o.X._ Y J G C M z s p p p ",
"p p p 2 - o * 0 k Z W X.o.o.o.o.o.o.o.o.o.o.o.o.o.o.o.o...T C b C L I V f p p p ",
"p p p 2 % . + ; w c F ` } ..o.o.o.o.o.o.o.o.o.o.o.o...} _ K m l Z ~ ] G h p p p ",
"p p p e > = % = - 9 i H T ' o.o.o.o.o.o.o.o.o.o.o.o.` I H G Z G U ] ] G h p p p ",
"p p p r e q : @ X & 5 z Z ~ o.o.o.o.o.o.o.o.o.o.o.X.E C z V L ) { ..] G h p p p ",
"p p p r e q : @ X @ ; w v F / / / / / / / / / / / ^ K B z Z Q o.o.o.] G h p p p ",
"p p p e > = % = = = % = 9 i Z Z Z Z Z Z Z Z Z Z Z Z Z G H Y ' o.o.o.] G h p p p ",
"p p p 2 % . + ; 2 ; + . & 6 f f f f f f f f f f f g M K ` } ..o.o.o.] G h p p p ",
"p p p 2 - o @ - , ; @ o = 2 p p p p p p p p p p p p n P ..o.o.o.o.o.] G h p p p ",
"p p p e 1 ; = % # % = ; , e p p p p p p p p p p p p n P ..o.o.o.o.o.] G h p p p ",
"p p p t r e > @   + : e r r p p p p p p p p p p p p n P ..o.o.o.o.o.] G h p p p ",
"p p p r q , ; # O # ; , 2 r p p p p p p p p p p p p n P ..o.o.o.o.o.] G h p p p ",
"p p p q : # # = ; - # # ; q p p p p p p p p p p p p n P ..o.o.o.o.o.] G h p p p ",
"p p p 2 %   O ; q : +   # 1 p p p p p p p p p p p p n P ..o.o.o.o.o.] G h p p p ",
"p p p q ; @ # - : - # @ ; 2 p p p p p p p p p p p p n P ..o.o.o.o.o.] G h p p p ",
"p p p r 2 > - # + # - > 2 e p p p p p p p p p p p p n P ..o.o.o.o.o.] G h p p p ",
"p p p t r e > @   @ > r t t p p p p p p p p p p p p n K } ..X.o.o.o.] G h p p p ",
"p p p e 1 : - % @ ; 2 t p p p p p p p p p p p p p p l V K Q [ o.o.o.] G h p p p ",
"p p p q - + @ - , 2 e t p p p p p p p p p p p p p p s h n H ~ o.o.o.] G h p p p ",
"p p p 1 % . + : r p a s s s s s s s s s s s s s s s s s f B I }  .X.] G h p p p ",
"p p p q > % ; 1 r g n V V V V V V V V V V V V V V V V V V Z H K W { ] G h p p p ",
"p p p r q 2 q r t b G W ! ! ! ! ! ! ! ! ! ! ! ! ! ! ! ! E J B n H / ] G h p p p ",
"p p p p p p a s g V R X.o.o.o.o.o.o.o.o.o.o.o.o.o.o.o.o...I M l V Y ! C g p p p ",
"p p p p p p f n Z L _ X.o.o.o.o.o.o.o.o.o.o.o.o.o.o.o.o.X.^ K Z Z G C b s p p p ",
"p p p p p p z G ~ ]  .o.o.o.o.o.o.o.o.o.o.o.o.o.o.o.o.o.o.| ' ! H m g s a p p p ",
"p p p a d h M J ~ ]  .o.o.o.o.o.o.o.o.o.o.o.o.o.o.o.o.o.o.| ' Q Z l p p p p p p ",
"p p p d n Z G Z Z L _ X.o.o.o.o.o.o.o.o.o.o.o.o.o.o.o.o.X.^ K C b d p p p p p p ",
"p p p l A ~ P B l V R X.o.o.o.o.o.o.o.o.o.o.o.o.o.o.o.o...I M f s p p p p p p p ",
"p p p z J } ! G n V K W ! ! ! ! ! ! ! ! ! ! ! ! ! ! ! ! R Z z t e 2 2 e r p p p ",
"p p p z J } ] R J G Z V V V V V V V V V V V V V V V V V B b d r 1 - % > e p p p ",
"p p p z J } X. .[ L M d s s s s s s s s s s s s s s s s s a p r ; o . = q p p p ",
"p p p z J } o.o.X.W A b h s p p p p p p p p p p p p p p t e 2 > = @ + ; q p p p ",
"p p p z J } o.o.X.' E J B h p p p p p p p p p p p p p p r 1 - @ % - > 2 r p p p ",
"p p p z J } o.o.o.X...] J z p p p p p p p p p p p t t t r : +   # , r r t p p p ",
"p p p z J } o.o.o.o.o.| K b p p p p p p p p p p p t e 1 > - # + % ; , 2 r p p p ",
"p p p z J } o.o.o.o.o.| K b p p p p p p p p p p p t 2 - + # - : = @ @ : e p p p ",
"p p p z J } o.o.o.o.o.| K b p p p p p p p p p p p t , @   @ > q - o . = q p p p ",
"p p p z J } o.o.o.o.o.| K b p p p p p p p p p p p t 2 ; @ % - ; = # # > e p p p ",
"p p p z J } o.o.o.o.o.| K b p p p p p p p p p p p t e 2 , - @ O % ; 1 q r p p p ",
"p p p z J } o.o.o.o.o.| K b p p p p p p p p p p p t r r e ; O   # , r r t p p p ",
"p p p z J } o.o.o.o.o.| K b p p p p p p p p p p p t q , ; = % # % = : 1 r p p p ",
"p p p z J } o.o.o.o.o.| K b p p p p p p p p p p p t 1 % o # ; , - + O ; q p p p ",
"p p p z J } o.o.o...} ) J m f f f f f f f f f f f d 4 $ . @ : 2 - o X = q p p p ",
"p p p z J } o.o.X._ P H A Z Z Z Z Z Z Z Z Z Z Z Z C u 7 = % = = = % = , e p p p ",
"p p p z J } o.o...R V z V L / / / / / / / / / / / ^ D y 3 ; + X # > q e r p p p ",
"p p p z J }  .[ ^ K N z Z ~ o.o.o.o.o.o.o.o.o.o.o.X.E C j < $ X # > q e r p p p ",
"p p p z J } ` P A Z G H T ' o.o.o.o.o.o.o.o.o.o.o.o.` I A u 7 = = % = , e p p p ",
"p p p z J } W C l N L ' } ..o.o.o.o.o.o.o.o.o.o.o.o...} / S y 2 - o X = q p p p ",
"p p p h C T K V b Z W X.o.o.o.o.o.o.o.o.o.o.o.o.o.o.o.o...T C j 8 $ O ; q p p p ",
"p p p d z B C G J T ' o.o.o.o.o.o.o.o.o.o.o.o.o.o.o.o.o.X._ Y S u 8 : 1 r p p p ",
"p p p p a s m K ' | ..o.o.o.o.o.o.o.o.o.o.o.o.o.o.o.o.o.o...| _ A j r r t p p p ",
"p p p p p p l C I R R R R R R R R R R R R R R R R R R R R R R P V h p p p p p p ",
"p p p p p p d z M M M M M M M M M M M M M M M M M M M M M M M M l s p p p p p p ",
"p p p p p p p a a a a a a a a a a a a a a a a a a a a a a a a a a p p p p p p p ",
"p p p p p p p p p p p p p p p p p p p p p p p p p p p p p p p p p p p p p p p p "
};
