/* XPM */
static char *result[] = {
/* columns rows colors chars-per-pixel */
"64 64 14 1 ",
"  c #BF0000",
". c #B90C0C",
"X c #A03E3E",
"o c #9F4040",
"O c #9F4141",
"+ c #9D4444",
"@ c #9C4646",
"# c #9C4747",
"$ c #905F5F",
"% c #8F6060",
"& c #867474",
"* c #837979",
"= c #827A7A",
"- c #837A7A",
/* pixels */
"%ooooooooooooooooooo$%ooooooooooooooooooo$%oooooooooooooooooooo%",
"o                   XO                   XO                    o",
"o                   XO                   XO                    o",
"o                   XO                   XO                    o",
"o                   XO                   XO                    o",
"o                   XO                   XO                    o",
"o                   XO                   XO                    o",
"o                   XO                   XO                    o",
"o                   XO                   XO                    o",
"o                   XO                   XO                    o",
"o                   XO                   XO                    o",
"o                   XO                   XO                    o",
"o                   XO                   XO                    o",
"o                   XO                   XO                    o",
"o                   XO                   XO                    o",
"o                   XO                   XO                    o",
"o                   XO                   XO                    o",
"o                   XO                   XO                    o",
"o                   XO                   XO                    o",
"o                   XO                   XO                    o",
"o                   XO                   XO                    o",
"-&&&&&&&&&&&&&&&&&&&*=&&&&&&&&&&&&&&&&&&&*=&&&&&&&&&&&&&&&&&&&&-",
"@...................+#...................+#....................@",
"o                   XO                   XO                    o",
"o                   XO                   XO                    o",
"o                   XO                   XO                    o",
"o                   XO                   XO                    o",
"o                   XO                   XO                    o",
"o                   XO                   XO                    o",
"o                   XO                   XO                    o",
"o                   XO                   XO                    o",
"o                   XO                   XO                    o",
"o                   XO                   XO                    o",
"o                   XO                   XO                    o",
"o                   XO                   XO                    o",
"o                   XO                   XO                    o",
"o                   XO                   XO                    o",
"o                   XO                   XO                    o",
"o                   XO                   XO                    o",
"o                   XO                   XO                    o",
"o                   XO                   XO                    o",
"o                   XO                   XO                    o",
"-&&&&&&&&&&&&&&&&&&&*=&&&&&&&&&&&&&&&&&&&*=&&&&&&&&&&&&&&&&&&&&-",
"@...................+#...................+#....................@",
"o                   XO                   XO                    o",
"o                   XO                   XO                    o",
"o                   XO                   XO                    o",
"o                   XO                   XO                    o",
"o                   XO                   XO                    o",
"o                   XO                   XO                    o",
"o                   XO                   XO                    o",
"o                   XO                   XO                    o",
"o                   XO                   XO                    o",
"o                   XO                   XO                    o",
"o                   XO                   XO                    o",
"o                   XO                   XO                    o",
"o                   XO                   XO                    o",
"o                   XO                   XO                    o",
"o                   XO                   XO                    o",
"o                   XO                   XO                    o",
"o                   XO                   XO                    o",
"o                   XO                   XO                    o",
"o                   XO                   XO                    o",
"%ooooooooooooooooooo$%ooooooooooooooooooo$%oooooooooooooooooooo%"
};
