/* XPM */
static char *_[] = {
/* columns rows colors chars-per-pixel */
"64 64 232 2 ",
"   c #000000",
".  c #0C0000",
"X  c #000D00",
"o  c #130000",
"O  c #1C0000",
"+  c #130D00",
"@  c #061603",
"#  c #001C00",
"$  c #0A170A",
"%  c #1E1900",
"&  c #240000",
"*  c #2B0000",
"=  c #250A00",
"-  c #350000",
";  c #3B0200",
":  c #390B00",
">  c #2C1A00",
",  c #371803",
"<  c #002000",
"1  c #012B00",
"2  c #172600",
"3  c #003400",
"4  c #083800",
"5  c #1E2012",
"6  c #273527",
"7  c #420000",
"8  c #4D0000",
"9  c #580200",
"0  c #4B1500",
"q  c #571707",
"w  c #650000",
"e  c #6D0000",
"r  c #710000",
"t  c #7D0000",
"y  c #710C00",
"u  c #641600",
"i  c #7A1C00",
"p  c #582A00",
"a  c #712E00",
"s  c #643800",
"d  c #7B3E00",
"f  c #004200",
"g  c #054700",
"h  c #184100",
"j  c #015300",
"k  c #005A00",
"l  c #1C5A00",
"z  c #2A4600",
"x  c #295700",
"c  c #385700",
"v  c #006500",
"b  c #006C00",
"n  c #0E680A",
"m  c #1E6000",
"M  c #017300",
"N  c #017D00",
"B  c #0A7E00",
"V  c #147100",
"C  c #187218",
"Z  c #2F6700",
"A  c #247A00",
"S  c #3C7800",
"D  c #364436",
"F  c #484600",
"G  c #4C5A00",
"H  c #5B5A00",
"J  c #7B4300",
"K  c #724D00",
"L  c #6A5400",
"P  c #655A00",
"I  c #695F00",
"U  c #715400",
"Y  c #7C5900",
"T  c #5B6400",
"R  c #536D00",
"E  c #4D7200",
"W  c #427E00",
"Q  c #5A7800",
"!  c #746401",
"~  c #736807",
"^  c #657700",
"/  c #647800",
"(  c #6D7922",
")  c #795959",
"_  c #516251",
"`  c #676767",
"'  c #6A6A6A",
"]  c #6A7067",
"[  c #797979",
"{  c #830100",
"}  c #8A0600",
"|  c #940000",
" . c #9B0000",
".. c #831203",
"X. c #9E1C03",
"o. c #A40100",
"O. c #AB0000",
"+. c #A00D00",
"@. c #B50200",
"#. c #BF0000",
"$. c #B30C00",
"%. c #B80800",
"&. c #A51500",
"*. c #AC1400",
"=. c #A21D00",
"-. c #AA1B00",
";. c #B11200",
":. c #8B2400",
">. c #9A2400",
",. c #952A00",
"<. c #9E2A00",
"1. c #893500",
"2. c #873C00",
"3. c #943704",
"4. c #993200",
"5. c #933A00",
"6. c #A32400",
"7. c #A12800",
"8. c #9E3A38",
"9. c #8B4600",
"0. c #854C00",
"q. c #825000",
"w. c #8C532B",
"e. c #8C4949",
"r. c #917876",
"t. c #038900",
"y. c #019600",
"u. c #009C00",
"i. c #1A9900",
"p. c #298700",
"a. c #368400",
"s. c #3B8400",
"d. c #348B00",
"f. c #2B9400",
"g. c #239E00",
"h. c #01A400",
"j. c #00AC00",
"k. c #0DAD00",
"l. c #1CA300",
"z. c #13AC00",
"x. c #02B201",
"c. c #0BB400",
"v. c #02BC00",
"b. c #0CB90B",
"n. c #10B900",
"m. c #13B613",
"M. c #26A700",
"N. c #3DA800",
"B. c #35B600",
"V. c #34B80A",
"C. c #349434",
"Z. c #23AE23",
"A. c #2EAE2E",
"S. c #588800",
"D. c #4E9700",
"F. c #479F01",
"G. c #4B9A00",
"H. c #529100",
"J. c #43A500",
"K. c #41A800",
"L. c #45AA16",
"P. c #4EAA3C",
"I. c #00C000",
"U. c #09C700",
"Y. c #00CC00",
"T. c #13CD00",
"R. c #00D500",
"E. c #00DA00",
"W. c #0ADC07",
"Q. c #15DC00",
"!. c #18C618",
"~. c #19DB17",
"^. c #2AC600",
"/. c #26CC00",
"(. c #28C900",
"). c #23D103",
"_. c #00E400",
"`. c #00EB00",
"'. c #0DEC00",
"]. c #0BEA0B",
"[. c #14E400",
"{. c #11E800",
"}. c #02F400",
"|. c #09F200",
" X c #00FF00",
".X c #0BF30B",
"XX c #17E617",
"oX c #12ED12",
"OX c #1DE11D",
"+X c #27CA27",
"@X c #38C32B",
"#X c #25DB25",
"$X c #2AD52A",
"%X c #33CC33",
"&X c #3BC43B",
"*X c #33D433",
"=X c #5A9E46",
"-X c #5A955A",
";X c #74835B",
":X c #48AF48",
">X c #49B449",
",X c #52AB52",
"<X c #659A65",
"1X c #6C946C",
"2X c #738D73",
"3X c #7A967A",
"4X c #6CAE6C",
"5X c #6ABE6A",
"6X c #49D049",
"7X c #75D475",
"8X c #61E061",
"9X c #968C8C",
"0X c #979E97",
"qX c #80B380",
"wX c #88B388",
"eX c #9BA89B",
"rX c #A4A4A4",
"tX c #B4ADAD",
"yX c #C1B9B9",
"uX c #9FC19F",
"iX c #80E080",
"pX c #A4CDA4",
"aX c #BACCBA",
"sX c #ABEAAB",
"dX c #C3C3C3",
"fX c #C9D7C9",
"gX c #D5D6D5",
"hX c #D6DCD6",
"jX c #DBDBDB",
"kX c #CDE9CD",
"lX c #E9E9E9",
"zX c #F2F5F2",
/* pixels */
"#.#.#.#.#.#.#.#.#.#.#.#.#.#.#.#.#.#.#.#.#.#.#.#.#.#.#.#.#.#.#.#.#.#.#.#.#.#.#.#.#.#.#.#.#.#.#.#.#.#.#.#.#.#.#.#.#.#.#.#.#.#.#.#.",
"#.#.#.#.#.#.#.#.#.#.#.#.#.#.#.#.#.#.#.#.#.#.#.#.#.#.#.#.#.#.#.#.#.#.#.#.#.#.#.#.#.#.#.#.#.#.#.#.#.#.#.#.#.#.#.#.#.#.#.#.#.#.#.#.",
"#.#.#.#.#.#.#.#.#.#.#.#.#.#.#.#.#.#.#.#.#.#.#.#.#.#.#.#.#.#.#.#.#.#.#.#.#.#.#.#.#.#.#.#.#.#.#.#.#.#.#.#.#.#.#.#.#.#.#.#.#.#.#.#.",
"#.#.#.#.#.#.#.#.#.#.#.#.#.#.#.#.#.#.#.#.#.#.#.#.#.#.#.#.#.%.$.;.;.;.;.;.;.;.%.#.#.#.#.#.#.#.#.#.#.#.#.#.#.#.#.#.#.#.#.#.#.#.#.#.",
"#.#.#.#.#.#.#.#.#.#.#.#.#.#.#.#.#.#.#.#.#.#.#.#.#.#.#.#.%.4.! ^ ^ ^ ^ ^ ^ ^ 0.-.#.#.#.#.#.#.#.#.#.#.#.#.#.#.#.#.#.#.#.#.#.#.#.#.",
"#.#.#.#.#.#.#.#.#.#.#.#.#.#.#.#.#.#.#.#.#.#.#.#.#.#.#.#.%.Y ^.[.[.[.[.[.[.[.D.4.#.#.#.#.#.#.#.#.#.#.#.#.#.#.#.#.#.#.#.#.#.#.#.#.",
"#.#.#.#.#.#.#.#.#.#.#.#.#.#.#.#.#.#.#.%.7.0.Y Y Y Y Y Y Y G.[. X X X X X X X^./ Y Y Y Y Y Y Y Y Y 0.6.#.#.#.#.#.#.#.#.#.#.#.#.#.",
"#.#.#.#.#.#.#.#.#.#.#.#.#.#.#.#.#.#.#.$.Y B.^.^.^.^.^.^.(.Q.}. X X X X X X X'.).^.^.^.^.^.^.^.^.^.K.q.%.#.#.#.#.#.#.#.#.#.#.#.#.",
"#.#.#.#.#.#.#.#.#.#.#.#.#.#.#.#.#.%.6.9.D.'. X X X X X X X X X X X X X X X X X X X X X X X X X X XQ.S.5.-.%.#.#.#.#.#.#.#.#.#.#.",
"#.#.#.#.#.#.#.#.#.#.#.#.#.#.#.#.#.-.! K.).}. X X X X X X X X X X X X X X X X X X X X X X X X X X X|./.F.Y ;.#.#.#.#.#.#.#.#.#.#.",
"#.#.#.#.#.#.#.#.#.#.#.#.#.#.#.%.;.5.J.|. X X X X X X X X X X X X X X X X X X X X X X X X X X X X X X X'.H.4.;.%.#.#.#.#.#.#.#.#.",
"#.#.#.#.#.#.#.#.#.#.#.#.#.#.#.6.! G./. X X X X X X X X X X X X X X X X X X X X X X X X X X X X X X X X}.^.H.Y -.#.#.#.#.#.#.#.#.",
"#.#.#.#.#.#.#.#.#.#.#.#.#.#.#.9.N.|.}. X X X X X X X X X X X X X X X X X X X X X X X X X X X X X X X X X|.'.G.4.#.#.#.#.#.#.#.#.",
"#.#.#.#.#.#.#.#.#.#.#.#.#.#.#.9.B. X X X X X X X X X XOX%X%X%X#X.X X X X X X X X X X X X X X X.X#X%X%X%XOX.XK.5.#.#.#.#.#.#.#.#.",
"#.#.#.#.#.#.#.#.#.#.#.#.#.#.#.9.B. X X X X X X X X X.X&X<X1X1X>XOX X X X X X X X X X X X X X XOX>X1X1X<X&X.XK.5.#.#.#.#.#.#.#.#.",
"#.#.#.#.#.#.#.#.#.#.#.#.#.-.5./ /. X X X X X X X.XXX*X5XeXrXrXqX6XOX.X X X X X X X X X X XoXOX6XqXrXrXeX5X*XL.~ 5.-.#.#.#.#.#.#.",
"#.#.#.#.#.#.#.#.#.#.#.#.%.0.G./.'. X X X X X X XoX&X4XuXgXjXjXaXqX>X#X}. X X X X X X X X X#X>XqXaXjXjXgXuX4XP.V.H.5.#.#.#.#.#.#.",
"#.#.#.#.#.#.#.#.#.#.#.*.<.Q Q. X X X X X X X X XXX>X3XaXzXlXjXyX9X;X@X X X X X X X X X X X$X-XeXhXzXlXgXtXr.=X~.).^ <.7.6.*.%.#.",
"#.#.#.#.#.#.#.#.#.#.$.q.H.^.'. X X X X X X X X X].+X:XpXlXdX[ ) e.w.L.}. X X X X X X X X X~.A.5XkXlXrX' e.8.( ).{.B.D.D.H.Y *.#.",
"#.#.#.#.#.#.#.#.#.#.-.S.[.}. X X X X X X X X X X}.R.!.iXkX0X6 , ..3.F.}. X X X X X X X X X_.Y.6XsXfX] 5 q X.! /. X}.}.}.'.H.6.#.",
"#.#.#.#.#.#.#.#.#.#.-.S.'. X X X X X X X X X X X}.`.W.6X7X,XC l G R B.}. X X X X X X X X X}._.#X8X7XC.n Z Q K.[. X X X X}.D.7.#.",
"#.#.#.#.#.#.#.#.#.#.-.S.'. X X X X X X X X X X X X X}.W.!.b.x.j.k.n.W. X X X X X X X X X X X X].~.!.b.x.U.Q.'.}. X X X X}.D.<.#.",
"#.#.#.#.#.#.#.#.$.,.U N.|. X X X X X X X X X X X X X X`.E.R.R.R.R.E.`. X X X X X X X X X X X X}._.R.R.E.`. X X X X X X X}.B.I J ",
"#.#.#.#.#.#.#.#.>.T g.T.}. X X X X X X X X X X X X X X X}.}.}.}.}.}. X X X X X X X X X X X X X X}.}.}.}.}. X X X X X X X XT.M.f.",
"#.#.#.#.#.#.#.#.,.W I.E.`.}. X X X X X X X X X X X X X X X X X X X X X X X X X X X X X X X X X X X X X X X X X X X X X X X_.Y.I.",
"#.#.#.#.#.#.#.#.,.W I.Y.R._. X X X X X X X X X X X X X X X X X X X X X X X X X X X X X X X X X X X X X X X X X X X X X X X_.Y.I.",
"#.#.#.#.#.#.#.#.,.W v.I.I.E.}. X X X X X X X X X X X X X X X X X X X X X X X X X X X X X X X X X X X X X X X X X X X X X}.W.n.z.",
"#.#.#.#.#.#.#.#.,.W v.I.I.E.}. X X X X X X X X X X X X X X X X X X X X X X X X X X X X X X X X X X X X X X X X X X X X`.E.M.R P ",
"#.#.#.#.#.#.#.#.,.W v.I.I.R.}. X X X X X X X X X X X X X X X X X X X X X X X X X X X X X X X X X X X X X X X X X X X}.E.v.E ,.$.",
"#.#.#.#.#.#.#.#.,.W v.I.I.Y.E._._._._._._._.`. X X X X X X X X X X X X X X XoX$X%X%X%X%X%XOX.X X X X X X X X X X X`.E.j.M F +.#.",
"#.#.#.#.#.#.#.#.,.W v.I.I.I.Y.Y.Y.Y.Y.Y.Y.Y.E.}. X X X X X X X X X X X X X X#X,X1X1X1X1X<X>XoX X X X X X X X X X}.E.v.b 1 0 o.#.",
"#.#.#.#.#.#.#.#.=.P d.l.v.I.I.I.I.c.l.f.l.v.Y._.}. X X X X X X X X X X XoX#X6XwXrXrXrXrXeX5X*XOX].}.}. X X X X}.R.j.N h : e O.#.",
"#.#.#.#.#.#.#.#.$.>.J W c.I.I.I.I.z.R J E c.I.Y.E.`. X X X X X X X X X X$X,XwXaXjXjXjXjXhXpX4X:X!.E.`. X X X`.E.j.b 4 0 {  .@.#.",
"#.#.#.#.#.#.#.#.#.#.*.L f.z.v.I.I.l.K *.P z.I.I.Y._.}.}.}. X X X X X X.X&X2X0XdXgXgXgXgXgXtX9X-XZ.Y.E.}.}.}._.Y.y.h * r @.#.#.#.",
"#.#.#.#.#.#.#.#.#.#.%.,.K W z.I.I.l.K *.P z.I.I.I.R.E.E.E.`. X X X X X.X&X2X[ ' ` ` ` ` ` ' [ -XZ.I.Y.E.E.E.R.I.i.F t | @.#.#.#.",
"#.#.#.#.#.#.#.#.#.#.#.%.$.L l.v.c.f.K *.P z.I.I.I.I.I.I.I.E.}. X X X X.X&X1X_ 6 $ $ $ $ $ D ] -XZ.I.I.I.I.I.I.I.f.J @.@.#.#.#.#.",
"#.#.#.#.#.#.#.#.#.#.#.#.%.K l.l.W L ,.*.P z.I.I.I.I.I.I.I.E.}. X X X X X~.&XC.n k k k k k C C.A.m.I.I.I.I.I.I.I.f.J #.#.#.#.#.#.",
"#.#.#.#.#.#.#.#.#.#.#.#.%.K l.d.J *.%.$.P z.I.I.v.v.v.v.I.E.}. X X X X X X.XW.v.j.j.j.j.j.x.b.b.v.v.v.I.I.I.I.I.f.J #.#.#.#.#.#.",
"#.#.#.#.#.#.#.#.#.#.#.#.%.K l.d.1.#.#.$.P z.I.I.c.f.s.l.v.R._.`.`.`.`.`.`.`.E.Y.I.I.v.g.s.W W W W d.l.v.I.I.I.I.l.R 2.=.%.#.#.#.",
"#.#.#.#.#.#.#.#.#.#.#.#.%.K l.d.1.#.#.$.P z.v.v.g.P 2.W c.I.Y.Y.Y.Y.Y.Y.Y.Y.Y.I.I.I.k.R 1.,.,.,.,.J s.v.I.I.I.I.c.l.s.J $.#.#.#.",
"#.#.#.#.#.#.#.#.#.#.#.#.%.K l.d.1.%.&.1.E c.x.u.A s ..F t.y.y.y.y.u.j.v.I.I.I.I.I.I.k.G } | | | | i c y.j.v.I.I.I.I.z.P $.#.#.#.",
"#.#.#.#.#.#.#.#.#.#.#.#.%.K l.d.1.*.K W g.v.y.k 4 > : 2 4 f f f f j t.v.I.I.I.I.I.I.j.x : 7 7 7 7 : 2 g N x.I.I.I.I.z.P $.#.#.#.",
"#.#.#.#.#.#.#.#.#.#.#.#.%.K l.d.1.=.E c.c.z.V 2 .                 # M v.I.I.I.I.v.x.u.j X             X k j.I.I.I.I.z.H +.@.#.#.",
"#.#.#.#.#.#.#.#.#.#.#.#.%.K l.d.1.=.E c.f.T s u 8 &               # M v.I.I.I.I.j.N j 1               X k j.I.I.I.I.k.x 9 { O.#.",
"#.#.#.#.#.#.#.#.#.#.#.#.%.K i.a.1.=.E z.R X.$.@.} 7 .             # b x.v.v.I.I.u.g X                 X k j.I.I.v.v.h.j + 8  .@.",
"#.#.#.#.#.#.#.#.#.#.#.#.%.a m c :.=.E z.T *.#.#.o.r 7 &           X f M y.v.I.I.y.f                   X k j.I.I.j.t.v 3 X * 9 r ",
"#.#.#.#.#.#.#.#.#.#.#.#.@.y % , } =.E z.T *.#.#.@.O.| 8 .           X 1 b j.I.I.y.f                   X k j.I.I.u.j # X   . O O ",
"#.#.#.#.#.#.#.#.#.#.#.#.@.r O & w i S k.W J :.} } } t 7 .             X k j.I.I.y.f                   X f N u.x.y.f             ",
"#.#.#.#.#.#.#.#.#.#.#.#.@.r O . & > V c.l.d.c , - - - O               X k j.I.I.y.f                     # 3 v h.y.f             ",
"#.#.#.#.#.#.#.#.#.#.#.#.@.t - O O % m i.z.v.B 2 O O O .               X k j.x.j.N 3                         f y.y.f             ",
"#.#.#.#.#.#.#.#.#.#.#.#.#. .t r r y a L s.c.A p r r w - .             X k j.u.v 3 #                         f y.y.f             ",
"#.#.#.#.#.#.#.#.#.#.#.#.#.#.@.@.@.@.%.*.P z.S ,.@.@.o.9 .             X k j.t.1                             f y.y.f             ",
"#.#.#.#.#.#.#.#.#.#.#.#.#.#.#.#.#.#.#.$.P z.W ,.#.#.O.9 .             X k j.N 1                             f y.y.f             ",
"#.#.#.#.#.#.#.#.#.#.#.#.#.#.#.#.#.#.#.$.P z.W ,.#.#.O.9 .             X k j.N 1                             f y.y.f             ",
"#.#.#.#.#.#.#.#.#.#.#.#.#.#.#.#.#.#.#.$.s V x u t t r ; .             X k j.y.k 3 #                         1 v v 1       O - 7 ",
"#.#.#.#.#.#.#.#.#.#.#.#.#.#.#.#.#.#.#.@.u 2 @ = * * & o               X k j.x.u.M 3                         X < < X       ; t | ",
"#.#.#.#.#.#.#.#.#.#.#.#.#.#.#.#.#.#.#.@.t ; * * * * * * * * * * * * * = z p.l.c.y.f                         . & * * * * * w o.#.",
"#.#.#.#.#.#.#.#.#.#.#.#.#.#.#.#.#.#.#.@.o.{ t t t t t t t t t t t t t t i d R l.y.f                         * w t t t t t | @.#.",
"#.#.#.#.#.#.#.#.#.#.#.#.#.#.#.#.#.#.#.#.#.#.#.#.#.#.#.#.#.#.#.#.#.#.#.#.#.#.J f.y.g o o o o o o o o o o o o 8 | #.#.#.#.#.#.#.#.",
"#.#.#.#.#.#.#.#.#.#.#.#.#.#.#.#.#.#.#.#.#.#.#.#.#.#.#.#.#.#.#.#.#.#.#.#.#.#.J f.i.F w w w w w w w w w w w w { O.#.#.#.#.#.#.#.#.",
"#.#.#.#.#.#.#.#.#.#.#.#.#.#.#.#.#.#.#.#.#.#.#.#.#.#.#.#.#.#.#.#.#.#.#.#.#.#.d f.f.d @.@.@.@.@.@.@.@.@.@.@.@.@.@.#.#.#.#.#.#.#.#.",
"#.#.#.#.#.#.#.#.#.#.#.#.#.#.#.#.#.#.#.#.#.#.#.#.#.#.#.#.#.#.#.#.#.#.#.#.#.#.>.P P >.#.#.#.#.#.#.#.#.#.#.#.#.#.#.#.#.#.#.#.#.#.#.",
"#.#.#.#.#.#.#.#.#.#.#.#.#.#.#.#.#.#.#.#.#.#.#.#.#.#.#.#.#.#.#.#.#.#.#.#.#.#.%.&.&.%.#.#.#.#.#.#.#.#.#.#.#.#.#.#.#.#.#.#.#.#.#.#.",
"#.#.#.#.#.#.#.#.#.#.#.#.#.#.#.#.#.#.#.#.#.#.#.#.#.#.#.#.#.#.#.#.#.#.#.#.#.#.#.#.#.#.#.#.#.#.#.#.#.#.#.#.#.#.#.#.#.#.#.#.#.#.#.#."
};
