/* XPM */
static char *monster_up3[] = {
/* columns rows colors chars-per-pixel */
"64 64 164 2 ",
"   c #000100",
".  c #0C0000",
"X  c #000B00",
"o  c #130000",
"O  c #1C0000",
"+  c #001200",
"@  c #0C1200",
"#  c #001C00",
"$  c #230000",
"%  c #2B0000",
"&  c #360200",
"*  c #3B0000",
"=  c #3A0C00",
"-  c #231E00",
";  c #3B1300",
":  c #002400",
">  c #002B00",
",  c #003600",
"<  c #013C00",
"1  c #420000",
"2  c #4E0000",
"3  c #540000",
"4  c #5C0000",
"5  c #501300",
"6  c #650000",
"7  c #6D0000",
"8  c #740000",
"9  c #7D0000",
"0  c #4D2000",
"q  c #004200",
"w  c #004E00",
"e  c #0B4E00",
"r  c #1F4E00",
"t  c #005400",
"y  c #005D00",
"u  c #2A4200",
"i  c #274E00",
"p  c #3C4E00",
"a  c #006500",
"s  c #006C00",
"d  c #1E6600",
"f  c #007400",
"g  c #007E00",
"h  c #2A6600",
"j  c #4F4600",
"k  c #514E00",
"l  c #584E00",
"z  c #4D5200",
"x  c #614200",
"c  c #6E4E00",
"v  c #7B4300",
"b  c #724D00",
"n  c #675700",
"m  c #6B5400",
"M  c #645A00",
"N  c #7E5600",
"B  c #715800",
"V  c #7C5900",
"C  c #456600",
"Z  c #506600",
"A  c #5A6500",
"S  c #536C00",
"D  c #4C7300",
"F  c #427D00",
"G  c #5F7F00",
"H  c #6B6200",
"J  c #746200",
"K  c #657700",
"L  c #627C00",
"P  c #830200",
"I  c #8C0000",
"U  c #940000",
"Y  c #9A0000",
"T  c #851300",
"R  c #981400",
"E  c #A30000",
"W  c #AB0100",
"Q  c #A10800",
"!  c #AF0F00",
"~  c #B20100",
"^  c #BF0000",
"/  c #B40B00",
"(  c #B80800",
")  c #A41600",
"_  c #AB1300",
"`  c #A21D00",
"'  c #AA1C00",
"]  c #B11200",
"[  c #8F2F00",
"{  c #9C2300",
"}  c #942B00",
"|  c #893600",
" . c #843A00",
".. c #963500",
"X. c #993100",
"o. c #933A00",
"O. c #A42300",
"+. c #A02900",
"@. c #8C4300",
"#. c #854C00",
"$. c #894800",
"%. c #835000",
"&. c #078400",
"*. c #0F8600",
"=. c #008A00",
"-. c #009300",
";. c #0E9600",
":. c #009C00",
">. c #3B8400",
",. c #338C00",
"<. c #209600",
"1. c #2C9300",
"2. c #249B00",
"3. c #00A200",
"4. c #09A200",
"5. c #00AC00",
"6. c #14A200",
"7. c #1CA300",
"8. c #13AC00",
"9. c #01B300",
"0. c #0CB300",
"q. c #03BC00",
"w. c #1EB700",
"e. c #29A300",
"r. c #3EAC00",
"t. c #2FB900",
"y. c #36B700",
"u. c #39B300",
"i. c #5A8600",
"p. c #588800",
"a. c #4E9600",
"s. c #479F00",
"d. c #4B9B00",
"f. c #519200",
"g. c #43A500",
"h. c #41A800",
"j. c #00C000",
"k. c #00CC00",
"l. c #1ECE00",
"z. c #00D500",
"x. c #00DA00",
"c. c #12D700",
"v. c #1FD600",
"b. c #17DF00",
"n. c #1ADB00",
"m. c #2AC700",
"M. c #25CC00",
"N. c #22D100",
"B. c #00E000",
"V. c #00E600",
"C. c #00E900",
"Z. c #00EE00",
"A. c #0FEA00",
"S. c #0BEF00",
"D. c #0DED00",
"F. c #15E200",
"G. c #13E500",
"H. c #00F100",
"J. c #00F600",
"K. c #06F600",
"L. c #0AF200",
"P. c #08F400",
"I. c #04F900",
"U. c green",
/* pixels */
"^ ^ ^ ^ ^ ^ ^ ^ ^ ^ ^ ^ ^ ^ ^ ^ ^ ^ ^ ^ ^ ^ ^ ^ ^ ^ ^ ^ ^ ^ ^ ^ ^ ^ ^ ^ ^ ^ ^ ^ ^ ^ ^ ^ ^ ^ ^ ^ ^ ^ ^ ^ ^ ^ ^ ^ ^ ^ ^ ^ ^ ^ ^ ^ ",
"^ ^ ^ ^ ^ ^ ^ ^ ^ ^ ^ ^ ^ ^ ^ ^ ^ ^ ^ ^ ^ ^ ^ ^ ^ ^ ^ ^ ^ ^ ^ ^ ^ ^ ^ ^ ^ ^ ^ ^ ^ ^ ^ ^ ^ ^ ^ ^ ^ ^ ^ ^ ^ ^ ^ ^ ^ ^ ^ ^ ^ ^ ^ ^ ",
"^ ^ ^ ^ ^ ^ ^ ^ ^ ^ ^ ^ ^ ^ ^ ^ ^ ^ ^ ^ ^ ^ ^ ^ ^ ^ ^ ^ ^ ^ ^ ^ ^ ^ ^ ^ ^ ^ ^ ^ ^ ^ ^ ^ ^ ^ ^ ^ ^ ^ ^ ^ ^ ^ ^ ^ ^ ^ ^ ^ ^ ^ ^ ^ ",
"^ ^ ^ ^ ^ ^ ^ ^ ^ ^ ^ ^ ^ ^ ^ ^ ^ ^ ^ ^ ^ ^ ^ ^ ^ ^ ^ ^ ^ ^ ^ ( / ] ] ] ] ] ] ] / ( ^ ^ ^ ^ ^ ^ ^ ^ ^ ^ ^ ^ ^ ^ ^ ^ ^ ^ ^ ^ ^ ^ ",
"^ ^ ^ ^ ^ ^ ^ ^ ^ ^ ^ ^ ^ ^ ^ ^ ^ ^ ^ ^ ^ ^ ^ ^ ^ ^ ^ ^ ^ ^ ^ O.N K K K K K K K V +.^ ^ ^ ^ ^ ^ ^ ^ ^ ^ ^ ^ ^ ^ ^ ^ ^ ^ ^ ^ ^ ^ ",
"^ ^ ^ ^ ^ ^ ^ ^ ^ ^ ^ ^ ^ ^ ^ ^ ^ ^ ^ ^ ^ ^ ^ ^ ^ ^ ^ ^ ^ ^ ^ @.h.G.G.G.G.G.G.G.u.%.^ ^ ^ ^ ^ ^ ^ ^ ^ ^ ^ ^ ^ ^ ^ ^ ^ ^ ^ ^ ^ ^ ",
"^ ^ ^ ^ ^ ^ ^ ^ ^ ^ ^ ^ ^ ^ ^ ^ ^ ^ ^ ( +.#.V V V V V V V V V i.N.U.U.U.U.U.U.U.n.f.V V V V V V V #.O.^ ^ ^ ^ ^ ^ ^ ^ ^ ^ ^ ^ ^ ",
"^ ^ ^ ^ ^ ^ ^ ^ ^ ^ ^ ^ ^ ^ ^ ^ ^ ^ ^ / V u.m.m.m.m.m.m.m.m.m.v.S.U.U.U.U.U.U.U.L.n.m.m.m.m.m.m.m.h.%.( ^ ^ ^ ^ ^ ^ ^ ^ ^ ^ ^ ^ ",
"^ ^ ^ ^ ^ ^ ^ ^ ^ ^ ^ ^ ^ ^ ^ ^ ^ ( O.@.a.A.U.U.U.U.U.U.U.U.U.U.U.U.U.U.U.U.U.U.U.U.U.U.U.U.U.U.U.b.p.o.' ( ^ ^ ^ ^ ^ ^ ^ ^ ^ ^ ",
"^ ^ ^ ^ ^ ^ ^ ^ ^ ^ ^ ^ ^ ^ ^ ^ ^ ' J h.N.K.U.U.U.U.U.U.U.U.U.U.U.U.U.U.U.U.U.U.U.U.U.U.U.U.U.U.U.L.M.s.V ] ^ ^ ^ ^ ^ ^ ^ ^ ^ ^ ",
"^ ^ ^ ^ ^ ^ ^ ^ ^ ^ ^ ^ ^ ^ ^ ^ ^ O.a.L.U.U.U.U.U.U.U.U.U.U.U.U.U.U.U.U.U.U.U.U.U.U.U.U.U.U.U.U.U.U.U.D.f.X.] ( ^ ^ ^ ^ ^ ^ ^ ^ ",
"^ ^ ^ ^ ^ ^ ^ ^ ^ ^ ^ ^ ^ ^ ^ ^ ^ +.a.K.U.U.U.U.U.U.U.U.U.U.U.U.U.U.U.U.U.U.U.U.U.U.U.U.U.U.U.U.U.U.U.K.m.f.V ' ^ ^ ^ ^ ^ ^ ^ ^ ",
"^ ^ ^ ^ ^ ^ ^ ^ ^ ^ ^ ^ ^ ^ ^ ^ ( X.d.K.U.U.U.U.U.U.U.U.U.U.U.U.U.U.U.U.U.U.U.U.U.U.U.U.U.U.U.U.U.U.U.U.K.D.d...^ ^ ^ ^ ^ ^ ^ ^ ",
"^ ^ ^ ^ ^ ^ ^ ^ ^ ^ ^ ^ ^ ^ ^ ' #.G m.I.U.U.U.U.U.U.U.U.U.U.U.U.U.U.U.U.U.U.U.U.U.U.U.U.U.U.U.U.U.U.U.U.U.U.h...^ ^ ^ ^ ^ ^ ^ ^ ",
"^ ^ ^ ^ ^ ^ ^ ^ ^ ^ ^ ^ ^ ^ ^ o.d.n.D.U.U.U.U.U.U.U.U.U.U.U.U.U.U.U.U.U.U.U.U.U.U.U.U.U.U.U.U.U.U.U.U.U.U.U.h...^ ^ ^ ^ ^ ^ ^ ^ ",
"^ ^ ^ ^ ^ ^ ^ ^ ^ ^ ( O.@.$.$.L M.U.U.U.U.U.U.U.U.U.U.U.U.U.U.U.U.U.U.U.U.U.U.U.U.U.U.U.U.U.U.U.U.U.U.U.U.U.t.H } _ ^ ^ ^ ^ ^ ^ ",
"^ ^ ^ ^ ^ ^ ^ ^ ^ ^ ] J r.y.y.M.A.U.U.U.U.U.U.U.U.U.U.U.U.U.U.U.U.U.U.U.U.U.U.U.U.U.U.U.U.U.U.U.U.U.U.U.U.U.c.e.S [ ^ ^ ^ ^ ^ ^ ",
"^ ^ ^ ^ ^ ^ ^ ^ ( ' o.d.L.U.U.U.U.U.U.U.U.U.U.U.U.U.U.U.U.U.U.U.U.U.U.U.U.U.U.U.U.U.U.U.U.U.U.U.U.U.U.U.U.U.C.k.2.n ` / ^ ^ ^ ^ ",
"^ ^ ^ ^ ^ ^ ^ ^ O.J g.M.K.U.U.U.U.U.U.U.U.U.U.U.U.U.U.U.U.U.U.U.U.U.U.U.U.U.U.U.U.U.U.U.U.U.U.U.U.U.U.U.U.U.C.k.8.,.A | ( ^ ^ ^ ",
"^ ^ ^ ^ ^ ^ ^ ^ ..g.P.I.U.U.U.U.U.U.U.U.U.U.U.U.U.U.U.U.U.U.U.U.U.U.U.U.U.U.U.U.U.U.U.U.U.U.U.U.U.U.U.U.U.U.C.z.j.q.7.n / ^ ^ ^ ",
"^ ^ ^ ^ ^ ^ ^ ^ ..h.U.U.U.U.U.U.U.U.U.U.U.U.U.U.U.U.U.U.U.U.U.U.U.U.U.U.U.U.U.U.U.U.U.U.U.U.U.U.U.U.U.U.U.U.H.V.z.k.8.M / ^ ^ ^ ",
"^ ^ ^ ^ ^ ^ ^ ^ o.h.U.U.U.U.U.U.U.U.U.U.U.U.U.U.U.U.U.U.U.U.U.U.U.U.U.U.U.U.U.U.U.U.U.U.U.U.U.U.U.U.U.U.U.U.U.I.Z.z.8.M / ^ ^ ^ ",
"^ ^ ^ ^ ^ ^ ' @.L m.U.U.U.U.U.U.U.U.U.U.U.U.U.U.U.U.U.U.U.U.U.U.U.U.U.U.U.U.U.U.U.U.U.U.U.U.U.U.U.U.U.U.U.U.U.U.H.z.0.F v { ( ^ ",
"^ ^ ^ ^ ^ ^ @.d.N.A.U.U.U.U.U.U.U.U.U.U.U.U.U.U.U.U.U.U.U.U.U.U.U.U.U.U.U.U.U.U.U.U.U.U.U.U.U.U.U.U.U.U.U.U.U.U.H.z.q.8.1.M _ ^ ",
"^ ^ ^ ^ ^ ^ V m.U.U.U.U.U.U.U.U.U.U.U.U.U.U.U.U.U.U.U.U.U.U.U.U.U.U.U.U.U.U.U.U.U.U.U.U.U.U.U.U.U.U.U.U.U.U.U.U.H.z.j.j.q.D ` ^ ",
"^ ^ ^ ^ ^ ^ V m.U.U.U.U.U.U.U.U.U.U.U.U.U.U.U.U.U.U.U.U.U.U.U.U.U.U.U.U.U.U.U.U.U.U.U.U.U.U.U.U.U.U.U.U.U.U.U.U.H.z.j.j.q.D ` ^ ",
"^ ^ ^ ^ ^ ^ #.u.A.K.U.U.U.U.U.U.U.U.U.U.U.U.U.U.U.U.U.U.U.U.U.U.U.U.U.U.U.U.U.U.U.U.U.U.U.U.U.U.U.U.U.U.U.U.U.U.H.z.j.j.q.D ` ^ ",
"^ ^ ^ ^ ^ ^ +.V a.N.U.U.U.U.U.U.U.U.U.U.U.U.U.U.U.U.U.U.U.U.U.U.U.U.U.U.U.U.U.U.U.U.U.U.U.U.U.U.U.U.U.U.U.U.U.U.H.z.j.j.q.D ` ^ ",
"^ ^ ^ ^ ^ ^ ( / @.h.P.I.U.U.U.U.U.U.U.U.U.U.U.U.U.U.U.U.U.U.U.U.U.U.U.U.U.U.U.U.U.U.U.U.U.U.U.U.U.U.U.U.U.U.U.U.Z.z.j.j.q.D ` ^ ",
"^ ^ ^ ^ ^ ^ ^ ^ O.J g.M.K.U.U.U.U.U.U.U.U.U.U.U.U.U.U.U.U.U.U.U.U.U.U.U.U.U.U.U.U.U.U.U.U.U.U.J.Z.V.V.V.V.V.V.V.x.k.j.j.q.D ` ^ ",
"^ ^ ^ ^ ^ ^ ^ ^ ( ' o.d.L.U.U.U.U.U.U.U.U.U.U.U.U.U.U.U.U.U.U.U.U.U.U.U.U.U.U.U.U.U.U.U.U.U.U.H.x.k.k.k.k.k.k.k.j.j.j.j.q.D ` ^ ",
"^ ^ ^ ^ ^ ^ ^ ^ ^ ^ ] J r.v.L.U.U.U.U.U.J.Z.Z.Z.Z.Z.Z.J.U.U.U.U.U.U.U.U.U.U.U.U.U.U.U.U.U.J.Z.B.k.j.q.q.q.j.j.j.j.j.q.7.,.m _ ^ ",
"^ ^ ^ ^ ^ ^ ^ ^ ^ ^ ( O.#.f.F.U.U.U.U.U.C.z.z.z.z.z.z.C.U.U.U.U.U.U.U.U.U.U.U.U.U.U.U.U.U.Z.x.k.j.j.j.j.j.j.j.j.j.j.0.D  .{ ( ^ ",
"^ ^ ^ ^ ^ ^ ^ ^ ^ ^ ^ ^ ( J l.J.J.J.J.H.x.j.j.j.j.j.j.x.H.I.U.U.U.U.U.U.U.U.U.U.U.I.J.J.H.x.k.j.j.j.j.j.j.j.j.j.q.8.1.b / ^ ^ ^ ",
"^ ^ ^ ^ ^ ^ ^ ^ ^ ^ ^ ^ ( B w.x.x.x.x.z.k.j.j.j.j.j.j.k.x.C.I.U.U.U.U.U.U.U.U.U.J.V.x.x.x.k.j.j.j.j.j.j.j.j.j.j.7.D v { ( ^ ^ ^ ",
"^ ^ ^ ^ ^ ^ ^ ^ ^ ^ ^ ^ ( b 7.j.j.j.j.j.j.j.j.j.j.j.j.j.j.x.H.U.U.U.U.U.U.U.U.U.H.z.j.j.j.j.j.j.j.j.j.j.j.j.q.0.,.v ( ~ ^ ^ ^ ^ ",
"^ ^ ^ ^ ^ ^ ^ ^ ^ ^ ^ ^ ( b 7.j.j.j.j.j.j.j.j.j.j.j.j.j.j.k.x.C.J.U.U.U.U.U.U.U.H.z.j.j.j.j.j.j.j.j.j.j.j.q.7.F c { ^ ^ ^ ^ ^ ^ ",
"^ ^ ^ ^ ^ ^ ^ ^ ^ ^ ^ ^ ( b 7.j.j.j.j.j.q.q.q.q.q.q.q.q.j.j.j.z.Z.U.U.U.U.U.U.U.H.z.j.q.q.q.q.j.j.j.j.j.q.q.>. .! ( ^ ^ ^ ^ ^ ^ ",
"^ ^ ^ ^ ^ ^ ^ ^ ^ ^ ( { v D 8.j.j.j.j.q.7.>.F F F F >.7.q.j.j.k.x.C.C.C.C.C.C.C.B.k.q.2.>.2.0.j.j.j.j.q.7.>.m ` ^ ^ ^ ^ ^ ^ ^ ^ ",
"^ ^ ^ ^ ^ ^ ^ ^ ^ ^ ! c ,.7.q.j.j.j.j.0.F  .} } } }  .F 0.j.j.j.k.k.k.k.k.k.k.k.k.j.0.D  .A 8.j.j.j.j.0.F  .` ( ^ ^ ^ ^ ^ ^ ^ ^ ",
"^ ^ ^ ^ ^ ^ ^ ^ ^ ^ _ A 0.j.j.j.j.q.7.,.c ! ^ ^ ^ ^ _ A 0.j.j.j.j.j.j.q.8.2.1.1.<.;.*.j T l 6.j.j.j.j.0.C T U U U U Y W ^ ^ ^ ^ ",
"^ ^ ^ ^ ^ ^ ^ ^ ^ ^ _ A 0.j.j.j.j.8.D v { ( ^ ^ ^ ^ _ A 0.j.j.j.j.j.j.0.>.b v v x u < - = i 4.j.j.j.j.9.d ; 1 1 1 1 2 P ~ ^ ^ ^ ",
"^ ^ ^ ^ ^ ^ ^ ^ ^ ^ _ A 0.j.j.q.0.1.v ( ^ ^ ^ ^ ^ ^ _ M 7.0.q.j.j.j.j.0.Z R W W P *   X # y 3.q.9.5.q.9.a +         o 4 E ~ ^ ^ ",
"^ ^ ^ ^ ^ ^ ^ ^ ^ ^ _ A 0.j.j.7.D b { ~ ^ ^ ^ ^ ^ ^ ( [ n >.8.j.j.j.j.9.h 5 4 4 1 O X , a =.9.3.f s -.5.a +         . % 3 P W ^ ",
"^ ^ ^ ^ ^ ^ ^ ^ ^ ^ _ A 0.q.q.,. ./ ( ^ ^ ^ ^ ^ ^ ^ ^ ( _ n 7.j.j.q.q.5.a @ . . .   + y 3.9.9.=.< > f 5.a +             o 3 Y ~ ",
"^ ^ ^ ^ ^ ^ ^ ^ ^ ^ _ A 8.7.F m { ^ ^ ^ ^ ^ ^ ^ ^ ^ ^ ^ ( b 7.j.j.9.-.s < X         + a 5.3.g t : # f 5.a +               % 4 8 ",
"^ ^ ^ ^ ^ ^ ^ ^ ^ ^ _ A 8.F | _ ( ^ ^ ^ ^ ^ ^ ^ ^ ^ ^ ^ ( b 7.j.j.3.y : +           + a 5.g , + X # f 5.a +               . O O ",
"^ ^ ^ ^ ^ ^ ^ ^ / { v F 8.D ` ^ ^ ^ ^ ^ ^ ^ ^ ^ ~ Y I I P k 6.j.j.3.w X             + a 5.f # X : w =.5.a +                     ",
"^ ^ ^ ^ ^ ^ ^ ^ ` M ,.7.0.D ` ^ ^ ^ ^ ^ ^ ^ ^ ^ E 6 & & & r 4.j.j.3.w X             + a 5.f # : a -.5.9.a +                     ",
"^ ^ ^ ^ ^ ^ ^ ^ } F q.8.2.A ) ^ ^ ^ ^ ^ ^ ^ ^ ^ U 1     X q =.5.9.3.w X             X t -.a # , =.q.5.-.t +                     ",
"^ ^ ^ ^ ^ ^ ^ ^ } F 0.>.m } / ^ ^ ^ ^ ^ ^ ^ ^ ^ U 1       # q s 3.3.w X             X > q > X , =.5.g w > X                     ",
"^ ^ ^ ^ ^ ^ ^ ^ } F 8.M _ ( ^ ^ ^ ^ ^ ^ ^ ^ ^ ^ U 1         X , =.3.w X               X X X   , =.3.t X X                       ",
"^ ^ ^ ^ ^ ^ ^ ^ } F 8.M / ^ ^ ^ ^ ^ ^ ^ ^ ^ ^ ^ U 1           , =.3.w X                       , =.3.w X                         ",
"^ ^ ^ ^ ^ ^ ^ ^ } F 8.M / ^ ^ ^ ^ ^ ^ ^ ^ ^ ^ ^ U 1           , =.3.w X                       , =.3.w X                         ",
"^ ^ ^ ^ ^ ^ ^ ^ } F 8.M / ^ ^ W I 9 9 9 9 9 9 9 6 %       # , a :.3.w X                       , =.3.w X                   O & 1 ",
"^ ^ ^ ^ ^ ^ ^ ^ } F 8.M / ^ ^ U 3 % % % % % % % $ .     X < g 3.9.3.w X                       , =.3.w X                   * 9 U ",
"^ ^ ^ ^ ^ ^ ^ ^ { A >.v ( ^ ^ U 3 % % $ o               X w 3.9.3.g < X                       > s g < X               o % 6 E ^ ",
"^ ^ ^ ^ ^ ^ ^ ^ / }  .` ( ^ ^ W I 9 9 8 1 .             X w 3.:.a , #                         + > , #               . 1 8 Y ~ ^ ",
"^ ^ ^ ^ ^ ^ ^ ^ ^ ^ ^ ^ ^ ^ ^ ^ ^ ^ ^ ~ 7 $ o o o o o o o e 3.=.,   . o o o o o o o o o o o o o o o o o o o o o o o $ 7 ~ ^ ^ ^ ",
"^ ^ ^ ^ ^ ^ ^ ^ ^ ^ ^ ^ ^ ^ ^ ^ ^ ^ ^ ~ U 7 6 6 6 6 6 6 6 p 6.=., o * 6 6 6 6 6 6 6 6 6 6 6 6 6 6 6 6 6 6 6 6 6 6 6 7 U ~ ^ ^ ^ ",
"^ ^ ^ ^ ^ ^ ^ ^ ^ ^ ^ ^ ^ ^ ^ ^ ^ ^ ^ ^ ~ ~ ~ ~ ~ ~ ~ ~ W c 2.&., $ 7 W ~ ~ ~ ~ ~ ~ ~ ~ ~ ~ ~ ~ ~ ~ ~ ~ ~ ~ ~ ~ ~ ~ ~ ~ ^ ^ ^ ^ ",
"^ ^ ^ ^ ^ ^ ^ ^ ^ ^ ^ ^ ^ ^ ^ ^ ^ ^ ^ ^ ^ ^ ^ ^ ^ ^ ^ ^ ( } A z 0 4 U ~ ^ ^ ^ ^ ^ ^ ^ ^ ^ ^ ^ ^ ^ ^ ^ ^ ^ ^ ^ ^ ^ ^ ^ ^ ^ ^ ^ ^ ",
"^ ^ ^ ^ ^ ^ ^ ^ ^ ^ ^ ^ ^ ^ ^ ^ ^ ^ ^ ^ ^ ^ ^ ^ ^ ^ ^ ^ ^ / ) ) Q E ~ ^ ^ ^ ^ ^ ^ ^ ^ ^ ^ ^ ^ ^ ^ ^ ^ ^ ^ ^ ^ ^ ^ ^ ^ ^ ^ ^ ^ ^ ",
"^ ^ ^ ^ ^ ^ ^ ^ ^ ^ ^ ^ ^ ^ ^ ^ ^ ^ ^ ^ ^ ^ ^ ^ ^ ^ ^ ^ ^ ^ ^ ^ ^ ^ ^ ^ ^ ^ ^ ^ ^ ^ ^ ^ ^ ^ ^ ^ ^ ^ ^ ^ ^ ^ ^ ^ ^ ^ ^ ^ ^ ^ ^ ^ "
};
