/* XPM */
static char *monster_left1[] = {
/* columns rows colors chars-per-pixel */
"64 64 223 2 ",
"   c #000000",
".  c #0C0000",
"X  c #000D00",
"o  c #080D00",
"O  c #140000",
"+  c #1C0000",
"@  c #001300",
"#  c #001C00",
"$  c #1A1900",
"%  c #1A1B1A",
"&  c #250000",
"*  c #2B0000",
"=  c #3C0000",
"-  c #3B0C00",
";  c #2D1E00",
":  c #002300",
">  c #002B00",
",  c #172800",
"<  c #003400",
"1  c #003D00",
"2  c #252500",
"3  c #362600",
"4  c #2A3300",
"5  c #323230",
"6  c #420000",
"7  c #4C0000",
"8  c #410D00",
"9  c #560000",
"0  c #580000",
"q  c #5F1E00",
"w  c #501715",
"e  c #650000",
"r  c #720000",
"t  c #7A0000",
"y  c #7D0E00",
"u  c #661300",
"i  c #7B1800",
"p  c #553000",
"a  c #6C3000",
"s  c #7C3900",
"d  c #004200",
"f  c #0C4200",
"g  c #014A00",
"h  c #005300",
"j  c #005A00",
"k  c #135312",
"l  c #2B4600",
"z  c #235A00",
"x  c #3C5900",
"c  c #006600",
"v  c #0D6600",
"b  c #006C00",
"n  c #007300",
"m  c #007E00",
"M  c #0C7A00",
"N  c #147200",
"B  c #146514",
"V  c #2A6200",
"C  c #366500",
"Z  c #2A7800",
"A  c #3C7800",
"S  c #424200",
"D  c #4F5A00",
"F  c #624200",
"G  c #7B4400",
"H  c #714E00",
"J  c #625200",
"K  c #6B5300",
"L  c #655A00",
"P  c #7E5600",
"I  c #7C5900",
"U  c #5B6400",
"Y  c #536C00",
"T  c #4C7300",
"R  c #427E00",
"E  c #626B00",
"W  c #746400",
"Q  c #657700",
"!  c #647900",
"~  c #7B6D35",
"^  c #840000",
"/  c #8C0000",
"(  c #8A0E00",
")  c #950000",
"_  c #9A0000",
"`  c #9C1F00",
"'  c #95110F",
"]  c #A50300",
"[  c #AA0100",
"{  c #B50400",
"}  c #BF0000",
"|  c #B30C00",
" . c #B80800",
".. c #A71700",
"X. c #AC1300",
"o. c #A21D00",
"O. c #AB1B00",
"+. c #B11200",
"@. c #8C2800",
"#. c #9A2400",
"$. c #942B00",
"%. c #9C2D00",
"&. c #833600",
"*. c #8A3500",
"=. c #833B00",
"-. c #973200",
";. c #933A00",
":. c #A42300",
">. c #A02900",
",. c #8D4300",
"<. c #854C00",
"1. c #894800",
"2. c #8F430A",
"3. c #92400D",
"4. c #825000",
"5. c #8A5E44",
"6. c #995353",
"7. c #8A7472",
"8. c #048500",
"9. c #008D00",
"0. c #009600",
"q. c #019C01",
"w. c #0F9608",
"e. c #1B9000",
"r. c #3A8500",
"t. c #358B00",
"y. c #209600",
"u. c #2B9400",
"i. c #239C00",
"p. c #01A401",
"a. c #01AC00",
"s. c #0EAC00",
"d. c #0EA807",
"f. c #1CA300",
"g. c #12AD00",
"h. c #01B300",
"j. c #0CB400",
"k. c #02BC00",
"l. c #0AB908",
"z. c #1BB31B",
"x. c #3FAB02",
"c. c #27BA00",
"v. c #2BB60C",
"b. c #36B700",
"n. c #38B400",
"m. c #2FAF2F",
"M. c #4A8900",
"N. c #5B8500",
"B. c #578A00",
"V. c #4A9800",
"C. c #43A500",
"Z. c #44A607",
"A. c #00C000",
"S. c #00CB00",
"D. c #0BC70B",
"F. c #00D300",
"G. c #00DC00",
"H. c #0EDA00",
"J. c #19DD00",
"K. c #19C919",
"L. c #1ED71E",
"P. c #1FDF1F",
"I. c #2BC600",
"U. c #26CC00",
"Y. c #28C900",
"T. c #21D200",
"R. c #00E400",
"E. c #00EC00",
"W. c #0EEC00",
"Q. c #0FEF0F",
"!. c #13E500",
"~. c #10E800",
"^. c #01F500",
"/. c #09F200",
"(. c #00FF00",
"). c #0BF30B",
"_. c #08FF08",
"`. c #17E417",
"'. c #14EB14",
"]. c #1AE41A",
"[. c #1AFF1A",
"{. c #28C928",
"}. c #24DB24",
"|. c #2AD828",
" X c #34CA34",
".X c #3BC43B",
"XX c #30D830",
"oX c #21FF21",
"OX c #32F632",
"+X c #4C9B4C",
"@X c #569756",
"#X c #63954F",
"$X c #4CAA4C",
"%X c #45B945",
"&X c #52AD52",
"*X c #5CA45C",
"=X c #669666",
"-X c #748B72",
";X c #64B664",
":X c #62CF62",
">X c #63FF63",
",X c #868686",
"<X c #838C83",
"1X c gray55",
"2X c #8C9A8C",
"3X c #98918E",
"4X c #939393",
"5X c #8EBC8E",
"6X c gray66",
"7X c #B2B4B2",
"8X c #9CC39C",
"9X c #95DC95",
"0X c #96E496",
"qX c #98F598",
"wX c #B3E3B3",
"eX c #C4C3BF",
"rX c #C5C5C4",
"tX c #C4CBC4",
"yX c #CBCBCB",
"uX c #E3E9E3",
"iX c #E8E8E8",
"pX c #EEF5EE",
"aX c #F2F2F2",
/* pixels */
"} } } } } } } } } } } } } } } } } } } } } } } } } } } } } } } } } } } } } } } } } } } } } } } } } } } } } } } } } } } } } } } } ",
"} } } } } } } } } } } } } } } } } } } } } } } } } } } } } } } } } } } } } } } } } } } } } } } } } } } } } } } } } } } } } } } } ",
"} } } } } } } } } } } } } } } } } } } } } } } } } } } } } } } } } } } } } } } } } } } } } } } } } } } } } } } } } } } } } } } } ",
"} } } } } } } } } } } } } } } } } } } } } } } } } } } } }  .| +.+.+.+.+.+.+.| } } } } } } } } } } } } } } } } } } } } } } } } } ",
"} } } } } } } } } } } } } } } } } } } } } } } } } } } }  .%.W Q Q Q Q Q Q Q <.O.} } } } } } } } } } } } } } } } } } } } } } } } ",
"} } } } } } } } } } } } } } } } } } } } } } } } } } } } | I I.!.!.!.!.!.!.!.V.%.} } } } } } } } } } } } } } } } } } } } } } } } ",
"} } } } } } } } } } } } } } } } } } }  .>.<.I I I I I I I V.!.(.(.(.(.(.(.(.I.! I I I I I I I I I <.:.} } } } } } } } } } } } } ",
"} } } } } } } } } } } } } } } } } } } | I n.I.I.I.I.I.I.Y.J.^.(.(.(.(.(.(.(.W.T.I.I.I.I.I.I.I.I.I.C.4. .} } } } } } } } } } } } ",
"} } } } } } } } } } } } } } } } }  .:.,.V.W.(.(.(.(.(.(.(.(.(.(.(.(.(.(.(.(.(.(.(.(.(.(.(.(.(.(.(.J.B.;.O. .} } } } } } } } } } ",
"} } } } } } } } } } } } } } } } } O.W C.T.^.(.(.(.(.(.(.(.(.(.(.(.(.(.(.(.(.(.(.(.(.(.(.(.(.(.(.(./.U.V.I +.} } } } } } } } } } ",
"} } } } } } } } } } } } } } }  .+.;.C./.(.(.(.(.(.(.(.(.(.(.(.(.(.(.(.(.(.(.(.(.(.(.(.(.(.(.(.(.(.(.(.W.N.O.} } } } } } } } } } ",
"} } } } } } } } } } } } } } } >.W V.U.(.(.(.(.(.(.(.(.(.(.(.(.(.(.(.(.(.(.(.(.(.(.(.(.(.(.(.(.(.(.(.(.W.N.O.} } } } } } } } } } ",
"} } } } } } } } } } } } } } } ,.x./.^.(.(.(.(.(.(.(.(.(.(.(.(.(.(.(.(.(.(.(.(.(.(.(.(.(.(.(.(.(.(.(.(.W.B.:. .} } } } } } } } } ",
"} } } } } } } } } } } } } } } 1.b.(.(.(.(.(.(.(.(.(.(.(.(.(.(.(.(.(.(.(.(.(.(.(.(.(.(.(.(.(.(.(.(.(.(./.b.Q ,.X.} } } } } } } } ",
"} } } } } } } } } } } } } } } 1.b.(.(.(.(.(.(.(.(.(.(.(.(.(.(.(.(.(.(.(.(.(.(.(.(.(.(.(.(.(.(.(.(.(.(.(.W.J.B.%.} } } } } } } } ",
"} } } } } } } } } } } } } O.;.! U._.'.}.}.}.}.}.].).(.(.(.(.(.(.(.(.(.(.(.(.(.(.).`.}.}.}.}.}.].).(.(.(.(.(.I.Q 1.1.,.:. .} } } ",
"} } } } } } } } } } } }  .<.V.U.W.). X*X*X*X*X*X%XP.(.(.(.(.(.(.(.(.(.(.(.(.(.(.'..X*X*X*X*X*X%X].(.(.(.(.(.!.I.b.b.C.P | } } } ",
"} } } } } } } } } } } X.%.! J._.).|.;X2X4X4X1X,X=X.X'.).(.(.(.(.(.(.(.(.(.(._.Q.XX;X4X4X4X<X-X$XL.^.(.(.(.(.(.(.(.(.~.B.$.X. .} ",
"} } } } } } } } } } | 4.B.I.W.'. X;X8XtXyXyX7X4X-X*X%X}._.(.(.(.(.(.(.(.(.(.]..X;X8XyXyXtX5X$Xz.D.G.E.(.(.(.(.(.(.(./.c.T G X.} ",
"} } } } } } } } } } O.N.!.^.(.}.&X2XtXaXaXiXrX3X7.-X=X X).(.(.(.(.(.(.(.(.(.|.#X3XeXiXaXpX0X{.A.A.S.E.(.(.(.(.(.(.(.^.G.j.Y o.} ",
"} } } } } } } } } } O.N.W.(.(.'. X:XwXpXrX4X7.6.5.#X.XP._.(.(.(.(.(.(.(.(.(.v.~ 6.7.4XrXpX0X{.S.F.R.^.(.(.(.(.(.(.(.(.G.k.T o.} ",
"} } } } } } } } } } O.B.W.(.(.(.).OXqXuX4X5 w ' 3.Z.)._.(.(.(.(.(.(.(.(.(.(.x.2.' w 5 4XuX0X{.F.E.(.(.(.(.(.(.(.(.(.(.G.k.T ` } ",
"} } } } } } } } +.;.W n./.(.(.(.(.[.>XqX*Xk l F E c.(.(.(.(.(.(.(.(.(.(.(.(.I.! J l k @X9X:XK.F.E.(.(.(.(.(.(.(.(.(.(.G.k.t.K G ",
"} } } } } } } } %.N.U.!.(.(.(.(.(._.oXOXK.p.w.y.f.H.(.(.(.(.(.(.(.(.(.(.(.(.W.T.c.s.q.z. X{.D.F.E.(.(.(.(.(.(.(.(.(.(.G.A.g.i.u.",
"} } } } } } } } -.C.(.(.(.(.(.(.(.(.(.(.R.F.S.S.F.E.(.(.(.(.(.(.(.(.(.(.(.(.(.(.^.G.S.S.S.S.S.F.^.(.(.(.(.(.(.(.(.(.(.G.A.A.A.A.",
"} } } } } } } } ;.C.(.(.(.(.(.(.(.(.(.(.^.E.E.E.E.^.(.(.(.(.(.(.(.(.(.(.(.(.(.(.(.^.E.E.E.E.E.E.(.(.(.(.(.(.(.(.(.(.(.G.A.A.A.k.",
"} } } } } } } } -.C.^.(.(.(.(.(.(.(.(.(.(.(.(.(.(.(.(.(.(.(.(.(.(.(.(.(.(.(.(.(.(.(.(.(.(.(.(.(.(.(.(.(.(.(.(.(.(.(.^.G.A.j.g.g.",
"} } } } } } } } -.V.G.E.(.(.(.(.(.(.(.(.(.(.(.(.(.(.(.(.(.(.(.(.(.(.(.(.(.(.(.(.(.(.(.(.(.(.(.(.(.(.(.(.(.(.(.(.(.(.(.G.A.u.Y L ",
"} } } } } } } } $.M.S.R.(.(.(.(.(.(.(.(.(.(.(.(.(.(.(.(.(.(.(.(.(.(.(.(.(.(.(.(.(.(.(.(.(.(.(.(.(.(.(.(.(.(.(.(.(.(.^.G.k.T $.| ",
"} } } } } } } } $.R A.F.R.R.R.R.R.R.R.R.R.R.E.(.(.(.(.(.(.(.(.(.(.(.(.(.(.(.(.(.(.(.(.(.(.(.(.(.(.(.(.(.(.(.^.E.R.R.R.F.k.T o.} ",
"} } } } } } } } $.R k.A.S.S.S.S.S.S.S.S.S.S.G.^.(.(.(.(.(.(.(.(.(.(.(.(.(.(.(.(.(.(.(.(.(.(.(.(.(.(.(.(.(.(.E.F.S.S.S.A.k.T o.} ",
"} } } } } } } } o.L t.f.k.A.A.A.A.A.A.A.A.A.S.R.E.`.}.}.}.}.}.}.}.}.}.}.}.}.}.}.].).(.^.E.E.E.E.E.^.^.(.^.E.G.S.A.A.k.f.t.K ..} ",
"} } } } } } } } | #.G R j.A.A.A.A.A.A.A.A.A.A.S.K.m.*X*X*X*X*X*X*X*X*X*X*X*X*X*X%XP.(.R.F.F.F.F.F.F.E.(.E.F.S.A.A.A.j.T =.#.| } ",
"} } } } } } } } } } X.K u.g.k.A.A.A.A.A.A.A.A.A.z.@X,X1X4X4X4X4X4X4X4X4X4X4X1X,X=X{.E.F.A.A.A.A.A.S.G.E.G.A.A.A.k.g.u.H | } } } ",
"} } } } } } } } } } | $.H R g.A.A.A.A.A.A.A.A.A.z.@X,X6XrXyXyXyXyXyXyXyXyXyX7X4X=Xm.F.S.A.A.A.A.A.A.S.F.S.A.A.A.f.T G #. .} } } ",
"} } } } } } } } } } }  .| K f.k.j.j.j.j.k.k.A.A.z.+X<X7XuXiXiXiXiXiXiXiXiXiXrX2X@Xm.A.A.A.A.A.A.A.A.A.A.A.A.A.A.u.G | } } } } } ",
"} } } } } } } } } } } }  .H f.f.R U U Y u.j.A.A.l.m.+X=X<X,X,X,X,X,X,X,X,X,X-X@Xm.z.k.A.A.A.A.A.A.A.A.A.A.A.A.A.u.G } } } } } } ",
"} } } } } } } } } } } }  .H f.t.G X.X.` U g.A.A.k.l.d.B % % % % % % % % % % k w.l.k.k.k.k.k.k.k.k.k.k.A.A.A.A.A.u.G } } } } } } ",
"} } } } } } } } } } } }  .H f.t.*.} } | L g.A.A.A.A.h.m g d d d d d d d d d b p.A.A.k.i.r.R R R R t.f.k.A.A.A.A.f.Y =.o. .} } } ",
"} } } } } } } } } } } }  .H f.t.*.} } | L g.A.k.A.A.k.a.q.0.0.0.0.0.0.0.0.0.p.h.A.A.j.T *.$.$.$.$.G r.k.A.A.A.A.j.f.r.G | } } } ",
"} } } } } } } } } } } }  .H f.t.*. ...*.T j.h.q.0.0.0.0.0.0.0.0.0.q.a.k.A.A.A.A.A.A.s.D ( ) ) ) ) i x 0.a.k.A.A.A.A.s.D ( ] } } ",
"} } } } } } } } } } } }  .H f.t.*.X.H R i.k.0.j d d d d d d d d d h 9.k.A.A.A.A.A.A.a.z - 6 6 6 6 - , g m h.A.A.A.A.a.z 8 r [ } ",
"} } } } } } } } } } } }  .H f.t.*.o.T j.j.g.N , .                 # n k.A.A.A.A.k.h.q.h X             X j a.A.A.A.A.a.j o 6 ) [ ",
"} } } } } } } } } } } }  .H f.t.*.o.T j.u.U a u 7 &               # n k.A.A.A.A.a.m h >               X j a.A.A.A.A.a.j X & 7 0 ",
"} } } } } } } } } } } }  .H f.t.&.` T g.Y ` ] [ ^ =               # b h.k.k.A.A.q.g X                 X j a.A.A.k.k.p.h X   . . ",
"} } } } } } } } } } } }  .H f.e.p q Z s.C u r r 0 &               @ d n 0.k.A.A.0.d                   X j a.A.A.a.9.c < X       ",
"} } } } } } } } } } } }  .H f.8., $ M a.v $ + + O .                 @ > b a.A.A.0.d                   X j a.A.A.q.h # X         ",
"} } } } } } } } } } } }  .*.T C 3 ; N a.m d : X                       X j a.A.A.0.d                   X d m q.h.0.d             ",
"} } } } } } } } } } } } } ..$.@.( i A h.p.9.j #                       X j a.A.A.0.d                     # < c p.0.d             ",
"} } } } } } } } } } } } } } } } } ..U i.s.k.M , O .                   X j a.h.a.m <                         d 0.0.d             ",
"} } } } } } } } } } } } } } } } } | $.K r.j.Z p 0 &                   X j a.q.c 1 #                         d 0.0.d             ",
"} } } } } } } } } } } } } } } } } }  ...L g.A @./ =                   X j a.8.>                             d 0.0.d             ",
"} } } } } } } } } } } } } } } } } } } | L g.R $.) 6                   X j a.m >                             d 0.0.d             ",
"} } } } } } } } } } } } } } } } } } } | L g.R $.) 6                   X j a.m >                             d 0.0.d             ",
"} } } } } } } } } } } } } } } } } } } | L g.Z a r 9 6 6 6 6 6 6 6 6 6 - z a.0.j < @                         d 0.0.d   & = 6 6 6 ",
"} } } } } } } } } } } } } } } } } } } | L g.M 2 6 r ) ) ) ) ) ) ) ) ) ( D s.h.q.n <                         d 0.0.d . 7 / ) ) ) ",
"} } } } } } } } } } } } } } } } } } } | G r.V 2 7 / } } } } } } } } } | G r.f.j.0.d                 + * * * 4 Z Z 4 = t { } } } ",
"} } } } } } } } } } } } } } } } } } }  .o.=.s y / [ } } } } } } } } }  .o.=.Y f.0.d               O 7 t t t i s s i ^ ] } } } } ",
"} } } } } } } } } } } } } } } } } } } } } } } } } } } } } } } } } } } } } } G u.0.f O O O O O O O * t { } } } } } } } } } } } } ",
"} } } } } } } } } } } } } } } } } } } } } } } } } } } } } } } } } } } } } } G u.e.S e e e e e e e r _ } } } } } } } } } } } } } ",
"} } } } } } } } } } } } } } } } } } } } } } } } } } } } } } } } } } } } } } s u.u.s { { { { { { { { } } } } } } } } } } } } } } ",
"} } } } } } } } } } } } } } } } } } } } } } } } } } } } } } } } } } } } } } #.L L #.} } } } } } } } } } } } } } } } } } } } } } ",
"} } } } } } } } } } } } } } } } } } } } } } } } } } } } } } } } } } } } } } | ....| } } } } } } } } } } } } } } } } } } } } } } ",
"} } } } } } } } } } } } } } } } } } } } } } } } } } } } } } } } } } } } } } } } } } } } } } } } } } } } } } } } } } } } } } } } "
};
