/* XPM */
static char *monster_stand[] = {
/* columns rows colors chars-per-pixel */
"64 64 221 2 ",
"   c #010000",
".  c #0B0001",
"X  c #0A000A",
"o  c gray4",
"O  c #120000",
"+  c #1E0000",
"@  c #150015",
"#  c #1D001D",
"$  c #151515",
"%  c #230000",
"&  c #2E0000",
"*  c #330000",
"=  c #3B0000",
"-  c #330009",
";  c #230023",
":  c #2C002C",
">  c #380023",
",  c #320032",
"<  c #3C003C",
"1  c #343434",
"2  c #460002",
"3  c #4A0000",
"4  c #570000",
"5  c #450013",
"6  c #630000",
"7  c #6C0000",
"8  c #750000",
"9  c #4D003C",
"0  c #420042",
"q  c #4D004D",
"w  c #451345",
"e  c #530053",
"r  c #5B005B",
"t  c #473647",
"y  c #630063",
"u  c #6A006A",
"i  c #760076",
"p  c #7B007B",
"a  c #7D1B7D",
"s  c #5B5B5B",
"d  c #724863",
"f  c #626262",
"g  c #6F6F6F",
"h  c #850000",
"j  c #8D0001",
"k  c #940000",
"l  c #9C0000",
"z  c #8A0019",
"x  c #A40000",
"c  c #AC0000",
"v  c #A00009",
"b  c #B30000",
"n  c #BF0000",
"m  c #BF000B",
"M  c #BF0014",
"N  c #BF0019",
"B  c #810020",
"V  c #AE0028",
"C  c #BF0023",
"Z  c #BF0028",
"A  c #BF0032",
"S  c #BF003D",
"D  c #C10006",
"F  c #C90000",
"G  c #C2000C",
"H  c #D90101",
"J  c #C30013",
"K  c #C6001C",
"L  c #CA001F",
"P  c #DB0010",
"I  c red",
"U  c #F90309",
"Y  c #EE0E13",
"T  c #FE0218",
"R  c #C70020",
"E  c #C90024",
"W  c #CA002D",
"Q  c #C20035",
"!  c #CC0032",
"~  c #CD003C",
"^  c #FF0029",
"/  c #FE0036",
"(  c #FF2E2E",
")  c #FC3838",
"_  c #890056",
"`  c #AA0049",
"'  c #BF0044",
"]  c #BF004D",
"[  c #BF0054",
"{  c #BF005B",
"}  c #990065",
"|  c #9D1F70",
" . c #BF0066",
".. c #BF0069",
"X. c #BF0077",
"o. c #BF007A",
"O. c #CD0043",
"+. c #C80048",
"@. c #D00045",
"#. c #D2004D",
"$. c #C70058",
"%. c #D40054",
"&. c #D7005E",
"*. c #E3005E",
"=. c #F90250",
"-. c #C00063",
";. c #C70069",
":. c #D70067",
">. c #D80063",
",. c #DC006C",
"<. c #C10075",
"1. c #C70079",
"2. c #DC0075",
"3. c #D0007A",
"4. c #DD007E",
"5. c #F2006A",
"6. c #FE0074",
"7. c #FD007D",
"8. c #CC4B5B",
"9. c #D45252",
"0. c #FC5656",
"q. c #DA4168",
"w. c #FF4876",
"e. c #FF7F7F",
"r. c #840084",
"t. c #890187",
"y. c #8C018C",
"u. c #95008A",
"i. c #940094",
"p. c #9B009B",
"a. c #A300A3",
"s. c #AB00A6",
"d. c #AC00AC",
"f. c #B401B4",
"g. c #BD00B6",
"h. c #BB00BA",
"j. c #AE28AE",
"k. c #C20083",
"l. c #C5008A",
"z. c #DE0086",
"x. c #C30094",
"c. c #C0009B",
"v. c #DE0098",
"b. c #E10086",
"n. c #EA0086",
"m. c #E2008C",
"M. c #EC1C8C",
"N. c #E50095",
"B. c #E6009D",
"V. c #FE0096",
"C. c #E53098",
"Z. c #C000A3",
"A. c #C100A9",
"S. c #C804AC",
"D. c #D300A2",
"F. c #C100B4",
"G. c #CD00B4",
"H. c #C200BC",
"J. c #CC00BE",
"K. c #D700B7",
"L. c #E800A3",
"P. c #E300AB",
"I. c #E700B5",
"U. c #EC00B3",
"Y. c #EE00BC",
"T. c #FE01B8",
"R. c #966496",
"E. c #B452B4",
"W. c #C300C3",
"Q. c #C605C1",
"!. c #CA00CA",
"~. c #D700C9",
"^. c #CB16C9",
"/. c #D400D4",
"(. c #DE00D4",
"). c #DB00DB",
"_. c #EE00C2",
"`. c #E400C9",
"'. c #F200C5",
"]. c #F200CB",
"[. c #E600DC",
"{. c #F400D3",
"}. c #F600DA",
"|. c #FC00DB",
" X c #DA30DA",
".X c #E300E3",
"XX c #E507E4",
"oX c #EB00EB",
"OX c #F500E3",
"+X c #F900E5",
"@X c #F203E9",
"#X c #FB00EC",
"$X c #F400F4",
"%X c #FC00F4",
"&X c #FE00FE",
"*X c #FE0BFE",
"=X c #FD19FA",
"-X c #FA30FA",
";X c #CD47CD",
":X c #D34DD3",
">X c #DC73C1",
",X c #DC6BDC",
"<X c #F673DA",
"1X c #EC76EC",
"2X c #FE6AFE",
"3X c #808080",
"4X c #AB99AB",
"5X c #FC9E9E",
"6X c #C99FA8",
"7X c #F097A4",
"8X c #FFBABA",
"9X c #EFBAC3",
"0X c #E4ADE4",
"qX c #EEBCEE",
"wX c #FFA8FF",
"eX c #C5C5C5",
"rX c #D3D3D3",
"tX c #F0C2C2",
"yX c #F7CBF7",
"uX c #FBE9FB",
"iX c #F5F3F5",
/* pixels */
"n n n n n n n n n n n n n n n G E ! ! W K D n n n n n n n n n n n n n n n n n n n n D K W ! ! E G D n n n n n n n n n n n n n n ",
"n n n n n n n n n n n n n n n W 2.L.L.N.%.J n n n n n n n n n n n n n n n n n n n n J %.N.L.L.2.W D n n n n n n n n n n n n n n ",
"n n n n n n n n n n n n n n n @.U.&X&X#Xm.W G D n n n n n n n n n n n n n n n n D G W m.OX$X$XP.@.n n n n n n n n n n n n n n n ",
"n n n n n n n n n n n n n n n @.U.&X&X%X'.m.%.K n n n n n n n n n n n n n n n n K %.z.K.(.).).D.~ n n n n n n n n n n n n n n n ",
"n n n n n n n n n n n n n n n @.U.%X%X%X%X#XB.~ D D D D D D D D D D D D D D D n ! B.OX(.W.H.H.l.Q n n n n n n n n n n n n n n n ",
"n n n n n n n n n n n n n n n W 2.B.B.L.].%X].b.>.>.>.>.>.>.>.>.>.>.>.>.>.>.%.+.3._.#XK.1.<.<.[ C n n n n n n n n n n n n n n n ",
"n n n n n n n n n n n n n n n G R W W ~ m.#X#X}.{.{.{.{.{.{.{.{.{.{.{.{.{.{.`.S.G.[.+Xz.Q C C N m n n n n n n n n n n n n n n n ",
"n n n n n n n n n n n n n n n n n n n J 2.+X&X&X&X&X&X&X&X&X&X&X&X&X&X&X&X&XoX)./..X[.,.J n n n n n n n n n n n n n n n n n n n ",
"n n n n n n n n n n n n n n n n n n n J 2.+X&X&X&X&X&X&X&X&X&X&X&X&X&X&X&X&X&X$X.X).J.;.m n n n n n n n n n n n n n n n n n n n ",
"n n n n n n n n n n n n n n n n n D J ! m.#X&X&X&X&X&X&X&X&X&X&X&X&X&X&X&X&X&X&X$X).G.;.C m n n n n n n n n n n n n n n n n n n ",
"n n n n n n n n n n n n n n n n n J %.N.'.%X&X&X&X&X&X&X&X&X&X&X&X&X&X&X&X&X&X&X&XoX[.D.<.' M n n n n n n n n n n n n n n n n n ",
"n n n n n n n n n n n n n n n D G ! m.}.#X#X#X#X%X&X&X&X&X&X&X&X&X&X&X&X&X&X&X%X#X#XOX~.A...C m n n n n n n n n n n n n n n n n ",
"n n n n n n n n n n n n n n n R %.2.z.m.m.m.m.m.L.}.&X&X&X&X&X&X&X&X&X&X&X&X}.L.m.m.z.3.;.-.{ S N n n n n n n n n n n n n n n n ",
"n n n n n n n n n n n n n n n ~ L.'.,.E K K K K #.U.&X&X&X&X&X&X&X&X&X&X&X&XU.#.K K K K N $.x.o.A n n n n n n n n n n n n n n n ",
"n n n n n n n n n n n n n R @.z.].@XC.9.9.9.9.9.q.M.U.}.&X&X&X&X&X&X&X&X}.U.M.q.9.9.9.9.9.q.S.c. .A N n n n n n n n n n n n n n ",
"n n n n n n n n n n n n D #.L.{.#X=X<X9XtXtXtXtX7Xq.%.L.%X&X&X&X&X&X&X%XL.%.q.7XtXtXtXtX9X>X^.F.c.o.S n n n n n n n n n n n n n ",
"n n n n n n n n n n n n G :.{.&X&X=X2XyXuXiXiXrX6X8.Q 4._.OX%X&X&X%XOX_.4.Q 8.6XrXiXiXuXyX1X^.!.W.Z.] n n n n n n n n n n n n n ",
"n n n n n n n n n n n n G :.{.&X&X*X-X2XwXuXeX3Xd | <.;.:.B.+X&X&X+XB.:.;.<.| d 3XeXuX0X,X XXX).!.Z.] n n n n n n n n n n n n n ",
"n n n n n n n n n n n G K 2.}.&X&X&X&X=X2XyX4Xt < t.F.;.W ,.'.#X#X'.,.W ;.F.t.< t 4XyX,X^.).$XoX/.A.$.M m n n n n n n n n n n n ",
"n n n n n n n n n n G @.4.U.#X&X&X&X&X*X-X,XE.a p f.(.P.m.n.7.7.7.7.n.m.P.[.f.p a E.,X XXXoX&X$XoX~.x.-.A m n n n n n n n n n n ",
"n n n n n n n n n n J 4.}.%X&X&X&X&X&X&XXX^.Q.f.W..X&X%X+XV./ T T / V.+X%X&X.XW.f.Q.^.XX$X&X&X&X&XoX~.A.{ M n n n n n n n n n n ",
"n n n n n n n n n n K b.#X&X&X&X&X&X&X&XoX).).)..X$X&X&X%XV.^ I I ^ V.%X&X&X$X.X).).).oX&X&X&X&X&X$X).F. .M n n n n n n n n n n ",
"n n n n n n n n n n K b.#X&X&X&X&X&X&X&X&X$X$X$X$X&X&X&X%XV.^ I I ^ V.%X&X&X&X$X$X$X$X&X&X&X&X&X&X$X).F. .M n n n n n n n n n n ",
"n n n n n n n n n n K b.#X&X&X&X&X&X&X&X&X&X&X&X&X$X@X{.T.M.) ( T T 6.T.{.@X$X&X&X&X&X&X&X&X&X&X&X$X).F. .M n n n n n n n n n n ",
"n n n n n n n n n n K b.#X&X&X&X&X&X&X&X&X&X&X&X$X.X~.n.=.w.5Xe.( U ^ =.n.~..X$X&X&X&X&X&X&X&X&X&X$X).F. .M n n n n n n n n n n ",
"n n n n n n n n n n K z.OX&X&X&X&X&X&X&X&X&X&X&XoX).G.*.T 0.8X5X) I I U *.G.).oX&X&X&X&X&X&X&X&X&XoX/.F. .M n n n n n n n n n n ",
"n n n n n n n n n n J 3.~.oX&X&X&X&X&X&X&X&X$X.X)..X`.5.T ( 0.0.Y H H P ,.`..X)..X$X&X&X&X&X&X$X.X/.!.F. .M n n n n n n n n n n ",
"n n n n n n n n n n M -.F.).$X&X&X&X&X&X&X&XoX/./.oX+X7.^ U U Y H D G L 4.OXoX/./.oX&X&X&X&X&XoX/.W.W.F. .M n n n n n n n n n n ",
"n n n n n n n n n n M  .F.!.)..X.X.X.X.X.X.X.X)..X$X%XT.6.=.P H F J @.2.U.%X$X.X)..X.X.X.X.X.X).!.W.W.F. .M n n n n n n n n n n ",
"n n n n n n n n n n M  .F.W.!.!.!.!.!.!.!.!.).oX&X&X&X#X|.n.E F D E b.}.#X&X&X&XoX).!.!.!.!.!.!.W.W.W.F. .M n n n n n n n n n n ",
"n n n n n n n n n n m ' o.c.F.W.h.f.p.r.r.r.i.a.d.d.d.d.s.} z h h z } s.d.d.d.d.a.y.r.r.r.p.f.W.W.F.c.o.' m n n n n n n n n n n ",
"n n n n n n n n n n n N A ..A.W.h.s.u , : : , < < < < < < > - & & - > < < < < < < , : : , u s.W.W.A...A N n n n n n n n n n n n ",
"n n n n n n n n n n n n m $.S.!.W.a.q X                                                 X q a.W.W.Z.] m n n n n n n n n n n n n ",
"n n n n n n n n n n n n G &.`.).!.a.q X                                                 X q a.W.W.Z.] n n n n n n n n n n n n n ",
"n n n n n n n n n n n n G &._.[.~.s.r @ X                                             X @ r s.H.F.x.' n n n n n n n n n n n n n ",
"n n n n n n n n n n n n D ! :.v.~.!.i.y , X                                         X , r t.f.Z.o.] C n n n n n n n n n n n n n ",
"n n n n n n n n n n n n n G J %.I.oX!.s.y @             o o o o o o o o             @ y a.f.h.l.S m n n n n n n n n n n n n n n ",
"n n n n n n n n n n n n n n n W 2.L.G.g.t.e , @     o 1 s f f f f f f s 1 o     @ , e t.f.Z.k.[ C n n n n n n n n n n n n n n n ",
"n n n n n n n n n n n n n n n G R +.k.g.d.a.u ;     $ g eXrXrXrXrXrXrXeXg $     ; u a.d.g.1.S N m n n n n n n n n n n n n n n n ",
"n n n n n n n n n n n n n n n n n M [ l.Z.h.y.e , , w R.0XqXqXqXqXqXqX0XR.w , , e y.h.s.u._ z j j j j k x n n n n n n n n n n n ",
"n n n n n n n n n n n n n n n n n m C ' o.g.s.i.r.r.y.j.;X:X:X:X:X:X:X;Xj.y.r.r.i.s.f.p 0 > - = = = = 2 8 b n n n n n n n n n n ",
"n n n n n n n n n n n n n n n n n n n m ] x.A.H.W.!.!.!.!.!.!.!.!.!.!.!.!.!.!.W.h.d.i.q X             . 3 k x x c b n n n n n n ",
"n n n n n n n n n n n n n n n n n n n n C ] X.A.!./..X.X.X.X.X.X.X.X.X.X.X.X/.!.s.i q ; X               % 3 4 4 7 l n n n n n n ",
"n n n n n n n n n n n n n n n n n n n n m M [ c.!..X$X$XoXoXoXoXoXoXoXoX$X&X.X!.p.e @ X                   . . . & 8 b n n n n n ",
"n n n n n n n n n n n n n n n n n n n n Z ] o.A.!./.).f.i.y.y.y.y.y.y.i.W.$XoX!.s.p q : X                       O 2 8 k n n n n ",
"n n n n n n n n n n n n n n n n n n n m ] c.F.H.W.!.f.u : # # # # # # : r..XoX!.h.f.p.q X                         . % 7 b n n n ",
"n n n n n n n n n n n n n n n n n m C +.k.~.!.!.f.i.i < X             X e p.f.h.W.W.f.p 0 ; X                       O 6 b n n n ",
"n n n n n n n n n n n n n n n n n M [ x.K.oX).!.a.y : @               X # < u a.W.W.h.s.y.e @                       O 6 b n n n ",
"n n n n n n n n n n n n n n n G E +.l.!..X&XoX!.i.0                         0 i.W.!.!.!.!.t.< # X                   O 6 b n n n ",
"n n n n n n n n n n n n n n n W 2.P.`.oX$X&XoX!.i.0                         0 i.!.)..XoX.Xh.t.e ;                   O 6 b n n n ",
"n n n n n n n n n n n n n G J %.Y.&X&X&X&X&X[.J.u.9 O O O .                 < t.H..X&X&X&X.X!.i.0 X X         . O O % 7 b n n n ",
"n n n n n n n n n n n n D ! ,.L.}.&X&X&XoX.XK.1.` B 6 6 4 = .               ; q r.!.&X&X&X$X.Xh.r.e ;       % 3 6 6 7 k n n n n ",
"n n n n n n n n n n n n G &.'.%X&X&X&X&X.X!.k.Q m b c c c 7 %               X X 0 s.$X&X&X&X&X.X!.i.q X     2 j c c b b n n n n ",
"n n n n n n n n n n n n G :.{.&X&X&X$X[.K.k.] N n n n n n j 4 3 3 = +           ; u s./.&X&X&X$X.XF._ 3 3 3 8 x n n n n n n n n ",
"n n n n n n n n n n n n G :.{.&X&X$X.XQ.1.Q M n n n n n n b x l l h =           X # 0 p.$X&X&X&X$X`.-.v l l c b n n n n n n n n ",
"n n n n n n n n n n n n D #.B.Y.Y.I.D.k.] m n n n n n n n n n n n c 7 * * * * * * * 5 } P.Y.Y.Y.Y.B.#.D n n n n n n n n n n n n ",
"n n n n n n n n n n n n n K O.#.#.+.O.A N n n n n n n n n n n n D b l h h h h h h h j V O.#.#.#.#.O.K n n n n n n n n n n n n n ",
"n n n n n n n n n n n n n n n n n n n n n n n n n n n n n n n n n D n n n n n n n n n n n n n n n n n n n n n n n n n n n n n n ",
"n n n n n n n n n n n n n n n n n n n n n n n n n n n n n n n n n n n n n n n n n n n n n n n n n n n n n n n n n n n n n n n n ",
"n n n n n n n n n n n n n n n n n n n n n n n n n n n n n n n n n n n n n n n n n n n n n n n n n n n n n n n n n n n n n n n n ",
"n n n n n n n n n n n n n n n n n n n n n n n n n n n n n n n n n n n n n n n n n n n n n n n n n n n n n n n n n n n n n n n n ",
"n n n n n n n n n n n n n n n n n n n n n n n n n n n n n n n n n n n n n n n n n n n n n n n n n n n n n n n n n n n n n n n n ",
"n n n n n n n n n n n n n n n n n n n n n n n n n n n n n n n n n n n n n n n n n n n n n n n n n n n n n n n n n n n n n n n n ",
"n n n n n n n n n n n n n n n n n n n n n n n n n n n n n n n n n n n n n n n n n n n n n n n n n n n n n n n n n n n n n n n n "
};
