/* XPM */
static char *_[] = {
/* columns rows colors chars-per-pixel */
"64 64 221 2 ",
"   c #000100",
".  c #0C0100",
"X  c #000A00",
"o  c #130000",
"O  c #1B0000",
"+  c #001300",
"@  c #011B01",
"#  c #0D1A0D",
"$  c #171900",
"%  c #161816",
"&  c #250000",
"*  c #2A0000",
"=  c #350000",
"-  c #3C0300",
";  c #350F00",
":  c #311600",
">  c #062302",
",  c #002C00",
"<  c #172A00",
"1  c #003600",
"2  c #0E3600",
"3  c #003B00",
"4  c #113D00",
"5  c #2A2D00",
"6  c #2E3300",
"7  c #3F3F3F",
"8  c #420000",
"9  c #4A0000",
"0  c #590000",
"q  c #500900",
"w  c #4B1E00",
"e  c #650000",
"r  c #6D0000",
"t  c #650D00",
"y  c #740000",
"u  c #7C0000",
"i  c #711400",
"p  c #493600",
"a  c #792800",
"s  c #653600",
"d  c #743200",
"f  c #054700",
"g  c #004D00",
"h  c #025601",
"j  c #005D00",
"k  c #194D10",
"l  c #274E00",
"z  c #394C00",
"x  c #036200",
"c  c #146600",
"v  c #027401",
"b  c #007F00",
"n  c #296A00",
"m  c #356700",
"M  c #247800",
"N  c #384338",
"B  c #397B39",
"V  c #484900",
"C  c #584E00",
"Z  c #545900",
"A  c #6E4D00",
"S  c #7C4200",
"D  c #714D00",
"F  c #6A5300",
"G  c #645A00",
"H  c #7C5800",
"J  c #566600",
"K  c #5A6500",
"L  c #536C00",
"P  c #4C7300",
"I  c #487500",
"U  c #427D00",
"Y  c #6D6B00",
"T  c #746300",
"R  c #657700",
"E  c #657800",
"W  c #6E7C2B",
"Q  c #585858",
"!  c #696969",
"~  c #6C766C",
"^  c #787878",
"/  c #8A0200",
"(  c #850800",
")  c #950000",
"_  c #9B0000",
"`  c #8B1A00",
"'  c #9D1800",
"]  c #A30000",
"[  c #AB0100",
"{  c #B20100",
"}  c #BF0000",
"|  c #B40B00",
" . c #B80800",
".. c #AB1300",
"X. c #A61900",
"o. c #A41C00",
"O. c #B11200",
"+. c #8E2E00",
"@. c #942B00",
"#. c #9C2900",
"$. c #8A3500",
"%. c #873B00",
"&. c #973400",
"*. c #943900",
"=. c #A32300",
"-. c #A12800",
";. c #A32A0E",
":. c #BC2A27",
">. c #B0392A",
",. c #8B4400",
"<. c #864B00",
"1. c #825100",
"2. c #A47E62",
"3. c #C07E7E",
"4. c #018401",
"5. c #008A00",
"6. c #0D8C00",
"7. c #198C00",
"8. c #019300",
"9. c #019A00",
"0. c #268A00",
"q. c #388400",
"w. c #358A00",
"e. c #2A9500",
"r. c #239B00",
"t. c #00A300",
"y. c #0BA700",
"u. c #00AC00",
"i. c #14A200",
"p. c #1DA300",
"a. c #13AC00",
"s. c #00B300",
"d. c #0CB300",
"f. c #02BD01",
"g. c #08B800",
"h. c #0ABA0A",
"j. c #18AC18",
"k. c #13B613",
"l. c #3DAD00",
"z. c #35B800",
"x. c #348434",
"c. c #27B527",
"v. c #32B528",
"b. c #3AA43A",
"n. c #4F8E00",
"m. c #5A8600",
"M. c #4D9700",
"N. c #4A9B00",
"B. c #43A500",
"V. c #41A900",
"C. c #00C100",
"Z. c #00CC00",
"A. c #00D300",
"S. c #00DB00",
"D. c #0BD90B",
"F. c #1ED600",
"G. c #17DF00",
"H. c #19DC00",
"J. c #14C414",
"K. c #29C800",
"L. c #23D000",
"P. c #01E300",
"I. c #00EC00",
"U. c #0DED00",
"Y. c #0FEF0F",
"T. c #13E500",
"R. c #02F400",
"E. c #0AF100",
"W. c #00FF00",
"Q. c #0CF30C",
"!. c #17E717",
"~. c #12EC12",
"^. c #1BE31B",
"/. c #2AC22A",
"(. c #24DB24",
"). c #2AD42A",
"_. c #28D828",
"`. c #34CB34",
"'. c #38C338",
"]. c #38D238",
"[. c #34F834",
"{. c #529152",
"}. c #43BC43",
"|. c #4DB54C",
" X c #56A956",
".X c #5BA45B",
"XX c #669866",
"oX c #6D936D",
"OX c #708B70",
"+X c #758975",
"@X c #70AC70",
"#X c #78B976",
"$X c #4AC04A",
"%X c #57CA57",
"&X c #48FD48",
"*X c #5FF65F",
"=X c #7AC17A",
"-X c #78EF78",
";X c #B9847E",
":X c #9CA17E",
">X c #8B8B8B",
",X c #8A968A",
"<X c #969696",
"1X c #90AF90",
"2X c #A6A9A6",
"3X c #B8B8B8",
"4X c #88CA88",
"5X c #91CB90",
"6X c #82EE82",
"7X c #A3C7A3",
"8X c #BECBBE",
"9X c #BFD2BF",
"0X c #B6FDB6",
"qX c #C6C5C5",
"wX c #C9CBC9",
"eX c #D8D9D8",
"rX c #CFF6CF",
"tX c #DDE1DD",
"yX c #E2E2E2",
"uX c #F5F6F5",
"iX c #FDFDFD",
/* pixels */
"} } } } } } } } } } } } } } } } } } } } } } } } } } } } } } } } } } } } } } } } } } } } } } } } } } } } } } } } } } } } } } } } ",
"} } } } } } } } } } } } } } } } } } } } } } | o.-.-.-.-.-.-.-.X.| } } } } } } } } } } } } } } } } } } } } } } } } } } } } } } } ",
"} } } } } } } } } } } } } } } } } } } } } } &.R M.M.M.M.M.M.M.Y #.} } } } } } } } } } } } } } } } } } } } } } } } } } } } } } } ",
"} } } } } } } } } } } } }  .| O.O.O.O.O.O.O.T K.R.R.R.R.R.R.R.z.1.O.O.O.O.O.O.O.O.O.O. .} } } } } } } } } } } } } } } } } } } } ",
"} } } } } } } } } } } }  .&.T R R R R R R E B.T.W.W.W.W.W.W.W.F.N.R R R R R R R R R Y *. .} } } } } } } } } } } } } } } } } } } ",
"} } } } } } } } } } } } | H K.T.T.T.T.T.T.T.U.R.W.W.W.W.W.W.W.R.U.T.T.T.T.T.T.T.T.T.L.Y O.} } } } } } } } } } } } } } } } } } } ",
"} } } } } } } } } }  .#.H N.T.W.W.W.W.W.W.W.W.W.W.W.W.W.W.W.W.W.W.W.W.W.W.W.W.W.W.W.U.B.T &.| } } } } } } } } } } } } } } } } } ",
"} } } } } } } } } } ..Y z.H.R.W.W.W.W.W.W.W.W.W.W.W.W.W.W.W.W.W.W.W.W.W.W.W.W.W.W.W.R.T.K.R o.} } } } } } } } } } } } } } } } } ",
"} } } } } } } } | =.<.B.E.W.W.W.W.W.W.W.W.W.W.W.W.W.W.W.W.W.W.W.W.W.W.W.W.W.W.W.W.W.W.W.R.M.-.} } } } } } } } } } } } } } } } } ",
"} } } } } } } } =.Y l.F.R.W.W.W.W.W.W.W.W.W.W.W.W.W.W.W.W.W.W.W.W.W.W.W.W.W.W.W.W.W.W.W.R.M.-.} } } } } } } } } } } } } } } } } ",
"} } } } } } } } *.B.W.W.W.W.W.W.W.W.W.W.W.W.W.W.W.W.W.W.W.W.W.W.W.W.W.W.W.W.W.W.W.W.W.W.R.B.*.O. .} } } } } } } } } } } } } } } ",
"} } } } } } } } *.B.W.W.W.W.W.W.W.W.W.W.W.W.W.W.W.W.W.W.W.W.W.W.W.W.W.W.W.W.W.W.W.W.W.W.W.L.N.T =.} } } } } } } } } } } } } } } ",
"} } } } } } }  .*.l.W.W.W.W.W.W.W.W.W.W.W.W.W.W.W.W.W.W.W.W.W.W.W.W.W.W.W.W.W.W.W.W.W.W.W.R.E.l.<.| |  . .} } } } } } } } } } } ",
"} } } } } } =.1.m.K.W.W.W.W.W.W.W.W.W.W.W.W.W.W.W.W.W.W.W.W.W.W.W.W.W.W.W.W.W.W.W.W.W.W.W.W.W.F.n.T T T *.| } } } } } } } } } } ",
"} } } } } } <.V.G.E.W.W.W.W.W.W.W.W.W.W.W.W.W.W.W.W.W.W.W.W.W.W.W.W.W.W.W.W.W.W.W.W.W.W.W.W.W.E.T.F.F.K.R ..} } } } } } } } } } ",
"} } }  .=.,.m.F.W.W.W.W.W.Q.^.(.(.(.(.(.(.(.!.Q.W.W.W.W.W.W.W.W.W.W.W.W.~.(.(.(.(.(.(.(.(.~.R.W.W.W.W.E.V.H #.| } } } } } } } } ",
"} } } | H B.L.U.W.W.W.W.W.(.|..X.X.X.X.X.X.X'.~.W.W.W.W.W.W.W.W.W.W.W.R._. X.X.X.X.X.X.X.X`.Q.W.W.W.W.W.H.z.E -.} } } } } } } } ",
"} } } O.R T.W.W.W.W.W.W.R.)..X+X,X>X^ ~ ^ ^ .X).Y.R.W.W.W.W.W.W.W.W.Q.^.}.+X>X>X>X^ ~ OXXX}.~.W.W.W.W.W.W.W.B.*.} } } } } } } } ",
"} } } O.R T.W.W.W.W.W.W.W.~.).%X7X3X~ 7 Q ^ oX X'.^.W.W.W.W.W.W.W.Q.).|.XX+X<X3X2X! N x.'.^.Q.W.W.W.W.W.W.W.B.*.} } } } } } } } ",
"} } | =.m.T.W.W.W.W.W.W.W.W.R.&X0XeX! % N ~ +X+X.X(.W.W.W.W.W.W.W.~.}.oX+X+X2XtXqXQ > 4.I.W.W.W.W.W.W.W.W.W.l.,.|  .} } } } } } ",
"} O.,.E z.E.W.W.W.W.W.W.W.W.W.&X0XeX! # k b.}.}.`.!.W.W.W.W.W.W.W.Q._.}.}.}.4XrXqXQ @ 4.I.W.W.W.W.W.W.W.W.W.L.M.H -.} } } } } } ",
"} =.m.H.E.W.W.W.W.W.W.W.W.W.W.&X0XeX! # v D.Q.Q.Q.R.W.W.W.W.W.W.W.W.Q.Q.Q.Q.*XrXqXQ @ 5.I.W.W.W.W.W.W.W.W.W.R.U.l.<.} } } } } } ",
"} =.n.P.R.W.W.W.W.W.W.W.W.W.W.[.-X5X{.h 8.S.I.W.W.W.W.W.W.W.W.W.W.W.W.W.W.W.[.6X4XB h t.R.W.W.W.W.W.W.W.W.W.R.I.z.H } } } } } } ",
"} =.P Z.P.W.W.W.W.W.W.W.W.W.W.Q._./.j.9.s.Z.S.R.W.W.W.W.W.W.W.W.W.W.W.W.W.W.~._./.j.t.Z.R.W.W.W.W.W.W.W.W.W.I.S.r.S } } } } } } ",
"} o.P g.A.I.R.R.R.W.W.W.W.W.W.R.S.Z.Z.Z.Z.Z.S.R.W.W.W.W.W.W.W.W.W.W.W.W.W.W.I.S.Z.Z.A.I.W.W.W.W.W.W.W.W.W.R.P.Z.e.S } } } } } } ",
"} o.P g.Z.A.A.A.S.R.W.W.W.W.W.W.I.I.I.I.I.I.R.W.W.W.W.W.W.W.W.W.W.W.W.W.W.W.R.I.I.I.I.R.W.W.W.W.W.W.W.W.I.S.Z.C.e.S } } } } } } ",
"} o.K a.g.f.C.C.Z.P.W.W.W.W.W.W.W.W.W.W.W.W.W.W.W.W.W.W.W.W.W.W.W.W.W.W.W.W.W.W.W.W.W.W.W.W.W.W.W.W.W.R.S.C.g.d.q.%.} } } } } } ",
"} | $.G w.g.C.C.C.A.S.S.S.I.W.W.W.W.W.W.W.W.W.W.W.W.W.W.W.W.W.W.W.W.W.W.W.W.W.W.W.W.W.W.W.R.P.P.R.W.I.S.Z.C.r.P S o.} } } } } } ",
"} } | o.K a.C.C.C.C.C.C.C.S.R.W.W.W.W.W.W.W.W.W.W.W.W.W.W.W.W.W.W.W.W.W.R.R.R.R.R.W.W.W.W.P.Z.A.I.R.S.C.f.g.U $.|  .} } } } } } ",
"} } } | G a.C.C.C.C.C.C.C.Z.S.I.R.W.W.W.W.W.W.W.W.W.W.W.W.W.W.W.W.Q.^.`.`.`.`.`._.~.W.R.P.A.C.A.I.R.S.g.r.I D o.} } } } } } } } ",
"} } } | G a.C.C.C.C.C.C.C.C.Z.S.R.W.W.W.W.W.W.W.W.W.W.W.W.W.W.W.W.~.}.XXoXoXoXoX X(.W.P.Z.C.C.A.I.R.S.g.P @... .} } } } } } } } ",
"} } } | S U r.g.C.C.g.p.e.p.g.Z.P.I.I.I.I.I.I.I.R.W.W.W.W.W.W.Q.^.].#X2X2X2X2X2X1X%X(.J.C.C.C.Z.P.P.A.d.K ..} } } } } } } } } } ",
"} } }  .o.$.K p.C.C.d.I S L a.C.Z.A.A.A.A.A.A.A.S.I.W.W.W.W.W.^.}.@X7XeXeXeXeXeX9X1X Xc.h.C.C.C.Z.Z.C.d.K ..} } } } } } } } } } ",
"} } } } } } S e.g.a.e.D ..D p.C.C.C.C.C.C.C.C.C.Z.P.R.R.R.R.R.(..X<XwXiXiXiXiXiXyX2X+Xb.h.C.C.C.C.C.C.d.K ..} } } } } } } } } } ",
"} } } } } } S e.a.I S #.| D p.C.C.C.C.C.C.C.C.C.C.A.S.S.S.S.S./..X<XwXiXiXiXiXiXyX2X+Xb.h.C.C.C.C.C.C.d.K ..} } } } } } } } } } ",
"} } } } } } S e.e.S | } | D p.C.C.C.C.C.C.C.C.C.C.C.C.C.C.C.C.c.{.,XqXuXiXiXiXiXtX2XOXb.h.C.C.C.C.C.C.d.K ..} } } } } } } } } } ",
"} } } } } } S e.e.S } }  .D p.C.C.C.C.C.C.C.C.C.C.C.C.C.C.C.C.k.b..X7XeXyXyXyXyX9X#Xb.j.h.C.C.C.C.C.C.d.K ..} } } } } } } } } } ",
"} } } } } } S e.e.S } } | D p.f.f.f.f.f.f.f.f.f.f.f.C.C.C.C.C.f.h.c.=X8XqXqXqXqX7X|.h.h.f.f.f.C.C.C.C.d.K ..} } } } } } } } } } ",
"} } } } } } S e.e.S | #.S I a.a.e.U U U U U U U w.a.f.C.C.C.C.C.C.J.$X#X:X;X3.3.2.W U U q.r.g.C.C.C.C.d.K ..} } } } } } } } } } ",
"} } } } } } S e.e.S ..A w.a.g.e.F @.@.@.@.@.@.@.D w.f.C.C.C.C.C.C.C.J.v.W >.:.:.:.;.@.@.+.K a.C.C.C.C.d.K ..} } } } } } } } } } ",
"} } } } } } S e.e.S ..K d.a.r.L @.} } } } } { _ a m 9.u.f.C.C.C.C.f.t.6.V ( ) ) ) ) ) ) / C i.C.C.C.C.d.K ..} } } } } } } } } } ",
"} } } } } } S e.e.S ..K a.w.F +...} } } } } ) 0 ; < g 4.s.C.C.C.C.u.v f < - 8 8 8 8 8 8 - l y.C.C.C.C.d.K ..} } } } } } } } } } ",
"} } } } } } S e.e.S ..K a.I ` [ [ [ [ [ [ [ y &     + j t.s.f.C.C.t.g X                   g t.C.C.f.s.y.Z ' [ [ [ } } } } } } } ",
"} } } } } } S e.e.S ..K a.M w 0 0 0 0 0 0 0 - o     X , h 4.s.C.C.t.g                     g t.C.C.u.4.h 5 q 0 0 r _ } } } } } } ",
"} } } } } } S e.e.S X.J y.v > . . . . . . . .           + h t.C.C.t.g                     f 9.f.f.t.h + X . . . = u { } } } } } ",
"} } } } } } S e.7.V t m d.8.j 3 +                         g t.C.C.t.g                     , x 5.u.t.g           O 9 u _ } } } } ",
"} } } } } } S e.8.f $ c s.s.t.v ,                         g t.C.C.t.g                     X @ f 8.t.g             o * y { } } } ",
"} } } } } } +.L m 6 ; z q.p.g.6.6 = = = = = & .           g t.s.9.v 3                         1 5.t.g               o e { } } } ",
"} } } } } } ..@.+.` / ` %.L a.0.s / / / / / 0 O           g t.9.j , +                         1 5.t.g               o e { } } } ",
"} } } } } } } } } } } }  .D p.w.$.} } } } } u *           g t.8.g @ X                         1 5.t.g               o e { } } } ",
"} } } } } } } } } } } }  .D p.w.$.} } } } } u *           g t.u.5.x ,                         1 5.t.g               o e { } } } ",
"} } } } } } } } } } } }  .D p.w.$.} } } } { y &           f 8.s.s.9.f                       X 3 4.8.f               o e { } } } ",
"} } } } } } } } } } } }  .D p.w.$.} } } ) r 8 o           , h b t.t.g                     > g j x h ,               o e { } } } ",
"} } } } } } } } } } } }  .D p.w.$.} } { r & .             X + f 5.t.g                     f 8.4.3 + X               o e { } } } ",
"} } } } } } } } } } } }  .D p.w.$.{ _ y 8 .                   1 5.t.g                   X g t.5.1                   o e { } } } ",
"} } } } } } } } } } } }  .D p.w.$.] e * o                     1 5.t.g                     g t.5.1                   o e { } } } ",
"} } } } } } } } } }  ...@.Z 7.n d u -                         1 5.t.g X                   4 M n 5 * * * * * * * * * - u { } } } ",
"} } } } } } } } } } | S I n f < : = O                         1 5.t.g                     : s a i u u u u u u u u u / ] } } } } ",
"} } } } } } } } } } ..G r.c $ o o o o o o o o o o o o o o o o 2 5.t.f o o o o o o o o o O 0 ] } } } } } } } } } } } } } } } } } ",
"} } } } } } } } } } | +.F s t e e e e e e e e e e e e e e e e p 7.i.z t e e e e e e e e r / { } } } } } } } } } } } } } } } } } ",
"} } } } } } } } } } }  .| | { { { { { { { { { { { { { { { [ [ d w.r.A [ { { { { { { { { { { } } } } } } } } } } } } } } } } } } ",
"} } } } } } } } } } } } } } } } } } } } } } } } } } } } } ' S G J K @. .} } } } } } } } } } } } } } } } } } } } } } } } } } } } ",
"} } } } } } } } } } } } } } } } } } } } } } } } } } } }  .S w.U S o.| } } } } } } } } } } } } } } } } } } } } } } } } } } } } } ",
"} } } } } } } } } } } } } } } } } } } } } } } } } } } }  .D p.w.$.} } } } } } } } } } } } } } } } } } } } } } } } } } } } } } } "
};
