/* XPM */
static char *result[] = {
/* columns rows colors chars-per-pixel */
"40 40 100 2 ",
"   c black",
".  c #0C0C00",
"X  c #0F0F00",
"o  c gray3",
"O  c gray4",
"+  c #181818",
"@  c #191919",
"#  c #1D1D1D",
"$  c #242400",
"%  c #262600",
"&  c #2C2C08",
"*  c #383808",
"=  c #242418",
"-  c #282818",
";  c #2C2C1D",
":  c #202020",
">  c #272727",
",  c gray22",
"<  c #404000",
"1  c #4E4E00",
"2  c #585800",
"3  c #4C4C18",
"4  c #585818",
"5  c #6C6C00",
"6  c #444420",
"7  c #404030",
"8  c #484848",
"9  c #4C4C4C",
"0  c #585858",
"q  c #6C6C48",
"w  c #73734C",
"e  c #787848",
"r  c #606060",
"t  c gray40",
"y  c #6C6C60",
"u  c #686868",
"i  c gray46",
"p  c gray47",
"a  c #858500",
"s  c #848418",
"d  c #A8A800",
"f  c #A4A408",
"g  c #BFBF00",
"h  c #A7A718",
"j  c #A2A21D",
"k  c #8C8C20",
"l  c #B0B020",
"z  c #BCBC20",
"x  c #ACAC30",
"c  c #BFBF30",
"v  c #C0C000",
"b  c #CBCB00",
"n  c #CECE00",
"m  c #C7C708",
"M  c #D0D000",
"N  c #D3D300",
"B  c #D7D700",
"V  c #DBDB00",
"C  c #DFDF08",
"Z  c #C0C018",
"A  c #C4C418",
"S  c #CBCB18",
"D  c #D7D718",
"F  c #E5E500",
"G  c #EAEA00",
"H  c #EFEF00",
"J  c #EBEB08",
"K  c #F2F200",
"L  c #F3F300",
"P  c #FAFA00",
"I  c #FBFB00",
"U  c yellow",
"Y  c #F7F708",
"T  c #F5F50A",
"R  c #E3E318",
"E  c #E5E519",
"W  c #E7E718",
"Q  c #D3D320",
"!  c #DFDF20",
"~  c #CBCB30",
"^  c #CBCB34",
"/  c #C7C738",
"(  c #848448",
")  c #888848",
"_  c #808050",
"`  c #A0A048",
"'  c #ACAC48",
"]  c #B7B748",
"[  c #A4A450",
"{  c #A7A758",
"}  c #848460",
"|  c #909060",
" . c #949460",
".. c #9C9C60",
"X. c #9C9C63",
"o. c #989868",
"O. c #888878",
"+. c #A0A060",
"@. c #808080",
"#. c None",
/* pixels */
"#.#.#.#.#.#.#.#.#.#.#.#.#.#.#.#.#.#.#.#.#.#.#.#.#.#.#.#.#.#.#.#.#.#.#.#.#.#.#.#.",
"#.#.#.#.#.#.#.#.#.#.#.#.#.#.#.#.#.#.#.#.#.#.#.#.#.#.#.#.#.#.#.#.#.#.#.#.#.#.#.#.",
"#.#.#.#.#.#.#.#.#.#.#.#.#.#.#.#.#.#.#.#.#.#.#.#.#.#.#.#.#.#.#.#.#.#.U U #.#.#.#.",
"#.#.#.#.#.#.#.#.#.#.#.#.#.#.#.#.#.#.#.#.#.#.#.#.#.#.#.#.#.#.#.#.#.#.U U #.#.#.#.",
"#.#.#.#.#.#.#.#.#.#.#.#.#.#.#.#.#.#.#.#.#.#.        #.#.#.#.#.#.#.#.U U #.#.    ",
"#.#.#.#.#.#.#.#.#.#.#.#.#.#.#.#.#.#.#.#.#.#.; + o   #.#.#.#.#.#.#.#.P U #.#.    ",
"#.#.#.#.#.#.#.#.#.#.#.#.#.#.#.#.#.#.U H M j w 8 +       #.#.#.#.v N K U #.#.    ",
"#.#.#.#.#.#.#.#.#.#.#.#.#.#.#.#.#.#.U H M l | r :     O #.#.#.#.N V L G #.#.    ",
"#.#.#.#.#.#.#.#.#.#.#.#.#.#.#.#.#.#.U H M l | r :     @ 0 +.! P K L I b 1       ",
"#.#.#.#.#.#.#.#.#.#.#.#.#.#.#.#.#.#.U L V A ' ) 4 < < 4 ) ] W U U Y W h *       ",
"#.#.#.#.#.#.#.#.#.#.#.#.#.#.#.#.U U U I L J R D m g g m D W Y U U W ] e -       ",
"#.#.#.#.#.#.#.#.#.#.#.#.#.#.#.#.U U U U U U U U U U U U U U U I L S ( 8 +       ",
"#.#.#.#.#.#.#.#.#.#.#.#.#.#.U U U U U U U U U U U U U U U U U L V f 3 + o   #.#.",
"#.#.#.#.#.#.#.#.#.#.#.#.#.#.U U U U U U U U U I L J R ! ! ! ! S f 5 $       #.#.",
"#.#.#.#.#.#.#.#.#.#.#.#.U U U U U U U U U U U L V A ' +.+.+.+.( 3 $ .   #.#.#.#.",
"#.#.#.#.#.#.#.#.#.#.#.#.U U U I L L I U U U U L V Z ` } y r r 8 +       #.#.#.#.",
"#.#.#.#.#.#.#.#.#.#.U U U U U L V V L U U U U I L C Z k 6 : : + o   #.#.#.#.#.#.",
"#.#.#.#.#.#.#.#.#.#.U U U U U J A A J U U U U U U L V d 2 % X       #.#.#.#.#.#.",
"#.#.#.#.#.#.#.#.U U U U U U U R ' ' R U U U U U U I L B d a #.#.#.#.#.#.#.#.#.#.",
"#.#.#.#.#.#.#.#.U U U U U Y W c _ ) D U U Y W W Y U U L V n #.#.#.#.#.#.#.#.#.#.",
"#.#.#.#.#.#.U U U U U U U W ] _ 7 4 m U U W ] ] W U U I L F n v #.#.#.#.#.#.#.#.",
"#.#.#.#.#.#.U U U I L J R c _ 8 + < g U U R ' [ ~ W Y U U L V n #.#.#.#.#.#.#.#.",
"#.#.v M H U U U U L V A ' _ 7 + o < g U U J A x [ ] W U U I L F n v #.#.#.#.#.#.",
"#.#.N V L I L J R S f s q 8 +     1 b U U L V z  .o./ R J L I L V n #.#.#.#.#.#.",
"U P K L I L V A ' ( 3 & = + o   #.#.G U U I L Q ..O.o.' A V L I L F n v #.#.#.#.",
"U T E ! ! S f s q 8 +           #.#.U U U U U ! +.p u q s f S W Y L V M #.#.#.#.",
"#.#.{ +.+.( 3 & = + o       #.#.#.#.U U U U U ! +.u , = & 3 ( ] W I L H #.#.#.#.",
"#.#.@.@.@.r :               #.#.#.#.U U U U U ! +.r :     # 9 _ c W Y U #.#.#.#.",
"#.#.#.#.#.#.#.#.#.#.#.#.#.#.#.#.#.#.U U U U U ! +.r :   #.#.# 7 _ ] W U #.#.#.#.",
"#.#.#.#.#.#.#.#.#.#.#.#.#.#.#.#.#.#.H L I U U ! +.r :   #.#.  : r X.^ ! #.#.#.#.",
"#.#.#.#.#.#.#.#.#.#.#.#.#.#.#.#.#.#.M V L U U ! +.r :   #.#.#.#.#.#.X.+.#.#.#.#.",
"#.#.#.#.#.#.#.#.#.#.#.#.#.#.#.#.#.#.v N K U U ! +.r :   #.#.#.#.#.#.@.@.#.#.#.#.",
"#.#.#.#.#.#.#.#.#.#.#.#.#.#.#.#.#.#.#.#.P U U ! +.r :   #.#.#.#.#.#.#.#.#.#.#.#.",
"#.#.#.#.#.#.#.#.#.#.#.#.#.#.#.#.#.#.#.#.H L I ! +.r :   #.#.#.#.#.#.#.#.#.#.#.#.",
"#.#.#.#.#.#.#.#.#.#.#.#.#.#.#.#.#.#.#.#.M V L ! +.r :   #.#.#.#.#.#.#.#.#.#.#.#.",
"#.#.#.#.#.#.#.#.#.#.#.#.#.#.#.#.#.#.#.#.v N K ! +.r :   #.#.#.#.#.#.#.#.#.#.#.#.",
"#.#.#.#.#.#.#.#.#.#.#.#.#.#.#.#.#.#.#.#.#.#.P ! +.r :   #.#.#.#.#.#.#.#.#.#.#.#.",
"#.#.#.#.#.#.#.#.#.#.#.#.#.#.#.#.#.#.#.#.#.#.H Q ..t >   #.#.#.#.#.#.#.#.#.#.#.#.",
"#.#.#.#.#.#.#.#.#.#.#.#.#.#.#.#.#.#.#.#.#.#.M z  .i #.#.#.#.#.#.#.#.#.#.#.#.#.#.",
"#.#.#.#.#.#.#.#.#.#.#.#.#.#.#.#.#.#.#.#.#.#.v l | @.#.#.#.#.#.#.#.#.#.#.#.#.#.#."
};
