/* XPM */
static char *result[] = {
/* columns rows colors chars-per-pixel */
"40 40 220 2 ",
"   c #010101",
".  c #090C0B",
"X  c #151500",
"o  c #021110",
"O  c #131313",
"+  c #1C1C1C",
"@  c #182911",
"#  c #252500",
"$  c #3B3B00",
"%  c #022828",
"&  c #272727",
"*  c #3D3D3D",
"=  c #28461E",
"-  c #4A4A00",
";  c #515112",
":  c #4F6D1D",
">  c #6D6D00",
",  c #717605",
"<  c #0D5346",
"1  c #354747",
"2  c #0A6B65",
"3  c #097575",
"4  c #464645",
"5  c #455A5A",
"6  c #575858",
"7  c #7B7B41",
"8  c #4D6868",
"9  c #626262",
"0  c #707070",
"q  c #7E7E7E",
"w  c #FF0300",
"e  c #F51E00",
"r  c #FD1B00",
"t  c #CB2D01",
"y  c #C7291F",
"u  c #C82A1F",
"i  c #CA361D",
"p  c #F93603",
"a  c #FF3B2B",
"s  c #C54000",
"d  c #C75400",
"f  c #EC4700",
"g  c #E65600",
"h  c #FD5800",
"j  c #C96200",
"k  c #D86800",
"l  c #C07A00",
"z  c #DD7400",
"x  c #FB6800",
"c  c #E87907",
"v  c #CC722F",
"b  c #EA7A3B",
"n  c #A14746",
"m  c #986246",
"M  c #7A8E14",
"N  c #03817E",
"B  c #28A179",
"V  c #7AB645",
"C  c #7AC147",
"Z  c #6BC358",
"A  c #53C673",
"S  c #6EC666",
"D  c #898900",
"F  c #909000",
"G  c #BEBE01",
"H  c #B0B01F",
"J  c #B0B234",
"K  c #C98A03",
"L  c #D58D00",
"P  c #C89B00",
"I  c #E18F00",
"U  c #FB8700",
"Y  c #E49800",
"T  c #FF9500",
"R  c #CCAB00",
"E  c #DBBD00",
"W  c #EFA903",
"Q  c #FBB300",
"!  c #FFBA00",
"~  c #B4CC25",
"^  c #C3C302",
"/  c #CAC305",
"(  c #CACA00",
")  c #D2C908",
"_  c #C8D30B",
"`  c #D4D400",
"'  c #D9D804",
"]  c #C3C31B",
"[  c #C6DA19",
"{  c #E4DD00",
"}  c #F4D600",
"|  c #F5D900",
" . c #FFDD03",
".. c #FBDC17",
"X. c #D8EB15",
"o. c #E2E201",
"O. c #EDED00",
"+. c #E9E808",
"@. c #F9E500",
"#. c #FBEB00",
"$. c #F3F300",
"%. c #FBF407",
"&. c #FEFE00",
"*. c #FDFC0C",
"=. c #E6E811",
"-. c #E5F614",
";. c #FBFB12",
":. c #F8F41B",
">. c #FDFD1A",
",. c #D1D627",
"<. c #CFCF3B",
"1. c #F4F429",
"2. c #FDFE2D",
"3. c #ECEC3A",
"4. c #FBFB36",
"5. c #878747",
"6. c #ADAD4F",
"7. c #86867E",
"8. c #B6B668",
"9. c #BDBD74",
"0. c #DF857D",
"q. c #89D750",
"w. c #B9CD41",
"e. c #B0EA4E",
"r. c #D5CD48",
"t. c #FFFF44",
"y. c #F1F149",
"u. c #E1E15B",
"i. c #CFCF62",
"p. c #D6D963",
"a. c #DADA7A",
"s. c #EEE96B",
"d. c #FCFD74",
"f. c #FCFC7C",
"g. c #009F9F",
"h. c #19B89E",
"j. c #2FA18F",
"k. c #04A8A8",
"l. c #09B8B7",
"z. c #3CA2A2",
"x. c #439E9E",
"c. c #7F8080",
"v. c #70BBBB",
"b. c #21C09F",
"n. c #34C893",
"m. c #0BC0B5",
"M. c #03C0BD",
"N. c #0BC2BF",
"B. c #1CC4B0",
"V. c #34CAB2",
"C. c #48C782",
"Z. c #51D180",
"A. c #73DCA5",
"S. c #00C0C0",
"D. c #0BC2C2",
"F. c #1CC6C5",
"G. c #2CCBCB",
"H. c #37CDCD",
"J. c #5CD6C9",
"K. c #46D1D1",
"L. c #57D5D5",
"P. c #5ED7D7",
"I. c #64D8D8",
"U. c #6CDADA",
"Y. c #77DDDD",
"T. c #828282",
"R. c #8B8B8B",
"E. c #999999",
"W. c #A2A28E",
"Q. c #B6B694",
"!. c #A2A2A2",
"~. c #ACACAB",
"^. c #BBBBA7",
"/. c #B7B7B7",
"(. c #DF8580",
"). c #E18787",
"_. c #B1E1B7",
"`. c #CECE93",
"'. c #E4E48C",
"]. c #FBFB86",
"[. c #FFFF92",
"{. c #C7C7AA",
"}. c #DEDEA8",
"|. c #EDC4B8",
" X c #EDEDAA",
".X c #F7E7AF",
"XX c #FAFAA5",
"oX c #F9FAB8",
"OX c #A3D8CE",
"+X c #97E5E5",
"@X c #A9EAEA",
"#X c #B3ECEA",
"$X c #BBEEEE",
"%X c #C5C5C5",
"&X c #CBCBCB",
"*X c #D6D5C2",
"=X c #D1D1D1",
"-X c #DADAD7",
";X c #DBDBDB",
":X c #F0C4C4",
">X c #EBFACB",
",X c #F1F1C8",
"<X c #FFFFCE",
"1X c #EBEBD6",
"2X c #F8F8DA",
"3X c #C0EFEF",
"4X c #C5F1F1",
"5X c #D1F4F4",
"6X c #D8F5F5",
"7X c #E2E2E1",
"8X c #ECECEB",
"9X c #EFF0E6",
"0X c #F6F6E2",
"qX c #FEFEE4",
"wX c #FCFCEA",
"eX c #E8F8F8",
"rX c #F3F3F2",
"tX c ivory",
"yX c #F3FCFC",
"uX c #FFFFFF",
/* pixels */
"uXuXuXuXuXuXuXuXuXuXuXuXuXuXuXuXuXuXeX5X6X6X6X6X6X6X6X6XyXuXuXuXuXuXuXuXuXuXuXuX",
"uXuXuXuXuXuXuXuXuXuXuXuXuXuXuXuXuXeXI.G.G.G.G.G.G.G.G.K.4XuXuXuXuXuXuXuXuXuXuXuX",
"uXuXuXuXuXuXuXuXuXuXuXuXuXuXyX@XY.U.F.S.S.S.S.S.S.S.S.D.L.#XuXuXuXuXuXuXuXuXuXuX",
"uXuXuXuXuXuXuXuXuXuXuXuXuXyX$XK.S.S.S.S.S.S.S.l.S.S.S.S.S.U.yXuXuXuXuXuXuXuXuXuX",
"uXuXuXuXuXuXuXuXyXyXyXyXyX3XH.D.S.S.m.l.l.l.l.l.m.N.M.S.M.U.uXuXuXuXuXuXuXuXuXuX",
"uXuXuXuXuXuXuXyX+XP.L.P.I.K.D.S.S.m.A 5.n n n m V C C V b.U.uXuXuXuXuXuXuXuXuXuX",
"uXuXuXuXuXuXeX+XG.S.S.S.b.A Z.C.C.A ~ Y h f e p E ` ` _ S A.-XrXuXuXuXuXuXuXuXuX",
"uXuXuXuXuXuX$XH.F.F.F.B.S ~ X.[ ~ ~ +.#.@.E g p ..:.;.$./ J W.8XuXuXuXuXuXuXuXuX",
"uXuXuXuXuXuXeX$X$X$X#Xe.a.'.,.s.oX X4.&.&.$.x a .XoXf.*.$.' 6.2XuXuXuXuXuXuXuXuX",
"uXuXuXuXuXuXuXuXuX<X].d.f.'.a.>XuXtX[.4.#.T c b 2XuX<Xd.>.o._ a.,XuXuXuXuXuXuXuX",
"uXuXuXuXuXuXuXuX0Xf.2.<Xa.<.2X7X=X;XrX[.@.h c i.*X;X7X2Xt.O.) ^ a.8XuXuXuXuXuXuX",
"uXuXuXuXuXuXuXwXp.=.2.<Xa.<.1Xq & 4 %X[.%. .s.{.* & 0 2Xt.%.O.( 6.~.rXuXuXuXuXuX",
"uXuXuXuXuXuXuXqXy.3.].d.3.3.1X6   + /.[.&.&.].%X+   6 ,Xt.&.$.( H 8.9XuXuXuXuXuX",
"uXuXuXuXuXuXuXqXt.y.[.2.&.2.XX5.$ ; `.].3.1.f.`.; $ 7  X4.&.$.( G <.0XuXuXuXuXuX",
"uXuXuXuXuXuXuXqXt.;.:.%.&.*.>.+.' o.:.u.{.{.u.1.+.' +.>.*.&.#./ R <.0XuXuXuXuXuX",
"uXuXuXuXuXuXuXqXt.! h h Q &.&.&.&.;.u.}.7X&X`.u.*.&.&.&.&.! x f L <.2XuXuXuXuXuX",
"uXuXuXuXuXuXuXqXt.T w w U &.&.&.&.;.`.=X1X/.Q.i.;.&.&.&.&.T w w k <.0XuXuXuXuXuX",
"uXuXuXuXuXuXuXqXt.T r r U #.&.&.&.;.a.{.^.7.6.( $.&.&.&.#.U r r z <.2XuXuXuXuXuX",
"uXuXuXuXuXuXuXqXt.@.! ! c z #.&.&.*.1.,.<.H ) $.&.&.&.#.z j L Q E <.2XuXuXuXuXuX",
"uXuXuXuXuXuXuXqXy.$.&.&.R d I } &.&.*.O.' ' O.&.&.&.| Y j K ' o.] 8.8XuXuXuXuXuX",
"uXuXuXuXuXuXuX0Xi.=.%.&.o.P s I | | | | } } } | } } Y s P { O.( 6.~.rXuXuXuXuXuX",
"uXuXuXuXuXuXuXuX2Xd.*.&.&.o.R d t t t t t t t t t t d R o.o.( ^ a.8XuXuXuXuXuXuX",
"uXuXuXuXuXuXuXeX+XA.q.-.&.%.o.K v 0.).).).).).).(.v K ' &.o.G V _.uXuXuXuXuXuXuX",
"uXuXuXuXuXuXwX>XA.n.C.y.>.&.&.o.<.|.:X:X:X:X:X:X|.r.` &.$.[ C m.U.5XyXuXuXuXuXuX",
"uXuXuXuXuXuXoX2.1.[ w.,Xd.*.&.&.W i u u y y u u y K ' $.` V h.m.m.J.8XtXuXuXuXuX",
"uXuXuXuXuXuXXX;.{ r. XtX<Xd.>.*.#.Y K l l l l l K E o.( > = < q.e.e.p.>XuXuXuXuX",
"uXuXuXuXuXuXXX:.] 9.;XyXuX>Xe.X.$.&.o.` ` ` ' ` _ o.^ , #   X F ' $.^ 8.%XrXuXuX",
"uXuXuXuXuXuXoX4.6.T.E.7XeX#XV.C [ -.$.$.$.$.$.$.O._ M @       X F O.G ; 6 -XyXuX",
"uXuXuXuXuXuXqXoXW.c.T.E.v.H.N.b.n.A ~ _ ` ` ` ( _ Z h.3 %       D $.G - O 6 &XuX",
"uXuXuXuXuXuXuXrX!.c.T.c.z.S.S.D.k.2 : > > > > > , B l.l.3 %     - D > #   + /.uX",
"uXuXuXuXuXuXuXrX!.c.c.c.j.k.M.l.N o             o 3 k.k.g.2 O             + /.uX",
"uXuXuXuXuXuXuXrX!.c.c.q 1 < k.x.5 .               5 5 % % 1 6 O           + /.uX",
"uXuXuXuXuXuXuXyX=X!.T.q 9 8 OXOX~.R.R.4           & * 4 6 T.E.6 +   . 6 T.E.;XuX",
"uXuXuXuXuXuXuXuXuX&XT.q T.E.8XyXuXuXuX~.* * +       & 9 E./.!.R.6 * * /.uXuXuXuX",
"uXuXuXuXuXuXuXuXuX&XR.R.R.!.8XuXuXuXuXrX7X7X0 . O . . & 0 R.R.R./.7X7XrXuXuXuXuX",
"uXuXuXuXuXuXuXuXuX8X=X&X=X;XrXuXuXuXuXuXuXuX&X!.!.!.!.!.%X=X&X=X8XuXuXuXuXuXuXuX",
"uXuXuXuXuXuXuXuXuXuXuXuXuXuXuXuXuXuXuXuXuXuXuXuXuXuXuXuXuXuXuXuXuXuXuXuXuXuXuXuX",
"uXuXuXuXuXuXuXuXuXuXuXuXuXuXuXuXuXuXuXuXuXuXuXuXuXuXuXuXuXuXuXuXuXuXuXuXuXuXuXuX",
"uXuXuXuXuXuXuXuXuXuXuXuXuXuXuXuXuXuXuXuXuXuXuXuXuXuXuXuXuXuXuXuXuXuXuXuXuXuXuXuX",
"uXuXuXuXuXuXuXuXuXuXuXuXuXuXuXuXuXuXuXuXuXuXuXuXuXuXuXuXuXuXuXuXuXuXuXuXuXuXuXuX"
};
