/* XPM */
static char *stand3[] = {
/* columns rows colors chars-per-pixel */
"64 64 253 2 ",
"   c #010000",
".  c #0C0000",
"X  c #090C05",
"o  c #170000",
"O  c #141501",
"+  c #081313",
"@  c #141616",
"#  c #2B0000",
"$  c #370202",
"%  c #1C3619",
"&  c #282800",
"*  c #363601",
"=  c #3B3B00",
"-  c #093332",
";  c #2B2A2A",
":  c #373838",
">  c #440101",
",  c #580000",
"<  c #670000",
"1  c #730000",
"2  c #7D0000",
"3  c #711717",
"4  c #603800",
"5  c #563A3A",
"6  c #4C4D01",
"7  c #737300",
"8  c #014D4D",
"9  c #0F5050",
"0  c #3E4444",
"q  c #286E46",
"w  c #0C6A6A",
"e  c #3B7878",
"r  c #484B4B",
"t  c #5A5B5B",
"y  c #794645",
"u  c #6B5654",
"i  c #71754E",
"p  c #556C6A",
"a  c #4D7272",
"s  c #427E7E",
"d  c #726D6D",
"f  c #8B0505",
"g  c #970101",
"h  c #AA0202",
"j  c #B30000",
"k  c #BF0000",
"l  c #BB0B07",
"z  c #B40B0A",
"x  c #BF1201",
"c  c #BC1806",
"v  c #AA1515",
"b  c #A21D1D",
"n  c #B51414",
"m  c #BD3204",
"M  c #992727",
"N  c #8A3636",
"B  c #AB2525",
"V  c #AA2B2B",
"C  c #A53535",
"Z  c #C10A03",
"A  c #C31503",
"S  c #C51A01",
"D  c #C41616",
"F  c #C71C12",
"G  c #FF0100",
"H  c #FD0900",
"J  c #F91801",
"K  c #C82600",
"L  c #C02A00",
"P  c #C53500",
"I  c #CD3A00",
"U  c #F32800",
"Y  c #FE2900",
"T  c #FA3301",
"R  c #C82727",
"E  c #CD3736",
"W  c #CE3838",
"Q  c #BC5605",
"!  c #B75015",
"~  c #BF6601",
"^  c #B8700F",
"/  c #9D5F30",
"(  c #A7502D",
")  c #D04B00",
"_  c #CB5200",
"`  c #F74D02",
"'  c #E75700",
"]  c #C66B00",
"[  c #D96700",
"{  c #D76B01",
"}  c #C87600",
"|  c #C17D00",
" . c #DA7600",
".. c #CE6918",
"X. c #F76400",
"o. c #E57400",
"O. c #FC7701",
"+. c #E07128",
"@. c #8D4F4B",
"#. c #965958",
"$. c #A64442",
"%. c #A0564D",
"&. c #9B7450",
"*. c #8D6665",
"=. c #8D7965",
"-. c #D26853",
";. c #D96C6C",
":. c #DD7777",
">. c #59963D",
",. c #13907D",
"<. c #549E5E",
"1. c #7D8950",
"2. c #74B24B",
"3. c #7CC246",
"4. c #68C25B",
"5. c #75CB55",
"6. c #4CC77A",
"7. c #79DB6B",
"8. c #878801",
"9. c #989D04",
"0. c #B2921B",
"q. c #A9A800",
"w. c #B9AF0E",
"e. c #B8B905",
"r. c #A9AA32",
"t. c #C58800",
"y. c #DB8400",
"u. c #C69A00",
"i. c #DA9405",
"p. c #E18700",
"a. c #E28C00",
"s. c #E79B00",
"d. c #FE9700",
"f. c #C5AA01",
"g. c #C7B600",
"h. c #D6B200",
"j. c #E7A901",
"k. c #FBA30C",
"l. c #ECB700",
"z. c #FCB900",
"x. c #CBB92D",
"c. c #B6C416",
"v. c #B8CA11",
"b. c #90C737",
"n. c #A7D12A",
"m. c #B2E939",
"M. c #C4C400",
"N. c #C9C305",
"B. c #CBCB01",
"V. c #D9C801",
"C. c #D3D300",
"Z. c #DBDB01",
"A. c #D9DA09",
"S. c #C4C517",
"D. c #D4D812",
"F. c #E8C906",
"G. c #F8C800",
"H. c #E3DE00",
"J. c #E8D803",
"K. c #F5D600",
"L. c #FDD500",
"P. c #DAEC14",
"I. c #E3E300",
"U. c #E4E707",
"Y. c #ECEC00",
"T. c #F6E602",
"R. c #FAE400",
"E. c #FBEC00",
"W. c #F4F401",
"Q. c #FCF400",
"!. c #FEFD00",
"~. c #F5F808",
"^. c #FDFD0B",
"/. c #E9E617",
"(. c #FCFC13",
"). c #FBFB1B",
"_. c #D5D52E",
"`. c #E0DC31",
"'. c #E4E426",
"]. c #FCE222",
"[. c #F9F624",
"{. c #FEFE24",
"}. c #FEFE29",
"|. c #EAEA35",
" X c #FCFC37",
".X c #988F46",
"XX c #8FB945",
"oX c #A4A447",
"OX c #A19F6B",
"+X c #E9A565",
"@X c #96DD56",
"#X c #A7E942",
"$X c #D4D44B",
"%X c #DBDB58",
"&X c #EFC55A",
"*X c #EEEA4C",
"=X c #FEFD48",
"-X c #FEFE57",
";X c #DBDB65",
":X c #CACA72",
">X c #DCDC78",
",X c #E5E56F",
"<X c #FEFE67",
"1X c #FBFB77",
"2X c #059494",
"3X c #378989",
"4X c #339796",
"5X c #13A996",
"6X c #2DB296",
"7X c #02A5A3",
"8X c #18A9A7",
"9X c #16BBAC",
"0X c #0AB5B4",
"qX c #05BAB9",
"wX c #44B8B8",
"eX c #28C199",
"rX c #39C990",
"tX c #16C1AB",
"yX c #0BC1B6",
"uX c #24C6A2",
"iX c #42C38B",
"pX c #00C0C0",
"aX c #0BC3C3",
"sX c #19C6C6",
"dX c #2DCBCB",
"fX c #4ACDCD",
"gX c #73D9D9",
"hX c #898989",
"jX c #968484",
"kX c #969695",
"lX c #B08F8F",
"zX c #A3A393",
"xX c #A8A7A7",
"cX c #B3B3AB",
"vX c #B6B6B3",
"bX c #E09696",
"nX c #E9A7A7",
"mX c #E2BFBF",
"MX c #CECE93",
"NX c #E4D095",
"BX c #ECEB89",
"VX c #FBFB89",
"CX c #FDFC96",
"ZX c #C9C9B2",
"AX c #FBFBA8",
"SX c #FBF6B3",
"DX c #98D8D8",
"FX c #CACACA",
"GX c #DADAD9",
"HX c #E1DCDC",
"JX c #F1F1D0",
"KX c #EAEDED",
"LX c #F8E3E3",
/* pixels */
"k k k k k k k k k k k k k k k k k k k k Z Z Z k k k k k k k k k k k k k k k k k k k k k k k k k k k k k k k k k k k k k k k k k ",
"k k k k k k k k k k k k k k k k k k k k k k Z D R R R B b b b b b b b b b b b b b b b z k k k k k k k k k k k k k k k k k k k k ",
"k k k k k k k k k k k k k k k k k k k k Z Z E :.bXbXbXjXa a a a a a a a a a a a a a p N z k k k k k k k k k k k k k k k k k k k ",
"k k k k k k k k k k k k k k k k k k k k Z D -.mXKXKXGXgX9XqXqXqXqXqXqXqXqXqXqXqXqXqX8Xt b z k Z k k k k k k k k k k k k k k k k ",
"k k k k k k k k k k k k k k k k k k k Z W ;.lXDXDXDXgXdXaXpXpXpXpXpXpXpXpXpXpXpXpXpX0X3Xt N z Z k k k k k k k k k k k k k k k k ",
"k k k k k k k k k k k k k k k k k k k D ;.mXDXfXsXsXsXaXpXpXpXpXpXpXpXpXpXpXpXpXpXpXqX0X8Xp b k k k k k k k k k k k k k k k k k ",
"k k k k k k k k k k k k k k k k k k k n ;.DXgXdXpXpXpXpXpXpXpXpXpXpXpXpXpXpXyXyXpXpXpXpXqXa b k k k k k k k k k k k k k k k k k ",
"k k k k k k k k k k k k k k k k k k k z d wXdXaXpXpXpXpXpXpXpXpXpXpXpXpXpXpXyXyXpXpXpXpXqXa b k k k k k k k k k k k k k k k k k ",
"k k k k k k k k k k k v M M M M M M M N a 0XpXpXpXpXyXtX6X6X4X4X4X4X4X4X6X6XeXeXeXeXeXtX0Xa b k k k k k k k k k k k k k k k k k ",
"k k k k k k k k k k z y a s s s s s s 3X4XqXpXpXpXpXyX6.2..X%.$.$.$.$.$.&.XX3.3.3.3.5.rX0Xa b k k k k k k k k k k k k k k k k k ",
"k k k k k k k k k z M p 0XpXqXqXqXqX0X9XtXtXtXtXtXtXeX5.c.y.T J J J H H ' g.M.M.M.M.c.4.6Xp M l k k k k k k k k k k k k k k k k ",
"k k k k k k k k v y p 4XqXpXpXpXpXyXrX4.5.@X5.4.4.4.5.n.A.l.d.O.o.' U J X.F.I.I.I.I.A.n.2.1.@.C n k k k k k k k k k k k k k k k ",
"k k k k k k k k M a 8X0X0XqXqXqXqXeX4.c.D.P.P.v.c.c.v.A.W.Q.E.J.V.i.` J O.R.^.^.~.Q.W.A.c.r..X#.B k k Z Z Z k k k k k k k k k k ",
"k k k k k k k k b y a a a a a <.6.7.@X;X`.U.'.%X;X;X%X|.^.!.!.W.I.l.' J +.*X<X<X=X{.Q.Y.Z.S.oX/ B k k k Z Z k k k k k k k k k k ",
"k k k k k k k k l v b b b b b ! x.|.BXJX,XD.`.BXAXCXVX=X^.!.!.!.Q.G.X.` +XSXAXCX1X X!.Q.W.A.S.t.m k k k k k k k k k k k k k k k ",
"k k k k k k k k k k k k k S I  .`.-XVXSXBX).[.=X}.^.).}.}.}.^.E.G.k.X.G.].=X}.^.).{.{.).!.I.B.u.Q m x k k k k k k k k k k k k k ",
"k k k k k k k k k k k Z Z ) s.`.BXAX,X$X>X[.^.^.!.^. X-X1X<X).G.O.` o.T.^.^.!.^. X-X<X-X^.I.B.g.u.~ m k k k k k k k k k k k k k ",
"k k k k k k k k k k k Z L  .K.=XSXJX;XS.>X}.!.!.!.^. X1XAXCX}.G.X.` i.~.!.!.!.^. X1XCX1X(.Y.C.M.M.w.Q n l k k k k k k k k k k k ",
"k k k k k k k k k k Z P ] h.T.=XSXJX;XS.>X}.!.!.!.~.'.%XAXCX}.R.z.k.&X).!.!.!.~.'.,XCX1X(.W.Y.Z.B.w./ $.V k k k k k k k k k k k ",
"k k k k k k k k k k A ] g.A.~.-XAXJX;XS.>X*X/.A.Z.Z.N._.VXVX}.!.!.[.VX*X/.C.Z.Z.S.$X1X<X(.!.!.Y.C.w..X=.( l k k k k k k k k k k ",
"k k k k k k k k k k S } V.|.<X1XVX1X|./.,X X'.S.Z.W.I.'.1XVX}.!.!.}.CX=X'.e.Z.W.U.'.1X<X(.!.!.Y.C.e.r..X( x k k k k k k k k k k ",
"k k k k k k k k k k S y.T.-XSXAX-X(.^.(.1X}.^.W.Q.W.B._.CXCX}.!.!.}.CX}.~.W.Q.W.D.$XCX<X(.!.!.Y.C.v.e.w.~ x k k k k k k k k k k ",
"k k k k k k k k k k S p.E.=XVX1X}.!.!.^.=X).!.!.!.W.Z._.<X1X*X*X*X*X1X).!.!.!.Q.U.|.<X=X^.!.!.Y.C.M.M.g.~ x k k k k k k k k k k ",
"k k k k Z k k k k k S p.E.(.}.}.(.!.!.!.).^.!.!.!.!.W.~.[.*XMXMXMXMX,X^.!.!.!.!.W.~.{.(.!.!.!.Y.C.M.M.g.~ x k k k k k k k k k k ",
"k k k k k k k k k k S p.E.E.L.G.G.L.E.!.!.E.Q.!.!.!.!.^.[.,XZXFXFXZX;X/.~.!.!.!.!.!.!.!.!.E.L.l.j.u.f.e.~ x k k k k k k k k k k ",
"k k k k k k k k k k S p.R.z.O.X.X.O.z.!.!.!.!.!.!.!.^.*X>XNXHXHXFXZXMX>X*X^.!.!.!.!.!.!.!.z.O.` ` ' t.f.~ x k k k k k k k k k k ",
"k k k k k k k k k k S p.R.d.Y G G Y d.Q.!.!.!.!.!.!.(.;XZXGXKXKXFXvXvXMX%X~.!.!.!.!.!.!.Q.d.Y G G J  .f.~ A k k k k k k k k k k ",
"k k k k k k k k k k S p.R.d.Y G G Y d.Q.!.!.!.!.!.!.(.;XZXFXGXFXcXzXOX$X`.~.!.!.!.!.!.!.Q.d.Y G G J  .f.~ x k k k k k k k k k k ",
"k k k k k k k k k k S p.R.d.T H H Y d.E.!.!.!.!.!.!.(.;XZXZXZXcXkXOXr.S.A.Q.!.!.!.!.!.!.E.d.Y H H U  .f.~ x k k k k k k k k k k ",
"k k k k k k k k k Z S p.R.G.d.X.' ' o.s.G.Q.!.!.!.!.^.|.;X:X:XOXoXoXS.Z.Y.Q.!.!.!.!.Q.G.s.o.' ' X.O.i.f.~ x k k k k k k k k k k ",
"k k k k k k k k Z Z S p.E.E.L.G.h.t._ I a.E.!.!.!.!.!.(.).'.S.w.w.S.A.W.Q.!.!.!.!.!.E.a.I _ t.h.G.K.V.g.~ x k k k k k k k k k k ",
"k k k k k k k k Z Z S  .J.W.!.W.Z.g.} )  .j.K.E.!.!.!.!.!.Y.Z.C.C.Z.Y.!.!.!.!.!.E.K.j. .) } g.Z.I.U.S.0.! x k k k k k k k k k k ",
"k k k k k k k k k k S ] V.I.Q.Q.W.H.h.t.] ) p.K.!.!.!.!.!.W.W.Y.Y.W.W.!.!.!.!.!.K.p.) ] t.h.H.I.Z.N.r..X( l k k k k k k k k k k ",
"k k k k k k k k k k x Q u.V.W.!.!.W.Z.N.} P [ j.K.K.K.K.K.K.K.K.K.K.K.K.K.K.K.K.j.[ P } g.Z.Y.I.B.w..X*.C z k k k k k k k k k k ",
"k k k k k k k k k k k m _ i.T.!.!.Q.W.I.h.| ] { [ [ [ [ [ [ [ [ [ [ [ [ [ [ [ [ { ] | h.H.I.Z.C.M.w.^ C n k k k k k k k k k k k ",
"k k k k k k k k k k k k A { J.~.!.!.!.Q.I.N.t.P S F F F F F F F F F F F F F F S P t.N.H.W.I.B.v.v.w.Q l k k k k k k k k k k k k ",
"k k k k k k k k k k Z Z l ( XX#XP.!.!.!.Y.I.h.} ..-.:.:.:.:.:.:.:.:.:.:.:.:.-...} h.H.Y.Q.I.B.c.2.2.( l Z Z Z Z k k k k k k k k ",
"k k k k k k k k k k k k z y 6X6.m.!.!.!.!.Q.H.g.x.NXLXLXLXLXLXLXLXLXLXLXLXLXNXx.g.H.W.Q.!.I.B.b.6.4Xy z k k Z Z k k k k k k k k ",
"k k k k k k k k k k l M y a 8XeX7.m.P.!.!.!.W.Z._.+XnXnXnXnXnXnXnXnXnXnXnXnX+Xx.B.Y.!.W.U.v.b.4.6X8Xa y M k k Z k k k k k k k k ",
"k k k k k k k k k k n u 3X8XqXyXuX6.m.~.!.!.Q.W.F.+.W W W W W W W W W W W W ..f.B.Y.Q.I.B.b.6.9X0XqX8X3Xu z Z k k k k k k k k k ",
"k k k k k k k k Z K ! 1.iXrXrX6X6X<.r.F.T.!.!.!.K. .I P L L L L L L L L L L ] f.Z.I.I.M.9.>.,.5X6XrXrXiX1.! K Z k k k k k k k k ",
"k k k k k k k k K { j.S.m.#X#XXX&.N ! [ j.E.!.!.E.G.j.i.t.| | | | | | | | | f.J.I.Z.M.8.6 % - q 2.#X#Xm.S.j.{ K k k k k k k k k ",
"k k k k k k k k I j.!.Q.T.E.!.l.) k k A { K.T.W.Q.!.Q.H.B.M.M.M.M.M.M.M.M.M.Z.Y.U.M.9.6 X     6 e.Q.Y.I.Y.Q.j.m j k k k k k k k ",
"k k k k k k k k I j.E.l.p.j.E.l.) k k Z I { i.V.I.W.Q.Y.I.I.I.I.I.I.I.I.I.I.H.Z.M.8.6 & X     6 e.Y.q.8.e.Y.f.4 < g k k k k k k ",
"k k k k k k k k I j.R.p.K { K.l.) k k k l c Q u.B.U.~.W.W.Q.Q.Q.Q.Q.Q.Q.Q.W.I.B.9.6 X X       6 q.C.7 & 8.I.q.= $ 2 j k k k k k ",
"k k k k k k k k I j.R. .S I y.{ K k k k M y i 2.5.@X#Xm.U.I.I.I.I.I.I.I.I.I.v.b.<.q 8 -       & 7 8.= O 7 I.q.* o > 2 g k k k k ",
"k k k k k k k k I j.R. .A A K S Z k k z y 4X8X9XtXuXrX3.v.B.B.B.B.B.B.B.B.B.b.6.9X7X2X8 X     X O & O O 7 I.q.*   o # 1 j k k k ",
"k k k k k k k Z K  .j._ Z k k k k z b N a 0XyXyXqX7X,.>.8.8.8.8.8.8.8.8.8.8.>.5XpXpX0Xw - + X         X 6 q.7 &     o < j k k k ",
"k k k k k k k k Z P I K Z k k k k v u 3X8XqXpXpX7Xw - % * * * * * * * * * * q 5XpXpXqX7X2X8 +         X & = * X     o < j k k k ",
"k k k k k k k k k k k k k k k k z M p 7X7X7X7X0X2X-                         - 2X0X7X7X7X7Xw - +                     o < j k k k ",
"k k k k k k k k k k k k k k k n C @.0 8 8 8 w 3Xe -                         - e 3Xw 8 8 8 9 r : @                   o < j k k k ",
"k k k k k k k k k k k k k k k V #.d 0 @ + + : t t ; . . . .                 ; t t : + + @ 0 d t ;             . . . o < j k k k ",
"k k k k k k k k k k k k k n C #.jXkXd t r 5 5 @.N 3 , , , $ .               @ : r : : r t d kXhXt : @       o > , , < f k k k k ",
"k k k k k k k k k k k k k V *.jXxXvXvXxXkXd @.B z h h h h < o                 X ; r d kXxXvXvXxXhXt ;       $ f h h j j k k k k ",
"k k k k k k k k k k k k k C *.hXkXxXxXxXjX#.C n k k k k k f , > > $ o           @ : t hXxXxXxXkXhXd 5 > > > < h k k k k k k k k ",
"k k k k k k k k k k k k k C *.hXhXhXhXjX#.B n k k k k k k j g g g 2 $             @ ; t hXhXhXhXhX*.N g g g h j k k k k k k k k ",
"k k k k k k k k k k k k k V #.*.*.*.*.#.C l k k k k k k k k k k Z h < # # # # # # # $ 5 *.*.*.*.*.#.V k k k k k k k k k k k k k ",
"k k k k k k k k k k k k k n B V V V V V n k k k k k k k k k k k k j g 2 2 2 2 2 2 2 f b V V V V V B n k k k k k k k k k k k k k ",
"k k k k k k k k k k k k k k k k k k k k k k k k k k k k k k k k k k k k k k k k k k k k k k k k k k k k k k k k k k k k k k k k ",
"k k k k k k k k k k k k k k k k k Z Z Z k k k k k k k k k k k k k k k k k k k k k k k k k k k k k k k k k k k k k k k k k k k k ",
"k k k k k k k k k k k k k k k k k k k k k k k k k k k k k k k k k k k k k k k k k k k k k k k k k k k k k k k k k k k k k k k k ",
"k k k k k k k k k k k k k k k k k k k k k k k k k k k k k k k k k k k k k k k k k k k k k k k k k k k k k k k k k k k k k k k k ",
"k k k k k k k k k k k k k k k k k k k k k k k k k k k k k k k k k k k k k k k k k k k k k k k k k k k k k k k k k k k k k k k k ",
"k k k k k k k k k k k k k k k k k k k k k k k k k k k k k k k k k k k k k k k k k k k k k k k k k k k k k k k k k k k k k k k k "
};
