/* XPM */
static char *_[] = {
/* columns rows colors chars-per-pixel */
"64 64 115 2 ",
"   c black",
".  c #060000",
"X  c #050500",
"o  c #080000",
"O  c #0C0000",
"+  c #0D0D00",
"@  c #120000",
"#  c #170000",
"$  c #180000",
"%  c #1E0000",
"&  c #1C1B00",
"*  c #220000",
"=  c #270000",
"-  c #290000",
";  c #2F0000",
":  c #320000",
">  c #360000",
",  c #380000",
"<  c #302D00",
"1  c #400000",
"2  c #450000",
"3  c #4A0000",
"4  c #4C0000",
"5  c #530000",
"6  c #550000",
"7  c #580000",
"8  c #5F0000",
"9  c #620000",
"0  c #640000",
"q  c #680000",
"w  c #6D0000",
"e  c #630E00",
"r  c #700000",
"t  c #770000",
"y  c #7A0000",
"u  c #7F0000",
"i  c #464300",
"p  c #635E00",
"a  c #800000",
"s  c #860000",
"d  c #8B0000",
"f  c #8E0000",
"g  c #8D0D00",
"h  c #900000",
"j  c #970000",
"k  c #9C0000",
"l  c #8E1300",
"z  c #A00000",
"x  c #A90000",
"c  c #AC0000",
"v  c #B40000",
"b  c #B90000",
"n  c #BF0000",
"m  c #C00300",
"M  c #C00600",
"N  c #C10900",
"B  c #C31000",
"V  c #C41200",
"C  c #C61A00",
"Z  c #C71F00",
"A  c #C82100",
"S  c #C82400",
"D  c #C92900",
"F  c #CB2F00",
"G  c #CC3100",
"H  c #CD3600",
"J  c #CF3F00",
"K  c #BE5F00",
"L  c #837D00",
"P  c #D14500",
"I  c #D24900",
"U  c #D34C00",
"Y  c #D45000",
"T  c #D65800",
"R  c #D86100",
"E  c #D96500",
"W  c #DA6900",
"Q  c #DB6C00",
"!  c #DC7000",
"~  c #DE7600",
"^  c #E07F00",
"/  c #A49B00",
"(  c #AF9900",
")  c #BBB100",
"_  c #E18200",
"`  c #E28400",
"'  c #E38800",
"]  c #E48E00",
"[  c #E99F00",
"{  c #C1B400",
"}  c #EAA200",
"|  c #EBA700",
" . c #EBA800",
".. c #ECAA00",
"X. c #EDAE00",
"o. c #E0B000",
"O. c #EFB900",
"+. c #F0BB00",
"@. c #F1BF00",
"#. c #D2C700",
"$. c #DED300",
"%. c #F3C400",
"&. c #F5CB00",
"*. c #E5DA00",
"=. c #F6D200",
"-. c #F7D600",
";. c #F9DB00",
":. c #F9DE00",
">. c #F2E600",
",. c #FAE100",
"<. c #FBE500",
"1. c #FCE900",
"2. c #FBEE00",
"3. c #FEEF00",
"4. c #FFF200",
/* pixels */
"n n n n n n n n n n n n n n n n n n n n n n n n n n n n n n n n n n n n n n n n n n n n n n n n n n n n n n n n n n n n n n n n ",
"n n n n n n n n n n n n n n n n n n n n n n n n n n n n n n n n n n n n n n n n n n n n n n n n n n n n n n n n n n n n n n n n ",
"n n n n n n n n n n n n n n n n n n n n n n n n n n n ^ } ] Q n n n n n n n n n n n n n n n n n n n n n n n n n n n n n n n n n ",
"n n n n n n n n n n n n n n n n n n n n n n n n n n ! 4.4.4.4.| N n n n n n n n n n n n n n n n n n n n n n n n n n n n n n n n ",
"n n n n n n n n n n n n n n n n n n n n n n n n n n E 3.4.4.4.4.@.V n n n n n n n n n n n n n n n n n n n n n n n n n n n n n n ",
"n n n n n n n n n n n n n n n n n n n n n n n n n n n I 1.4.4.4.4.=.A n n n n n n n n n n n n n n n n n n n n n n n n n n n n n ",
"n n n n n n n n n n n n n n n n n n n n n n n n n n n n G :.4.4.4.4.:.H n n n n n n n n n n n n n n n n n n n n n n n n n n n n ",
"n n n n n n n n n n n n n n n n n n n n n n n n n n n n n Z &.4.4.4.4.1.I n n n n n n n n n n n n n n n n n n n n n n n n n n n ",
"n n n n n n n n n n n n n n n n n n n n n n n n n n n n n n B O.4.4.4.4.3.E n A ` V n n n n n n n n n n n n n n n n n n n n n n ",
"n n n n n n n n n n n n n n n n n n n n n n n n n n n n n n n M [ 4.4.4.4.4.' =.4.=.S n n n n n n n n n n n n n n n n n n n n n ",
"n n n n n n n n n n n n n n n n n n n n n n n n n n n n n n n n n _ 4.4.4.4.4.4.4.4.,.H n n n n n n n n n n n n n n n n n n n n ",
"n n n n n n n n n n n n n n n n n n n n n n n n n n n n n n n n n n R 3.4.4.4.4.4.4.4.3.U n n n n n n n n n n n n n n n n n n n ",
"n n n n n n n n n n n n n n n n n n n n n n n n n n n n n n n n n n n P 1.4.4.4.4.4.4.4.4.W n n n n n n n n n n n n n n n n n n ",
"n n n n n n n n n n n n n n n n n n n n n n n n n n n n n n n n n n n n F ;.4.4.4.4.4.4.4.4.] n n n n n n n n n n n n n n n n n ",
"n n n n n n n n n n n n n n n n n n n n n n n n n n n n n n n n n n n n n Z &.4.4.4.4.4.4.4.4...M n n n n n n n n n n n n n n n ",
"n n n n n n n n n n n x 8 8 8 8 8 8 8 8 8 8 8 8 8 8 8 8 8 8 8 8 8 8 8 8 8 8 e { 4.4.4.4.4.4.4.4.@.l n n n n n n n n n n n n n n ",
"n n n n n n n n n n n x                                                       X / 4.4.4.4.4.4.4.4.o.n n n n n n n n n n n n n n ",
"n n n n n n n n n n n n o                                                         L 4.4.4.4.4.4.4.K n n n n n n n n n n n n n n ",
"n n n n n n n n n n n n =                                                           p 2.4.4.4.4.$.g n n n n n n n n n n n n n n ",
"n n n n n n n n n n n n 2                                                             i >.4.4.4.4.&.Z n n n n n n n n n n n n n ",
"n n n n n n n n n n n n 9                                                               < *.4.4.4.4.;.F n n n n n n n n n n n n ",
"n n n n n n n n n n n n u                                                                 & #.4.4.4.4.1.I n n n n n n n n n n n ",
"n n n n n n n n n n n n k                                                                   + ) 4.4.4.4.3.E n n n n n n n n n n ",
"n n n n n n n n n n n n b                                                                     X ( 4.4.4.4.4.' n n n n n n n n n ",
"n n n n n n n n n n n n n $                                                                     r ~ 4.4.4.4.4.| N n n n n n n n ",
"n n n n n n n n n n n n n >                                                                     h n T 3.4.4.4.4.+.n n n n n n n ",
"n n n n n n n n n n n n n 5                 . 8 8 8 *     6 8 8 :     5 8 8 ,                   c n n J <.4.4.4.4.C n n n n n n ",
"n n n n n n n n n n n n n r                 O n n n 2     x n n 0     z n n r                 o n n n n D -.4.4.4.Y n n n n n n ",
"n n n n n n n n n n n n n f                 O n n n 2     x n n 0     z n n r                 - n n n n n C %.4.4.W n n n n n n ",
"n n n n n n n n n n n n n c                 O n n n 2     x n n 0     z n n r                 2 n n n n n n N X. .n n n n n n n ",
"n n n n n n n n n n n n n n o               O n n n 2     x n n 0     z n n r                 9 n n n n n n n m M n n n n n n n ",
"n n n n n n n n n n n n n n =               O n n n 2     x n n 0     z n n r                 u n n n n n n n n n n n n n n n n ",
"n n n n n n n n n n n n n n 2               O n n n 2     x n n 0     z n n r                 k n n n n n n n n n n n n n n n n ",
"n n n n n n n n n n n n n n 0               O n n n 2     x n n 0     z n n r                 b n n n n n n n n n n n n n n n n ",
"n n n n n n n n n n n n n n a               O n n n 2     x n n 0     z n n r               # n n n n n n n n n n n n n n n n n ",
"n n n n n n n n n n n n n n k               O n n n 2     x n n 0     z n n r               > n n n n n n n n n n n n n n n n n ",
"n n n n n n n n n n n n n n b               O n n n 2     x n n 0     z n n r               5 n n n n n n n n n n n n n n n n n ",
"n n n n n n n n n n n n n n n $             O n n n 2     x n n 0     z n n r               w n n n n n n n n n n n n n n n n n ",
"n n n n n n n n n n n n n n n >             O n n n 2     x n n 0     z n n r               d n n n n n n n n n n n n n n n n n ",
"n n n n n n n n n n n n n n n 6             O n n n 2     x n n 0     z n n r               x n n n n n n n n n n n n n n n n n ",
"n n n n n n n n n n n n n n n r             O n n n 2     x n n 0     z n n r             . n n n n n n n n n n n n n n n n n n ",
"n n n n n n n n n n n n n n n f             O n n n 2     x n n 0     z n n r             * n n n n n n n n n n n n n n n n n n ",
"n n n n n n n n n n n n n n n c             O n n n 2     x n n 0     z n n r             1 n n n n n n n n n n n n n n n n n n ",
"n n n n n n n n n n n n n n n n o           O n n n 2     x n n 0     z n n r             8 n n n n n n n n n n n n n n n n n n ",
"n n n n n n n n n n n n n n n n -           O n n n 2     x n n 0     z n n r             y n n n n n n n n n n n n n n n n n n ",
"n n n n n n n n n n n n n n n n 2           O n n n 2     x n n 0     z n n r             j n n n n n n n n n n n n n n n n n n ",
"n n n n n n n n n n n n n n n n 0           o f f f >     a f f 3     t f f 5             v n n n n n n n n n n n n n n n n n n ",
"n n n n n n n n n n n n n n n n a                                                       @ n n n n n n n n n n n n n n n n n n n ",
"n n n n n n n n n n n n n n n n k                                                       ; n n n n n n n n n n n n n n n n n n n ",
"n n n n n n n n n n n n n n n n b                                                       4 n n n n n n n n n n n n n n n n n n n ",
"n n n n n n n n n n n n n n n n n $                                                     q n n n n n n n n n n n n n n n n n n n ",
"n n n n n n n n n n n n n n n n n ,                                                     s n n n n n n n n n n n n n n n n n n n ",
"n n n n n n n n n n n n n n n n n 6                                                     z n n n n n n n n n n n n n n n n n n n ",
"n n n n n n n n n n n n n n n n n r                                                   . n n n n n n n n n n n n n n n n n n n n ",
"n n n n n n n n n n n n n n n n n h                                                   % n n n n n n n n n n n n n n n n n n n n ",
"n n n n n n n n n n n n n n n n n c                                                   , n n n n n n n n n n n n n n n n n n n n ",
"n n n n n n n n n n n n n n n n n n O                                                 7 n n n n n n n n n n n n n n n n n n n n ",
"n n n n n n n n n n n n n n n n n n 0 5 5 5 5 5 5 5 5 5 5 5 5 5 5 5 5 5 5 5 5 5 5 5 5 h n n n n n n n n n n n n n n n n n n n n ",
"n n n n n n n n n n n n n n n n n n n n n n n n n n n n n n n n n n n n n n n n n n n n n n n n n n n n n n n n n n n n n n n n ",
"n n n n n n n n n n n n n n n n n n n n n n n n n n n n n n n n n n n n n n n n n n n n n n n n n n n n n n n n n n n n n n n n ",
"n n n n n n n n n n n n n n n n n n n n n n n n n n n n n n n n n n n n n n n n n n n n n n n n n n n n n n n n n n n n n n n n ",
"n n n n n n n n n n n n n n n n n n n n n n n n n n n n n n n n n n n n n n n n n n n n n n n n n n n n n n n n n n n n n n n n ",
"n n n n n n n n n n n n n n n n n n n n n n n n n n n n n n n n n n n n n n n n n n n n n n n n n n n n n n n n n n n n n n n n ",
"n n n n n n n n n n n n n n n n n n n n n n n n n n n n n n n n n n n n n n n n n n n n n n n n n n n n n n n n n n n n n n n n "
};
