/* XPM */
static char *wall[] = {
/* columns rows colors chars-per-pixel */
"64 64 106 2 ",
"   c #020101",
".  c #0C0303",
"X  c #0D0D0D",
"o  c #131313",
"O  c #1F1515",
"+  c #1C1C1C",
"@  c #240000",
"#  c #350000",
"$  c #3E0404",
"%  c #232323",
"&  c #2F2F2F",
"*  c #392020",
"=  c #323232",
"-  c #3A3A3A",
";  c #4C0000",
":  c #510B0B",
">  c #5F0F0F",
",  c #720000",
"<  c #7B0000",
"1  c #442424",
"2  c #4D2828",
"3  c #7D3636",
"4  c #434343",
"5  c #494444",
"6  c #494949",
"7  c #544A4A",
"8  c #525252",
"9  c #5B5B5B",
"0  c #646464",
"q  c #6F6F6F",
"w  c #737373",
"e  c #7A7A7A",
"r  c #830101",
"t  c #9C0000",
"y  c #B60202",
"u  c #BE0000",
"i  c #823B3B",
"p  c #C71717",
"a  c #C91919",
"s  c #FF0101",
"d  c #FC0A0A",
"f  c #F71717",
"g  c #FA1313",
"h  c #F61B1B",
"j  c #FD1C1C",
"k  c #DF3030",
"l  c #F32424",
"z  c #FF2323",
"x  c #F12A2A",
"c  c #FF2F2F",
"v  c #E13232",
"b  c #EE3232",
"n  c #EB3D3D",
"m  c #FF3131",
"M  c #B67070",
"N  c #BB7474",
"B  c #E64A4A",
"V  c #FF4444",
"C  c #F44848",
"Z  c #FF4B4B",
"A  c #E35656",
"S  c #E05D5D",
"D  c #FF5353",
"F  c #FF5D5D",
"G  c #DE6464",
"H  c #DB6C6C",
"J  c #DC7373",
"K  c #D77979",
"L  c #EF6868",
"P  c #FF7D7D",
"I  c #808080",
"U  c #8B8B8B",
"Y  c #919191",
"T  c #9B9B9B",
"R  c #A3A3A3",
"E  c #ACACAC",
"W  c #B3B3B3",
"Q  c #BDBDBD",
"!  c #D48282",
"~  c #D18B8B",
"^  c #CE9595",
"/  c #CC9A9A",
"(  c #FF8282",
")  c #FC8B8B",
"_  c #FF9393",
"`  c #FF9A9A",
"'  c #C8A6A6",
"]  c #C6ACAC",
"[  c #C4B4B4",
"{  c #C2BABA",
"}  c #C0BDBD",
"|  c #FFBCBC",
" . c #C0C0C0",
".. c #CDCDCD",
"X. c gray82",
"o. c #D8D8D8",
"O. c gray87",
"+. c #FEC0C0",
"@. c #FFC7C7",
"#. c #FFD7D7",
"$. c gray90",
"%. c gray92",
"&. c #FFEAEA",
"*. c gray94",
"=. c #FFF1F1",
"-. c #F9F9F9",
/* pixels */
"- q e e e e e e e e e e e e e e e e e e e e e e e e e e e e e e e e e e e e e e e e e e e e e e e e e e e w 0 8 & . @ ; , t u u ",
"q ..$.$.$.$.$.$.$.$.$.$.$.$.$.$.$.$.$.$.$.$.$.$.$.$.$.$.$.$.$.$.$.$.$.$.$.$.$.$.$.$.$.$.$.$.$.$.$.$.$.$.$.X.Q T 6 X   . # < u u ",
"e $.-.*.%.%.%.%.%.%.%.%.%.%.%.%.%.%.%.%.%.%.%.%.%.%.%.%.%.%.%.%.%.%.%.%.%.%.%.%.%.%.%.%.%.%.%.%.%.%.%.%.%.o.Q T 6 X X + * > r t ",
"e $.*.O.X.X.X.X.X.X.X.X.X.X.X.X.X.X.X.X.X.X.X.X.X.X.X.X.X.X.X.X.X.X.X.X.X.X.X.X.X.X.X.X.X.X.X.X.X.X.X.X.X.Q R e 4 X % 6 7 1 $ , ",
"e $.%.X. . . . . . . . . . . . . . . . . . . . . . . . . . . . . . . . . . . . . . . . . . . . . . . . . .E Y q - X & 0 0 - O : ",
"e $.%.X. . . . . . . . . . . . . . . . . . . . . . . . . . . . . . . . . . . . . . . . . . . . . . . . . .E Y q - X & 0 w 9 5 2 ",
"e $.%.X. . . . . . . . . . . . . . . . . . . .} } { { { { { { { }  . . . . . . . . . . . . . . . . . . . .E Y q - X & 0 e e w 5 ",
"e $.%.X. . . . . . . . . . . . . . . . . . . .} ' ~ K K K K K ~ ] }  . . . . . . . . . . . . . . . . . . .E Y q - X & 0 I I e 6 ",
"e $.%.X. . . . . . . . . . . . . . . . . . . .{ ~ B x x x x x A ~ }  . . . . . . . . . . . . . . . . . . .E Y q - X & 0 I I e 6 ",
"e $.%.X. . . . . . . . . . . . . . . . . .{ ] / J C m m c j d l G / ] }  . . . . . . . . . . . . . . . . .E Y q - X & 0 I I e 6 ",
"e $.%.X. . . . . . . . . . . . . . . . . .[ ! A L ) ` ` _ D j g b A ! [  . . . . . . . . . . . . . . . . .E Y q - X & 0 I I e 6 ",
"e $.%.X. . . . . . . . . . . . . . . . . .' S h F +.=.&.#.( z s d f G ]  . .Q Q Q Q W W Q Q Q Q  . . . . .E Y q - X & 0 I I e 6 ",
"e $.%.X. . . . . . . . . . . . . . . . . .' A f F @.&.| ) D g s s g S ]  . .Q W R Y e e U R W Q  . . . . .E Y q - X & 0 I I e 6 ",
"e $.%.X. . . . . . . . . . . . . . . . . .' A f F @.#.P c g d s s g S ]  . .Q R U 0 = = 9 U R W  . . . . .E Y q - X & 0 I I e 6 ",
"e $.%.X. . . . . . . . . . . . . . . . . .' A g V _ ` Z d s s s s g S ] Q W R U 0 - o o - 0 U W  . . . . .E Y q - X & 0 I I e 6 ",
"e $.%.X. . . . . . . . . . . . . . . . . .' A g j V V z s s s s s g S ] W R U 9 = + . . + = 0 E  . . . . .E Y q - X & 0 I I e 6 ",
"e $.%.X. . . . . . . . . . . . . . . . . .] G h d d s s s s s d d l G ] E U 0 = .       . o 9 R  . . . . .E Y q - X & 0 I I e 6 ",
"e $.%.X. . . . . . . . . . . . . . . . . .[ ~ G n f s s s s s f n G ~ [ T 0 - +       X % 4 w E  . . . . .E Y q - X & 0 e I e 6 ",
"e $.%.X. . . . . . . . . . . . . . . . . .} [ ] H l s s s s s x J ] [ } U - .         o 4 w T W  . . . . .E Y q - X & 0 e I e 6 ",
"e $.%.X. . . . . . . . . . . . . . . . . . . .} ~ S k p y a v S ^ }  .Q U =       X + - 0 Y R Q  . . . . .E Y q - X & 0 I I e 6 ",
"e $.%.X. . . . . . . . . . . . . . . . . . . .} ] ^ M 3 : i N / ] }  .Q U =       % 6 q U E W Q  . . . . .E Y q - X & 0 I I e 6 ",
"e $.%.X. . . . . . . . . . . . . . . . . . . . . . .T 6 o 8 R  . .Q Q W U 4 + + + 4 w Y E Q  . . . . . . .E Y q - X & 0 I I e 6 ",
"e $.%.X. . . . . . . . . . . . . . . . . . . . . . .T 6 o 8 R  . .Q E R U w 0 0 0 e T E W Q Q  . . . . . .E Y q - X & 0 I I e 6 ",
"e $.%.X. . . . . . . . . . . . . . . . . . . . . . .T 6 o 8 R Q Q Q R U T R W W W W Q Q Q Q  . . . . . . .E Y q - X & 0 I I e 6 ",
"e $.%.X. . . . . . . . . . . . . . . . . . . . . . .T 6 o 8 R Q W R R T R W  . . . . . . . . . . . . . . .E Y q - X & 0 I I e 6 ",
"e $.%.X. . . . . . . . . . . . . . . . . . . . . . .T 6 o 8 R W T Y T E W Q  . . . . . . . . . . . . . . .E Y q - X & 0 I I e 6 ",
"e $.%.X. . . . . . . . . . . . . . . . . . . . . . .T 6 o 6 T E T Y R Q  . . . . . . . . . . . . . . . . .E Y q - X & 0 I I e 6 ",
"e $.%.X. . . . . . . . . . . . . . . . . . . . . . .T 6 o 4 I T R E W Q  . . . . . . . . . . . . . . . . .E Y q - X & 0 I I e 6 ",
"e $.%.X. . . . . . . . . . . . . . . . . . . . . . .T 6 o - w Y E Q Q Q  . . . . . . . . . . . . . . . . .E Y q - X & 0 I I e 6 ",
"e $.%.X. . . . . . . . . . . . . . . . . . . . . . .T 6 o 4 I R W Q  . . . . . . . . . . . . . . . . . . .E Y q - X & 0 e I e 6 ",
"e $.%.X. . . . . . . . . . . . . . . . . . . . . . .T 6 o 6 T Q Q  . . . . . . . . . . . . . . . . . . . .E Y q - X & 0 e I e 6 ",
"e $.%.X. . . . . . . . . . . . . . . . . . . . . . .R 0 - q E  . . . . . . . . . . . . . . . . . . . . . .E Y q - X & 0 I I e 6 ",
"e $.%.X. . . . . . . . . . . . . . . . . . . . . . .W T U T W  . . . . . . . . . . . . . . . . . . . . . .E Y q - X & 0 I I e 6 ",
"e $.%.X. . . . . . . . . . . . . . . . . . . . . . .Q Q Q Q Q  . . . . . . . . . . . . . . . . . . . . . .E Y q - X & 0 I I e 6 ",
"e $.%.X. . . . . . . . . . . . . . . . . . . . . . . . . . . . . . . . . . . . . . . . . . . . . . . . . .E Y q - X & 0 I I e 6 ",
"e $.%.X. . . . . . . . . . . . . . . . . . . . . . . . . . . . . . . . . . . . . . . . . . . . . . . . . .E Y q - X & 0 I I e 6 ",
"e $.%.X. . . . . . . . . . . . . . . . . . . . . . . . . . . . . . . . . . . . . . . . . . . . . . . . . .E Y q - X & 0 I I e 6 ",
"e $.%.X. . . . . . . . . . . . . . . . . . . . . . . . . . . . . . . . . . . . . . . . . . . . . . . . . .E Y q - X & 0 I I e 6 ",
"e $.%.X. . . . . . . . . . . . . . . . . . . . . . . . . . . . . . . . . . . . . . . . . . . . . . . . . .E Y q - X & 0 I I e 6 ",
"e $.%.X. . . . . . . . . . . . . . . . . . . . . . . . . . . . . . . . . . . . . . . . . . . . . . . . . .E Y q - X & 0 I I e 6 ",
"e $.%.X. . . . . . . . . . . . . . . . . . . . . . . . . . . . . . . . . . . . . . . . . . . . . . . . . .E Y q - X & 0 I I e 6 ",
"e $.%.X. . . . . . . . . . . . . . . . . . . . . . . . . . . . . . . . . . . . . . . . . . . . . . . . . .E Y q - X & 0 e I e 6 ",
"e $.%.X. . . . . . . . . . . . . . . . . . . . . . . . . . . . . . . . . . . . . . . . . . . . . . . . . .E Y q - X & 0 e I e 6 ",
"e $.%.X. . . . . . . . . . . . . . . . . . . . . . . . . . . . . . . . . . . . . . . . . . . . . . . . . .E Y q - X & 0 I I e 6 ",
"e $.%.X. . . . . . . . . . . . . . . . . . . . . . . . . . . . . . . . . . . . . . . . . . . . . . . . . .E Y q - X & 0 I I e 6 ",
"e $.%.X. . . . . . . . . . . . . . . . . . . . . . . . . . . . . . . . . . . . . . . . . . . . . . . . . .E Y q - X & 0 I I e 6 ",
"e $.%.X. . . . . . . . . . . . . . . . . . . . . . . . . . . . . . . . . . . . . . . . . . . . . . . . . .E Y q - X & 0 I I e 6 ",
"e $.%.X. . . . . . . . . . . . . . . . . . . . . . . . . . . . . . . . . . . . . . . . . . . . . . . . . .E Y q - X & 0 I I e 6 ",
"e $.%.X. . . . . . . . . . . . . . . . . . . . . . . . . . . . . . . . . . . . . . . . . . . . . . . . . .E Y q - X & 0 I I e 6 ",
"e $.%.X. . . . . . . . . . . . . . . . . . . . . . . . . . . . . . . . . . . . . . . . . . . . . . . . . .E Y q - X & 0 I I e 6 ",
"e $.%.X. . . . . . . . . . . . . . . . . . . . . . . . . . . . . . . . . . . . . . . . . . . . . . . . . .E Y q - X & 0 I I e 6 ",
"e $.%.X. . . . . . . . . . . . . . . . . . . . . . . . . . . . . . . . . . . . . . . . . . . . . . . . . .E Y q - X & 0 I I e 6 ",
"e $.%.X. . . . . . . . . . . . . . . . . . . . . . . . . . . . . . . . . . . . . . . . . . . . . . . . . .E Y q - X & 0 I I e 6 ",
"w X.o.Q E E E E E E E E E E E E E E E E E E E E E E E E E E E E E E E E E E E E E E E E E E E E E E E E E T U q - X & 0 I I e 6 ",
"0 Q Q R Y Y Y Y Y Y Y Y Y Y Y Y Y Y Y Y Y Y Y Y Y Y Y Y Y Y Y Y Y Y Y Y Y Y Y Y Y Y Y Y Y Y Y Y Y Y Y Y Y U U q - X & 0 I I e 6 ",
"8 T T e q q q q q q q q q q q q q q q q q q q q q q q q q q q q q q q q q q q q q q q q q q q q q q q q q q q 9 = X & 0 I I e 6 ",
"& 6 6 4 - - - - - - - - - - - - - - - - - - - - - - - - - - - - - - - - - - - - - - - - - - - - - - - - - - - = + . & 0 I I e 6 ",
". X X X X X X X X X X X X X X X X X X X X X X X X X X X X X X X X X X X X X X X X X X X X X X X X X X X X X X X . . = 0 e e e 6 ",
"@   X % & & & & & & & & & & & & & & & & & & & & & & & & & & & & & & & & & & & & & & & & & & & & & & & & & & & & & & - 6 9 q w 6 ",
"; . + 6 0 0 0 0 0 0 0 0 0 0 0 0 0 0 0 0 0 0 0 0 0 0 0 0 0 0 0 0 0 0 0 0 0 0 0 0 0 0 0 0 0 0 0 0 0 0 0 0 0 0 0 0 0 0 6 & & 9 w 6 ",
", # * 7 0 w e I I I I I I I I I I I I I I I I I I I I I I I I I I I I I I I I I I I I I I I I I I I I I I I I I I e 9 & & 6 9 - ",
"t < > 1 - 9 e I I I I I I I I I I I I I I I I I I I I I I I I I I I I I I I I I I I I I I I I I I I I I I I I I I e q 9 6 - & + ",
"u y r $ O 5 w e e e e e e e e e e e e e e e e e e e e e e e e e e e e e e e e e e e e e e e e e e e e e e e e e e e w w 9 = .   ",
"u u t , : 2 5 6 6 6 6 6 6 6 6 6 6 6 6 6 6 6 6 6 6 6 6 6 6 6 6 6 6 6 6 6 6 6 6 6 6 6 6 6 6 6 6 6 6 6 6 6 6 6 6 6 6 6 6 6 - +     "
};
