/* XPM */
static char *result[] = {
/* columns rows colors chars-per-pixel */
"40 40 122 2 ",
"   c black",
".  c gray1",
"X  c #070707",
"o  c #090909",
"O  c gray4",
"+  c gray5",
"@  c gray6",
"#  c #111111",
"$  c #131313",
"%  c #151515",
"&  c #161616",
"*  c gray9",
"=  c #1B1B1B",
"-  c #1D1D1D",
";  c gray12",
":  c #202020",
">  c gray15",
",  c #282828",
"<  c #2C2C2C",
"1  c gray18",
"2  c #2F2F2F",
"3  c #3A3A3A",
"4  c gray23",
"5  c #3F3F3F",
"6  c gray25",
"7  c #444444",
"8  c #484848",
"9  c #494949",
"0  c gray29",
"q  c #4C4C4C",
"w  c #515151",
"e  c gray32",
"r  c #555555",
"t  c #565656",
"y  c gray35",
"u  c #5F5F5F",
"i  c gray40",
"p  c DimGray",
"a  c gray43",
"s  c #727272",
"d  c gray45",
"f  c #747474",
"g  c #767676",
"h  c gray47",
"j  c gray49",
"k  c #7E7E7E",
"l  c #881010",
"z  c #AD3636",
"x  c #FB0000",
"c  c #FC0101",
"v  c red",
"b  c #FD0202",
"n  c #FE0303",
"m  c #FC0707",
"M  c #F91212",
"N  c #FF1111",
"B  c #F51F1F",
"V  c #F32323",
"C  c #F52121",
"Z  c #EB3C3C",
"A  c #FF3F3F",
"S  c #C95252",
"D  c #E54D4D",
"F  c #FF4545",
"G  c #FF5F5F",
"H  c #DD6666",
"J  c #DD6A6A",
"K  c #D77878",
"L  c #F17272",
"P  c #808080",
"I  c gray53",
"U  c #888888",
"Y  c #8E8E8E",
"T  c gray56",
"R  c #939393",
"E  c #979797",
"W  c #9A9A9A",
"Q  c #9D9D9D",
"!  c gray62",
"~  c #9F9F9F",
"^  c #A0A0A0",
"/  c gray63",
"(  c gray64",
")  c #A7A7A7",
"_  c gray66",
"`  c gray67",
"'  c #ACACAC",
"]  c #AEAEAE",
"[  c #AFAFAF",
"{  c #B2B2B2",
"}  c gray70",
"|  c gray71",
" . c #B7B7B7",
".. c #B9B9B9",
"X. c gray73",
"o. c #BBBBBB",
"O. c gray",
"+. c gray75",
"@. c #D18B8B",
"#. c #CF9090",
"$. c #CC9A9A",
"%. c #FF8585",
"&. c #FF8888",
"*. c #CAA1A1",
"=. c #C8A5A5",
"-. c #C6ABAB",
";. c #C4B2B2",
":. c #C1BBBB",
">. c #C2BABA",
",. c #C0BEBE",
"<. c #C0BFBF",
"1. c #C0C0C0",
"2. c #C8C8C8",
"3. c gray79",
"4. c gray82",
"5. c #FFD0D0",
"6. c #F1F1F1",
"7. c gray95",
"8. c #F4F4F4",
"9. c #FFF5F5",
"0. c gray99",
"q. c None",
/* pixels */
"8 U U U U U U U U U U U U U U U U U U U U U U U U U U U U U U U I g e @   q.q.q.",
"U 0.8.7.7.7.7.7.7.7.7.7.7.7.7.7.7.7.7.7.7.7.7.7.7.7.7.7.7.7.7.7.6.4.T = + * q.q.",
"U 8.4.3.3.3.3.3.3.3.3.3.3.3.3.3.3.3.3.3.3.3.3.3.3.3.3.3.3.3.3.3.2.) a & 3 y $ q.",
"U 7.3.1.1.1.1.1.1.1.1.1.1.1.1.1.1.1.1.1.1.1.1.1.1.1.1.1.1.1.1.1.+.! i % 7 f q , ",
"U 7.3.1.1.1.1.1.1.1.1.1.1.1.<.-.$.$.$.*.>.1.1.1.1.1.1.1.1.1.1.1.+.! i % 7 P k 4 ",
"U 7.3.1.1.1.1.1.1.1.1.1.1.<.:.J C C B Z =.,.1.1.1.1.1.1.1.1.1.1.+.! i % 7 P k 4 ",
"U 7.3.1.1.1.1.1.1.1.1.1.1.-.J L &.%.A M D #.1.1.1.1.1.1.1.1.1.1.+.! i % 7 P k 4 ",
"U 7.3.1.1.1.1.1.1.1.1.1.1.$.C &.9.5.G v n H 1.+...] ! ) | O.1.1.+.! i % 7 P k 4 ",
"U 7.3.1.1.1.1.1.1.1.1.1.1.$.C %.5.F N v n H +.O./ s 1 r R  .1.1.+.! i % 7 P k 4 ",
"U 7.3.1.1.1.1.1.1.1.1.1.1.$.B A G N v v n H ../ p 2 O : t ' 1.1.+.! i % 7 P k 4 ",
"U 7.3.1.1.1.1.1.1.1.1.1.1.*.Z M v v v m V K ] s 2     + 4 ) 1.1.+.! i % 7 P k 4 ",
"U 7.3.1.1.1.1.1.1.1.1.1.1.>.=.D b x c V @.;.Q < o   . 4 k } 1.1.+.! i % 7 P k 4 ",
"U 7.3.1.1.1.1.1.1.1.1.1.1.1.,.#.S l z K ;.1.W -   + 4 g _ o.1.1.+.! i % 7 P k 4 ",
"U 7.3.1.1.1.1.1.1.1.1.1.1.1.1.1.W : i 1.+...E 4 > 4 k _ 1.1.1.1.+.! i % 7 P k 4 ",
"U 7.3.1.1.1.1.1.1.1.1.1.1.1.1.1.W : i +.O.( T ~ ( ) } o.1.1.1.1.+.! i % 7 P k 4 ",
"U 7.3.1.1.1.1.1.1.1.1.1.1.1.1.1.W : i ..( ^ _ o.1.1.1.1.1.1.1.1.+.! i % 7 P k 4 ",
"U 7.3.1.1.1.1.1.1.1.1.1.1.1.1.1.W : u ` R _ 1.1.1.1.1.1.1.1.1.1.+.! i % 7 P k 4 ",
"U 7.3.1.1.1.1.1.1.1.1.1.1.1.1.1.W ; 0 R [ o.1.1.1.1.1.1.1.1.1.1.+.! i % 7 P k 4 ",
"U 7.3.1.1.1.1.1.1.1.1.1.1.1.1.1.W ; t _ o.1.1.1.1.1.1.1.1.1.1.1.+.! i % 7 P k 4 ",
"U 7.3.1.1.1.1.1.1.1.1.1.1.1.1.1./ 6 h 1.1.1.1.1.1.1.1.1.1.1.1.1.+.! i % 7 P k 4 ",
"U 7.3.1.1.1.1.1.1.1.1.1.1.1.1.1.X._ { 1.1.1.1.1.1.1.1.1.1.1.1.1.+.! i % 7 P k 4 ",
"U 7.3.1.1.1.1.1.1.1.1.1.1.1.1.1.1.1.1.1.1.1.1.1.1.1.1.1.1.1.1.1.+.! i % 7 P k 4 ",
"U 7.3.1.1.1.1.1.1.1.1.1.1.1.1.1.1.1.1.1.1.1.1.1.1.1.1.1.1.1.1.1.+.! i % 7 P k 4 ",
"U 7.3.1.1.1.1.1.1.1.1.1.1.1.1.1.1.1.1.1.1.1.1.1.1.1.1.1.1.1.1.1.+.! i % 7 P k 4 ",
"U 7.3.1.1.1.1.1.1.1.1.1.1.1.1.1.1.1.1.1.1.1.1.1.1.1.1.1.1.1.1.1.+.! i % 7 P k 4 ",
"U 7.3.1.1.1.1.1.1.1.1.1.1.1.1.1.1.1.1.1.1.1.1.1.1.1.1.1.1.1.1.1.+.! i % 7 P k 4 ",
"U 7.3.1.1.1.1.1.1.1.1.1.1.1.1.1.1.1.1.1.1.1.1.1.1.1.1.1.1.1.1.1.+.! i % 7 P k 4 ",
"U 7.3.1.1.1.1.1.1.1.1.1.1.1.1.1.1.1.1.1.1.1.1.1.1.1.1.1.1.1.1.1.+.! i % 7 P k 4 ",
"U 7.3.1.1.1.1.1.1.1.1.1.1.1.1.1.1.1.1.1.1.1.1.1.1.1.1.1.1.1.1.1.+.! i % 7 P k 4 ",
"U 7.3.1.1.1.1.1.1.1.1.1.1.1.1.1.1.1.1.1.1.1.1.1.1.1.1.1.1.1.1.1.+.! i % 7 P k 4 ",
"U 7.3.1.1.1.1.1.1.1.1.1.1.1.1.1.1.1.1.1.1.1.1.1.1.1.1.1.1.1.1.1.+.! i % 7 P k 4 ",
"U 7.3.1.1.1.1.1.1.1.1.1.1.1.1.1.1.1.1.1.1.1.1.1.1.1.1.1.1.1.1.1.+.! i % 7 P k 4 ",
"I 6.2.+.+.+.+.+.+.+.+.+.+.+.+.+.+.+.+.+.+.+.+.+.+.+.+.+.+.+.+.+.O.Q i % 7 P k 4 ",
"g 4.) ! ! ! ! ! ! ! ! ! ! ! ! ! ! ! ! ! ! ! ! ! ! ! ! ! ! ! ! ! Q Y i % 7 P k 4 ",
"e T a i i i i i i i i i i i i i i i i i i i i i i i i i i i i i i i w # 7 P k 4 ",
"@ = & % % % % % % % % % % % % % % % % % % % % % % % % % % % % % % % # X 7 k j 4 ",
"  + 3 7 7 7 7 7 7 7 7 7 7 7 7 7 7 7 7 7 7 7 7 7 7 7 7 7 7 7 7 7 7 7 7 7 5 9 d 4 ",
"q.* y f P P P P P P P P P P P P P P P P P P P P P P P P P P P P P P P k 9 , y 2 ",
"q.q.$ q k k k k k k k k k k k k k k k k k k k k k k k k k k k k k k k j d y : o ",
"q.q.q., 4 4 4 4 4 4 4 4 4 4 4 4 4 4 4 4 4 4 4 4 4 4 4 4 4 4 4 4 4 4 4 4 4 2 o   "
};
