/* XPM */
static char *_[] = {
/* columns rows colors chars-per-pixel */
"64 64 231 2 ",
"   c #010100",
".  c #0B0000",
"X  c #0B0B0B",
"o  c #110000",
"O  c #1E0000",
"+  c #181818",
"@  c #240000",
"#  c #2A0000",
"$  c #3A0000",
"%  c #361515",
"&  c #363600",
"*  c #3C3C06",
"=  c #2D2D11",
"-  c #102E2E",
";  c #292928",
":  c #293535",
">  c #363636",
",  c #440000",
"<  c #4A0300",
"1  c #550000",
"2  c #5C0000",
"3  c #481C1C",
"4  c #660202",
"5  c #6C0000",
"6  c #720000",
"7  c #7D0000",
"8  c #2D4215",
"9  c #6B6B2B",
"0  c #236D6D",
"q  c #474747",
"w  c #485050",
"e  c #545454",
"r  c gray36",
"t  c #7A4645",
"y  c #665B5B",
"u  c #636B56",
"i  c #576969",
"p  c #4D7272",
"a  c #427E7E",
"s  c #597D7D",
"d  c #646464",
"f  c #6C6C6C",
"g  c #657777",
"h  c #747474",
"j  c #7C7C7C",
"k  c #840000",
"l  c #8D0000",
"z  c #940000",
"x  c #9D0000",
"c  c #A40000",
"v  c #AC0000",
"b  c #B40000",
"n  c #BF0000",
"m  c #BD0A02",
"M  c #B60B0B",
"N  c #BF1800",
"B  c #AD1212",
"V  c #A21D1D",
"C  c #AF1F1F",
"Z  c #B41715",
"A  c #952000",
"S  c #BB2307",
"D  c #BF2A00",
"F  c #BF3900",
"G  c #B62313",
"H  c #9B2323",
"J  c #952A2A",
"K  c #8A3535",
"L  c #853A3A",
"P  c #B5302F",
"I  c #A43838",
"U  c #C20101",
"Y  c #C90404",
"T  c #C10A00",
"R  c #DA0100",
"E  c #C71800",
"W  c #C41B00",
"Q  c #C51A1A",
"!  c #E90000",
"~  c #F80100",
"^  c #C82800",
"/  c #C63D00",
"(  c #C82626",
")  c #90571B",
"_  c #BC4703",
"`  c #BD5405",
"'  c #BE7803",
"]  c #BA700B",
"[  c #A54E34",
"{  c #AC6A27",
"}  c #C94202",
"|  c #D3490B",
" . c #CA5701",
".. c #D15A10",
"X. c #D76800",
"o. c #C07E00",
"O. c #C97A04",
"+. c #95534D",
"@. c #A15C51",
"#. c #8A6C6C",
"$. c #847A77",
"%. c #D14F4F",
"&. c #D86363",
"*. c #56A15E",
"=. c #6E8D77",
"-. c #68AE6A",
";. c #69C157",
":. c #75CA55",
">. c #59C168",
",. c #58D67E",
"<. c #69C966",
"1. c #7ADE64",
"2. c #878706",
"3. c #8A8A00",
"4. c #919810",
"5. c #B29116",
"6. c #BDBD04",
"7. c #B9BB09",
"8. c #B3AA19",
"9. c #ADBE13",
"0. c #B4B416",
"q. c #8A8836",
"w. c #A88A2B",
"e. c #92B438",
"r. c #ABAB27",
"t. c #A2B32B",
"y. c #A7A636",
"u. c #C38600",
"i. c #D48C06",
"p. c #C89700",
"a. c #E18800",
"s. c #C2A600",
"d. c #C2B300",
"f. c #C0BE00",
"g. c #D2B000",
"h. c #E9B505",
"j. c #E5A317",
"k. c #D18821",
"l. c #BEC002",
"z. c #B7C30B",
"x. c #A9C017",
"c. c #B9CC13",
"v. c #95C02B",
"b. c #8AC035",
"n. c #A7D029",
"m. c #BAEC32",
"M. c #C0C000",
"N. c #C8C505",
"B. c #CBCB00",
"V. c #DFC100",
"C. c #D4D400",
"Z. c #DCDC00",
"A. c #C7C915",
"S. c #E8D403",
"D. c #F4D700",
"F. c #D6EB15",
"G. c #E3E401",
"H. c #ECEC00",
"J. c #E5E50F",
"K. c #F8E900",
"L. c #F3F300",
"P. c #FFFF00",
"I. c #F6FC0A",
"U. c #E6F812",
"Y. c #F5FB12",
"T. c #CEC431",
"R. c #C7F12A",
"E. c #D0F022",
"W. c #FEFE28",
"Q. c #EFEC31",
"!. c #95934E",
"~. c #959456",
"^. c #88B150",
"/. c #8B8A69",
"(. c #8A9263",
"). c #838379",
"_. c #97E54E",
"`. c #89E157",
"'. c #A8E941",
"]. c #E9CB58",
"[. c #F6F649",
"{. c #FFFF6B",
"}. c #FBFB7A",
"|. c #15948E",
" X c #368A8A",
".X c #33928D",
"XX c #279898",
"oX c #37AE90",
"OX c #17A9A9",
"+X c #15B3A7",
"@X c #0BB4B3",
"#X c #04BBBB",
"$X c #09BAB9",
"%X c #17B5B5",
"&X c #2AA8A4",
"*X c #488787",
"=X c #519896",
"-X c #678D86",
";X c #7C8282",
":X c #48B484",
">X c #55A0A0",
",X c #35C08A",
"<X c #2AC197",
"1X c #33CC99",
"2X c #14C1AD",
"3X c #1AC3A9",
"4X c #0CC2B5",
"5X c #02C0BE",
"6X c #12C4B2",
"7X c #25C9A3",
"8X c #49D288",
"9X c #50D483",
"0X c #00C0C0",
"qX c #0FC3C3",
"wX c #18C5C5",
"eX c #2FC8C8",
"rX c #5BD2D2",
"tX c #808080",
"yX c #A78888",
"uX c #A8BABA",
"iX c #D59292",
"pX c #E59797",
"aX c #E4ABAB",
"sX c #E5E286",
"dX c #FEFD89",
"fX c #EDE7A3",
"gX c #8ED9D9",
"hX c #85E0E0",
"jX c #C6DEDE",
"kX c #FEFEC7",
"lX c #E7EFEF",
/* pixels */
"n n n n n n n n n n n n n n n n n n n n n U n n n n n n n n n n n n n n n n n n n n n n n n n n n n n n n n n n n n n n n n n n ",
"n n n n n n n n n n n n n n n n n n n n n U n n T Q ( ( ( C V V V V V V V V V V V V V V V B n n n n n n n n n n n n n n n n n n ",
"n n n n n n n n n n n n n n n n n n n n U U n n ( &.pXpXpXyXg p p p p p p p p p p p p p i t B n n n n n n n n n n n n n n n n n ",
"n n n n n n n n n n n n n n n n n n n n U U U T %.aXlXlXlXgXeX$X$X$X$X$X$X$X$X$X$X$X$X$X@Xp J M m n n n n n n n n n n n n n n n ",
"n n n n n n n n n n n n n n n U n n n n n n ( &.iXuXhXhXhXrXwX0X0X0X0X0X0X0X0X0X0X0X0X0X#XXXi t V n n n n n n n n n n n n n n n ",
"n n n n n n n n n n n n n n n n n n n n n n %.aXjXrXwXwXwXqX0X0X0X0X0X0X0X0X0X0X0X0X0X0X#X$X@Xa K n n n n n n n n n n n n n n n ",
"n n n n n n n n n n n n n n U n n n n n n n @.uXhXeX0X0X0X0X0X0X0X0X0X0X0X0X0X0X0X0X0X0X0X0X0X XK n n n n n n n n n n n n n n n ",
"n n n n n n n n n n n n n n n n n n n n n n +.>XeXqX0X0X0X0X0X0X0X0X0X0X0X0X0X0X0X0X0X0X0X0X0X XK n n n n n n n n n n n n n n n ",
"n n n n n n n n n n n n n B H J J J J J J J y XX0X0X0X0X0X0X0X0X0X0X0X0X0X0X0X0X0X0X0X0X0X0X0X XK Y Y Y U U n n n n n U n n n n ",
"n n n n n n n n n n n n m K i a a a a a a a XX@X0X0X0X0X0X0X0X0X0X0X0X0X0X0X0X0X0X0X0X0X0X0X0X*XI ! ! ! R U n n n n n n n n n n ",
"n n n n n n n n n n n M V y OX#X#X#X#X#X#X#X#X#X0X0X0X0X0X0X0X0X0X0X0X0X0X0X0X0X0X0X0X0X0X0X0X*XP ~ ~ ~ R U n n n n n n n n n n ",
"n n n n n n n n n n M K i  X@X0X0X0X0X0X0X0X0X0X0X0X0X0X0X0X0X0X0X0X0X0X0X0X0X0X0X0X0X0X0X0X0X*XP ~ ! R Y U n n n n n n n n n n ",
"n n n n n n n n n n B y XX@X#X0X0X0X0X0X0X0X0X0X0X0X0X0X0X0X0X0X0X0X0X0X0X0X0X0X0X0X0X0X0X#X$X*XP ~ R U U n n n n n n n n n n n ",
"n n n n n n n n n n M L i .X@X0X0X0X0X0X0X0X0X0X0X0X0X0X0X0X0X0X0X0X0X0X0X0X0X0X0X0X0X0X#X&Xs +...| ^ U n n U n n n n n n n n n ",
"n n n n n n n n n n n B H r OX0X0X0X0X0X0X0X0X0X0X0X0X0X0X0X0X0X0X0X0X0X0X0X0X0X0X0X0X0X$Xs P | O.u.} T n n n n n n n n n n n n ",
"n n n n n n n n n n n n m L p  X X.XoXoX,X,X,X,X<X2X5X0X0X0X0X0X0X0X0X0X0X0X0X0X0X0X0X0X$X=.| X.p.s.' / N m n n n n n n n n n n ",
"n n n n n n n n n n n n n B J K K L q.e.b.b.b.b.;.<X5X0X#X0X0X0X0X0X0X0X0X0X0X0X0X0X0X0X$X-.5.p.d.d.s.u._ m n n n n n n n n n n ",
"n n n n n n n n n n n n n n n T W } k.T.A.B.B.B.n.>.7X6X#X0X0X0X0X0X0X0X0X0X0X0X0X0X5X2X<X<.x.M.f.M.M.6.] G M m n n n n n n n n ",
"n n n n n n n n n n n n n n n ^ X.j.].sX[.J.G.G.F.m.`.8X4X0X0X0X0X0X0X0X0X0X0X0X0X0X4X9X`.n.z.M.f.f.f.6.w.+.I Z n n n n n n n n ",
"n n n n n n n n n n n n n m m | h.W.dXkX}.Y.P.P.P.I.U.1.7X4X5X0X0X0X0X0X0X0X0X0X5X4X7X`.U.G.B.M.M.f.f.7.y./.+.Z n n n n n n n n ",
"n n n n n n n n n n n n n D _ k.].}.dX}.[.I.P.P.P.P.I.m.1.8X6X0X0X0X0X0X0X0X0X0X3X9X`.m.I.L.G.C.B.f.f.6.8.y.{ G n n n n n n n n ",
"n n n n n n n n n n n n m _ p.T.fXkX{.W.I.P.P.P.P.P.P.I.U.`.7X5X5X5X5X5X5X5X5X5X1X_.U.I.P.P.P.H.C.f.M.6.6.7.' D n n n n n n n n ",
"n n n n n n n n n n n n m  .g.Q.}.dX[.P.P.P.P.P.P.P.P.P.I.m.1.,.,.,.,.,.,.,.,.,.1.R.P.P.P.P.P.H.C.M.M.M.M.f.o.D n n n n n n n n ",
"n n n n n n n n n n n n T X.S.Y.W.W.Y.P.P.P.P.P.P.P.P.P.P.U.E.R.R.R.R.R.R.R.R.R.E.U.P.P.P.P.P.H.C.M.M.M.M.f.o.D n n n n n n n n ",
"n n n n n n n n n n n n T X.D.P.P.P.P.P.P.P.P.P.P.P.P.P.P.P.P.P.P.P.P.P.P.P.P.P.P.P.P.P.P.P.P.H.C.M.M.M.M.f.o.D n n n n n n n n ",
"n n n n n n n n n n n n T X.D.P.P.P.P.P.P.P.P.P.P.P.P.P.P.P.P.P.P.P.P.P.P.P.P.P.P.P.P.P.P.P.P.H.C.M.M.M.M.f.o.D n n n n n n n n ",
"n n n n n n n n n n n n T X.D.P.P.P.P.P.P.P.P.P.P.P.P.P.P.P.P.P.P.P.P.P.P.P.P.P.P.P.P.P.P.P.P.H.C.M.M.M.M.f.o.D n n n n n n n n ",
"n n n n n n n n n n n n T X.D.P.P.P.P.P.P.P.P.P.P.P.P.P.P.P.P.P.P.P.P.P.P.P.P.P.P.P.P.P.P.P.P.H.C.M.M.M.M.f.o.D n n n n n n n n ",
"n n n n n n n n n n n n T X.D.P.P.P.P.P.P.P.P.P.P.P.P.P.P.P.P.P.P.P.P.P.P.P.P.P.P.P.P.P.P.P.P.H.C.M.M.M.M.f.o.D n n n n n n n n ",
"n n n n n n n n n n n n T  .V.H.L.P.P.P.P.P.P.P.P.P.P.P.P.P.P.P.P.P.P.P.P.P.P.P.P.P.P.P.P.L.H.Z.B.M.M.M.M.f.o.D n n n n n n n n ",
"n n n n n n n n n n n n m  .s.Z.L.P.P.P.P.P.P.P.P.P.P.P.P.P.P.P.P.P.P.P.P.P.P.P.P.P.P.P.P.H.C.M.M.M.M.M.M.f.o.D n n n n n n n n ",
"n n n n n n n n n n n n m F ' g.D.P.P.P.P.P.P.P.P.P.P.P.P.P.P.P.P.P.P.P.P.P.P.P.P.P.P.P.P.G.B.M.M.M.M.6.0.r.] S n n n n n n n n ",
"n n n n n n n n n n n n n N D X.S.P.P.P.P.P.P.P.P.P.P.P.P.P.P.P.P.P.P.P.P.P.P.P.P.P.P.P.P.G.B.M.M.l.M.6.r.~.[ G n n n n n n n n ",
"n n n n n n n n n n n n n n n } h.L.P.P.P.P.P.P.P.P.P.P.P.P.P.P.P.P.P.P.P.P.P.P.P.P.P.P.L.Z.B.M.M.l.M.6.y.(.@.Z n n n n n n n n ",
"n n n n n n n n n n n n n n n / p.G.H.P.P.P.P.P.P.P.P.P.P.P.P.P.P.P.P.P.P.P.P.P.P.P.P.H.Z.B.M.M.l.l.l.6.0.y.{ S n n n n n n n n ",
"n n n n n n n n n n n n n m M _ 5.c.F.U.I.P.P.P.P.P.P.P.P.P.P.P.P.P.P.P.P.P.P.P.P.P.L.Z.M.M.M.M.l.l.z.7.7.6.' D n n n n n n n n ",
"n n n n n n n n n n n n n H t u *.;.:.`.m.I.P.P.P.P.P.P.P.P.P.P.P.P.P.P.P.P.P.P.P.H.Z.B.M.M.M.M.l.z.b.;.v.7.o.D n n n n n n n n ",
"n n n n n n n n n n n n M t .X+X+X2X3X7X`.U.P.P.P.P.P.P.P.P.P.P.P.P.P.P.P.P.P.P.L.Z.M.M.M.M.M.l.l.x.>.<X;.9.o.D n n n n n n n n ",
"n n n n n n n n n n T ^  .w.<.,.,.8X7X2X<.F.L.P.P.P.P.P.P.P.P.P.P.P.P.P.P.P.L.H.G.B.M.M.M.M.M.x.v.;.,X2X>.9.' D n n n n n n n n ",
"n n n n n n n n n n W X.h.J.E.R.R.'.9X2X>.c.Z.L.P.P.P.P.P.P.P.P.P.P.P.P.P.P.H.Z.B.M.M.M.M.M.M.v.>.<X2X4X>.9.' D n n n n n n n n ",
"n n n n n n n n n n W a.K.P.L.L.L.F.<.&X-.t.A.G.L.P.P.P.P.P.P.P.P.P.L.L.L.L.G.B.M.M.M.M.6.7.0.^.:XOXOX|.*.4.) A x b n n n n n n ",
"n n n n n n n n n n W a.K.H.Z.C.C.A.^.-X=.~.y.A.Z.L.P.P.P.P.P.P.P.P.G.C.C.C.B.M.M.M.M.M.6.r.!.(.-X*X0 - 8 * & $ 2 z n n n n n n ",
"n n n n n n n n n n W a.K.G.B.f.d.8.!.$.$.$.~.r.N.G.L.P.P.P.P.P.P.L.C.M.M.M.M.M.M.M.6.z.9.y./.).;Xf > X X       @ 6 v b n n n n ",
"n n n n n n n n n n W a.K.G.B.s.' ` [ [ +.$./.~.y.A.Z.Z.Z.Z.Z.Z.Z.Z.B.M.M.M.M.M.M.M.z.b.-.-.=.tXtXh r q ; X     o $ 4 l n n n n ",
"n n n n n n n n n n W a.K.Z.N.u.F m m Z I #.$.).~.r.M.M.M.M.M.M.M.M.M.M.M.M.M.M.l.l.x.>.+XoX-Xj j j j f > X       . O 4 v n n n ",
"n n n n n n n n n n T  .a.i.O.` D n n m C +.+.$./.!.r.0.6.M.M.M.M.M.M.M.M.M.M.M.x.b.;.,X$X|.w r h tXtXh q X         . $ 5 z b n ",
"n n n n n n n n n n U W ^ ^ W N m n n n M Z I #.).).(.y.6.M.M.M.M.M.6.M.M.M.M.M.v.>.3X4X#X0 - > d tXtXh q X           o @ 2 c n ",
"n n n n n n n n n n n n n n n n n n n n n n C +.#.y y 9 2.3.3.3.3.3.3.3.4.r.t.e.;.<X#X%X&X0 : > d j f e > X               < c n ",
"n n n n n n n n n n n n n n n n n n n n n n M C J 3 ; = & & & & & & & * 9 !.-.:X<X2X$X&X=Xs i d h h q ; X                 < c n ",
"n n n n n n n n n n n n n n n n n n n n n n n n x 1 O O O o           X > d *X&X%X%X%X=X;XtXtXj h r ;                 o @ 2 c n ",
"n n n n n n n n n n n n n n n n n n n n n n n n v l 6 6 5 , o           + ; w *X=X=X=X-X;XtXtXf q ; +               . $ 5 z b n ",
"n n n n n n n n n n n n n n n n n n n n n n n n n n b b b 6 # . . .       X : d ;X;X;X;X;Xj j e ; X               . O 4 v n n n ",
"n n n n n n n n n n n n n n n n n n n n n n n n n n n n n z 5 2 2 < @       ; d tXtXtXtXj d w > X               o $ 4 l n n n n ",
"n n n n n n n n n n n n n n n n n n n n n n n n n n n n n b v v v z , .     ; d j j j tXj e + X                 @ 6 v b n n n n ",
"n n n n n n n n n n n n n n n n n n n n n n n n n n n n n n n n n v 6 , , , 3 q e e e e e > X           O $ , , 2 z n n n n n n ",
"n n n n n n n n n n n n n n n n n n n n n n n n n n n n n n n n n n c z z z 4 % + + + + + X X         . , k z z x b n n n n n n ",
"n n n n n n n n n n n n n n n n n n n n n n n n n n n n n n n n n n n n n n l < # # # # # # # # # # # $ 5 v n n n n n n n n n n ",
"n n n n n n n n n n n n n n n n n n n n n n n n n n n n n n n n n n n n n n v l 7 7 7 7 7 7 7 7 7 7 7 k x n n n n n n n n n n n ",
"n n n n n n n n n n n n n n n n n n n n n n n n n n n n n n n n n n n n n n n n n n n n n n n n n n n n n n n n n n n n n n n n ",
"n n n n n n n n n n n n n n n n n n n n n n n n n n n n n n n n n n n n n n n n n n n n n n n n n n n n n n n n n n n n n n n n ",
"n n n n n n n n n n n n n n n n n n n n n n n n n n n n n n n n n n n n n n n n n n n n n n n n n n n n n n n n n n n n n n n n ",
"n n n n n n n n n n n n n n n n n n n n n n n n n n n n n n n n n n n n n n n n n n n n n n n n n n n n n n n n n n n n n n n n ",
"n n n n n n n n n n n n n n n n n n n n n n n n n n n n n n n n n n n n n n n n n n n n n n n n n n n n n n n n n n n n n n n n ",
"n n n n n n n n n n n n n n n n n n n n n n n n n n n n n n n n n n n n n n n n n n n n n n n n n n n n n n n n n n n n n n n n "
};
