/* XPM */
static char *_[] = {
/* columns rows colors chars-per-pixel */
"64 64 255 2 ",
"   c #010000",
".  c #090603",
"X  c #0B0B0B",
"o  c #140202",
"O  c #141400",
"+  c #081515",
"@  c #181A19",
"#  c #280000",
"$  c #390000",
"%  c #192007",
"&  c #262700",
"*  c #2D3608",
"=  c #363600",
"-  c #3A3A00",
";  c #072E2B",
":  c #2A2C2C",
">  c #3C3C3B",
",  c #480101",
"<  c #5B0101",
"1  c #6A0606",
"2  c #710000",
"3  c #7D0000",
"4  c #4A3131",
"5  c #244824",
"6  c #444200",
"7  c #5A5A01",
"8  c #73620E",
"9  c #717103",
"0  c #09514D",
"q  c #314747",
"w  c #037070",
"e  c #2A6B6B",
"r  c #454747",
"t  c #575858",
"y  c #784847",
"u  c #695656",
"i  c #63665C",
"p  c #446868",
"a  c #586767",
"s  c #4D7272",
"d  c #427E7E",
"f  c #696969",
"g  c #6C7272",
"h  c #797979",
"j  c #890303",
"k  c #960101",
"l  c #A20000",
"z  c #AC0000",
"x  c #BF0000",
"c  c #B70907",
"v  c #BB1804",
"b  c #AE1313",
"n  c #A21D1D",
"m  c #B21919",
"M  c #BB2307",
"N  c #BF2A00",
"B  c #B7350E",
"V  c #972828",
"C  c #893736",
"Z  c #963D3D",
"A  c #A92A2A",
"S  c #B02A29",
"D  c #A43535",
"F  c #C10A00",
"G  c #C10807",
"H  c #C41802",
"J  c #C71C12",
"K  c #C51A1A",
"L  c #FE0200",
"P  c #FC0B00",
"I  c #FB1600",
"U  c #C12A00",
"Y  c #CA2C00",
"T  c #C93300",
"R  c #F43902",
"E  c #C82626",
"W  c #CE3838",
"Q  c #BC4402",
"!  c #BD6804",
"~  c #B8780E",
"^  c #A54E2D",
"/  c #9C672E",
"(  c #C64900",
")  c #D14700",
"_  c #C85704",
"`  c #D35700",
"'  c #EB4801",
"]  c #FC4A00",
"[  c #E65800",
"{  c #FC5701",
"}  c #C76700",
"|  c #D56602",
" . c #D96700",
".. c #C67600",
"X. c #C07E00",
"o. c #D87700",
"O. c #EC6902",
"+. c #FD7900",
"@. c #D7592F",
"#. c #944C47",
"$. c #945858",
"%. c #AA4544",
"&. c #966845",
"*. c #8D6766",
"=. c #8D7366",
"-. c #827979",
";. c #D14F4F",
":. c #ED6C55",
">. c #DA6C69",
",. c #DD7777",
"<. c #6F9223",
"1. c #2B9368",
"2. c #6EB24E",
"3. c #5E9969",
"4. c #7CC146",
"5. c #6BC358",
"6. c #5AC269",
"7. c #4BC57A",
"8. c #6BCB69",
"9. c #898900",
"0. c #979600",
"q. c #B69309",
"w. c #BCB806",
"e. c #B0B10D",
"r. c #989E2E",
"t. c #AD8F2F",
"y. c #ACAD30",
"u. c #C68800",
"i. c #C99900",
"p. c #D49008",
"a. c #E28600",
"s. c #FD8900",
"d. c #E49500",
"f. c #C9A900",
"g. c #CCAF0C",
"h. c #C4B600",
"j. c #D9BB02",
"k. c #EEA702",
"l. c #ECB800",
"z. c #FDB700",
"x. c #D8B72D",
"c. c #B2C314",
"v. c #98C931",
"b. c #ABCD27",
"n. c #B8E42C",
"m. c #C5C400",
"M. c #CCCB01",
"N. c #C3C80B",
"B. c #D7C802",
"V. c #D3D301",
"C. c #D8D506",
"Z. c #DCDC00",
"A. c #CACA19",
"S. c #D1D913",
"D. c #EAC700",
"F. c #FBC701",
"G. c #E9D601",
"H. c #F5D600",
"J. c #FBD700",
"K. c #E8CD17",
"L. c #DCE60A",
"P. c #E3E300",
"I. c #E9E605",
"U. c #ECEC00",
"Y. c #FBE500",
"T. c #FCEC00",
"R. c #F4F300",
"E. c #FDF500",
"W. c #FEFE00",
"Q. c #F9FB09",
"!. c #E8EA11",
"~. c #FBFB15",
"^. c #D2D132",
"/. c #D1ED26",
"(. c #EBEB2F",
"). c #F9F925",
"_. c #FFFF2A",
"`. c #FEFE35",
"'. c #989048",
"]. c #87A849",
"[. c #A7A751",
"{. c #8C886F",
"}. c #B7B76E",
"|. c #D3BF4E",
" X c #E6B952",
".X c #84D551",
"XX c #9AE057",
"oX c #A4E643",
"OX c #D9D951",
"+X c #FFC750",
"@X c #E8E848",
"#X c #FEFD47",
"$X c #F2F257",
"%X c #DBDB66",
"&X c #D3D271",
"*X c #FFFF67",
"=X c #E9E772",
"-X c #FCFB78",
";X c #069592",
":X c #37908F",
">X c #269A9A",
",X c #2CAF97",
"<X c #03A7A6",
"1X c #15A9A9",
"2X c #15B9AD",
"3X c #0BB6B5",
"4X c #04BABA",
"5X c #2CA7A7",
"6X c #499191",
"7X c #778383",
"8X c #55A0A0",
"9X c #2AC197",
"0X c #37C891",
"qX c #16C1AB",
"wX c #05C0BA",
"eX c #23C5A2",
"rX c #00C0C0",
"tX c #0FC3C3",
"yX c #18C5C5",
"uX c #2FC8C8",
"iX c #5BD2D2",
"pX c #808080",
"aX c #8C8C8C",
"sX c #989898",
"dX c #A78888",
"fX c #AAAA93",
"gX c #A8A8A8",
"hX c #B5B9B7",
"jX c #DF9D95",
"kX c #E9A7A7",
"lX c #EAB2B2",
"zX c #D3D393",
"xX c #E5E589",
"cX c #FDFD85",
"vX c #E5E597",
"bX c #FEFE97",
"nX c #C7C7AF",
"mX c #F1D3A0",
"MX c #F7F7A7",
"NX c #FFFFB6",
"BX c #8ED9D9",
"VX c #85E0E0",
"CX c #C9CCCB",
"ZX c #D5D5D5",
"AX c #DADADA",
"SX c #F8D9CD",
"DX c #EDE8C6",
"FX c #F7F7C6",
"GX c #FBFAD7",
"HX c #E9EAE7",
"JX c #F8E3E3",
"KX c #FBFBE5",
"LX c #EAF0F0",
"PX c #FBFBF5",
"IX c #FEFEFD",
/* pixels */
"x x x x x x x x x x x x x x x x x x x x x x x x x x x x x x x x x x x x x x x x x x x x x x x x x x x x x x x x x x x x x x x x ",
"x x x x x x x x x x x x x x x x x x x x x x x x G K E E E S n n n n n n n n n n n n n n n b c x x x x x x x x x x x x x x x x x ",
"x x x x x x x x x x x x x x x x x x x x x x x x E >.jXjXjXdXg s s s s s s s s s s s s s s y b x x x x x x x x x x x x x x x x x ",
"x x x x x x x x x x x x x x x x x x x x x x G G ;.kXLXLXLXBXuX4X4X4X4X4X4X4X4X4X4X4X4X4X3Xs V c x x x x x x x x x x x x x x x x ",
"x x x x x x x x x x x x x x x F x x x x x x E >.jXhXVXVXVXiXyXrXrXrXrXrXrXrXrXrXrXrXrXrX4X>Xa y n x x x x x x x x x x x x x x x ",
"x x x x x x x x x x x x x x x x x x x x x x ;.lXZXiXyXyXyXtXrXrXrXrXrXrXrXrXrXrXrXrXrXrX4X3X1Xd C x x x x x x x x x x x x x x x ",
"x x x x x x x x x x x x x x F x x x x x x x %.hXVXuXrXrXrXrXrXrXrXrXrXrXrXrXrXrXrXrXrXrXrXrXrX:XC x x x x x x x x x x x x x x x ",
"x x x x x x x x x x x x x x x x x x x x x x #.8XuXtXrXrXrXrXrX4XrXrXrXrXrXrXrXrXrXrXrXrXrXrXrX:XC x x x x x x x x x x x x x x x ",
"x x x x x x x x x x x x x b V V V V V V V V i >XrXrXrXrXwXqX9X,X,X:X:X:X:X:X,X,X9X9X9X9X9XqXwX:XC x x x x x x x x x x x x x x x ",
"x x x x x x x x x x x x c C a d d d d d d d >X3XrXrXrXrXwX0X5.].&.%.%.%.%.%.&.].4.4.4.2.4.7.qX:XC x x x x x x x x x x x x x x x ",
"x x x x x x x x x x x c n u 1X4X4X4X4X4X3X2XqXqXqXqXqXqXqX6.b.p.' I I I P L ' i.m.m.m.m.c.4.9X6XC c c x x x x x x x x x x x x x ",
"x x x x x x x x x x c C a :X3XrXrXrXrXwX9X6.5.8..X5.5.5.5.v.S.D.k.s.O.[ R P ] l.P.P.P.P.Z.b.4.2.&.D m x x x x x x x x x x x x x ",
"x x x x x x x x x x b u >X3X3X4X4X4X4XqX6.b.S.L.L.S.c.c.c.S.R.E.E.Y.B.f.[ I { F.Q.Q.Q.E.R.L.N.y.'.*.D c x F x x x x x x x x x x ",
"x x x x x x x x x x c C a s s s s 3.6.8.XX&XOX!.!.OX%X%X%X(.Q.W.W.E.U.B.O.I { +X*X*X*X_.W.U.Z.A.y.'.B c x F x x x x x x x x x x ",
"x x x x x x x x x x x b n n n n n A g./.=XFXxX^.^.xXGXGXFXcX).W.W.W.E.Y.s.I :.mXGXGXFX*XQ.E.R.P.N.q.Q x x x x x x x x x x x x x ",
"x x x x x x x x x x x x x x x H T | x.#X-XMXxX%X%XDXIXIXIXNX*X`.~.E.J.z.+.' :.SXIXIXKXbX#X_.Q.U.V.f.! N v x x x x x x x x x x x ",
"x x x x x x x x x x x F x x x T a.K.=XMXxXOX%XvXDXKXIXIXIXKXFXcX`.Y.s.{ O.a. XDXIXIXPXGXNX*X~.U.V.h.f.u.( F x x x x x x x x x x ",
"x x x x x x x x x x x x x c v ` l._.bXKXxXA.OXDXPXHXAXAXAXHXPXNX#XJ.+.R O.x.&XnXZXZXAXHXPXbX_.R.Z.M.m.w.! M c c x x x x x x x x ",
"x x x x x x x x x x F F x N ! i.G._.bXKXxXA.OXFXAXsXf f f gXHXNX#XT.F.k. XxXfX{.f f h hXKXbX_.R.U.Z.V.w.t.#.D b x x x x x x x x ",
"x x x x x x x x x x x x x ( i.C.!.`.bXGX=XA.OXFXCXt X X @ f AXNX#XW.E.~.-XGXgX> X X : aXHXbX_.W.W.R.Z.w.y.{.#.m x x x x x x x x ",
"x x x x x x x x x x x x F _ j.(.$X-XcX-X@X!.$XFXCXt     X f ZXNX#XW.W.~.-XKXgX>     @ pXHXbX_.W.W.R.Z.w.y.r./ M x x x x x x x x ",
"x x x x x x x x x x x x F | H.`.MXFX*X).Q.Q.$XFXCXt     X f ZXNX#XW.W.~.-XKXgX>     @ aXHXbX_.W.W.R.Z.m.w.w.~ N x x x x x x x x ",
"x x x x x x x x x x x x F  .H._.-XcX#XW.W.W.`.cXxX'.7 7 7 '.xXcX$X@X@X@X-XbX&X8 7 7 8 [.bX*X~.W.W.R.Z.m.m.h.X.N x x x x x x x x ",
"x x x x x x x x x x x x F  .H.Q._._.~.W.W.W.~._.).S.m.m.M.S.).$X&XzXzXzX=X#X(.C.m.m.M.!.`.).Q.W.W.R.Z.m.m.h.X.N x x x x x x x x ",
"x x x x x x x x x x x x F  .H.T.J.F.F.F.Y.E.W.W.W.W.W.W.W.~.).$XzXCXCXnX&X(.~.Q.W.W.W.W.W.W.W.T.J.z.k.i.f.h.X.N x x x x x x x x ",
"x x x x x x x x x x x x F  .H.J.s.{ { { z.T.W.W.W.W.W.W.W.(.%XvXDXHXZXnXnXzX@X~.W.W.W.W.W.W.W.J.s.{ ' ' o.h.X.N x x x x x x x x ",
"x x x x x x x x x x x x F  .H.z.] L L I +.Y.W.W.W.W.W.W.W.@XnXCXHXLXZXhXhXhX&X).W.W.W.W.W.W.W.z.] L L P [ f.X.N x x x x x x x x ",
"x x x x x x x x x x x x F  .H.z.] L L I +.Y.W.W.W.W.W.W.W.@XnXCXZXZXhXgX}.}.^.!.W.W.W.W.W.W.W.z.] L L P [ f.X.N x x x x x x x x ",
"x x x x x x x x x x x x F  .H.z.] P P I +.J.E.W.W.W.W.W.W.@XzXnXnXhXsX{.[.w.C.R.W.W.W.W.W.E.E.z.] P P I [ f.X.N x x x x x x x x ",
"x x x x x x x x x x x x F  .H.J.s.{ [ [ O.d.l.Y.W.W.W.W.W.(.%X&X&X}.[.[.y.C.P.R.W.W.W.W.E.H.k.a.[ [ { +.d.h.X.N x x x x x x x x ",
"x x x x x x x x x x x x F  .H.E.Y.H.l.i.} T o.H.W.W.W.W.W.Q.~.!.A.w.e.w.C.U.E.W.W.W.W.W.E.k.) ( X.f.D.H.D.m.~ N x x x x x x x x ",
"x x x x x x x x x x x x F | D.R.E.E.P.B.u.( | d.D.Y.W.W.W.W.W.R.Z.V.V.V.I.E.W.W.W.W.E.H.l.a.( } f.V.P.P.S.y.~ M x x x x x x x x ",
"x x x x x x x x x x x x x _ f.Z.R.W.R.I.j.i...` o.D.W.W.W.W.W.E.R.U.U.U.R.W.W.W.W.W.T.d.` } X.f.C.U.Z.M.y.'.&.m x x x x x x x x ",
"x x x x x x x x x x x x x Q u.j.U.W.W.E.P.M.u.( ( d.H.H.H.H.H.H.H.H.H.H.H.H.H.H.H.H.D.o.T } f.V.U.U.V.w.t.=.#.m x x F x x x x x ",
"x x x x x x x x x x x x x M Q o.D.W.W.W.R.P.j.u...|  . . . . . . . . . . . . . . . . .} ..f.C.P.Z.V.M.w.~ ^ S c F F x F x x x x ",
"x x x x x x x x x x x x x c b _ j.Q.Q.W.W.W.I.B.i.( H H J J J J J J J J J J J J J H U ..h.Z.R.U.V.c.c.e.! v x x x F F F x x x x ",
"x x x x x x x x x x x F x V y 3.2.XX/.W.W.W.R.P.B.u._ @.,.,.,.,.,.,.,.,.,.,.,.,.>.@.} i.C.U.E.U.V.c.v.2./ v x x x x x x x x x x ",
"x x x x x x x x x x x x c y :X2X2X0XoXQ.W.W.W.E.U.B.g.&XSXJXJXJXJXJXJXJXJXJXJXJXmX|.h.C.R.E.W.U.V.e.6.,Xi b x x x x x x x x x x ",
"x x x x x x x x x x F Y _ t.8.7.7.6.y.l.H.E.W.W.R.P.S. XkXkXkXkXkXkXkXkXkXkXkXkXjXx.m.P.E.R.U.S.v.5.0X3X:Xy V b x x x x x x x x ",
"x x x x x x x x x x H  .l.C./.n.b.r.~ ) d.Y.W.W.W.R.G.p.W W W W W W W W W W W W @.p.m.P.E.U.V.v.6.9X2X4X1X>Xa V x x x x x x x x ",
"x x x x x x x x x x H a.T.E.R.G.f.~ B H ` l.H.E.W.W.Y.d.) T U U U U U U U U U U ( i.V.Z.U.M.0.<.1.;X,X0X0X0X3.^ M c x x x x x x ",
"x x x x x x x x x x H a.Y.U.Z.f.} N v F Y ` d.H.W.W.E.H.k.p.u.X.X.X.X.X.X.X.X.X.i.B.P.L.V.0.7 * 5 0 2.oXoXoXb.q.! N x x x x x x ",
"x x x x x x x x x x H a.T.P.N.q.B c c x F F _ B.!.R.E.E.E.P.M.m.m.m.m.m.m.m.m.m.V.P.R.V.e.9 O     & 9.Z.R.W.I.M.q.Q z z x x x x ",
"x x x x x x x x x x H a.T.S.y.'.&.D m x F x ^ ]..Xn.P.U.E.R.P.P.P.P.P.P.P.P.P.P.L.L.V.0.7 = .     O 6 9 w.R.I.M.q.8 < k x x x x ",
"x x x x x x x x x x H a.H.^.{.{.-.*.D c c c y :X0X.XN.L.R.Q.R.E.E.E.E.E.R.R.R.E.U.V.e.7 % .         . & 9.P.U.M.0.6 # < z x x x ",
"x x x x x x x x x x F ` a.t.{.pX-.-.$.D #.y s 1XqX7.4..XXXn.L.P.P.P.P.P.P.P.P.P.S.v.2.1.0 ; X         O 9 P.U.M.0.6 o $ 2 k z x ",
"x x x x x x x x F F F H U ^ =.pXpX-.-.-.6X>X1X4X4XqXqXeX9X8.c.M.M.M.M.M.M.M.M.M.b.6.2X1X;Xw +         O 9 P.U.M.0.6   o # < l F ",
"x x x x x x x x x x F x c D *.pXpXpX{.7X8X3X4X4XwXwX4X<X;X1.<.9.9.9.9.9.9.9.9.9.<.1.wXrX4X;X0 ; X     . 7 0.e.0.9 =       , l F ",
"x x x x x x x x x x x x c D *.pXpXpXpX7X8X3XrXrXrXrX3Xw ; ; * = = = = = = = = = 5 1.4XrX4X<X;Xw ;       & 6 6 - & O       , l F ",
"x x x x x x x x x x x x c D *.pXpXpXpX7X6X<X<X4X4X3X1X0 X                       ; w 3X<X<X<X<Xw ; X .                     , l x ",
"x x x x x x x x x x x x c D *.pXpXpXpXh p 0 w <X3X5X6Xq X                       @ e 6Xe 0 0 0 0 q q @                     , l x ",
"x x x x x x x x x x x x c D *.-.-.pXpXh r @ 0 ;X5X6Xg > o o o .                 @ r f q @ + + : a f > X .         . o o o < l x ",
"x x x x x x x x x x x x x m D $.=.pXpXh a r r t i #.Z 1 < < < , o               X : r > > r t f aXaXf > @ .     o $ < < < j z x ",
"x x x x x x x x x x x x x c c A $.pX7Xh h g $.V b b c c z z z 3 $                 X @ r f aXgXgXhXgXaXf > X     # 2 z z z z x x ",
"x x x x x x x x x x x x x x x S $.pXpXpXpX-.$.m x x x x x x x k < , , $ #           X : t h sXgXgXgXaXh y , , , < k x x x x x x ",
"x x x x x x x x x x x x x x x S $.pXpXpXpX-.$.m x x x x x x x z l k k j , o           @ @ r h aXaXaXpX-.#.k k k k z x x x x x x ",
"x x x x x x x x x x x x x x x m #.*.*.*.*.*.%.m x x x x x x x x x x x z 3 $ # # # # # # # 4 y *.*.*.*.$.D c x x x x x x x x x x ",
"x x x x x x x x x x x x x x x c m A A A A A m c x x x x x x x x x x x x l j 3 3 3 3 3 3 3 j A A A A A A m c x x x x x x x x x x ",
"x x x x x x x x x x x x x x x x x x x x x x x x x x x x x x x x x x x x x x x x x x x x x x x x x x x x x x x x x x F x x x x x ",
"x x x x x x x x x x x x x x x x x x x x x x x x x x x x x x x x x x x x x x x x x x x x x x x x x x x x x x x x x x x x x x x x ",
"x x x x x x x x x x x x x x x x x x x x x x x x x x x x x x x x x x x x x x x x x x x x x x x x x x x x x x x x x x x x x x x x ",
"x x x x x x x x x x x x x x x x x x x x x x x x x x x x x x x x x x x x x x x x x x x x x x x x x x x x x x x x x x x x x x x x ",
"x x x x x x x x x x x x x x x x x x x x x x x x x x x x x x x x x x x x x x x x x x x x x x x x x x x x x x x x x x x x x x x x ",
"x x x x x x x x x x x x x x x x x x x x x x x x x x x x x x x x x x x x x x x x x x x x x x x x x x x x x x x x x x x x x x x x "
};
