/* XPM */
static char *_[] = {
/* columns rows colors chars-per-pixel */
"64 64 254 2 ",
"   c #010000",
".  c #0C0000",
"X  c #090B09",
"o  c #160101",
"O  c #131507",
"+  c #1A1B1A",
"@  c #270000",
"#  c #390000",
"$  c #3C1C1C",
"%  c #252702",
"&  c #363600",
"*  c #0A332E",
"=  c #252626",
"-  c #363635",
";  c #470000",
":  c #5B0101",
">  c #451C1C",
",  c #680000",
"<  c #7B0000",
"1  c #7B1E1E",
"2  c #36652F",
"3  c #464600",
"4  c #595901",
"5  c #717104",
"6  c #76621D",
"7  c #034A4A",
"8  c #0D5A5A",
"9  c #1C6A6A",
"0  c #4C4B4B",
"q  c #585959",
"w  c #7A4242",
"e  c #675858",
"r  c #6C6554",
"t  c #576868",
"y  c #4D7272",
"u  c #427E7E",
"i  c #547777",
"p  c #6A6A6A",
"a  c #707470",
"s  c #7D7D7D",
"d  c #870202",
"f  c #970000",
"g  c #9D1F1F",
"h  c #A20000",
"j  c #AC0000",
"k  c #B70704",
"l  c #BF0000",
"z  c #B90A0A",
"x  c #BE1901",
"c  c #AD1414",
"v  c #A21D1D",
"b  c #B31817",
"n  c #BC2506",
"m  c #BF2A00",
"M  c #BF3701",
"N  c #B03117",
"B  c #962929",
"V  c #883837",
"C  c #953C3C",
"Z  c #AA2828",
"A  c #B02A29",
"S  c #A33838",
"D  c #C10704",
"F  c #C10A00",
"G  c #C51802",
"H  c #C71C12",
"J  c #C51A1A",
"K  c #FE0200",
"L  c #FC0B00",
"P  c #FB1600",
"I  c #C02A00",
"U  c #C92800",
"Y  c #C83401",
"T  c #F43902",
"R  c #C82626",
"E  c #CE3838",
"W  c #BD4401",
"Q  c #B86E0B",
"!  c #A54F2F",
"~  c #956237",
"^  c #C74700",
"/  c #D14700",
"(  c #C85703",
")  c #D45900",
"_  c #EB4801",
"`  c #FC4A00",
"'  c #E65800",
"]  c #FC5701",
"[  c #C86700",
"{  c #D56502",
"}  c #D96700",
"|  c #C67600",
" . c #C07E00",
".. c #D87700",
"X. c #EC6902",
"o. c #FD7900",
"O. c #D7592F",
"+. c #994747",
"@. c #935955",
"#. c #A64444",
"$. c #B75050",
"%. c #966845",
"&. c #8D6665",
"*. c #996E69",
"=. c #847979",
"-. c #D14F4F",
";. c #ED6C55",
":. c #DA6C69",
">. c #DD7777",
",. c #748A15",
"<. c #37965F",
"1. c #73B153",
"2. c #498A7A",
"3. c #6C9D67",
"4. c #7CC146",
"5. c #6DC358",
"6. c #58C870",
"7. c #69D26D",
"8. c #8A8A00",
"9. c #8F9609",
"0. c #B69406",
"q. c #BCB907",
"w. c #A8B113",
"e. c #BBBC16",
"r. c #9C9E30",
"t. c #AEAE2F",
"y. c #C48800",
"u. c #C79700",
"i. c #D49207",
"p. c #E18600",
"a. c #FD8900",
"s. c #E49600",
"d. c #C7A801",
"f. c #D1AB08",
"g. c #C4B600",
"h. c #D9BB00",
"j. c #EFA601",
"k. c #EAB702",
"l. c #FDB700",
"z. c #D8B72D",
"x. c #B4C413",
"c. c #9DD033",
"v. c #AACF2A",
"b. c #C5C400",
"n. c #CBCB01",
"m. c #C3C90B",
"M. c #D8C702",
"N. c #D3D402",
"B. c #D8D506",
"V. c #DCDC00",
"C. c #CBC919",
"Z. c #CFD813",
"A. c #EAC600",
"S. c #FBC701",
"D. c #EBD207",
"F. c #F5D600",
"G. c #FCD700",
"H. c #DCE60A",
"J. c #E3E300",
"K. c #E9E606",
"L. c #ECEC00",
"P. c #FBE400",
"I. c #FBEB00",
"U. c #F4F300",
"Y. c #FCF400",
"T. c #FEFE00",
"R. c #F9FB09",
"E. c #E8EA14",
"W. c #FBFB15",
"Q. c #D1D12F",
"!. c #CCF028",
"~. c #EBEB2F",
"^. c #F9F925",
"/. c #FFFF2A",
"(. c #FEFE35",
"). c #95924D",
"_. c #91A545",
"`. c #A7A74F",
"'. c #8A8A6F",
"]. c #B7B76E",
"[. c #E6B952",
"{. c #82D856",
"}. c #A4D050",
"|. c #97E44D",
" X c #A5E943",
".X c #D9D951",
"XX c #FFC750",
"oX c #E8E848",
"OX c #FEFD47",
"+X c #F2F257",
"@X c #DBDB66",
"#X c #D3D271",
"$X c #FFFF67",
"%X c #E9E772",
"&X c #FCFB78",
"*X c #059290",
"=X c #249B9B",
"-X c #379190",
";X c #2FAE97",
":X c #19A7A6",
">X c #0FB0A9",
",X c #0BB6B5",
"<X c #05BABA",
"1X c #31A7A7",
"2X c #4A9896",
"3X c #678C8C",
"4X c #7A8382",
"5X c #55A0A0",
"6X c #2BC196",
"7X c #37CA93",
"8X c #16C1AB",
"9X c #05C0BA",
"0X c #22C7A5",
"qX c #43D08D",
"wX c #00C0C0",
"eX c #0FC3C3",
"rX c #18C5C5",
"tX c #2FC8C8",
"yX c #5BD2D2",
"uX c #808080",
"iX c #8C8B8B",
"pX c #999898",
"aX c #A49090",
"sX c #AAAA93",
"dX c #A8A8A8",
"fX c #A8BABA",
"gX c #B9B8B6",
"hX c #DF9D95",
"jX c #E9A7A7",
"kX c #EAB2B2",
"lX c #D3D393",
"zX c #E5E589",
"xX c #FDFD85",
"cX c #E5E597",
"vX c #FEFE97",
"bX c #C7C7AF",
"nX c #F1D3A0",
"mX c #F7F7A7",
"MX c #FFFFB6",
"NX c #8ED9D9",
"BX c #85E0E0",
"VX c #C9CCCB",
"CX c #D5D5D5",
"ZX c #DADADA",
"AX c #F8D9CD",
"SX c #EDE8C6",
"DX c #F7F7C6",
"FX c #FBFAD7",
"GX c #E9EAE7",
"HX c #F8E3E3",
"JX c #FBFBE5",
"KX c #EAF0F0",
"LX c #FBFBF5",
"PX c #FEFEFD",
/* pixels */
"l l l l l l l l l l l l l l l l l l l l l l l l l l l l l l l l l l l l l l l l l l l l l l l l l l l l l l l l l l l l l l l l ",
"l l l l l l l l l l l l l l l l l l l l l l l l D J R R R A v v v v v v v v v v v v v v v c k l l l l l l l l l l l l l l l l l ",
"l l l l l l l l l l l l l l l l l l l l l l l l R :.hXhXhXaXa y y y y y y y y y y y y y t w c l l l l l l l l l l l l l l l l l ",
"l l l l l l l l l l l l l l l l l l l l l l D D -.jXKXKXKXNXtX<X<X<X<X<X<X<X<X<X<X<X<X<X>Xy B z k l l l l l l l l l l l l l l l ",
"l l l l l l l l l l l l l l l D l l l l l l R :.hXfXBXBXBXyXrXwXwXwXwXwXwXwXwXwXwXwXwXwX<X=Xt w v l l l l l l l l l l l l l l l ",
"l l l l l l l l l l l l l l l l l l l l l l -.kXCXyXrXrXrXeXwXwXwXwXwXwXwXwXwXwXwXwXwXwX<X<X>Xu V l l l l l l l l l l l l l l l ",
"l l l l l l l l l l l l l l l l l l l l l l $.fXBXtXwXwXwXwXwX<XwXwXwXwXwXwXwXwXwXwXwXwXwXwXwX-XV l l l l l l l l l l l l l l l ",
"l l l l l l l l l l l l l l l l l l l l l l +.5XtXeXwXwXwXwX<X<XwXwXwXwXwXwXwXwXwXwXwXwXwXwXwX-XV l l l l l l l l l l l l l l l ",
"l l l l l l l l l l l l l c B B B B B B B B q :XwXwXwXwX9X8X6X;X;X-X-X-X-X-X;X;X6X6X6X6X6X8X9X-XV l l l l l l l l l l l l l l l ",
"l l l l l l l l l l l l k V t u u u u u u u =X>XwXwXwXwX9X6X5._.%.#.#.#.#.#.%._.4.4.4.1.1.6.8X-XV l l l l l l l l l l l l l l l ",
"l l l l l l l l l l l z v e :X<X<X<X<X<X<X,X8X8X8X8X8X8X8X6.x.i._ P P P L K _ u.b.b.b.b.x.4.6X2XV z k l l l l l l l l l l l l l ",
"l l l l l l l l l l z V t -X>XwXwX9XwX9X6X6.5.5.{.5.5.5.5.c.Z.A.j.a.X.' T L ` k.J.J.J.V.V.v.4.1.%.S b l l l l l l l l l l l l l ",
"l l l l l l l l l l c e =X>X,X<X<X<X<X8X6.v.Z.H.H.Z.x.x.x.Z.L.Y.Y.P.M.d.' P ] S.R.R.R.Y.U.H.m.t.).&.Z l D D l l l l l l l l l l ",
"l l l l l l l l l l z V t y y y y 2.6.7.}.#X.XE.E..X@X@X@X~.W.T.T.Y.L.M.X.P ] XX$X$X$X/.T.L.V.C.t.).N k l D l l l l l l l l l l ",
"l l l l l l l l l l l c v v v v v N f.!.%XDXzXQ.Q.zXFXFXDX&X^.T.T.T.Y.P.a.P ;.nXFXFXDX$XR.Y.U.J.m.0.W l l l l l l l l l l l l l ",
"l l l l l l l l l l l l l l l G Y { z.OX&XmXzX@X@XSXPXPXPXMX$X(.W.Y.G.l.o._ ;.AXPXPXJXvXOX/.R.L.N.d.Q M x l l l l l l l l l l l ",
"l l l l l l l l l l l D l l l Y p.D.%XmXzX.X@XcXSXJXPXPXPXJXDXxX(.P.a.] X.p.[.SXPXPXLXFXMX$XW.L.N.g.d.y.^ F l l l l l l l l l l ",
"l l l l l l l l l l l l l k x ) k./.vXJXzXC..XSXLXGXZXZXZXGXLXMXOXG.o.T X.z.#XbXCXCXZXKXLXvX/.U.V.n.b.g.Q n z k l l l l l l l l ",
"l l l l l l l l l l D D l m Q u.F./.vXJXzXC..XDXZXpXp p p dXGXMXOXI.S.j.[.zXsX'.p p s gXJXvX/.U.L.V.n.q.r.%.S z l l l l l l l l ",
"l l l l l l l l l l D D D ^ u.N.E.(.vXFX%XC..XDXVXq X X O p ZXMXOXT.Y.W.&XFXdX- X X = iXGXvX/.T.T.U.V.q.r.'.+.b l l l l l l l l ",
"l l l l l l l l l l l l F ( h.E.+X&XxX&XoXE.+XDXVXq     X p CXMXOXT.T.W.&XJXdX-     + iXGXvX/.T.T.U.V.q.w.r.~ n l l l l l l l l ",
"l l l l l l l l l l l l F { F.(.mXDX$X^.R.R.+XDXVXq     X p CXMXOXT.T.W.&XJXdX-     + iXGXvX/.T.T.U.V.b.q.q.Q m l l l l l l l l ",
"l l l l l l l l l l l l F } F./.&XxXOXT.T.T.(.xXzXr.4 4 4 ).zXxX+XoXoXoX&XvX#X6 4 4 5 `.vX$XW.T.T.U.V.b.b.g. .m l l l l l l l l ",
"l l l l l l l l l l l l F } F.R././.W.T.T.T.W./.^.Z.b.b.n.Z.^.+X#XlXlXlX%XOX~.B.b.b.n.E.(.^.R.T.T.U.V.b.b.g. .m l l l l l l l l ",
"l l l l l l l l l l l l F } F.I.G.S.S.S.P.Y.T.T.T.T.T.T.T.W.^.+XlXVXVXbX#X~.W.R.T.T.T.T.T.T.T.I.G.l.j.u.d.g. .m l l l l l l l l ",
"l l l l l l l l l l l l F } F.G.a.] ] ] j.I.T.T.T.T.T.T.T.~.@XlXSXGXCXbXbXlXoXW.T.T.T.T.T.T.T.G.a.] _ _ ..g. .m l l l l l l l l ",
"l l l l l l l l l l l l F } F.l.` K K P o.P.T.T.T.T.T.T.T.oXbXVXGXKXCXgXgXgX#X^.T.T.T.T.T.T.T.l.` K K L ' d. .m l l l l l l l l ",
"l l l l l l l l l l l l F } F.l.` K K P o.P.T.T.T.T.T.T.T.oXbXVXCXCXgXpX].].Q.E.T.T.T.T.T.T.T.l.` K K L ' d. .m l l l l l l l l ",
"l l l l l l l l l l l l F } F.l.` L L P o.G.Y.T.T.T.T.T.T.oXlXbXbXgXpX'.`.e.B.U.T.T.T.T.T.T.Y.l.` L L P ' d. .m l l l l l l l l ",
"l l l l l l l l l l l l F } F.G.a.] ' ' X.s.k.I.T.T.T.T.T.~.@X#X#X].`.`.t.N.J.U.T.T.T.T.Y.F.j.p.' ' ] X.s.g. .m l l l l l l l l ",
"l l l l l l l l l l l l F } F.Y.P.F.k.u.[ Y ..F.T.T.T.T.T.R.W.E.C.e.e.e.B.L.Y.T.T.T.T.T.Y.j./ ^ | f.A.F.A.b. .m l l l l l l l l ",
"l l l l l l l l l l l l F { A.U.Y.Y.J.M.y.^ { s.A.P.T.T.T.T.T.U.V.N.N.N.J.Y.T.T.T.T.Y.F.k.p.^ [ d.N.J.J.Z.e.Q n l l l l l l l l ",
"l l l l l l l l l l l l l ( f.V.U.T.U.K.h.u.| ( ..A.T.T.T.T.T.Y.U.L.L.L.U.T.T.T.T.T.I.s.) [  .d.B.L.V.n.t.).~ b D l l l l l l l ",
"l l l l l l l l l l l l l W y.h.K.T.T.Y.J.n.y.^ ^ s.F.F.F.F.F.F.F.F.F.F.F.F.F.F.F.F.A...Y [ d.N.L.L.N.q.r.&.+.b D l D D l l l l ",
"l l l l l l l l l l l l l n W ..D.T.T.T.U.J.h.y.| { } } } } } } } } } } } } } } } } } [ | d.B.J.V.N.n.g.Q ! Z z D D D l l l l l ",
"l l l l l l l l l l l l l l l ^ k.R.R.T.T.T.K.M.u.^ G G H H H H H H H H H H H H H G I | g.V.U.L.N.b.x.w.Q N z k l D D D l l l l ",
"l l l l l l l l l l l l l l l W _.|.!.T.T.T.U.J.M.y.( O.>.>.>.>.>.>.>.>.>.>.>.>.:.O.[ d.V.L.Y.L.N.x.c.1.3.r V c l l l l l l l l ",
"l l l l l l l l l l l l l l l V 2.7X XR.T.T.T.Y.L.M.f.#XAXHXHXHXHXHXHXHXHXHXHXHXnX.Xg.V.U.Y.T.L.N.w.6.8X>X>Xy B l l l l l l l l ",
"l l l l l l l l l l l l l v V t =X8X7. X!.R.T.T.U.J.Z.[.jXjXjXjXjXjXjXjXjXjXjXjXhXz.b.J.Y.E.Q.Q.t.t.5.6.6.6.1.Q M x l l l l l l ",
"l l l l l l l l l l l l k V u :X,X9X0XqX|.R.T.T.T.U.K.i.E E E E E E E E E E E E O.i.b.J.U.Q.`.'.'.).}.!.!.!.C.d.Q M l l l l l l ",
"l l l l l l l l l l D G Y %.6.7X7X7X;X-X_.M.F.Y.T.T.I.s./ Y I m I I I I I I I I ^ u.N.H.K.Q.'.uXuX'.t.n.J.Y.L.n.u.W l l l l l l ",
"l l l l l l l l l l F ) s.C.v. X X}.).V ! ( s.F.T.T.Y.F.j.i.y.Q  . . . . . . . .u.M.J.H.N.t.'.uXuXa 6 4 w.L.L.n.u.W l l l l l l ",
"l l l l l l l l l l G p.I.T.Y.U.I.A.) F l l ) k.I.U.Y.Y.Y.J.n.b.b.b.b.b.b.b.b.b.N.J.L.B.e.r.'.uXuXp - O 5 J.L.n.0.W j j l l l l ",
"l l l l l l l l l l G p.I.U.J.M.s.} Y D l l U ) p.h.J.L.T.U.J.J.J.J.J.J.J.J.J.J.V.V.B.e.`.).'.uXuXp - O 5 J.L.n.0.4 , f l l l l ",
"l l l l l l l l D l G p.I.J.n.u.^ F D l l l l x M 0.m.H.U.R.U.U.Y.Y.Y.Y.U.U.U.U.L.N.e._.'.'.'.uX'.p - O 5 V.J.b.8.3 @ , j l l l ",
"l l l l l l l l l l G p.I.J.n.y.M l l l l l v V r 1.4.{.|.!.H.J.J.J.J.J.J.J.J.J.Z.c.1.3.3.uXuXuX'.p - O 3 8.8.5 4 % . # , f j l ",
"l l l l l l l l l l G p.I.J.n.y.M l l l D l V u :X:X8X0X6X5.x.n.n.n.n.n.n.n.n.n.v.6.;X2X4XuXuXuXuXp - X O % % % O .   o @ : h l ",
"l l l l l l l l l l F { j.f.u.Q m l l l v V t :XwXwX<X>X*X<.,.8.8.8.8.8.8.8.9.r.5.6X,X2X4XuXuXuXuXp -                   . ; h l ",
"l l l l l l l l l l D U / ^ Y m k l l z w u =X,X<XwX,X9 * * & & & & & & & & 2 <.6X8X,X2X4XuXuXuXuXp -                   . ; h l ",
"l l l l l l l l l l l l l l l l l l z v e *X>X>X>X>X:X8 X                   7 *X<X,X:X2X4XuXuXuXuXp -                   . ; h l ",
"l l l l l l l l l l l l l l l l l z Z +.0 7 7 7 8 u 2X- X                   7 *X,X1X2X3X4XuXuXuXuXp -                   . ; h l ",
"l l l l l l l l l l l l l l l l k b +.=.0 + X X = q p - o . . .             * *X:X2X4X4X4XuXuXs s p -           . . . . o : h l ",
"l l l l l l l l l l l l l l l z Z #.*.pXs t 0 0 0 w C 1 : : : ; o           * 7 9 i s uXuXuX4Xa q - +           o # : : : d j l ",
"l l l l l l l l l l l l l l l Z @.=.pXgXgXdXpXs &.S z k j j j < #             X = q s uXuX4XuXq = X             @ , j j j j l l ",
"l l l l l l l l l l l l l l l Z @.iXpXdXdXdXaX*.+.b l l l l l f , ; ; # @ .     + q uXuXuXuXuXq =     . o # ; ; : f l l l l l l ",
"l l l l l l l l l l l l l l l Z @.uXiXiXiXiX*.S b z l l l l l j h f f d ; .     + q uXuXuXuXuXq =     . ; d f f f j l l l l l l ",
"l l l l l l l l l l l l l l l b +.&.&.&.&.&.+.b l l l l l l l l l l l j < # @ @ $ e s uX=.=.&.w > @ @ # , j l l l l l l l l l l ",
"l l l l l l l l l l l l l l l z b Z Z Z Z Z b z l l l l l l l l l l l l h d < < 1 e =.uX=.@.S g d < < d f l l l l l l l l l l l ",
"l l l l l l l l l l l l l l l l l l l l l l l l l l l l l l l l l l l l l l l l b +.=.=.&.+.z l l l l l l l l l l l l D l l l l ",
"l l l l l l l l l l l l l l l l l l l l l l l l l l l l l l l l l l l l l l l l z Z S S S Z z l l l l l l l l l l l l D l l l l ",
"l l l l l l l l l l l l l l l l l l l l l l l l l l l l l l l l l l l l l l l l l k z z z k l l l l l l l l l l l l l l l l l l ",
"l l l l l l l l l l l l l l l l l l l l l l l l l l l l l l l l l l l l l l l l l D l l l l l l l l l l l l l l l l l l l l l l ",
"l l l l l l l l l l l l l l l l l l l l l l l l l l l l l l l l l l l l l l l l l l l l l l l l l l l l l l l l l l l l l l l l ",
"l l l l l l l l l l l l l l l l l l l l l l l l l l l l l l l l l l l l l l l l l l l l l l l l l l l l l l l l l l l l l l l l "
};
