/* XPM */
static char *_[] = {
/* columns rows colors chars-per-pixel */
"64 64 255 2 ",
"   c #010101",
".  c #080909",
"X  c #170000",
"o  c #1D0101",
"O  c #181800",
"+  c #071212",
"@  c #131313",
"#  c #1B1B1B",
"$  c #290202",
"%  c #370909",
"&  c #252E09",
"*  c #363802",
"=  c #082B2A",
"-  c #2A2A29",
";  c #383838",
":  c #460202",
">  c #560202",
",  c #6B0000",
"<  c #710000",
"1  c #7C0101",
"2  c #623E1F",
"3  c #4B2424",
"4  c #366F39",
"5  c #4A4D03",
"6  c #68680F",
"7  c #6E6E23",
"8  c #034A4A",
"9  c #164949",
"0  c #005555",
"q  c #344747",
"w  c #2C7C50",
"e  c #016868",
"r  c #007D7D",
"t  c #494949",
"y  c #535353",
"u  c #7B4F4B",
"i  c #685757",
"p  c #58644E",
"a  c #596866",
"s  c #4A7171",
"d  c #4C7373",
"f  c #437C7C",
"g  c #666565",
"h  c #756969",
"j  c #747474",
"k  c #7A7A7A",
"l  c #8A0101",
"z  c #950202",
"x  c #92190F",
"c  c #AB0000",
"v  c #B70101",
"b  c #BF0000",
"n  c #BE0D01",
"m  c #B50C0C",
"M  c #BB0B0B",
"N  c #AF120F",
"B  c #BD1501",
"V  c #AB1515",
"C  c #A21D1D",
"Z  c #B71717",
"A  c #BF2901",
"S  c #B42E0D",
"D  c #8F2F2F",
"F  c #952A2A",
"G  c #8B3434",
"H  c #AC2424",
"J  c #A92C2C",
"K  c #BA2828",
"L  c #A43937",
"P  c #B53730",
"I  c #C10B08",
"U  c #C71B08",
"Y  c #C71C12",
"T  c #C41919",
"R  c #FF0100",
"E  c #FC0B00",
"W  c #F4150A",
"Q  c #C82501",
"!  c #C02A00",
"~  c #CA3600",
"^  c #C82518",
"/  c #F42404",
"(  c #E63015",
")  c #C62626",
"_  c #CE3939",
"`  c #FA3A3A",
"'  c #BB4B07",
"]  c #BD5205",
"[  c #BF5C01",
"{  c #BD6804",
"}  c #B6760B",
"|  c #A55227",
" . c #AD6F2A",
".. c #C54800",
"X. c #C95907",
"o. c #FC4C01",
"O. c #E55800",
"+. c #D16604",
"@. c #D96700",
"#. c #C77600",
"$. c #C07E00",
"%. c #CA710C",
"&. c #D97604",
"*. c #F97100",
"=. c #CA502A",
"-. c #9B4847",
";. c #8E5754",
":. c #955B59",
">. c #BF4848",
",. c #B85959",
"<. c #88664E",
"1. c #8E6363",
"2. c #8C6F6A",
"3. c #976D6A",
"4. c #847979",
"5. c #B47676",
"6. c #FF4646",
"7. c #D66251",
"8. c #CC6D6D",
"9. c #DD7776",
"0. c #DB7878",
"q. c #5C8A2D",
"w. c #2B9B70",
"e. c #7C8D4F",
"r. c #72B64F",
"t. c #50A466",
"y. c #7EC042",
"u. c #75C14C",
"i. c #6FC253",
"p. c #4BC276",
"a. c #61C362",
"s. c #8F9102",
"d. c #8E951F",
"f. c #BD9402",
"g. c #BABA06",
"h. c #B3AF11",
"j. c #A8962B",
"k. c #97AC32",
"l. c #AFAF31",
"z. c #C68900",
"x. c #DA8805",
"c. c #C49700",
"v. c #FF8A00",
"b. c #E49600",
"n. c #C0A200",
"m. c #C1AD00",
"M. c #C3B902",
"N. c #D7B900",
"B. c #C6BC14",
"V. c #F4AE00",
"C. c #CD9F31",
"Z. c #E28B21",
"A. c #B4C713",
"S. c #8FC535",
"D. c #A6D730",
"F. c #C3C300",
"G. c #CCCC00",
"H. c #C8CB0D",
"J. c #D2C702",
"K. c #D4D500",
"L. c #DCDC01",
"P. c #D1D80B",
"I. c #D1D016",
"U. c #FBCA00",
"Y. c #F5D700",
"T. c #FAD901",
"R. c #D3E411",
"E. c #E3E300",
"W. c #EAE504",
"Q. c #EBEB01",
"!. c #FDE800",
"~. c #F3F300",
"^. c #FCF400",
"/. c #FEFE00",
"(. c #F3F70F",
"). c #F7FA09",
"_. c #E6E616",
"`. c #DBDB25",
"'. c #CBCB3B",
"]. c #DEDE35",
"[. c #F3F326",
"{. c #F2F038",
"}. c #97934C",
"|. c #96B044",
" X c #A5A55A",
".X c #B4AD50",
"XX c #878473",
"oX c #B2B269",
"OX c #D7B751",
"+X c #EB9664",
"@X c #96CD51",
"#X c #96E44E",
"$X c #D3D050",
"%X c #EAEA4A",
"&X c #D8D370",
"*X c #DADA79",
"=X c #E7E775",
"-X c #018A8A",
";X c #049592",
":X c #2F9291",
">X c #2DB294",
",X c #00A3A3",
"<X c #00ACAC",
"1X c #1AA9A9",
"2X c #11B8AE",
"3X c #08B4B3",
"4X c #05BABA",
"5X c #40BDBD",
"6X c #37C089",
"7X c #2AC096",
"8X c #28C09B",
"9X c #15C0AA",
"0X c #06C0BA",
"qX c #26C8A2",
"wX c #68CEA0",
"eX c #00C0C0",
"rX c #09C2C1",
"tX c #1AC6C6",
"yX c #33CBCB",
"uX c #68D6D2",
"iX c #828281",
"pX c #8C8A8A",
"aX c #9A8080",
"sX c #969595",
"dX c #B28686",
"fX c #B8B894",
"gX c #A7A7A6",
"hX c #B9A8A8",
"jX c #B9B9B9",
"kX c #CA8E8E",
"lX c #E99696",
"zX c #E6A89C",
"xX c #C5A2A2",
"cX c #E9A7A7",
"vX c #F2B4B4",
"bX c #D1D192",
"nX c #ECEA91",
"mX c #C3C3BA",
"MX c #D3D3B4",
"NX c #EED9B0",
"BX c #EAE9A9",
"VX c #EFEFBF",
"CX c #9DD4D4",
"ZX c #87E1E1",
"AX c #C9C8C7",
"SX c #D6C7C7",
"DX c #D5D5D5",
"FX c #EED7D4",
"GX c #CDE9CF",
"HX c #F1EFD2",
"JX c #E7E7E6",
"KX c #F8E3E3",
"LX c #F7F7E7",
"PX c #EAF0F0",
"IX c #FAFAF8",
/* pixels */
"b b b b b b b b b b b b b b b b b b b b I I I I I I I b b I I I b b b b b b b b b b I I b b b b b b b b b b b b b b b b b b b b ",
"b b b b b b b b b b b b b b b b b b I ) ) ) ) H C C C C C C C C C C C C C C V m b b b I b b b b b b b b b b b b b b b b b b b b ",
"b b b b b b b b b b b b b b b b b I _ 0.lXlXkXiXd d d d d d d d d d d d d d a D v b b b b b b b b b b b b b b b b b b b b b b b ",
"b b b b b b b b b b b b b b b b I T 8.SXPXPXGXuX4X4X3X3X3X3X3X4X4X4X4X4X4X4X1Xi V M b b b b b b b b b b b b b b b b b b b b b b ",
"b b b b b b b b b b b b b b b I _ 0.hXCXZXZXuXyXrXeXeXeX4X4X4XeXeXeXeXeXeXeX3X:Xi D m b b b b b b b b b b b b b b b b b b b b b ",
"b b b b b b b b b b b b b b b T 9.FXCXyXtXtXtXrXeXeXeXeX4X4XeXeXeXeXeXeXeXeX4X3X1Xi V b b b b b b b b b b b b b b b b b b b b b ",
"b b b b b b b b b b b b b b b Z 5.CXuXtXeXeXeXeXeXeXeXeXeXeXeXeXeXeXeXeXeXeXeXeX3Xa V b b b b b b b b b b b b b b b b b b b b b ",
"b b b b b b b b b b b b b I b N h 5XtXrXeXeXeXeXeXeXeXeXeXeXeXeX4X4XeXeXeXeXeXeX3Xa V b b b b b b b b b b b b b b b b b b b b b ",
"b b b b b b v V F F F F F F F G f 3XeXeXeXeX0X9X8X7X7X7X7X7X7X7X7X7X7X7X7X7X8X9X3Xa V b b b b b b b b b b b b b b b b b b b b b ",
"b b b b b b V u f f f f f f f :X1X4XeXeXeXeX9Xp.u.y.y.y.y.y.y.y.y.y.y.y.y.y.i.6X2Xa V b b b b b b b b b b b b b b b b b b b b b ",
"b b b b v m F d 3X4X4X4X4X4X2X2X2X1X1X1X1X1X>Xr.g.F.F.F.F.F.F.F.F.F.F.F.F.F.A.a.>Xa C M b b b b b b b b b b b b b b b b b b b b ",
"b b b b C u d :X4XeXeXeX0X9Xp.r.e.1.;.;.;.;.<.j.g.G.L.E.E.E.E.E.E.E.E.E.L.G.A.S.r.e.-.J m b b b b b b b b b b b b b b b b b b b ",
"b b b b D f 1X3X4X4X4X0X0X8Xu.h.+.W W W W W ( &.M.L.~.^.^.^.^.^.^.^.^.^.Q.K.F.A.h.k.XX-.Z b b b b b b b b b b b b b b b b b b b ",
"b b b b C i d d d t.p.wXuXwX@Xm.O.E R R W 6.9.+X&X].W.Q.^./././././././.~.E.K.G.g.l.}. .S b b b b b b b b b b b b b b b b b b b ",
"b b b b M V C C C  .k.oXGXGX$Xm.O.E R R ` lXKXHXHX=XI.L.~././././././././.^.Q.K.F.g.h.} A b b b b b b b b b b b b b b b b b b b ",
"b b b b b b b b I =.OXnXHXHXnX$XZ.o./ E 6.vXIXIXIXBX$X]._.~.^./././././././.^.E.K.G.F.c.] A B b b b b b b b b b b b b b b b b b ",
"b b b b b b b b I 7.NXHXIXIXHXBXOXx.O.W 6.vXIXIXIXLXVX=X`.L.Q././././././././.~.Q.L.F.m.c.{ A b b b b b b b b b b b b b b b b b ",
"b b b b b b b M K 8.SXDXJXPXIXLX*XB.&./ ` lXDXJXPXIXIXBX'.G.Q./././././././././.^.E.F.F.F.f.' Z M b b b b b b b b b b b b b b b ",
"b b b b b b M >.5.3.h XXgXAXJXLX*XB.&./ ^ -.j sXjXDXIXBX'.G.Q./././././././././.^.E.F.F.g.h. .-.H b b b b b b b b b b b b b b b ",
"b b I b b b Z 8.hXh # ; g sXDXLX*XB.&.( M > # y pXjXPXBX'.G.Q./././././././././.^.E.G.F.F.h.}.2.L M b b b b b b b b b b b b b b ",
"b b b b b b ) +XAXk @ - g sXDXLX*XH.C.+X,.3 @ t iXjXPXBX'.G.Q././././././././././.~.E.K.F.g.l.j.| n b b b b b b b b b b b b b b ",
"b b b b b b ) lXFXpX# - g sXDXLX*XH.$XNXhXt @ t iXjXPXBX'.G.Q./././././././././././.^.E.G.g.g.h.[ n b b b b b b b b b b b b b b ",
"b b b b b b ^ +XnX.X6 7 }.oXMXHXbX$X&XnX&Xd.6 d..X&XnX=X`.L.~././././././././././././.Q.G.F.F.m.[ n b b b b b b b b b b b b b b ",
"b b b b b I Q Z.{._.G.P.R.%XbXAXmXbX&X%X[.P.G.P._.[.{.[.(.~.^././././././././././././.Q.G.F.F.m.[ n b b b b b b b b b b b b b b ",
"b b b b b b Q b.^././.).[.%XbXAXAXmX*X]._.)././././././././././.!.U.U.U.T.^./././././.Q.G.F.F.m.[ n b b b b b b b b b b b b b b ",
"b b b b b b Q b.^././.[.&XbXFXJXDXmXfXoX'._./././././././././.^.V.*.o.o.v.U./././././.Q.G.F.F.m.[ n b b b b b b b b b b b b b b ",
"b b b b b b Q b.^././.{.bXAXJXPXDXjXgXpX X`./././././././././.!.*.E R R o.V./././././.Q.G.A.F.m.[ n b b b b b b b b b b b b b b ",
"b b b b b b Q b.^././.%XbXAXDXDXjXgXsXiX X`./././././././././.!.*.E R R o.V./././././.Q.G.F.F.m.[ n b b b b b b b b b b b b b b ",
"b b b b b b Q b.^././.{.bXmXmXjXgXpXiXXX X`./././././././././.T.*.W E E o.V./././././.Q.G.F.F.m.[ n b b b b b b b b b b b b b b ",
"b b b b b b Q b.^././.[.%X*XfXgXsXiXXX}.l._./././././././.!.V.b.&.O.O.*.v.T./././././.Q.G.F.F.m.[ n b b b b b b b b b b b b b b ",
"b b b b b b Q b.^././.).(.].oXpXiXXX}.l.H.W./././././././.Y.&.~ +.c.N.U.!.^./././././.Q.G.F.F.m.[ n b b b b b b b b b b b b b b ",
"b b b b b b Q x.W.~./././._.'. X X Xl.H.L.~./././././.!.U.b.+...z.J.E.^./././././.~.Q.L.G.g.h.j.' n b b b b b b b b b b b b b b ",
"b b b b b b Q #.J.E.^././.)._.`.`.`._.W.~.^./././././.U.&.X.#.c.N.W.~././././././.Q.K.G.F.h.k.}.| M b b b b b b b b b b b b b b ",
"b b b b b b B [ c.J._.W.Y.Y.Y.Y.Y.Y.Y.Y.Y.Y.Y.Y.Y.Y.Y.b.....z.G.E.^././././././.^.E.F.F.F.h.}.1.L M b b b b b b b b b b b b b b ",
"b b b b b b n A ]  ..XC.%.@.@.@.@.@.@.@.@.@.@.@.@.@.@.+.#.z.N.E.~./././././././.^.E.F.F.F.h. .J Z b b b b b b b b b b b b b b b ",
"b b b b b b b b M L 2.:.P Y Y Y Y Y Y Y Y Y Y Y Y U U ..c.J.W./././././././././.^.E.F.M.M.f.' b b b b b b b b b b b b b b b b b ",
"b b b b b b b b b C L ,.8.9.9.9.9.9.9.9.9.9.9.9.9.7.X.z.N.E.~././././././././././.E.F.n.$...! b b b b b b b b b b b b b b b b b ",
"b b b b b b b b b v m 7.vXKXKXKXKXKXKXKXKXKXKXKXFX&XB.J.Q.^././././././././././.^.E.F.f.A n b b b b b b b b b b b b b b b b b b ",
"b b b b b b b b b b b >.xXSXvXcXcXcXcXcXcXcXcXcXzXOXB.K.~./././././././././.^.~.E.A.S.e.u G V b b b b b b b b b b b b b b b b b ",
"b b b b b b b b b b b P 5.dX,._ _ _ _ _ _ _ _ _ _ %.m.K.~./././././././././.^.E.H.S.6X>X:Xd G b b b b b b b b b b b b b b b b b ",
"b b b b b b b b b b b H -.;.P A A A A ! ! ! ! ! ~ #.M.L.~./././././.^.~.Q._.I.g.s.t.2XeXeX>X<.~ ~ ~ Q I b b b b b b b b b b b b ",
"b b b b b b b b b b b m H P [ } } } } $.$.$.$.$.z.N.E.~.^./././././.Q.L.H.l.}.7 5 w 3XeXeX>X|.b.V.b.@.U b b b b b b b b b b b b ",
"b b b b b b b b b I I b b A { m.M.M.F.F.F.F.F.F.G.E.^./././././.^.~.L.A.k.}.g ; + 0 ,X<X<X>XD././.^.b.Q b b b b b b b b b b b b ",
"b b b b b b b b b b I b b B A { c.M.G.L.E.E.E.E.E.Q.^././././.^.Q.L.D.i.t.p ; # . = 0 0 0 w A././.^.b.Q b b b b b b b b b b b b ",
"b b b b b I I I I I b b b b n B { g.K.Q.~.~.~.~.^.^././.).).).~.L.A.u.7X-X8 . .   . . + + * s.~.^.^.b.~ b b b b b b b b b b b b ",
"b b b b Z _ >.>.>.K b b b b b B | r.D.P.E.E.E.E.E.E.E.R.D.#X#X#X@Xi.p.9X,Xe 8 +           O 6 s.G.~.U.x.' x 1 z b b b b b b b b ",
"b b b b K 8.xXxXxX,.M b b b b N i >Xa.A.G.G.G.G.G.G.G.S.p.qXqXqXqX9X9X0X4X<X-X8 .         . O * s.Q.^.T.f.5 $ 1 v b b b b b b b ",
"b b b b K 5.gXgXgX5.>.K M m F u f 2X6Xu.S.S.k.d.s.s.s.q.w.-X-X;X,X4XeXeX0X0X,X0 . @ - # .     O 6 h.g.g.s.* o < v b b b b b b b ",
"b b b b K 3.sXsXsXdXdX,.T C i :X1X4X9X7X6X6Xw.4 * * * & = = = 8 r 4XeXeX4X4X,X0 . - y ; @       & 5 5 5 * O o < v b b b b b b b ",
"b b b b Z -.2.4.iXsXhX5.P D s ,X3X4XeXeX4X<X-X9 o o o o o X   + 0 ;X,X,X,X,X-X8 # t j y #                   o < v b b b b b b b ",
"b b b b m H L 1.4.pXsXaX:.u q 0 -X4XeXeX,Xe 9 3 < < < < < > $ . = 8 0 0 0 0 8 q t g k y #                   o < v b b b b b b b ",
"b b b b b b Z -.2.4.iXiX4.g ; = e ,X3X3X-X= $ < c v v M m x : @ + + + + + + # t j k j y #               X X $ < v b b b b b b b ",
"b b b b b b M H -.1.4.iXiXj y q 9 e e e 9 - , z b I b Z >.,.u y t ; ; ; ; ; t g k g t - @           $ : > > , z b b b b b b b b ",
"b b b b b b b v Z -.2.:X4.k j g q + + + % 1 c v b b I _ dXhXhXgXpXj j j j j j k j t # .             : l c c c v b b b b b b b b ",
"b b b b b b b b b H -.;.;.:.2.k y ; # . $ l b b b b b P dXgXgXgXsXiXiXiXiX4.k g y - .     X $ : : : < c b b b b b b b b b b b b ",
"b b b b b b b b b m Z Z Z J :.k j g ; @ $ l b b b b b J 3.pXpXpXiXiXiXiXiX4.j t # @       o , z z z c b b b b b b b b b b b b b ",
"b b b b b b b b b b b b b Z -.1.1.1.2 % > z b b b b b H -.1.1.1.1.1.1.1.1.1.u 3 $ $ $ $ $ : l b b b b b b b b b b b b b b b b b ",
"b b b b b b b b b b b b b M Z J J J C l l c b b b b b m H J J J J J J J J J H x 1 1 1 1 1 l c b b b b b b b b b b b b b b b b b ",
"b b b b b b b b b b b b b b b b b b b b b b b b b b b b b b b b b b b b b b b b b b b b b b b b b b b b b b b b b b b b b b b b ",
"b b b b b b b b b b b b b b b b b b b b b b b b b b b b b b b b b b b b b b b b I b b b b b b b b b b b b b b b b b b b b b b b ",
"b b b b b b b b b b b b b b b b b b b b b b b b b b b b b b b b b b b b b b b b b b b b b b b b b b b b b b b b b b b b b b b b ",
"b b b b b b b b b b b b b b b b b b b b b b b b b b b b b b b b b b b b b b b b b b b b b b b b b b b b b b b b b b b b b b b b ",
"b b b b b b b b b b b b b b b b b b b b b b b b b b b b b b b b b b b b b b b b b b b b b b b b b b b b b b b b b b b b b b b b ",
"b b b b b b b b b b b b b b b b b b b b b b b b b b b b b b b b b b b b b b b b b b b b b b b b b b b b b b b b b b b b b b b b "
};
