/* XPM */
static char *_[] = {
/* columns rows colors chars-per-pixel */
"64 64 250 2 ",
"   c #010000",
".  c #0C0000",
"X  c #070C0B",
"o  c #170101",
"O  c #131707",
"+  c #011414",
"@  c #031918",
"#  c #191919",
"$  c #270000",
"%  c #3A0202",
"&  c #2F1414",
"*  c #323302",
"=  c #002727",
"-  c #003838",
";  c #292525",
":  c #2C2C2C",
">  c #393938",
",  c #4C0000",
"<  c #520000",
"1  c #5B0000",
"2  c #431F1F",
"3  c #6A0707",
"4  c #760101",
"5  c #602323",
"6  c #36652F",
"7  c #4E4911",
"8  c #6E6E05",
"9  c #7B7B23",
"0  c #004A4A",
"q  c #0B4B4B",
"w  c #255F4F",
"e  c #006565",
"r  c #006D6D",
"t  c #067872",
"y  c #484848",
"u  c #575757",
"i  c #754A4A",
"p  c #7C584D",
"a  c #675858",
"s  c #6B6B57",
"d  c #576A69",
"f  c #4D7272",
"g  c #427E7E",
"h  c #646464",
"j  c #6C6B6A",
"k  c #6B7571",
"l  c #767676",
"z  c #980101",
"x  c #8B1111",
"c  c #A20202",
"v  c #AC0000",
"b  c #B50202",
"n  c #BF0000",
"m  c #B80B09",
"M  c #BC1903",
"N  c #AD1212",
"B  c #A21E1E",
"V  c #B51616",
"C  c #BB2307",
"Z  c #BF2A00",
"A  c #AD2F18",
"S  c #882C2C",
"D  c #982727",
"F  c #883736",
"G  c #AE2323",
"H  c #A92C2C",
"J  c #B72D2B",
"K  c #A43736",
"L  c #C10A00",
"P  c #C10806",
"I  c #C41801",
"U  c #C71C12",
"Y  c #C41818",
"T  c #FE0200",
"R  c #FC0A01",
"E  c #FC1201",
"W  c #C72601",
"Q  c #C02A00",
"!  c #CA3801",
"~  c #F23401",
"^  c #C82626",
"/  c #CE3838",
"(  c #B4490D",
")  c #BB6E09",
"_  c #A1513D",
"`  c #996027",
"'  c #C64802",
"]  c #D14F04",
"[  c #C95900",
"{  c #E45202",
"}  c #FD5A00",
"|  c #C66603",
" . c #D66503",
".. c #D96700",
"X. c #C67200",
"o. c #C07E00",
"O. c #D87B00",
"+. c #FD6600",
"@. c #F26F00",
"#. c #D3512C",
"$. c #994847",
"%. c #955650",
"&. c #A54444",
"*. c #A1534B",
"=. c #B65656",
"-. c #937443",
";. c #8E6464",
":. c #8A6E6B",
">. c #8C706B",
",. c #AA7474",
"<. c #CF5151",
"1. c #FD5846",
"2. c #D26F6D",
"3. c #DD7777",
"4. c #36A26C",
"5. c #7AB447",
"6. c #539C6C",
"7. c #7EC042",
"8. c #6CC255",
"9. c #50C373",
"0. c #76DB65",
"q. c #69D670",
"w. c #8B8F04",
"e. c #BCBB03",
"r. c #B3AD10",
"t. c #959936",
"y. c #B2B42D",
"u. c #C68800",
"i. c #D98802",
"p. c #C99900",
"a. c #CB9215",
"s. c #E28800",
"d. c #EF9700",
"f. c #CEAD04",
"g. c #C5B803",
"h. c #E8A601",
"j. c #EAB700",
"k. c #EDBF1C",
"l. c #E9A727",
"z. c #A1C927",
"x. c #ADE539",
"c. c #C5C400",
"v. c #CBCB01",
"b. c #CAC908",
"n. c #D7C902",
"m. c #D5D403",
"M. c #DCDC00",
"N. c #D7D619",
"B. c #EBCC05",
"V. c #FAC700",
"C. c #F5D700",
"Z. c #FCD800",
"A. c #D4EB19",
"S. c #E3E300",
"D. c #EBE706",
"F. c #ECEC00",
"G. c #FAE500",
"H. c #ECF90C",
"J. c #F4F400",
"K. c #FDF401",
"L. c #FEFE00",
"P. c #F8FB0A",
"I. c #E7E718",
"U. c #E9F910",
"Y. c #FDFC13",
"T. c #FFFF1B",
"R. c #CDCD2F",
"E. c #DCDC26",
"W. c #CDF224",
"Q. c #EBEB2E",
"!. c #FBFB28",
"~. c #949349",
"^. c #B8B84F",
"/. c #A9A957",
"(. c #878973",
"). c #B3B375",
"_. c #DAAF4F",
"`. c #89D34A",
"'. c #98E54D",
"]. c #88E159",
"[. c #A3E541",
"{. c #D6D54D",
"}. c #E6E64C",
"|. c #FCFB45",
" X c #E7E758",
".X c #DBDB66",
"XX c #D3CE71",
"oX c #F6DA61",
"OX c #EBE569",
"+X c #FFFF66",
"@X c #FEFE77",
"#X c #018787",
"$X c #009494",
"%X c #358888",
"&X c #269A9A",
"*X c #379896",
"=X c #2FB291",
"-X c #02A8A8",
";X c #1CA4A4",
":X c #12B7AD",
">X c #00B2B2",
",X c #0BB6B4",
"<X c #04BBBA",
"1X c #21A7A7",
"2X c #50A38D",
"3X c #34C08C",
"4X c #29C097",
"5X c #3FCF90",
"6X c #19C5AB",
"7X c #08C1B9",
"8X c #25C8A3",
"9X c #43CE8B",
"0X c #00C0C0",
"qX c #0FC3C3",
"wX c #18C5C5",
"eX c #2FC8C8",
"rX c #5BD2D2",
"tX c #858584",
"yX c #8C8C8C",
"uX c #918484",
"iX c #999998",
"pX c #AB9494",
"aX c #B6B68C",
"sX c #A5A5A5",
"dX c #ABAAAA",
"fX c #B3B2B2",
"gX c #ED9191",
"hX c #D8A19D",
"jX c #E9A7A7",
"kX c #F1B9AD",
"lX c #D3D393",
"zX c #FFFF87",
"xX c #E5E598",
"cX c #F3F396",
"vX c #CBCBB2",
"bX c #F9F9AF",
"nX c #8ED9D9",
"mX c #85E0E0",
"MX c #C8C8C7",
"NX c #D3CFCF",
"BX c #D9D9D9",
"VX c #F7D2CD",
"CX c #EDEDCA",
"ZX c #FCFCD8",
"AX c #E8EAEA",
"SX c #F8E3E3",
"DX c #FBE9E9",
"FX c #FBFBE8",
"GX c #EAF0F0",
"HX c #FAFAF7",
/* pixels */
"n n n n n n n n n n n n n n n n n n n n n n n n n n n n n n n n n n n n n n n n n n n n n n n P P P n n n n n n n n n n n n n n ",
"n n n n n n n n n n n n n n n n n n n n n n P n P Y ^ ^ ^ G B B B B B B B B B B B B B B B B B N m n n n n n n n n n n n n n n n ",
"n n n n n n n n n n n n n n n n n n n n n n n n ^ 2.gXgXhXpXk f f f f f f f f f f f f f f f f a D n n n n n n n n n n n n n n n ",
"n n n n n n n n n n n n n n n n n n n n n n P P <.hXGXGXAXnXeX<X<X<X<X<X<X<X<X<X<X<X<X<X<X<X<X%XF m b n n n n n n n n n n n n n ",
"n n n n n n n n n n n n n n n n n n n n n n ^ <.hXfXmXmXmXrXwX0X0X0X0X0X0X0X0X0X0X0X0X0X0X0X0X;Xf i D n n n n n n n n n n n n n ",
"n n n n n n n n n n n n n n n n n n n n n n <.kXBXrXwXwXwXqX0X0X0X0X0X0X7X0X0X0X0X0X0X0X0X0X0X<X:X*Xi b n n n n n n n n n n n n ",
"n n n n n n n n n n n n n n n n n n n n n n =.fXmXeX0X0X0X<X0X<X0X0X0X0X7X0X7X0X0X0X0X0X0X0X0X0X0X;Xi m n n n n n n n n n n n n ",
"n n n n n n n n n n n n n n n n n n n n n n $.2XeXqX0X0X0X<X<X<X0X0X0X0X0X0X0X0X0X0X0X0X0X0X0X0X0X;Xi m n n n n n n n n n n n n ",
"n n n n n n n n n n n n n N D D D D D D D D a ;X0X0X0X0X7X6X4X4X4X4X4X4X4X=X=X*X*X*X*X*X*X1X<X0X0X;Xi m n n n n n n n n n n n n ",
"n n n n n n n n n n n n b F d g g g g g g g &X:X0X0X0X0X7X3X8.7.7.7.7.7.7.5.~.*.&.&.&.&.&.k ;X0X0X;Xi m n n n n n n n n n n n n ",
"n n n n n n n n n n n m B a ;X<X<X<X<X<X7X6X6X6X6X6X6X6X6X9.z.c.c.c.c.c.c.e.i.~ E R T T R $.*X:X,X&Xi b n n n n n n n n n n n n ",
"n n n n n n n n n n m F h %X:X0X0X0X0X7X5X0.].].].].].].].x.A.S.S.S.S.S.m.c.p.O.{ ~ T T R #.5.9.2X2X$.b n n n n n n n n n n n n ",
"n n n n n n n n n n N a &X:X,X<X<X<X<X6X0.W.H.H.H.H.H.H.H.P.J.J.J.J.J.J.S.b.g.g.i.~ T T E { r.y.(.:.K m n n n n n n n n n n n n ",
"n n n n n n n n n n m F d f f f f 6.6.0.x.H.L.L.L.L.L.L.L.L.L.L.L.J.J.D.E..X.X.X_.#.R ~ +.s.f.y.aXsX,.K V n n n n n n n n n n n ",
"n n n n n n n n n n n N B B B B B A a.A.U.L.L.L.L.L.L.L.L.L.L.L.L.J.M.b..XCXZXZXkX1.E +.V.B.c.{.xXBXsX;.K m P n n n n n n n n n ",
"n n n n n n n n n n n n n n n I !  .l.|.!.L.L.L.L.L.L.L.L.L.L.J.J.D.E.{.xXFXHXHXVXgX1.l.K.I.R.XXCXGXMXpX=.m n n n n n n n n n n ",
"n n n n n n n n n n n n n n n ! s.B.OXbX+XY.L.L.L.L.L.L.L.L.L.J.M.N..XbXZXHXHXHXDXVXkXoXY.|.cXCXFXHXAXNX2.Y n n n n n n n n n n ",
"n n n n n n n n n n n n n m M  .k.|.bXFXzXT.L.L.L.L.L.L.L.L.L.F.m.R.xXHXHXGXAXBXBXGXFX@XT.+XZXHXGXAXBXNX2.J m n n n n n n n n n ",
"n n n n n n n n n n n n n Z ) a.oXbXZXFXzXT.L.L.L.L.L.L.L.L.L.F.m.R.xXFXBXfXiXl tXMXFX@XT.+XZXAXMXsXtXj p %.H V n n n n n n n n ",
"n n n n n n n n n n n n n ' p.{.bXHXHXZX@XT.L.L.L.L.L.L.L.L.L.F.m.R.xXFXMXyXu ; y dXFX@XT.+XZXBXsXk > # y j *.V n n n n n n n n ",
"n n n n n n n n n n n n L [ j.}.bXFXbXzX|.Y.L.L.L.L.L.L.L.L.L.F.m.R.xXFXMXyXu # > dXFX@XT.+XZXBXsXj > O 7 t.` C n n n n n n n n ",
"n n n n n n n n n n n n L ..C.|.bXZX@X!.Y.L.L.L.L.L.L.L.L.L.L.F.m.R.xXFXMXyXu # > dXFX@XT.+XZXBXsXj > O 7 r.) Z n n n n n n n n ",
"n n n n n n n n n n n n L ..C.!.@XzX|.L.L.L.L.L.L.L.L.L.L.L.L.J.S.N.OXcXlX/.t.8 9 XXcX@X}.xXCXvX).~.9 8 w.e.o.Z n n n n n n n n ",
"n n n n n n n n n n n n L ..C.Y.!.!.T.L.L.L.L.L.L.L.L.L.L.L.L.J.J.J.!.!.Q.I.N.b.m.Q.|.OXlXvXMXlX{.N.m.c.c.g.o.Z n n n n n n n n ",
"n n n n n n n n n n n n L ..C.L.L.L.L.L.L.L.L.L.K.Z.V.V.V.Z.K.L.L.L.L.L.L.L.L.L.P.I.E.XXvXMXMXlX X!.Y.J.S.c.o.Z n n n n n n n n ",
"n n n n n n n n n n n n L ..C.L.L.L.L.L.L.L.L.L.Z.d.} } } d.G.L.L.L.L.L.L.L.L.L.I.R./.aXvXNXAXCXlX.XQ.P.S.c.o.Z n n n n n n n n ",
"n n n n n n n n n n n n L ..C.L.L.L.L.L.L.L.L.L.V.} T T R +.Z.L.L.L.L.L.L.L.L.L.I./.tXiXfXNXGXAXNXvX}.P.S.c.o.Z n n n n n n n n ",
"n n n n n n n n n n n n L ..C.L.L.L.L.L.L.L.L.L.V.} T T R +.Z.L.L.L.L.L.L.L.L.L.I./.tXyXiXfXNXBXMXvX}.P.S.c.o.Z n n n n n n n n ",
"n n n n n n n n n n n n L ..C.L.L.L.L.L.L.L.L.L.V.} R R E +.Z.K.L.L.L.L.L.L.L.L.I./.(.tXtXiXfXvXvXlX}.P.S.c.o.Z n n n n n n n n ",
"n n n n n n n n n n n n L ..C.L.L.L.L.L.L.L.L.L.Z.d.+.} { @.s.j.G.L.L.L.L.L.L.L.I.y.~.(.(.yXsXaXlX.XE.S.m.c.o.Z n n n n n n n n ",
"n n n n n n n n n n n n L ..C.L.L.L.L.L.L.L.L.L.K.G.C.j.p.X.! ..V.L.L.L.L.L.L.L.F.b.r.~.(.tXtX).R.I.M.v.c.g.o.Z n n n n n n n n ",
"n n n n n n n n n n n n L  .B.J.J.L.L.L.L.L.L.L.L.L.J.S.m.p.' [ s.V.G.L.L.L.L.L.J.S.b.y./././.^.I.J.M.c.r.y.) C n n n n n n n n ",
"n n n n n n n n n n n n n [ f.M.J.L.L.L.L.L.L.L.L.L.L.J.F.n.p.X.[ ..j.K.L.L.L.L.J.J.F.I.E.E.E.I.P.J.M.e.y.~._ V n P P n n n n n ",
"n n n n n n n n n n n n n ( u.g.D.L.L.L.L.L.L.L.L.L.L.L.L.F.m.p.' ! i.C.C.C.C.C.C.C.C.C.C.C.C.C.C.B.b.r.t.>.$.V P P n n n n n n ",
"n n n n n n n n n n n n n M ( O.B.L.L.L.L.L.L.L.L.L.L.L.L.J.F.n.p.X. ............................. .a.~.-.K G m n n n n n n n n ",
"n n n n n n n n n n n n P n n ] h.K.K.L.L.L.L.L.L.L.L.L.L.L.L.F.m.p.[ I I U U U U U U U U U U U U J *.>._ V n n n n n n n n n n ",
"n n n n n n n n n n n n P n P W ..d.B.K.L.L.L.L.L.L.L.L.L.L.L.J.S.n.u.| #.2.3.3.3.3.3.3.3.3.3.3.3.2.=.&.G b n n n n n n n n n n ",
"n n n n n n n n n n n n P P n L I ! h.K.L.L.L.L.L.L.L.L.L.L.L.L.J.F.n.g.XXVXSXSXSXSXSXSXSXSXSXSXSXVX2.V b n n n n n n n n n n n ",
"n n n n n n n n n n n n n n n n n I ..h.R.x.W.U.L.L.L.L.L.L.L.L.L.J.M.b._.hXjXjXjXjXjXjXjXjXjXkXNXvX<.P n n n n n n n n n n n n ",
"n n n n n n n n n n n n n n n n n L W ' -.9X0.W.L.L.L.L.L.L.L.L.L.J.M.g.a./ / / / / / / / / / =.,.uXK n n n n n n n n n n n n n ",
"n n n n n n n n n n n n n n n n n b B F f :X9X'.W.U.J.J.L.L.L.L.L.J.S.v.u.! Q Q Q Q Q Q Q Q Q A p a S z v n n n n n n n n n n n ",
"n n n n n n n n n n n n n n n n n N i g &X<X6X9X0.z.M.F.L.L.L.L.L.J.J.S.f.u.o.o.o.o.o.o.o.o.o.` 7 ; & , 4 b n n n n n n n n n n ",
"n n n n n n n n n n n n n n n n n B f ,X<X<X<X:X=Xt.g.M.J.J.L.L.L.L.L.J.S.v.c.c.c.c.c.c.e.e.r.8 *     . < z v v v n n n n n n n ",
"n n n n n n n n n n n n n n n n n B f <X0X<X&Xf p ` | p.M.F.J.L.L.L.L.L.J.S.S.S.S.S.M.v.e.w.8 7 O     . $ < 1 1 4 z n n n n n n ",
"n n n n n n n n n n n n n n n n n B f :X7X7X6.F m m C ) e.m.H.P.P.P.L.L.J.J.J.J.J.J.J.m.e.8 * .         . . . . % 4 b b b n n n ",
"n n n n n n n n n n n n n n n n n C ~.q.q.q.~.A n n m ` 5.`.'.'.'.[.W.S.S.S.S.S.S.S.M.z.5.6 O                   o , 4 4 4 z b n ",
"n n n n n n n n n n n n n n n n n Q a.A.W.A.a.! n n N s =X8X8X8X8X9X`.b.v.v.v.v.v.v.b.8.=Xt @                   . . o o $ 1 c n ",
"n n n n n n n n n n n n n n n n n W d.K.L.L.h.! m D i g ,X0X0X0X7X:X6.w.w.w.w.z.`.`.7.9.,X#X0 = X                       . , c n ",
"n n n n n n n n n n n n n n n n n W d.K.L.L.h.! B a %X;X<X0X0X0X7X-Xw * * * 6 4.3X3X3X6X<X-X$Xe =                       . , c n ",
"n n n n n n n n n n n n n n n L I ] h.K.G.C.i.( i %X<X0X<X>X-X-X-X#Xq o .   - t -X>X<X0X0X0X0X#X-                       . , c n ",
"n n n n n n n n n n n n n n n W ..h.C.K.j.O.` s %X;X<X0X<X$Xe 0 0 q 2 3 % . @ - e $X<X0X0X0X0X#X-                       . , c n ",
"n n n n n n n n n n n n n n n ' h.G.G.C.i.W F %X-X>X>X>X-Xr = X X & 3 c 3 o .   = t >X>X>X>X>X#X-   X X X X X     . . . o < c n ",
"n n n n n n n n n n n n n n n W  .s.s.O.] L 5 w e e e e e - + # y a %.=.S 3 % . + 0 e e e e e 0 @ X > u u u > # . % 1 1 1 z v n ",
"n n n n n n n n n n n n n n n L L I I I L n 4 & + + + + + X   : l dXfXpX=.N 4 $   X + + + + + X   # h sXdXdXk ; $ 4 v v v b n n ",
"n n n n n n n n n n n n n n n n n n P P P n x 2 : : : : : : : y tXdXdXsX=.V z 1 % & : : : : : : : > l sXdXdX:.5 1 z n n n n n n ",
"n n n n n n n n n n n n n n n n n n P P P n D i h h h h h h h k tXyXyXuX*.m b z x i h h h h h h h j l yXyXyX;.D z v n n n n n n ",
"n n n n n n n n n n n n n n n n n P P P n n G %.;.;.;.;.;.;.;.;.;.;.;.;.K m n n V $.;.;.;.;.;.;.;.;.;.;.;.;.$.V n n n n n n n n ",
"n n n n n n n n n n n n n n n n n P n n n n m G H H H H H H H H H H H H V n n n m V H H H H H H H H H H H H V m n n n n n n n n ",
"n n n n n n n n n n n n n n n n n n n n n n n n n n n n n n n n n n n n n n n n n n n n n n n n n n n n n n n n n n n n n n n n ",
"n n n n n n n n n n n n n n n n n n n n n n n n n n n n n n n n n n P n n n n n n n n n n n n n n n n n n n n n n n n n n n n n ",
"n n n n n n n n n n n n n n n n n n n n n n n n n n n n n n n n n n n n n n n n n n n n n n n n n n n n n n n n n n n n n n n n ",
"n n n n n n n n n n n n n n n n n n n n n n n n n n n n n n n n n n n n n n n n n n n n n n n n n n n n n n n n n n n n n n n n ",
"n n n n n n n n n n n n n n n n n n n n n n n n n n n n n n n n n n n n n n n n n n n n n n n n n n n n n n n n n n n n n n n n ",
"n n n n n n n n n n n n n n n n n n n n n n n n n n n n n n n n n n n n n n n n n n n n n n n n n n n n n n n n n n n n n n n n "
};
