/* XPM */
static char *_[] = {
/* columns rows colors chars-per-pixel */
"64 64 233 2 ",
"   c #010100",
".  c #0B0000",
"X  c #0E0E09",
"o  c #130000",
"O  c #1C0000",
"+  c #151500",
"@  c #071A1A",
"#  c #151515",
"$  c #230000",
"%  c #2B0000",
"&  c #360000",
"*  c #292900",
"=  c #26310B",
"-  c #373701",
";  c #1E2020",
":  c #292B2B",
">  c #343434",
",  c #420000",
"<  c #4D0000",
"1  c #4E0D0D",
"2  c #540000",
"3  c #5B0000",
"4  c #680000",
"5  c #730000",
"6  c #7D0000",
"7  c #733131",
"8  c #364B15",
"9  c #434100",
"0  c #585800",
"q  c #6E5A0E",
"w  c #295757",
"e  c #156558",
"r  c #2B6C6C",
"t  c #4C4D4D",
"y  c #575858",
"u  c #784848",
"i  c #645B5B",
"p  c #63665C",
"a  c #586868",
"s  c #4D7272",
"d  c #427E7E",
"f  c #597B7B",
"g  c #6A6A6A",
"h  c #657575",
"j  c #767A7A",
"k  c #7C7B7A",
"l  c #860000",
"z  c #940000",
"x  c #9C0101",
"c  c #A20000",
"v  c #AC0000",
"b  c #B30000",
"n  c #BF0000",
"m  c #B80B06",
"M  c #B90B0B",
"N  c #BC1704",
"B  c #AD1212",
"V  c #A21D1D",
"C  c #AC1A1A",
"Z  c #B51313",
"A  c #B11B1B",
"S  c #BC2306",
"D  c #BF2A00",
"F  c #BA2D09",
"G  c #9C2222",
"H  c #952A2A",
"J  c #8A3535",
"K  c #853A3A",
"L  c #933636",
"P  c #AE2222",
"I  c #B82323",
"U  c #A63434",
"Y  c #A13C3C",
"T  c #B73736",
"R  c #C20201",
"E  c #C90404",
"W  c #C10A00",
"Q  c #DA0100",
"!  c #C81900",
"~  c #C51A1A",
"^  c #E90000",
"/  c #F80100",
"(  c #C82500",
")  c #CE3D00",
"_  c #C82626",
"`  c #BC4700",
"'  c #BC5112",
"]  c #BC6A05",
"[  c #B8770E",
"{  c #904A33",
"}  c #A34F2E",
"|  c #9C672E",
" . c #CC460B",
".. c #D54802",
"X. c #C85700",
"o. c #D15A10",
"O. c #D56700",
"+. c #D96700",
"@. c #C07E00",
"#. c #CD7D08",
"$. c #9B4545",
"%. c #9C5547",
"&. c #955454",
"*. c #925B5B",
"=. c #A15C51",
"-. c #8C6767",
";. c #8F7360",
":. c #867373",
">. c #817D7D",
",. c #D14F4F",
"<. c #D86363",
"1. c #368852",
"2. c #75B64E",
"3. c #6F8E77",
"4. c #55AA72",
"5. c #62AD6B",
"6. c #78C24A",
"7. c #68C058",
"8. c #5DC568",
"9. c #46C079",
"0. c #64CF6B",
"q. c #77DD66",
"w. c #76DD67",
"e. c #8B8B00",
"r. c #969601",
"t. c #93970D",
"y. c #B4940B",
"u. c #A9A90A",
"i. c #BDBD04",
"p. c #BBB708",
"a. c #B6B612",
"s. c #8A8836",
"d. c #AA912B",
"f. c #8DB631",
"g. c #AEAE22",
"h. c #AAAA2B",
"j. c #AAB42B",
"k. c #A4A439",
"l. c #CC8506",
"z. c #C89700",
"x. c #C3A700",
"c. c #C3B400",
"v. c #C0BE00",
"b. c #D2B000",
"n. c #E7AE07",
"m. c #D18821",
"M. c #BCC003",
"N. c #B8C40C",
"B. c #A6C019",
"V. c #9BC024",
"C. c #8AC035",
"Z. c #85C23D",
"A. c #ACCF27",
"S. c #B8EB33",
"D. c #C1C100",
"F. c #CCCC00",
"G. c #D1C70B",
"H. c #D3D300",
"J. c #DCDC00",
"K. c #EDCF00",
"L. c #F5D700",
"P. c #DBE90E",
"I. c #E3E301",
"U. c #ECEB00",
"Y. c #E6E708",
"T. c #F3F300",
"R. c #FFFF00",
"E. c #F6FB09",
"W. c #F8F90F",
"Q. c #E3F613",
"!. c #E5F813",
"~. c #CEC431",
"^. c #C4F02D",
"/. c #FEFE28",
"(. c #EFEC31",
"). c #9E9E43",
"_. c #8D9157",
"`. c #93925A",
"'. c #8B8A68",
"]. c #828378",
"[. c #89D44A",
"{. c #89E157",
"}. c #A4E743",
"|. c #E9CB58",
" X c #F6F649",
".X c #FFFF6B",
"XX c #FBFB7A",
"oX c #049A9A",
"OX c #378989",
"+X c #36928A",
"@X c #269898",
"#X c #32B68D",
"$X c #15A9A9",
"%X c #1FB2A0",
"&X c #0CB3B3",
"*X c #04BBBB",
"=X c #09BAB9",
"-X c #18B4B4",
";X c #25A2A2",
":X c #30AAA4",
">X c #488989",
",X c #5A8E8D",
"<X c #4A9999",
"1X c #688B8B",
"2X c #7B8282",
"3X c #55A0A0",
"4X c #36C08B",
"5X c #2BC296",
"6X c #37CD96",
"7X c #17C1AA",
"8X c #07C1B9",
"9X c #12C4B2",
"0X c #24C9A4",
"qX c #4BD387",
"wX c #00C0C0",
"eX c #0FC3C3",
"rX c #18C5C5",
"tX c #2FC8C8",
"yX c #5BD2D2",
"uX c #808080",
"iX c #A78888",
"pX c #A8BABA",
"aX c #D59292",
"sX c #E59797",
"dX c #E4ABAB",
"fX c #E5E286",
"gX c #FEFD89",
"hX c #EDE7A3",
"jX c #8ED9D9",
"kX c #85E0E0",
"lX c #C6DEDE",
"zX c #FEFEC7",
"xX c #E7EFEF",
/* pixels */
"n n n n n n n n n n n n n n n n n n n n R R n n n n n n n n n n n n n n n n n n n n n n n n n n n n n n n n n n n n n n n n n n ",
"n n n n n n n n n n n n n n n n n n n n n R n n W ~ _ _ _ I V V V V V V V V V V V V V V V B m n n n n n n n n n n n n n n n n n ",
"n n n n n n n n n n n n n n n n n n n n R R n n _ <.sXsXsXiXh s s s s s s s s s s s s s s u B n n n n n n n n n n n n n n n n n ",
"n n n n n n n n n n n n n n n n n n n n R n R W ,.dXxXxXxXjXtX=X=X=X=X=X=X=X=X=X=X=X=X=X&Xs H M n n n n n n n n n n n n n n n n ",
"n n n n n n n n n n n n n n n n n n n n n n _ <.aXpXkXkXkXyXrXwXwXwXwXwXwXwXwXwXwXwXwXwX*X@Xa u C n n n n n n n n n n n n n n n ",
"n n n n n n n n n n n n n n n n n n n n n n ,.dXlXyXrXrXrXeXwXwXwXwXwXwXwXwXwXwXwXwXwXwX*X=X$Xd J n n n n n n n n n n n n n n n ",
"n n n n n n n n n n n n n n R n n n n n n n =.pXkXtXwXwXwXwXwXwXwXwXwXwXwXwXwXwXwXwXwXwXwXwXwXOXJ n n n n n n n n n n n n n n n ",
"n n n n n n n n n n n n n n n n n n n n n n $.3XtXeXwXwXwXwXwXwXwXwXwXwXwXwXwXwXwXwXwXwXwXwXwXOXJ n n n n n n n n n n n n n n n ",
"n n n n n n n n n n n n n B G H H H H H H H i @XwXwXwXwXwXwXwXwXwXwXwXwXwXwXwXwXwXwXwXwXwXwXwXOXL E E E R R n n n n R R n n n n ",
"n n n n n n n n n n n n m J a d d d d d d d @X&XwXwXwXwXwXwXwXwXwXwXwXwXwXwXwXwXwXwXwXwXwXwXwX>XU ^ ^ ^ Q R n n n n n n n n n n ",
"n n n n n n n n n n n M C i $X*X*X*X*X*X*X*X*X*XwXwXwXwXwXwXwXwXwXwXwXwXwXwXwXwXwXwXwXwXwXwXwX>XT / / / Q R n n n n n n n n n n ",
"n n n n n n n n n n M J a OX&XwXwXwXwXwXwXwXwXwXwXwXwXwXwXwXwXwXwXwXwXwXwXwXwXwXwXwXwXwXwXwXwX>XT / ^ Q E R n n n n n n n n n n ",
"n n n n n n n n n n B i @X&X*XwXwXwXwXwXwXwXwXwXwXwXwXwXwXwXwXwXwXwXwXwXwXwXwXwXwXwXwXwX*X*X=X>XT / Q R R n n n n n n n n n n n ",
"n n n n n n n n n n M K s +X&XwXwXwXwXwXwXwXwXwXwXwXwXwXwXwXwXwXwXwXwXwXwXwXwXwXwXwXwXwX*X;Xf *.o...! R n n n n n n n n n n n n ",
"n n n n n n n n n n n B G y $XwXwXwXwXwXwXwXwXwXwXwXwXwXwXwXwXwXwXwXwXwXwXwXwXwXwXwXwXwX=Xf T  .#.l. .n n n n n n n n n n n n n ",
"n n n n n n n n n n n n m K s OXOX+X#X#X4X4X4X4X5X7X8XwXwXwXwXwXwXwXwXwXwXwXwXwXwXwXwXwX=X3. .+.z.x.] D N n n n n n n n n n n n ",
"n n n n n n n n n n n n n C H J J { s.f.C.C.C.C.7.5X8XwXwXwXwXwXwXwXwXwXwXwXwXwXwXwXwXwX=X4.d.z.c.c.x.l.` m n n n n n n n n n n ",
"n n n n n n n n n n n n R R n W !  .m.~.G.F.F.F.A.8.0X9X*XwXwXwXwXwXwXwXwXwXwXwXwXwX8X9X5X7.B.D.D.D.D.p.] F M n n n n n n n n n ",
"n n n n n n n n n n n n R R n ( +.n.|.fX XY.I.I.P.S.{.qX8XwXwXwXwXwXwXwXwXwXwXwXwXwX9XqX{.A.N.D.v.D.D.p.d.%.U Z n n n n n n n n ",
"n n n n n n n n n n n n n n n ..n./.gXzXXXW.R.R.R.E.Q.q.0X9X9X9X9X9X9X9X9X9X9X9X9X9X0X{.Q.I.F.D.D.v.D.p.k.'.%.A n n n n n n n n ",
"n n n n n n n n n n n n n S ` m.|.XXgXXX XW.R.R.R.R.E.S.{.q.q.q.q.q.q.q.q.q.q.q.q.q.{.S.E.T.I.H.F.v.v.i.g.k.| S n n n n n n n n ",
"n n n n n n n n n n n n n ` y.~.hXzX.X/.W.R.R.R.R.R.R.E.!.!.!.!.!.!.!.!.!.!.!.!.!.!.!.E.R.R.R.U.H.D.D.i.i.p.[ D n n n n n n n n ",
"n n n n n n n n n n n n n X.b.(.XXgX XR.R.R.R.R.R.R.R.R.R.R.R.R.R.R.R.R.R.R.R.R.R.R.R.R.R.R.R.U.H.D.D.D.D.v.@.D n n n n n n n n ",
"n n n n n n n n n n n n W O.K.W././.W.R.R.R.R.R.R.R.R.R.R.R.R.R.R.R.R.R.R.R.R.R.R.R.R.R.R.R.R.U.H.D.D.D.D.v.@.D n n n n n n n n ",
"n n n n n n n n n n n n W +.L.R.R.R.R.R.R.R.R.R.R.R.R.R.R.R.R.R.R.R.R.R.R.R.R.R.R.R.R.R.R.R.R.U.H.D.D.D.D.v.@.D n n n n n n n n ",
"n n n n n n n n n n n n W +.L.R.R.R.R.R.R.R.R.R.R.R.R.R.R.R.R.R.R.R.R.R.R.R.R.R.R.R.R.R.R.R.R.U.H.D.D.D.D.v.@.D n n n n n n n n ",
"n n n n n n n n n n n n W +.L.R.R.R.R.R.R.R.R.R.R.R.R.R.R.R.R.R.R.R.R.R.R.R.R.R.R.R.R.R.R.R.R.U.H.D.D.D.D.v.@.D n n n n n n n n ",
"n n n n n n n n n n n n W +.L.R.R.R.R.R.R.R.R.R.R.R.R.R.R.R.R.R.R.R.R.R.R.R.R.R.R.R.R.R.R.R.R.U.H.D.D.D.D.v.@.D n n n n n n n n ",
"n n n n n n n n n n n n W +.L.R.R.R.R.R.R.R.R.R.R.R.R.R.R.R.R.R.R.R.R.R.R.R.R.R.R.R.R.R.R.R.R.U.H.D.D.D.D.v.@.D n n n n n n n n ",
"n n n n n n n n n n n n W X.G.U.T.R.R.R.R.R.R.R.R.R.R.R.R.R.R.R.R.R.R.R.R.R.R.R.R.R.R.R.R.T.U.J.F.D.D.D.D.v.@.D n n n n n n n n ",
"n n n n n n n n R R n R n X.x.J.T.R.R.R.R.R.R.R.R.R.R.R.R.R.R.R.R.R.R.R.R.R.R.R.R.R.R.R.R.U.H.D.D.D.D.D.D.v.@.D n n n n n n n n ",
"n n n n n n n n n n n n n D ] b.L.R.R.R.R.R.R.R.R.R.R.R.R.R.R.R.R.R.R.R.R.R.R.R.R.R.R.R.R.I.F.D.D.D.D.i.a.g.[ S n n n n n n n n ",
"n n n n n n n n n n n n n N D O.K.R.R.R.R.R.R.R.R.R.R.R.R.R.R.R.R.R.R.R.R.R.R.R.R.R.R.R.R.I.F.D.v.M.i.i.h.`.| A n n n n n n n n ",
"n n n n n n n n n n n n n W ( O.n.T.R.R.R.R.R.R.R.R.R.R.R.R.R.R.R.R.R.R.R.R.R.R.R.R.R.R.T.J.F.D.M.M.i.p.d.;.$.Z n n n n n n n n ",
"n n n n n n n n n n n n W ) l.n.G.J.U.R.R.R.R.R.R.R.R.R.R.R.R.R.R.R.R.R.R.R.R.R.R.R.R.U.J.F.D.D.M.M.D.p.[ } P M n n n n n n n n ",
"n n n n n n n n n n n n W +.K.U.H.F.I.R.R.R.R.R.R.R.R.R.R.R.R.R.R.R.R.R.R.R.R.R.R.R.T.J.D.D.D.M.N.N.N.a.] N n n n n n n n n n n ",
"n n n n n n n n n n n n W +.L.T.U.J.I.I.U.R.R.R.R.R.R.R.R.R.R.R.R.R.R.R.R.R.R.R.R.U.J.F.D.D.D.B.6.7.7.2.| m n n n n n n n n n n ",
"n n n n n n n n n n n n W +.L.R.R.U.J.F.J.T.R.R.R.R.R.R.R.R.R.R.R.R.R.R.R.R.R.R.T.J.D.D.D.M.M.C.9.7X7X%Xp B n n n n n n n n n n ",
"n n n n n n n n n n n n W +.L.!.^.}.[.Z.A.I.T.R.R.R.R.R.R.R.R.R.R.R.R.R.R.R.T.U.I.F.D.D.M.B.C.8.5XwXwX=XOXu H B n n n n n n n n ",
"n n n n n n n n n n n n W +.L.^.q.6X5X4X6.N.J.T.R.R.R.R.R.R.R.R.R.R.R.R.R.R.U.J.F.D.D.D.M.Z.9.7X8XwXwX*X$X@Xa G n n n n n n n n ",
"n n n n n n n n n n n n W ..n.j.5.@X;X%X5.j.G.Y.T.R.R.R.R.R.R.R.R.R.T.T.T.T.I.F.D.D.D.D.i.2.#X-X*X8X0X6X6X6X3.} S m n n n n n n ",
"n n n n n n n n n n n n n ( ..' { u h ,X3.`.k.G.J.T.R.R.R.R.R.R.R.R.I.H.H.H.F.D.D.D.D.D.i.f.3.:X-X7X0.}.}.S.A.y.] D n n n n n n ",
"n n n n n n n n n n n n n n n n M P &.>.uX].`.j.N.I.R.R.R.R.T.T.R.T.H.D.D.D.D.D.D.D.i.i.a.k.'.,X;X#X[.E.R.R.U.F.y.` v b n n n n ",
"n n n n n n n n n n n n n n n Z U %.-.>.uX3.3.5.6.A.J.J.J.J.J.J.J.J.F.D.D.D.D.D.D.D.i.g.).`.].h r e f.T.R.R.U.F.y.q 4 z n n n n ",
"n n n n n n n n n n n n n n R P &.:.>.>.k k ,X%X4X6.N.D.D.D.D.D.D.D.D.D.D.D.D.D.i.i.a.).'.].k y : = r.U.R.R.U.F.r.9 $ 4 v n n n ",
"n n n n n n n n n n n n n n n P *.uXuXk g t r $X%X9.6.V.M.D.M.M.D.D.D.D.D.D.D.D.p.g.k.`.].g y > # + 0 r.F.T.U.F.r.9 . & 5 z b n ",
"n n n n n n n n n n n n n n n P *.uXuXj t ; e oX8X7X5X6.N.D.M.D.D.D.i.D.D.D.D.D.a.).'.].k y : X X   + - e.U.U.F.r.9   o $ 3 c n ",
"n n n n n n n n n n n n n n n A $.-.:.j y : w @X-X=X9X9.f.f.t.e.e.e.e.e.t.g.g.g.k.'.k g y > X         X 0 u.u.r.q *       < c R ",
"n n n n n n n n n n n n n n n M A U *.k g a a ,X<X-X*X7X#X1.8 - - - - - q _.`.`.'.].j t : # X           * 9 9 - * +       < c R ",
"n n n n n n n n n n n n n n n n n Z $.-.:.>.uXuX1X:X-X-X$Xe @         X > g g g g g g > X                                 < c n ",
"n n n n n n n n n n n n n n n n n M A U &.:.uXuX2X,X<X<X<Xw @           # : > > > > : #                                   < c n ",
"n n n n n n n n n n n n n n n n n n n M Y -.>.>.2X2X2X2Xj t #   . . . . .   X X X X X                             . . . o 2 c n ",
"n n n n n n n n n n n n n n n n n n n n A Y *.:.2X2X2XuXk t # O , 3 3 2 % .                                     o & 3 3 3 l v n ",
"n n n n n n n n n n n n n n n n n n n n n M U -.>.>.>.k k t # & 6 v v x 3 o                                     % 5 v v v b n n ",
"n n n n n n n n n n n n n n n n n n n n n n A $.&.&.&.&.&.7 1 4 x n n b l < , , & o                     O & , , 3 z n n n n n n ",
"n n n n n n n n n n n n n n n n n n n n n n M Z A A A A A B x c b n n n v x z z 5 &                   . , l z z x b n n n n n n ",
"n n n n n n n n n n n n n n n n n n n n n n n n n n n n n n n n n n n n n n n n x 3 % % % % % % % % % & 5 v n n n n n n n n n n ",
"n n n n n n n n n n n n n n n n n n n n n n n n n n n n n n n n n n n n n n n n b z 6 6 6 6 6 6 6 6 6 l x n n n n n n n n n n n ",
"n n n n n n n n n n n n n n n n n n n n n n n n n n n n n n n n n n n n n n n n n n n n n n n n n n n n n n n n n n n n n n n n ",
"n n n n n n n n n n n n n n n n n n n n n n n n n n n n n n n n n n n n n n n n n n n n n n n n n n n n n n n n n n n n n n n n ",
"n n n n n n n n n n n n n n n n n n n n n n n n n n n n n n n n n n n n n n n n n n n n n n n n n n n n n n n n n n n n n n n n ",
"n n n n n n n n n n n n n n n n n n n n n n n n n n n n n n n n n n n n n n n n n n n n n n n n n n n n n n n n n n n n n n n n ",
"n n n n n n n n n n n n n n n n n n n n n n n n n n n n n n n n n n n n n n n n n n n n n n n n n n n n n n n n n n n n n n n n ",
"n n n n n n n n n n n n n n n n n n n n n n n n n n n n n n n n n n n n n n n n n n n n n n n n n n n n n n n n n n n n n n n n "
};
