/* XPM */
static char *digit3[] = {
/* columns rows colors chars-per-pixel */
"40 60 84 1 ",
"  c #00001F",
". c #000125",
"X c #00012D",
"o c #000037",
"O c #00003B",
"+ c #000042",
"@ c #00004B",
"# c #000054",
"$ c #00005C",
"% c #000E5B",
"& c #001059",
"* c #000163",
"= c #00006B",
"- c #000073",
"; c #00007C",
": c #000084",
"> c #00008C",
", c #000094",
"< c #00009B",
"1 c #001E96",
"2 c #00179A",
"3 c #002C8E",
"4 c #002492",
"5 c #0000A2",
"6 c #000BA2",
"7 c #0000AD",
"8 c #0000B4",
"9 c #0001BC",
"0 c #005CBA",
"q c #0000C0",
"w c #000DC3",
"e c #0014C5",
"r c #001BC7",
"t c #0020C7",
"y c #0024C9",
"u c #002DCB",
"i c #003DC7",
"p c #0033CC",
"a c #003BCE",
"s c #0041C5",
"d c #004BC3",
"f c #0052C0",
"g c #0045D1",
"h c #004DD3",
"j c #0055D5",
"k c #005ED7",
"l c #0063D8",
"z c #006CDA",
"x c #0074DD",
"c c #007ADE",
"v c #008EDF",
"b c #0093DE",
"n c #009BDE",
"m c #0085E1",
"M c #008AE1",
"N c #0091E3",
"B c #009DE7",
"V c #00A5E9",
"C c #00AAEA",
"Z c #00AFEB",
"A c #00B1EB",
"S c #00B1EC",
"D c #00B5EC",
"F c #00B9ED",
"G c #00BEEF",
"H c #00C1EF",
"J c #00C3F0",
"K c #00C5F0",
"L c #00C8F1",
"P c #00CEF2",
"I c #00D2F3",
"U c #00D3F4",
"Y c #00D7F5",
"T c #00DBF5",
"R c #00DFF7",
"E c #00E0F7",
"W c #00E3F8",
"Q c #00E6F8",
"! c #00EBFA",
"~ c #00EFFB",
"^ c #00F2FC",
"/ c #00F6FD",
"( c #00FAFD",
") c cyan",
/* pixels */
"qqqqqqqqqqqqqqqqqqqqqqqqqqqqqqqqqqqqqqqq",
"qqqqqqqwwwwwwwwwwwwwwwwwwwwwwwwwwqqqqqqq",
"qqqqqqrakkkkkkkkkkkkkkkkkkkkkkkkpeqqqqqq",
"qqqqqqpxZFFFFFFFFFFFFFFFFFFFFFFCzuqqqqqq",
"qqq988sbR~/))))))))))))))))))/~TNgewqqqq",
"qqq7,-30vDR)))))))))))))))))(YSNmxkaeqqq",
"qqq<=o&4icH())))))))))))))))/DxgxVZztqqq",
"qqq<$.+-6dnT!/))))))))))))/!YBjpcLEmuqqq",
"qqq7:*$*=30MDR))))))))))))TZMmcmAEEmuqqq",
"qqq875;@X%1acL)))))))))))(GxazVUQ/Emuqqq",
"qqq875;@X@-6fnIIIIIIIIIIIPBlacJ)))Emuqqq",
"qqq7:*$***$*30cccccccccccccmMSR)))Emuqqq",
"qqq<$.+-<-+.%2tttttttttttykBT!/)))Emuqqq",
"qqq<=o@=>-@o*<qqqqqqqqqqqqhC/)))))Emuqqq",
"qqq7,-*$#$*->7qqqqqqqqqqqqhC/)))))Emuqqq",
"qqq987:@ +;788qqqqqqqqqqqqhC/)))))Emuqqq",
"qqq85>-#O#-><8qqqqqqqqqqqqhC/)))))Emuqqq",
"qqq5;##*-=##-5qqqqqqqqqqqqhC/)))))Emuqqq",
"qqq<$ O-5;+ #,qqqqqqqqqqqqhC/)))))Emuqqq",
"qqq5-@#=;=#@-<qqqqqqqqqqqqhC/)))))Emuqqq",
"qqq8<:=#+#=:<7qqqqqqqqqqqqhC/)))))Emuqqq",
"qqq987:@ @:899qqqqqqqqqqqqhB!/()))Emuqqq",
"qqq7,;=$@-<9qqqqqqqqqqqqqqpzBJW)))Emuqqq",
"qqq5=+@=><79qqqqqqqqqqqqqqeuhML)))Emuqqq",
"qqq,$.+;8qweeeeeeeeeeeeeeeeetlZ!^(Emuqqq",
"qqq5:$-,8yhzzzzzzzzzzzzzzzzzzcMBHQEmuqqq",
"qqq85<589gmHKKKKKKKKKKKKKKKKGNlhMIEmuqqq",
"qqqqqqweyzF())))))))))))))))/ZkpxSKxyqqq",
"qqqqqqthcVY())))))))))))))))(PBccmxgeqqq",
"qqqqqqamLE^))))))))))))))))))~RKMjyewqqq",
"qqqqqqamLE^))))))))))))))))))~RKMjyewqqq",
"qqqqqqthcVY())))))))))))))))(PBccmxgeqqq",
"qqqqqqweyzF())))))))))))))))/ZkpzSKxyqqq",
"qqq85<589gmHKKKKKKKKKKKKKKKKGNlhMIEmuqqq",
"qqq5:$-,8yhzzzzzzzzzzzzzzzzzzcMBGQEmuqqq",
"qqq,$.+;8qweeeeeeeeeeeeeeeeetlZ!^(Emuqqq",
"qqq5=+@=><79qqqqqqqqqqqqqqeuhML)))Emuqqq",
"qqq7,;=$@-<9qqqqqqqqqqqqqqpzBJW)))Emuqqq",
"qqq987:@ @:899qqqqqqqqqqqqhB!/()))Emuqqq",
"qqq8<:=#+#=:<7qqqqqqqqqqqqhC/)))))Emuqqq",
"qqq5-@#=;=#@-<qqqqqqqqqqqqhC/)))))Emuqqq",
"qqq<$ O-5;+ #,qqqqqqqqqqqqhC/)))))Emuqqq",
"qqq5;##*-=##-5qqqqqqqqqqqqhC/)))))Emuqqq",
"qqq85>-#O#-><8qqqqqqqqqqqqhC/)))))Emuqqq",
"qqq987:@ +;788qqqqqqqqqqqqhC/)))))Emuqqq",
"qqq7,-*$#$*->7qqqqqqqqqqqqhC/)))))Emuqqq",
"qqq<=o@=>-@o*<qqqqqqqqqqqqhC/)))))Emuqqq",
"qqq<$.+-<-+.%2tttttttttttykBT!/)))Emuqqq",
"qqq7:*$***$*30cccccccccccccmMSR)))Emuqqq",
"qqq875;@X@-6fnIIIIIIIIIIIPBlacJ)))Emuqqq",
"qqq875;@X%1acL)))))))))))(GxazVUQ/Emuqqq",
"qqq7:*$*=30MDR))))))))))))TZMmcmAEEmuqqq",
"qqq<$.+-6dnT!/))))))))))))/!YBjpcLEmuqqq",
"qqq<=o&4icH())))))))))))))))/DxgxVZztqqq",
"qqq7,-30vDR)))))))))))))))))(YSNmxkaeqqq",
"qqq988sbR~/))))))))))))))))))/~TNgewqqqq",
"qqqqqqpxZFFFFFFFFFFFFFFFFFFFFFFCzuqqqqqq",
"qqqqqqrakkkkkkkkkkkkkkkkkkkkkkkkpeqqqqqq",
"qqqqqqqwwwwwwwwwwwwwwwwwwwwwwwwwwqqqqqqq",
"qqqqqqqqqqqqqqqqqqqqqqqqqqqqqqqqqqqqqqqq"
};
