/* XPM */
static char *digit6[] = {
/* columns rows colors chars-per-pixel */
"40 60 84 1 ",
"  c #00001E",
". c #000025",
"X c #00002C",
"o c #000036",
"O c #00003B",
"+ c #000044",
"@ c #00004C",
"# c #000054",
"$ c #000C52",
"% c #00005C",
"& c #000064",
"* c #00006B",
"= c #000073",
"- c #00007B",
"; c #000082",
": c #00008A",
"> c #001C8D",
", c #000093",
"< c #00009B",
"1 c #00089B",
"2 c #001691",
"3 c #002987",
"4 c #002389",
"5 c #0000A3",
"6 c #0000AC",
"7 c #0000B4",
"8 c #0000BC",
"9 c #0044BD",
"0 c #0055B4",
"q c #0000C0",
"w c #000DC3",
"e c #0014C5",
"r c #001CC6",
"t c #0020C7",
"y c #0024C8",
"u c #002CCB",
"i c #0035C2",
"p c #0033CC",
"a c #003BCE",
"s c #0043D0",
"d c #004CD3",
"f c #0052D4",
"g c #005ED7",
"h c #0060D7",
"j c #0064D8",
"k c #006CDA",
"l c #0074DC",
"z c #007BDE",
"x c #0082DE",
"c c #008BDB",
"v c #0091D9",
"b c #0084E1",
"n c #008AE2",
"m c #0093E4",
"M c #009BE6",
"N c #009EE7",
"B c #00A3E8",
"V c #00A7E9",
"C c #00AAEA",
"Z c #00AFEB",
"A c #00B1EC",
"S c #00B5EC",
"D c #00B8ED",
"F c #00BEEF",
"G c #00C0EF",
"H c #00C5F0",
"J c #00C8F1",
"K c #00CEF3",
"L c #00D2F3",
"P c #00D5F3",
"I c #00D3F4",
"U c #00D6F5",
"Y c #00D9F6",
"T c #00DFF7",
"R c #00E2F7",
"E c #00E2F8",
"W c #00E4F8",
"Q c #00E8F9",
"! c #00EFFB",
"~ c #00F1FB",
"^ c #00F2FC",
"/ c #00F7FD",
"( c #00FAFD",
") c cyan",
/* pixels */
"qqqqqqqqqqqqqqqqqqqqqqqqqqqqqqqqqqqqqqqq",
"qqqqqqqwwwwwwwwwwwwwwwwwwwwwwwwwwqqqqqqq",
"qqqqqqraggggggggggggggggggggggggpeqqqqqq",
"qqqqqqplZDDDDDDDDDDDDDDDDDDDDDDCkuqqqqqq",
"qqqqwefMT!/))))))))))))))))))/!Uxi778qqq",
"qqqrajlbmST)))))))))))))))))(UAc04-,7qqq",
"qqqulSNkszG())))))))))))))))/Sli4$O=5qqq",
"qqqamQGlphBTQ/))))))))))))/QPc9<*OX&5qqq",
"qqqamQYCxzbnST))))))))))))YZx03&&%&:6qqq",
"qqqamQ^EKMhazJ)))))))))))(Fli>$X#;568qqq",
"qqqamQ))/DkakVLLLLLLLLLLLKv91=+X#;568qqq",
"qqqamQ))(UCnxzzzzzzzzzzzzl03&%&&&%&:6qqq",
"qqqamQ)))/QImftttttttttttr2$.@-<*OX&5qqq",
"qqqamQ)))))!Msqqqqqqqqqqq8,%o#=:*+O=5qqq",
"qqqamQ)))))!Msqqqqqqqqqqq85:=&%#%&-,7qqq",
"qqqamQ)))))!Msqqqqqqqqqqq8876=O #:778qqq",
"qqqamQ)))))!Msqqqqqqqqqqq86<:*@O%=,57qqq",
"qqqamQ)))))!Msqqqqqqqqqqq8<=@%*=&##;6qqq",
"qqqamQ)))))!Msqqqqqqqqqqq8:@ @;5*o.&5qqq",
"qqqamQ)))))!Msqqqqqqqqqqq8<*+#*-&@@-6qqq",
"qqqamQ)))))!Msqqqqqqqqqqq86,;*#+%=:<7qqq",
"qqqamQ)))(/Rmaqqqqqqqqqqq8887-+ #:778qqq",
"qqqamQ))(TFmhuqqqqqqqqqqqqqq8,*@%*;<7qqq",
"qqqamQ))(Gxsueqqqqqqqqqqqqqq86<;&@+=5qqq",
"qqqamQ(~EBgreeeeeeeeeeeeeeeeewq7=O.&5qqq",
"qqqamQRDmbzkkkkkkkkkkkkkkkkkjsr7,*%;6qqq",
"qqqamQHbdkMGHHHHHHHHHHHHHHHHDza86<<68qqq",
"qqqpxJCjpkD())))))))))))))))/Zgteqqqqqqq",
"qqqrdzbzzVU())))))))))))))))(KNlsrqqqqqq",
"qqqwrugmJR~))))))))))))))))))!THzpqqqqqq",
"qqqwrugmJR~))))))))))))))))))!THnfyewqqq",
"qqqrdzbzzVU())))))))))))))))(KNzzblseqqq",
"qqqpxJCjpkD())))))))))))))))/ZgpkAHlyqqq",
"qqqamQHbdkMGHHHHHHHHHHHHHHHHFmhdnLRbuqqq",
"qqqamQRDmbzkkkkkkkkkkkkkkkkkkznMFWRbuqqq",
"qqqamQ(~EBgreeeeeeeeeeeeeeeethZQ^(Rbuqqq",
"qqqamQ))(GxsueqqqqqqqqqqqqeudnJ)))Rbuqqq",
"qqqamQ))(TFmhuqqqqqqqqqqqqpkNHE)))Rbuqqq",
"qqqamQ)))(/RmaqqqqqqqqqqqqdNQ/()))Rbuqqq",
"qqqamQ)))))!MsqqqqqqqqqqqqdC/)))))Rbuqqq",
"qqqamQ)))))!MsqqqqqqqqqqqqdC/)))))Rbuqqq",
"qqqamQ)))))!MsqqqqqqqqqqqqdC/)))))Rbuqqq",
"qqqamQ)))))!MsqqqqqqqqqqqqdC/)))))Rbuqqq",
"qqqamQ)))))!MsqqqqqqqqqqqqdC/)))))Rbuqqq",
"qqqamQ)))))!MsqqqqqqqqqqqqdC/)))))Rbuqqq",
"qqqamQ)))))!MsqqqqqqqqqqqqdC/)))))Rbuqqq",
"qqqamQ)))))!MsqqqqqqqqqqqqdC/)))))Rbuqqq",
"qqqamQ)))/QImftttttttttttygNYQ/)))Rbuqqq",
"qqqamQ))(UCnxzzzzzzzzzzzzzzbnAT)))Rbuqqq",
"qqqamQ))/DkakVLLLLLLLLLLLKNjazH)))Rbuqqq",
"qqqamQ^EKMhazJ)))))))))))(FlakBIW/Rbuqqq",
"qqqamQYCxzbnST))))))))))))YZnbzbARRbuqqq",
"qqqamQGlphBTQ/))))))))))))/QUMfpzJRbuqqq",
"qqqulSNkszG())))))))))))))))/SlslVZktqqq",
"qqqrajlbmST)))))))))))))))))(UAmblgaeqqq",
"qqqqwefMT!/))))))))))))))))))/!Ymsewqqqq",
"qqqqqqplZDDDDDDDDDDDDDDDDDDDDDDCkuqqqqqq",
"qqqqqqraggggggggggggggggggggggggpeqqqqqq",
"qqqqqqqwwwwwwwwwwwwwwwwwwwwwwwwwwqqqqqqq",
"qqqqqqqqqqqqqqqqqqqqqqqqqqqqqqqqqqqqqqqq"
};
