/* XPM */
static char *digit8[] = {
/* columns rows colors chars-per-pixel */
"40 60 74 1 ",
"  c #0000C0",
". c #0004C1",
"X c #0009C2",
"o c #000CC3",
"O c #0012C4",
"+ c #0015C5",
"@ c #001BC7",
"# c #001EC7",
"$ c #0020C7",
"% c #0020C8",
"& c #0024C8",
"* c #002ACA",
"= c #002DCB",
"- c #0032CC",
"; c #0034CD",
": c #003ACE",
"> c #003CCF",
", c #0042D0",
"< c #0047D1",
"1 c #004AD2",
"2 c #004ED3",
"3 c #0050D3",
"4 c #0051D4",
"5 c #0056D5",
"6 c #005AD6",
"7 c #005FD7",
"8 c #0060D7",
"9 c #0063D8",
"0 c #0064D8",
"q c #0068DA",
"w c #006CDA",
"e c #0071DC",
"r c #0075DD",
"t c #0079DD",
"y c #007DDE",
"u c #0080DF",
"i c #0081E0",
"p c #0084E0",
"a c #0088E1",
"s c #008DE3",
"d c #0090E3",
"f c #0093E4",
"g c #0094E4",
"h c #009BE6",
"j c #009EE7",
"k c #00A3E8",
"l c #00A7E9",
"z c #00AAEA",
"x c #00AFEB",
"c c #00B1EB",
"v c #00B1EC",
"b c #00B5EC",
"n c #00B8ED",
"m c #00BEEF",
"M c #00C0EF",
"N c #00C3F0",
"B c #00C5F0",
"V c #00C8F1",
"C c #00CEF3",
"Z c #00D2F3",
"A c #00D3F4",
"S c #00D6F5",
"D c #00D9F6",
"F c #00DFF7",
"G c #00E1F7",
"H c #00E2F8",
"J c #00E6F8",
"K c #00E8F9",
"L c #00EFFB",
"P c #00F1FB",
"I c #00F2FC",
"U c #00F7FD",
"Y c #00FAFD",
"T c cyan",
/* pixels */
"                                        ",
"      .XooooooooooooooooooooooooX       ",
"      @>677777777777777777777776;+      ",
"      ;rxnnnnnnnnnnnnnnnnnnnnnnzq*      ",
"   .o+3hFLUTTTTTTTTTTTTTTTTTTULDd<OX    ",
"   @>0rpgbFTTTTTTTTTTTTTTTTTYSvdir7:O   ",
"   =ebjw<tMYTTTTTTTTTTTTTTTTUbe<elxq%   ",
"   :fKMe-8kFKUTTTTTTTTTTTTUKSh5-yVGp=   ",
"   :fKDzuyisbFTTTTTTTTTTTTDxaiyicGGp=   ",
"   :fKIHCh8>yVTTTTTTTTTTTYmr>qkAJUGp=   ",
"   :fKTTUnw>wlZZZZZZZZZZZCj0>tNTTTGp=   ",
"   :fKTTYSzauyttttttttttttyiavFTTTGp=   ",
"   :fKTTTUKAg4$$$$$$$$$$$&6jDKUTTTGp=   ",
"   :fKTTTTTLh,           .2zUTTTTTGp=   ",
"   :fKTTTTTLh,           .2zUTTTTTGp=   ",
"   :fKTTTTTLh,           .2zUTTTTTGp=   ",
"   :fKTTTTTLh,           .2zUTTTTTGp=   ",
"   :fKTTTTTLh,           .2zUTTTTTGp=   ",
"   :fKTTTTTLh,           .2zUTTTTTGp=   ",
"   :fKTTTTTLh,           .2zUTTTTTGp=   ",
"   :fKTTTTTLh,           .2zUTTTTTGp=   ",
"   :fKTTTYUGf>           .1jKUYTTTGp=   ",
"   :fKTTYFmg9*            -qjNHTTTGp=   ",
"   :fKTTYMu<*O            +=2aVTTTGp=   ",
"   :fKYPHk6@++++++++++++++++%9xKIYGp=   ",
"   :fKGngptwwwwwwwwwwwwwwwwwwtahmJGp=   ",
"   :fKBi1qhMBBBBBBBBBBBBBBBBmf91aZGp=   ",
"   -uVz0-qnYTTTTTTTTTTTTTTTTUx7-wvBr*   ",
"   #2tiyylSYTTTTTTTTTTTTTTTTYCjtyir<+   ",
"   X@*6gVGPTTTTTTTTTTTTTTTTTTLFBs4&+X   ",
"   X@*6gVGPTTTTTTTTTTTTTTTTTTLFBs4&+X   ",
"   #2tiyylSYTTTTTTTTTTTTTTTTYCjtyir<+   ",
"   -uVz0-qnYTTTTTTTTTTTTTTTTUx7-wvBr&   ",
"   :fKBi1qhMBBBBBBBBBBBBBBBBmf91aZGp=   ",
"   :fKGngptwwwwwwwwwwwwwwwwwwtahmJGp=   ",
"   :fKYPHk6@++++++++++++++++%9xKIYGp=   ",
"   :fKTTYMu<*O            +=2aVTTTGp=   ",
"   :fKTTYFmg9*            -qjNHTTTGp=   ",
"   :fKTTTYUGf>           .1jKUYTTTGp=   ",
"   :fKTTTTTLh,           .2zUTTTTTGp=   ",
"   :fKTTTTTLh,           .2zUTTTTTGp=   ",
"   :fKTTTTTLh,           .2zUTTTTTGp=   ",
"   :fKTTTTTLh,           .2zUTTTTTGp=   ",
"   :fKTTTTTLh,           .2zUTTTTTGp=   ",
"   :fKTTTTTLh,           .2zUTTTTTGp=   ",
"   :fKTTTTTLh,           .2zUTTTTTGp=   ",
"   :fKTTTTTLh,           .2zUTTTTTGp=   ",
"   :fKTTTUKAg4$$$$$$$$$$$&6jDKUTTTGp=   ",
"   :fKTTYSzauyttttttttttttyiavFTTTGp=   ",
"   :fKTTUnw>wlZZZZZZZZZZZCj0>tNTTTGp=   ",
"   :fKIHCh8>yVTTTTTTTTTTTYmr>qkAJUGp=   ",
"   :fKDzuyisbFTTTTTTTTTTTTDxaiyicGGp=   ",
"   :fKMe-8kFKUTTTTTTTTTTTTUKSh5-yVGp=   ",
"   =ebjw<tMYTTTTTTTTTTTTTTTTUbe<elxq%   ",
"   @>0rpgbFTTTTTTTTTTTTTTTTTYSvdir7:O   ",
"   .o+3hFLUTTTTTTTTTTTTTTTTTTULDd<OX    ",
"      ;rxnnnnnnnnnnnnnnnnnnnnnnzq*      ",
"      @>677777777777777777777776;+      ",
"      .XooooooooooooooooooooooooX       ",
"                                        "
};
