/* XPM */
static char *digit0[] = {
/* columns rows colors chars-per-pixel */
"40 60 92 1 ",
"  c #000025",
". c #00012D",
"X c #000133",
"o c #00013A",
"O c #000043",
"+ c #00004A",
"@ c #000051",
"# c #00005D",
"$ c #00115F",
"% c #000062",
"& c #00016C",
"* c #000A6E",
"= c #001566",
"- c #001268",
"; c #000175",
": c #00007D",
"> c #000084",
", c #00008C",
"< c #000093",
"1 c #00009B",
"2 c #002697",
"3 c #002E93",
"4 c #00209B",
"5 c #00299F",
"6 c #003192",
"7 c #003699",
"8 c #0000A3",
"9 c #000BA7",
"0 c #0000AC",
"q c #0011AC",
"w c #0001B4",
"e c #000DB5",
"r c #0000BB",
"t c #0022A4",
"y c #0061BD",
"u c #0000C0",
"i c #000DC3",
"p c #0015C5",
"a c #001BC7",
"s c #0020C7",
"d c #0025C9",
"f c #002CCB",
"g c #0033CC",
"h c #003BCE",
"j c #004AC7",
"k c #0041CA",
"l c #0051C5",
"z c #0056CB",
"x c #005DC9",
"c c #0044D0",
"v c #004DD3",
"b c #0052D4",
"n c #005ED7",
"m c #0067C4",
"M c #0069C2",
"N c #0060D7",
"B c #0063D8",
"V c #006BDA",
"C c #0074DD",
"Z c #007ADD",
"A c #0081DF",
"S c #0085E1",
"D c #008AE2",
"F c #0093E4",
"G c #009CE6",
"H c #00A4E3",
"J c #00ABE5",
"K c #00A5E9",
"L c #00AAEA",
"P c #00B4EC",
"I c #00B9ED",
"U c #00BEEF",
"Y c #00C0EF",
"T c #00C3F0",
"R c #00C7F1",
"E c #00C8F1",
"W c #00CEF3",
"Q c #00D2F3",
"! c #00D3F4",
"~ c #00D6F5",
"^ c #00D9F6",
"/ c #00DFF7",
"( c #00E3F7",
") c #00E2F8",
"_ c #00E6F8",
"` c #00E8F9",
"' c #00EFFB",
"] c #00F1FB",
"[ c #00F2FC",
"{ c #00F7FD",
"} c #00FAFD",
"| c cyan",
/* pixels */
"uuuuuuuuuuuuuuuuuuuuuuuuuuuuuuuuuuuuuuuu",
"uuuuuuuiiiiiiiiiiiiiiiiiiiiiiiiiiuuuuuuu",
"uuuuuuahnnnnnnnnnnnnnnnnnnnnnnnngpuuuuuu",
"uuuuuugCLIIIIIIIIIIIIIIIIIIIIIILVfuuuuuu",
"uuuuipbG/'{||||||||||||||||||{'^Fcpiuuuu",
"uuuahBCSFP/|||||||||||||||||}~PFSCnhpuuu",
"uuufCPGVcZY}||||||||||||||||{PCcCKLVduuu",
"uuuhF`YCgNK/`{||||||||||||{`~GbgZE(Sfuuu",
"uuuhF`^LAZSDP/||||||||||||^LDSZSP((Sfuuu",
"uuuhF`[)WGNhZE|||||||||||}UChVK!_{(Sfuuu",
"uuuhF`||{IVhVKQQQQQQQQQQQWGBhZT|||(Sfuuu",
"uuuhF`||}~LDAZZZZZZZZZZZZZZSDP/|||(Sfuuu",
"uuuhF`|||{`!FbsssssssssssdnG^`{|||(Sfuuu",
"uuuhF`|||||'GcuuuuuuuuuuuuvL{|||||(Sfuuu",
"uuuhF`|||||'GcuuuuuuuuuuuuvL{|||||(Sfuuu",
"uuuhF`|||||'GcuuuuuuuuuuuuvL{|||||(Sfuuu",
"uuuhF`|||||'GcuuuuuuuuuuuuvL{|||||(Sfuuu",
"uuuhF`|||||'GcuuuuuuuuuuuuvL{|||||(Sfuuu",
"uuuhF`|||||'GcuuuuuuuuuuuuvL{|||||(Sfuuu",
"uuuhF`|||||'GcuuuuuuuuuuuuvL{|||||(Sfuuu",
"uuuhF`|||||'GcuuuuuuuuuuuuvL{|||||(Sfuuu",
"uuuhF`|||}{(FhuuuuuuuuuuuuvG`{}|||(Sfuuu",
"uuuhF`||}/UFNfuuuuuuuuuuuugVGT)|||(Sfuuu",
"uuuhF`||}YAcfpuuuuuuuuuuuupfvDE|||(Sfuuu",
"uuuhF`}](GjwwrrrwwrrrwwwrrrwezJ`[}(Sfuuu",
"uuuhF`(IFy3;,0r1::1w0<;>8r8,;7MGU_(Sfuuu",
"uuuhF`RSk2$o%1w:+O;08&o@>w<#o=5vDQ(Sfuuu",
"uuugAEHl9;O @>1&X.#<,# o&1:+ +:qxJRCduuu",
"uuuavZy6*%###%%%##%%%###%%%###%*7mCcpuuu",
"uuuiaf4$.+;<&O.#>,%Xo%<:@.+;<;OX-tdpiuuu",
"uuuiaf4$.+;<&O.#>,%Xo%<:@.+;<;OX-tdpiuuu",
"uuuavZy6*%###%%%##%%%###%%%###%*7mCcpuuu",
"uuugAEHl9;O @>1&X.#<,# o&1:+ +:qxJRCduuu",
"uuuhF`RSk2$o%1w:+O;08&o@>w<#o=5vDQ(Sfuuu",
"uuuhF`(IFy3;,0r1::1w0<;>8r8,;7MGU_(Sfuuu",
"uuuhF`}](GjwwrrrwwrrrwwwrrrwezJ`[}(Sfuuu",
"uuuhF`||}YAcfpuuuuuuuuuuuupfvDE|||(Sfuuu",
"uuuhF`||}/UFNfuuuuuuuuuuuugVGT)|||(Sfuuu",
"uuuhF`|||}{(FhuuuuuuuuuuuuvG`{}|||(Sfuuu",
"uuuhF`|||||'GcuuuuuuuuuuuuvL{|||||(Sfuuu",
"uuuhF`|||||'GcuuuuuuuuuuuuvL{|||||(Sfuuu",
"uuuhF`|||||'GcuuuuuuuuuuuuvL{|||||(Sfuuu",
"uuuhF`|||||'GcuuuuuuuuuuuuvL{|||||(Sfuuu",
"uuuhF`|||||'GcuuuuuuuuuuuuvL{|||||(Sfuuu",
"uuuhF`|||||'GcuuuuuuuuuuuuvL{|||||(Sfuuu",
"uuuhF`|||||'GcuuuuuuuuuuuuvL{|||||(Sfuuu",
"uuuhF`|||||'GcuuuuuuuuuuuuvL{|||||(Sfuuu",
"uuuhF`|||{`!FbsssssssssssdnG^`{|||(Sfuuu",
"uuuhF`||}~LDAZZZZZZZZZZZZZZSDP/|||(Sfuuu",
"uuuhF`||{IVhVKQQQQQQQQQQQWGBhZT|||(Sfuuu",
"uuuhF`[)WGNhZE|||||||||||}UChVK!_{(Sfuuu",
"uuuhF`^LAZSDP/||||||||||||^LDSZSP((Sfuuu",
"uuuhF`YCgNK/`{||||||||||||{`~GbgZE(Sfuuu",
"uuufCPGVcZY}||||||||||||||||{PCcCKLVduuu",
"uuuahBCSFP/|||||||||||||||||}~PFSCnhpuuu",
"uuuuipbG/'{||||||||||||||||||{'^Fcpiuuuu",
"uuuuuugCLIIIIIIIIIIIIIIIIIIIIIILVfuuuuuu",
"uuuuuuahnnnnnnnnnnnnnnnnnnnnnnnngpuuuuuu",
"uuuuuuuiiiiiiiiiiiiiiiiiiiiiiiiiiuuuuuuu",
"uuuuuuuuuuuuuuuuuuuuuuuuuuuuuuuuuuuuuuuu"
};
