/* XPM */
static char *digit9[] = {
/* columns rows colors chars-per-pixel */
"40 60 116 2 ",
"   c #00001F",
".  c #000125",
"X  c #00012D",
"o  c #000037",
"O  c #00003B",
"+  c #000042",
"@  c #00004B",
"#  c #000054",
"$  c #00005C",
"%  c #000E5B",
"&  c #001059",
"*  c #000163",
"=  c #00006B",
"-  c #000073",
";  c #00007C",
":  c #57587E",
">  c #6B6B6E",
",  c #D4D821",
"<  c #86905D",
"1  c #A8AA41",
"2  c #84B969",
"3  c #A6EE54",
"4  c #000084",
"5  c #00008C",
"6  c #000094",
"7  c #00009B",
"8  c #001E96",
"9  c #00179A",
"0  c #002C8E",
"q  c #002492",
"w  c #2A2A9F",
"e  c #373796",
"r  c #0000A2",
"t  c #000BA2",
"y  c #0000AD",
"u  c #1616AF",
"i  c #0000B4",
"p  c #0D0DB6",
"a  c #0001BC",
"s  c #050EBE",
"d  c #090BB9",
"f  c #35469C",
"g  c #005CBA",
"h  c #225FB5",
"j  c #2971B3",
"k  c #2274BB",
"l  c #445F93",
"z  c #0000C0",
"x  c #000DC3",
"c  c #0014C5",
"v  c #001BC7",
"b  c #0020C7",
"n  c #0024C8",
"m  c #002DCB",
"M  c #003DC7",
"N  c #0033CC",
"B  c #003BCE",
"V  c #0041C5",
"C  c #004BC3",
"Z  c #0052C0",
"A  c #0044D0",
"S  c #004DD3",
"D  c #0053D4",
"F  c #005ED7",
"G  c #0060D7",
"H  c #0063D8",
"J  c #006CDA",
"K  c #0074DD",
"L  c #007ADE",
"P  c #55828B",
"I  c #69B183",
"U  c #43B9AA",
"Y  c #54F6A8",
"T  c #0081DF",
"R  c #008EDF",
"E  c #0093DE",
"W  c #009BDE",
"Q  c #0DA5DB",
"!  c #15B7D8",
"~  c #0085E1",
"^  c #008AE2",
"/  c #0093E4",
"(  c #009CE6",
")  c #00A5E9",
"_  c #00A8E9",
"`  c #00AAEA",
"'  c #00AFEB",
"]  c #09B9E4",
"[  c #00B2EC",
"{  c #00B6ED",
"}  c #00B8ED",
"|  c #00BEEF",
" . c #35D7C0",
".. c #00C1EF",
"X. c #00C2F0",
"o. c #00C5F0",
"O. c #00C9F2",
"+. c #00CEF3",
"@. c #00D2F3",
"#. c #00D3F4",
"$. c #00D6F5",
"%. c #00D9F6",
"&. c #00DFF7",
"*. c #00E1F7",
"=. c #00E3F8",
"-. c #00E6F8",
";. c #00E8F9",
":. c #00EFFB",
">. c #07F9F6",
",. c #0BFCF2",
"<. c #00F1FB",
"1. c #00F2FC",
"2. c #00F5FC",
"3. c #00F7FD",
"4. c #00FAFD",
"5. c cyan",
/* pixels */
"z z z z z z z z z z z z z z z z z z z z z z z z z z z z z z z z z z z z z z z z ",
"z z z z z z z x x x x x x x x x x x x x x x x x x x x x x x x x x z z z z z z z ",
"z z z z z z v B F F F F F F F F F F F F F F F F F F F F F F F F N c z z z z z z ",
"z z z z z z N K ' } } } } } } } } } } } } } } } } } } } } } } ` J m z z z z z z ",
"z z z z x c D ( &.:.3.5.5.5.5.5.5.5.5.5.5.5.5.5.5.5.5.5.5.3.:.%./ A c x z z z z ",
"z z z v B H K ~ / { &.5.5.5.5.5.5.5.5.5.5.5.5.5.5.5.5.5.4.$.[ / ~ K F B c z z z ",
"z z z m K { ( J A L ..4.5.5.5.5.5.5.5.5.5.5.5.5.5.5.5.5.3.{ K A K ` ' J b z z z ",
"z z z B / ;...K N G ) &.;.3.5.5.5.5.5.5.5.5.5.5.5.5.3.;.$.( D N L O.*.~ m z z z ",
"z z z B / ;.%.` T L ~ ^ { &.5.5.5.5.5.5.5.5.5.5.5.5.%.' ^ ~ L ~ [ *.*.~ m z z z ",
"z z z B / ;.1.=.+.( G B L O.5.5.5.5.5.5.5.5.5.5.5.4.| K B J ) #.-.3.*.~ m z z z ",
"z z z B / ;.5.5.3.} J B J ` @.@.@.@.@.@.@.@.@.@.@.+.( H B L X.5.5.5.*.~ m z z z ",
"z z z B / ;.5.5.4.$.` ^ T L L L L L L L L L L L L L L ~ ^ [ &.5.5.5.*.~ m z z z ",
"z z z B / ;.5.5.5.3.;.#./ D b b b b b b b b b b b n F ( %.;.3.5.5.5.*.~ m z z z ",
"z z z B / ;.5.5.5.5.5.:.( A z z z z z z z z z z z z S ` 3.5.5.5.5.5.*.~ m z z z ",
"z z z B / ;.5.5.5.5.5.:.( A z z z z z z z z z z z z S ` 3.5.5.5.5.5.*.~ m z z z ",
"z z z B / ;.5.5.5.5.5.:.( A z z z z z z z z z z z z S ` 3.5.5.5.5.5.*.~ m z z z ",
"z z z B / ;.5.5.5.5.5.:.( A z z z z z z z z z z z z S ` 3.5.5.5.5.5.*.~ m z z z ",
"z z z B / ;.5.5.5.5.5.:.( A z z z z z z z z z z z z S ` 3.5.5.5.5.5.*.~ m z z z ",
"z z z B / ;.5.5.5.5.5.:.( A z z z z z z z z z z z z S ` 3.5.5.5.5.5.*.~ m z z z ",
"z z z B / ;.5.5.5.5.5.:.( A z z z z z z z z z z z z S ` 3.5.5.5.5.5.*.~ m z z z ",
"z z z B / ;.5.5.5.5.5.:.( A z z z z z z z z z z z z S ` 3.5.5.5.5.5.*.~ m z z z ",
"z z z B / ;.5.5.5.4.3.*./ B z z z z z z z z z z z z S ( ;.3.4.5.5.5.*.~ m z z z ",
"z z z B / ;.5.5.4.&.| / H m z z z z z z z z z z z z N J ( X.=.5.5.5.*.~ m z z z ",
"z z z B / ;.5.5.4...T A m c z z z z z z z z z z z z c m S ^ O.5.5.5.*.~ m z z z ",
"z z z B / ;.4.<.=.) F v c c c c c c c c c c c c c c c c b H ' ;.1.4.*.~ m z z z ",
"z z z B / ;.*.} / ~ L J J J J J J J J J J J J J J J J J J L ^ ( | -.*.~ m z z z ",
"z z z B / ;.o.~ S J ( ..o.o.o.o.o.o.o.o.o.o.o.o.o.o.o.o.| / H S ^ @.*.~ m z z z ",
"z z z N T O.` H N J } 4.5.5.5.5.5.5.5.5.5.5.5.5.5.5.5.5.3.' F N K [ o.K n z z z ",
"z z z v S L ~ L L ` $.4.5.5.5.5.5.5.5.5.5.5.5.5.5.5.5.5.4.+.( L L ~ K A c z z z ",
"z z z x v m F / O.*.<.5.5.5.5.5.5.5.5.5.5.5.5.5.5.5.5.5.5.:.&.o.^ D n v x z z z ",
"z z z z z z B ~ O.*.<.5.5.5.5.5.5.5.5.5.5.5.5.5.5.5.5.5.5.:.&.o.^ D n c x z z z ",
"z z z z z z b S L ` $.4.5.5.5.5.5.5.5.5.5.5.5.5.5.5.5.5.4.+.( L L ~ K A c z z z ",
"z z z z z z x c n J } 4.5.5.5.5.5.5.5.5.5.5.5.5.5.5.5.5.3.' F N J [ o.K n z z z ",
"z z z i r 7 r i a A ~ ..o.o.o.o.o.o.o.o.o.o.o.o.o.o.o.o.| / H S ^ @.*.~ m z z z ",
"z z z r 4 $ - 6 a n S J J J J J J J J J J J J J J J J J J L ^ ( | -.*.~ m z z z ",
"z z z 6 $ . + ; i z x c c c c c c c c c c c c c c c c c b H ' ;.1.4.*.~ m z z z ",
"z z z r = + @ = 5 7 y a z z z z z z z z z z z z z z c m S ^ O.5.5.5.*.~ m z z z ",
"z z z y 6 ; = $ @ - 7 a z z z z z z z z z z z z z z N J ( X.=.5.5.5.*.~ m z z z ",
"z z z a i y 4 @   @ 4 i a a z z z z z z z z z z z z S ( ;.3.4.5.5.5.*.~ m z z z ",
"z z z i 7 4 = # + # = 4 7 y z z z z z z z z z z z z S ` 3.5.5.5.5.5.*.~ m z z z ",
"z z z r - @ # = ; = # @ - 7 z z z z z z z z z z z z S ` 3.5.5.5.5.5.*.~ m z z z ",
"z z z 7 $   O - r ; +   # 6 z z z z z z z z z z z z S ` 3.5.5.5.5.5.*.~ m z z z ",
"z z z r ; # # * - = # # - r z z z z z z z z z z z z S ` 3.5.5.5.5.5.*.~ m z z z ",
"z z z i r 5 - # O # - 5 7 i z z z z z z z z z z z z S ` 3.5.5.5.5.5.*.~ m z z z ",
"z z z a i y 4 @   + ; y i a z z z z z z z z z z z z S ` 3.5.5.5.5.5.*.~ m z z z ",
"z z z y 6 - * $ # $ * - 5 y z z z z z z z z z z z z S ` 3.5.5.5.5.5.*.~ m z z z ",
"z z z 7 = o @ = 5 - @ o * 7 z z z z z z z z z z z z S ` 3.5.5.5.5.5.*.~ m z z z ",
"z z z 7 $ . + - 7 - + . % 9 b b b b b b b b b b b n F ( %.;.3.5.5.5.*.~ m z z z ",
"z z z y 4 * $ * * * $ * 0 g L L L L L L L L L L L L L ~ ^ [ &.5.5.5.*.~ m z z z ",
"z z z a y r ; @ X @ - t Z W @.@.@.@.@.@.@.@.@.@.@.+.( H B L X.5.5.5.*.~ m z z z ",
"z z z a y r ; @ X % 8 B L O.5.5.5.5.5.5.5.5.5.5.5.4.| K B J ) #.-.3.*.~ m z z z ",
"z z z y 4 * $ * = 0 g ^ { &.5.5.5.5.5.5.5.5.5.5.5.5.%.' ^ ~ L ~ [ *.*.~ m z z z ",
"z z z 7 $ . + - t C W %.;.3.5.5.5.5.5.5.5.5.5.5.5.5.3.;.$.( D N L O.*.~ m z z z ",
"z z z 7 = o & q M L ..4.5.5.5.5.5.5.5.5.5.5.5.5.5.5.5.5.3.! j f k Q ' J b z z z ",
"z z z y 6 - 0 g R { &.5.5.5.5.5.5.5.5.5.5.5.5.5.5.5.5.5.>. .I < P k F B c z z z ",
"z z z a i i V E &.:.3.5.5.5.5.5.5.5.5.5.5.5.5.5.5.5.5.5.,.Y 3 , < f c x z z z z ",
"z z z z z z N K ' } } } } } } } } } } } } } } } } } } } ] U 2 1 > w z z z z z z ",
"z z z z z z v B F F F F F F F F F F F F F F F F F F F F F h l : e u z z z z z z ",
"z z z z z z z x x x x x x x x x x x x x x x x x x x x x x s d p d a z z z z z z ",
"z z z z z z z z z z z z z z z z z z z z z z z z z z z z z z z z z z z z z z z z "
};
