/* XPM */
static char *digit1[] = {
/* columns rows colors chars-per-pixel */
"40 60 111 2 ",
"   c #00001F",
".  c #000120",
"X  c #000026",
"o  c #000028",
"O  c #00002C",
"+  c #000030",
"@  c #000037",
"#  c #00003A",
"$  c #00003C",
"%  c #000040",
"&  c #000046",
"*  c #00004B",
"=  c #00004F",
"-  c #000050",
";  c #000055",
":  c #000E55",
">  c #000059",
",  c #00005C",
"<  c #000B58",
"1  c #00085C",
"2  c #000061",
"3  c #000662",
"4  c #000066",
"5  c #000068",
"6  c #00006E",
"7  c #000073",
"8  c #000074",
"9  c #00007B",
"0  c #00007D",
"q  c #000083",
"w  c #000085",
"e  c #00008B",
"r  c #00008E",
"t  c #000092",
"y  c #000094",
"u  c #000098",
"i  c #00009E",
"p  c #000F9A",
"a  c #000A9E",
"s  c #001695",
"d  c #001D91",
"f  c #00298B",
"g  c #002C8A",
"h  c #0000A0",
"j  c #0000A4",
"k  c #0000AB",
"l  c #0005AB",
"z  c #0000AD",
"x  c #0000B0",
"c  c #0000B7",
"v  c #0000B9",
"b  c #0000BD",
"n  c #0007BE",
"m  c #004CBD",
"M  c #0058B6",
"N  c #0052BB",
"B  c #0056B8",
"V  c #0000C0",
"C  c #0006C1",
"Z  c #000AC1",
"A  c #000DC2",
"S  c #0011C4",
"D  c #0015C5",
"F  c #0023C8",
"G  c #0027C9",
"H  c #0029CA",
"J  c #002ECB",
"K  c #0035C7",
"L  c #0030CA",
"P  c #0031CC",
"I  c #0035CD",
"U  c #0039CE",
"Y  c #0044C0",
"T  c #0046D1",
"R  c #004AD2",
"E  c #004ED3",
"W  c #0056D5",
"Q  c #005DD7",
"!  c #0067D9",
"~  c #0069DA",
"^  c #0076DD",
"/  c #0079DD",
"(  c #007CDE",
")  c #0082DF",
"_  c #0086DD",
"`  c #0096DB",
"'  c #0093DC",
"]  c #0086E1",
"[  c #0089E2",
"{  c #0099E6",
"}  c #009EE7",
"|  c #00A7E9",
" . c #00A8E9",
".. c #00AEEB",
"X. c #00B1EB",
"o. c #00B1EC",
"O. c #00BFEF",
"+. c #00C3F0",
"@. c #00C4F0",
"#. c #00CBF2",
"$. c #00D3F3",
"%. c #00D8F4",
"&. c #00DCF6",
"*. c #00E0F7",
"=. c #00E3F8",
"-. c #00E5F8",
";. c #00EAFA",
":. c #00F2FC",
">. c #00F5FC",
",. c #00FAFE",
"<. c #00FCFE",
/* pixels */
"V V V V V V V V V V V V V V V V V V V V V V V V V V V V V V V V V V V V V V V V ",
"V V V V V V b v c v b b v v c v b b v c c v b b v c v b b b v c v b V V V V V V ",
"V V V V V b k t 0 t k v j e 0 y x c i q w i v z y 0 r j v j r 0 y z V V V V V V ",
"V V V V V b u 5 % 2 y x e > % 7 h k 9 * - q x i 5 % , t x r , % 6 i V V V V V V ",
"V V V b c x q *   & 0 h 7 #   ; t u 2 o + 5 h w =   % 9 h 8 $ . 1 p S Z V V V V ",
"V V V z t 8 4 , ; > 4 5 2 > ; , 5 5 2 ; ; 2 5 4 , ; > 4 5 4 > 1 g N Q U S V V V ",
"V V V i 5 @ * 6 e 7 = @ ; 9 e 4 % # 2 w 0 > @ & 5 e 8 = @ - 8 p N ` ..~ F V V V ",
"V V V u , X % 7 u 8 & X - q u 5 @ O , t e > X $ 6 u 9 * X < s L ( #.*.] J V V V ",
"V V V k w 2 , 2 2 2 , , , 2 2 2 , , 2 2 2 , , , 2 4 2 , 3 g B ) X.*.*.] J V V V ",
"V V V v z h 9 = O * 8 t 6 % O > w r 2 @ # 4 t 0 - O * 8 a m ` $.-.>.*.] J V V V ",
"V V V v z h 9 = O * 8 t 6 % + 5 i k 7 # % 9 x y 2 + : d K / +.<.<.<.*.] J V V V ",
"V V V k w 2 , 2 2 2 , , , 2 6 r z x t 7 8 y c k e 6 f M _ o.&.<.<.<.*.] J V V V ",
"V V V u , X % 7 u 8 & X - q k x v b c k z c b v x l Y ' %.;.>.<.<.<.*.] J V V V ",
"V V V i 5 @ * 6 e 7 = @ 4 u V V V V V V V V V V V C E  .>.<.<.<.<.<.*.] J V V V ",
"V V V z t 8 4 , ; , 4 7 r k V V V V V V V V V V V C E  .>.<.<.<.<.<.*.] J V V V ",
"V V V b c z q *   & 0 z c v V V V V V V V V V V V C E  .>.<.<.<.<.<.*.] J V V V ",
"V V V c h r 7 ; $ - 7 r i x V V V V V V V V V V V C E  .>.<.<.<.<.<.*.] J V V V ",
"V V V j 9 - ; 4 7 5 ; - 8 h V V V V V V V V V V V C E  .>.<.<.<.<.<.*.] J V V V ",
"V V V u >   $ 8 h 9 %   ; t V V V V V V V V V V V C E  .>.<.<.<.<.<.*.] J V V V ",
"V V V h 8 * - 5 9 5 - * 7 i V V V V V V V V V V V C E  .>.<.<.<.<.<.*.] J V V V ",
"V V V x i w 6 ; & ; 6 q u z V V V V V V V V V V V C E  .>.<.<.<.<.<.*.] J V V V ",
"V V V b c z q *   & 0 z c v V V V V V V V V V V V C R | ;.>.,.<.<.<.*.] J V V V ",
"V V V z y 0 5 > = > 5 9 y z V V V V V V V V V V V V P ~ } +.-.<.<.<.*.] J V V V ",
"V V V h 6 % = 5 q 6 = $ 5 i V V V V V V V V V V V V D J E [ #.<.<.<.*.] J V V V ",
"V V V y > . $ 8 h 9 %   = w x c b b v x x v b b c x c v A W | ;.:.,.*.] J V V V ",
"V V V j q > > 4 6 4 > ; , 4 8 t z c y 9 0 u v k r 8 w j n I ~ { O.-.*.] J V V V ",
"V V V c j y 8 - @ = 7 e 5 & # 6 h k 8 % * 0 x u 4 # > r v D H R [ $.*.] J V V V ",
"V V V v x k 0 = X * 9 u 6 $ X > e t 2 O @ 4 u q - X & 8 h x v S Q  .@.^ G V V V ",
"V V V k e 5 2 , , , 2 2 2 , , , 2 2 2 , , 2 2 2 , , , 2 5 w j Z I ! ^ T D V V V ",
"V V V u 4 O & 7 t 8 * O - 0 t 4 # @ 2 e w > O % 6 t 8 = O > t b S F G D Z V V V ",
"V V V u 4 + & 7 t 8 * O - 0 t 4 # @ 2 e w > O % 6 y 8 = O > t b S F G D Z V V V ",
"V V V k e 5 2 , , , 2 2 2 , , , 2 2 2 , , 2 2 2 , , , 2 5 w j Z I ! ^ T D V V V ",
"V V V v x k 0 = X * 9 u 6 $ X > e t 2 O @ 4 u q - X & 8 h x v S Q  .@.^ G V V V ",
"V V V c j y 8 - @ = 7 e 5 & # 6 h k 8 % * 0 x u 4 # > r v D H R [ $.*.] J V V V ",
"V V V j q > > 4 6 4 > ; , 4 8 t z c y 9 0 u v k r 8 w j n I ~ { O.-.*.] J V V V ",
"V V V y > . $ 8 h 9 %   = w x c b b v x x v b b c x c v A W | ;.:.,.*.] J V V V ",
"V V V h 6 % = 5 q 6 = $ 5 i V V V V V V V V V V V V D J E [ #.<.<.<.*.] J V V V ",
"V V V z y 0 5 > = > 5 9 y z V V V V V V V V V V V V P ~ } +.=.<.<.<.*.] J V V V ",
"V V V b c z q *   & 0 z c v V V V V V V V V V V V C R } ;.>.,.<.<.<.*.] J V V V ",
"V V V x i w 6 ; & ; 6 q u z V V V V V V V V V V V C E  .>.<.<.<.<.<.*.] J V V V ",
"V V V h 8 * - 5 9 5 - * 7 i V V V V V V V V V V V C E  .>.<.<.<.<.<.*.] J V V V ",
"V V V u >   $ 8 h 9 %   ; t V V V V V V V V V V V C E  .>.<.<.<.<.<.*.] J V V V ",
"V V V j 9 - ; 4 7 5 ; - 8 h V V V V V V V V V V V C E  .>.<.<.<.<.<.*.] J V V V ",
"V V V c h r 7 ; $ - 7 r i x V V V V V V V V V V V C E  .>.<.<.<.<.<.*.] J V V V ",
"V V V b c z q *   & 0 z c v V V V V V V V V V V V C E  .>.<.<.<.<.<.*.] J V V V ",
"V V V z t 8 4 , ; > 4 7 r k V V V V V V V V V V V C E  .>.<.<.<.<.<.*.] J V V V ",
"V V V i 5 @ * 6 e 7 = @ 4 u V V V V V V V V V V V C E  .>.<.<.<.<.<.*.] J V V V ",
"V V V u , X % 7 u 8 & X - q k x v b c k z c b v x l Y ' %.;.>.<.<.<.*.] J V V V ",
"V V V k w 2 , 2 2 2 , , , 2 6 r z x t 7 8 y c k e 6 f M _ o.&.<.<.<.*.] J V V V ",
"V V V v z h 9 = O * 8 t 6 % + 5 i k 7 # % 9 x y 2 + : d K / +.<.<.<.*.] J V V V ",
"V V V v z h 9 = O * 8 t 6 % O > w r 2 @ # 4 t 0 - O * 8 a m ` $.-.>.*.] J V V V ",
"V V V k w 2 , 2 2 2 , , , 2 2 2 , , 2 2 2 , , , 2 4 2 , 3 g B ) X.*.*.] J V V V ",
"V V V u , X % 7 u 8 & X - q u 5 @ O , t e > X $ 6 u 9 * X < s L ( #.*.] J V V V ",
"V V V i 5 @ * 6 e 7 = @ ; 9 e 4 % # 2 w 0 > @ & 5 e 8 = @ - 8 p N ` ..~ F V V V ",
"V V V z t 8 4 , ; > 4 5 2 > ; , 5 5 2 ; ; 2 5 4 , ; > 4 5 4 > 1 g N Q U S V V V ",
"V V V b c x q *   & 0 h 7 #   ; t u 2 o + 5 h w =   % 9 h 8 $ . 1 p S Z V V V V ",
"V V V V V b u 5 % 2 y x e > % 7 h k 9 * - q x i 5 % , t x r , % 6 i V V V V V V ",
"V V V V V b k t 0 t k v j e 0 y x c i q w i v z y 0 r j v j r 0 y z V V V V V V ",
"V V V V V V b v c v b b v v c v b b v c c v b b v c v b b b v c v b V V V V V V ",
"V V V V V V V V V V V V V V V V V V V V V V V V V V V V V V V V V V V V V V V V "
};
