/* XPM */
static char *digit4[] = {
/* columns rows colors chars-per-pixel */
"40 60 94 2 ",
"   c #00001F",
".  c #000024",
"X  c #00002C",
"o  c #000034",
"O  c #00003B",
"+  c #000042",
"@  c #00004B",
"#  c #000B4E",
"$  c #000053",
"%  c #000E55",
"&  c #00005C",
"*  c #00095B",
"=  c #000063",
"-  c #00006B",
";  c #000074",
":  c #00007C",
">  c #000084",
",  c #00008B",
"<  c #00158D",
"1  c #001B89",
"2  c #000093",
"3  c #000C94",
"4  c #00009B",
"5  c #000D9C",
"6  c #001695",
"7  c #001D91",
"8  c #002584",
"9  c #002B8B",
"0  c #0000A3",
"q  c #0000AC",
"w  c #0000B4",
"e  c #0000BB",
"r  c #0039BC",
"t  c #004BB5",
"y  c #0041B9",
"u  c #004CBD",
"i  c #0051B1",
"p  c #0058B6",
"a  c #0054BA",
"s  c #0000C0",
"d  c #000AC2",
"f  c #0014C5",
"g  c #001BC6",
"h  c #002CC3",
"j  c #0024C9",
"k  c #002DCB",
"l  c #0035C7",
"z  c #0031CC",
"x  c #003ACE",
"c  c #0044C0",
"v  c #0043D0",
"b  c #004DD3",
"n  c #0053D4",
"m  c #005DD7",
"M  c #0062D7",
"N  c #0063D8",
"B  c #006CDA",
"V  c #0074DD",
"C  c #007BDE",
"Z  c #008DD7",
"A  c #0082DE",
"S  c #0088D8",
"D  c #0095DB",
"F  c #0086E1",
"G  c #008AE2",
"H  c #0093E4",
"J  c #009BE6",
"K  c #009EE7",
"L  c #00A5E9",
"P  c #00AAEA",
"I  c #00AEEB",
"U  c #00B1EB",
"Y  c #00B1EC",
"T  c #00B4EC",
"R  c #00B8ED",
"E  c #00BDEE",
"W  c #00C0EF",
"Q  c #00C3F0",
"!  c #00C5F0",
"~  c #00CAF2",
"^  c #00CDF1",
"/  c #00D1F2",
"(  c #00D6F5",
")  c #00D9F6",
"_  c #00DCF6",
"`  c #00E0F7",
"'  c #00E2F8",
"]  c #00E5F8",
"[  c #00E8F9",
"{  c #00EFFB",
"}  c #00F2FC",
"|  c #00F7FD",
" . c #00FAFD",
".. c cyan",
/* pixels */
"s s s s s s s s s s s s s s s s s s s s s s s s s s s s s s s s s s s s s s s s ",
"s s s s s s e e w e e e e e w e e e e w w e e e e w e e e e e w e e s s s s s s ",
"s s s s s e q 2 : 2 q e 0 , : 2 w w 4 > > 4 e q 2 : , 0 e 0 , : 2 q s s s s s s ",
"s s s s s e 4 - + = 2 w , & + ; 0 q : @ $ > w 4 - + & 2 w , & + - 4 s s s s s s ",
"s s s s d f 3 $ . + : 0 ; O   $ 2 4 = . o - 0 > @   + : 0 ; O . * 5 f d s s s s ",
"s s s g x M t 8 * & = - = & $ & - - = $ $ = - = & $ & = - = & * 9 a m x f s s s ",
"s s s k V T Z t 3 ; @ o $ : , = + O = > : & o + - , ; @ o $ ; 5 a D I B j s s s ",
"s s s x H [ W V h < # . $ > 4 - o X & 2 , & . O - 4 : @ . * 6 z C ~ ` F k s s s ",
"s s s x H [ ) P C i 8 & & = = = & & = = = & & & = = = & = 9 p A U ` ` F k s s s ",
"s s s x H [ } ' ^ Z y 4 - + X & > , = o O = 2 : $ X @ ; 5 u D / ] | ` F k s s s ",
"s s s x H [ ....| R B h 1 # o - 4 q ; O + : w 2 = o % 7 l C Q ......` F k s s s ",
"s s s x H [ .... .( P A i 8 - , q w 2 ; ; 2 w q , - 9 p A Y _ ......` F k s s s ",
"s s s x H [ ......| [ / S r q w e e w q q w e e w q c D ) [ | ......` F k s s s ",
"s s s x H [ ..........{ J v s s s s s s s s s s s s b P | ..........` F k s s s ",
"s s s x H [ ..........{ J v s s s s s s s s s s s s b P | ..........` F k s s s ",
"s s s x H [ ..........{ J v s s s s s s s s s s s s b P | ..........` F k s s s ",
"s s s x H [ ..........{ J v s s s s s s s s s s s s b P | ..........` F k s s s ",
"s s s x H [ ..........{ J v s s s s s s s s s s s s b P | ..........` F k s s s ",
"s s s x H [ ..........{ J v s s s s s s s s s s s s b P | ..........` F k s s s ",
"s s s x H [ ..........{ J v s s s s s s s s s s s s b P | ..........` F k s s s ",
"s s s x H [ ..........{ J v s s s s s s s s s s s s b P | ..........` F k s s s ",
"s s s x H [ ...... .| ` H x s s s s s s s s s s s s b K [ |  .......` F k s s s ",
"s s s x H [ .... ._ E H N k s s s s s s s s s s s s z B K Q ' ......` F k s s s ",
"s s s x H [ .... .W A v k f s s s s s s s s s s s s f k b G ~ ......` F k s s s ",
"s s s x H [  .} ' L n g f f f f f f f f f f f f f f f f j N I [ }  .` F k s s s ",
"s s s x H [ ` R H F C B B B B B B B B B B B B B B B B B B C G J E ] ` F k s s s ",
"s s s x H [ ! F b B J W ! ! ! ! ! ! ! ! ! ! ! ! ! ! ! ! E H N b G / ` F k s s s ",
"s s s z A ~ P N z B R  .................................| I m z V Y ! V j s s s ",
"s s s g b C F C C L (  ................................. .^ K C C F V v f s s s ",
"s s s d g k n H ~ ` } ....................................{ _ ! G n j g d s s s ",
"s s s s s s x F ~ ` } ....................................{ _ ! G n j f d s s s ",
"s s s s s s j b C L (  ................................. .^ K C C F V v f s s s ",
"s s s s s s d f j B R  .................................| I m z B Y ! V j s s s ",
"s s s w 0 4 0 w e v F W ! ! ! ! ! ! ! ! ! ! ! ! ! ! ! ! E H N b G / ` F k s s s ",
"s s s 0 > & ; 2 e j b B B B B B B B B B B B B B B B B B B C G J E ] ` F k s s s ",
"s s s 2 & . + : w s d f f f f f f f f f f f f f f f f f j N I [ }  .` F k s s s ",
"s s s 0 - + @ - , 4 q e s s s s s s s s s s s s s s f k b G ~ ......` F k s s s ",
"s s s q 2 : - & @ ; 4 e s s s s s s s s s s s s s s z B K Q ' ......` F k s s s ",
"s s s e w q > @   @ > w e e s s s s s s s s s s s s b K [ |  .......` F k s s s ",
"s s s w 4 > - $ + $ - > 4 q s s s s s s s s s s s s b P | ..........` F k s s s ",
"s s s 0 ; @ $ - : - $ @ ; 4 s s s s s s s s s s s s b P | ..........` F k s s s ",
"s s s 4 &   O ; 0 : +   $ 2 s s s s s s s s s s s s b P | ..........` F k s s s ",
"s s s 0 : $ $ = ; - $ $ ; 0 s s s s s s s s s s s s b P | ..........` F k s s s ",
"s s s w 0 , ; $ O $ ; , 4 w s s s s s s s s s s s s b P | ..........` F k s s s ",
"s s s e w q > @   + : q w e s s s s s s s s s s s s b P | ..........` F k s s s ",
"s s s q 2 ; = & $ & = ; , q s s s s s s s s s s s s b P | ..........` F k s s s ",
"s s s 4 - o @ - , ; @ o = 4 s s s s s s s s s s s s b P | ..........` F k s s s ",
"s s s 4 & . + ; 4 ; + . $ > q w e e w q q w e e w q c D ) [ | ......` F k s s s ",
"s s s q > = & = = = & & & = - , q w 2 ; ; 2 w q , - 9 p A Y _ ......` F k s s s ",
"s s s e q 0 : @ X @ ; 2 - + o - 4 q ; O + : w 2 = o % 7 l C Q ......` F k s s s ",
"s s s e q 0 : @ X @ ; 2 - + X & > , = o O = 2 : $ X @ ; 5 u D / ] | ` F k s s s ",
"s s s q > = & = = = & & & = = = & & = = = & & & = = = & = 9 p A U ` ` F k s s s ",
"s s s 4 & . + ; 4 ; + . $ > 4 - o X = 2 , & . O - 4 : @ . * 6 z C ~ ` F k s s s ",
"s s s 4 - o @ - , ; @ o $ : , = + O = > : & o + - , ; @ o $ ; 5 a D I B j s s s ",
"s s s q 2 ; = & $ & = - = & $ & - - = $ $ = - = & $ & = - = & * 9 a m x f s s s ",
"s s s e w w > @   + : 0 ; O   $ 2 4 = . o - 0 > @   + : 0 ; O . * 5 f d s s s s ",
"s s s s s e 4 - + = 2 w , & + ; 0 q : @ $ > w 4 - + & 2 w , & + - 4 s s s s s s ",
"s s s s s e q 2 : 2 q e 0 , : 2 w w 4 > > 4 e q 2 : , 0 e 0 , : 2 q s s s s s s ",
"s s s s s s e e w e e e e e w e e e e w w e e e e w e e e e e w e e s s s s s s ",
"s s s s s s s s s e s s s s s s s e e s s s s s s s s s s s s s s s s s s s s s "
};
