/* XPM */
static char *_[] = {
/* columns rows colors chars-per-pixel */
"64 64 105 2 ",
"   c black",
".  c #090701",
"X  c #0F0C01",
"o  c #120D01",
"O  c #150F02",
"+  c #221A03",
"@  c #261C03",
"#  c #281E04",
"$  c #352805",
"%  c #3E2E06",
"&  c #7F0803",
"*  c #6F1B07",
"=  c #4C3907",
"-  c #533E08",
";  c #702B09",
":  c #634A09",
">  c #6C500A",
",  c #785A0B",
"<  c #7D5D0C",
"1  c #880703",
"2  c #8F0703",
"3  c #8D0A03",
"4  c #8D0D04",
"5  c #930402",
"6  c #990302",
"7  c #9C0301",
"8  c #861204",
"9  c #8D1B05",
"0  c #8E1C05",
"q  c #AF0000",
"w  c #B10000",
"e  c #B90000",
"r  c #BF0000",
"t  c #C00300",
"y  c #C10701",
"u  c #C10801",
"i  c #C30D01",
"p  c #C61703",
"a  c #C71A03",
"s  c #C81D03",
"d  c #CA2304",
"f  c #CA2404",
"g  c #CD2E06",
"h  c #CF3306",
"j  c #D03707",
"k  c #D13907",
"l  c #D33F08",
"z  c #934E0C",
"x  c #975E0F",
"c  c #81610C",
"v  c #8F6A0D",
"b  c #9E610F",
"n  c #926D0E",
"m  c #98720E",
"M  c #9D750F",
"N  c #A46B10",
"B  c #A56C10",
"V  c #A77D10",
"C  c #AA7F10",
"Z  c #D44308",
"A  c #D54709",
"S  c #D74C09",
"D  c #D8500A",
"F  c #D9540A",
"G  c #DC5C0B",
"H  c #DC5D0C",
"J  c #DE630D",
"K  c #DE640D",
"L  c #E0690D",
"P  c #E16C0E",
"I  c #E3710E",
"U  c #E4770F",
"Y  c #E57B0F",
"T  c #E77F10",
"R  c #AD8110",
"E  c #BB8112",
"W  c #B68811",
"Q  c #BD8D12",
"!  c #C28713",
"~  c #C79513",
"^  c #CE9214",
"/  c #CD9A13",
"(  c #D49F14",
")  c #E88110",
"_  c #E98711",
"`  c #EA8811",
"'  c #EC8F12",
"]  c #ED9212",
"[  c #EF9913",
"{  c #F19E14",
"}  c #DFA715",
"|  c #E1A415",
" . c #E4A616",
".. c #E7AD16",
"X. c #EAAC16",
"o. c #ECAE16",
"O. c #F1A014",
"+. c #F4A915",
"@. c #F5AD16",
"#. c #EEB216",
"$. c #F0B317",
"%. c #F1B417",
"&. c #F8B517",
"*. c #F9B817",
"=. c #FABB18",
/* pixels */
"r r r r r r r r r r r r r r r r r r r r r r r r r r r r r r r r r r r r r r r r r r r r r r r r r r r r r r r r r r r r r r r r ",
"r r r r r r r r r r r r r r r r r r r r r r r r r r r r r r r r r r r r r r r r r r r r r r r r r r r r r r r r r r r r r r r r ",
"r r r r r r r r r r r r r r r r r r r r r r r r r r r r r r r r r r r r r r r r r r r r r r r r r r r r r r r r r r r r r r r r ",
"r r r r r r r r r r r r r r r r r r r r r r r r r r r r r r r r r r r r r r r r r r r r r r r r r r r r r r r r r r r r r r r r ",
"r r r r r r r r r r r r r r r r r r r r r r r r r r r r r r r r r r r r r r r r r r r r r r r r r r r r r r r r r r r r r r r r ",
"r r r r r r r r r r r r r r r r r r r r r r r r r r r r r r r r r r r r r r r r r r r r r r r r r r r r r r r r r r r r r r r r ",
"r r r r r r r r r r r r r r r r r r r r r r r r r r y g F J J J J J J D s r r r r r r r r r r r r r r r r r r r r r r r r r r r ",
"r r r r r r r r r r r r r r r r r r r r r r r r j ` *.=.=.=.=.=.=.=.=.=.=.{ F u r r r r r r r r r r r r r r r r r r r r r r r r ",
"r r r r r r r r r r r r r r r r r r r r r r i ) =.=.=.=.=.=.=.=.=.=.=.=.=.=.=.+.l r r r r r r r r r r r r r r r r r r r r r r r ",
"r r r r r r r r r r r r r r r r r r r r r a { =.=.=.=.=.=.=.=.=.=.=.=.=.=.=.=.=.=.K r r r r r r r r r r r r r r r r r r r r r r ",
"r r r r r r r r r r r r r r r r r r r r i { =.=.=.=.=.=.=.=.=.=.=.=.=.=.=.=.=.=.=.=.L r r r r r r r r r r r r r r r r r r r r r ",
"r r r r r r r r r r r r r r r r r r r r Y =.=.=.=.=.=.@._ L H H H J I O.=.=.=.=.=.=.=.S r r r r r r r r r r r r r r r r r r r r ",
"r r r r r r r r r r r r r r r r r r r h =.=.=.=.=.=.I r r r r r r r r r j O.=.=.=.=.=.&.p r r r r r r r r r r r r r r r r r r r ",
"r r r r r r r r r r r r r r r r r r r [ =.=.=.=.=.+.y r r r r r r r r r r u ) =.=.=.=.=.I r r r r r r r r r r r r r r r r r r r ",
"r r r r r r r r r r r r r r r r r r k =.=.=.=.=.T a r r r r r r r r r r r r t ] =.=.=.=.&.i r r r r r r r r r r r r r r r r r r ",
"r r r r r r r r r r r r r r r r r r G *.=.=.=.=.{ p r r r r r r r r r r r r r d =.=.=.=.=.Z r r r r r r r r r r r r r r r r r r ",
"r r r r r r r r r r r r r r r r r r r a I *.=.=.=.L r r r r r r r r r r r r r r ' =.=.=.=.P r r r r r r r r r r r r r r r r r r ",
"r r r r r r r r r r r r r r r r r r r r r a U &.=.Z r r r r r r r r r r r r r r J =.=.=.=._ r r r r r r r r r r r r r r r r r r ",
"r r r r r r r r r r r r r r r r r r r r r r r i f r r r r r r r r r r r r r r r S =.=.=.=.' r r r r r r r r r r r r r r r r r r ",
"r r r r r r r r r r r r r r r r r r r r r r r r r r r r r r r r r r r r r r r r A =.=.=.=.] r r r r r r r r r r r r r r r r r r ",
"r r r r r r r r r r r r r r r r r r r r r r r r r r r r r r r r r r r r r r r r A =.=.=.=.] r r r r r r r r r r r r r r r r r r ",
"r r r r r r r r r r r r r r r r r r r r r r r r r r r r r r r r r r r r r r r r A =.=.=.=.] r r r r r r r r r r r r r r r r r r ",
"r r r r r r r r r r r r r r r r r r r r r r r r r r r r r r r r r r r r r r r r A =.=.=.=.] r r r r r r r r r r r r r r r r r r ",
"r r r r r r r r r r r r r r r r r r r r r r r r r r r r r r r r r r r r r r r r A =.=.=.=.] r r r r r r r r r r r r r r r r r r ",
"r r r r r r r r r r r r r r r r r r r r r r r r r r r r r r r r r r r r r r r r A =.=.=.=.] r r r r r r r r r r r r r r r r r r ",
"r r r r r r r r r r r r r r r r r r r r r r r r r r r r r r r r r r r r r r r r A =.=.=.=.] r r r r r r r r r r r r r r r r r r ",
"r r r r r r r r r r r r r r r r r r r r r r r r r r r r r r r r r r r r r r r r A =.=.=.=.] r r r r r r r r r r r r r r r r r r ",
"r r r r r r r r r r r r r r r 7 z N N N N N N N N N N N N N N N N N N N N N N N N B B B B N N b 1 r r r r r r r r r r r r r r r ",
"r r r r r r r r r r r r r r q x =.=.=.=.=.=.=.=.=.=.=.=.=.=.=.=.=.=.=.=.=.=.=.=.=.=.=.=.=.=.=.=.! 5 r r r r r r r r r r r r r r ",
"r r r r r r r r r r r r r r 3  .=.=.=.=.=.=.=.=.=.=.=.=.=.=.=.=.=.=.=.=.=.=.=.=.=.=.=.=.=.=.=.=.=.8 r r r r r r r r r r r r r r ",
"r r r r r r r r r r r r r r 4 o.=.=.=.=.=.=.=.=.=.=.=.=.=.=.=.=.=.=.=.=.=.=.=.=.=.=.=.=.=.=.=.=.=.0 r r r r r r r r r r r r r r ",
"r r r r r r r r r r r r r r 4 o.=.=.=.=.=.=.=.=.=.=.=.=.=.=.=.=.=.=.=.=.=.=.=.=.=.=.=.=.=.=.=.=.=.0 r r r r r r r r r r r r r r ",
"r r r r r r r r r r r r r r 4 o.=.=.=.=.=.=.=.=.=.=.=.=.=.=.=.$.X.=.=.=.=.=.=.=.=.=.=.=.=.=.=.=.=.0 r r r r r r r r r r r r r r ",
"r r r r r r r r r r r r r r 4 o.=.=.=.=.=.=.=.=.=.=.=.=.=.W $     + n =.=.=.=.=.=.=.=.=.=.=.=.=.=.0 r r r r r r r r r r r r r r ",
"r r r r r r r r r r r r r r 4 o.=.=.=.=.=.=.=.=.=.=.=.=.C             , =.=.=.=.=.=.=.=.=.=.=.=.=.0 r r r r r r r r r r r r r r ",
"r r r r r r r r r r r r r r 4 o.=.=.=.=.=.=.=.=.=.=.=.#.o               / =.=.=.=.=.=.=.=.=.=.=.=.0 r r r r r r r r r r r r r r ",
"r r r r r r r r r r r r r r 4 o.=.=.=.=.=.=.=.=.=.=.=.R                 < =.=.=.=.=.=.=.=.=.=.=.=.0 r r r r r r r r r r r r r r ",
"r r r r r r r r r r r r r r 4 o.=.=.=.=.=.=.=.=.=.=.=.M                 : =.=.=.=.=.=.=.=.=.=.=.=.0 r r r r r r r r r r r r r r ",
"r r r r r r r r r r r r r r 4 o.=.=.=.=.=.=.=.=.=.=.=.~                 v =.=.=.=.=.=.=.=.=.=.=.=.0 r r r r r r r r r r r r r r ",
"r r r r r r r r r r r r r r 4 o.=.=.=.=.=.=.=.=.=.=.=.=.$   X         o ..=.=.=.=.=.=.=.=.=.=.=.=.0 r r r r r r r r r r r r r r ",
"r r r r r r r r r r r r r r 4 o.=.=.=.=.=.=.=.=.=.=.=.=.} # O       @ Q =.=.=.=.=.=.=.=.=.=.=.=.=.0 r r r r r r r r r r r r r r ",
"r r r r r r r r r r r r r r 4 o.=.=.=.=.=.=.=.=.=.=.=.=.=.}         C =.=.=.=.=.=.=.=.=.=.=.=.=.=.0 r r r r r r r r r r r r r r ",
"r r r r r r r r r r r r r r 4 o.=.=.=.=.=.=.=.=.=.=.=.=.=.Q         c =.=.=.=.=.=.=.=.=.=.=.=.=.=.0 r r r r r r r r r r r r r r ",
"r r r r r r r r r r r r r r 4 o.=.=.=.=.=.=.=.=.=.=.=.=.=.v         - =.=.=.=.=.=.=.=.=.=.=.=.=.=.0 r r r r r r r r r r r r r r ",
"r r r r r r r r r r r r r r 4 o.=.=.=.=.=.=.=.=.=.=.=.=.=.:         @ =.=.=.=.=.=.=.=.=.=.=.=.=.=.0 r r r r r r r r r r r r r r ",
"r r r r r r r r r r r r r r 4 o.=.=.=.=.=.=.=.=.=.=.=.=.=.$           %.=.=.=.=.=.=.=.=.=.=.=.=.=.0 r r r r r r r r r r r r r r ",
"r r r r r r r r r r r r r r 4 o.=.=.=.=.=.=.=.=.=.=.=.=.=..           ~ =.=.=.=.=.=.=.=.=.=.=.=.=.0 r r r r r r r r r r r r r r ",
"r r r r r r r r r r r r r r 4 o.=.=.=.=.=.=.=.=.=.=.=.=.(             m =.=.=.=.=.=.=.=.=.=.=.=.=.0 r r r r r r r r r r r r r r ",
"r r r r r r r r r r r r r r 4 o.=.=.=.=.=.=.=.=.=.=.=.=.V             > =.=.=.=.=.=.=.=.=.=.=.=.=.0 r r r r r r r r r r r r r r ",
"r r r r r r r r r r r r r r 4 o.=.=.=.=.=.=.=.=.=.=.=.=.,             % =.=.=.=.=.=.=.=.=.=.=.=.=.0 r r r r r r r r r r r r r r ",
"r r r r r r r r r r r r r r 4 o.=.=.=.=.=.=.=.=.=.=.=.=.=             o =.=.=.=.=.=.=.=.=.=.=.=.=.0 r r r r r r r r r r r r r r ",
"r r r r r r r r r r r r r r 4 o.=.=.=.=.=.=.=.=.=.=.=.=.n < < < < < < < %.=.=.=.=.=.=.=.=.=.=.=.=.0 r r r r r r r r r r r r r r ",
"r r r r r r r r r r r r r r 4 o.=.=.=.=.=.=.=.=.=.=.=.=.=.=.=.=.=.=.=.=.=.=.=.=.=.=.=.=.=.=.=.=.=.0 r r r r r r r r r r r r r r ",
"r r r r r r r r r r r r r r 4 o.=.=.=.=.=.=.=.=.=.=.=.=.=.=.=.=.=.=.=.=.=.=.=.=.=.=.=.=.=.=.=.=.=.0 r r r r r r r r r r r r r r ",
"r r r r r r r r r r r r r r 4 X.=.=.=.=.=.=.=.=.=.=.=.=.=.=.=.=.=.=.=.=.=.=.=.=.=.=.=.=.=.=.=.=.=.9 r r r r r r r r r r r r r r ",
"r r r r r r r r r r r r r r 6 ! =.=.=.=.=.=.=.=.=.=.=.=.=.=.=.=.=.=.=.=.=.=.=.=.=.=.=.=.=.=.=.=.o.& r r r r r r r r r r r r r r ",
"r r r r r r r r r r r r r r r * E | | | | | | | | | | | | | | | | | | | | | | | | | | | | | | ^ ; w r r r r r r r r r r r r r r ",
"r r r r r r r r r r r r r r r r 5 3 3 3 3 3 3 3 3 3 3 3 3 3 3 3 3 3 3 3 3 3 3 3 3 3 3 3 3 3 3 2 e r r r r r r r r r r r r r r r ",
"r r r r r r r r r r r r r r r r r r r r r r r r r r r r r r r r r r r r r r r r r r r r r r r r r r r r r r r r r r r r r r r r ",
"r r r r r r r r r r r r r r r r r r r r r r r r r r r r r r r r r r r r r r r r r r r r r r r r r r r r r r r r r r r r r r r r ",
"r r r r r r r r r r r r r r r r r r r r r r r r r r r r r r r r r r r r r r r r r r r r r r r r r r r r r r r r r r r r r r r r ",
"r r r r r r r r r r r r r r r r r r r r r r r r r r r r r r r r r r r r r r r r r r r r r r r r r r r r r r r r r r r r r r r r ",
"r r r r r r r r r r r r r r r r r r r r r r r r r r r r r r r r r r r r r r r r r r r r r r r r r r r r r r r r r r r r r r r r ",
"r r r r r r r r r r r r r r r r r r r r r r r r r r r r r r r r r r r r r r r r r r r r r r r r r r r r r r r r r r r r r r r r "
};
