/* XPM */
static char *_[] = {
/* columns rows colors chars-per-pixel */
"64 64 113 2 ",
"   c #000000",
".  c #0C0902",
"X  c #120000",
"o  c #1D0000",
"O  c #140C01",
"+  c #171304",
"@  c #1C1603",
"#  c #210000",
"$  c #2F0000",
"%  c #370000",
"&  c #3B0000",
"*  c #241C04",
"=  c #291E04",
"-  c #2A2106",
";  c #2B2308",
":  c #312404",
">  c #372905",
",  c #3B2C05",
"<  c #302709",
"1  c #3A2C0A",
"2  c #3F330C",
"3  c #420000",
"4  c #4B0000",
"5  c #520000",
"6  c #5D0000",
"7  c #620000",
"8  c #6B0000",
"9  c #720000",
"0  c #7A0000",
"q  c #433206",
"w  c #4A3707",
"e  c #4B3807",
"r  c #40340C",
"t  c #4C3D0F",
"y  c #553F08",
"u  c #5D4609",
"i  c #594811",
"p  c #624909",
"a  c #694F0A",
"s  c #6D520A",
"d  c #72550B",
"f  c #76590B",
"g  c #7C5C0C",
"h  c #614F12",
"j  c #675313",
"k  c #745D16",
"l  c #890000",
"z  c #940000",
"x  c #9B0000",
"c  c #A60000",
"v  c #AB0000",
"b  c #B30000",
"n  c #BF0000",
"m  c #C10501",
"M  c #C61605",
"N  c #CC2A0A",
"B  c #CE330C",
"V  c #D0370D",
"C  c #87650D",
"Z  c #8A670D",
"A  c #8F6B0D",
"S  c #936E0E",
"D  c #96700E",
"F  c #866C19",
"G  c #8C711A",
"H  c #92761C",
"J  c #9C7E1E",
"K  c #A27A0F",
"L  c #D2400F",
"P  c #D44310",
"I  c #D64C12",
"U  c #DB5A15",
"Y  c #DD6217",
"T  c #9F811E",
"R  c #AE8210",
"E  c #A0811F",
"W  c #B28511",
"Q  c #B68811",
"!  c #BD8D12",
"~  c #AD8C21",
"^  c #B39022",
"/  c #BE9924",
"(  c #C39213",
")  c #C99613",
"_  c #CD9913",
"`  c #D39D14",
"'  c #D7A114",
"]  c #D9A215",
"[  c #E1A815",
"{  c #E9AF16",
"}  c #ECB016",
"|  c #F4B617",
" . c #F8B917",
".. c #FABB18",
"X. c #EB8C21",
"o. c #EE9724",
"O. c #C7A126",
"+. c #CFA728",
"@. c #D0A828",
"#. c #D7AE29",
"$. c #DDB22A",
"%. c #F1A226",
"&. c #F3A928",
"*. c #F4AA28",
"=. c #F5AD29",
"-. c #E3B72B",
";. c #F7B42B",
":. c #F8B92C",
">. c #FABE2D",
",. c #F3C42E",
"<. c #FCC42E",
"1. c #FECA30",
"2. c #FFCE31",
/* pixels */
"n n n n n n n n n n n n n n n n n n n n n n n n n n n n n n n n n n n n n n n n n n n n n n n n n n n n n n n n n n n n n n n n ",
"n n n n n n n n n n n n n n n n n n n n n n n n n n n n n n n n n n n n n n n n n n n n n n n n n n n n n n n n n n n n n n n n ",
"n n n n n n n n n n n n n n n n n n n n n n n n n n n n n n n n n n n n n n n n n n n n n n n n n n n n n n n n n n n n n n n n ",
"n n n n n n n n n n n n n n n n n n n n n n n n n n n n n n n n n n n n n n n n n n n n n n n n n n n n n n n n n n n n n n n n ",
"n n n n n n n n n n n n n n n n n n n n n n n n n n n n n n n n n n n n n n n n n n n n n n n n n n n n n n n n n n n n n n n n ",
"n n n n n n n n n n n n n n n n n n n n n n n n n n n n n n n n n n n n n n n n n n n n n n n n n n n n n n n n n n n n n n n n ",
"n n n n n n n n n n n n n n n n n n n n n n n n n n n z 9 7 6 6 6 6 6 8 l b n n n n n n n n n n n n n n n n n n n n n n n n n n ",
"n n n n n n n n n n n n n n n n n n n n n n n n n 9 o @ i H T T T J F h * X 7 b n n n n n n n n n n n n n n n n n n n n n n n n ",
"n n n n n n n n n n n n n n n n n n n n n n n z o r / 2.2.2.2.2.2.2.2.2.2.O.t X 0 n n n n n n n n n n n n n n n n n n n n n n n ",
"n n n n n n n n n n n n n n n n n n n n n n 9 . E 2.2.2.2.2.2.2.2.2.2.2.2.2.2.~ . 5 n n n n n n n n n n n n n n n n n n n n n n ",
"n n n n n n n n n n n n n n n n n n n n n 9 @ +.2.2.2.2.2.2.2.2.2.2.2.2.2.2.2.2.$.* 4 n n n n n n n n n n n n n n n n n n n n n ",
"n n n n n n n n n n n n n n n n n n n n l . #.2.2.2.2.2.2.2.>.;.;.:.1.2.2.2.2.2.2.-.+ 8 n n n n n n n n n n n n n n n n n n n n ",
"n n n n n n n n n n n n n n n n n n n b X H 2.2.2.2.2.o.V m n n n n m B X.2.2.2.2.2.^   v n n n n n n n n n n n n n n n n n n n ",
"n n n n n n n n n n n n n n n n n n n 7 < 2.2.2.2.2.U n n n n n n n n n n L <.2.2.2.2.t 3 n n n n n n n n n n n n n n n n n n n ",
"n n n n n n n n n n n n n n n n n n n o E 2.2.2.2.Y n n n n n n n n n n n n P 2.2.2.2.@.  v n n n n n n n n n n n n n n n n n n ",
"n n n n n n n n n n n n n n n n n n x   ,.2.2.2.%.n n n n n n n n n n n n n n X.2.2.2.2.; 9 n n n n n n n n n n n n n n n n n n ",
"n n n n n n n n n n n n n n n n n n 8 1 2.2.2.2.I n n n n n n n n n n n n n n N 2.2.2.2.j 4 n n n n n n n n n n n n n n n n n n ",
"n n n n n n n n n n n n n n n n n n 5 h 2.2.2.2.M n n n n n n n n n n n n n n n <.2.2.2.G $ n n n n n n n n n n n n n n n n n n ",
"n n n n n n n n n n n n n n n n n n 3 k 2.2.2.2.n n n n n n n n n n n n n n n n =.2.2.2.J # n n n n n n n n n n n n n n n n n n ",
"n n n n n n n n n n n n n n n n n n 3 k 2.2.2.2.n n n n n n n n n n n n n n n n *.2.2.2.E # n n n n n n n n n n n n n n n n n n ",
"n n n n n n n n n n n n n n n n n n 3 k 2.2.2.2.n n n n n n n n n n n n n n n n &.2.2.2.E # n n n n n n n n n n n n n n n n n n ",
"n n n n n n n n n n n n n n n n n n 3 k 2.2.2.2.n n n n n n n n n n n n n n n n &.2.2.2.E o n n n n n n n n n n n n n n n n n n ",
"n n n n n n n n n n n n n n n n n n 3 k 2.2.2.2.n n n n n n n n n n n n n n n n &.2.2.2.E o n n n n n n n n n n n n n n n n n n ",
"n n n n n n n n n n n n n n n n n n 3 k 2.2.2.2.n n n n n n n n n n n n n n n n &.2.2.2.E o n n n n n n n n n n n n n n n n n n ",
"n n n n n n n n n n n n n n n n n n 3 k 2.2.2.2.n n n n n n n n n n n n n n n n &.2.2.2.E o n n n n n n n n n n n n n n n n n n ",
"n n n n n n n n n n n n n n b 8 & $ X @ 2 2 2 2 $ $ $ $ $ $ $ $ $ $ $ $ $ $ $ $ 1 r 2 2 -   $ % 6 b n n n n n n n n n n n n n n ",
"n n n n n n n n n n n n n n & w Q ! ! ! ! ! ( ( ( ( ( ( ( ) ) ) _ _ _ _ _ ` ` ` ` ` ` ' ' ] ] ] C o b n n n n n n n n n n n n n ",
"n n n n n n n n n n n n n x * | ..................................................................u 9 n n n n n n n n n n n n n ",
"n n n n n n n n n n n n n l p ....................................................................A 6 n n n n n n n n n n n n n ",
"n n n n n n n n n n n n n l p ....................................................................S 6 n n n n n n n n n n n n n ",
"n n n n n n n n n n n n n l p ....................................................................S 6 n n n n n n n n n n n n n ",
"n n n n n n n n n n n n n l p ....................................................................S 6 n n n n n n n n n n n n n ",
"n n n n n n n n n n n n n l p ....................................................................S 6 n n n n n n n n n n n n n ",
"n n n n n n n n n n n n n l p ..............................) S Z !  .............................S 6 n n n n n n n n n n n n n ",
"n n n n n n n n n n n n n l p ..........................{ q         = ' ..........................S 6 n n n n n n n n n n n n n ",
"n n n n n n n n n n n n n l p ..........................q             @ } ........................S 6 n n n n n n n n n n n n n ",
"n n n n n n n n n n n n n l p ........................W                 Z ........................S 6 n n n n n n n n n n n n n ",
"n n n n n n n n n n n n n l p ........................s                 q ........................S 6 n n n n n n n n n n n n n ",
"n n n n n n n n n n n n n l p ........................d                 , ........................S 6 n n n n n n n n n n n n n ",
"n n n n n n n n n n n n n l p ........................K                 s ........................S 6 n n n n n n n n n n n n n ",
"n n n n n n n n n n n n n l p ........................| *   .         . ] ........................S 6 n n n n n n n n n n n n n ",
"n n n n n n n n n n n n n l u .........................._ @         * R ..........................S 6 n n n n n n n n n n n n n ",
"n n n n n n n n n n n n n l u ............................)         D ............................S 6 n n n n n n n n n n n n n ",
"n n n n n n n n n n n n n l u ............................K         d ............................S 6 n n n n n n n n n n n n n ",
"n n n n n n n n n n n n n l u ............................f         q ............................S 6 n n n n n n n n n n n n n ",
"n n n n n n n n n n n n n l u ............................e         O ............................S 6 n n n n n n n n n n n n n ",
"n n n n n n n n n n n n n l u ............................@           [ ..........................D 6 n n n n n n n n n n n n n ",
"n n n n n n n n n n n n n l u ..........................}             W ..........................D 6 n n n n n n n n n n n n n ",
"n n n n n n n n n n n n n l u ..........................!             C ..........................D 6 n n n n n n n n n n n n n ",
"n n n n n n n n n n n n n l u ..........................S             u ..........................D 6 n n n n n n n n n n n n n ",
"n n n n n n n n n n n n n l u ..........................p             - ..........................D 6 n n n n n n n n n n n n n ",
"n n n n n n n n n n n n n l u ..........................>               | ........................D 6 n n n n n n n n n n n n n ",
"n n n n n n n n n n n n n l u ...........................               _ ........................D 6 n n n n n n n n n n n n n ",
"n n n n n n n n n n n n n l u ....................................................................D 6 n n n n n n n n n n n n n ",
"n n n n n n n n n n n n n z y ....................................................................A 6 n n n n n n n n n n n n n ",
"n n n n n n n n n n n n n b O ' ................................................................} : l n n n n n n n n n n n n n ",
"n n n n n n n n n n n n n n 0 O p g g g f f f f f d d d d s s s s s a a a a a a p p p p p u u u @ 5 n n n n n n n n n n n n n n ",
"n n n n n n n n n n n n n n n b l l l l l l l l l l l l l l l l l l l l l l l l l l l l l l l l c n n n n n n n n n n n n n n n ",
"n n n n n n n n n n n n n n n n n n n n n n n n n n n n n n n n n n n n n n n n n n n n n n n n n n n n n n n n n n n n n n n n ",
"n n n n n n n n n n n n n n n n n n n n n n n n n n n n n n n n n n n n n n n n n n n n n n n n n n n n n n n n n n n n n n n n ",
"n n n n n n n n n n n n n n n n n n n n n n n n n n n n n n n n n n n n n n n n n n n n n n n n n n n n n n n n n n n n n n n n ",
"n n n n n n n n n n n n n n n n n n n n n n n n n n n n n n n n n n n n n n n n n n n n n n n n n n n n n n n n n n n n n n n n ",
"n n n n n n n n n n n n n n n n n n n n n n n n n n n n n n n n n n n n n n n n n n n n n n n n n n n n n n n n n n n n n n n n ",
"n n n n n n n n n n n n n n n n n n n n n n n n n n n n n n n n n n n n n n n n n n n n n n n n n n n n n n n n n n n n n n n n "
};
