/* XPM */
static char *_[] = {
/* columns rows colors chars-per-pixel */
"64 64 221 2 ",
"   c #000100",
".  c #0C0100",
"X  c #000A00",
"o  c #130000",
"O  c #1B0000",
"+  c #001300",
"@  c #001900",
"#  c #171900",
"$  c gray9",
"%  c #1B1B1B",
"&  c #250000",
"*  c #2A0000",
"=  c #350000",
"-  c #3C0300",
";  c #350F00",
":  c #311600",
">  c #092605",
",  c #002C00",
"<  c #172A00",
"1  c #003600",
"2  c #0E3600",
"3  c #003B00",
"4  c #18300F",
"5  c #2A2D00",
"6  c #2E3300",
"7  c #2A2B2A",
"8  c #383938",
"9  c #420000",
"0  c #4A0000",
"q  c #590000",
"w  c #500900",
"e  c #4B1E00",
"r  c #650000",
"t  c #6D0000",
"y  c #650D00",
"u  c #740000",
"i  c #7C0000",
"p  c #711400",
"a  c #493600",
"s  c #792800",
"d  c #653600",
"f  c #743200",
"g  c #054700",
"h  c #004D00",
"j  c #174F0D",
"k  c #015600",
"l  c #005D00",
"z  c #274E00",
"x  c #394C00",
"c  c #036400",
"v  c #146600",
"b  c #017500",
"n  c #007F00",
"m  c #296A00",
"M  c #356700",
"N  c #247800",
"B  c #395139",
"V  c #287128",
"C  c #484900",
"Z  c #584E00",
"A  c #545900",
"S  c #6E4D00",
"D  c #7C4200",
"F  c #714D00",
"G  c #6A5300",
"H  c #645A00",
"J  c #7C5800",
"K  c #566600",
"L  c #5A6500",
"P  c #536C00",
"I  c #4C7300",
"U  c #487500",
"Y  c #427D00",
"T  c #6D6B00",
"R  c #746300",
"E  c #657700",
"W  c #657800",
"Q  c #6E7C2B",
"!  c #4A4E4A",
"~  c #565A56",
"^  c #5A5A5A",
"/  c #536F53",
"(  c #676767",
")  c #6A6A6A",
"_  c #6A756A",
"`  c #737373",
"'  c #7B7B7B",
"]  c #8A0200",
"[  c #850800",
"{  c #950000",
"}  c #9B0000",
"|  c #8B1A00",
" . c #9D1800",
".. c #A30000",
"X. c #AB0100",
"o. c #B20100",
"O. c #BF0000",
"+. c #B40B00",
"@. c #B80800",
"#. c #AB1300",
"$. c #A61900",
"%. c #A41C00",
"&. c #B11200",
"*. c #8E2E00",
"=. c #942B00",
"-. c #9C2900",
";. c #8A3500",
":. c #873B00",
">. c #973400",
",. c #943900",
"<. c #A32300",
"1. c #A12800",
"2. c #A32A0E",
"3. c #BC2A27",
"4. c #B0392A",
"5. c #8B4400",
"6. c #864B00",
"7. c #825100",
"8. c #A47E62",
"9. c #C07E7E",
"0. c #008300",
"q. c #008A00",
"w. c #0D8C00",
"e. c #198C00",
"r. c #019300",
"t. c #009A00",
"y. c #089F08",
"u. c #268A00",
"i. c #388400",
"p. c #358A00",
"a. c #2A9500",
"s. c #239B00",
"d. c #00A200",
"f. c #0BA602",
"g. c #00AC00",
"h. c #14A200",
"j. c #1DA300",
"k. c #13AC00",
"l. c #01B400",
"z. c #0CB300",
"x. c #02BD00",
"c. c #08B800",
"v. c #0ABB0A",
"b. c #19B319",
"n. c #3DAD00",
"m. c #35B800",
"M. c #24B724",
"N. c #32B528",
"B. c #38A338",
"V. c #4F8E00",
"C. c #5A8600",
"Z. c #4D9700",
"A. c #4A9B00",
"S. c #43A500",
"D. c #41A900",
"F. c #00C100",
"G. c #01CC00",
"H. c #00D300",
"J. c #00DB00",
"K. c #1ED600",
"L. c #17DF00",
"P. c #19DC00",
"I. c #18C518",
"U. c #29C800",
"Y. c #23D000",
"T. c #01E300",
"R. c #00EB00",
"E. c #0DED00",
"W. c #0FEF0F",
"Q. c #13E500",
"!. c #02F400",
"~. c #0AF100",
"^. c #00FF00",
"/. c #0BF30B",
"(. c #0BFD0B",
"). c #16E716",
"_. c #12EC12",
"`. c #1BE31B",
"'. c #13FD13",
"]. c #2FCC2F",
"[. c #24D424",
"{. c #24DB24",
"}. c #2AD42A",
"|. c #34CB34",
" X c #3CC73C",
".X c #25F225",
"XX c #519251",
"oX c #43BC43",
"OX c #4AB249",
"+X c #54AA54",
"@X c #5BA45B",
"#X c #679967",
"$X c #6D936D",
"%X c #718C71",
"&X c #758975",
"*X c #68AA68",
"=X c #6EAF6E",
"-X c #77BB75",
";X c #50C350",
":X c #53EF53",
">X c #7ACB7A",
",X c #77FD77",
"<X c #B9847E",
"1X c #9CA17E",
"2X c #888888",
"3X c #8A948A",
"4X c #959595",
"5X c gray62",
"6X c #8EAF8E",
"7X c #A5A5A5",
"8X c #AAABA9",
"9X c #B4B4B4",
"0X c #92EC92",
"qX c #A7D2A7",
"wX c #BCCABC",
"eX c gray76",
"rX c #D6D6D6",
"tX c #DADBDA",
"yX c #DFF8DF",
"uX c #E7E8E7",
"iX c #E4F7E4",
/* pixels */
"O.O.O.O.O.O.O.O.O.O.O.O.O.O.O.O.O.O.O.O.O.O.O.O.O.O.O.O.O.O.O.O.O.O.O.O.O.O.O.O.O.O.O.O.O.O.O.O.O.O.O.O.O.O.O.O.O.O.O.O.O.O.O.O.",
"O.O.O.O.O.O.O.O.O.O.O.O.O.O.O.O.O.O.O.O.O.O.+.%.1.1.1.1.1.1.1.$.+.O.O.O.O.O.O.O.O.O.O.O.O.O.O.O.O.O.O.O.O.O.O.O.O.O.O.O.O.O.O.O.",
"O.O.O.O.O.O.O.O.O.O.O.O.O.O.O.O.O.O.O.O.O.O.>.E Z.Z.Z.Z.Z.Z.Z.T -.O.O.O.O.O.O.O.O.O.O.O.O.O.O.O.O.O.O.O.O.O.O.O.O.O.O.O.O.O.O.O.",
"O.O.O.O.O.O.O.O.O.O.O.O.O.@.+.&.&.&.&.&.&.&.R U.!.!.!.!.!.!.!.m.7.&.&.&.&.&.&.&.&.&.&.@.O.O.O.O.O.O.O.O.O.O.O.O.O.O.O.O.O.O.O.O.",
"O.O.O.O.O.O.O.O.O.O.O.O.@.>.R E E E E E E W S.Q.^.^.^.^.^.^.^.K.A.E E E E E E E E E T ,.@.O.O.O.O.O.O.O.O.O.O.O.O.O.O.O.O.O.O.O.",
"O.O.O.O.O.O.O.O.O.O.O.O.+.J U.Q.Q.Q.Q.Q.Q.Q.E.!.^.^.^.^.^.^.^.!.E.Q.Q.Q.Q.Q.Q.Q.Q.Q.Y.T &.O.O.O.O.O.O.O.O.O.O.O.O.O.O.O.O.O.O.O.",
"O.O.O.O.O.O.O.O.O.O.@.-.J A.Q.^.^.^.^.^.^.^.^.^.^.^.^.^.^.^.^.^.^.^.^.^.^.^.^.^.^.^.E.S.R >.+.O.O.O.O.O.O.O.O.O.O.O.O.O.O.O.O.O.",
"O.O.O.O.O.O.O.O.O.O.#.T m.P.!.^.^.^.^.^.^.^.^.^.^.^.^.^.^.^.^.^.^.^.^.^.^.^.^.^.^.^.!.Q.U.E %.O.O.O.O.O.O.O.O.O.O.O.O.O.O.O.O.O.",
"O.O.O.O.O.O.O.O.+.<.6.S.~.^.^.^.^.^.^.^.^.^.^.^.^.^.^.^.^.^.^.^.^.^.^.^.^.^.^.^.^.^.^.^.!.Z.1.O.O.O.O.O.O.O.O.O.O.O.O.O.O.O.O.O.",
"O.O.O.O.O.O.O.O.<.T n.K.!.^.^.^.^.^.^.^.^.^.^.^.^.^.^.^.^.^.^.^.^.^.^.^.^.^.^.^.^.^.^.^.!.Z.1.O.O.O.O.O.O.O.O.O.O.O.O.O.O.O.O.O.",
"O.O.O.O.O.O.O.O.,.S.^.^.^.^.^.^.^.^.^.^.^.^.^.^.^.^.^.^.^.^.^.^.^.^.^.^.^.^.^.^.^.^.^.^.!.S.,.&.@.O.O.O.O.O.O.O.O.O.O.O.O.O.O.O.",
"O.O.O.O.O.O.O.O.,.S.^.^.^.^.^.^.^.^.^.^.^.^.^.^.^.^.^.^.^.^.^.^.^.^.^.^.^.^.^.^.^.^.^.^.^.Y.A.R <.O.O.O.O.O.O.O.O.O.O.O.O.O.O.O.",
"O.O.O.O.O.O.O.@.,.n.^.^.^.^.^.^.^.^.^.^.^.^.^.^.^.^.^.^.^.^.^.^.^.^.^.^.^.^.^.^.^.^.^.^.^.!.~.n.6.+.+.@.@.O.O.O.O.O.O.O.O.O.O.O.",
"O.O.O.O.O.O.<.7.C.U.^.^.^.^.^.^.^.^.^.^.^.^.^.^.^.^.^.^.^.^.^.^.^.^.^.^.^.^.^.^.^.^.^.^.^.^.^.K.V.R R R ,.+.O.O.O.O.O.O.O.O.O.O.",
"O.O.O.O.O.O.6.D.L.~.^.^.^.^.^.^.^.^.^.^.^.^.^.^.^.^.^.^.^.^.^.^.^.^.^.^.^.^.^.^.^.^.^.^.^.^.^.~.Q.K.K.U.E #.O.O.O.O.O.O.O.O.O.O.",
"O.O.O.@.<.5.C.K.^.^.^.^.^./.`.{.{.{.{.{.{.{.)./.^.^.^.^.^.^.^.^.^.^.^.^._.{.{.{.{.{.{.{.{._.!.^.^.^.^.~.D.J -.+.O.O.O.O.O.O.O.O.",
"O.O.O.+.J S.Y.E.^.^.^.^.^.{.OX@X@X@X@X@X@X@X X_.^.^.^.^.^.^.^.^.^.^.^.!.}.+X@X@X@X@X@X@X@X|./.^.^.^.^.^.P.m.W 1.O.O.O.O.O.O.O.O.",
"O.O.O.&.E Q.^.^.^.^.^.^.!.}.@X%X_ ` 2X4X2X2X@X}.W.!.^.^.^.^.^.^.^.^./.`.oX&X' ` ' 2X3X&X#XoX_.^.^.^.^.^.^.^.S.,.O.O.O.O.O.O.O.O.",
"O.O.O.&.E Q.^.^.^.^.^.^.^._.}.B.B ! 3XeX8X2X$X+X X`.^.^.^.^.^.^.^./.}.OX#X&X( ! ~ 4XwX>X X`./.^.^.^.^.^.^.^.S.,.O.O.O.O.O.O.O.O.",
"O.O.+.<.C.Q.^.^.^.^.^.^.^.^.!.l.g 7 4XuXwX3X&X%X@X[.^.^.^.^.^.^.^._.oX$X&X&X~ % 8 7XyX,X'.^.^.^.^.^.^.^.^.^.n.5.+.@.O.O.O.O.O.O.",
"O.&.5.W m.~.^.^.^.^.^.^.^.^.^.l.g 7 4XuXqX;XoXoX|.).^.^.^.^.^.^.^./.}.oXoXoXV 4 8 7XiX,X'.^.^.^.^.^.^.^.^.^.Y.Z.J 1.O.O.O.O.O.O.",
"O.<.C.P.~.^.^.^.^.^.^.^.^.^.^.l.g 7 4XiX0X.X/././.!.^.^.^.^.^.^.^.^././././.y.1 8 7XiX,X'.^.^.^.^.^.^.^.^.^.!.E.n.6.O.O.O.O.O.O.",
"O.<.V.T.!.^.^.^.^.^.^.^.^.^.^.G.b j *X0X:X_.!.^.^.^.^.^.^.^.^.^.^.^.^.^.^.^.x.c V =X0X:X(.^.^.^.^.^.^.^.^.^.!.R.m.J O.O.O.O.O.O.",
"O.<.I G.T.^.^.^.^.^.^.^.^.^.^.T.l.y.M.|.I.G.J.!.^.^.^.^.^.^.^.^.^.^.^.^.^.^.J.g.f.M.].`.!.^.^.^.^.^.^.^.^.^.R.J.s.D O.O.O.O.O.O.",
"O.%.I c.H.R.!.!.!.^.^.^.^.^.^.!.J.G.G.G.G.G.J.!.^.^.^.^.^.^.^.^.^.^.^.^.^.^.R.J.G.G.H.R.^.^.^.^.^.^.^.^.^.!.T.G.a.D O.O.O.O.O.O.",
"O.%.I c.G.H.H.H.J.!.^.^.^.^.^.^.R.R.R.R.R.R.!.^.^.^.^.^.^.^.^.^.^.^.^.^.^.^.!.R.R.R.R.!.^.^.^.^.^.^.^.^.R.J.G.F.a.D O.O.O.O.O.O.",
"O.%.L k.c.x.F.F.G.T.^.^.^.^.^.^.^.^.^.^.^.^.^.^.^.^.^.^.^.^.^.^.^.^.^.^.^.^.^.^.^.^.^.^.^.^.^.^.^.^.^.!.J.F.c.z.i.:.O.O.O.O.O.O.",
"O.+.;.H p.c.F.F.F.H.J.J.J.R.^.^.^.^.^.^.^.^.^.^.^.^.^.^.^.^.^.^.^.^.^.^.^.^.^.^.^.^.^.^.^.^.^.^.^.^.R.J.G.F.s.I D %.O.O.O.O.O.O.",
"O.O.+.%.L k.F.F.F.F.F.F.F.J.!.^.^.^.^.^.^.^.^.^.^.^.^.^.^.^.^.^.^.^.^.^.!.!.!.!.!.^.^.^.^.^.^.^.^.!.J.F.x.c.Y ;.+.@.O.O.O.O.O.O.",
"O.O.O.+.H k.F.F.F.F.F.F.F.G.J.R.!.^.^.^.^.^.^.^.^.^.^.^.^.^.^.^.^.(.`.|.|.|.|.|.}._.^.^.^.^.^.^.^.!.J.c.a.U F %.O.O.O.O.O.O.O.O.",
"O.O.O.+.H k.F.F.F.F.F.F.F.F.G.J.!.^.^.^.^.^.^.^.^.^.^.^.^.^.^.^.^._.;X#X$X$X$X$X+X{.^.^.^.^.^.^.^.!.J.c.I =.#.@.O.O.O.O.O.O.O.O.",
"O.O.O.+.D Y s.c.F.F.c.j.a.j.c.G.T.R.R.R.R.R.!.^.^.^.^.^.^.^.^./.`.|.-X7X7X7X7X7X6X;X{.).R.!.^.^.!.T.H.z.L #.O.O.O.O.O.O.O.O.O.O.",
"O.O.O.@.%.;.L j.F.F.z.U D P k.F.G.H.H.H.H.H.T.!.^.^.^.^.^.^.^.`.oX=XqXrXtXtXtXtXwX6X+XN.H.T.^.!.J.G.F.z.L #.O.O.O.O.O.O.O.O.O.O.",
"O.O.O.O.O.O.D a.c.k.a.F #.F j.F.F.F.F.F.F.F.H.R.!.!.!.!.!.!.!.[.@X3X9XrXrXrXrXrXeX5X&XB.v.H.R.T.G.F.F.z.L #.O.O.O.O.O.O.O.O.O.O.",
"O.O.O.O.O.O.D a.k.U D -.+.F j.F.F.F.F.F.F.F.G.H.J.J.J.J.J.J.J.I.@X' ` ( ( ( ( ( ) ' &XB.v.G.H.H.F.F.F.z.L #.O.O.O.O.O.O.O.O.O.O.",
"O.O.O.O.O.O.D a.a.D +.O.+.F j.F.F.F.F.F.F.F.F.F.F.F.F.F.F.F.F.M.XX_ B % $ $ $ $ 7 ~ $XB.v.F.F.F.F.F.F.z.L #.O.O.O.O.O.O.O.O.O.O.",
"O.O.O.O.O.O.D a.a.D O.O.@.F j.F.F.F.F.F.F.F.F.F.F.F.F.F.F.F.F.b.B.XX/ ^ ^ ^ ^ ^ / XXB.b.x.F.F.F.F.F.F.z.L #.O.O.O.O.O.O.O.O.O.O.",
"O.O.O.O.O.O.D a.a.D O.O.+.F j.x.x.x.x.x.x.x.x.x.x.x.F.F.F.F.F.x.v.M.=X7X8X8X8X8X6XOXv.v.x.x.x.F.F.F.F.z.L #.O.O.O.O.O.O.O.O.O.O.",
"O.O.O.O.O.O.D a.a.D +.-.D U k.k.a.Y Y Y Y Y Y Y p.k.x.F.F.F.F.F.x.v.oX-X1X<X9.9.8.Q Y Y i.a.c.F.F.F.F.z.L #.O.O.O.O.O.O.O.O.O.O.",
"O.O.O.O.O.O.D a.a.D #.S p.k.c.a.G =.=.=.=.=.=.=.F p.x.F.F.F.F.F.F.x.b.N.Q 4.3.3.3.2.=.=.*.L k.F.F.F.F.z.L #.O.O.O.O.O.O.O.O.O.O.",
"O.O.O.O.O.O.D a.a.D #.L z.k.s.P =.O.O.O.O.O.o.} s M t.g.x.F.F.F.F.x.d.w.C [ { { { { { { ] Z h.F.F.F.F.z.L #.O.O.O.O.O.O.O.O.O.O.",
"O.O.O.O.O.O.D a.a.D #.L k.p.G *.#.O.O.O.O.O.{ q ; < h 0.l.F.F.F.F.g.b g < - 9 9 9 9 9 9 - z f.F.F.F.F.z.L #.O.O.O.O.O.O.O.O.O.O.",
"O.O.O.O.O.O.D a.a.D #.L k.U | X.X.X.X.X.X.X.u &     + l d.l.x.F.F.d.h X                   h d.F.F.x.l.f.A  .X.X.X.O.O.O.O.O.O.O.",
"O.O.O.O.O.O.D a.a.D #.L k.N e q q q q q q q - o     X , k 0.l.F.F.d.h                     h d.F.F.g.0.k 5 w q q t } O.O.O.O.O.O.",
"O.O.O.O.O.O.D a.a.D $.K f.b > . . . . . . . .           + k d.F.F.d.h                     g t.x.x.d.k + X . . . = i o.O.O.O.O.O.",
"O.O.O.O.O.O.D a.e.C y M z.r.l 3 +                         h d.F.F.d.h                     , c q.g.d.h           O 0 i } O.O.O.O.",
"O.O.O.O.O.O.D a.r.g # v l.l.d.b ,                         h d.F.F.d.h                     X @ g r.d.h             o * u o.O.O.O.",
"O.O.O.O.O.O.*.P M 6 ; x i.j.c.w.6 = = = = = & .           h d.l.t.b 3                         1 q.d.h               o r o.O.O.O.",
"O.O.O.O.O.O.#.=.*.| ] | :.P k.u.d ] ] ] ] ] q O           h d.t.l , +                         1 q.d.h               o r o.O.O.O.",
"O.O.O.O.O.O.O.O.O.O.O.O.@.F j.p.;.O.O.O.O.O.i *           h d.r.h @ X                         1 q.d.h               o r o.O.O.O.",
"O.O.O.O.O.O.O.O.O.O.O.O.@.F j.p.;.O.O.O.O.O.i *           h d.g.q.c ,                         1 q.d.h               o r o.O.O.O.",
"O.O.O.O.O.O.O.O.O.O.O.O.@.F j.p.;.O.O.O.O.o.u &           g r.l.l.t.g                       X 3 0.r.g               o r o.O.O.O.",
"O.O.O.O.O.O.O.O.O.O.O.O.@.F j.p.;.O.O.O.{ t 9 o           , k n d.d.h                     , h l c k ,               o r o.O.O.O.",
"O.O.O.O.O.O.O.O.O.O.O.O.@.F j.p.;.O.O.o.t & .             X + g q.d.h                     g r.0.3 + X               o r o.O.O.O.",
"O.O.O.O.O.O.O.O.O.O.O.O.@.F j.p.;.o.} u 9 .                   1 q.d.h                   X h d.q.1                   o r o.O.O.O.",
"O.O.O.O.O.O.O.O.O.O.O.O.@.F j.p.;...r * o                     1 q.d.h                     h d.q.1                   o r o.O.O.O.",
"O.O.O.O.O.O.O.O.O.O.@.#.=.A e.m f i -                         1 q.d.h X                   2 N m 5 * * * * * * * * * - i o.O.O.O.",
"O.O.O.O.O.O.O.O.O.O.+.D U m g < : = O                         1 q.d.h                     : d s p i i i i i i i i i ] ..O.O.O.O.",
"O.O.O.O.O.O.O.O.O.O.#.H s.v # o o o o o o o o o o o o o o o o 2 q.d.g o o o o o o o o o O q ..O.O.O.O.O.O.O.O.O.O.O.O.O.O.O.O.O.",
"O.O.O.O.O.O.O.O.O.O.+.*.G d y r r r r r r r r r r r r r r r r a e.h.x y r r r r r r r r t ] o.O.O.O.O.O.O.O.O.O.O.O.O.O.O.O.O.O.",
"O.O.O.O.O.O.O.O.O.O.O.@.+.+.o.o.o.o.o.o.o.o.o.o.o.o.o.o.o.X.X.f p.s.S X.o.o.o.o.o.o.o.o.o.o.O.O.O.O.O.O.O.O.O.O.O.O.O.O.O.O.O.O.",
"O.O.O.O.O.O.O.O.O.O.O.O.O.O.O.O.O.O.O.O.O.O.O.O.O.O.O.O.O. .D H K L =.@.O.O.O.O.O.O.O.O.O.O.O.O.O.O.O.O.O.O.O.O.O.O.O.O.O.O.O.O.",
"O.O.O.O.O.O.O.O.O.O.O.O.O.O.O.O.O.O.O.O.O.O.O.O.O.O.O.O.@.D p.Y D %.+.O.O.O.O.O.O.O.O.O.O.O.O.O.O.O.O.O.O.O.O.O.O.O.O.O.O.O.O.O.",
"O.O.O.O.O.O.O.O.O.O.O.O.O.O.O.O.O.O.O.O.O.O.O.O.O.O.O.O.@.F j.p.;.O.O.O.O.O.O.O.O.O.O.O.O.O.O.O.O.O.O.O.O.O.O.O.O.O.O.O.O.O.O.O."
};
