/* XPM */
static char *_[] = {
/* columns rows colors chars-per-pixel */
"64 64 217 2 ",
"   c #000100",
".  c #0C0100",
"X  c #000A00",
"o  c #130000",
"O  c #1B0000",
"+  c #001300",
"@  c #001900",
"#  c #171900",
"$  c #250000",
"%  c #2A0000",
"&  c #350000",
"*  c #3C0300",
"=  c #350F00",
"-  c #311600",
";  c #092605",
":  c #002C00",
">  c #172A00",
",  c #003600",
"<  c #0E3600",
"1  c #003B00",
"2  c #18300F",
"3  c #2A2D00",
"4  c #2E3300",
"5  c #292929",
"6  c #383938",
"7  c #420000",
"8  c #4A0000",
"9  c #590000",
"0  c #500900",
"q  c #4B1E00",
"w  c #650000",
"e  c #6D0000",
"r  c #650D00",
"t  c #740000",
"y  c #7C0000",
"u  c #711400",
"i  c #493600",
"p  c #792800",
"a  c #653600",
"s  c #743200",
"d  c #054700",
"f  c #004D00",
"g  c #174F0D",
"h  c #015600",
"j  c #005D00",
"k  c #274E00",
"l  c #394C00",
"z  c #036400",
"x  c #146600",
"c  c #017500",
"v  c #007F00",
"b  c #296A00",
"n  c #356700",
"m  c #247800",
"M  c #345E34",
"N  c #287128",
"B  c #484900",
"V  c #584E00",
"C  c #545900",
"Z  c #6E4D00",
"A  c #7C4200",
"S  c #714D00",
"D  c #6A5300",
"F  c #645A00",
"G  c #7C5800",
"H  c #566600",
"J  c #5A6500",
"K  c #536C00",
"L  c #4C7300",
"P  c #487500",
"I  c #427D00",
"U  c #6D6B00",
"Y  c #746300",
"T  c #657700",
"R  c #657800",
"E  c #6E7C2B",
"W  c #4D504D",
"Q  c #696E69",
"!  c #747474",
"~  c #8A0200",
"^  c #850800",
"/  c #950000",
"(  c #9B0000",
")  c #8B1A00",
"_  c #9D1800",
"`  c #A30000",
"'  c #AB0100",
"]  c #B20100",
"[  c #BF0000",
"{  c #B40B00",
"}  c #B80800",
"|  c #AB1300",
" . c #A61900",
".. c #A41C00",
"X. c #B11200",
"o. c #8E2E00",
"O. c #942B00",
"+. c #9C2900",
"@. c #8A3500",
"#. c #873B00",
"$. c #973400",
"%. c #943900",
"&. c #A32300",
"*. c #A12800",
"=. c #A32A0E",
"-. c #BC2A27",
";. c #B0392A",
":. c #8B4400",
">. c #864B00",
",. c #825100",
"<. c #A47E62",
"1. c #C07E7E",
"2. c #008300",
"3. c #008A00",
"4. c #0D8C00",
"5. c #1A8800",
"6. c #019300",
"7. c #009A00",
"8. c #089F08",
"9. c #189600",
"0. c #268A00",
"q. c #388400",
"w. c #358A00",
"e. c #2A9500",
"r. c #239B00",
"t. c #00A200",
"y. c #0BA602",
"u. c #00AC00",
"i. c #14A200",
"p. c #1DA300",
"a. c #13AC00",
"s. c #01B400",
"d. c #0CB300",
"f. c #02BD00",
"g. c #08B800",
"h. c #0ABB0A",
"j. c #19B319",
"k. c #3DAD00",
"l. c #35B800",
"z. c #25B825",
"x. c #32B528",
"c. c #39A339",
"v. c #4F8E00",
"b. c #5A8600",
"n. c #4D9700",
"m. c #4A9B00",
"M. c #43A500",
"N. c #41A900",
"B. c #00C100",
"V. c #00CC00",
"C. c #00D300",
"Z. c #00DB00",
"A. c #1ED600",
"S. c #17DF00",
"D. c #19DC00",
"F. c #18C518",
"G. c #29C800",
"H. c #23D000",
"J. c #01E300",
"K. c #00EB00",
"L. c #0DED00",
"P. c #0FEF0F",
"I. c #13E500",
"U. c #02F400",
"Y. c #0AF100",
"T. c #00FF00",
"R. c #0BF30B",
"E. c #0BFD0B",
"W. c #16E716",
"Q. c #12EC12",
"!. c #1BE31B",
"~. c #13FD13",
"^. c #2FCC2F",
"/. c #24D424",
"(. c #24DB24",
"). c #2AD42A",
"_. c #34CB34",
"`. c #3CC73C",
"'. c #25F225",
"]. c #599759",
"[. c #43BC43",
"{. c #4DB54C",
"}. c #56AA56",
"|. c #5BA45B",
" X c #679967",
".X c #6D936D",
"XX c #768676",
"oX c #728D72",
"OX c #748A74",
"+X c #68AA68",
"@X c #70AC70",
"#X c #78B976",
"$X c #4AC04A",
"%X c #54C554",
"&X c #53EF53",
"*X c #7AC67A",
"=X c #77FD77",
"-X c #B9847E",
";X c #9CA17E",
":X c #878787",
">X c #8A958A",
",X c #959595",
"<X c #90AF90",
"1X c #A5A5A5",
"2X c #A9ABA9",
"3X c #9EC29C",
"4X c #92EC92",
"5X c #ACCFAC",
"6X c #BDC9BD",
"7X c #C5C4C4",
"8X c #C9CBC9",
"9X c #DADBDA",
"0X c #E2E2E2",
"qX c #E7E8E7",
"wX c #E4F7E4",
"eX c #F5F6F5",
"rX c #FDFDFD",
/* pixels */
"[ [ [ [ [ [ [ [ [ [ [ [ [ [ [ [ [ [ [ [ [ [ [ [ [ [ [ [ [ [ [ [ [ [ [ [ [ [ [ [ [ [ [ [ [ [ [ [ [ [ [ [ [ [ [ [ [ [ [ [ [ [ [ [ ",
"[ [ [ [ [ [ [ [ [ [ [ [ [ [ [ [ [ [ [ [ [ [ { ..*.*.*.*.*.*.*. .{ [ [ [ [ [ [ [ [ [ [ [ [ [ [ [ [ [ [ [ [ [ [ [ [ [ [ [ [ [ [ [ ",
"[ [ [ [ [ [ [ [ [ [ [ [ [ [ [ [ [ [ [ [ [ [ $.T n.n.n.n.n.n.n.U +.[ [ [ [ [ [ [ [ [ [ [ [ [ [ [ [ [ [ [ [ [ [ [ [ [ [ [ [ [ [ [ ",
"[ [ [ [ [ [ [ [ [ [ [ [ [ } { X.X.X.X.X.X.X.Y G.U.U.U.U.U.U.U.l.,.X.X.X.X.X.X.X.X.X.X.} [ [ [ [ [ [ [ [ [ [ [ [ [ [ [ [ [ [ [ [ ",
"[ [ [ [ [ [ [ [ [ [ [ [ } $.Y T T T T T T R M.I.T.T.T.T.T.T.T.A.m.T T T T T T T T T U %.} [ [ [ [ [ [ [ [ [ [ [ [ [ [ [ [ [ [ [ ",
"[ [ [ [ [ [ [ [ [ [ [ [ { G G.I.I.I.I.I.I.I.L.U.T.T.T.T.T.T.T.U.L.I.I.I.I.I.I.I.I.I.H.U X.[ [ [ [ [ [ [ [ [ [ [ [ [ [ [ [ [ [ [ ",
"[ [ [ [ [ [ [ [ [ [ } +.G m.I.T.T.T.T.T.T.T.T.T.T.T.T.T.T.T.T.T.T.T.T.T.T.T.T.T.T.T.L.M.Y $.{ [ [ [ [ [ [ [ [ [ [ [ [ [ [ [ [ [ ",
"[ [ [ [ [ [ [ [ [ [ | U l.D.U.T.T.T.T.T.T.T.T.T.T.T.T.T.T.T.T.T.T.T.T.T.T.T.T.T.T.T.U.I.G.T ..[ [ [ [ [ [ [ [ [ [ [ [ [ [ [ [ [ ",
"[ [ [ [ [ [ [ [ { &.>.M.Y.T.T.T.T.T.T.T.T.T.T.T.T.T.T.T.T.T.T.T.T.T.T.T.T.T.T.T.T.T.T.T.U.n.*.[ [ [ [ [ [ [ [ [ [ [ [ [ [ [ [ [ ",
"[ [ [ [ [ [ [ [ &.U k.A.U.T.T.T.T.T.T.T.T.T.T.T.T.T.T.T.T.T.T.T.T.T.T.T.T.T.T.T.T.T.T.T.U.n.*.[ [ [ [ [ [ [ [ [ [ [ [ [ [ [ [ [ ",
"[ [ [ [ [ [ [ [ %.M.T.T.T.T.T.T.T.T.T.T.T.T.T.T.T.T.T.T.T.T.T.T.T.T.T.T.T.T.T.T.T.T.T.T.U.M.%.X.} [ [ [ [ [ [ [ [ [ [ [ [ [ [ [ ",
"[ [ [ [ [ [ [ [ %.M.T.T.T.T.T.T.T.T.T.T.T.T.T.T.T.T.T.T.T.T.T.T.T.T.T.T.T.T.T.T.T.T.T.T.T.H.m.Y &.[ [ [ [ [ [ [ [ [ [ [ [ [ [ [ ",
"[ [ [ [ [ [ [ } %.k.T.T.T.T.T.T.T.T.T.T.T.T.T.T.T.T.T.T.T.T.T.T.T.T.T.T.T.T.T.T.T.T.T.T.T.U.Y.k.>.{ { } } [ [ [ [ [ [ [ [ [ [ [ ",
"[ [ [ [ [ [ &.,.b.G.T.T.T.T.T.T.T.T.T.T.T.T.T.T.T.T.T.T.T.T.T.T.T.T.T.T.T.T.T.T.T.T.T.T.T.T.T.A.v.Y Y Y %.{ [ [ [ [ [ [ [ [ [ [ ",
"[ [ [ [ [ [ >.N.S.Y.T.T.T.T.T.T.T.T.T.T.T.T.T.T.T.T.T.T.T.T.T.T.T.T.T.T.T.T.T.T.T.T.T.T.T.T.T.Y.I.A.A.G.T | [ [ [ [ [ [ [ [ [ [ ",
"[ [ [ } &.:.b.A.T.T.T.T.T.R.!.(.(.(.(.(.(.(.W.R.T.T.T.T.T.T.T.T.T.T.T.T.Q.(.(.(.(.(.(.(.(.Q.U.T.T.T.T.Y.N.G +.{ [ [ [ [ [ [ [ [ ",
"[ [ [ { G M.H.L.T.T.T.T.T.(.{.|.|.|.|.|.|.|.`.Q.T.T.T.T.T.T.T.T.T.T.T.U.).}.|.|.|.|.|.|.|._.R.T.T.T.T.T.D.l.R *.[ [ [ [ [ [ [ [ ",
"[ [ [ X.T I.T.T.T.T.T.T.U.).|.oXQ ! :X,X:X:X|.).P.U.T.T.T.T.T.T.T.T.R.!.[.OX! ! ! :X>XOX X[.Q.T.T.T.T.T.T.T.M.%.[ [ [ [ [ [ [ [ ",
"[ [ [ X.T I.T.T.T.T.T.T.T.Q.).c.M W >X7X2X:X.X}.`.!.T.T.T.T.T.T.T.R.).{. XXXQ W W ,X6X*X`.!.R.T.T.T.T.T.T.T.M.%.[ [ [ [ [ [ [ [ ",
"[ [ { &.b.I.T.T.T.T.T.T.T.T.U.s.d 5 ,XqX6X>XOXOX|.(.T.T.T.T.T.T.T.Q.[..XOXOXW 5 6 1XwX=X~.T.T.T.T.T.T.T.T.T.k.:.{ } [ [ [ [ [ [ ",
"[ X.:.R l.Y.T.T.T.T.T.T.T.T.T.s.f 5 ,XqX5X%X[.[._.W.T.T.T.T.T.T.T.R.).[.[.[.N 2 6 1XwX=X~.T.T.T.T.T.T.T.T.T.H.n.G *.[ [ [ [ [ [ ",
"[ &.b.D.Y.T.T.T.T.T.T.T.T.T.T.s.d 5 ,XwX4X'.R.R.R.U.T.T.T.T.T.T.T.T.R.R.R.R.8., 6 1XwX=X~.T.T.T.T.T.T.T.T.T.U.L.k.>.[ [ [ [ [ [ ",
"[ &.v.J.U.T.T.T.T.T.T.T.T.T.T.V.c g +X4X&XQ.U.T.T.T.T.T.T.T.T.T.T.T.T.T.T.T.f.z N @X4X&XE.T.T.T.T.T.T.T.T.T.U.K.l.G [ [ [ [ [ [ ",
"[ &.L V.J.T.T.T.T.T.T.T.T.T.T.J.s.8.z._.F.V.Z.U.T.T.T.T.T.T.T.T.T.T.T.T.T.T.Z.u.y.z.^.!.T.T.T.T.T.T.T.T.T.T.K.Z.r.A [ [ [ [ [ [ ",
"[ ..L g.C.K.U.U.U.T.T.T.T.T.T.U.Z.V.V.V.V.V.Z.U.T.T.T.T.T.T.T.T.T.T.T.T.T.T.K.Z.V.V.C.K.T.T.T.T.T.T.T.T.T.U.J.V.e.A [ [ [ [ [ [ ",
"[ ..L g.V.C.C.C.Z.U.T.T.T.T.T.T.K.K.K.K.K.K.U.T.T.T.T.T.T.T.T.T.T.T.T.T.T.T.U.K.K.K.K.U.T.T.T.T.T.T.T.T.K.Z.V.B.e.A [ [ [ [ [ [ ",
"[ ..J a.g.f.B.B.V.J.T.T.T.T.T.T.T.T.T.T.T.T.T.T.T.T.T.T.T.T.T.T.T.T.T.T.T.T.T.T.T.T.T.T.T.T.T.T.T.T.T.U.Z.B.g.d.q.#.[ [ [ [ [ [ ",
"[ { @.F w.g.B.B.B.C.Z.Z.Z.K.T.T.T.T.T.T.T.T.T.T.T.T.T.T.T.T.T.T.T.T.T.T.T.T.T.T.T.T.T.T.T.T.T.T.T.T.K.Z.V.B.r.L A ..[ [ [ [ [ [ ",
"[ [ { ..J a.B.B.B.B.B.B.B.Z.U.T.T.T.T.T.T.T.T.T.T.T.T.T.T.T.T.T.T.T.T.T.U.U.U.U.U.T.T.T.T.T.T.T.T.U.Z.B.f.g.I @.{ } [ [ [ [ [ [ ",
"[ [ [ { F a.B.B.B.B.B.f.B.V.Z.K.U.T.T.T.T.T.T.T.T.T.T.T.T.T.T.T.T.E.!._._._._._.).Q.T.T.T.T.T.T.T.U.Z.g.e.P S ..[ [ [ [ [ [ [ [ ",
"[ [ [ { F a.B.B.B.B.B.B.B.B.V.Z.U.T.T.T.T.T.T.T.T.T.T.T.T.T.T.T.T.Q.$X X.X.X.X.X}.(.T.T.T.T.T.T.T.U.Z.g.P O.| } [ [ [ [ [ [ [ [ ",
"[ [ [ { A I r.g.B.B.g.p.e.p.g.V.J.K.K.K.K.K.U.T.T.T.T.T.T.T.T.R.!._.#X1X1X1X1X1X<X%X(.W.K.U.T.T.U.J.C.d.J | [ [ [ [ [ [ [ [ [ [ ",
"[ [ [ } ..@.J p.B.B.d.P A K a.B.V.C.C.C.C.C.J.U.T.T.T.T.T.T.T.!.[.@X5X9X9X9X9X9X6X<X}.z.C.J.T.U.Z.V.B.d.J | [ [ [ [ [ [ [ [ [ [ ",
"[ [ [ [ [ [ A e.g.a.e.S | S p.B.B.B.B.B.B.B.C.K.U.U.U.U.U.U.U./.|.,X8XrXrXrXrXrX0X2XOXc.h.C.K.J.V.B.B.d.J | [ [ [ [ [ [ [ [ [ [ ",
"[ [ [ [ [ [ A e.a.P A +.{ S p.B.B.B.B.B.B.B.V.C.Z.Z.Z.Z.Z.Z.Z.F.].,X8XrXrXrXrXrX0X2XOXc.h.V.C.C.B.B.B.d.J | [ [ [ [ [ [ [ [ [ [ ",
"[ [ [ [ [ [ A e.e.A { [ { S p.B.B.B.B.B.B.B.B.B.B.B.B.B.B.B.B.z.].>X7XeXrXrXrXrX0X2XoXc.h.B.B.B.B.B.B.d.J | [ [ [ [ [ [ [ [ [ [ ",
"[ [ [ [ [ [ A e.e.A [ [ } S p.B.B.B.B.B.B.B.B.B.B.B.B.V.Z.C.B.j.c.|.3X9X0X0X0X0X6X#Xc.j.f.B.B.B.B.B.B.d.J | [ [ [ [ [ [ [ [ [ [ ",
"[ [ [ [ [ [ A e.e.A [ [ { S p.f.f.f.f.f.f.f.f.f.f.f.B.Z.U.J.V.f.h.z.*X6X7X7X7X7X3X{.h.h.f.f.f.B.B.B.B.d.J | [ [ [ [ [ [ [ [ [ [ ",
"[ [ [ [ [ [ A e.e.A { +.A P a.a.e.I I I I I I I w.a.B.C.J.Z.B.B.f.F.$X#X;X-X1.1.<.E I I q.e.g.B.B.B.B.d.J | [ [ [ [ [ [ [ [ [ [ ",
"[ [ [ [ [ [ A e.e.A | Z w.a.g.e.D O.O.O.O.O.O.O.S w.B.B.V.V.B.B.B.B.F.x.E ;.-.-.-.=.O.O.o.J a.B.B.B.B.d.J | [ [ [ [ [ [ [ [ [ [ ",
"[ [ [ [ [ [ A e.e.A | J d.a.r.K O.[ [ [ [ [ ] ( p n 7.u.f.B.B.B.B.f.t.4.B ^ / / / / / / ~ V i.B.B.B.B.d.J | [ [ [ [ [ [ [ [ [ [ ",
"[ [ [ [ [ [ A e.e.A | J a.w.D o.| [ [ [ [ [ / 9 = > f 2.s.B.B.B.B.u.c d > * 7 7 7 7 7 7 * k y.B.B.B.B.d.J | [ [ [ [ [ [ [ [ [ [ ",
"[ [ [ [ [ [ A e.e.A | J a.P ) ' ' ' ' ' ' ' t $     + j t.s.f.B.B.t.f X                   f t.B.B.f.s.y.C _ ' ' ' [ [ [ [ [ [ [ ",
"[ [ [ [ [ [ A e.e.A | J a.m q 9 9 9 9 9 9 9 * o     X : h 2.s.B.B.t.f                     f t.B.B.u.2.h 3 0 9 9 e ( [ [ [ [ [ [ ",
"[ [ [ [ [ [ A e.e.A  .H y.c ; . . . . . . . .           + h t.B.B.t.f                     f 7.f.f.t.h + X . . . & y ] [ [ [ [ [ ",
"[ [ [ [ [ [ A e.9.B r n d.6.j 1 +                         f t.B.B.t.f                     : z 3.u.t.f           O 8 y ( [ [ [ [ ",
"[ [ [ [ [ [ A e.6.d # x s.s.t.c :                         f t.B.B.t.f                     X @ f 6.t.f             o % t ] [ [ [ ",
"[ [ [ [ [ [ o.K n 4 = l q.p.g.4.4 & & & & & $ .           f t.s.7.c 1                         , 3.t.f               o w ] [ [ [ ",
"[ [ [ [ [ [ | O.o.) ~ ) #.K a.0.a ~ ~ ~ ~ ~ 9 O           f t.7.j : +                         , 3.t.f               o w ] [ [ [ ",
"[ [ [ [ [ [ [ [ [ [ [ [ } S p.w.@.[ [ [ [ [ y %           f t.6.f @ X                         , 3.t.f               o w ] [ [ [ ",
"[ [ [ [ [ [ [ [ [ [ [ [ } S p.w.@.[ [ [ [ [ y %           f t.u.3.z :                         , 3.t.f               o w ] [ [ [ ",
"[ [ [ [ [ [ [ [ [ [ [ [ } S p.w.@.[ [ [ [ ] t $           f 6.s.s.7.f                       X 1 2.6.f               o w ] [ [ [ ",
"[ [ [ [ [ [ [ [ [ [ [ [ } S p.w.@.[ [ [ / e 7 o           : h v t.t.f                     : f j z h :               o w ] [ [ [ ",
"[ [ [ [ [ [ [ [ [ [ [ [ } S p.w.@.[ [ ] e $ .             X + d 3.t.f                     d 6.2.1 + X               o w ] [ [ [ ",
"[ [ [ [ [ [ [ [ [ [ [ [ } S p.w.@.] ( t 7 .                   , 3.t.f                   X f t.3.,                   o w ] [ [ [ ",
"[ [ [ [ [ [ [ [ [ [ [ [ } S p.w.@.` w % o                     , 3.t.f                     f t.3.,                   o w ] [ [ [ ",
"[ [ [ [ [ [ [ [ [ [ } | O.C 5.b s y *                         , 3.t.f X                   < m b 3 % % % % % % % % % * y ] [ [ [ ",
"[ [ [ [ [ [ [ [ [ [ { A P b d > - & O                         , 3.t.f                     - a p u y y y y y y y y y ~ ` [ [ [ [ ",
"[ [ [ [ [ [ [ [ [ [ | F r.x # o o o o o o o o o o o o o o o o < 3.t.d o o o o o o o o o O 9 ` [ [ [ [ [ [ [ [ [ [ [ [ [ [ [ [ [ ",
"[ [ [ [ [ [ [ [ [ [ { o.D a r w w w w w w w w w w w w w w w w i 5.i.l r w w w w w w w w e ~ ] [ [ [ [ [ [ [ [ [ [ [ [ [ [ [ [ [ ",
"[ [ [ [ [ [ [ [ [ [ [ } { { ] ] ] ] ] ] ] ] ] ] ] ] ] ] ] ' ' s w.r.Z ' ] ] ] ] ] ] ] ] ] ] [ [ [ [ [ [ [ [ [ [ [ [ [ [ [ [ [ [ ",
"[ [ [ [ [ [ [ [ [ [ [ [ [ [ [ [ [ [ [ [ [ [ [ [ [ [ [ [ [ _ A F H J O.} [ [ [ [ [ [ [ [ [ [ [ [ [ [ [ [ [ [ [ [ [ [ [ [ [ [ [ [ ",
"[ [ [ [ [ [ [ [ [ [ [ [ [ [ [ [ [ [ [ [ [ [ [ [ [ [ [ [ } A w.I A ..{ [ [ [ [ [ [ [ [ [ [ [ [ [ [ [ [ [ [ [ [ [ [ [ [ [ [ [ [ [ ",
"[ [ [ [ [ [ [ [ [ [ [ [ [ [ [ [ [ [ [ [ [ [ [ [ [ [ [ [ } S p.w.@.[ [ [ [ [ [ [ [ [ [ [ [ [ [ [ [ [ [ [ [ [ [ [ [ [ [ [ [ [ [ [ "
};
