/* XPM */
static char *monster_left3[] = {
/* columns rows colors chars-per-pixel */
"64 64 221 2 ",
"   c #000000",
".  c #0A0000",
"X  c #000B00",
"o  c #130000",
"O  c #1C0700",
"+  c #001400",
"@  c #001D00",
"#  c #101F00",
"$  c #260500",
"%  c #2A0000",
"&  c #360000",
"*  c #3B0200",
"=  c #3A0800",
"-  c #261800",
";  c #371300",
":  c #3C1817",
">  c #002400",
",  c #002B00",
"<  c #1E2300",
"1  c #003600",
"2  c #003C00",
"3  c #133000",
"4  c #332A00",
"5  c #263600",
"6  c #302A29",
"7  c #420000",
"8  c #4E0000",
"9  c #5E0400",
"0  c #581A0A",
"q  c #650000",
"w  c #6C0000",
"e  c #7D0000",
"r  c #671C00",
"t  c #761300",
"y  c #4E2E00",
"u  c #642D00",
"i  c #792800",
"p  c #7F3F00",
"a  c #014400",
"s  c #004E00",
"d  c #0D4D00",
"f  c #154904",
"g  c #035300",
"h  c #005A00",
"j  c #2A4900",
"k  c #344C00",
"l  c #275A00",
"z  c #006400",
"x  c #006C00",
"c  c #166600",
"v  c #007500",
"b  c #087200",
"n  c #007E00",
"m  c #117200",
"M  c #157D00",
"N  c #326C00",
"B  c #337A00",
"V  c #246624",
"C  c #454F00",
"Z  c #4F5A00",
"A  c #595700",
"S  c #664900",
"D  c #7B4200",
"F  c #734B00",
"G  c #7C4A00",
"H  c #6B5400",
"J  c #645A00",
"K  c #7E5600",
"L  c #7C5900",
"P  c #456A00",
"I  c #5A6600",
"U  c #556A00",
"Y  c #4C7300",
"T  c #437D00",
"R  c #597300",
"E  c #6E6C00",
"W  c #736400",
"Q  c #657700",
"!  c #6B7000",
"~  c #637A00",
"^  c #717931",
"/  c #4B4C4B",
"(  c #8A0000",
")  c #870A00",
"_  c #940000",
"`  c #990000",
"'  c #831209",
"]  c #9B1704",
"[  c #AC0000",
"{  c #A90800",
"}  c #B20000",
"|  c #BF0000",
" . c #B30D00",
".. c #B80800",
"X. c #A71700",
"o. c #AC1300",
"O. c #A31D00",
"+. c #AC1900",
"@. c #B11200",
"#. c #8F2F00",
"$. c #952300",
"%. c #9B2300",
"&. c #942A00",
"*. c #9C2E00",
"=. c #8A3500",
"-. c #843B00",
";. c #8B3B00",
":. c #983300",
">. c #953800",
",. c #A52406",
"<. c #A12800",
"1. c #8A4600",
"2. c #834F00",
"3. c #894800",
"4. c #845105",
"5. c #8D573D",
"6. c #985555",
"7. c #8E7272",
"8. c #008500",
"9. c #008A00",
"0. c #0C8C00",
"q. c #009100",
"w. c #0E9700",
"e. c #019B01",
"r. c #139100",
"t. c #278C00",
"y. c #368700",
"u. c #3B8400",
"i. c #368A00",
"p. c #209600",
"a. c #2C9300",
"s. c #259A00",
"d. c #319500",
"f. c #00A200",
"g. c #0BA104",
"h. c #00AC00",
"j. c #0DAC00",
"k. c #1BA400",
"l. c #13AB00",
"z. c #01B300",
"x. c #0BB400",
"c. c #02BC00",
"v. c #1BB30D",
"b. c #3CAE00",
"n. c #23BF00",
"m. c #2FBF00",
"M. c #36B600",
"N. c #3AB200",
"B. c #33BA01",
"V. c #23B923",
"C. c #5A8500",
"Z. c #558E02",
"A. c #4C9900",
"S. c #519200",
"D. c #41A500",
"F. c #49A71F",
"G. c #00C000",
"H. c #00CC00",
"J. c #0DCA00",
"K. c #17C60B",
"L. c #00D300",
"P. c #00DA00",
"I. c #1FD500",
"U. c #1ADB00",
"Y. c #1EDD1E",
"T. c #2AC600",
"R. c #26CC00",
"E. c #22D200",
"W. c #2CCA13",
"Q. c #00E300",
"!. c #00EB00",
"~. c #0DED00",
"^. c #0CE808",
"/. c #13E400",
"(. c #01F500",
"). c #09F301",
"_. c #00FF00",
"`. c #0CF30C",
"'. c #17E717",
"]. c #13EB13",
"[. c #1CE41C",
"{. c #23DB23",
"}. c #2BD32B",
"|. c #29DB29",
" X c #34CB34",
".X c #3BC339",
"XX c #4E904E",
"oX c #41AD41",
"OX c #49B649",
"+X c #57A752",
"@X c #5BA55B",
"#X c #54B654",
"$X c #629D62",
"%X c #798E73",
"&X c #6AAC6A",
"*X c #60B760",
"=X c #68B568",
"-X c #78B278",
";X c #48C848",
":X c #7BC87B",
">X c #848B84",
",X c #908D89",
"<X c #8B9A8B",
"1X c #949494",
"2X c #9A9D9A",
"3X c #88BE88",
"4X c #A3A19A",
"5X c #A8A9A8",
"6X c #B6BBB6",
"7X c #BCBDBB",
"8X c #9CC39C",
"9X c #90D290",
"0X c #9DE19D",
"qX c #B7C8B7",
"wX c #C6CAC6",
"eX c #CBCBCB",
"rX c #D0D1CE",
"tX c #D3D4D3",
"yX c #E9E9E8",
"uX c #EEF0EE",
"iX c #F3F3F3",
/* pixels */
"| | | | | | | | | | | | | | | | | | | | | | | | | | | | | | | | | | | | | | | | | | | | | | | | | | | | | | | | | | | | | | | | ",
"| | | | | | | | | | | | | | | | | | | | | | | | | | | | | | | | | | | | | | | | | | | | | | | | | | | | | | | | | | | | | | | | ",
"| | | | | | | | | | | | | | | | | | | | | | | | | | | | | | | | | | | | | | | | | | | | | | | | | | | | | | | | | | | | | | | | ",
"| | | | | | | | | | | | | | | | | | | | | | | | | | | | | .. .@.@.@.@.@.@.@...| | | | | | | | | | | | | | | | | | | | | | | | | ",
"| | | | | | | | | | | | | | | | | | | | | | | | | | | | ..:.W Q Q Q Q Q Q Q 2.+.| | | | | | | | | | | | | | | | | | | | | | | | ",
"| | | | | | | | | | | | | | | | | | | | | | | | | | | | ..L T./././././././.A.:.| | | | | | | | | | | | | | | | | | | | | | | | ",
"| | | | | | | | | | | | | | | | |  .:.K L L L L L L L L L A./._._._._._._._.T.~ L L L L L L L ;.+.| | | | | | | | | | | | | | | ",
"| | | | | | | | | | | | | | | | | O.Q m.T.T.T.T.T.T.T.T.R.U.)._._._._._._._.~.E.T.T.T.T.T.T.T.Z.>.| | | | | | | | | | | | | | | ",
"| | | | | | | | | | | | | | |  .<.K b.)._._._._._._._._._._._._._._._._._._._._._._._._._._._.T.! *.+.| | | | | | | | | | | | | ",
"| | | | | | | | | | | | | | | *.Q M.U._._._._._._._._._._._._._._._._._._._._._._._._._._._._./.T.Z.1...| | | | | | | | | | | | ",
"| | | | | | | | | | | | | | | 3.M._._._._._._._._._._._._._._._._._._._._._._._._._._._._._._._._.U.Q ,. .| | | | | | | | | | | ",
"| | | | | | | | | | | | | | | 3.M._._._._._._._._._._._._._._._._._._._._._._._._._._._._._._._._.~.M.C.3. .| | | | | | | | | | ",
"| | | | | | | | | | | | | | ..2.B._._._._._._._._._._._._._._._._._._._._._._._._._._._._._._._._._.).U.~ +.| | | | | | | | | | ",
"| | | | | | | | | | | | | *.K S.I._._._._._._._._._._._._._._._._._._._._._._._._._._._._._._._._._._.~.C.+.| | | | | | | | | | ",
"| | | | | | | | | | | | ..K M./.)._._._._._._._._._._._._._._._._._._._._._._._._._._._._._._._._._._.~.C.+.| | | | | | | | | | ",
"| | | | | | | |  .*.3.3.2.S./._._.(.].{.{.{.'.`._._._._._._._._._._._._._._.`.[.{.{.{.]._._._._._._._.).D.G %. .| | | | | | | | ",
"| | | | | | | | <.Q M.M.B.I.)._._.`. X@X@X@X.X]._._._._._._._._._._._._._._.Y.OX@X@X+X}.(._._._._._._.(.K.d.J O.| | | | | | | | ",
"| | | | | |  .,.K M._._._._._.(.`.|.*X<X1X1X=X}.].(._._._._._._._._._._.`.].;X-X1X1X<X;X[.`._._._._._._.Q.G.y.D X...| | | | | | ",
"| | | | | | :.Q b.U._._._._._.]. X*X8XwXeXeX8X=X.X[._._._._._._._._._.(.{.OX-XqXeXeXqX3X#X}.`._._._._._.Q.G.k.u.J %.| | | | | | ",
"| | | | | | K m.)._._._._._._.{.+X,X7XyXuXiXrX2X$X}._._._._._._._._._.`..X%X4XrXuXiXuX6X%XOX]._._._._._.Q.H.G.c.a.p | | | | | | ",
"| | | | | | L T._._._._._._._.W.^ 6.7.,X7XiXtX2X$X}._._._._._._._._._.).F.5.6.7.4XtXiX7X>XOX]._._._._._.(.Q.L.G.a.D | | | | | | ",
"| | | | | | L T._._._._._._._.B.4.] 0 6 >XyXtX2X$X}._._._._._._._._._.~.Z.,.' : / 5XuX7X>XOX]._._._._._._._.Q.H.a.D | | | | | | ",
"| | | ..<.2.S.U._._._._._._._.E.C.H k f XX9X9X&XoXY._._._._._._._._._.).N.E A f V &X0X:X#X X`._._._._._._._.!.H.k.U -.O...| | | ",
"| | |  .L N.U.)._._._._._._._.~.I.n.l.e.v. X XV.K.^._._._._._._._._._._./.R.n.g.g.V. X|.[.].(._._._._._._._.!.H.x.k.u.D ..| | | ",
"| | | @.Q /._._._._._._._._._._._.(.Q.H.H.H.H.H.P.!._._._._._._._._._._._._.!.P.H.H.L.!._._._._._._._._._._.!.H.G.G.l.J  .| | | ",
"| | | @.Q /._._._._._._._._._._._._.(.!.!.!.!.!.!.(._._._._._._._._._._._._.(.!.!.!.!.(._._._._._._._._._._.!.H.G.G.l.J  .| | | ",
"| | | @.E R.~.(._._._._._._._._._._._._._._._._._._._._._._._._._._._._._._._._._._._._._._._._._._._._._._.!.H.G.G.l.J  .| | | ",
"| | | ..>.E D./._._._._._._._._._._._._._._._._._._._._._._._._._._._._._._._._._._._._._._._._._._._._._._.!.H.G.G.l.J  .| | | ",
"| | | | ..@.W T.)._._._._._._._._._._._._._._._._._._._._._._._._._._._._._._._._._._._._._._._._._._._._._.Q.H.G.G.l.J  .| | | ",
"| | | | | | :.Q b.U._._._._._._._._._._._._._._._._._._._._._._._._._._._._._._._._._._._.(.!.Q.Q.Q.Q.Q.Q.Q.P.H.G.G.l.J  .| | | ",
"| | | | | |  .O.K M._._._._._._._._._._._._._._._._._._._._._._._._._._._._._._._._._._._.!.L.H.H.H.H.H.H.H.G.G.G.G.l.J  .| | | ",
"| | | | | | | | <.Q B.U._._._._._._.(.!.!.!.!.!.(._._._._._._._._._._._._._._._._._._.(.!.P.G.x.s.a.l.c.G.G.G.G.x.s.T D ..| | | ",
"| | | | | | | |  .*.L D.)._._._._._.Q.L.L.L.L.L.P.!._._._._._._._._._._._._._._._._._.Q.L.H.G.s.J F y.c.G.G.G.G.k.I =.X...| | | ",
"| | | | | | | | | | +.C./.(.(.(.(.!.L.G.G.G.G.G.H.Q.(._._._._._._._._._._._._.(.(.(.!.P.G.G.G.i.=.O.Y c.G.c.x.k.T =.| | | | | | ",
"| | | | | | | | | | +.R J.P.P.P.P.L.H.G.G.G.G.G.G.L.P.!._._._._._._._._._._.(.Q.P.P.L.H.G.G.G.i.=.O.Y c.G.c.s.I -.X.| | | | | | ",
"| | | | | | | | | | o.I x.G.G.G.G.G.G.G.G.G.G.G.G.G.H.Q.(._._._._._._._._._.!.H.G.G.G.G.G.G.G.i.=.O.U l.c.c.u.#...| | | | | | | ",
"| | | | | | | | | | o.I x.G.G.G.G.G.G.G.G.G.G.G.G.G.G.L.Q.!._._._._._._._._.!.H.G.G.G.G.G.G.G.i.=.o.-.U a.x.T &.| | | | | | | | ",
"| | | | | | | | | | +.I x.G.G.G.G.G.G.G.c.c.c.c.c.c.G.G.H.P.(._._._._._._._.!.H.c.c.c.c.G.G.G.i.=.|  .O.I l.T &.| | | | | | | | ",
"| | | | | | | |  .&.F u.x.G.G.G.G.G.G.c.k.u.T T i.l.c.G.G.L.Q.!.!.!.!.!.!.!.P.H.x.a.u.k.c.G.G.i.=.| |  .J l.T &.| | | | | | | | ",
"| | | | | | | | %.I s.l.c.G.G.G.G.G.G.x.T =.&.&.F i.c.G.G.G.H.H.H.H.H.H.H.H.H.G.s.J =.T x.G.G.i.=.| |  .J l.T &.| | | | | | | | ",
"| | | | | | | | &.T c.G.G.G.G.G.G.c.h.0.C ) _ _ i B c.G.G.G.G.G.G.G.G.G.G.G.G.G.p.S ) C 0.h.c.a.H $.] ) Z l.B i _ _ ` [ | | | | ",
"| | | | | | | | &.T c.G.G.G.G.G.G.h.v a < = 7 7 4 M c.G.G.G.G.G.G.G.G.G.G.G.G.G.w.j = < a v h.l.a.P y ; l j.M 4 7 7 8 ( } | | | ",
"| | | | | | | | &.T c.G.G.G.G.c.z.q.a X         > v h.z.c.G.G.G.G.c.z.h.h.h.h.h.8.2     X a q.z.c.f.s + h h.n ,     o q } | | | ",
"| | | | | | | | &.T c.G.G.G.G.f.v s >           + 2 z q.c.G.G.G.G.h.8.h h h h h a @       > s v f.f.s + h h.n ,     o q } | | | ",
"| | | | | | | | &.T x.c.c.G.G.9.2 X               X @ x z.G.G.c.c.e.g + X X X X X           X 2 9.f.s + h h.n ,     o q [ | | | ",
"| | | | | | | | X.F T s.c.G.G.9.1                   + z z.G.G.h.9.z ,                         1 9.f.s + h h.n ,     . * w _ } | ",
"| | | | | | | | ..o.&.Y x.G.G.9.1                   + z z.G.G.q.s @ X                         1 9.f.s + h h.n ,       o $ 9 [ | ",
"| | | | | | | | | | o.I x.G.G.0.5 & & & & & & & & & ; c z.G.G.9.1                         + , h e.f.s + h h.n ,           * w ( ",
"| | | | | | | | | | o.I x.G.G.t.u ( ( ( ( ( ( ( ( ( t N x.G.G.9.1                         2 v e.z.f.s + h h.n ,           o % & ",
"| | | | | | | | | | o.I x.x.k.Y &.| | | | | | | | | o.A w.h.c.9.1                         s f.z.h.9.a + s q.x >                 ",
"| | | | | | | | | | o.I l.a.A =.+.| | | | | | | | | { u d n h.9.1                         s f.f.x a @ X > a 1 +                 ",
"| | | | | | | | | | o.I l.Y %...| | | | | | | | | | [ q O g f.9.1                         s f.9.2                               ",
"| | | | | | | | | | o.I l.Y O.| | | | | | | | | | | } ( 9 k g.9.1                         s f.9.1                               ",
"| | | | | | | | | | +.I l.Y ] | | | | | | | | | | | | } { S k.9.1                         s f.9.1                               ",
"| | | | | | | | | | o.I l.N r e e e e e e e e e e e e i D Y l.9.1                         s f.9.1                               ",
"| | | | | | | | | | o.I j.m - % % % % % % % % % % % - j t.k.c.9.1                         s f.9.1                               ",
"| | | | | | | | | | @.F y.l - % % % % % % % % % % % - c z.h.e.x ,                         s f.9.1       o $ % % % % % % % % % % ",
"| | | | | | | | | | ..%.-.i e e e e e e e e e e e e t N j.9.g 1 +                         s f.9.1     . * w e e e e e e e e e e ",
"| | | | | | | | | | | | | | | | | | | | | | | | | | o.I j.b # o o o o o o o o o o o o o o f r.M 3 o o O q [ | | | | | | | | | | ",
"| | | | | | | | | | | | | | | | | | | | | | | | | | o.I l.N 0 q q q q q q q q q q q q q q r S S r q q w ( } | | | | | | | | | | ",
"| | | | | | | | | | | | | | | | | | | | | | | | | | o.I k.Y ] } } } } } } } } } } } } } } }  . .} } } } | | | | | | | | | | | | ",
"| | | | | | | | | | | | | | | | | | | | | | | | | |  .-.I D o.| | | | | | | | | | | | | | | | | | | | | | | | | | | | | | | | | ",
"| | | | | | | | | | | | | | | | | | | | | | | | | | | o.X.o...| | | | | | | | | | | | | | | | | | | | | | | | | | | | | | | | | ",
"| | | | | | | | | | | | | | | | | | | | | | | | | | | | | | | | | | | | | | | | | | | | | | | | | | | | | | | | | | | | | | | | "
};
