/* XPM */
static char *monster_up1[] = {
/* columns rows colors chars-per-pixel */
"64 64 185 2 ",
"   c #000000",
".  c #0B0000",
"X  c #000B00",
"o  c #130000",
"O  c #1C0000",
"+  c #001400",
"@  c #001D00",
"#  c #131C00",
"$  c #230000",
"%  c #2A0000",
"&  c #320000",
"*  c #3C0000",
"=  c #3A0800",
"-  c #241300",
";  c #271B00",
":  c #3D1200",
">  c #002300",
",  c #002B00",
"<  c #0B2A00",
"1  c #1E2300",
"2  c #003600",
"3  c #003B00",
"4  c #1E3B00",
"5  c #2A2A00",
"6  c #2A3D00",
"7  c #420000",
"8  c #4C0000",
"9  c #5B0000",
"0  c #4A1600",
"q  c #640000",
"w  c #6C0000",
"e  c #730000",
"r  c #7D0000",
"t  c #7D0A00",
"y  c #691E00",
"u  c #791500",
"i  c #452A00",
"p  c #5A2F00",
"a  c #423300",
"s  c #7D2B00",
"d  c #7D3700",
"f  c #014300",
"g  c #004E00",
"h  c #005300",
"j  c #005B00",
"k  c #2A4200",
"l  c #275A00",
"z  c #006500",
"x  c #006D00",
"c  c #0D6D00",
"v  c #196900",
"b  c #007500",
"n  c #017D00",
"m  c #187800",
"M  c #2A6C00",
"N  c #3B6600",
"B  c #277800",
"V  c #387600",
"C  c #494900",
"Z  c #4F5A00",
"A  c #614200",
"S  c #6F4F00",
"D  c #7C4300",
"F  c #734B00",
"G  c #7D4D00",
"H  c #6A5500",
"J  c #645A00",
"K  c #7E5600",
"L  c #7C5900",
"P  c #426A00",
"I  c #556500",
"U  c #5A6500",
"Y  c #556A00",
"T  c #457200",
"R  c #4D7200",
"E  c #437D00",
"W  c #597300",
"Q  c #6E6C00",
"!  c #756200",
"~  c #657700",
"^  c #6B7000",
"/  c #637A00",
"(  c #830100",
")  c #8D0000",
"_  c #8A0F00",
"`  c #940000",
"'  c #9C0000",
"]  c #841000",
"[  c #8F1F00",
"{  c #9A1800",
"}  c #A20000",
"|  c #AB0000",
" . c #AF0F00",
".. c #B30000",
"X. c #BF0000",
"o. c #B30D00",
"O. c #B80800",
"+. c #A11100",
"@. c #AC1300",
"#. c #A31D00",
"$. c #AC1900",
"%. c #B11200",
"&. c #862800",
"*. c #8F2F00",
"=. c #952300",
"-. c #9B2400",
";. c #952A00",
":. c #9C2E00",
">. c #873700",
",. c #893600",
"<. c #833B00",
"1. c #8F3E00",
"2. c #983300",
"3. c #953800",
"4. c #A62100",
"5. c #A12800",
"6. c #8A4600",
"7. c #834F00",
"8. c #894800",
"9. c #835000",
"0. c #008500",
"q. c #008A00",
"w. c #0A8D00",
"e. c #009300",
"r. c #0E9600",
"t. c #009A00",
"y. c #348500",
"u. c #3B8400",
"i. c #358A00",
"p. c #388800",
"a. c #209600",
"s. c #2C9300",
"d. c #249B00",
"f. c #299B00",
"g. c #00A200",
"h. c #00AC00",
"j. c #0CAC00",
"k. c #15A400",
"l. c #1DA200",
"z. c #14AB00",
"x. c #00B300",
"c. c #0BB400",
"v. c #02BC00",
"b. c #3CAE00",
"n. c #2AB000",
"m. c #2FBE00",
"M. c #36B500",
"N. c #38B300",
"B. c #33BB00",
"V. c #5A8500",
"C. c #548E00",
"Z. c #4C9900",
"A. c #519200",
"S. c #42A600",
"D. c #40A900",
"F. c #00C100",
"G. c #00CC00",
"H. c #0DCA00",
"J. c #00D300",
"K. c #00DA00",
"L. c #1FD400",
"P. c #1ADB00",
"I. c #2EC100",
"U. c #2AC700",
"Y. c #24CE00",
"T. c #28C900",
"R. c #20D300",
"E. c #00E100",
"W. c #00E700",
"Q. c #0DE400",
"!. c #00EB00",
"~. c #00ED00",
"^. c #0EEB00",
"/. c #0DED00",
"(. c #15E200",
"). c #13E500",
"_. c #03F300",
"`. c #00F400",
"'. c #00F500",
"]. c #05F700",
"[. c #09F300",
"{. c #08F400",
"}. c #02FB00",
"|. c #04F900",
" X c green",
/* pixels */
"X.X.X.X.X.X.X.X.X.X.X.X.X.X.X.X.X.X.X.X.X.X.X.X.X.X.X.X.X.X.X.X.X.X.X.X.X.X.X.X.X.X.X.X.X.X.X.X.X.X.X.X.X.X.X.X.X.X.X.X.X.X.X.X.",
"X.X.X.X.X.X.X.X.X.X.X.X.X.X.X.X.X.X.X.X.X.X.X.X.X.X.X.X.X.X.X.X.X.X.X.X.X.X.X.X.X.X.X.X.X.X.X.X.X.X.X.X.X.X.X.X.X.X.X.X.X.X.X.X.",
"X.X.X.X.X.X.X.X.X.X.X.X.X.X.X.X.X.X.X.X.X.X.X.X.X.X.X.X.X.X.X.X.X.X.X.X.X.X.X.X.X.X.X.X.X.X.X.X.X.X.X.X.X.X.X.X.X.X.X.X.X.X.X.X.",
"X.X.X.X.X.X.X.X.X.X.X.X.X.X.X.X.X.X.X.X.X.X.X.X.X.X.X.X.X.O.o.%.%.%.%.%.%.%.O.X.X.X.X.X.X.X.X.X.X.X.X.X.X.X.X.X.X.X.X.X.X.X.X.X.",
"X.X.X.X.X.X.X.X.X.X.X.X.X.X.X.X.X.X.X.X.X.X.X.X.X.X.X.X.O.2.! ~ ~ ~ ~ ~ ~ ~ 7.$.X.X.X.X.X.X.X.X.X.X.X.X.X.X.X.X.X.X.X.X.X.X.X.X.",
"X.X.X.X.X.X.X.X.X.X.X.X.X.X.X.X.X.X.X.X.X.X.X.X.X.X.X.X.O.L I.).).).).).).(.Z.2.X.X.X.X.X.X.X.X.X.X.X.X.X.X.X.X.X.X.X.X.X.X.X.X.",
"X.X.X.X.X.X.X.X.X.X.X.X.X.X.X.X.X.o.2.K L L L L L L L L L Z.). X X X X X X XU./ L L L L L L L 1.$.X.X.X.X.X.X.X.X.X.X.X.X.X.X.X.",
"X.X.X.X.X.X.X.X.X.X.X.X.X.X.X.X.X.#.~ m.U.U.U.U.U.U.U.U.T.P.]. X X X X X X X^.R.U.U.U.U.U.U.U.C.3.X.X.X.X.X.X.X.X.X.X.X.X.X.X.X.",
"X.X.X.X.X.X.X.X.X.X.X.X.X.X.X.o.5.K b.]. X X X X X X X X X X X X X X X X X X X X X X X X X X XU.^ :.@.X.X.X.X.X.X.X.X.X.X.X.X.X.",
"X.X.X.X.X.X.X.X.X.X.X.X.X.X.X.:./ M.P.}. X X X X X X X X X X X X X X X X X X X X X X X X X X X).I.C.6.O.X.X.X.X.X.X.X.X.X.X.X.X.",
"X.X.X.X.X.X.X.X.X.X.X.X.X.X.X.8.M. X X X X X X X X X X X X X X X X X X X X X X X X X X X X X X X XP.~ 4.o.X.X.X.X.X.X.X.X.X.X.X.",
"X.X.X.X.X.X.X.X.X.X.X.X.X.X.X.8.M. X X X X X X X X X X X X X X X X X X X X X X X X X X X X X X X X/.M.V.8.o.X.X.X.X.X.X.X.X.X.X.",
"X.X.X.X.X.X.X.X.X.X.X.X.X.X.O.7.B. X X X X X X X X X X X X X X X X X X X X X X X X X X X X X X X X X{.P./ $.X.X.X.X.X.X.X.X.X.X.",
"X.X.X.X.X.X.X.X.X.X.X.X.X.:.K A.L. X X X X X X X X X X X X X X X X X X X X X X X X X X X X X X X X X X/.V.$.X.X.X.X.X.X.X.X.X.X.",
"X.X.X.X.X.X.X.X.X.X.X.X.O.K M.(.[. X X X X X X X X X X X X X X X X X X X X X X X X X X X X X X X X X X/.V.$.X.X.X.X.X.X.X.X.X.X.",
"X.X.X.X.X.X.X.X.o.:.8.8.7.A.(. X X X X X X X X X X X X X X X X X X X X X X X X X X X X X X X X X X X X[.D.L :.o.X.X.X.X.X.X.X.X.",
"X.X.X.X.X.X.X.X.5./ M.M.B.L.[. X X X X X X X X X X X X X X X X X X X X X X X X X X X X X X X X X X X X}.P.B./ 5.X.X.X.X.X.X.X.X.",
"X.X.X.X.X.X.o.#.K M. X X X X X X X X X X X X X X X X X X X X X X X X X X X X X X X X X X X X X X X X X X X XM.K #.o.X.X.X.X.X.X.",
"X.X.X.X.X.X.2.~ b.P. X X X X X X X X X X X X X X X X X X X X X X X X X X X X X X X X X X X X X X X X X X X XP.b.~ 2.X.X.X.X.X.X.",
"X.X.X.X.X.X.K m.].}. X X X X X X X X X X X X X X X X X X X X X X X X X X X X X X X X X X X X X X X X X X X X}._.m.K X.X.X.X.X.X.",
"X.X.X.X.X.X.L U. X X X X X X X X X X X X X X X X X X X X X X X X X X X X X X X X X X X X X X X X X X X X X X'.!.n.G X.X.X.X.X.X.",
"X.X.X.X.X.X.L U. X X X X X X X X X X X X X X X X X X X X X X X X X X X X X X X X X X X X X X X X X X X X X X!.J.f.D X.X.X.X.X.X.",
"X.X.X.O.5.9.A.P. X X X X X X X X X X X X X X X X X X X X X X X X X X X X X X X X X X X X X X X X X X X X X X!.G.l.Y <.#.O.X.X.X.",
"X.X.X.o.L N.P.[. X X X X X X X X X X X X X X X X X X X X X X X X X X X X X X X X X X X X X X X X X X X X X X!.G.c.l.u.D O.X.X.X.",
"X.X.X.%.~ ). X X X X X X X X X X X X X X X X X X X X X X X X X X X X X X X X X X X X X X X X X X X X X X X X!.G.F.F.z.J o.X.X.X.",
"X.X.X.%.~ ). X X X X X X X X X X X X X X X X X X X X X X X X X X X X X X X X X X X X X X X X X X X X X X X X!.G.F.F.z.J o.X.X.X.",
"X.X.X.%.Q Y./.|. X X X X X X X X X X X X X X X X X X X X X X X X X X X X X X X X X X X X X X X X X X X X X X!.G.F.F.z.J o.X.X.X.",
"X.X.X.O.3.Q S.(. X X X X X X X X X X X X X X X X X X X X X X X X X X X X X X X X X X X X X X X X X X X X X X!.G.F.F.z.J o.X.X.X.",
"X.X.X.X.O.%.! I.].}. X X X X X X X X X X X X X X X X X X X X X X X X X X X X X X X X X X X X X X}. X X X X XW.G.F.F.z.J o.X.X.X.",
"X.X.X.X.X.X.2.~ b.P. X X X X X X X X X X X X X X X X X X X X X X X X X X X X X X X X X X X'.!.W.W.W.W.W.W.W.K.G.F.F.z.J o.X.X.X.",
"X.X.X.X.X.X.o.#.K M. X X X X X X X X X X X X X X X X X X X X X X X X X X X X X X X X X X}.!.J.G.G.G.G.G.G.G.F.F.F.F.z.J o.X.X.X.",
"X.X.X.X.X.X.X.X.5./ B.P.}. X X X X X X X X X X X X X X X X X X X X X X X X X X X X X X'.!.K.F.j.f.s.z.v.F.F.F.F.c.d.E D O.X.X.X.",
"X.X.X.X.X.X.X.X.o.:.L D.[. X X X X X X X X X X X X X X X X X X X X X X X X X X X X X}.W.K.G.F.f.J F p.v.F.F.v.F.l.U ,.#.O.X.X.X.",
"X.X.X.X.X.X.X.X.X.X.$.V.Q.'.'.'.'.'.'.'.}. X X X X X X X X X X X X X X X X X}.'.'.'.~.K.F.F.F.i.,.#.R v.F.v.c.z.E >.X.X.X.X.X.X.",
"X.X.X.X.X.X.X.X.X.X.$.W H.K.K.K.K.K.K.K.!.}. X X X X X X X X X X X X X X X X'.E.K.K.K.G.F.F.F.i.,.#.R v.F.v.f.U <.#.X.X.X.X.X.X.",
"X.X.X.X.X.X.X.X.X.X.@.U c.F.F.F.F.F.F.F.K.'.}.}.}.}.}.}.}. X X X X X X X X X!.G.F.F.F.F.F.F.F.i.,.#.Y z.v.v.u.*.O.X.X.X.X.X.X.X.",
"X.X.X.X.X.X.X.X.X.X.@.U c.F.F.F.F.F.F.F.G.K.E.E.E.E.E.E.E.~.}. X X X X X X X!.G.F.F.F.F.F.F.F.i.,.@.<.Y s.c.E ;.X.X.X.X.X.X.X.X.",
"X.X.X.X.X.X.X.X.X.X.$.U c.F.F.F.F.F.F.F.F.F.F.F.F.F.F.F.G.K.'. X X X X X X X!.G.v.v.v.v.F.F.F.i.,.X.o.#.U z.E ;.X.X.X.X.X.X.X.X.",
"X.X.X.X.X.X.X.X.o.;.F u.c.F.F.F.F.F.F.v.l.u.E E i.z.v.F.F.J.E.!.!.!.!.!.!.!.K.G.c.s.u.l.v.F.F.i.,.X.X.o.J z.E ;.X.X.X.X.X.X.X.X.",
"X.X.X.X.X.X.X.X.-.U f.z.v.F.F.F.F.F.F.c.E >.;.;.F i.v.F.F.F.G.G.G.G.G.G.G.G.G.F.d.J >.E c.F.F.i.,.X.X.o.J z.E ;.X.X.X.X.X.X.X.X.",
"X.X.X.X.X.X.X.X.;.E v.F.F.F.F.c.l.s.s.i.S  .X.X.;.E v.F.F.F.F.F.F.F.F.F.F.F.F.F.a.A ] C w.g.v.s.H =.{ _ Z z.E ;.X.X.X.X.X.X.X.X.",
"X.X.X.X.X.X.X.X.;.E v.F.F.F.F.d.U D D <.-.O.X.X.;.E v.F.F.F.F.F.F.F.F.F.F.F.F.F.r.k = 1 f b h.z.s.P a : l j.E ;.X.X.X.X.X.X.X.X.",
"X.X.X.X.X.X.X.X.;.E v.F.F.F.F.i.,.X.X.X.X.X.X.| &.V h.x.v.F.F.F.F.v.x.h.h.h.h.h.0.3     X f e.x.v.g.g + j h.V &.| | | ..X.X.X.X.",
"X.X.X.X.X.X.X.X.;.E v.F.F.F.F.i.,.X.X.X.X.X.' w 0 4 z e.v.F.F.F.F.h.0.j j j j j f @     X > g b g.g.g + j h.m i 9 9 q ) X.X.X.X.",
"X.X.X.X.X.X.X.X.;.E c.v.v.F.F.i.,.X.X.X.X...r & . X @ x x.F.F.v.v.t.h + X X X X X X       X X 3 q.g.g + j h.n < . . O q | X.X.X.",
"X.X.X.X.X.X.X.X.#.F E f.v.F.F.i.,.X.X.X.' r 8 O     + z x.F.F.h.q.z , X                       2 q.g.g + j h.n ,     . * w ` ..X.",
"X.X.X.X.X.X.X.X.O.@.;.R c.F.F.i.,.X.X...e % o       + z x.F.F.e.g @ X                         2 q.g.g + j h.n ,       o $ 9 } X.",
"X.X.X.X.X.X.X.X.X.X.@.U c.z.s.U -.X.X...r 7 $ .     + z x.F.F.q.2                         + , j t.g.g + f n j @         . 8 } X.",
"X.X.X.X.X.X.X.X.X.X.@.U z.p.F -. .X.X.X.} ) 9 O     + z x.F.F.q.2                       X 3 b t.h.g.g X @ 2 > X           8 } X.",
"X.X.X.X.X.X.X.X.X.X.@.U z.R #.X.X.X.X.X.X.X.r %     X h t.h.v.q.2                       X g g.x.h.0.f X                   8 } X.",
"X.X.X.X.X.X.X.X.X.X.@.U z.R #.X.X.X.X.X.X.X.r %     X , g n h.q.2                       X g g.g.x f @                     8 } X.",
"X.X.X.X.X.X.X.X.X.X.@.U z.R #.X.X.X.........e %       X X h g.q.2                       X g g.q.3 X                       8 } X.",
"X.X.X.X.X.X.X.X.X.X.@.U z.R #.X.X...) w q q 7 o         X g g.q.2                       X g g.q.2                         8 } X.",
"X.X.X.X.X.X.X.X.X.X.@.U z.R { X.X.} 9 O o o .           X g g.q.2                       X g g.q.2                       . 8 } X.",
"X.X.X.X.X.X.X.X.X.X.@.U z.V y r r w &               X > f b h.q.2                       X g g.q.2               . % 7 7 7 e | X.",
"X.X.X.X.X.X.X.X.X.X.@.U j.c ; % % $ o               X g q.g.v.q.2                       X g g.q.2               $ q ` ` ` } X.X.",
"X.X.X.X.X.X.X.X.X.X. .S y.l ; % % % % % % % % % % % - v x.z.d.v <       o % % % % % % % % 6 B M 5 % % % % % % % 8 ) X.X.X.X.X.X.",
"X.X.X.X.X.X.X.X.X.X.O.-.<.s t r r r r r r r r r r r u N j.i.H p -     . * e r r r r r r r u d s u r r r r r r r ) | X.X.X.X.X.X.",
"X.X.X.X.X.X.X.X.X.X.X.X.X.X.X.X.X.X.X.X.X.X.X.X.X.X.@.U z.T [ ( * o o O q | X.X.X.X.X.X.X.X.X.X.X.X.X.X.X.X.X.X.X.X.X.X.X.X.X.X.",
"X.X.X.X.X.X.X.X.X.X.X.X.X.X.X.X.X.X.X.X.X.X.X.X.X.X.@.U z.B 0 9 q q q w ) ..X.X.X.X.X.X.X.X.X.X.X.X.X.X.X.X.X.X.X.X.X.X.X.X.X.X.",
"X.X.X.X.X.X.X.X.X.X.X.X.X.X.X.X.X.X.X.X.X.X.X.X.X.X.@.U k.c # 7 ( ......X.X.X.X.X.X.X.X.X.X.X.X.X.X.X.X.X.X.X.X.X.X.X.X.X.X.X.X.",
"X.X.X.X.X.X.X.X.X.X.X.X.X.X.X.X.X.X.X.X.X.X.X.X.X.X.o.<.I C 0 w ' X.X.X.X.X.X.X.X.X.X.X.X.X.X.X.X.X.X.X.X.X.X.X.X.X.X.X.X.X.X.X.",
"X.X.X.X.X.X.X.X.X.X.X.X.X.X.X.X.X.X.X.X.X.X.X.X.X.X.X.@.#.+.} | ..X.X.X.X.X.X.X.X.X.X.X.X.X.X.X.X.X.X.X.X.X.X.X.X.X.X.X.X.X.X.X.",
"X.X.X.X.X.X.X.X.X.X.X.X.X.X.X.X.X.X.X.X.X.X.X.X.X.X.X.X.X.X.X.X.X.X.X.X.X.X.X.X.X.X.X.X.X.X.X.X.X.X.X.X.X.X.X.X.X.X.X.X.X.X.X.X."
};
