/* XPM */
static char *monster_up2[] = {
/* columns rows colors chars-per-pixel */
"64 64 184 2 ",
"   c #000000",
".  c #0B0000",
"X  c #000C00",
"o  c #130000",
"O  c #1C0000",
"+  c #001300",
"@  c #001C00",
"#  c #230000",
"$  c #2A0000",
"%  c #290C00",
"&  c #340000",
"*  c #3A0000",
"=  c #3D0D00",
"-  c #2A1700",
";  c #231E00",
":  c #3A1400",
">  c #002400",
",  c #002B00",
"<  c #122800",
"1  c #003300",
"2  c #003D00",
"3  c #0C3900",
"4  c #193B00",
"5  c #202A00",
"6  c #332A00",
"7  c #2F3600",
"8  c #430000",
"9  c #4D0000",
"0  c #520000",
"q  c #5D0000",
"w  c #491600",
"e  c #650000",
"r  c #6D0000",
"t  c #730000",
"y  c #7C0000",
"u  c #790C00",
"i  c #671E00",
"p  c #7D1E00",
"a  c #452A00",
"s  c #612A00",
"d  c #792900",
"f  c #663500",
"g  c #7E3D00",
"h  c #004300",
"j  c #094100",
"k  c #004C00",
"l  c #1B4200",
"z  c #005400",
"x  c #005A00",
"c  c #165A00",
"v  c #2A4600",
"b  c #3B4200",
"n  c #275A00",
"m  c #006400",
"M  c #006A00",
"N  c #1E6600",
"B  c #007300",
"V  c #007E00",
"C  c #0D7C00",
"Z  c #1B7100",
"A  c #177A00",
"S  c #257A00",
"D  c #377800",
"F  c #4D4A00",
"G  c #524200",
"H  c #495A00",
"J  c #525600",
"K  c #6C4800",
"L  c #7C4300",
"P  c #734B00",
"I  c #695600",
"U  c #645B00",
"Y  c #7E5600",
"T  c #7C5900",
"R  c #456600",
"E  c #5A6600",
"W  c #556A00",
"Q  c #4D7200",
"!  c #437D00",
"~  c #597300",
"^  c #6E6C00",
"/  c #756200",
"(  c #657600",
")  c #6B7000",
"_  c #637900",
"`  c #830000",
"'  c #8D0000",
"]  c #8A0D00",
"[  c #940000",
"{  c #9C0000",
"}  c #841400",
"|  c #9F1E00",
" . c #A20000",
".. c #AC0100",
"X. c #AF0F00",
"o. c #B20000",
"O. c #BF0000",
"+. c #B30C00",
"@. c #B80800",
"#. c #A41500",
"$. c #AB1300",
"%. c #A31D00",
"&. c #AB1900",
"*. c #B11200",
"=. c #852800",
"-. c #8F2F00",
";. c #9A2400",
":. c #952A00",
">. c #9C2E00",
",. c #873700",
"<. c #893600",
"1. c #833C00",
"2. c #8F3E00",
"3. c #983300",
"4. c #953800",
"5. c #A12800",
"6. c #8A4600",
"7. c #834F00",
"8. c #894800",
"9. c #835000",
"0. c #008400",
"q. c #008B00",
"w. c #138800",
"e. c #009500",
"r. c #099600",
"t. c #009C00",
"y. c #179600",
"u. c #298800",
"i. c #348500",
"p. c #3B8400",
"a. c #368A00",
"s. c #388800",
"d. c #259500",
"f. c #2C9300",
"g. c #259A00",
"h. c #319300",
"j. c #00A400",
"k. c #01AC00",
"l. c #0EAB00",
"z. c #1CA300",
"x. c #14AB00",
"c. c #19A900",
"v. c #00B300",
"b. c #0BB400",
"n. c #01BD00",
"m. c #19BF00",
"M. c #35A400",
"N. c #3CAE00",
"B. c #2FBF00",
"V. c #36B600",
"C. c #38B300",
"Z. c #32BB00",
"A. c #408900",
"S. c #598200",
"D. c #548E00",
"F. c #4C9900",
"G. c #519200",
"H. c #41A800",
"J. c #00C000",
"K. c #00CC00",
"L. c #0BC900",
"P. c #00D300",
"I. c #08D100",
"U. c #00DA00",
"Y. c #1FD400",
"T. c #1ADB00",
"R. c #2AC600",
"E. c #26CC00",
"W. c #20D300",
"Q. c #00E200",
"!. c #00E500",
"~. c #0DE600",
"^. c #00E900",
"/. c #00ED00",
"(. c #0DED00",
"). c #15E200",
"_. c #13E500",
"`. c #01F200",
"'. c #00F400",
"]. c #05F700",
"[. c #09F300",
"{. c #01F900",
"}. c #04F900",
"|. c green",
/* pixels */
"O.O.O.O.O.O.O.O.O.O.O.O.O.O.O.O.O.O.O.O.O.O.O.O.O.O.O.O.O.O.O.O.O.O.O.O.O.O.O.O.O.O.O.O.O.O.O.O.O.O.O.O.O.O.O.O.O.O.O.O.O.O.O.O.",
"O.O.O.O.O.O.O.O.O.O.O.O.O.O.O.O.O.O.O.O.O.O.O.O.O.O.O.O.O.O.O.O.O.O.O.O.O.O.O.O.O.O.O.O.O.O.O.O.O.O.O.O.O.O.O.O.O.O.O.O.O.O.O.O.",
"O.O.O.O.O.O.O.O.O.O.O.O.O.O.O.O.O.O.O.O.O.O.O.O.O.O.O.O.O.O.O.O.O.O.O.O.O.O.O.O.O.O.O.O.O.O.O.O.O.O.O.O.O.O.O.O.O.O.O.O.O.O.O.O.",
"O.O.O.O.O.O.O.O.O.O.O.O.O.O.O.O.O.O.O.O.O.O.O.O.O.O.O.O.O.@.+.*.*.*.*.*.*.*.@.O.O.O.O.O.O.O.O.O.O.O.O.O.O.O.O.O.O.O.O.O.O.O.O.O.",
"O.O.O.O.O.O.O.O.O.O.O.O.O.O.O.O.O.O.O.O.O.O.O.O.O.O.O.O.@.3./ ( ( ( ( ( ( ( 7.&.O.O.O.O.O.O.O.O.O.O.O.O.O.O.O.O.O.O.O.O.O.O.O.O.",
"O.O.O.O.O.O.O.O.O.O.O.O.O.O.O.O.O.O.O.O.O.O.O.O.O.O.O.O.@.T R._._._._._._.).F.3.O.O.O.O.O.O.O.O.O.O.O.O.O.O.O.O.O.O.O.O.O.O.O.O.",
"O.O.O.O.O.O.O.O.O.O.O.O.O.O.O.O.O.+.3.Y T T T T T T T T T F._.|.|.|.|.|.|.|.R._ T T T T T T T 2.&.O.O.O.O.O.O.O.O.O.O.O.O.O.O.O.",
"O.O.O.O.O.O.O.O.O.O.O.O.O.O.O.O.O.%.( B.R.R.R.R.R.R.R.R.E.T.].|.|.|.|.|.|.|.(.W.R.R.R.R.R.R.R.D.4.O.O.O.O.O.O.O.O.O.O.O.O.O.O.O.",
"O.O.O.O.O.O.O.O.O.O.O.O.O.O.O.+.5.Y N.].|.|.|.|.|.|.|.|.|.|.|.|.|.|.|.|.|.|.|.|.|.|.|.|.|.|.|.R.) >.$.O.O.O.O.O.O.O.O.O.O.O.O.O.",
"O.O.O.O.O.O.O.O.O.O.O.O.O.O.O.>._ V.T.{.|.|.|.|.|.|.|.|.|.|.|.|.|.|.|.|.|.|.|.|.|.|.|.|.|.|.|._.R.D.6.@.O.O.O.O.O.O.O.O.O.O.O.O.",
"O.O.O.O.O.O.O.O.O.O.O.O.O.O.O.8.V.|.|.|.|.|.|.|.|.|.|.|.|.|.|.|.|.|.|.|.|.|.|.|.|.|.|.|.|.|.|.|.|.T.( #.@.O.O.O.O.O.O.O.O.O.O.O.",
"O.O.O.O.O.O.O.O.O.O.O.O.O.O.O.8.V.|.|.|.|.|.|.|.|.|.|.|.|.|.|.|.|.|.|.|.|.|.|.|.|.|.|.|.|.|.|.|.|.~.M.E <.@.O.O.O.O.O.O.O.O.O.O.",
"O.O.O.O.O.O.O.O.O.O.O.O.O.O.@.7.Z.|.|.|.|.|.|.|.|.|.|.|.|.|.|.|.|.|.|.|.|.|.|.|.|.|.|.|.|.|.|.|.|.`.I.c.U $.O.O.O.O.O.O.O.O.O.O.",
"O.O.O.O.O.O.O.O.O.O.O.O.O.>.Y G.Y.|.|.|.|.|.|.|.|.|.|.|.|.|.|.|.|.|.|.|.|.|.|.|.|.|.|.|.|.|.|.|.|.'.U.b.E $.O.O.O.O.O.O.O.O.O.O.",
"O.O.O.O.O.O.O.O.O.O.O.O.@.Y V.).[.|.|.|.|.|.|.|.|.|.|.|.|.|.|.|.|.|.|.|.|.|.|.|.|.|.|.|.|.|.|.|.|.'.U.b.E $.O.O.O.O.O.O.O.O.O.O.",
"O.O.O.O.O.O.O.O.+.>.8.8.7.G.).|.|.|.|.|.|.|.|.|.|.|.|.|.|.|.|.|.|.|.|.|.|.|.|.|.|.|.|.|.|.|.|.|.|.{.!.L.A.L ;.+.O.O.O.O.O.O.O.O.",
"O.O.O.O.O.O.O.O.5._ V.V.Z.Y.[.|.|.|.|.|.|.|.|.|.|.|.|.|.|.|.|.|.|.|.|.|.|.|.|.|.|.|.|.|.|.|.|.|.|.|.'.!.m.h.U %.O.O.O.O.O.O.O.O.",
"O.O.O.O.O.O.+.%.Y V.|.|.|.|.|.|.|.|.|.|.|.|.|.|.|.|.|.|.|.|.|.|.|.|.|.|.|.|.|.|.|.|.|.|.|.|.|.|.|.|.|.{.Q.J.a.L #.@.O.O.O.O.O.O.",
"O.O.O.O.O.O.3.( N.T.|.|.|.|.|.|.|.|.|.|.|.|.|.|.|.|.|.|.|.|.|.|.|.|.|.|.|.|.|.|.|.|.|.|.|.|.|.|.|.|.|.{.Q.J.z.p.U ;.O.O.O.O.O.O.",
"O.O.O.O.O.O.Y B.].{.|.|.|.|.|.|.|.|.|.|.|.|.|.|.|.|.|.|.|.|.|.|.|.|.|.|.|.|.|.|.|.|.|.|.|.|.|.|.|.|.|.{.Q.K.J.n.f.g O.O.O.O.O.O.",
"O.O.O.O.O.O.T R.|.|.|.|.|.|.|.|.|.|.|.|.|.|.|.|.|.|.|.|.|.|.|.|.|.|.|.|.|.|.|.|.|.|.|.|.|.|.|.|.|.|.|.|.`.Q.P.J.f.L O.O.O.O.O.O.",
"O.O.O.O.O.O.T R.|.|.|.|.|.|.|.|.|.|.|.|.|.|.|.|.|.|.|.|.|.|.|.|.|.|.|.|.|.|.|.|.|.|.|.|.|.|.|.|.|.|.|.|.|.{.!.K.f.L O.O.O.O.O.O.",
"O.O.O.@.5.9.G.T.|.|.|.|.|.|.|.|.|.|.|.|.|.|.|.|.|.|.|.|.|.|.|.|.|.|.|.|.|.|.|.|.|.|.|.|.|.|.|.|.|.|.|.|.|.|.^.K.z.W 1.%.@.O.O.O.",
"O.O.O.+.T C.T.[.|.|.|.|.|.|.|.|.|.|.|.|.|.|.|.|.|.|.|.|.|.|.|.|.|.|.|.|.|.|.|.|.|.|.|.|.|.|.|.|.|.|.|.|.|.|.^.K.b.z.p.L @.O.O.O.",
"O.O.O.*.( _.|.|.|.|.|.|.|.|.|.|.|.|.|.|.|.|.|.|.|.|.|.|.|.|.|.|.|.|.|.|.|.|.|.|.|.|.|.|.|.|.|.|.|.|.|.|.|.|.^.K.J.J.x.U +.O.O.O.",
"O.O.O.*.( _.|.|.|.|.|.|.|.|.|.|.|.|.|.|.|.|.|.|.|.|.|.|.|.|.|.|.|.|.|.|.|.|.|.|.|.|.|.|.|.|.|.|.|.|.|.|.|.|.^.K.J.J.x.U +.O.O.O.",
"O.O.O.*.^ E.(.}.|.|.|.|.|.|.|.|.|.|.|.|.|.|.|.|.|.|.|.|.|.|.|.|.|.|.|.|.|.|.|.|.|.|.|.|.|.|.|.|.|.|.|.|.|.|.^.K.J.J.x.U +.O.O.O.",
"O.O.O.@.4.^ H.).|.|.|.|.|.|.|.|.|.|.|.|.|.|.|.|.|.|.|.|.|.|.|.|.|.|.|.|.|.|.|.|.|.|.|.|.|.|.|.|.|.|.|.|.|.|.^.K.J.J.x.U +.O.O.O.",
"O.O.O.O.@.*./ R.].{.|.|.|.|.|.|.|.|.|.|.|.|.|.|.|.|.|.|.|.|.|.|.|.|.|.|.|.|.|.|.|.|.|.|.|.|.|.|.|.|.|.|.|.|.!.K.J.J.x.U +.O.O.O.",
"O.O.O.O.O.O.3.( N.T.|.|.|.|.|.|.|.|.|.|.|.|.|.|.|.|.|.|.|.|.|.|.|.|.|.|.|.|.|.|.|.|.|.|.|.'.^.!.!.!.!.!.!.!.U.K.J.J.x.U +.O.O.O.",
"O.O.O.O.O.O.+.%.Y V.|.|.|.|.|.|.|.|.|.|.|.|.|.|.|.|.|.|.|.|.|.|.|.|.|.|.|.|.|.|.|.|.|.|.{.^.P.K.K.K.K.K.K.K.J.J.J.J.x.U +.O.O.O.",
"O.O.O.O.O.O.O.O.5._ Z.T.{.|.|.|.|.|.'./././././.`.{.|.|.|.|.|.|.|.|.|.|.|.|.|.|.|.|.|.'.^.U.J.b.g.f.x.n.J.J.J.J.b.g.! L @.O.O.O.",
"O.O.O.O.O.O.O.O.+.>.T H.[.|.|.|.|.{.!.P.P.P.P.P.U./.|.|.|.|.|.|.|.|.|.|.|.|.|.|.|.|.{.!.P.K.J.g.U P s.n.J.J.n.J.z.E <.#.@.O.O.O.",
"O.O.O.O.O.O.O.O.O.O.&.S.~.'.'.'.'./.P.J.J.J.J.J.K.Q.'.{.|.|.|.|.|.|.|.|.|.|.{.'.'.'./.U.J.J.J.a.<.%.Q n.J.n.b.x.! ,.O.O.O.O.O.O.",
"O.O.O.O.O.O.O.O.O.O.&.~ L.U.U.U.U.P.K.J.J.J.J.J.J.P.U./.|.|.|.|.|.|.|.|.|.|.`.Q.U.U.P.K.J.J.J.a.<.%.Q n.J.n.g.E 1.#.O.O.O.O.O.O.",
"O.O.O.O.O.O.O.O.O.O.$.E b.J.J.J.J.J.J.J.J.J.J.J.J.J.K.Q.'.|.|.|.|.|.|.|.|.|.^.K.J.J.J.J.J.J.J.a.<.%.W x.n.n.p.-.@.O.O.O.O.O.O.O.",
"O.O.O.O.O.O.O.O.O.O.$.E b.J.J.J.J.J.J.J.J.J.J.J.J.J.J.P.Q./.{.|.|.|.|.|.|.|.^.K.J.J.J.J.J.J.J.a.<.$.1.W f.b.! :.O.O.O.O.O.O.O.O.",
"O.O.O.O.O.O.O.O.O.O.&.E b.J.J.J.J.n.n.n.n.n.n.n.n.n.J.J.K.U.'.|.|.|.|.|.|.|.^.K.n.n.n.n.J.J.J.a.<.O.+.%.E x.! :.O.O.O.O.O.O.O.O.",
"O.O.O.O.O.O.O.O.+.:.P p.b.J.J.J.J.b.g.p.! ! ! ! a.x.n.J.J.P.Q.^.^.^.^.^.^.^.U.K.b.f.p.z.n.J.J.a.<.O.O.+.U x.! :.O.O.O.O.O.O.O.O.",
"O.O.O.O.O.O.O.O.;.E g.x.n.J.J.J.J.x.E -.:.:.:.:.P a.n.J.J.J.K.K.K.K.K.K.K.K.K.J.g.U 1.! b.J.J.a.<.O.O.+.U x.! :.O.O.O.O.O.O.O.O.",
"O.O.O.O.O.O.O.O.:.! n.J.J.J.J.b.z.! 1.@.O.O.O.O.:.! n.J.J.J.J.J.J.v.j.e.e.e.e.e.S f } R b.J.J.u.f [ [ ] J x.D d { o.O.O.O.O.O.O.",
"O.O.O.O.O.O.O.O.:.! n.J.J.J.J.g.E ,.#.O.O.O.O.O.:.! n.J.J.J.J.J.J.k.B h h h h h 3 - : N v.J.J.w.7 8 8 = n k.A 6 q [ O.O.O.O.O.O.",
"O.O.O.O.O.O.O.O.:.! n.J.J.J.J.a.<.O.O.O.O.O.o...=.D k.v.n.J.J.J.J.j.k X             + m v.v.k.V 1     X x k.V , # t ..o.O.O.O.O.",
"O.O.O.O.O.O.O.O.:.! n.J.J.J.J.a.<.O.O.O.O.O.{ r w 4 m e.v.J.J.J.J.j.k X             + m k.e.M h @     X x k.V , o * e ' o.O.O.O.",
"O.O.O.O.O.O.O.O.:.! b.n.n.J.J.a.<.O.O.O.o.o.y & . X > B v.J.J.n.v.t.k X             + m k.B , X X     X x k.V ,   . O e ..o.O.O.",
"O.O.O.O.O.O.O.O.#.P ! g.n.J.J.a.<.O.O.o.{ y 9 O + 1 x q.v.J.J.k.q.m , X             + m k.B @         X x k.V ,     . * r [ o.O.",
"O.O.O.O.O.O.O.O.@.$.:.Q b.J.J.a.<.O.O.o.t $ o . > M j.v.n.J.J.e.k @ X               + m k.B @         X x k.V ,       o # q  .O.",
"O.O.O.O.O.O.O.O.O.O.$.E b.x.f.E ;.O.O.o.e o     , V v.j.q.q.q.m >               X > h V k.B @         X x k.V ,         . 9  .O.",
"O.O.O.O.O.O.O.O.O.O.$.E x.s.P ;.X.O.O.o.e o     , V v.B 2 1 1 > X               @ x q.j.v.B @         X x k.V ,         . 9  .O.",
"O.O.O.O.O.O.O.O.O.O.$.E x.Q %.O.O.O.O.o.e o X + h q.k.x X                       , V v.k.t.m @         X k e.M >         . 9  .O.",
"O.O.O.O.O.O.O.O.O.O.$.E x.Q %.O.O.O.O.o.e o > x 0.j.k.x X                       , V v.0.z , X         X > h 1 +         . 9  .O.",
"O.O.O.O.O.O.O.O.O.O.$.E x.Q %.O.O.O.O.o.r O 3 e.v.v.j.z X                   X X 1 V t.z + X               X             . 9  .O.",
"O.O.O.O.O.O.O.O.O.O.$.E x.Q %.O.O.O.O.o.' e b y.k.0.x , X                   @ h x m x , X                               . 9  .O.",
"O.O.O.O.O.O.O.O.O.O.$.E x.Q | O.O.O.O.O.o...K d.t.k + X                     2 0.q.k + X                                 . 9  .O.",
"O.O.O.O.O.O.O.O.O.O.$.E x.D i y y y y y p g J Z m ,                         h e.e.h                                 . # 8 t ..O.",
"O.O.O.O.O.O.O.O.O.O.$.E l.Z ; $ $ $ $ % v u.Z j > X                         h e.e.h                                 . 9 '  .o.O.",
"O.O.O.O.O.O.O.O.O.O.X.P i.n - $ $ $ $ % c k.C 5 # .                     o # l r.e.h                             . O * y o.O.O.O.",
"O.O.O.O.O.O.O.O.O.O.@.;.1.d u y y y y u H l.S s e $                   . * r G y.e.h                             O 0 `  .o.O.O.O.",
"O.O.O.O.O.O.O.O.O.O.O.O.O.O.O.O.O.O.O.+.U x.D =.` *   . o o o o o o o O e ..1.p.w.4 o o o o o o o o o o o o o o * ` O.O.O.O.O.O.",
"O.O.O.O.O.O.O.O.O.O.O.O.O.O.O.O.O.O.O.+.U x.A a 8 O . & q e e e e e e r ' o.%.L K i e e e e e e e e e e e e e e y  .O.O.O.O.O.O.",
"O.O.O.O.O.O.O.O.O.O.O.O.O.O.O.O.O.O.O.+.I z.C < o . O e  .o.o.o.o.o.o.o.o.O.@.@.+.o.o.o.o.o.o.o.o.o.o.o.o.o.o.o.o.o.O.O.O.O.O.O.",
"O.O.O.O.O.O.O.O.O.O.O.O.O.O.O.O.O.O.O.@.<.E F w 9 9 q ' o.O.O.O.O.O.O.O.O.O.O.O.O.O.O.O.O.O.O.O.O.O.O.O.O.O.O.O.O.O.O.O.O.O.O.O.",
"O.O.O.O.O.O.O.O.O.O.O.O.O.O.O.O.O.O.O.O.+.#.#. . . . .o.O.O.O.O.O.O.O.O.O.O.O.O.O.O.O.O.O.O.O.O.O.O.O.O.O.O.O.O.O.O.O.O.O.O.O.O.",
"O.O.O.O.O.O.O.O.O.O.O.O.O.O.O.O.O.O.O.O.O.O.O.O.O.O.O.O.O.O.O.O.O.O.O.O.O.O.O.O.O.O.O.O.O.O.O.O.O.O.O.O.O.O.O.O.O.O.O.O.O.O.O.O."
};
