/* XPM */
static char *_[] = {
/* columns rows colors chars-per-pixel */
"64 64 228 2 ",
"   c #000100",
".  c #0C0100",
"X  c #010B00",
"o  c #0A0900",
"O  c #130000",
"+  c #1D0000",
"@  c #100800",
"#  c #011200",
"$  c #001A00",
"%  c #0D1A0D",
"&  c #161800",
"*  c gray9",
"=  c #191A19",
"-  c #230000",
";  c #2C0500",
":  c #340000",
">  c #390100",
",  c #380F00",
"<  c #261800",
"1  c #301400",
"2  c #032302",
"3  c #002D00",
"4  c #0B2900",
"5  c #132800",
"6  c #003600",
"7  c #003B00",
"8  c #083900",
"9  c #1F3900",
"0  c #362B00",
"q  c #283600",
"w  c #363736",
"e  c #4D0000",
"r  c #5B0100",
"t  c #530900",
"y  c #471900",
"u  c #650000",
"i  c #6C0000",
"p  c #650D00",
"a  c #790000",
"s  c #731200",
"d  c #482600",
"f  c #5B3900",
"g  c #6D3000",
"h  c #773500",
"j  c #004400",
"k  c #0F4200",
"l  c #004D00",
"z  c #154300",
"x  c #015501",
"c  c #005C00",
"v  c #0A5B00",
"b  c #1D5A10",
"n  c #295100",
"m  c #006100",
"M  c #036C00",
"N  c #176900",
"B  c #017401",
"V  c #0B7000",
"C  c #007C00",
"Z  c #167E00",
"A  c #317200",
"S  c #3A433A",
"D  c #397B39",
"F  c #4D4A00",
"G  c #654B00",
"H  c #7D4200",
"J  c #754A00",
"K  c #6B5300",
"L  c #655A00",
"P  c #7B5A00",
"I  c #406600",
"U  c #5A6500",
"Y  c #556B00",
"T  c #4C7400",
"R  c #437D00",
"E  c #4D7A00",
"W  c #5A7607",
"Q  c #646900",
"!  c #6D6C00",
"~  c #756100",
"^  c #657700",
"/  c #575A57",
"(  c #595A59",
")  c #536F53",
"_  c #676767",
"`  c #666866",
"'  c #6A6A6A",
"]  c #6A756A",
"[  c #747474",
"{  c #7B7B7B",
"}  c #840000",
"|  c #8B0000",
" . c #930000",
".. c #9D0200",
"X. c #941900",
"o. c #A30100",
"O. c #AC0000",
"+. c #A60A00",
"@. c #B20100",
"#. c #BF0000",
"$. c #B30B00",
"%. c #B80800",
"&. c #A41500",
"*. c #AC1300",
"=. c #A41B00",
"-. c #AA1B00",
";. c #B11200",
":. c #8E2E00",
">. c #942B00",
",. c #9C2A00",
"<. c #8A3500",
"1. c #873C00",
"2. c #963600",
"3. c #A42200",
"4. c #A12800",
"5. c #8B4300",
"6. c #844A00",
"7. c #825000",
"8. c #018401",
"9. c #008A00",
"0. c #0C8B00",
"q. c #138200",
"w. c #019400",
"e. c #0B9200",
"r. c #009B00",
"t. c #1A9600",
"y. c #298A00",
"u. c #398400",
"i. c #358A00",
"p. c #279400",
"a. c #2A9500",
"s. c #239B00",
"d. c #349B00",
"f. c #00A300",
"g. c #09A200",
"h. c #01AD00",
"j. c #0EAD00",
"k. c #1CA400",
"l. c #14AB00",
"z. c #18A900",
"x. c #01B300",
"c. c #0CB300",
"v. c #02BC00",
"b. c #08B900",
"n. c #0ABB0A",
"m. c #17B700",
"M. c #18AC18",
"N. c #13B613",
"B. c #38A800",
"V. c #38B400",
"C. c #34B900",
"Z. c #348434",
"A. c #3BAB26",
"S. c #26B726",
"D. c #3AA43A",
"F. c #498600",
"G. c #5B8500",
"H. c #558A00",
"J. c #4D9700",
"K. c #499D00",
"L. c #509400",
"P. c #43A500",
"I. c #41A800",
"U. c #00C100",
"Y. c #00CC00",
"T. c #0CC900",
"R. c #00D300",
"E. c #00DB00",
"W. c #0AD802",
"Q. c #19D900",
"!. c #16C016",
"~. c #2CC300",
"^. c #26CC00",
"/. c #23D000",
"(. c #01E300",
"). c #0DE604",
"_. c #00EB00",
"`. c #0DED00",
"'. c #13E500",
"]. c #10E900",
"[. c #02F400",
"{. c #0AF200",
"}. c #00FF00",
"|. c #0CF30C",
" X c #15E615",
".X c #12EC12",
"XX c #1BE31B",
"oX c #27C427",
"OX c #2BC32B",
"+X c #24DB24",
"@X c #2AD42A",
"#X c #28D828",
"$X c #34CB34",
"%X c #38C338",
"&X c #38D238",
"*X c #34F834",
"=X c #4E8F4E",
"-X c #43BC43",
";X c #49B349",
":X c #54AA54",
">X c #5BA45B",
",X c #6F8A6F",
"<X c #669866",
"1X c #6D936D",
"2X c #758675",
"3X c #758B75",
"4X c #6DB46B",
"5X c #4AC04A",
"6X c #57CA57",
"7X c #48FD48",
"8X c #5FF65F",
"9X c #7DC67D",
"0X c #78EF78",
"qX c #8C8C8C",
"wX c #889488",
"eX c #9C9C9C",
"rX c #8EAF8E",
"tX c #A7A9A7",
"yX c #B6B6B6",
"uX c #88CA88",
"iX c #84D384",
"pX c #82EE82",
"aX c #ADCAAD",
"sX c #B6FDB6",
"dX c #C5C6C5",
"fX c #D6D6D6",
"gX c #DADBDA",
"hX c #D4EFD4",
/* pixels */
"#.#.#.#.#.#.#.#.#.#.#.#.#.#.#.#.#.#.#.#.#.#.#.#.#.#.#.#.#.#.#.#.#.#.#.#.#.#.#.#.#.#.#.#.#.#.#.#.#.#.#.#.#.#.#.#.#.#.#.#.#.#.#.#.",
"#.#.#.#.#.#.#.#.#.#.#.#.#.#.#.#.#.#.#.#.#.#.$.-.4.4.4.4.4.4.4.-.%.#.#.#.#.#.#.#.#.#.#.#.#.#.#.#.#.#.#.#.#.#.#.#.#.#.#.#.#.#.#.#.",
"#.#.#.#.#.#.#.#.#.#.#.#.#.#.#.#.#.#.#.#.#.#.2.^ J.J.J.J.J.J.J.! ,.#.#.#.#.#.#.#.#.#.#.#.#.#.#.#.#.#.#.#.#.#.#.#.#.#.#.#.#.#.#.#.",
"#.#.#.#.#.#.#.#.#.#.#.#.#.%.$.;.;.;.;.;.;.;.~ ~.[.[.[.[.[.[.[.C.P 3.3.3.3.3.-.*.;.;.;.%.#.#.#.#.#.#.#.#.#.#.#.#.#.#.#.#.#.#.#.#.",
"#.#.#.#.#.#.#.#.#.#.#.#.%.,.~ ^ ^ ^ ^ ^ ^ ^ I.'.}.}.}.}.}.}.}.`.^.V.V.V.V.V.K.G.^ ^ ! 2.%.#.#.#.#.#.#.#.#.#.#.#.#.#.#.#.#.#.#.#.",
"#.#.#.#.#.#.#.#.#.#.#.#.%.P ~.'.'.'.'.'.'.'.`.[.}.}.}.}.}.}.}.}.}.[.[.[.[.[.{.].'.'./.! ;.#.#.#.#.#.#.#.#.#.#.#.#.#.#.#.#.#.#.#.",
"#.#.#.#.#.#.#.#.#.#.%.,.P K.'.}.}.}.}.}.}.}.}.}.}.}.}.}.}.}.}.}.}.}.}.}.}.}.}.}.}.}.{.~.L.^ ~ 1.-.#.#.#.#.#.#.#.#.#.#.#.#.#.#.#.",
"#.#.#.#.#.#.#.#.#.#.*.! C.Q.[.}.}.}.}.}.}.}.}.}.}.}.}.}.}.}.}.}.}.}.}.}.}.}.}.}.}.}.}.[.`.Q./.H.2.#.#.#.#.#.#.#.#.#.#.#.#.#.#.#.",
"#.#.#.#.#.#.#.#.$.3.6.P.{.}.}.}.}.}.}.}.}.}.}.}.}.}.}.}.}.}.}.}.}.}.}.}.}.}.}.}.}.}.}.}.}.}.}.^.! ,.*.#.#.#.#.#.#.#.#.#.#.#.#.#.",
"#.#.#.#.#.#.#.#.3.! B.Q.[.}.}.}.}.}.}.}.}.}.}.}.}.}.}.}.}.}.}.}.}.}.}.}.}.}.}.}.}.}.}.}.}.}.}.'.~.H.5.%.#.#.#.#.#.#.#.#.#.#.#.#.",
"#.#.#.#.#.#.#.#.2.I.}.}.}.}.}.}.}.}.}.}.}.}.}.}.}.}.}.}.}.}.}.}.}.}.}.}.}.}.}.}.}.}.}.}.}.}.}.}.}.Q.^ =.%.#.#.#.#.#.#.#.#.#.#.#.",
"#.#.#.#.#.#.#.#.2.I.}.}.}.}.}.}.}.}.}.}.}.}.}.}.}.}.}.}.}.}.}.}.}.}.}.}.}.}.}.}.}.}.}.}.}.}.}.}.}.].B.U <.$.#.#.#.#.#.#.#.#.#.#.",
"#.#.#.#.#.#.#.%.1.B.}.}.}.}.}.}.}.}.}.}.}.}.}.}.}.}.}.}.}.}.}.}.}.}.}.}.}.}.}.}.}.}.}.}.}.}.}.}.}.[.T.z.U *.#.#.#.#.#.#.#.#.#.#.",
"#.#.#.#.#.#.3.7.G.^.}.}.}.}.}.}.}.}.}.}.}.}.}.}.}.}.}.}.}.}.}.}.}.}.}.}.}.}.}.}.}.}.}.}.}.}.}.}.}.}._.T.F.-.#.#.#.#.#.#.#.#.#.#.",
"#.#.#.#.#.#.6.I.Q.{.}.}.}.}.}.}.}.}.}.}.}.}.}.}.}.}.}.}.}.}.}.}.}.}.}.}.}.}.}.}.}.}.}.}.}.}.}.}.}.}.}._.B.,.#.#.#.#.#.#.#.#.#.#.",
"#.#.#.%.3.5.G.Q.}.}.}.}.}.|.XX+X+X+X+X+X+X+X X|.}.}.}.}.}.}.}.}.}.}.}.}..X+X+X+X+X+X+X+X+X.X[.}.}.}.}.}.Q.H.6.-.#.#.#.#.#.#.#.#.",
"#.#.#.$.P I./.`.}.}.}.}.}.+X;X>X>X>X>X>X>X>X%X.X}.}.}.}.}.}.}.}.}.}.}.[.#X:X>X>X>X>X>X>X>X$X|.}.}.}.}.}.[.).B.5.#.#.#.#.#.#.#.#.",
"#.#.#.;.^ '.}.}.}.}.}.}.[.@X>X3XwXqX{ ' [ { >X@X.X[.}.}.}.}.}.}.}.}.|.XX-X3XqXqXqX{ ] ,X<X-X.X}.}.}.}.}.}.}.Q.Q &.%.#.#.#.#.#.#.",
"#.#.#.;.^ '.}.}.}.}.}.}.}..X@X6XaXyX[ w / { 1X:X%XXX}.}.}.}.}.}.}.|.@X;X<X2XeXyXtX_ S Z.%XXX|.}.}.}.}.}.}.}.W.d.L >.#.#.#.#.#.#.",
"#.#.%.3.G.'.}.}.}.}.}.}.}.}.[.7XsXfX_ * S ] 3X3X>X+X}.}.}.}.}.}.}..X-X1X3X3XtXgXdX( 2 8._.}.}.}.}.}.}.}.}.}._.Y.a.H #.#.#.#.#.#.",
"#.;.5.^ C.{.}.}.}.}.}.}.}.}.}.7XsXfX` % b D.-X-X$X X}.}.}.}.}.}.}.|.#X-X-X-XiXhXdX( $ 8._.}.}.}.}.}.}.}.}.}.[.(.m.L #.#.#.#.#.#.",
"#.3.G.Q.{.}.}.}.}.}.}.}.}.}.}.7XsXfX` % B W.|.|.|.[.}.}.}.}.}.}.}.}.|.|.|.|.8XhXdX/ $ 9._.}.}.}.}.}.}.}.}.}.}.}.W.W %.#.#.#.#.#.",
"#.3.F.(.[.}.}.}.}.}.}.}.}.}.}.*X0XuX=Xx w.E._.}.}.}.}.}.}.}.}.}.}.}.}.}.}.}.*XpXuXD x f.[.}.}.}.}.}.}.}.}.}.}._.W.d.1.=.%.#.#.#.",
"#.3.E T.(.}.}.}.}.}.}.}.}.}.}.|.#XOXM.r.x.Y.E.[.}.}.}.}.}.}.}.}.}.}.}.}.}.}..X#XoXM.f.Y.[.}.}.}.}.}.}.}.}.}._.E.Y.j.u.J %.#.#.#.",
"#.=.T b.R._.[.[.[.}.}.}.}.}.}.[.E.Y.Y.Y.Y.Y.E.[.}.}.}.}.}.}.}.}.}.}.}.}.}.}._.E.Y.Y.R._.}.}.}.}.}.}.}.}.}.[.(.Y.U.U.l.L $.#.#.#.",
"#.=.T b.Y.R.R.R.E.[.}.}.}.}.}.}._._._._._._.[.}.}.}.}.}.}.}.}.}.}.}.}.}.}.}.[._._._._.[.}.}.}.}.}.}.}.}._.E.Y.U.U.U.l.L $.#.#.#.",
"#.=.U z.b.U.U.U.Y.(.}.}.}.}.}.}.}.}.}.}.}.}.}.}.}.}.}.}.}.}.}.}.}.}.}.}.}.}.}.}.}.}.}.}.}.}.}.}.}.}.}.[.E.U.U.U.U.U.l.L $.#.#.#.",
"#.$.<.U a.b.U.U.U.R.E.E.E._.}.}.}.}.}.}.}.}.}.}.}.}.}.}.}.}.}.}.}.}.}.}.}.}.}.}.}.}.}.}.}.}.}.}.}.}._.E.Y.U.U.U.U.U.l.L $.#.#.#.",
"#.#.%.=.U l.U.U.U.U.U.U.U.E.[.}.}.}.}.}.}.}.}.}.}.}.}.}.}.}.}.}.}.}.}.[.[.[.[.[.[.}.}.}.}.}.}.}.}.[.E.U.U.U.Y.Y.U.U.l.L $.#.#.#.",
"#.#.#.$.L l.U.U.U.U.U.U.U.Y.E._.[.}.}.}.}.}.}.}.}.}.}.}.}.}.}.}.}.|.XX$X$X$X$X$X#X.X}.}.}.}.}.}.}.[.E.U.U.Y.Y.Y.U.U.l.L $.#.#.#.",
"#.#.#.$.L l.U.U.U.U.U.U.U.U.Y.E.[.}.}.}.}.}.}.}.}.}.}.}.}.}.}.}.}..X5X<X1X1X1X1X:X+X}.}.}.}.}.}.}.[.E.U.U.U.U.U.U.U.l.L $.#.#.#.",
"#.#.#.%.H R s.c.U.U.U.U.Y.Y.U.Y.(._._._._._.[.}.}.}.}.}.}.}.}.|.XX&X4XeXtXtXtXtXrX6X+X X_.[.}.}.[.(.R.U.U.U.U.U.c.s.R H %.#.#.#.",
"#.#.#.%.=.<.U k.U.U.b.m.E.E.U.U.Y.R.R.R.R.R.(.[.}.}.}.}.}.}.}.XX-X4XaXfXgXgXgXgXaXrX:XS.W.(.}.[.E.Y.U.U.U.U.U.U.k.U <.=.%.#.#.#.",
"#.#.#.#.#.#.H a.b.l.s.d.).E.Y.U.U.U.U.U.U.U.R._.[.[.[.[.[.[.[.#X>XqXyXfXfXfXfXfXdXeX3XD.n.R._.(.Y.U.U.U.U.v.c.z.R <.#.#.#.#.#.#.",
"#.#.#.#.#.#.H a.z.T K F.T.Y.U.U.U.U.U.U.U.U.Y.R.E.E.E.E.E.E.E.oX>X{ [ _ ` ` _ _ ' { 2XD.n.Y.R.R.U.U.U.U.U.v.s.U 1.=.#.#.#.#.#.#.",
"#.#.#.#.#.#.H a.a.J =.Y c.U.U.U.U.U.U.U.U.U.U.U.U.U.U.U.U.U.U.S.=X] S = * * * * w / ,XD.n.U.U.U.U.U.U.v.v.v.u.<.%.#.#.#.#.#.#.#.",
"#.#.#.#.#.#.H a.a.H *.U c.U.U.U.v.v.v.U.U.U.U.U.U.U.U.Y.E.R.U.N.D.=X) ( ( ( ( ( ) =XD.M.v.U.U.U.U.U.U.b.z.b.R >.#.#.#.#.#.#.#.#.",
"#.#.#.#.#.#.H a.a.H *.U c.U.U.U.U.U.U.U.U.U.U.U.U.U.U.E.[.(.Y.v.n.S.4XtXtXtXtXtXrX-Xn.v.v.U.U.U.U.U.U.c.a.c.R >.#.#.#.#.#.#.#.#.",
"#.#.#.#.#.#.H a.s.L K i.b.U.U.U.U.v.c.z.z.z.z.z.c.v.U.R.(.E.U.U.U.!.5X9X9X9X9X9X4XA.z.c.v.U.U.U.U.U.U.c.a.l.R >.#.#.#.#.#.#.#.#.",
"#.#.#.#.#.#.H a.s.u.s.c.v.U.U.U.U.l.R J J J J J T c.U.U.Y.Y.U.U.U.U.!.oXOXOXOXoXA.W K i.c.U.U.U.U.U.U.c.a.j.R >.#.#.#.#.#.#.#.#.",
"#.#.#.#.#.#.H a.k.a.v.U.U.U.U.b.z.R 1.%.#.#.@...f q.r.h.v.U.U.U.U.v.f.w.8.C B B N d p n 0.f.v.U.U.U.U.c.p.j.A g ..@.#.#.#.#.#.#.",
"#.#.#.#.#.#.H a.k.a.v.U.U.U.U.z.Y <.=.#.#.#. .r < 8 l 8.x.U.U.U.U.h.B j 3 $ $ $ # @ O 4 j B h.U.U.U.U.x.e.h.Z 0 r  .#.#.#.#.#.#.",
"#.#.#.#.#.#.H a.k.a.v.U.v.v.h.A h O.O.O.O.O.i -     # c f.x.v.U.U.f.l X                 X l f.U.U.v.x.f.8.r.B 2 - i O.@.#.#.#.#.",
"#.#.#.#.#.#.H a.k.a.v.U.v.w.M z y r r r r r : .     X 3 x 8.h.U.U.f.l                     l f.U.U.h.8.c j x 6 # . : u | #.#.#.#.",
"#.#.#.#.#.#.H a.k.p.x.v.v.C 3 X o . . . . .             # x f.U.U.f.l                     j r.v.v.f.x # X X X       + u O.#.#.#.",
"#.#.#.#.#.#.H a.t.n n e.x.w.c 6 #                         l f.U.U.f.l                     3 m 9.h.f.l               . : i  .@.#.",
"#.#.#.#.#.#.H a.w.k & M x.x.f.B 3                         l f.U.U.f.l                     X $ j w.f.l                 . - r o.#.",
"#.#.#.#.#.#.<.Y A 0 1 N x.v.v.e.9 > > : +               X l f.x.r.B 6                         6 9.f.l                     e o.#.",
"#.#.#.#.#.#.*.>.:.X.s I j.z.c.t.f | | a e .               l f.r.c 3 #                         6 9.f.l                     e o.#.",
"#.#.#.#.#.#.#.#.#.#.*.U z.a.z.i.<.#.#.@.u O               l f.w.l $ X                         6 9.f.l                     e o.#.",
"#.#.#.#.#.#.#.#.#.#.*.U z.a.z.i.<.#.#.@.u O $ #           l f.h.9.m 3                         6 9.f.l                     e o.#.",
"#.#.#.#.#.#.#.#.#.#.*.U z.a.z.i.<.#.#.@.i + 2 $           j w.x.x.r.l                       X 7 8.w.j                     e o.#.",
"#.#.#.#.#.#.#.#.#.#.*.U z.a.z.i.<.#.#.@.i > & #           3 x C f.f.l                     2 l c m x 3                     e o.#.",
"#.#.#.#.#.#.#.#.#.#.*.U z.a.z.i.<.#.#.O.u + o             X # j 9.f.l                     j w.8.7 # X                   . e o.#.",
"#.#.#.#.#.#.#.#.#.#.*.U l.t.j.y.f a u e ; .                   6 9.f.l                     l f.9.6                     O > a O.#.",
"#.#.#.#.#.#.#.#.#.#.*.U j.e.h.0.9 - O . o                     6 9.f.l                     l f.9.6                     ; } o.#.#.",
"#.#.#.#.#.#.#.#.#.#.*.L p.q.9.M 5 + .                         6 9.f.l X                   7 C M 3                   O e O.#.#.#.",
"#.#.#.#.#.#.#.#.#.#.*.L y.N l 4 & - O                         6 9.f.l                     $ 6 3 #               O > r } @.#.#.#.",
"#.#.#.#.#.#.#.#.#.#.*.L s.N & O O O O O o # X . .             6 9.f.l o . O . X X o       . O O O O O O O O O O > } #.#.#.#.#.#.",
"#.#.#.#.#.#.#.#.#.#.%.:.K g p u u u u r 0 v k < - .   + > > > q 0.g.n > e u t d 0 , > > > e r u u u u u u u u u a o.#.#.#.#.#.#.",
"#.#.#.#.#.#.#.#.#.#.#.%.$.$.@.@.@.@.@.+.G t.V 5 O . O r ..o...h i.s.G o.O.@.O.+.+.o.o.o.o.O.@.@.@.@.@.@.@.@.@.@.@.#.#.#.#.#.#.#.",
"#.#.#.#.#.#.#.#.#.#.#.#.#.#.#.#.#.#.#.%.<.U F y e e r | @.=.H L Y U >.%.#.#.#.#.#.#.#.#.#.#.#.#.#.#.#.#.#.#.#.#.#.#.#.#.#.#.#.#.",
"#.#.#.#.#.#.#.#.#.#.#.#.#.#.#.#.#.#.#.#.$.=.&.o.o.o.o.@.%.H i.R H =.$.#.#.#.#.#.#.#.#.#.#.#.#.#.#.#.#.#.#.#.#.#.#.#.#.#.#.#.#.#.",
"#.#.#.#.#.#.#.#.#.#.#.#.#.#.#.#.#.#.#.#.#.#.#.#.#.#.#.#.%.J k.i.<.#.#.#.#.#.#.#.#.#.#.#.#.#.#.#.#.#.#.#.#.#.#.#.#.#.#.#.#.#.#.#."
};
