/* XPM */
static char *_[] = {
/* columns rows colors chars-per-pixel */
"64 64 223 2 ",
"   c #000000",
".  c #0B0000",
"X  c #000C00",
"o  c #130100",
"O  c #1B0000",
"+  c #130D00",
"@  c #001300",
"#  c #0A1300",
"$  c #001C00",
"%  c #250000",
"&  c #2E0000",
"*  c #350000",
"=  c #3B0000",
"-  c #3A0C00",
";  c #351804",
":  c #002300",
">  c #002B00",
",  c #182C06",
"<  c #003400",
"1  c #0E3600",
"2  c #2D3A2D",
"3  c #420000",
"4  c #4D0000",
"5  c #550100",
"6  c #5B0000",
"7  c #570D00",
"8  c #551702",
"9  c #650000",
"0  c #6D0000",
"q  c #740000",
"w  c #7C0000",
"e  c #7D1700",
"r  c #4B3200",
"t  c #693700",
"y  c #004200",
"u  c #014D00",
"i  c #184E00",
"p  c #015400",
"a  c #005B00",
"s  c #244500",
"d  c #295A00",
"f  c #3C5900",
"g  c #006500",
"h  c #0C6105",
"j  c #006C00",
"k  c #007300",
"l  c #007D00",
"z  c #156F15",
"x  c #2F7200",
"c  c #554A00",
"v  c #4C5A00",
"b  c #6F4F00",
"n  c #7C4200",
"m  c #724D00",
"M  c #7D4A00",
"N  c #6C5300",
"B  c #655A00",
"V  c #7B5500",
"C  c #7C5900",
"Z  c #4D6000",
"A  c #576800",
"S  c #4C7300",
"D  c #427E00",
"F  c #5A7800",
"G  c #6F6900",
"H  c #746401",
"J  c #657700",
"K  c #647800",
"L  c #6D7922",
"P  c #795959",
"I  c #72746F",
"U  c #830000",
"Y  c #8D0000",
"T  c #8A0D00",
"R  c #950000",
"E  c #9D0000",
"W  c #A20000",
"Q  c #AC0000",
"!  c #A50D00",
"~  c #B30200",
"^  c #BF0000",
"/  c #B30C00",
"(  c #B80800",
")  c #AC1400",
"_  c #A11C00",
"`  c #AB1B00",
"'  c #B11200",
"]  c #842500",
"[  c #9B2300",
"{  c #952A00",
"}  c #9D2C00",
"|  c #813300",
" . c #893600",
".. c #843B00",
"X. c #963601",
"o. c #993100",
"O. c #913C00",
"+. c #A42300",
"@. c #A12900",
"#. c #9E3A38",
"$. c #8D4200",
"%. c #854C00",
"&. c #894800",
"*. c #825000",
"=. c #8C532B",
"-. c #8C4949",
";. c #917876",
":. c #008500",
">. c #018B00",
",. c #1C8A00",
"<. c #019500",
"1. c #0B9600",
"2. c #019B00",
"3. c #1B9600",
"4. c #378400",
"5. c #3B8400",
"6. c #358B00",
"7. c #2A9600",
"8. c #249C00",
"9. c #00A300",
"0. c #01AC00",
"q. c #0DAC00",
"w. c #1DA300",
"e. c #13AC00",
"r. c #00B300",
"t. c #0BB400",
"y. c #02BC00",
"u. c #0DBA0D",
"i. c #10B900",
"p. c #17B716",
"a. c #2AAA00",
"s. c #3DA800",
"d. c #2ABE00",
"f. c #35B700",
"g. c #369036",
"h. c #35A635",
"j. c #31B431",
"k. c #5A8600",
"l. c #568A00",
"z. c #4E9600",
"x. c #479F01",
"c. c #4C9900",
"v. c #519200",
"b. c #43A500",
"n. c #41A800",
"m. c #43AC15",
"M. c #00C000",
"N. c #00CC00",
"B. c #0AC805",
"V. c #13CD00",
"C. c #01D501",
"Z. c #00DA00",
"A. c #0BDE09",
"S. c #19DC00",
"D. c #17C417",
"F. c #1BC51A",
"G. c #19DB17",
"H. c #2AC600",
"J. c #26CC00",
"K. c #29C800",
"L. c #22D100",
"P. c #24D20B",
"I. c #00E400",
"U. c #00EA00",
"Y. c #0DED00",
"T. c #0BEB0B",
"R. c #13E400",
"E. c #10E900",
"W. c #02F401",
"Q. c #09F300",
"!. c #00FF00",
"~. c #0DF10D",
"^. c #17E717",
"/. c #14EB14",
"(. c #1DE21D",
"). c #27CA27",
"_. c #38C32B",
"`. c #25DB25",
"'. c #2BD32B",
"]. c #34C534",
"[. c #33CC33",
"{. c #3BC53B",
"}. c #30D630",
"|. c #5A9E46",
" X c #5C9E5C",
".X c #74835B",
"XX c #46B646",
"oX c #4DB24D",
"OX c #52AC52",
"+X c #688E68",
"@X c #649C64",
"#X c #6C946C",
"$X c #7A967A",
"%X c #6ABE6A",
"&X c #70AF70",
"*X c #46CD46",
"=X c #47D947",
"-X c #72CC72",
";X c #78DC78",
":X c #61E061",
">X c #9F8A8A",
",X c #969D96",
"<X c #80B380",
"1X c #99A899",
"2X c #A4A4A4",
"3X c #B3A5A5",
"4X c #C1B9B9",
"5X c #9FC19F",
"6X c #86E186",
"7X c #A8CFA8",
"8X c #B8CBB8",
"9X c #ABEAAB",
"0X c #C1C1C1",
"qX c #C8D6C8",
"wX c #D3D4D2",
"eX c #D5DED5",
"rX c #DBDBDB",
"tX c #CDE9CD",
"yX c #E9E9E9",
"uX c #EAF2EA",
"iX c #EDFAED",
"pX c #F3F5F3",
"aX c #FEFEFE",
/* pixels */
"^ ^ ^ ^ ^ ^ ^ ^ ^ ^ ^ ^ ^ ^ ^ ^ ^ ^ ^ ^ ^ ^ ^ ^ ^ ^ ^ ^ ^ ^ ^ ^ ^ ^ ^ ^ ^ ^ ^ ^ ^ ^ ^ ^ ^ ^ ^ ^ ^ ^ ^ ^ ^ ^ ^ ^ ^ ^ ^ ^ ^ ^ ^ ^ ",
"^ ^ ^ ^ ^ ^ ^ ^ ^ ^ ^ ^ ^ ^ ^ ^ ^ ^ ^ ^ ^ ^ ^ ^ ^ ^ ^ ^ ^ ^ ^ ^ ^ ^ ^ ^ ^ ^ ^ ^ ^ ^ ^ ^ ^ ^ ^ ^ ^ ^ ^ ^ ^ ^ ^ ^ ^ ^ ^ ^ ^ ^ ^ ^ ",
"^ ^ ^ ^ ^ ^ ^ ^ ^ ^ ^ ^ ^ ^ ^ ^ ^ ^ ^ ^ ^ ^ ^ ^ ^ ^ ^ ^ ^ ^ ^ ^ ^ ^ ^ ^ ^ ^ ^ ^ ^ ^ ^ ^ ^ ^ ^ ^ ^ ^ ^ ^ ^ ^ ^ ^ ^ ^ ^ ^ ^ ^ ^ ^ ",
"^ ^ ^ ^ ^ ^ ^ ^ ^ ^ ^ ^ ^ ^ ^ ^ ^ ^ ^ ^ ^ ^ ^ ^ ^ ^ ^ ^ ^ ( / ' ' ' ' ' ' ' / ^ ^ ^ ^ ^ ^ ^ ^ ^ ^ ^ ^ ^ ^ ^ ^ ^ ^ ^ ^ ^ ^ ^ ^ ^ ",
"^ ^ ^ ^ ^ ^ ^ ^ ^ ^ ^ ^ ^ ^ ^ ^ ^ ^ ^ ^ ^ ^ ^ ^ ^ ^ ^ ^ ( o.H J J J J J J J %.` ^ ^ ^ ^ ^ ^ ^ ^ ^ ^ ^ ^ ^ ^ ^ ^ ^ ^ ^ ^ ^ ^ ^ ^ ",
"^ ^ ^ ^ ^ ^ ^ ^ ^ ^ ^ ^ ^ ^ ^ ^ ^ ^ ^ ^ ^ ^ ^ ^ ^ ^ ^ ^ / C H.R.R.R.R.R.R.R.z.o.^ ^ ^ ^ ^ ^ ^ ^ ^ ^ ^ ^ ^ ^ ^ ^ ^ ^ ^ ^ ^ ^ ^ ^ ",
"^ ^ ^ ^ ^ ^ ^ ^ ^ ^ ^ ^ ^ ^ ^ ^ ^ ^ ^ ( @.%.C C C C C C C c.R.!.!.!.!.!.!.!.H.K C C C C C C C C C %.+.^ ^ ^ ^ ^ ^ ^ ^ ^ ^ ^ ^ ^ ",
"^ ^ ^ ^ ^ ^ ^ ^ ^ ^ ^ ^ ^ ^ ^ ^ ^ ^ ^ / C f.H.H.H.H.H.H.K.S.Q.!.!.!.!.!.!.!.Y.L.H.H.H.H.H.H.H.H.H.n.*.( ^ ^ ^ ^ ^ ^ ^ ^ ^ ^ ^ ^ ",
"^ ^ ^ ^ ^ ^ ^ ^ ^ ^ ^ ^ ^ ^ ^ ^ ^ ( +.$.z.Y.!.!.!.!.!.!.!.!.!.!.!.!.!.!.!.!.!.!.!.!.!.!.!.!.!.!.!.S.k.O.` ( ^ ^ ^ ^ ^ ^ ^ ^ ^ ^ ",
"^ ^ ^ ^ ^ ^ ^ ^ ^ ^ ^ ^ ^ ^ ^ ^ ^ ` H n.L.Q.!.!.!.!.!.!.!.!.!.!.!.!.!.!.!.!.!.!.!.!.!.!.!.!.!.!.!.Q.J.x.C ' ^ ^ ^ ^ ^ ^ ^ ^ ^ ^ ",
"^ ^ ^ ^ ^ ^ ^ ^ ^ ^ ^ ^ ^ ^ ^ ( ' O.b.Q.!.!.!.!.!.!.!.!.!.!.!.!.!.!.!.!.!.!.!.!.!.!.!.!.!.!.!.!.!.!.!.Y.v.o.` ` ) ( ^ ^ ^ ^ ^ ^ ",
"^ ^ ^ ^ ^ ^ ^ ^ ^ ^ ^ ^ ^ ^ ^ @.H c.J.!.!.!.!.!.!.!.!.!.!.!.!.!.!.!.!.!.!.!.!.!.!.!.!.!.!.!.!.!.!.!.!.Q.H.v.k.k.G } ^ ^ ^ ^ ^ ^ ",
"^ ^ ^ ^ ^ ^ ^ ^ ^ ^ ^ ^ ^ ^ ^ $.s.Q.Q.!.!.!.!.!.!.!.!.!.!.!.!.!.!.!.!.!.!.!.!.!.!.!.!.!.!.!.!.!.!.!.!.!.Q.Y.Y.Y.f.*.^ ^ ^ ^ ^ ^ ",
"^ ^ ^ ^ ^ ^ ^ ^ ^ ^ ^ ^ ^ ^ ^ &.f.!.!.!.!.!.!.!.!.!.!.(.[.[.[.`.~.!.!.!.!.!.!.!.!.!.!.!.!.!.!.~.`.[.[.[.(.!.!.!.H.C ^ ^ ^ ^ ^ ^ ",
"^ ^ ^ ^ ^ ^ ^ ^ ^ ^ ^ ^ ^ ^ ^ &.f.!.!.!.!.!.!.!.!.!.~.{.@X#X#XoX(.!.!.!.!.!.!.!.!.!.!.!.!.!.!.(.oX#X#X@X{.~.!.!.H.C ^ ^ ^ ^ ^ ^ ",
"^ ^ ^ ^ ^ ^ ^ ^ ^ ^ ^ ^ ^ ` O.K J.!.!.!.!.!.!.!.Q.^.}.%X1X2X2X<X*X(.~.!.!.!.!.!.!.!.!.!.!.~.(.*X<X2X2X1X%X}.^.Q.S.k.$.+.( ^ ^ ^ ",
"^ ^ ^ ^ ^ ^ ^ ^ ^ ^ ^ ^ ( %.c.J.Y.!.!.!.!.!.!.!./.{.&X5XwXrXrX8X<XoX`.!.!.!.!.!.!.!.!.!.!.`.oX<X8XrXrXwX5X&X{./.Y.L.n.V / ^ ^ ^ ",
"^ ^ ^ ^ ^ ^ ^ ^ ^ ^ ^ ) } F S.!.!.!.!.!.!.!.!.!.^.XX$X8XpXuXrX4X>X.X_.!.!.!.!.!.!.!.!.!.!.'. X1XeXpXyXwX3X;.|.G.!.!.E.l.X.) ( ^ ",
"^ ^ ^ ^ ^ ^ ^ ^ ^ ^ / *.v.H.Y.!.!.!.!.!.!.!.!.!.T.).XX7XuX0XI P -.=.m.Q.!.!.!.!.!.!.!.!.!.G.j.%XtXyX2XI -.#.L P.!.!.Q.K.c.C ) ^ ",
"^ ^ ^ ^ ^ ^ ^ ^ ^ ^ ` k.R.W.!.!.!.!.!.!.!.!.!.!.W.C.F.6XtX,X2 ; T X.x.Q.!.!.!.!.!.!.!.!.!.I.N.*X9XqXI , 8 _ H J.!.!.!.W.Y.v.@.^ ",
"^ ^ ^ ^ ^ ^ ^ ^ ^ ^ ` k.Y.!.!.!.!.!.!.!.!.!.!.!.W.U.A.=X;XOXz d v F d.W.!.!.!.!.!.!.!.!.!.W.I.`.:X-Xg.h x F n.R.!.!.!.!.Q.z.@.^ ",
"^ ^ ^ ^ ^ ^ ^ ^ ^ ^ ` k.Y.!.!.!.!.!.!.!.!.!.!.!.!.!.W.A.D.u.r.0.q.i.Z.!.!.!.!.!.!.!.!.!.!.!.!.T.G.D.u.r.B.S.Y.W.!.!.!.!.Q.c.} ^ ",
"^ ^ ^ ^ ^ ^ ^ ^ / { b s.Q.!.!.!.!.!.!.!.!.!.!.!.!.!.!.U.Z.C.C.C.C.Z.U.!.!.!.!.!.!.!.!.!.!.!.!.W.I.C.C.Z.U.!.!.!.!.!.!.!.W.f.J C ",
"^ ^ ^ ^ ^ ^ ^ ^ [ A 8.V.W.!.!.!.!.!.!.!.!.!.!.!.!.!.!.W.W.W.W.W.W.W.!.!.!.!.!.!.!.!.!.!.!.!.!.!.W.W.W.W.W.!.!.!.!.!.!.!.!.E.L.H.",
"^ ^ ^ ^ ^ ^ ^ ^ { D M.Z.U.W.!.!.!.!.!.!.!.!.!.!.!.!.!.!.!.!.!.!.!.!.!.!.!.!.!.!.!.!.!.!.!.!.!.!.!.!.!.!.!.!.!.!.!.!.!.!.!.!.!.!.",
"^ ^ ^ ^ ^ ^ ^ ^ { D M.N.C.I.!.!.!.!.!.!.!.!.!.!.!.!.!.!.!.!.!.!.!.!.!.!.!.!.!.!.!.!.!.!.!.!.!.!.!.!.!.!.!.!.!.!.!.!.!.!.!.!.!.!.",
"^ ^ ^ ^ ^ ^ ^ ^ { D y.M.M.Z.W.!.!.!.!.!.!.!.!.!.!.!.!.!.!.!.!.!.!.!.!.!.!.!.!.!.!.!.!.!.!.!.!.!.!.!.!.!.!.!.!.!.!.!.!.!.!.Q.E.R.",
"^ ^ ^ ^ ^ ^ ^ ^ { D y.M.M.Z.W.!.!.!.!.!.!.!.!.!.!.!.!.!.!.!.!.!.!.!.!.!.!.!.!.!.!.!.!.!.!.!.!.!.!.!.!.!.!.!.!.!.!.!.!.!.W.K.l.J ",
"^ ^ ^ ^ ^ ^ ^ ^ { D y.M.M.C.W.!.!.!.!.!.!.!.!.!.!.!.!.!.!.!.!.!.!.!.!.!.!.!.!.!.!.!.!.!.!.!.!.!.!.!.!.!.!.!.!.!.!.!.!.W.Y.c.X.' ",
"^ ^ ^ ^ ^ ^ ^ ^ { D y.M.M.N.Z.I.I.I.I.I.I.I.U.!.!.!.!.!.!.!.!.!.!.!.!.!.!.!.!.!.~.`.[.[.[.[.[.`.~.!.!.!.!.!.!.!.!.!.Q.K.c.C ) ^ ",
"^ ^ ^ ^ ^ ^ ^ ^ { D y.M.M.M.N.N.N.N.N.N.N.N.Z.W.!.!.!.!.!.!.!.!.!.!.!.!.!.!.!.!.^.XX#X#X#X#X#XoX(.!.!.!.!.!.!.!.!.!.E.l.X.) ( ^ ",
"^ ^ ^ ^ ^ ^ ^ ^ _ B 6.w.y.M.M.M.M.t.w.7.w.y.N.I.W.!.!.!.!.!.!.!.!.!.!.!.!.!.~.(.*X&X2X2X2X2X2X<X*X(.~.!.!.!.!.!.Y.L.n.V / ^ ^ ^ ",
"^ ^ ^ ^ ^ ^ ^ ^ / [ n D t.M.M.M.M.e.S n S t.M.N.Z.U.!.!.!.!.!.!.!.!.!.!.!.!.(.XX&X8XrXrXrXrXrX8X<XoX`.!.!.!.!.!.S.k.$.+.( ^ ^ ^ ",
"^ ^ ^ ^ ^ ^ ^ ^ ^ ^ ) N 7.e.y.M.M.w.m ) B e.M.M.N.I.W.W.W.!.!.!.!.!.!.!.!.!.'.@X,XwXaXaXaXaXaXrX2X#X].Q.W.W.W.W.d.V ^ ^ ^ ^ ^ ^ ",
"^ ^ ^ ^ ^ ^ ^ ^ ^ ^ / { m D e.M.M.w.m ) B e.M.M.M.C.Z.Z.Z.U.!.!.!.!.!.!.!.!.'.@X,XwXaXaXaXaXaXrX2X#Xj.C.Z.Z.Z.Z.a.M ^ ^ ^ ^ ^ ^ ",
"^ ^ ^ ^ ^ ^ ^ ^ ^ ^ ^ ( / N w.y.t.7.m ) B e.M.M.M.M.M.M.M.Z.W.!.!.!.!.!.!.!.'. X,XqXiXiXiXiXiXqX1X+Xh.M.M.M.M.M.7.n ^ ^ ^ ^ ^ ^ ",
"^ ^ ^ ^ ^ ^ ^ ^ ^ ^ ^ ^ ( m w.w.D N { ) B e.M.M.M.M.M.M.M.Z.W.!.!.!.!.!.!.!.G.j.OX-X6X6X6X6X6X-XOXh.p.y.M.M.M.M.7.n ^ ^ ^ ^ ^ ^ ",
"^ ^ ^ ^ ^ ^ ^ ^ ^ ^ ^ ^ ( m w.6.n ) / / B e.M.M.y.y.y.y.M.Z.W.!.!.!.!.!.!.!.I.B.u.D.F.F.F.F.F.D.u.u.y.y.M.M.M.M.7.n ^ ^ ^ ^ ^ ^ ",
"^ ^ ^ ^ ^ ^ ^ ^ ^ ^ ^ ^ ( m w.6. .^ ^ / B e.M.M.t.7.5.w.y.C.I.U.U.U.U.U.U.U.Z.N.M.y.y.8.5.D D D D 6.w.y.M.M.M.M.w.S .._ ( ^ ^ ^ ",
"^ ^ ^ ^ ^ ^ ^ ^ ^ ^ ^ ^ ( m w.6. .^ ^ / B e.M.M.8.B  .D t.M.N.N.N.N.N.N.N.N.N.M.y.y.t.S  .{ { { { n 5.y.M.M.M.M.t.w.5.n / ^ ^ ^ ",
"^ ^ ^ ^ ^ ^ ^ ^ ^ ^ ^ ^ ( m w.6. .^ ^ / B e.M.M.7.n ) b 6.7.7.3.1.2.0.y.M.M.M.M.y.M.q.v T R R R R e f <.0.y.y.M.M.M.e.B / ^ ^ ^ ",
"^ ^ ^ ^ ^ ^ ^ ^ ^ ^ ^ ^ ( m w.6. .^ ^ / B e.M.M.7.n / [ ..n n c s p >.y.M.M.M.M.M.M.0.d - 3 3 3 3 - , u l r.y.y.M.M.e.B / ^ ^ ^ ",
"^ ^ ^ ^ ^ ^ ^ ^ ^ ^ ^ ^ ( m w.6. .^ ^ / N 7.t.y.7.n ^ ~ Q Q Q w & $ k y.M.M.M.M.y.r.2.p X             X a 0.M.y.M.M.e.B ! ~ ^ ^ ",
"^ ^ ^ ^ ^ ^ ^ ^ ^ ^ ^ ^ ( m w.6. .^ ^ ( { N D e.7.n ~ Y 9 6 6 3 O $ k y.M.M.M.M.0.l p >               X a 0.M.M.M.M.q.d 7 U Q ^ ",
"^ ^ ^ ^ ^ ^ ^ ^ ^ ^ ^ ^ ( m w.6. .^ ^ ^ ( / m 7.7.n W 6 O . . .   $ j r.y.y.M.M.2.u @ X               X a 0.M.M.y.y.9.p + 5 E ~ ",
"^ ^ ^ ^ ^ ^ ^ ^ ^ ^ ^ ^ ( m w.6. .^ ^ ^ ^ ^ n 7.3.c 9 * .         @ y k <.y.M.M.9.k y :               X a 0.M.M.0.>.g < X & 6 q ",
"^ ^ ^ ^ ^ ^ ^ ^ ^ ^ ^ ^ ( m w.6. .^ ^ ^ ^ ^ n 7.<.i O .             @ > j 0.M.M.y.0.<.u X             X a 0.M.M.2.p $ X   . O O ",
"^ ^ ^ ^ ^ ^ ^ ^ ^ ^ ^ ^ (  .S A [ ^ ^ ^ ^ ^ n 7.9.g < $               X y l >.>.<.0.0.a X             X y l 2.r.<.y             ",
"^ ^ ^ ^ ^ ^ ^ ^ ^ ^ ^ ^ ^ ) { [ ' ^ ^ ^ ^ ^ n 7.r.2.l y X               $ < < < p <.0.a X               $ < g 9.<.y             ",
"^ ^ ^ ^ ^ ^ ^ ^ ^ ^ ^ ^ ^ ^ ^ ~ Q W W W W E t x 0.r.0.a X                       > l 0.j > @                 y <.<.y             ",
"^ ^ ^ ^ ^ ^ ^ ^ ^ ^ ^ ^ ^ ^ ^ E 0 4 4 4 4 4 ; 1 g 2.0.a X                       > l r.<.k y @               y <.<.y             ",
"^ ^ ^ ^ ^ ^ ^ ^ ^ ^ ^ ^ ^ ^ ^ Y 3 o o o o o .   > k 9.a $ X                     : k r.r.r.j $               y <.<.y             ",
"^ ^ ^ ^ ^ ^ ^ ^ ^ ^ ^ ^ ^ ^ ^ W q 6 6 6 6 6 = o @ y g a p < X                   @ y j <.r.k $               y <.<.y             ",
"^ ^ ^ ^ ^ ^ ^ ^ ^ ^ ^ ^ ^ ^ ^ ^ ~ Q Q Q Q Q q %   X : g 2.g $                     X : j 0.k :               y <.<.y             ",
"^ ^ ^ ^ ^ ^ ^ ^ ^ ^ ^ ^ ^ ^ ^ ^ ^ ^ ^ ^ ^ ^ R 6 * o X s x s #                       X y k g u < @           > g g >       O * 3 ",
"^ ^ ^ ^ ^ ^ ^ ^ ^ ^ ^ ^ ^ ^ ^ ^ ^ ^ ^ ^ ^ ^ ~ E q * o 8 ] 8 o                         @ > p :.j >           X : : X       = w R ",
"^ ^ ^ ^ ^ ^ ^ ^ ^ ^ ^ ^ ^ ^ ^ ^ ^ ^ ^ ^ ^ ^ ^ ^ E 6 = w Q U 3 O .                         u 9.>.<                     o & 9 W ^ ",
"^ ^ ^ ^ ^ ^ ^ ^ ^ ^ ^ ^ ^ ^ ^ ^ ^ ^ ^ ^ ^ ^ ^ ^ ~ R U W ^ W U 6 %                         u 9.>.<                   . 3 q R ~ ^ ",
"^ ^ ^ ^ ^ ^ ^ ^ ^ ^ ^ ^ ^ ^ ^ ^ ^ ^ ^ ^ ^ ^ ^ ^ ^ ^ ^ ^ ^ ^ ^ Y 3 o o o o o o o o o o .   u 9.>.1 o o o o o o o o o % 0 ~ ^ ^ ^ ",
"^ ^ ^ ^ ^ ^ ^ ^ ^ ^ ^ ^ ^ ^ ^ ^ ^ ^ ^ ^ ^ ^ ^ ^ ^ ^ ^ ^ ^ ^ ^ W w 9 9 9 9 9 9 9 9 9 6 &   u 9.,.r 9 9 9 9 9 9 9 9 9 0 R ^ ^ ^ ^ ",
"^ ^ ^ ^ ^ ^ ^ ^ ^ ^ ^ ^ ^ ^ ^ ^ ^ ^ ^ ^ ^ ^ ^ ^ ^ ^ ^ ^ ^ ^ ^ ^ ~ ~ ~ ~ ~ ~ ~ ~ ~ ~ W 5 o u 2.4.| ~ ~ ~ ~ ~ ~ ~ ~ ~ ~ ^ ^ ^ ^ ^ ",
"^ ^ ^ ^ ^ ^ ^ ^ ^ ^ ^ ^ ^ ^ ^ ^ ^ ^ ^ ^ ^ ^ ^ ^ ^ ^ ^ ^ ^ ^ ^ ^ ^ ^ ^ ^ ^ ^ ^ ^ ^ ^ ~ U 5 r Z N [ ^ ^ ^ ^ ^ ^ ^ ^ ^ ^ ^ ^ ^ ^ ^ ",
"^ ^ ^ ^ ^ ^ ^ ^ ^ ^ ^ ^ ^ ^ ^ ^ ^ ^ ^ ^ ^ ^ ^ ^ ^ ^ ^ ^ ^ ^ ^ ^ ^ ^ ^ ^ ^ ^ ^ ^ ^ ^ ^ Q W ! _ ) / ^ ^ ^ ^ ^ ^ ^ ^ ^ ^ ^ ^ ^ ^ ^ ",
"^ ^ ^ ^ ^ ^ ^ ^ ^ ^ ^ ^ ^ ^ ^ ^ ^ ^ ^ ^ ^ ^ ^ ^ ^ ^ ^ ^ ^ ^ ^ ^ ^ ^ ^ ^ ^ ^ ^ ^ ^ ^ ^ ^ ^ ^ ^ ^ ^ ^ ^ ^ ^ ^ ^ ^ ^ ^ ^ ^ ^ ^ ^ ^ "
};
