/* XPM */
static char *monster_left2[] = {
/* columns rows colors chars-per-pixel */
"64 64 235 2 ",
"   c #000000",
".  c #0C0100",
"X  c #000B00",
"o  c #130100",
"O  c #190600",
"+  c #001400",
"@  c #0F1300",
"#  c #001C00",
"$  c #191A00",
"%  c #230000",
"&  c #2A0100",
"*  c #270D00",
"=  c #350400",
"-  c #380000",
";  c #271900",
":  c #002300",
">  c #0A2400",
",  c #002B00",
"<  c #1A2800",
"1  c #023400",
"2  c #013C00",
"3  c #242700",
"4  c #382300",
"5  c #222F21",
"6  c #480000",
"7  c #530000",
"8  c #5A0000",
"9  c #461705",
"0  c #551C00",
"q  c #640000",
"w  c #6A0700",
"e  c #760600",
"r  c #7D0000",
"t  c #6B1600",
"y  c #452A00",
"u  c #6F2D00",
"i  c #7C3600",
"p  c #004200",
"a  c #014A00",
"s  c #0B4B00",
"d  c #1E4E00",
"f  c #005400",
"g  c #0A5500",
"h  c #005B00",
"j  c #165800",
"k  c #254800",
"l  c #384A00",
"z  c #275A00",
"x  c #335B00",
"c  c #006600",
"v  c #006B00",
"b  c #0C6809",
"n  c #1E6F00",
"m  c #007200",
"M  c #007E00",
"N  c #0D7C00",
"B  c #167900",
"V  c #296600",
"C  c #366700",
"Z  c #2A7800",
"A  c #377700",
"S  c #4C4A00",
"D  c #5B4200",
"F  c #495A00",
"G  c #5F5E00",
"H  c #6F4F00",
"J  c #7E4100",
"K  c #734B00",
"L  c #655600",
"P  c #6A5500",
"I  c #655A00",
"U  c #785A00",
"Y  c #7B5B00",
"T  c #5A6500",
"R  c #536C00",
"E  c #4C7300",
"W  c #437D00",
"Q  c #4F7E00",
"!  c #537B06",
"~  c #696A00",
"^  c #726600",
"/  c #657500",
"(  c #697200",
")  c #627A00",
"_  c #7D5656",
"`  c #777676",
"'  c #850000",
"]  c #950000",
"[  c #9B0000",
"{  c #921804",
"}  c #A50000",
"|  c #AC0000",
" . c #A60B00",
".. c #AD0E00",
"X. c #B30000",
"o. c #BF0000",
"O. c #B40C00",
"+. c #B80800",
"@. c #A41500",
"#. c #AB1400",
"$. c #A31C00",
"%. c #AB1A00",
"&. c #B11200",
"*. c #882D00",
"=. c #9C2300",
"-. c #952A00",
";. c #9C2B00",
":. c #8B3400",
">. c #883B00",
",. c #953600",
"<. c #953700",
"1. c #A62100",
"2. c #A12900",
"3. c #983F3F",
"4. c #864A02",
"5. c #815200",
"6. c #816028",
"7. c #018300",
"8. c #008A00",
"9. c #088B00",
"0. c #188800",
"q. c #009600",
"w. c #089600",
"e. c #009B00",
"r. c #1C9600",
"t. c #368700",
"y. c #3A8400",
"u. c #358B00",
"i. c #2B9400",
"p. c #249B00",
"a. c #00A400",
"s. c #01AB00",
"d. c #0EAC00",
"f. c #1BA400",
"g. c #13AC00",
"h. c #18A800",
"j. c #01B300",
"k. c #0BB400",
"l. c #02BD00",
"z. c #0BBB00",
"x. c #0CBA0C",
"c. c #19B419",
"v. c #2BAC00",
"b. c #33AB00",
"n. c #3DAD00",
"m. c #2EBB00",
"M. c #33B700",
"N. c #38B300",
"B. c #39B911",
"V. c #2BAA2B",
"C. c #34B22A",
"Z. c #578600",
"A. c #548E00",
"S. c #4D9600",
"D. c #4B9900",
"F. c #539000",
"G. c #41A800",
"H. c #00C000",
"J. c #00CB00",
"K. c #1ECF00",
"L. c #00D400",
"P. c #00DC00",
"I. c #0DDB07",
"U. c #1AD500",
"Y. c #1AC51A",
"T. c #1EDE1E",
"R. c #28C700",
"E. c #26CB00",
"W. c #23D000",
"Q. c #00E400",
"!. c #0CE504",
"~. c #00EC00",
"^. c #0CEE00",
"/. c #12E500",
"(. c #10E900",
"). c #01F300",
"_. c #0AF200",
"`. c #00FF00",
"'. c #0BF40B",
"]. c #0FFF0F",
"[. c #14EA14",
"{. c #1CE21C",
"}. c #16FB16",
"|. c #2CC825",
" X c #25D325",
".X c #24DB24",
"XX c #34CC34",
"oX c #3CC33C",
"OX c #38CE38",
"+X c #38D238",
"@X c #27F527",
"#X c #4E994E",
"$X c #599859",
"%X c #6B8C54",
"&X c #48A848",
"*X c #43BC43",
"=X c #49B449",
"-X c #55A855",
";X c #5CA45C",
":X c #648E64",
">X c #6A956A",
",X c #6FB06F",
"<X c #70BA70",
"1X c #78B378",
"2X c #40CD40",
"3X c #56D556",
"4X c #50F650",
"5X c #6ED06D",
"6X c #78F378",
"7X c #878887",
"8X c #9B8383",
"9X c #829182",
"0X c #939393",
"qX c #939E93",
"wX c #83A483",
"eX c #9EA69E",
"rX c #A4A5A4",
"tX c #B8B4B4",
"yX c #87DB87",
"uX c #8DFC8D",
"iX c #98EC98",
"pX c #ACC7AC",
"aX c #B6D0B6",
"sX c #A7E9A7",
"dX c #ABE8AB",
"fX c #C6C6C6",
"gX c #CBCBCB",
"hX c #C8D2C8",
"jX c #D4DAD4",
"kX c #DADADA",
"lX c #D4ECD4",
"zX c #ECECEC",
"xX c #EBF5EB",
"cX c #F3F7F3",
"vX c #FCFDFC",
/* pixels */
"o.o.o.o.o.o.o.o.o.o.o.o.o.o.o.o.o.o.o.o.o.o.o.o.o.o.o.o.o.o.o.o.o.o.o.o.o.o.o.o.o.o.o.o.o.o.o.o.o.o.o.o.o.o.o.o.o.o.o.o.o.o.o.o.",
"o.o.o.o.o.o.o.o.o.o.o.o.o.o.o.o.o.o.o.o.o.o.o.o.o.o.o.o.o.o.o.o.o.o.o.o.o.o.o.o.o.o.o.o.o.o.o.o.o.o.o.o.o.o.o.o.o.o.o.o.o.o.o.o.",
"o.o.o.o.o.o.o.o.o.o.o.o.o.o.o.o.o.o.o.o.o.o.o.o.o.o.o.o.o.o.o.o.o.o.o.o.o.o.o.o.o.o.o.o.o.o.o.o.o.o.o.o.o.o.o.o.o.o.o.o.o.o.o.o.",
"o.o.o.o.o.o.o.o.o.o.o.o.o.o.o.o.o.o.o.o.o.o.o.o.o.o.o.+.&.%.$.1.1.1.1.1.%.&.+.o.o.o.o.o.o.o.o.o.o.o.o.o.o.o.o.o.o.o.o.o.o.o.o.o.",
"o.o.o.o.o.o.o.o.o.o.o.o.o.o.o.o.o.o.o.o.o.o.o.o.o.o.O.4.( F.n.N.N.N.N.n.S.) 4.%.o.o.o.o.o.o.o.o.o.o.o.o.o.o.o.o.o.o.o.o.o.o.o.o.",
"o.o.o.o.o.o.o.o.o.o.o.o.o.o.o.o.o.o.o.o.o.o.o.o.o.o.%.) U.^._.).).).).)._./.S.,.o.o.o.o.o.o.o.o.o.o.o.o.o.o.o.o.o.o.o.o.o.o.o.o.",
"o.o.o.o.o.o.o.o.o.o.o.o.o.o.o.o.o.%.Y Z.A.A.A.A.A.A.D.E._.`.`.`.`.`.`.`.`.`.U.G.A.A.A.A.A.A.A.~ ;.o.o.o.o.o.o.o.o.o.o.o.o.o.o.o.",
"o.o.o.o.o.o.o.o.o.o.o.o.o.o.o.o.o.,.N.^.^.^.^.^.^.^._._.`.`.`.`.`.`.`.`.`.`.)._.^.^.^.^.^.^._.E.^ o.o.o.o.o.o.o.o.o.o.o.o.o.o.o.",
"o.o.o.o.o.o.o.o.o.o.o.o.o.o.o.%.4.A./.`.`.`.`.`.`.`.`.`.`.`.`.`.`.`.`.`.`.`.`.`.`.`.`.`.`.`.`._.n.5.;.+.o.o.o.o.o.o.o.o.o.o.o.o.",
"o.o.o.o.o.o.o.o.o.o.o.o.o.o.o.5.N./.).`.`.`.`.`.`.`.`.`.`.`.`.`.`.`.`.`.`.`.`.`.`.`.`.`.`.`.`.`.^.R.( O.o.o.o.o.o.o.o.o.o.o.o.o.",
"o.o.o.o.o.o.o.o.o.o.o.o.o.+.#.Z.(.`.`.`.`.`.`.`.`.`.`.`.`.`.`.`.`.`.`.`.`.`.`.`.`.`.`.`.`.`.`.`.`._.N.,.#.+.o.o.o.o.o.o.o.o.o.o.",
"o.o.o.o.o.o.o.o.o.o.o.o.+.,.( m._.`.`.`.`.`.`.`.`.`.`.`.`.`.`.`.`.`.`.`.`.`.`.`.`.`.`.`.`.`.`.`.`.`./.b.~ #.o.o.o.o.o.o.o.o.o.o.",
"o.o.o.o.o.o.o.o.o.o.o.+.&.^ E._.`.`.`.`.`.`.`.`.`.`.`.`.`.`.`.`.`.`.`.`.`.`.`.`.`.`.`.`.`.`.`.`.`.`.`.).b.=.o.o.o.o.o.o.o.o.o.o.",
"o.o.o.o.o.o.o.o.o.o.+.,.^ N.^.`.`.'.{.XXXXXX.X'.`.`.`.`.`.`.`.`.`.`.`.`.`.`.`.`.'..XXXXXXX{.'.`.`.`.`.`.m.;.o.o.o.o.o.o.o.o.o.o.",
"o.o.o.o.o.o.o.o.o.o.#.( E.^.`.`.`.[.*X>X>X>X=X[.`.`.`.`.`.`.`.`.`.`.`.`.`.`.`.`.[.=X>X>X>XC.[.`.`.`.`.`.m.;.o.o.o.o.o.o.o.o.o.o.",
"o.o.o.o.o.o.o.o.O.;.Y G._.`.`.'.{.+X<XeXrXrX1X2X{.'.`.`.`.`.`.`.`.`.`.`.`.`.'.{.2X1XrXrXeX5X{.).`.`.`.`.U.Z.Y 5.,.%.o.o.o.o.o.o.",
"o.o.o.o.o.o.o.o.2.) m.U.).`.`.{.*X,XpXjXkXkXpX1X=XT.`.`.`.`.`.`.`.`.`.`.`.`.T.=X1XpXkXkXjXyX XP.).`.`.`._./.K.m.A.>.o.o.o.o.o.o.",
"o.o.o.o.o.o.O.$.Y M.`.`.`.`.`.{.=XwXhXcXzXkXtX8X%X|.`.`.`.`.`.`.`.`.`.`.`.`.|.%X8XtXkXzXcXiX XP.).`.`.`.`.`.`.`.K./ $.O.o.o.o.o.",
"o.o.o.o.o.o.,./ N./.`.`.`.`.`.'..X3XdXxXtX` _ 3.6.B.`.`.`.`.`.`.`.`.`.`.`.`.B.6.3._ ` tXxXiX@X~.).`.`.`.`.`.`.`.!.v.T :.+.o.o.o.",
"o.o.o.o.o.o.Y m.).`.`.`.`.`.`.`.`.@XuXlX9X5 9 { 4.n.`.`.`.`.`.`.`.`.`.`.`.`.n.4.{ 9 5 9XlXuX@X`.`.`.`.`.`.`.`.`.).L.h.P O.o.o.o.",
"o.o.o.o.o.o.Y R.`.`.`.`.`.`.`.`.`.}.4X6X=Xb z F Q R.`.`.`.`.`.`.`.`.`.`.`.`.W.S.E V b &X5X4X}.`.`.`.`.`.`.`.`.`.).L.g.I O.o.o.o.",
"o.o.o.o.o.o.Y R.`.`.`.`.`.`.`.`.`.`.].}.I.j.s.d.z.Q.`.`.`.`.`.`.`.`.`.`.`.`._.^.I.H.j.x.Y.I.'.`.`.`.`.`.`.`.`.`.).L.g.I O.o.o.o.",
"o.o.o.+.2.5.S.U.~.).`.`.`.`.`.`.`.`.`.`.~.P.L.L.P.).`.`.`.`.`.`.`.`.`.`.`.`.`.`.).Q.L.L.L.Q.`.`.`.`.`.`.`.`.`.`.).L.k.y.K =.+.o.",
"o.o.o.O.Y N.U.L.P.~.`.`.`.`.`.`.`.`.`.`.`.).).).).`.`.`.`.`.`.`.`.`.`.`.`.`.`.`.`.).).).).).`.`.`.`.`.`.`.`.`.`.).L.l.k.i.I @.o.",
"o.o.o.&./ /.~.J.J.~.`.`.`.`.`.`.`.`.`.`.`.`.`.`.`.`.`.`.`.`.`.`.`.`.`.`.`.`.`.`.`.`.`.`.`.`.`.`.`.`.`.`.`.`.`.`.).L.H.H.z.E $.o.",
"o.o.o.&./ /.~.J.J.~.`.`.`.`.`.`.`.`.`.`.`.`.`.`.`.`.`.`.`.`.`.`.`.`.`.`.`.`.`.`.`.`.`.`.`.`.`.`.`.`.`.`.`.`.`.`.).L.H.H.z.E $.o.",
"o.o.o.&.~ E.P.J.J.Q.`.`.`.`.`.`.`.`.`.`.`.`.`.`.`.`.`.`.`.`.`.`.`.`.`.`.`.`.`.`.`.`.`.`.`.`.`.`.`.`.`.`.`.`.`.`.~.L.H.z.g.T @.o.",
"o.o.o.+.,.~ v.H.H.L.Q.~.`.`.`.`.`.`.`.`.`.`.`.`.`.`.`.`.`.`.`.`.`.`.`.`.`.`.`.`.`.`.`.`.`.`.`.`.`.`.`.`.~.Q.P.P.L.J.l.f.T :.O.o.",
"o.o.o.o.+.&.Q z.H.H.J.Q.`.`.`.`.`.`.`.`.`.`.`.`.`.`.`.`.`.`.`.`.`.`.`.`.`.`.`.`.`.`.`.`.`.`.`.`.`.`.`.`.Q.J.H.H.H.H.z.u.=.+.o.o.",
"o.o.o.o.o.o.~ g.l.H.H.L.Q.Q.Q.Q.Q.Q.Q.Q.).`.`.`.`.`.`.`.`.`.`.`.`.`.`.`.`.`.`.`.`.`.`.`.`.`.`.`.`.`.~.Q.L.H.l.l.H.H.k.E #.o.o.o.",
"o.o.o.o.o.o.K p.H.H.H.H.J.J.J.J.J.J.J.J.Q.`.`.`.`.`.`.`.`.`.`.`.`.`.`.`.`.`.`.`.`.`.`.`.`.`.`.`.`.).Q.J.H.H.l.H.H.H.g.T ..o.o.o.",
"o.o.o.o.o.o.:.R p.k.H.H.H.H.H.H.H.H.H.H.L.~.!.T..X.X.X.X.X.X.X.X.X.X.X.X.X.X[.'.`.).~.~.~.~.~.).`.).P.H.H.H.H.H.z.h.W J +.o.o.o.",
"o.o.o.o.o.o.#.-.I p.l.H.H.H.l.H.H.H.H.H.J.J.Y.&X;X;X;X;X;X;X;X;X;X;X;X;X;X;XoX[.).Q.L.L.L.L.L.P.).).P.H.H.H.H.H.h.R :.@.+.o.o.o.",
"o.o.o.o.o.o.o.o.=.R h.z.l.l.H.l.H.H.H.H.H.l.V.:X7X7X0X0X0X0X0X0X0X0X0X0X7X7X-XT.~.L.H.H.l.l.H.J.Q.~.L.H.H.H.l.g.W >.o.o.o.o.o.o.",
"o.o.o.o.o.o.o.o.#.:.T h.l.H.H.H.H.H.H.H.H.l.V.:X0XtXgXgXgXgXgXgXgXgXgXfXrX7X$XY.L.J.H.H.H.H.H.H.L.L.J.H.H.H.k.W >.@.o.o.o.o.o.o.",
"o.o.o.o.o.o.o.o.o.+.-.i.l.H.H.H.H.H.H.H.H.l.V.$XqXgXvXvXvXvXvXvXvXvXvXcXaX9X#Xc.H.H.H.H.H.H.H.H.H.H.H.H.H.H.h.K +.o.o.o.o.o.o.o.",
"o.o.o.o.o.o.o.o.o.o.$.W z.H.H.H.H.H.H.H.H.l.c.V.,XaXvXvXvXvXvXvXvXvXvXcXpX-XV.x.H.H.H.H.H.H.H.H.H.H.H.H.H.H.h.K o.o.o.o.o.o.o.o.",
"o.o.o.o.o.o.o.o.o.o.#.R k.H.H.H.H.H.H.H.H.H.l.x.2XdXvXvXvXvXvXvXvXvXvXxXyX|.x.l.H.H.H.H.H.H.H.l.l.H.H.H.H.H.h.K o.o.o.o.o.o.o.o.",
"o.o.o.o.o.o.o.o.O.-.K y.k.H.H.H.H.H.H.H.H.l.k.g.C.5XsXsXsXsXsXsXsXsXsXiX3XY.H.H.l.k.g.k.l.H.H.k.k.H.H.H.H.H.g.E :.#.o.o.o.o.o.o.",
"o.o.o.o.o.o.o.o.=.T p.g.l.H.H.H.H.H.H.H.H.l.i.T ! C.OXOXOXOXOXOXOXOXOXOXY.H.H.H.z.u.P u.k.H.H.f.f.H.H.H.H.H.z.h.E :.o.o.o.o.o.o.",
"o.o.o.o.o.o.o.o.-.W l.H.H.H.H.z.z.H.H.H.H.l.W -.J p.l.H.H.H.H.H.H.H.H.H.H.H.H.H.s.x t l 9.q.q.B B e.s.l.H.H.H.H.r.D [ } o.o.o.o.",
"o.o.o.o.o.o.o.o.-.W l.H.H.H.H.h.h.H.H.H.H.l.W -.:.u.l.H.H.H.H.H.H.H.H.H.H.H.H.H.e.s O > 2 p p 1 1 f 8.l.H.H.H.H.w.k 6 ' X.o.o.o.",
"o.o.o.o.o.o.o.o.-.W l.H.H.H.H.p.p.l.k.g.k.l.y.i i A s.s.s.s.s.j.l.H.H.H.H.l.l.j.7.2               # c a.j.l.H.H.q.p o 8 [ X.o.o.",
"o.o.o.o.o.o.o.o.-.W l.H.H.H.H.p.p.g.y.T u.k.f.Z z j h c h h h m a.H.H.H.H.l.e.m a #               X 1 h 8.j.H.H.q.p   % 7 ' X.o.",
"o.o.o.o.o.o.o.o.-.W k.l.l.H.H.p.p.f.P =.G g.k.j.8.a : 1 + X X 2 8.l.l.l.H.l.7.1 X X                 X # h a.l.l.q.p     o 7 [ X.",
"o.o.o.o.o.o.o.o.@.K W p.z.H.H.p.p.f.K #.u C 0.s.e.f , : X     : f M a.l.l.l.M ,                       X 1 c 8.s.q.p       % 8 e ",
"o.o.o.o.o.o.o.o.+.#.-.E k.H.H.p.p.f.K  .w ; g e.q.a + X       X + 1 M l.H.l.M ,                         X # f e.q.p         o O ",
"o.o.o.o.o.o.o.o.o.o.#.T k.g.i.W i.g.R i 0 o , v m f , +           # m l.H.l.M ,                             p q.a.c 1 # X       ",
"o.o.o.o.o.o.o.o.o.o.#.T g.t.K P u.k.f.y.l @ + , a v m ,           # m l.H.l.M ,                             p q.j.e.M p X       ",
"o.o.o.o.o.o.o.o.o.o.#.T g.E $.-.E h.k.k.V @ X + p 8.e.,           # m j.j.a.v :                             1 M s.j.s.h X       ",
"o.o.o.o.o.o.o.o.o.o.#.T g.E $.#.>.G i.d.V @ : h 7.a.e.,           # m j.8.h 1 +                             # 2 c e.s.h X       ",
"o.o.o.o.o.o.o.o.o.o.#.T g.E $.o.+.=.E g.V $ 2 7.s.s.8.:           # m s.v # X                                 X , M s.h X       ",
"o.o.o.o.o.o.o.o.o.o.#.T g.E $.o.o.$.E d.V ; < s h a , X           # m s.c +                                     , M s.h X       ",
"o.o.o.o.o.o.o.o.o.o.#.T g.E $.o.o.$.E d.c @ . + + X               # m s.c +                                     , M s.h X       ",
"o.o.o.o.o.o.o.o.o.o.#.T g.A t r r t S Z k 3 $ > : X               # m s.7.a , X                                 # f m 2 X o = 6 ",
"o.o.o.o.o.o.o.o.o.o.#.T d.B ; & & & ; 3 d n j 1 + X               # m j.s.e.c #                                 X # : +   - r ] ",
"o.o.o.o.o.o.o.o.o.o...H t.z ; & & & & * j s.N 3 % .               + h q.s.l.M ,                                       . & q } o.",
"o.o.o.o.o.o.o.o.o.o.+.=.>.i e r r r r e F d.Z u q &               X : a B j.M ,                                     . - e [ X.o.",
"o.o.o.o.o.o.o.o.o.o.o.o.o.o.o.o.o.o.o.O.I g.A *.' -   . o o o o o o o O x g.7.1 X                                 . % w X.o.o.o.",
"o.o.o.o.o.o.o.o.o.o.o.o.o.o.o.o.o.o.o.O.I g.B y 6 O . - 8 q q q q q q w F g.0.l 4 = - - - - - - - - - - - - - - 6 7 w ] X.o.o.o.",
"o.o.o.o.o.o.o.o.o.o.o.o.o.o.o.o.o.o.o.O.P h.N < o . o q } X.X.X.X.X.X. .L h.W *. .} } } } } } } } } } } } } } } } | X.X.o.o.o.o.",
"o.o.o.o.o.o.o.o.o.o.o.o.o.o.o.o.o.o.o.+.:.T S 9 6 6 8 ' X.o.o.o.o.o.o.+.:.T K @.o.o.o.o.o.o.o.o.o.o.o.o.o.o.o.o.o.o.o.o.o.o.o.o.",
"o.o.o.o.o.o.o.o.o.o.o.o.o.o.o.o.o.o.o.o.O.@.@. .} } } X.o.o.o.o.o.o.o.o.O.@.#.+.o.o.o.o.o.o.o.o.o.o.o.o.o.o.o.o.o.o.o.o.o.o.o.o.",
"o.o.o.o.o.o.o.o.o.o.o.o.o.o.o.o.o.o.o.o.o.o.o.o.o.o.o.o.o.o.o.o.o.o.o.o.o.o.o.o.o.o.o.o.o.o.o.o.o.o.o.o.o.o.o.o.o.o.o.o.o.o.o.o."
};
