/* XPM */
static char *peel[] = {
/* columns rows colors chars-per-pixel */
"64 64 216 2 ",
"   c #010101",
".  c #0C0101",
"X  c #0D0D01",
"o  c #0C0C0C",
"O  c #130202",
"+  c #1A0101",
"@  c #120D06",
"#  c #141409",
"$  c #111111",
"%  c #1C1C1C",
"&  c #250202",
"*  c #2B0000",
"=  c #3E0101",
"-  c #370A00",
";  c #291010",
":  c #202000",
">  c #303003",
",  c #3A3A0C",
"<  c #272717",
"1  c #373713",
"2  c #222222",
"3  c #2A2A29",
"4  c #303021",
"5  c #313131",
"6  c #3D3330",
"7  c #3B3B39",
"8  c #430000",
"9  c #490000",
"0  c #560000",
"q  c #5D0000",
"w  c #5B0800",
"e  c #581919",
"r  c #650101",
"t  c #6A0000",
"y  c #730000",
"u  c #7D0101",
"i  c #7D1919",
"p  c #5B2F00",
"a  c #583D29",
"s  c #483534",
"d  c #494902",
"f  c #584B0E",
"g  c #53530A",
"h  c #625C00",
"j  c #616106",
"k  c #6D6D00",
"l  c #6F6F13",
"z  c #494920",
"x  c #50503D",
"c  c #78782D",
"v  c #6A6A3C",
"b  c #474743",
"n  c #4B4B4B",
"m  c #5D4444",
"M  c #58584A",
"N  c #565655",
"B  c #707051",
"V  c #797950",
"C  c #666563",
"Z  c #6C6C6C",
"A  c #776B68",
"S  c #72726E",
"D  c #737371",
"F  c #7D7D77",
"G  c #840000",
"H  c #8C0201",
"J  c #860A00",
"K  c #940000",
"L  c #9C0000",
"P  c #A40000",
"I  c #AD0100",
"U  c #B40000",
"Y  c #BF0000",
"T  c #B60A00",
"R  c #BF0B00",
"E  c #BA0B0A",
"W  c #AE1400",
"Q  c #BE1301",
"!  c #BF1E00",
"~  c #B31717",
"^  c #BF2300",
"/  c #BF2D00",
"(  c #BF3800",
")  c #B1221E",
"_  c #BE3211",
"`  c #912020",
"'  c #8F3333",
"]  c #A6302A",
"[  c #A63232",
"{  c #A33939",
"}  c #C00500",
"|  c #C10A00",
" . c #C41400",
".. c #C61A00",
"X. c #C72100",
"o. c #C82600",
"O. c #CA2C00",
"+. c #C73900",
"@. c #9D4300",
"#. c #974A10",
"$. c #BF4800",
"%. c #AF5F00",
"&. c #BF5100",
"*. c #BE4418",
"=. c #8B6E00",
"-. c #BF6500",
";. c #BE6E00",
":. c #AA683F",
">. c #CE4201",
",. c #C64A00",
"<. c #D04300",
"1. c #D24B00",
"2. c #C25400",
"3. c #C75900",
"4. c #D35400",
"5. c #D35C02",
"6. c #CC6000",
"7. c #D66200",
"8. c #D86500",
"9. c #D46800",
"0. c #DA6D00",
"q. c #DD7600",
"w. c #995E52",
"e. c #8B715A",
"r. c #876C6C",
"t. c #887070",
"y. c #999906",
"u. c #848410",
"i. c #9F9F1B",
"p. c #A7A705",
"a. c #B4A900",
"s. c #B7B709",
"d. c #BABA18",
"f. c #868629",
"g. c #919133",
"h. c #B8902D",
"j. c #ADAD27",
"k. c #BBBB27",
"l. c #ACAC36",
"z. c #BFBF35",
"x. c #D48E00",
"c. c #C19300",
"v. c #CB9600",
"b. c #CB9C00",
"n. c #D69F00",
"m. c #E59700",
"M. c #E69B00",
"N. c #C6A600",
"B. c #C4A900",
"V. c #D8A900",
"C. c #C6B700",
"Z. c #D9B500",
"A. c #E9A800",
"S. c #E3B703",
"D. c #ECB400",
"F. c #EDBB00",
"G. c #C2C203",
"H. c #CBCB00",
"J. c #CACA0C",
"K. c #D6C700",
"L. c #D7C800",
"P. c #DECE00",
"I. c #D4D401",
"U. c #DAD200",
"Y. c #DBDB01",
"T. c #D5D50A",
"R. c #C6C615",
"E. c #C2C21C",
"W. c #D1D111",
"Q. c #D4D41D",
"!. c #DCDC1C",
"~. c #E7CC05",
"^. c #EECA00",
"/. c #F0C500",
"(. c #F2CD01",
"). c #EDD807",
"_. c #F4D600",
"`. c #F4DC00",
"'. c #E4E401",
"]. c #ECE200",
"[. c #ECEC00",
"{. c #E6E60F",
"}. c #ECEC0B",
"|. c #F5E200",
" X c #F8E300",
".X c #F3EF00",
"XX c #F9EB00",
"oX c #F3F301",
"OX c #FCF400",
"+X c #FEFE00",
"@X c #F2F20C",
"#X c #E3E217",
"$X c #EDED12",
"%X c #E2E21C",
"&X c #C5C526",
"*X c #D7D727",
"=X c #DCDC22",
"-X c #D4D42C",
";X c #C7C734",
":X c #898943",
">X c #909046",
",X c #8B8B5D",
"<X c #979758",
"1X c #AEAE42",
"2X c #A3A34A",
"3X c #AAA64B",
"4X c #B7A342",
"5X c #BBBB42",
"6X c #B1B14E",
"7X c #A6A652",
"8X c #A9A955",
"9X c #A6A658",
"0X c #8D8D62",
"qX c #87876F",
"wX c #939367",
"eX c #8A8A76",
/* pixels */
"Y Y Y Y Y Y Y Y Y Y Y Y Y Y Y Y Y Y Y Y Y Y Y Y Y Y Y Y Y Y Y Y Y Y Y Y Y Y Y Y Y Y Y Y Y Y Y Y Y Y Y Y Y Y Y Y Y Y Y Y Y Y Y Y ",
"Y Y Y Y Y Y Y Y Y Y Y Y Y Y Y Y Y Y Y Y Y Y Y Y Y Y Y Y Y Y Y Y Y Y Y Y Y Y Y Y Y Y Y Y Y Y Y Y Y Y Y Y Y Y Y Y Y Y Y Y Y Y Y Y ",
"Y Y Y Y Y Y Y Y Y Y Y Y Y Y Y Y Y Y Y Y Y Y Y Y Y Y Y Y Y Y Y Y Y Y Y Y Y Y Y Y Y Y Y Y Y Y Y Y Y Y Y Y Y Y Y Y Y Y Y Y Y Y Y Y ",
"Y Y Y Y Y Y Y Y Y Y Y Y Y Y Y Y Y Y Y Y Y Y Y Y Y Y Y Y Y Y Y Y Y Y Y Y Y Y Y Y Y Y Y Y Y Y Y Y Y Y Y Y Y Y Y Y Y Y Y Y Y Y Y Y ",
"Y Y Y Y Y Y Y Y Y Y Y Y Y Y Y Y Y Y Y Y Y Y Y Y Y Y Y Y Y Y Y Y Y Y Y Y Y Y Y Y Y Y Y Y Y Y Y Y Y Y Y Y Y Y Y Y Y Y Y Y Y Y Y Y ",
"Y Y Y Y Y Y Y Y Y Y Y Y Y Y Y Y Y Y Y Y Y Y Y Y Y Y Y Y Y Y Y Y Y Y Y Y Y Y Y Y Y Y Y Y Y Y Y Y Y Y Y Y Y Y Y Y Y Y Y Y Y Y Y Y ",
"Y Y Y Y Y Y Y Y Y Y Y Y Y Y Y Y Y Y Y Y Y Y Y Y Y Y Y Y Y Y Y Y Y Y Y Y Y Y Y Y Y Y Y Y Y Y Y Y Y Y Y Y Y Y Y Y Y Y Y Y Y Y Y Y ",
"Y Y Y Y Y Y Y Y Y Y Y Y Y Y Y Y Y Y Y Y Y Y Y Y Y Y Y Y Y Y Y Y Y Y Y Y Y Y Y Y Y Y Y Y Y Y Y Y Y Y Y Y Y Y Y Y Y Y Y Y Y Y Y Y ",
"Y Y Y Y Y Y Y Y Y Y Y Y Y Y Y Y Y Y Y Y Y Y Y Y Y Y Y Y Y Y Y Y Y Y Y Y Y Y Y Y Y Y Y Y Y Y Y Y Y Y Y Y Y Y Y Y Y Y Y Y Y Y Y Y ",
"Y Y Y Y Y Y Y Y Y Y Y Y Y Y Y Y Y Y Y Y Y Y Y Y Y Y Y Y Y Y Y Y Y Y Y Y Y Y Y Y Y Y Y Y Y Y Y Y Y Y Y Y Y Y Y Y Y Y Y Y Y Y Y Y ",
"Y Y Y Y Y Y Y Y Y Y Y Y Y Y Y Y Y Y Y Y Y Y Y Y Y Y Y Y Y Y Y Y Y Y Y Y Y Y Y Y Y Y Y Y Y Y |  . .} Y Y Y Y Y Y Y Y Y Y Y Y Y Y ",
"Y Y Y Y Y Y Y Y Y Y Y Y Y Y Y Y Y Y Y Y Y Y Y Y Y Y Y Y Y Y Y Y Y Y Y Y Y Y Y Y Y Y Y Y Y Y O.q.0.o.Y Y Y Y Y Y Y Y Y Y Y Y Y Y ",
"Y Y Y Y Y Y Y Y Y Y Y Y Y Y Y Y Y Y Y Y Y Y Y Y Y Y Y Y Y Y Y Y Y Y U U U U Y Y Y Y Y Y Y Y 4./.D.>.Y U U Y Y Y Y Y Y Y Y Y Y Y ",
"Y Y Y Y Y Y Y Y Y Y Y Y Y Y Y Y Y Y Y Y Y Y Y Y Y Y Y Y Y Y Y Y Y P y q q t L Y Y Y Y Y Y Y 4.(.F.<.I u q I Y Y Y Y Y Y Y Y Y Y ",
"Y Y Y Y Y Y Y Y Y Y Y Y Y Y Y Y Y Y Y Y Y Y Y Y Y Y Y Y Y } | | R H = @ . * y U Y Y Y Y Y Y 5.(.F.<.L 9 . P Y Y Y Y Y Y Y Y Y Y ",
"Y Y Y Y Y Y Y Y Y Y Y Y Y Y Y Y Y Y Y Y Y Y Y Y Y Y Y Y } O.7.9.2.#.a 3 $ O 8 y L Y Y Y ^ $.x.`.F.<.L 8   L Y Y Y Y Y Y Y Y Y Y ",
"Y Y Y Y Y Y Y Y Y Y Y Y Y Y Y Y Y Y Y Y Y Y Y Y Y Y Y Y | 7.(.~.C.i.e.N 2   . & y U Y Y $.c.K..XF.>.L =   L Y Y Y Y Y Y Y Y Y Y ",
"Y Y Y Y Y Y Y Y Y Y Y Y Y Y Y Y Y Y Y Y Y Y Y Y Y Y Y Y | 0. X[.H.j.0XC 3     @ e ] *.5.x.K.'.oXZ.@.r *   L Y Y Y Y Y Y Y Y Y Y ",
"Y Y Y Y Y Y Y Y Y Y Y Y Y Y Y Y Y Y Y Y Y Y Y Y Y Y Y Y | 0. X[.H.j.0XC 3     o s e.h.~.|..XoX+XC.f + .   L Y Y Y Y Y Y Y Y Y Y ",
"Y Y Y Y Y Y Y Y Y Y Y Y Y Y Y Y Y Y Y Y Y Y Y Y Y Y } o.1.m.XX[.Y.E.1X>Xl d d g c 7X-XoX+X+X@X%Xi.,       L Y Y Y Y Y Y Y Y Y Y ",
"Y Y Y Y Y Y Y Y Y Y Y Y Y Y Y Y Y Y Y Y Y Y Y Y Y Y | 7.D.`.OXOXoX}.#X!.J.G.G.G.W.%X$X+X+X+X=X6XV <       L Y Y Y Y Y Y Y Y Y Y ",
"Y Y Y Y Y Y Y Y Y Y Y Y Y Y Y Y Y Y Y Y Y Y Y Y } X.<.M.OX+X+X+X+X+X+X+X+X+X+X+X+X+X+X+XOXoX&XV n % . + * P Y Y Y Y Y Y Y Y Y Y ",
"Y Y Y Y Y Y Y Y Y Y Y Y Y Y Y Y Y Y Y Y Y Y Y Y  .8.D.`.OX+X+X+X+X+X+X+X+X+X+X+X+X+X+X+X[.Y.y.z % o + 0 G U Y Y Y Y Y Y Y Y Y Y ",
"Y Y Y Y Y Y Y Y Y Y Y Y Y Y Y Y Y Y Y Y Y Y } ..+.A.OX+X+X+X+X+X+X+X+X+XOXoX}.$X$X$X$X$XJ.p.k : . + = G Y Y Y Y Y Y Y Y Y Y Y Y ",
"Y Y Y Y Y Y Y Y Y Y Y Y Y Y Y Y Y Y Y Y Y Y ..8.A._.OX+X+X+X+X+X+X+X+XoX'.T.z.6X6X6X6X6Xf.g > X + 0 G P Y Y Y Y Y Y Y Y Y Y Y Y ",
"Y Y Y Y Y Y Y Y Y Y Y Y Y Y Y Y Y Y Y Y }  .>.A.OX+X+XOXOX+X+X+X+X+X+XoXY.d.2XqXF D D S b $ . O 8 H Y Y Y Y Y Y Y Y Y Y Y Y Y Y ",
"Y Y Y Y Y Y Y Y Y Y Y Y Y Y Y Y Y Y Y Y X.7.A._.+X+X+X[.'.[.+X+X+X+X+XOX[.T.k.g.v 7 7 7 2 o & 0 u P Y Y Y Y Y Y Y Y Y Y Y Y Y Y ",
"Y Y Y Y Y Y Y Y Y Y Y Y Y Y Y Y Y Y } | 1.D.OXOX+X+XOXY.G.Y.OX+X+X+X+X+X+XoXI.s.j # @ @ . . 9 K U Y Y Y Y Y Y Y Y Y Y Y Y Y Y Y ",
"Y Y Y Y Y Y Y Y Y Y Y Y Y Y Y Y Y Y o.5.m.`.+X+X+X+XOXQ.l.&XoX+X+X+X+X+X+XOX[.I.y.h p w q q u I Y Y Y Y Y Y Y Y Y Y Y Y Y Y Y Y ",
"Y Y Y Y Y Y Y Y Y Y Y Y Y Y Y Y Y } 1.D.XXOX+X+X+X+X@Xz.wX5X@X+X+X+X+X+X+X+XOXoXI.a.%.W I I U Y Y Y Y Y Y Y Y Y Y Y Y Y Y Y Y Y ",
"Y Y Y Y Y Y Y Y Y Y Y Y Y Y Y Y o.5.m.`.+X+X+X+XOX%X;X:XM g.}.+X+X@X*X*X$X+X+XOX[.U.v.2./ R Y Y Y Y Y Y Y Y Y Y Y Y Y Y Y Y Y Y ",
"Y Y Y Y Y Y Y Y Y Y Y Y Y Y Y } 4.F.XXOX+X+X+X+X@X5X0Xx < l '.+X+X=X8X8X=X+X+X+XOXoXU.B.-.Q Y Y Y Y Y Y Y Y Y Y Y Y Y Y Y Y Y Y ",
"Y Y Y Y Y Y Y Y Y Y Y Y ^ +.,.4.m. X+X+XOX[.'.!.;X:XM 3 @ k '.+X+X%X1X2X;X=X$X+X+X+X[.U.v.2./ R Y Y Y Y Y Y Y Y Y Y Y Y Y Y Y Y ",
"Y Y Y Y Y Y Y Y Y Y Y R &.c.Z.^. XOX+X+XoXY.R.1X,Xx % o X k '.+X+X}.R.j.2X8X=X+X+X+XOXoXP.N.-.! Y Y Y Y Y Y Y Y Y Y Y Y Y Y Y Y ",
"Y Y Y Y Y Y Y Y Y Y o.4.x.K.'.OXOX.X{.%XR.p.u.v N 3 . + - =.].+X+XoXY.d.<XeX5X=X{.[.oX+X[.I.b.2.^ R Y Y Y Y Y Y Y Y Y Y Y Y Y Y ",
"Y Y Y Y Y Y Y Y Y Y 0.F._.[.oX+X[.I.E.3X:Xz > < % o . 9 J ;.|.+X+XOXoXQ.9XeXwX7Xk.I.'.OXOXoXP.b.-.^ Y Y Y Y Y Y Y Y Y Y Y Y Y Y ",
"Y Y Y Y Y Y Y Y Y Y q.(.).#X#X#XJ.p.f.B n %     . + * y T 0. X+X+X+X+X%X9XF D C f.y.s.#X@X+X[.I.v.+.Y Y Y Y Y Y Y Y Y Y Y Y Y Y ",
"Y Y Y Y Y Y Y Y Y Y O.5.h.3X8X8Xf.g , 4 2 o     . 9 u L R 0. X+X+X+X+X%X9XD n 3 1 d c 2X;X@XOX[.V.+.Y Y Y Y Y Y Y Y Y Y Y Y Y Y ",
"Y Y Y Y Y Y Y Y Y Y Y E { r.t.r.m ; + + + + + + * y U Y | 0. X+X+X+X+X%X9XZ 5 . . + s C 2X!.@X+XF.<.Y Y Y Y Y Y Y Y Y Y Y Y Y Y ",
"Y Y Y Y Y Y Y Y Y Y } Y ~ [ [ [ ` u y y y y y y u L Y Y | 0. X+X+X+X+X%X9XZ 5 . = r e 6 v 2X;X@XF.<.Y Y Y Y Y Y Y Y Y Y Y Y Y Y ",
"Y Y Y Y Y Y Y Y Y Y Y Y Y Y Y Y Y Y Y Y Y Y Y Y Y Y Y Y | 0.`.OX+X+X+X%X9XZ 5 + r P t & s A 3X!.S.>.Y Y Y Y Y Y Y Y Y Y Y Y Y Y ",
"Y Y Y Y Y Y Y Y Y Y Y Y Y Y Y Y Y Y Y Y Y Y Y Y Y Y Y Y | 6.L.[.OX+X+X%X9XZ 5 + t I K t i ' :.4Xh._ Y Y Y Y Y Y Y Y Y Y Y Y Y Y ",
"Y Y Y Y Y Y Y Y Y Y Y Y Y Y Y Y Y Y Y Y Y Y Y Y Y Y Y Y Y 2.N.U.oX+X+X%X9XZ 5 + t U Y U U E ] e.w.) Y Y Y Y Y Y Y Y Y Y Y Y Y Y ",
"Y Y Y Y Y Y Y Y Y Y Y Y Y Y Y Y Y Y Y Y Y Y Y Y Y Y Y Y Y / 3.n.|.+X+X%X9XZ 5 + t U Y Y } } ~ { [ ~ Y Y Y Y Y Y Y Y Y Y Y Y Y Y ",
"Y Y Y Y Y Y Y Y Y Y Y Y Y Y Y Y Y Y Y Y Y Y Y Y Y Y Y Y Y R Q 9._.+X+X%X9XZ 5 + t U Y Y } } Y E E Y Y Y Y Y Y Y Y Y Y Y Y Y Y Y ",
"Y Y Y Y Y Y Y Y Y Y Y Y Y Y Y Y Y Y Y Y Y Y Y Y Y Y Y Y Y Y Y 4.S.[.OX%X9XZ 5 + t U Y Y } } } } Y Y Y Y Y Y Y Y Y Y Y Y Y Y Y Y ",
"Y Y Y Y Y Y Y Y Y Y Y Y Y Y Y Y Y Y Y Y Y Y Y Y Y Y Y Y Y Y Y ,.N.Y.oX%X9XZ 5 + t U Y Y Y Y } } Y Y Y Y Y Y Y Y Y Y Y Y Y Y Y Y ",
"Y Y Y Y Y Y Y Y Y Y Y Y Y Y Y Y Y Y Y Y Y Y Y Y Y Y Y Y Y Y Y / ;.V.].%X9XZ 5 + t U Y Y Y Y Y Y Y Y Y Y Y Y Y Y Y Y Y Y Y Y Y Y ",
"Y Y Y Y Y Y Y Y Y Y Y Y Y Y Y Y Y Y Y Y Y Y Y Y Y Y Y Y Y Y Y R ^ 9.^.%X9XZ 5 + t U Y Y Y Y Y Y Y Y Y Y Y Y Y Y Y Y Y Y Y Y Y Y ",
"Y Y Y Y Y Y Y Y Y Y Y Y Y Y Y Y Y Y Y Y Y Y Y Y Y Y Y Y Y Y Y Y Y >.S.Q.9XS s = u U Y Y Y Y Y Y Y Y Y Y Y Y Y Y Y Y Y Y Y Y Y Y ",
"Y Y Y Y Y Y Y Y Y Y Y Y Y Y Y Y Y Y Y Y Y Y Y Y Y Y Y Y Y Y Y Y Y +.b.E.<Xr.' H P Y Y Y Y Y Y Y Y Y Y Y Y Y Y Y Y Y Y Y Y Y Y Y ",
"Y Y Y Y Y Y Y Y Y Y Y Y Y Y Y Y Y Y Y Y Y Y Y Y Y Y Y Y Y Y Y Y Y ( c.d.<Xr.[ Y Y Y Y Y Y Y Y Y Y Y Y Y Y Y Y Y Y Y Y Y Y Y Y Y ",
"Y Y Y Y Y Y Y Y Y Y Y Y Y Y Y Y Y Y Y Y Y Y Y Y Y Y Y Y Y Y Y Y Y Y R Q E E E Y Y Y Y Y Y Y Y Y Y Y Y Y Y Y Y Y Y Y Y Y Y Y Y Y ",
"Y Y Y Y Y Y Y Y Y Y Y Y Y Y Y Y Y Y Y Y Y Y Y Y Y Y Y Y Y Y Y Y Y Y Y Y Y Y Y Y Y Y Y Y Y Y Y Y Y Y Y Y Y Y Y Y Y Y Y Y Y Y Y Y ",
"Y Y Y Y Y Y Y Y Y Y Y Y Y Y Y Y Y Y Y Y Y Y Y Y Y Y Y Y Y Y Y Y Y Y Y Y Y Y Y Y Y Y Y Y Y Y Y Y Y Y Y Y Y Y Y Y Y Y Y Y Y Y Y Y ",
"Y Y Y Y Y Y Y Y Y Y Y Y Y Y Y Y Y Y Y Y Y Y Y Y Y Y Y Y Y Y Y Y Y Y Y Y Y Y Y Y Y Y Y Y Y Y Y Y Y Y Y Y Y Y Y Y Y Y Y Y Y Y Y Y ",
"Y Y Y Y Y Y Y Y Y Y Y Y Y Y Y Y Y Y Y Y Y Y Y Y Y Y Y Y Y Y Y Y Y Y Y Y Y Y Y Y Y Y Y Y Y Y Y Y Y Y Y Y Y Y Y Y Y Y Y Y Y Y Y Y ",
"Y Y Y Y Y Y Y Y Y Y Y Y Y Y Y Y Y Y Y Y Y Y Y Y Y Y Y Y Y Y Y Y Y Y Y Y Y Y Y Y Y Y Y Y Y Y Y Y Y Y Y Y Y Y Y Y Y Y Y Y Y Y Y Y ",
"Y Y Y Y Y Y Y Y Y Y Y Y Y Y Y Y Y Y Y Y Y Y Y Y Y Y Y Y Y Y Y Y Y Y Y Y Y Y Y Y Y Y Y Y Y Y Y Y Y Y Y Y Y Y Y Y Y Y Y Y Y Y Y Y ",
"Y Y Y Y Y Y Y Y Y Y Y Y Y Y Y Y Y Y Y Y Y Y Y Y Y Y Y Y Y Y Y Y Y Y Y Y Y Y Y Y Y Y Y Y Y Y Y Y Y Y Y Y Y Y Y Y Y Y Y Y Y Y Y Y ",
"Y Y Y Y Y Y Y Y Y Y Y Y Y Y Y Y Y Y Y Y Y Y Y Y Y Y Y Y Y Y Y Y Y Y Y Y Y Y Y Y Y Y Y Y Y Y Y Y Y Y Y Y Y Y Y Y Y Y Y Y Y Y Y Y ",
"Y Y Y Y Y Y Y Y Y Y Y Y Y Y Y Y Y Y Y Y Y Y Y Y Y Y Y Y Y Y Y Y Y Y Y Y Y Y Y Y Y Y Y Y Y Y Y Y Y Y Y Y Y Y Y Y Y Y Y Y Y Y Y Y ",
"Y Y Y Y Y Y Y Y Y Y Y Y Y Y Y Y Y Y Y Y Y Y Y Y Y Y Y Y Y Y Y Y Y Y Y Y Y Y Y Y Y Y Y Y Y Y Y Y Y Y Y Y Y Y Y Y Y Y Y Y Y Y Y Y ",
"Y Y Y Y Y Y Y Y Y Y Y Y Y Y Y Y Y Y Y Y Y Y Y Y Y Y Y Y Y Y Y Y Y Y Y Y Y Y Y Y Y Y Y Y Y Y Y Y Y Y Y Y Y Y Y Y Y Y Y Y Y Y Y Y "
};
