/* XPM */
static char *stand1[] = {
/* columns rows colors chars-per-pixel */
"64 64 253 2 ",
"   c #010100",
".  c #0A0704",
"X  c #170000",
"o  c #141501",
"O  c #081313",
"+  c #161817",
"@  c #2B0000",
"#  c #370202",
"$  c #1C3619",
"%  c #282800",
"&  c #363601",
"*  c #3B3B00",
"=  c #093332",
"-  c #272727",
";  c #312F2F",
":  c #393939",
">  c #440101",
",  c #580000",
"<  c #670000",
"1  c #730000",
"2  c #7D0000",
"3  c #711717",
"4  c #603800",
"5  c #563A3A",
"6  c #484A02",
"7  c #565600",
"8  c #707005",
"9  c #7C7C24",
"0  c #014D4D",
"q  c #0F5050",
"w  c #3E4444",
"e  c #286E46",
"r  c #0C6A6A",
"t  c #3B7878",
"y  c #484B4B",
"u  c #5A5B5B",
"i  c #794645",
"p  c #6B5654",
"a  c #71754E",
"s  c #556C6A",
"d  c #4D7272",
"f  c #427E7E",
"g  c #676767",
"h  c #777271",
"j  c #8B0505",
"k  c #970101",
"l  c #AA0202",
"z  c #B30000",
"x  c #BF0000",
"c  c #BB0B07",
"v  c #B40B0A",
"b  c #BF1201",
"n  c #BC1806",
"m  c #AA1515",
"M  c #A21D1D",
"N  c #B51414",
"B  c #BD3204",
"V  c #992727",
"C  c #8A3636",
"Z  c #AB2525",
"A  c #AA2B2B",
"S  c #A53535",
"D  c #C10A03",
"F  c #C31503",
"G  c #C51A01",
"H  c #C41616",
"J  c #C71C12",
"K  c #FF0100",
"L  c #FD0900",
"P  c #F91803",
"I  c #C82600",
"U  c #C02A00",
"Y  c #C53500",
"T  c #CD3A00",
"R  c #FC2900",
"E  c #FA3301",
"W  c #C82727",
"Q  c #CD3736",
"!  c #CE3838",
"~  c #B9530D",
"^  c #BF6601",
"/  c #B8700F",
"(  c #9D5F30",
")  c #A7502D",
"_  c #D04B00",
"`  c #CB5200",
"'  c #F54E03",
"]  c #E75700",
"[  c #C66B00",
"{  c #D96700",
"}  c #D76B01",
"|  c #C87600",
" . c #C17D00",
".. c #DA7600",
"X. c #CE6918",
"o. c #F76400",
"O. c #E57400",
"+. c #FC7701",
"@. c #E07128",
"#. c #8D4F4B",
"$. c #965958",
"%. c #A54945",
"&. c #9B7450",
"*. c #8D6665",
"=. c #8D7965",
"-. c #DE6C58",
";. c #D96C6C",
":. c #DD7777",
">. c #59963D",
",. c #13907D",
"<. c #549E5E",
"1. c #7D8950",
"2. c #74B24B",
"3. c #7CC246",
"4. c #68C25B",
"5. c #75CB55",
"6. c #4CC77A",
"7. c #79DB6B",
"8. c #878801",
"9. c #989D04",
"0. c #B2921B",
"q. c #A9A800",
"w. c #B9AF0E",
"e. c #B8B904",
"r. c #A9AA32",
"t. c #C58800",
"y. c #DB8400",
"u. c #C69A00",
"i. c #D99307",
"p. c #E18700",
"a. c #E28C00",
"s. c #E79B00",
"d. c #FE9700",
"f. c #C5AA01",
"g. c #C7B600",
"h. c #D6B200",
"j. c #E7A901",
"k. c #FBA30C",
"l. c #ECB700",
"z. c #FCB900",
"x. c #CBB92D",
"c. c #B6C416",
"v. c #B8CA11",
"b. c #90C737",
"n. c #A7D12A",
"m. c #B2E939",
"M. c #C5C500",
"N. c #CAC304",
"B. c #CBCB01",
"V. c #D9C801",
"C. c #D3D200",
"Z. c #DBDB01",
"A. c #D0D70F",
"S. c #D7D909",
"D. c #C5C618",
"F. c #E8C906",
"G. c #F8C800",
"H. c #E3DE00",
"J. c #E8D803",
"K. c #F5D600",
"L. c #FDD500",
"P. c #DAEC14",
"I. c #E3E300",
"U. c #E4E707",
"Y. c #ECEC00",
"T. c #F8E501",
"R. c #FBEC00",
"E. c #F4F300",
"W. c #FCF400",
"Q. c #F5FA06",
"!. c #FEFD00",
"~. c #FCFC0C",
"^. c #E4E718",
"/. c #FCFC12",
"(. c #FAFA19",
"). c #D2D02B",
"_. c #E0DC31",
"`. c #F9F727",
"'. c #FFFF2A",
"]. c #F0F030",
"[. c #988F46",
"{. c #8FB945",
"}. c #A9A94E",
"|. c #A19F6B",
" X c #E6A970",
".X c #96DD56",
"XX c #A7E942",
"oX c #D6D654",
"OX c #ECE94F",
"+X c #FFFF49",
"@X c #FEFE55",
"#X c #DBDB65",
"$X c #C7C770",
"%X c #DADA78",
"&X c #EBC369",
"*X c #FDFD67",
"=X c #E5E573",
"-X c #FCFC78",
";X c #059494",
":X c #378989",
">X c #339796",
",X c #13A996",
"<X c #2DB296",
"1X c #02A5A3",
"2X c #18A9A7",
"3X c #16BBAC",
"4X c #0AB5B4",
"5X c #05BAB9",
"6X c #44B8B8",
"7X c #28C199",
"8X c #39C990",
"9X c #16C1AB",
"0X c #0BC1B6",
"qX c #24C6A2",
"wX c #42C38B",
"eX c #00C0C0",
"rX c #0BC3C3",
"tX c #19C6C6",
"yX c #2DCBCB",
"uX c #4ACDCD",
"iX c #73D9D9",
"pX c #868685",
"aX c #8B8B8B",
"sX c #968484",
"dX c #969695",
"fX c #AB9B8C",
"gX c #A8A8A7",
"hX c #B3B3AB",
"jX c #B6B6B4",
"kX c #E09696",
"lX c #E9A7A7",
"zX c #E2BFBF",
"xX c #D0D092",
"cX c #E4D095",
"vX c #F3F287",
"bX c #FEFE96",
"nX c #F6F699",
"mX c #C9C9B2",
"MX c #FEFEA9",
"NX c #F6F6B2",
"BX c #98D8D8",
"VX c #CACACA",
"CX c #D5D5C5",
"ZX c #DADADA",
"AX c #E1DCDC",
"SX c #F2EECA",
"DX c #F9F9D6",
"FX c #ECECE6",
"GX c #F8E3E3",
"HX c #FBFAE6",
"JX c #EAF0F0",
"KX c #F7F7F3",
"LX c white",
/* pixels */
"x x x x x x x x x x x x x x x x x x x x D D D x x x x x x x x x x x x x x x x x x x x x x x x x x x x x x x x x x x x x x x x x ",
"x x x x x x x x x x x x x x x x x x x x x x D W W W W Z M M M M M M M M M M M M M M M v x x x x x x x x x x x x x x x x x x x x ",
"x x x x x x x x x x x x x x x x x x x x D D Q :.kXkXkXsXd d d d d d d d d d d d d d s C v x x x x x x x x x x x x x x x x x x x ",
"x x x x x x x x x x x x x x x x x x x x D H -.zXJXJXZXiX3X5X5X5X5X5X5X5X5X5X5X5X5X5X2Xu M v x D x x x x x x x x x x x x x x x x ",
"x x x x x x x x x x x x x x x x x x x D ! ;.fXBXBXBXiXyXrXeXeXeXeXeXeXeXeXeXeXeXeXeX4X:Xu C v D x x x x x x x x x x x x x x x x ",
"x x x x x x x x x x x x x x x x x x x H ;.zXBXuXtXtXtXrXeXeXeXeXeXeXeXeXeXeXeXeXeXeX5X4X2Xs M x x x x x x x x x x x x x x x x x ",
"x x x x x x x x x x x x x x x x x x x N ;.BXiXyXeXeXeXeXeXeXeXeXeXeXeXeXeXeX0X0XeXeXeXeX5Xd M x x x x x x x x x x x x x x x x x ",
"x x x x x x x x x x x x x x x x x x x v p 6XyXrXeXeXeXeXeXeXeXeXeXeXeXeXeXeX0X0XeXeXeXeX5Xd M x x x x x x x x x x x x x x x x x ",
"x x x x x x x x x x x m V V V V V V V C d 4XeX0XeXeX0X9X<X<X>X>X>X>X>X>X<X<X7X7X7X7X7X9X4Xd M x x x x x x x x x x x x x x x x x ",
"x x x x x x x x x x v i d f f f f f f :X>X5XeX0XeXeX0X6.2.[.%.%.%.%.%.%.&.{.3.3.3.3.5.8X4Xd M x x x x x x x x x x x x x x x x x ",
"x x x x x x x x x v V s 4X5X5X5X5X5X4X3X9X9X9X9X9X9X7X5.c.y.E P P P L P ] g.M.M.M.M.c.4.<Xs V c x x x x x x x x x x x x x x x x ",
"x x x x x x x x m i s >X5XeXeXeXeX0X8X4.5..X5.4.4.4.5.n.S.l.d.+.O.] R P o.F.I.I.I.I.S.n.2.1.#.S N x x x x x x x x x x x x x x x ",
"x x x x x x x x V d 2X4X4X5X5X5X5X7X4.c.A.P.P.v.c.c.v.S.E.W.W.J.V.i.' P +.T.~.~.Q.W.E.S.c.r.[.$.Z x x D D x x x x x x x x x x x ",
"x x x x x x x x M i d d d d d <.6.7..X#X_.U.^.oX#X#X#X].~.!.!.E.I.l.] P @.OX*X*X+X'.W.Y.Z.D.}.( Z x x x D D x x x x x x x x x x ",
"x x x x x x x x c m M M M M M ) x.].vXSX=XA.oXNXDXDXSX*X~.!.!.!.W.G.o.P -.SXDXDXMX+X!.W.E.S.D.t.B x x x x x x x x x x x x x x x ",
"x x x x x x x x x x x x x G T .._.@XvXNXcXoXcXDXLXLXHXbX@X'.~.R.G.k.o.'  XGXLXLXDXbX+X'.!.I.B.u.^ B b x x x x x x x x x x x x x ",
"x x x x x x x x x x x D D _ s._.vXMX=XoX%XNXSXKXLXLXLXDXNX*X(.G.+.' O.i.&XHXLXLXKXDXMX@X~.I.B.g.u.^ B x x x x x x x x x x x x x ",
"x x x x x x x x x x x D U ..K.+XNXDX#XD.%XHXJXZXZXZXZXJXKXbX'.G.o.' i.).%XCXZXZXZXJXHX-X/.Y.C.M.M.w.~ N c x x x x x x x x x x x ",
"x x x x x x x x x x b Y [ h.T.+XNXDX#XD.%XHXVXpXg g h jXHXbX'.T.z.k.&XcXfXh g g pXVXHX-X/.E.Y.Z.B.w.( %.A x x x x x x x x x x x ",
"x x x x x x x x x x b [ g.S./.+XMXSX#XD.%XHXgX5 . . - aXFXbX'.!.!.`.bXFXpX- . . w gXHX-X/.!.!.Y.C.w.[.=.) c x x x x x x x x x x ",
"x x x x x x x x x x G | V.].*X-XvX-X].^.=XHXgX:     + pXFXbX'.!.!.'.bXFXpX+     : gXHX-X/.!.!.Y.C.e.r.[.) b x x x x x x x x x x ",
"x x x x x x x x x x G y.T.@XNXMX@X/.~./.-XHXgX:     + pXFXbX'.!.!.'.bXFXpX+     : gXHX-X/.!.!.Y.C.v.e.w.^ b x x x x x x x x x x ",
"x x x x x x x x x x G p.R.+XbX-X'.!.!.~.+XbX$X9 7 7 8 }.nX-XOXOXOXOX-XnX}.8 7 7 9 $XbX+X~.!.!.Y.C.M.M.g.^ b x x x x x x x x x x ",
"x x x x D x x x x x G p.R./.'.'./.!.!.!.(.'.].A.B.M.B.^.].OXxXxXxXxXOX].^.B.M.M.A.].'.(.!.!.!.Y.C.M.M.g.^ b x x x x x x x x x x ",
"x x x x x x x x x x G p.R.R.L.G.G.L.R.!.!.!.!.!.!.!.!.(.].=XmXVXVXmX#X].(.!.!.!.!.!.!.!.!.R.L.l.j.u.f.e.^ b x x x x x x x x x x ",
"x x x x x x x x x x G p.T.z.+.o.o.+.z.!.!.!.!.!.!.!.~.OX%XcXAXZXVXmXxX%XOX~.!.!.!.!.!.!.!.z.+.' ' ] t.f.^ b x x x x x x x x x x ",
"x x x x x x x x x x G p.T.d.R K K R d.W.!.!.!.!.!.!./.#XmXZXJXFXVXjXjXmX#X/.!.!.!.!.!.!.W.d.R K K P ..f.^ F x x x x x x x x x x ",
"x x x x x x x x x x G p.T.d.R K K R d.W.!.!.!.!.!.!./.#XmXVXZXVXhXfX|.$X_.Q.!.!.!.!.!.!.W.d.R K K P ..f.^ b x x x x x x x x x x ",
"x x x x x x x x x x G p.T.d.E L L R d.R.!.!.!.!.!.!./.#XmXmXmXhXdX|.r.D.Z.W.!.!.!.!.!.!.R.d.R L L R ..f.^ b x x x x x x x x x x ",
"x x x x x x x x x D G p.T.G.d.o.] ] O.s.G.W.!.!.!.!.~.].#X$X$X$X}.}.D.Z.Y.W.!.!.!.!.W.G.s.O.] ] o.+.i.f.^ b x x x x x x x x x x ",
"x x x x x x x x D D G p.R.R.L.G.h.t.` T a.R.!.!.!.!.!./.(.^.D.w.w.D.S.E.W.!.!.!.!.!.R.a.T ` t.h.G.K.V.g.^ b x x x x x x x x x x ",
"x x x x x x x x D D G ..J.E.!.E.Z.g.| _ ..j.K.R.!.!.!.!.!.Y.Z.C.C.Z.Y.!.!.!.!.!.R.K.j..._ | g.Z.I.U.D.0.~ b x x x x x x x x x x ",
"x x x x x x x x x x G [ V.I.W.W.E.H.h.t.[ _ p.K.!.!.!.!.!.E.E.Y.Y.E.E.!.!.!.!.!.K.p._ [ t.h.H.I.Z.N.r.[.) c x x x x x x x x x x ",
"x x x x x x x x x x b ~ u.V.E.!.!.E.Z.N.| Y { j.K.K.K.K.K.K.K.K.K.K.K.K.K.K.K.K.j.{ Y | g.Z.Y.I.B.w.[.*.S c x x x x x x x x x x ",
"x x x x x x x x x x b B ` i.T.!.!.W.E.I.h. .[ } { { { { { { { { { { { { { { { { } [  .h.H.I.Z.C.M.w./ S N x x x x x x x x x x x ",
"x x x x x x x x x x x x F } J.Q.~.!.!.W.I.N.t.Y G J J J J J J J J J J J J J J G Y t.N.H.E.I.B.v.v.w.~ c x x x x x x x x x x x x ",
"x x x x x x x x x x D D c ) {.XXP.!.!.!.Y.I.h.| X.-.:.:.:.:.:.:.:.:.:.:.:.:.-.X.| h.H.Y.W.I.B.c.3.2.) c D D x x x x x x x x x x ",
"x x x x x x x x x x x x v i <X6.m.!.!.!.!.W.H.g.x.cXGXGXGXGXGXGXGXGXGXGXGXGXcXx.g.H.E.W.!.I.B.b.6.>Xi v x x D x x x x x x x x x ",
"x x x x x x x x x x c V i d 2X7X7.m.P.!.!.!.E.Z.). XlXlXlXlXlXlXlXlXlXlXlXlX Xx.B.Y.!.E.U.v.b.4.<X2Xd i V x x x x x x x x x x x ",
"x x x x x x x x x x N p :X2X5X0XqX6.m.Q.!.!.W.E.F.@.! ! ! ! ! ! ! ! ! ! ! ! X.f.B.Y.W.I.B.b.6.3X4X5X2X:Xp v x x x x x x x x x x ",
"x x x x x x x x D I ~ 1.wX8X8X<X<X<.r.F.T.!.!.!.K...T Y U U U U U U U U U U [ f.C.I.I.M.9.>.,.,X<X8X8XwX1.~ I D x x x x x x x x ",
"x x x x x x x x I } j.D.m.XXXX{.&.C ~ { j.R.!.!.R.G.j.i.t. . . . . . . . . .f.J.I.Z.M.8.6 $ = e 2.XXXXm.D.j.} I x x x x x x x x ",
"x x x x x x x x T j.!.W.T.R.!.l._ x x F } K.T.E.W.!.W.H.B.M.M.M.M.M.M.M.M.M.C.Y.U.M.9.7 .     6 e.W.Y.I.Y.W.j.B z x x x x x x x ",
"x x x x x x x x T j.R.l.p.j.R.l._ x x D T } i.V.I.E.W.Y.I.I.I.I.I.I.I.I.I.I.H.Z.M.8.7 % .     6 e.Y.q.8.e.E.f.4 < k x x x x x x ",
"x x x x x x x x T j.T.y.I } K.l._ x x x c n ~ u.B.U.Q.E.E.W.W.W.W.W.W.W.W.E.I.B.9.6 o .       6 q.C.8 % 8.I.q.* # 2 z x x x x x ",
"x x x x x x x x T j.T...G T y.} I x x x V i a 2.5..XXXm.U.I.I.I.I.I.I.I.I.I.v.b.<.e 0 =       % 8 8.* o 8 I.q.& X > 2 k x x x x ",
"x x x x x x D D T j.T...F F I G D x x v i >X2X3X9XqX8X3.v.B.B.B.B.B.B.B.B.B.b.6.3X1X;X0 .     . o % o o 8 I.q.&   X @ 1 z x x x ",
"x x x x D D D D I ..j.` D x x x x v M C d 4X5X0X5X1X,.>.8.8.8.8.8.8.8.8.8.8.>.,XeXeX4Xr = O           . 7 q.8 %     X < z x x x ",
"x x x x x x x x D Y T I D x x x x m p :X2X5XeXeX1Xr = $ & & & & & & & & & & e ,XeXeX5X1X;X0 O         . % * % .     X < z x x x ",
"x x x x x x x x x x x x x x x x v V s 1X1X1X1X4X;X=                         = ;X4X1X1X1X1Xr = O .                   X < z x x x ",
"x x x x x x x x x x x x x x x N S #.w 0 0 0 r :Xt =                         = t :Xr 0 0 0 q y : +                   X < z x x x ",
"x x x x x x x x x x x x x x x A $.h w + O O ; g g ; . . . .                 - u u ; O O + w h u - .           . . . X < z x x x ",
"x x x x x x x x x x x x x N S $.sXdXh u y 5 5 #.C 3 , , , # .               + : y : : y u h dXpXu ; +       X > , , < j x x x x ",
"x x x x x x x x x x x x x A *.sXgXjXjXgXdXh #.Z v l l l l < X               . . - y h dXgXjXjXgXpXg ; .     # j l l z z x x x x ",
"x x x x x x x x x x x x x S *.pXdXgXgXgXsX$.S N x x x x x j , > > # X           O : u pXgXgXgXdXpXh 5 > > > < l x x x x x x x x ",
"x x x x x x x x x x x x x S *.pXpXaXaXsX$.Z N x x x x x x z k k k 2 #           . O - u pXaXaXpXpX*.C k k k l z x x x x x x x x ",
"x x x x x x x x x x x x x A $.*.*.*.*.$.S c x x x x x x x x x x D l < @ @ @ @ @ @ @ # 5 *.*.*.*.*.$.A x x x x x x x x x x x x x ",
"x x x x x x x x x x x x x N Z A A A A A N x x x x x x x x x x x x z k 2 2 2 2 2 2 2 j M A A A A A Z N x x x x x x x x x x x x x ",
"x x x x x x x x x x x x x x x x x x x x x x x x x x x x x x x x x x x x x x x x x x x x x x x x x x x x x x x x x x x x x x x x ",
"x x x x x x x x x x x x x x x x x D D D x x x x x x x x x x x x x x x x x x x x x x x x x x x x x x x x x x x x x x x x x x x x ",
"x x x x x x x x x x x x x x x x x x x x x x x x x x x x x x x x x x x x x x x x x x x x x x x x x x x x x x x x x x x x x x x x ",
"x x x x x x x x x x x x x x x x x x x x x x x x x x x x x x x x x x x x x x x x x x x x x x x x x x x x x x x x x x x x x x x x ",
"x x x x x x x x x x x x x x x x x x x x x x x x x x x x x x x x x x x x x x x x x x x x x x x x x x x x x x x x x x x x x x x x ",
"x x x x x x x x x x x x x x x x x x x x x x x x x x x x x x x x x x x x x x x x x x x x x x x x x x x x x x x x x x x x x x x x "
};
