/* XPM */
static char *stand2[] = {
/* columns rows colors chars-per-pixel */
"64 64 253 2 ",
"   c #010100",
".  c #0B0603",
"X  c #170000",
"o  c #141501",
"O  c #081313",
"+  c #161817",
"@  c #2B0000",
"#  c #370202",
"$  c #1C3619",
"%  c #282800",
"&  c #363601",
"*  c #3B3B00",
"=  c #093332",
"-  c #2B2A2A",
";  c #383838",
":  c #440101",
">  c #580000",
",  c #670000",
"<  c #730000",
"1  c #7D0000",
"2  c #711717",
"3  c #603800",
"4  c #563A3A",
"5  c #484A02",
"6  c #565600",
"7  c #707005",
"8  c #7C7C24",
"9  c #014D4D",
"0  c #0F5050",
"q  c #3E4444",
"w  c #286E46",
"e  c #0C6A6A",
"r  c #3B7878",
"t  c #484B4B",
"y  c #5A5B5B",
"u  c #794645",
"i  c #6B5654",
"p  c #71754E",
"a  c #556C6A",
"s  c #4D7272",
"d  c #427E7E",
"f  c #726D6D",
"g  c #8B0505",
"h  c #970101",
"j  c #AA0202",
"k  c #B30000",
"l  c #BF0000",
"z  c #BB0B07",
"x  c #B40B0A",
"c  c #BF1201",
"v  c #BC1806",
"b  c #AA1515",
"n  c #A21D1D",
"m  c #B51414",
"M  c #BD3204",
"N  c #992727",
"B  c #8A3636",
"V  c #AB2525",
"C  c #AA2B2B",
"Z  c #A53535",
"A  c #C10A03",
"S  c #C31503",
"D  c #C51A01",
"F  c #C41616",
"G  c #C71C12",
"H  c #FF0100",
"J  c #FD0900",
"K  c #F91801",
"L  c #C82600",
"P  c #C02A00",
"I  c #C53500",
"U  c #CD3A00",
"Y  c #F32800",
"T  c #FE2900",
"R  c #FA3301",
"E  c #C82727",
"W  c #CD3736",
"Q  c #CE3838",
"!  c #BC5605",
"~  c #B75015",
"^  c #BF6601",
"/  c #B8700F",
"(  c #9D5F30",
")  c #A7502D",
"_  c #D04B00",
"`  c #CB5200",
"'  c #F74D02",
"]  c #E75700",
"[  c #C66B00",
"{  c #D96700",
"}  c #D76B01",
"|  c #C87600",
" . c #C17D00",
".. c #DA7600",
"X. c #CE6918",
"o. c #F76400",
"O. c #E57400",
"+. c #FC7701",
"@. c #E07128",
"#. c #8D4F4B",
"$. c #965958",
"%. c #A54945",
"&. c #9B7450",
"*. c #8D6665",
"=. c #8D7965",
"-. c #D26853",
";. c #D96C6C",
":. c #DD7777",
">. c #59963D",
",. c #13907D",
"<. c #549E5E",
"1. c #7D8950",
"2. c #74B24B",
"3. c #7CC246",
"4. c #68C25B",
"5. c #75CB55",
"6. c #4CC77A",
"7. c #79DB6B",
"8. c #878801",
"9. c #989D04",
"0. c #B2921B",
"q. c #A8A702",
"w. c #B9AF0F",
"e. c #BABA03",
"r. c #A9AA32",
"t. c #C58800",
"y. c #DB8400",
"u. c #C69A00",
"i. c #DA9405",
"p. c #E18700",
"a. c #E28C00",
"s. c #E79B00",
"d. c #FE9700",
"f. c #C5AA01",
"g. c #C7B600",
"h. c #D6B200",
"j. c #E7A901",
"k. c #FBA30C",
"l. c #ECB700",
"z. c #FCB900",
"x. c #CBB92D",
"c. c #B6C416",
"v. c #B8CA11",
"b. c #90C737",
"n. c #A7D12A",
"m. c #B2E939",
"M. c #C5C500",
"N. c #CAC506",
"B. c #CBCB01",
"V. c #D9C801",
"C. c #D3D200",
"Z. c #DBDB01",
"A. c #D7D909",
"S. c #C4C518",
"D. c #D4D812",
"F. c #E8C906",
"G. c #F8C800",
"H. c #E3DE00",
"J. c #E8D803",
"K. c #F5D600",
"L. c #FDD500",
"P. c #DAEC14",
"I. c #E3E300",
"U. c #E4E707",
"Y. c #ECEC00",
"T. c #F8E501",
"R. c #FBEC00",
"E. c #F4F300",
"W. c #FCF400",
"Q. c #F5FA06",
"!. c #FEFD00",
"~. c #FDFD0B",
"^. c #E4E718",
"/. c #FCFC12",
"(. c #FBFB1A",
"). c #D6D52B",
"_. c #EED230",
"`. c #CEED2F",
"'. c #EBE82B",
"]. c #FBFA26",
"[. c #FEFE29",
"{. c #FCFC35",
"}. c #988F46",
"|. c #8FB945",
" X c #A9A94E",
".X c #A19F6B",
"XX c #E9A565",
"oX c #96DD56",
"OX c #A7E942",
"+X c #C2C252",
"@X c #DADA59",
"#X c #EFC55A",
"$X c #FEFD49",
"%X c #EEE950",
"&X c #FEFE57",
"*X c #DBDB65",
"=X c #C7C770",
"-X c #DCDC78",
";X c #FEFE67",
":X c #E5E570",
">X c #FDFD74",
",X c #FBFB7A",
"<X c #059494",
"1X c #378989",
"2X c #339796",
"3X c #13A996",
"4X c #2DB296",
"5X c #02A5A3",
"6X c #18A9A7",
"7X c #16BBAC",
"8X c #0AB5B4",
"9X c #05BAB9",
"0X c #44B8B8",
"qX c #28C199",
"wX c #39C990",
"eX c #16C1AB",
"rX c #0BC1B6",
"tX c #24C6A2",
"yX c #42C38B",
"uX c #00C0C0",
"iX c #0BC3C3",
"pX c #19C6C6",
"aX c #2DCBCB",
"sX c #4ACDCD",
"dX c #73D9D9",
"fX c #888888",
"gX c #968484",
"hX c #969695",
"jX c #B08F8F",
"kX c #A3A393",
"lX c #A8A7A7",
"zX c #B3B3AB",
"xX c #B6B6B3",
"cX c #E09696",
"vX c #E9A7A7",
"bX c #E2BFBF",
"nX c #CECE93",
"mX c #E4D095",
"MX c #ECEB89",
"NX c #FBFB8A",
"BX c #FEFE95",
"VX c #F9F99A",
"CX c #C9C9B2",
"ZX c #FBFBA8",
"AX c #FBF6B3",
"SX c #98D8D8",
"DX c #CACACA",
"FX c #DADAD9",
"GX c #E1DCDC",
"HX c #F1F1D0",
"JX c #ECECE5",
"KX c #F8E3E3",
"LX c #F6F8E7",
/* pixels */
"l l l l l l l l l l l l l l l l l l l l A A A l l l l l l l l l l l l l l l l l l l l l l l l l l l l l l l l l l l l l l l l l ",
"l l l l l l l l l l l l l l l l l l l l l l A F E E E V n n n n n n n n n n n n n n n x l l l l l l l l l l l l l l l l l l l l ",
"l l l l l l l l l l l l l l l l l l l l A A W :.cXcXcXgXs s s s s s s s s s s s s s a B x l l l l l l l l l l l l l l l l l l l ",
"l l l l l l l l l l l l l l l l l l l l A F -.bXJXJXFXdX7X9X9X9X9X9X9X9X9X9X9X9X9X9X6Xy n x l A l l l l l l l l l l l l l l l l ",
"l l l l l l l l l l l l l l l l l l l A Q ;.jXSXSXSXdXaXiXuXuXuXuXuXuXuXuXuXuXuXuXuX8X1Xy B x A l l l l l l l l l l l l l l l l ",
"l l l l l l l l l l l l l l l l l l l F ;.bXSXsXpXpXpXiXuXuXuXuXuXuXuXuXuXuXuXuXuXuX9X8X6Xa n l l l l l l l l l l l l l l l l l ",
"l l l l l l l l l l l l l l l l l l l m ;.SXdXaXuXuXuXuXuXuXuXuXuXuXuXuXuXuXrXrXuXuXuXuX9Xs n l l l l l l l l l l l l l l l l l ",
"l l l l l l l l l l l l l l l l l l l x f 0XaXiXuXuXuXuXuXuXuXuXuXuXuXuXuXuXrXrXuXuXuXuX9Xs n l l l l l l l l l l l l l l l l l ",
"l l l l l l l l l l l b N N N N N N N B s 8XuXuXuXuXrXeX4X4X2X2X2X2X2X2X4X4XqXqXqXqXqXeX8Xs n l l l l l l l l l l l l l l l l l ",
"l l l l l l l l l l x u s d d d d d d 1X2X9XuXuXuXuXrX6.2.}.%.%.%.%.%.%.&.|.3.3.3.3.5.wX8Xs n l l l l l l l l l l l l l l l l l ",
"l l l l l l l l l x N a 8XuX9X9X9X9X8X7XeXeXeXeXeXeXqX5.c.y.R K K K J K ] g.M.M.M.M.c.4.4Xa N z l l l l l l l l l l l l l l l l ",
"l l l l l l l l b u a 2X9XuXuXuXuXrXwX4.5.oX5.4.4.4.5.n.A.l.d.+.O.] Y K o.F.I.I.I.I.A.n.2.1.#.Z m l l l l l l l l l l l l l l l ",
"l l l l l l l l N s 6X8X8X9X9X9X9XqX4.c.D.P.P.S.c.c.v.A.E.W.W.J.V.i.' K +.T.~.~.Q.W.E.A.c.r.}.$.V l l A A A l l l l l l l l l l ",
"l l l l l l l l n u s s s s s <.6.7.oX*X).U.^.@X*X*X@X'.~.!.!.E.I.l.] K @.%X;X;X$X].W.Y.Z.S. X( V l l l A A l l l l l l l l l l ",
"l l l l l l l l z b n n n n n ~ x.`.MXHX:XD.).MXZXVXNX$X~.!.!.!.W.G.o.' XXAXZXBX>X{.!.W.E.A.S.t.M l l l l l l l l l l l l l l l ",
"l l l l l l l l l l l l l D U .._.&XNXAXMX(.].$X[.~.(.[.[.[.~.R.G.d.o.G.'.$X[.~.(.].].(.!.I.B.u.! M c l l l l l l l l l l l l l ",
"l l l l l l l l l l l l A _ s._.MXZX:X@X-X].~.~.!.~.{.&X>X;X(.G.+.' O.T.~.~.!.~.{.&X;X&X~.I.B.g.u.^ M l l l l l l l l l l l l l ",
"l l l l l l l l l l l c P ..K.$XAXHX*XS.-X[.!.!.!.~.{.>XZXBX[.G.o.' i.E.!.!.!.~.{.>XBX>X/.Y.C.M.M.w.! m z l l l l l l l l l l l ",
"l l l l l l l l l l c M [ h.T.$XAXHX*XS.-X[.!.!.!.Q.^.@XZXBX[.T.z.k.#X(.!.!.!.Q.'.:XBX>X/.E.Y.Z.B.w.( %.C l l l l l l l l l l l ",
"l l l l l l l l l l c [ g.A./.$XZXHX*XS.-X%X'.D.e.e.q.+XVXBX[.!.!.].BX%X).N.g.e.w.@XBX>X/.!.!.Y.C.w.}.=.) z l l l l l l l l l l ",
"l l l l l l l l l l D | V.'.;X,XNX>X'.^.:XLXlX;     + fXJXBX[.!.!.[.BXJXfX+     ; lXLX>X/.!.!.Y.C.e.r.}.) c l l l l l l l l l l ",
"l l l l l l l l l l D y.T.&XAXZX&X/.~./.>XLXlX;     + fXJXBX[.!.!.[.BXJXfX+     ; lXLX>X/.!.!.Y.C.v.e.w.^ c l l l l l l l l l l ",
"l l l l l l l l l l D p.R.$XBX>X[.!.!.~.$XBX=X8 6 6 7  XVX,X%X%X%X%X,XVX X7 6 6 8 =XBX$X~.!.!.Y.C.M.M.g.^ c l l l l l l l l l l ",
"l l l l A l l l l l D p.R./.[.[.~.!.!.!.(.{.'.D.M.M.B.^.{.%XnXnXnXnX%X{.^.B.M.M.D.'.{.(.!.!.!.Y.C.M.M.g.^ c l l l l l l l l l l ",
"l l l l l l l l l l D p.R.R.L.G.G.L.R.!.!.!.!.!.!.!.!.(.'.:XCXDXDXCX*X'.(.!.!.!.!.!.!.!.!.R.L.l.j.u.f.e.^ c l l l l l l l l l l ",
"l l l l l l l l l l D p.T.z.+.o.o.+.z.!.!.!.!.!.!.!.~.%X-XmXGXGXDXCXnX-X%X~.!.!.!.!.!.!.!.z.+.' ' ] t.f.^ c l l l l l l l l l l ",
"l l l l l l l l l l D p.T.d.T H H T d.W.!.!.!.!.!.!./.*XCXFXJXJXDXxXxXnX@X/.!.!.!.!.!.!.W.d.T H H K ..f.^ S l l l l l l l l l l ",
"l l l l l l l l l l D p.T.d.T H H T d.W.!.!.!.!.!.!./.*XCXDXFXDXzXkX.X+X).Q.!.!.!.!.!.!.W.d.T H H K ..f.^ c l l l l l l l l l l ",
"l l l l l l l l l l D p.T.d.R J J T d.R.!.!.!.!.!.!./.*XCXCXCXzXhX.Xr.S.Z.W.!.!.!.!.!.!.R.d.T J J Y ..f.^ c l l l l l l l l l l ",
"l l l l l l l l l A D p.T.G.d.o.] ] O.s.G.W.!.!.!.!.~.'.*X=X=X=X X XS.Z.Y.W.!.!.!.!.W.G.s.O.] ] o.+.i.f.^ c l l l l l l l l l l ",
"l l l l l l l l A A D p.R.R.L.G.h.t.` U a.R.!.!.!.!.!./.(.^.S.w.w.S.A.E.W.!.!.!.!.!.R.a.U ` t.h.G.K.V.g.^ c l l l l l l l l l l ",
"l l l l l l l l A A D ..J.E.!.E.Z.g.| _ ..j.K.R.!.!.!.!.!.Y.Z.C.C.Z.Y.!.!.!.!.!.R.K.j..._ | g.Z.I.U.S.0.~ c l l l l l l l l l l ",
"l l l l l l l l l l D [ V.I.W.W.E.H.h.t.[ _ p.K.!.!.!.!.!.E.E.Y.Y.E.E.!.!.!.!.!.K.p._ [ t.h.H.I.Z.N.r.}.) z l l l l l l l l l l ",
"l l l l l l l l l l c ! u.V.E.!.!.E.Z.N.| I { j.K.K.K.K.K.K.K.K.K.K.K.K.K.K.K.K.j.{ I | g.Z.Y.I.B.w.}.*.Z x l l l l l l l l l l ",
"l l l l l l l l l l c M ` i.T.!.!.W.E.I.h. .[ } { { { { { { { { { { { { { { { { } [  .h.H.I.Z.C.M.w./ Z m l l l l l l l l l l l ",
"l l l l l l l l l l l l S } J.Q.~.!.!.W.I.N.t.I D G G G G G G G G G G G G G G D I t.N.H.E.I.B.v.v.w.! z l l l l l l l l l l l l ",
"l l l l l l l l l l A A z ) |.OXP.!.!.!.Y.I.h.| X.-.:.:.:.:.:.:.:.:.:.:.:.:.-.X.| h.H.Y.W.I.B.c.2.2.) z A A A l l l l l l l l l ",
"l l l l l l l l l l l l x u 4X6.m.!.!.!.!.W.H.g.x.mXKXKXKXKXKXKXKXKXKXKXKXKXmXx.g.H.E.W.!.I.B.b.6.2Xu x l l A A l l l l l l l l ",
"l l l l l l l l l l z N u s 6XqX7.m.P.!.!.!.E.Z.).XXvXvXvXvXvXvXvXvXvXvXvXvXXXx.B.Y.!.E.U.v.b.4.4X6Xs u N l l A l l l l l l l l ",
"l l l l l l l l l l m i 1X6X9XrXtX6.m.Q.!.!.W.E.F.@.Q Q Q Q Q Q Q Q Q Q Q Q X.f.B.Y.W.I.B.b.6.7X8X9X6X1Xi x l l l l l l l l l l ",
"l l l l l l l l A L ~ 1.yXwXwX4X4X<.r.F.T.!.!.!.K...U I P P P P P P P P P P [ f.C.I.I.M.9.>.,.3X4XwXwXyX1.~ L A l l l l l l l l ",
"l l l l l l l l L } j.S.m.OXOX|.&.B ~ { j.R.!.!.R.G.j.i.t. . . . . . . . . .f.J.I.Z.M.8.5 $ = w 2.OXOXm.S.j.} L l l l l l l l l ",
"l l l l l l l l U j.!.W.T.R.!.l._ l l S } K.T.E.W.!.W.H.B.M.M.M.M.M.M.M.M.M.C.Y.U.M.9.6 .     5 e.W.Y.I.Y.W.j.M k l l l l l l l ",
"l l l l l l l l U j.R.l.p.j.R.l._ l l A U } i.V.I.E.W.Y.I.I.I.I.I.I.I.I.I.I.H.Z.M.8.6 % .     5 e.Y.q.8.e.Y.f.3 , h l l l l l l ",
"l l l l l l l l U j.T.y.L } K.l._ l l l z v ! u.B.U.Q.E.E.W.W.W.W.W.W.W.W.E.I.B.9.5 o .       5 q.C.7 % 8.I.q.* # 1 k l l l l l ",
"l l l l l l l l U j.T...D U y.} L l l l N u p 2.5.oXOXm.U.I.I.I.I.I.I.I.I.I.v.b.<.w 9 =       % 7 8.* o 7 I.q.& X : 1 h l l l l ",
"l l l l l l A A U j.T...S S L D A l l x u 2X6X7XeXtXwX3.v.B.B.B.B.B.B.B.B.B.b.6.7X5X<X9 O     . o % o o 7 I.q.&   X @ < k l l l ",
"l l l l A A A A L ..j.` A l l l l x n B s 8X9XrX9X5X,.>.8.8.8.8.8.8.8.8.8.8.>.3XuXuX8Xe = O           . 6 q.7 %     X , k l l l ",
"l l l l l l l l A I U L A l l l l b i 1X6X9XuXuX5Xe = $ & & & & & & & & & & w 3XuXuX9X5X<X9 O         . % * % .     X , k l l l ",
"l l l l l l l l l l l l l l l l x N a 5X5X5X5X8X<X=                         = <X8X5X5X5X5Xe = O .                   X , k l l l ",
"l l l l l l l l l l l l l l l m Z #.q 9 9 9 e 1Xr =                         = r 1Xe 9 9 9 0 t ; +                   X , k l l l ",
"l l l l l l l l l l l l l l l C $.f q + O O ; y y - . . . .                 - y y ; O O + q f y - .           . . . X , k l l l ",
"l l l l l l l l l l l l l m Z $.gXhXf y t 4 4 #.B 2 > > > # .               + ; t ; ; t y f hXfXy ; +       X : > > , g l l l l ",
"l l l l l l l l l l l l l C *.gXlXxXxXlXhXf #.V x j j j j , X               . . - t f hXlXxXxXlXfXy - .     # g j j k k l l l l ",
"l l l l l l l l l l l l l Z *.fXhXlXlXlXgX$.Z m l l l l l g > : : # X           O ; y fXlXlXlXhXfXf 4 : : : , j l l l l l l l l ",
"l l l l l l l l l l l l l Z *.fXfXfXfXgX$.V m l l l l l l k h h h 1 #           . O - y fXfXfXfXfX*.B h h h j k l l l l l l l l ",
"l l l l l l l l l l l l l C $.*.*.*.*.$.Z z l l l l l l l l l l A j , @ @ @ @ @ @ @ # 4 *.*.*.*.*.$.C l l l l l l l l l l l l l ",
"l l l l l l l l l l l l l m V C C C C C m l l l l l l l l l l l l k h 1 1 1 1 1 1 1 g n C C C C C V m l l l l l l l l l l l l l ",
"l l l l l l l l l l l l l l l l l l l l l l l l l l l l l l l l l l l l l l l l l l l l l l l l l l l l l l l l l l l l l l l l ",
"l l l l l l l l l l l l l l l l l A A A l l l l l l l l l l l l l l l l l l l l l l l l l l l l l l l l l l l l l l l l l l l l ",
"l l l l l l l l l l l l l l l l l l l l l l l l l l l l l l l l l l l l l l l l l l l l l l l l l l l l l l l l l l l l l l l l ",
"l l l l l l l l l l l l l l l l l l l l l l l l l l l l l l l l l l l l l l l l l l l l l l l l l l l l l l l l l l l l l l l l ",
"l l l l l l l l l l l l l l l l l l l l l l l l l l l l l l l l l l l l l l l l l l l l l l l l l l l l l l l l l l l l l l l l ",
"l l l l l l l l l l l l l l l l l l l l l l l l l l l l l l l l l l l l l l l l l l l l l l l l l l l l l l l l l l l l l l l l "
};
