/* XPM */
static char *_[] = {
/* columns rows colors chars-per-pixel */
"64 64 61 1 ",
"  c black",
". c #060000",
"X c #080000",
"o c #0C0000",
"O c #120000",
"+ c #170000",
"@ c #180000",
"# c #1E0000",
"$ c #220000",
"% c #270000",
"& c #290000",
"* c #2F0000",
"= c #320000",
"- c #360000",
"; c #380000",
": c #400000",
"> c #450000",
", c #4A0000",
"< c #4C0000",
"1 c #530000",
"2 c #550000",
"3 c #590000",
"4 c #5F0000",
"5 c #620000",
"6 c #640000",
"7 c #680000",
"8 c #6C0000",
"9 c #700000",
"0 c #770000",
"q c #7A0000",
"w c #7F0000",
"e c #800000",
"r c #860000",
"t c #8B0000",
"y c #8E0000",
"u c #900000",
"i c #970000",
"p c #9C0000",
"a c #A00000",
"s c #A90000",
"d c #AC0000",
"f c #B40000",
"g c #B90000",
"h c #BF0000",
"j c #B80F00",
"k c #B71500",
"l c #B91200",
"z c #B51E00",
"x c #BC2300",
"c c #B94300",
"v c #B94400",
"b c #BF5100",
"n c #C44B00",
"m c #C35800",
"M c #D59A00",
"N c #D59D00",
"B c #D4A600",
"V c #D5A800",
"C c #E6C500",
"Z c #F5E700",
"A c #FFF200",
/* pixels */
"hhhhhhhhhhhhhhhhhhhhhhhhhhhhhhhhhhhhhhhhhhhhhhhhhhhhhhhhhhhhhhhh",
"hhhhhhhhhhhhhhhhhhhhhhhhhhhhhhhhhhhhhhhhhhhhhhhhhhhhhhhhhhhhhhhh",
"hhhhhhhhhhhhhhhhhhhhhhhhhhhhhhhhhhhhhhhhhhhhhhhhhhhhhhhhhhhhhhhh",
"hhhhhhhhhhhhhhhhhhhhhhhhhhhhhhhhhhhhhhhhhhhhhhhhhhhhhhhhhhhhhhhh",
"hhhhhhhhhhhhhhhhhhhhhhhhhhhhhhhhhhhhhhhhhhhhhhhhhhhhhhhhhhhhhhhh",
"hhhhhhhhhhhhhhhhhhhhhhhhhhhhhhhhhhhhhhhhhhhhhhhhhhhhhhhhhhhhhhhh",
"hhhhhhhhhhhhhhhhhhhhhhhhhhhhhhhhhhhhhhhhhhhhhhhhhhhhhhhhhhhhhhhh",
"hhhhhhhhhhhhhhhhhhhhhhhhlcvvvvvvvvvvchhhhhhhhhhhhhhhhhhhhhhhhhhh",
"hhhhhhhhhhhhhhhhhhhhhhhhNAAAAAAAAAAAAvhhhhhhhhhhhhhhhhhhhhhhhhhh",
"hhhhhhhhhhhhhhhhhhhhhhhhBAAAAAAAAAAAAbhhhhhhhhhhhhhhhhhhhhhhhhhh",
"hhhhhhhhhhhhmZAAAAAAAAAAAAAAAAAAAAAAAAAAAAAAAAAACxhhhhhhhhhhhhhh",
"hhhhhhhhhhhMAAAAAAAAAAAAAAAAAAAAAAAAAAAAAAAAAAAAAZnhhhhhhhhhhhhh",
"hhhhhhhhhhjAAAAAAAAAAAAAAAAAAAAAAAAAAAAAAAAAAAAAAAVhhhhhhhhhhhhh",
"hhhhhhhhhhjAAAAAAAAAAAAAAAAAAAAAAAAAAAAAAAAAAAAAAAVhhhhhhhhhhhhh",
"hhhhhhhhhhhzzzzzzzzzzzzzzzzzzzzzzzzzzzzzzzzzzzzzzzkhhhhhhhhhhhhh",
"hhhhhhhhhhhs4444444444444444444444444444444444444qhhhhhhhhhhhhhh",
"hhhhhhhhhhhs                                     ,hhhhhhhhhhhhhh",
"hhhhhhhhhhhhX                                    6hhhhhhhhhhhhhh",
"hhhhhhhhhhhh%                                    rhhhhhhhhhhhhhh",
"hhhhhhhhhhhh>                                    ahhhhhhhhhhhhhh",
"hhhhhhhhhhhh5                                    ghhhhhhhhhhhhhh",
"hhhhhhhhhhhhw                                   #hhhhhhhhhhhhhhh",
"hhhhhhhhhhhhp                                   ;hhhhhhhhhhhhhhh",
"hhhhhhhhhhhhg                                   2hhhhhhhhhhhhhhh",
"hhhhhhhhhhhhh@                                  9hhhhhhhhhhhhhhh",
"hhhhhhhhhhhhh-                                  uhhhhhhhhhhhhhhh",
"hhhhhhhhhhhhh1        .444$  244=  144;         dhhhhhhhhhhhhhhh",
"hhhhhhhhhhhhh9        ohhh>  shh6  ahh9        Xhhhhhhhhhhhhhhhh",
"hhhhhhhhhhhhhy        ohhh>  shh6  ahh9        &hhhhhhhhhhhhhhhh",
"hhhhhhhhhhhhhd        ohhh>  shh6  ahh9        >hhhhhhhhhhhhhhhh",
"hhhhhhhhhhhhhhX       ohhh>  shh6  ahh9        5hhhhhhhhhhhhhhhh",
"hhhhhhhhhhhhhh%       ohhh>  shh6  ahh9        whhhhhhhhhhhhhhhh",
"hhhhhhhhhhhhhh>       ohhh>  shh6  ahh9        phhhhhhhhhhhhhhhh",
"hhhhhhhhhhhhhh6       ohhh>  shh6  ahh9        ghhhhhhhhhhhhhhhh",
"hhhhhhhhhhhhhhe       ohhh>  shh6  ahh9       +hhhhhhhhhhhhhhhhh",
"hhhhhhhhhhhhhhp       ohhh>  shh6  ahh9       -hhhhhhhhhhhhhhhhh",
"hhhhhhhhhhhhhhg       ohhh>  shh6  ahh9       1hhhhhhhhhhhhhhhhh",
"hhhhhhhhhhhhhhh@      ohhh>  shh6  ahh9       8hhhhhhhhhhhhhhhhh",
"hhhhhhhhhhhhhhh-      ohhh>  shh6  ahh9       thhhhhhhhhhhhhhhhh",
"hhhhhhhhhhhhhhh2      ohhh>  shh6  ahh9       shhhhhhhhhhhhhhhhh",
"hhhhhhhhhhhhhhh9      ohhh>  shh6  ahh9      .hhhhhhhhhhhhhhhhhh",
"hhhhhhhhhhhhhhhy      ohhh>  shh6  ahh9      $hhhhhhhhhhhhhhhhhh",
"hhhhhhhhhhhhhhhd      ohhh>  shh6  ahh9      :hhhhhhhhhhhhhhhhhh",
"hhhhhhhhhhhhhhhhX     ohhh>  shh6  ahh9      4hhhhhhhhhhhhhhhhhh",
"hhhhhhhhhhhhhhhh&     ohhh>  shh6  ahh9      qhhhhhhhhhhhhhhhhhh",
"hhhhhhhhhhhhhhhh>     ohhh>  shh6  ahh9      ihhhhhhhhhhhhhhhhhh",
"hhhhhhhhhhhhhhhh6     Xyyy-  eyy,  0yy1      fhhhhhhhhhhhhhhhhhh",
"hhhhhhhhhhhhhhhhe                           Ohhhhhhhhhhhhhhhhhhh",
"hhhhhhhhhhhhhhhhp                           *hhhhhhhhhhhhhhhhhhh",
"hhhhhhhhhhhhhhhhg                           <hhhhhhhhhhhhhhhhhhh",
"hhhhhhhhhhhhhhhhh@                          7hhhhhhhhhhhhhhhhhhh",
"hhhhhhhhhhhhhhhhh;                          rhhhhhhhhhhhhhhhhhhh",
"hhhhhhhhhhhhhhhhh2                          ahhhhhhhhhhhhhhhhhhh",
"hhhhhhhhhhhhhhhhh9                         .hhhhhhhhhhhhhhhhhhhh",
"hhhhhhhhhhhhhhhhhu                         #hhhhhhhhhhhhhhhhhhhh",
"hhhhhhhhhhhhhhhhhd                         ;hhhhhhhhhhhhhhhhhhhh",
"hhhhhhhhhhhhhhhhhho                        3hhhhhhhhhhhhhhhhhhhh",
"hhhhhhhhhhhhhhhhhh8333333333333333333333333ihhhhhhhhhhhhhhhhhhhh",
"hhhhhhhhhhhhhhhhhhhhhhhhhhhhhhhhhhhhhhhhhhhhhhhhhhhhhhhhhhhhhhhh",
"hhhhhhhhhhhhhhhhhhhhhhhhhhhhhhhhhhhhhhhhhhhhhhhhhhhhhhhhhhhhhhhh",
"hhhhhhhhhhhhhhhhhhhhhhhhhhhhhhhhhhhhhhhhhhhhhhhhhhhhhhhhhhhhhhhh",
"hhhhhhhhhhhhhhhhhhhhhhhhhhhhhhhhhhhhhhhhhhhhhhhhhhhhhhhhhhhhhhhh",
"hhhhhhhhhhhhhhhhhhhhhhhhhhhhhhhhhhhhhhhhhhhhhhhhhhhhhhhhhhhhhhhh",
"hhhhhhhhhhhhhhhhhhhhhhhhhhhhhhhhhhhhhhhhhhhhhhhhhhhhhhhhhhhhhhhh"
};
